G04 #@! TF.GenerationSoftware,KiCad,Pcbnew,(5.0.2)-1*
G04 #@! TF.CreationDate,2019-06-21T18:54:03+05:30*
G04 #@! TF.ProjectId,CapacityOfBattery,43617061-6369-4747-994f-664261747465,rev?*
G04 #@! TF.SameCoordinates,Original*
G04 #@! TF.FileFunction,Copper,L1,Top*
G04 #@! TF.FilePolarity,Positive*
%FSLAX46Y46*%
G04 Gerber Fmt 4.6, Leading zero omitted, Abs format (unit mm)*
G04 Created by KiCad (PCBNEW (5.0.2)-1) date 06/21/19 18:54:03*
%MOMM*%
%LPD*%
G01*
G04 APERTURE LIST*
G04 #@! TA.AperFunction,ComponentPad*
%ADD10C,1.524000*%
G04 #@! TD*
G04 #@! TA.AperFunction,SMDPad,CuDef*
%ADD11R,0.900000X0.800000*%
G04 #@! TD*
G04 #@! TA.AperFunction,ComponentPad*
%ADD12O,1.700000X1.700000*%
G04 #@! TD*
G04 #@! TA.AperFunction,ComponentPad*
%ADD13R,1.700000X1.700000*%
G04 #@! TD*
G04 #@! TA.AperFunction,Conductor*
%ADD14C,0.100000*%
G04 #@! TD*
G04 #@! TA.AperFunction,SMDPad,CuDef*
%ADD15C,1.150000*%
G04 #@! TD*
G04 #@! TA.AperFunction,SMDPad,CuDef*
%ADD16C,0.950000*%
G04 #@! TD*
G04 #@! TA.AperFunction,ComponentPad*
%ADD17C,2.000000*%
G04 #@! TD*
G04 #@! TA.AperFunction,ViaPad*
%ADD18C,0.800000*%
G04 #@! TD*
G04 #@! TA.AperFunction,Conductor*
%ADD19C,0.250000*%
G04 #@! TD*
G04 #@! TA.AperFunction,Conductor*
%ADD20C,0.254000*%
G04 #@! TD*
G04 APERTURE END LIST*
D10*
G04 #@! TO.P,,30*
G04 #@! TO.N,/LED1*
X42810000Y-22860000D03*
G04 #@! TO.P,,29*
G04 #@! TO.N,/LED2*
X42810000Y-25400000D03*
G04 #@! TO.P,,28*
G04 #@! TO.N,/LED3*
X42810000Y-27940000D03*
G04 #@! TO.P,,27*
G04 #@! TO.N,Net-(U1-Pad27)*
X42810000Y-30480000D03*
G04 #@! TO.P,,26*
G04 #@! TO.N,Net-(U1-Pad26)*
X42810000Y-33020000D03*
G04 #@! TO.P,,25*
G04 #@! TO.N,/Vcc*
X42810000Y-35560000D03*
G04 #@! TO.P,,24*
G04 #@! TO.N,GND*
X42810000Y-38100000D03*
G04 #@! TO.P,,23*
G04 #@! TO.N,/LED4*
X42810000Y-40640000D03*
G04 #@! TO.P,,22*
G04 #@! TO.N,/En_VD*
X42810000Y-43180000D03*
G04 #@! TO.P,,21*
G04 #@! TO.N,/Ctrl4*
X42810000Y-45720000D03*
G04 #@! TO.P,,20*
G04 #@! TO.N,/Ctrl3*
X42810000Y-48260000D03*
G04 #@! TO.P,,19*
G04 #@! TO.N,/Ctrl2*
X42810000Y-50800000D03*
G04 #@! TO.P,,18*
G04 #@! TO.N,/Ctrl1*
X42810000Y-53340000D03*
G04 #@! TO.P,,17*
G04 #@! TO.N,GND*
X42810000Y-55880000D03*
G04 #@! TO.P,,16*
G04 #@! TO.N,/Vcc*
X42810000Y-58420000D03*
G04 #@! TO.P,,15*
G04 #@! TO.N,Net-(U1-Pad15)*
X14870000Y-58420000D03*
G04 #@! TO.P,,14*
G04 #@! TO.N,GND*
X14870000Y-55880000D03*
G04 #@! TO.P,,13*
G04 #@! TO.N,Net-(U1-Pad13)*
X14870000Y-53340000D03*
G04 #@! TO.P,,12*
G04 #@! TO.N,Net-(U1-Pad12)*
X14870000Y-50800000D03*
G04 #@! TO.P,,11*
G04 #@! TO.N,/Vcc*
X14870000Y-48260000D03*
G04 #@! TO.P,,10*
G04 #@! TO.N,GND*
X14870000Y-45720000D03*
G04 #@! TO.P,,9*
G04 #@! TO.N,Net-(U1-Pad9)*
X14870000Y-43180000D03*
G04 #@! TO.P,,8*
G04 #@! TO.N,Net-(U1-Pad8)*
X14870000Y-40640000D03*
G04 #@! TO.P,,7*
G04 #@! TO.N,Net-(U1-Pad7)*
X14870000Y-38100000D03*
G04 #@! TO.P,,6*
G04 #@! TO.N,Net-(U1-Pad6)*
X14870000Y-35560000D03*
G04 #@! TO.P,,5*
G04 #@! TO.N,Net-(U1-Pad5)*
X14870000Y-33020000D03*
G04 #@! TO.P,,4*
G04 #@! TO.N,/SW*
X14870000Y-30480000D03*
G04 #@! TO.P,,3*
G04 #@! TO.N,Net-(U1-Pad3)*
X14870000Y-27940000D03*
G04 #@! TO.P,,2*
G04 #@! TO.N,GND*
X14870000Y-25400000D03*
G04 #@! TO.P,,1*
G04 #@! TO.N,/Vin*
X14870000Y-22860000D03*
G04 #@! TD*
D11*
G04 #@! TO.P,Q5,3*
G04 #@! TO.N,Net-(Q5-Pad3)*
X28630000Y-31760000D03*
G04 #@! TO.P,Q5,2*
G04 #@! TO.N,GND*
X30630000Y-30810000D03*
G04 #@! TO.P,Q5,1*
G04 #@! TO.N,/En_VD*
X30630000Y-32710000D03*
G04 #@! TD*
D12*
G04 #@! TO.P,J1,2*
G04 #@! TO.N,/Vbat*
X35814000Y-19650000D03*
D13*
G04 #@! TO.P,J1,1*
G04 #@! TO.N,GND*
X33274000Y-19650000D03*
G04 #@! TD*
G04 #@! TO.P,J2,1*
G04 #@! TO.N,GND*
X35814000Y-62865000D03*
D12*
G04 #@! TO.P,J2,2*
G04 #@! TO.N,/dut*
X33274000Y-62865000D03*
G04 #@! TD*
D11*
G04 #@! TO.P,Q1,1*
G04 #@! TO.N,/Ctrl1*
X30350000Y-53020000D03*
G04 #@! TO.P,Q1,2*
G04 #@! TO.N,/Vbat*
X30350000Y-51120000D03*
G04 #@! TO.P,Q1,3*
G04 #@! TO.N,Net-(Q1-Pad3)*
X28350000Y-52070000D03*
G04 #@! TD*
G04 #@! TO.P,Q2,3*
G04 #@! TO.N,Net-(Q2-Pad3)*
X28350000Y-46990000D03*
G04 #@! TO.P,Q2,2*
G04 #@! TO.N,/Vbat*
X30350000Y-46040000D03*
G04 #@! TO.P,Q2,1*
G04 #@! TO.N,/Ctrl2*
X30350000Y-47940000D03*
G04 #@! TD*
G04 #@! TO.P,Q3,1*
G04 #@! TO.N,/Ctrl3*
X30350000Y-42860000D03*
G04 #@! TO.P,Q3,2*
G04 #@! TO.N,/Vbat*
X30350000Y-40960000D03*
G04 #@! TO.P,Q3,3*
G04 #@! TO.N,Net-(Q3-Pad3)*
X28350000Y-41910000D03*
G04 #@! TD*
G04 #@! TO.P,Q4,3*
G04 #@! TO.N,/dut*
X28630000Y-36830000D03*
G04 #@! TO.P,Q4,2*
G04 #@! TO.N,/Vbat*
X30630000Y-35880000D03*
G04 #@! TO.P,Q4,1*
G04 #@! TO.N,/Ctrl4*
X30630000Y-37780000D03*
G04 #@! TD*
D14*
G04 #@! TO.N,/Ctrl1*
G04 #@! TO.C,R1*
G36*
X34024910Y-44101202D02*
X34049135Y-44104795D01*
X34072891Y-44110746D01*
X34095949Y-44118996D01*
X34118087Y-44129467D01*
X34139093Y-44142057D01*
X34158763Y-44156645D01*
X34176908Y-44173092D01*
X34193355Y-44191237D01*
X34207943Y-44210907D01*
X34220533Y-44231913D01*
X34231004Y-44254051D01*
X34239254Y-44277109D01*
X34245205Y-44300865D01*
X34248798Y-44325090D01*
X34250000Y-44349550D01*
X34250000Y-45250450D01*
X34248798Y-45274910D01*
X34245205Y-45299135D01*
X34239254Y-45322891D01*
X34231004Y-45345949D01*
X34220533Y-45368087D01*
X34207943Y-45389093D01*
X34193355Y-45408763D01*
X34176908Y-45426908D01*
X34158763Y-45443355D01*
X34139093Y-45457943D01*
X34118087Y-45470533D01*
X34095949Y-45481004D01*
X34072891Y-45489254D01*
X34049135Y-45495205D01*
X34024910Y-45498798D01*
X34000450Y-45500000D01*
X33349550Y-45500000D01*
X33325090Y-45498798D01*
X33300865Y-45495205D01*
X33277109Y-45489254D01*
X33254051Y-45481004D01*
X33231913Y-45470533D01*
X33210907Y-45457943D01*
X33191237Y-45443355D01*
X33173092Y-45426908D01*
X33156645Y-45408763D01*
X33142057Y-45389093D01*
X33129467Y-45368087D01*
X33118996Y-45345949D01*
X33110746Y-45322891D01*
X33104795Y-45299135D01*
X33101202Y-45274910D01*
X33100000Y-45250450D01*
X33100000Y-44349550D01*
X33101202Y-44325090D01*
X33104795Y-44300865D01*
X33110746Y-44277109D01*
X33118996Y-44254051D01*
X33129467Y-44231913D01*
X33142057Y-44210907D01*
X33156645Y-44191237D01*
X33173092Y-44173092D01*
X33191237Y-44156645D01*
X33210907Y-44142057D01*
X33231913Y-44129467D01*
X33254051Y-44118996D01*
X33277109Y-44110746D01*
X33300865Y-44104795D01*
X33325090Y-44101202D01*
X33349550Y-44100000D01*
X34000450Y-44100000D01*
X34024910Y-44101202D01*
X34024910Y-44101202D01*
G37*
D15*
G04 #@! TD*
G04 #@! TO.P,R1,2*
G04 #@! TO.N,/Ctrl1*
X33675000Y-44800000D03*
D14*
G04 #@! TO.N,/Vcc*
G04 #@! TO.C,R1*
G36*
X36074910Y-44101202D02*
X36099135Y-44104795D01*
X36122891Y-44110746D01*
X36145949Y-44118996D01*
X36168087Y-44129467D01*
X36189093Y-44142057D01*
X36208763Y-44156645D01*
X36226908Y-44173092D01*
X36243355Y-44191237D01*
X36257943Y-44210907D01*
X36270533Y-44231913D01*
X36281004Y-44254051D01*
X36289254Y-44277109D01*
X36295205Y-44300865D01*
X36298798Y-44325090D01*
X36300000Y-44349550D01*
X36300000Y-45250450D01*
X36298798Y-45274910D01*
X36295205Y-45299135D01*
X36289254Y-45322891D01*
X36281004Y-45345949D01*
X36270533Y-45368087D01*
X36257943Y-45389093D01*
X36243355Y-45408763D01*
X36226908Y-45426908D01*
X36208763Y-45443355D01*
X36189093Y-45457943D01*
X36168087Y-45470533D01*
X36145949Y-45481004D01*
X36122891Y-45489254D01*
X36099135Y-45495205D01*
X36074910Y-45498798D01*
X36050450Y-45500000D01*
X35399550Y-45500000D01*
X35375090Y-45498798D01*
X35350865Y-45495205D01*
X35327109Y-45489254D01*
X35304051Y-45481004D01*
X35281913Y-45470533D01*
X35260907Y-45457943D01*
X35241237Y-45443355D01*
X35223092Y-45426908D01*
X35206645Y-45408763D01*
X35192057Y-45389093D01*
X35179467Y-45368087D01*
X35168996Y-45345949D01*
X35160746Y-45322891D01*
X35154795Y-45299135D01*
X35151202Y-45274910D01*
X35150000Y-45250450D01*
X35150000Y-44349550D01*
X35151202Y-44325090D01*
X35154795Y-44300865D01*
X35160746Y-44277109D01*
X35168996Y-44254051D01*
X35179467Y-44231913D01*
X35192057Y-44210907D01*
X35206645Y-44191237D01*
X35223092Y-44173092D01*
X35241237Y-44156645D01*
X35260907Y-44142057D01*
X35281913Y-44129467D01*
X35304051Y-44118996D01*
X35327109Y-44110746D01*
X35350865Y-44104795D01*
X35375090Y-44101202D01*
X35399550Y-44100000D01*
X36050450Y-44100000D01*
X36074910Y-44101202D01*
X36074910Y-44101202D01*
G37*
D15*
G04 #@! TD*
G04 #@! TO.P,R1,1*
G04 #@! TO.N,/Vcc*
X35725000Y-44800000D03*
D14*
G04 #@! TO.N,Net-(D1-Pad2)*
G04 #@! TO.C,R2*
G36*
X34034910Y-34681202D02*
X34059135Y-34684795D01*
X34082891Y-34690746D01*
X34105949Y-34698996D01*
X34128087Y-34709467D01*
X34149093Y-34722057D01*
X34168763Y-34736645D01*
X34186908Y-34753092D01*
X34203355Y-34771237D01*
X34217943Y-34790907D01*
X34230533Y-34811913D01*
X34241004Y-34834051D01*
X34249254Y-34857109D01*
X34255205Y-34880865D01*
X34258798Y-34905090D01*
X34260000Y-34929550D01*
X34260000Y-35830450D01*
X34258798Y-35854910D01*
X34255205Y-35879135D01*
X34249254Y-35902891D01*
X34241004Y-35925949D01*
X34230533Y-35948087D01*
X34217943Y-35969093D01*
X34203355Y-35988763D01*
X34186908Y-36006908D01*
X34168763Y-36023355D01*
X34149093Y-36037943D01*
X34128087Y-36050533D01*
X34105949Y-36061004D01*
X34082891Y-36069254D01*
X34059135Y-36075205D01*
X34034910Y-36078798D01*
X34010450Y-36080000D01*
X33359550Y-36080000D01*
X33335090Y-36078798D01*
X33310865Y-36075205D01*
X33287109Y-36069254D01*
X33264051Y-36061004D01*
X33241913Y-36050533D01*
X33220907Y-36037943D01*
X33201237Y-36023355D01*
X33183092Y-36006908D01*
X33166645Y-35988763D01*
X33152057Y-35969093D01*
X33139467Y-35948087D01*
X33128996Y-35925949D01*
X33120746Y-35902891D01*
X33114795Y-35879135D01*
X33111202Y-35854910D01*
X33110000Y-35830450D01*
X33110000Y-34929550D01*
X33111202Y-34905090D01*
X33114795Y-34880865D01*
X33120746Y-34857109D01*
X33128996Y-34834051D01*
X33139467Y-34811913D01*
X33152057Y-34790907D01*
X33166645Y-34771237D01*
X33183092Y-34753092D01*
X33201237Y-34736645D01*
X33220907Y-34722057D01*
X33241913Y-34709467D01*
X33264051Y-34698996D01*
X33287109Y-34690746D01*
X33310865Y-34684795D01*
X33335090Y-34681202D01*
X33359550Y-34680000D01*
X34010450Y-34680000D01*
X34034910Y-34681202D01*
X34034910Y-34681202D01*
G37*
D15*
G04 #@! TD*
G04 #@! TO.P,R2,2*
G04 #@! TO.N,Net-(D1-Pad2)*
X33685000Y-35380000D03*
D14*
G04 #@! TO.N,/Vcc*
G04 #@! TO.C,R2*
G36*
X36084910Y-34681202D02*
X36109135Y-34684795D01*
X36132891Y-34690746D01*
X36155949Y-34698996D01*
X36178087Y-34709467D01*
X36199093Y-34722057D01*
X36218763Y-34736645D01*
X36236908Y-34753092D01*
X36253355Y-34771237D01*
X36267943Y-34790907D01*
X36280533Y-34811913D01*
X36291004Y-34834051D01*
X36299254Y-34857109D01*
X36305205Y-34880865D01*
X36308798Y-34905090D01*
X36310000Y-34929550D01*
X36310000Y-35830450D01*
X36308798Y-35854910D01*
X36305205Y-35879135D01*
X36299254Y-35902891D01*
X36291004Y-35925949D01*
X36280533Y-35948087D01*
X36267943Y-35969093D01*
X36253355Y-35988763D01*
X36236908Y-36006908D01*
X36218763Y-36023355D01*
X36199093Y-36037943D01*
X36178087Y-36050533D01*
X36155949Y-36061004D01*
X36132891Y-36069254D01*
X36109135Y-36075205D01*
X36084910Y-36078798D01*
X36060450Y-36080000D01*
X35409550Y-36080000D01*
X35385090Y-36078798D01*
X35360865Y-36075205D01*
X35337109Y-36069254D01*
X35314051Y-36061004D01*
X35291913Y-36050533D01*
X35270907Y-36037943D01*
X35251237Y-36023355D01*
X35233092Y-36006908D01*
X35216645Y-35988763D01*
X35202057Y-35969093D01*
X35189467Y-35948087D01*
X35178996Y-35925949D01*
X35170746Y-35902891D01*
X35164795Y-35879135D01*
X35161202Y-35854910D01*
X35160000Y-35830450D01*
X35160000Y-34929550D01*
X35161202Y-34905090D01*
X35164795Y-34880865D01*
X35170746Y-34857109D01*
X35178996Y-34834051D01*
X35189467Y-34811913D01*
X35202057Y-34790907D01*
X35216645Y-34771237D01*
X35233092Y-34753092D01*
X35251237Y-34736645D01*
X35270907Y-34722057D01*
X35291913Y-34709467D01*
X35314051Y-34698996D01*
X35337109Y-34690746D01*
X35360865Y-34684795D01*
X35385090Y-34681202D01*
X35409550Y-34680000D01*
X36060450Y-34680000D01*
X36084910Y-34681202D01*
X36084910Y-34681202D01*
G37*
D15*
G04 #@! TD*
G04 #@! TO.P,R2,1*
G04 #@! TO.N,/Vcc*
X35735000Y-35380000D03*
D14*
G04 #@! TO.N,/Vcc*
G04 #@! TO.C,R3*
G36*
X36084910Y-41761202D02*
X36109135Y-41764795D01*
X36132891Y-41770746D01*
X36155949Y-41778996D01*
X36178087Y-41789467D01*
X36199093Y-41802057D01*
X36218763Y-41816645D01*
X36236908Y-41833092D01*
X36253355Y-41851237D01*
X36267943Y-41870907D01*
X36280533Y-41891913D01*
X36291004Y-41914051D01*
X36299254Y-41937109D01*
X36305205Y-41960865D01*
X36308798Y-41985090D01*
X36310000Y-42009550D01*
X36310000Y-42910450D01*
X36308798Y-42934910D01*
X36305205Y-42959135D01*
X36299254Y-42982891D01*
X36291004Y-43005949D01*
X36280533Y-43028087D01*
X36267943Y-43049093D01*
X36253355Y-43068763D01*
X36236908Y-43086908D01*
X36218763Y-43103355D01*
X36199093Y-43117943D01*
X36178087Y-43130533D01*
X36155949Y-43141004D01*
X36132891Y-43149254D01*
X36109135Y-43155205D01*
X36084910Y-43158798D01*
X36060450Y-43160000D01*
X35409550Y-43160000D01*
X35385090Y-43158798D01*
X35360865Y-43155205D01*
X35337109Y-43149254D01*
X35314051Y-43141004D01*
X35291913Y-43130533D01*
X35270907Y-43117943D01*
X35251237Y-43103355D01*
X35233092Y-43086908D01*
X35216645Y-43068763D01*
X35202057Y-43049093D01*
X35189467Y-43028087D01*
X35178996Y-43005949D01*
X35170746Y-42982891D01*
X35164795Y-42959135D01*
X35161202Y-42934910D01*
X35160000Y-42910450D01*
X35160000Y-42009550D01*
X35161202Y-41985090D01*
X35164795Y-41960865D01*
X35170746Y-41937109D01*
X35178996Y-41914051D01*
X35189467Y-41891913D01*
X35202057Y-41870907D01*
X35216645Y-41851237D01*
X35233092Y-41833092D01*
X35251237Y-41816645D01*
X35270907Y-41802057D01*
X35291913Y-41789467D01*
X35314051Y-41778996D01*
X35337109Y-41770746D01*
X35360865Y-41764795D01*
X35385090Y-41761202D01*
X35409550Y-41760000D01*
X36060450Y-41760000D01*
X36084910Y-41761202D01*
X36084910Y-41761202D01*
G37*
D15*
G04 #@! TD*
G04 #@! TO.P,R3,1*
G04 #@! TO.N,/Vcc*
X35735000Y-42460000D03*
D14*
G04 #@! TO.N,/Ctrl2*
G04 #@! TO.C,R3*
G36*
X34034910Y-41761202D02*
X34059135Y-41764795D01*
X34082891Y-41770746D01*
X34105949Y-41778996D01*
X34128087Y-41789467D01*
X34149093Y-41802057D01*
X34168763Y-41816645D01*
X34186908Y-41833092D01*
X34203355Y-41851237D01*
X34217943Y-41870907D01*
X34230533Y-41891913D01*
X34241004Y-41914051D01*
X34249254Y-41937109D01*
X34255205Y-41960865D01*
X34258798Y-41985090D01*
X34260000Y-42009550D01*
X34260000Y-42910450D01*
X34258798Y-42934910D01*
X34255205Y-42959135D01*
X34249254Y-42982891D01*
X34241004Y-43005949D01*
X34230533Y-43028087D01*
X34217943Y-43049093D01*
X34203355Y-43068763D01*
X34186908Y-43086908D01*
X34168763Y-43103355D01*
X34149093Y-43117943D01*
X34128087Y-43130533D01*
X34105949Y-43141004D01*
X34082891Y-43149254D01*
X34059135Y-43155205D01*
X34034910Y-43158798D01*
X34010450Y-43160000D01*
X33359550Y-43160000D01*
X33335090Y-43158798D01*
X33310865Y-43155205D01*
X33287109Y-43149254D01*
X33264051Y-43141004D01*
X33241913Y-43130533D01*
X33220907Y-43117943D01*
X33201237Y-43103355D01*
X33183092Y-43086908D01*
X33166645Y-43068763D01*
X33152057Y-43049093D01*
X33139467Y-43028087D01*
X33128996Y-43005949D01*
X33120746Y-42982891D01*
X33114795Y-42959135D01*
X33111202Y-42934910D01*
X33110000Y-42910450D01*
X33110000Y-42009550D01*
X33111202Y-41985090D01*
X33114795Y-41960865D01*
X33120746Y-41937109D01*
X33128996Y-41914051D01*
X33139467Y-41891913D01*
X33152057Y-41870907D01*
X33166645Y-41851237D01*
X33183092Y-41833092D01*
X33201237Y-41816645D01*
X33220907Y-41802057D01*
X33241913Y-41789467D01*
X33264051Y-41778996D01*
X33287109Y-41770746D01*
X33310865Y-41764795D01*
X33335090Y-41761202D01*
X33359550Y-41760000D01*
X34010450Y-41760000D01*
X34034910Y-41761202D01*
X34034910Y-41761202D01*
G37*
D15*
G04 #@! TD*
G04 #@! TO.P,R3,2*
G04 #@! TO.N,/Ctrl2*
X33685000Y-42460000D03*
D14*
G04 #@! TO.N,/Ctrl3*
G04 #@! TO.C,R4*
G36*
X34034910Y-39401202D02*
X34059135Y-39404795D01*
X34082891Y-39410746D01*
X34105949Y-39418996D01*
X34128087Y-39429467D01*
X34149093Y-39442057D01*
X34168763Y-39456645D01*
X34186908Y-39473092D01*
X34203355Y-39491237D01*
X34217943Y-39510907D01*
X34230533Y-39531913D01*
X34241004Y-39554051D01*
X34249254Y-39577109D01*
X34255205Y-39600865D01*
X34258798Y-39625090D01*
X34260000Y-39649550D01*
X34260000Y-40550450D01*
X34258798Y-40574910D01*
X34255205Y-40599135D01*
X34249254Y-40622891D01*
X34241004Y-40645949D01*
X34230533Y-40668087D01*
X34217943Y-40689093D01*
X34203355Y-40708763D01*
X34186908Y-40726908D01*
X34168763Y-40743355D01*
X34149093Y-40757943D01*
X34128087Y-40770533D01*
X34105949Y-40781004D01*
X34082891Y-40789254D01*
X34059135Y-40795205D01*
X34034910Y-40798798D01*
X34010450Y-40800000D01*
X33359550Y-40800000D01*
X33335090Y-40798798D01*
X33310865Y-40795205D01*
X33287109Y-40789254D01*
X33264051Y-40781004D01*
X33241913Y-40770533D01*
X33220907Y-40757943D01*
X33201237Y-40743355D01*
X33183092Y-40726908D01*
X33166645Y-40708763D01*
X33152057Y-40689093D01*
X33139467Y-40668087D01*
X33128996Y-40645949D01*
X33120746Y-40622891D01*
X33114795Y-40599135D01*
X33111202Y-40574910D01*
X33110000Y-40550450D01*
X33110000Y-39649550D01*
X33111202Y-39625090D01*
X33114795Y-39600865D01*
X33120746Y-39577109D01*
X33128996Y-39554051D01*
X33139467Y-39531913D01*
X33152057Y-39510907D01*
X33166645Y-39491237D01*
X33183092Y-39473092D01*
X33201237Y-39456645D01*
X33220907Y-39442057D01*
X33241913Y-39429467D01*
X33264051Y-39418996D01*
X33287109Y-39410746D01*
X33310865Y-39404795D01*
X33335090Y-39401202D01*
X33359550Y-39400000D01*
X34010450Y-39400000D01*
X34034910Y-39401202D01*
X34034910Y-39401202D01*
G37*
D15*
G04 #@! TD*
G04 #@! TO.P,R4,2*
G04 #@! TO.N,/Ctrl3*
X33685000Y-40100000D03*
D14*
G04 #@! TO.N,/Vcc*
G04 #@! TO.C,R4*
G36*
X36084910Y-39401202D02*
X36109135Y-39404795D01*
X36132891Y-39410746D01*
X36155949Y-39418996D01*
X36178087Y-39429467D01*
X36199093Y-39442057D01*
X36218763Y-39456645D01*
X36236908Y-39473092D01*
X36253355Y-39491237D01*
X36267943Y-39510907D01*
X36280533Y-39531913D01*
X36291004Y-39554051D01*
X36299254Y-39577109D01*
X36305205Y-39600865D01*
X36308798Y-39625090D01*
X36310000Y-39649550D01*
X36310000Y-40550450D01*
X36308798Y-40574910D01*
X36305205Y-40599135D01*
X36299254Y-40622891D01*
X36291004Y-40645949D01*
X36280533Y-40668087D01*
X36267943Y-40689093D01*
X36253355Y-40708763D01*
X36236908Y-40726908D01*
X36218763Y-40743355D01*
X36199093Y-40757943D01*
X36178087Y-40770533D01*
X36155949Y-40781004D01*
X36132891Y-40789254D01*
X36109135Y-40795205D01*
X36084910Y-40798798D01*
X36060450Y-40800000D01*
X35409550Y-40800000D01*
X35385090Y-40798798D01*
X35360865Y-40795205D01*
X35337109Y-40789254D01*
X35314051Y-40781004D01*
X35291913Y-40770533D01*
X35270907Y-40757943D01*
X35251237Y-40743355D01*
X35233092Y-40726908D01*
X35216645Y-40708763D01*
X35202057Y-40689093D01*
X35189467Y-40668087D01*
X35178996Y-40645949D01*
X35170746Y-40622891D01*
X35164795Y-40599135D01*
X35161202Y-40574910D01*
X35160000Y-40550450D01*
X35160000Y-39649550D01*
X35161202Y-39625090D01*
X35164795Y-39600865D01*
X35170746Y-39577109D01*
X35178996Y-39554051D01*
X35189467Y-39531913D01*
X35202057Y-39510907D01*
X35216645Y-39491237D01*
X35233092Y-39473092D01*
X35251237Y-39456645D01*
X35270907Y-39442057D01*
X35291913Y-39429467D01*
X35314051Y-39418996D01*
X35337109Y-39410746D01*
X35360865Y-39404795D01*
X35385090Y-39401202D01*
X35409550Y-39400000D01*
X36060450Y-39400000D01*
X36084910Y-39401202D01*
X36084910Y-39401202D01*
G37*
D15*
G04 #@! TD*
G04 #@! TO.P,R4,1*
G04 #@! TO.N,/Vcc*
X35735000Y-40100000D03*
D14*
G04 #@! TO.N,/Vcc*
G04 #@! TO.C,R5*
G36*
X36084910Y-37041202D02*
X36109135Y-37044795D01*
X36132891Y-37050746D01*
X36155949Y-37058996D01*
X36178087Y-37069467D01*
X36199093Y-37082057D01*
X36218763Y-37096645D01*
X36236908Y-37113092D01*
X36253355Y-37131237D01*
X36267943Y-37150907D01*
X36280533Y-37171913D01*
X36291004Y-37194051D01*
X36299254Y-37217109D01*
X36305205Y-37240865D01*
X36308798Y-37265090D01*
X36310000Y-37289550D01*
X36310000Y-38190450D01*
X36308798Y-38214910D01*
X36305205Y-38239135D01*
X36299254Y-38262891D01*
X36291004Y-38285949D01*
X36280533Y-38308087D01*
X36267943Y-38329093D01*
X36253355Y-38348763D01*
X36236908Y-38366908D01*
X36218763Y-38383355D01*
X36199093Y-38397943D01*
X36178087Y-38410533D01*
X36155949Y-38421004D01*
X36132891Y-38429254D01*
X36109135Y-38435205D01*
X36084910Y-38438798D01*
X36060450Y-38440000D01*
X35409550Y-38440000D01*
X35385090Y-38438798D01*
X35360865Y-38435205D01*
X35337109Y-38429254D01*
X35314051Y-38421004D01*
X35291913Y-38410533D01*
X35270907Y-38397943D01*
X35251237Y-38383355D01*
X35233092Y-38366908D01*
X35216645Y-38348763D01*
X35202057Y-38329093D01*
X35189467Y-38308087D01*
X35178996Y-38285949D01*
X35170746Y-38262891D01*
X35164795Y-38239135D01*
X35161202Y-38214910D01*
X35160000Y-38190450D01*
X35160000Y-37289550D01*
X35161202Y-37265090D01*
X35164795Y-37240865D01*
X35170746Y-37217109D01*
X35178996Y-37194051D01*
X35189467Y-37171913D01*
X35202057Y-37150907D01*
X35216645Y-37131237D01*
X35233092Y-37113092D01*
X35251237Y-37096645D01*
X35270907Y-37082057D01*
X35291913Y-37069467D01*
X35314051Y-37058996D01*
X35337109Y-37050746D01*
X35360865Y-37044795D01*
X35385090Y-37041202D01*
X35409550Y-37040000D01*
X36060450Y-37040000D01*
X36084910Y-37041202D01*
X36084910Y-37041202D01*
G37*
D15*
G04 #@! TD*
G04 #@! TO.P,R5,1*
G04 #@! TO.N,/Vcc*
X35735000Y-37740000D03*
D14*
G04 #@! TO.N,/Ctrl4*
G04 #@! TO.C,R5*
G36*
X34034910Y-37041202D02*
X34059135Y-37044795D01*
X34082891Y-37050746D01*
X34105949Y-37058996D01*
X34128087Y-37069467D01*
X34149093Y-37082057D01*
X34168763Y-37096645D01*
X34186908Y-37113092D01*
X34203355Y-37131237D01*
X34217943Y-37150907D01*
X34230533Y-37171913D01*
X34241004Y-37194051D01*
X34249254Y-37217109D01*
X34255205Y-37240865D01*
X34258798Y-37265090D01*
X34260000Y-37289550D01*
X34260000Y-38190450D01*
X34258798Y-38214910D01*
X34255205Y-38239135D01*
X34249254Y-38262891D01*
X34241004Y-38285949D01*
X34230533Y-38308087D01*
X34217943Y-38329093D01*
X34203355Y-38348763D01*
X34186908Y-38366908D01*
X34168763Y-38383355D01*
X34149093Y-38397943D01*
X34128087Y-38410533D01*
X34105949Y-38421004D01*
X34082891Y-38429254D01*
X34059135Y-38435205D01*
X34034910Y-38438798D01*
X34010450Y-38440000D01*
X33359550Y-38440000D01*
X33335090Y-38438798D01*
X33310865Y-38435205D01*
X33287109Y-38429254D01*
X33264051Y-38421004D01*
X33241913Y-38410533D01*
X33220907Y-38397943D01*
X33201237Y-38383355D01*
X33183092Y-38366908D01*
X33166645Y-38348763D01*
X33152057Y-38329093D01*
X33139467Y-38308087D01*
X33128996Y-38285949D01*
X33120746Y-38262891D01*
X33114795Y-38239135D01*
X33111202Y-38214910D01*
X33110000Y-38190450D01*
X33110000Y-37289550D01*
X33111202Y-37265090D01*
X33114795Y-37240865D01*
X33120746Y-37217109D01*
X33128996Y-37194051D01*
X33139467Y-37171913D01*
X33152057Y-37150907D01*
X33166645Y-37131237D01*
X33183092Y-37113092D01*
X33201237Y-37096645D01*
X33220907Y-37082057D01*
X33241913Y-37069467D01*
X33264051Y-37058996D01*
X33287109Y-37050746D01*
X33310865Y-37044795D01*
X33335090Y-37041202D01*
X33359550Y-37040000D01*
X34010450Y-37040000D01*
X34034910Y-37041202D01*
X34034910Y-37041202D01*
G37*
D15*
G04 #@! TD*
G04 #@! TO.P,R5,2*
G04 #@! TO.N,/Ctrl4*
X33685000Y-37740000D03*
D14*
G04 #@! TO.N,GND*
G04 #@! TO.C,R6*
G36*
X36084910Y-32321202D02*
X36109135Y-32324795D01*
X36132891Y-32330746D01*
X36155949Y-32338996D01*
X36178087Y-32349467D01*
X36199093Y-32362057D01*
X36218763Y-32376645D01*
X36236908Y-32393092D01*
X36253355Y-32411237D01*
X36267943Y-32430907D01*
X36280533Y-32451913D01*
X36291004Y-32474051D01*
X36299254Y-32497109D01*
X36305205Y-32520865D01*
X36308798Y-32545090D01*
X36310000Y-32569550D01*
X36310000Y-33470450D01*
X36308798Y-33494910D01*
X36305205Y-33519135D01*
X36299254Y-33542891D01*
X36291004Y-33565949D01*
X36280533Y-33588087D01*
X36267943Y-33609093D01*
X36253355Y-33628763D01*
X36236908Y-33646908D01*
X36218763Y-33663355D01*
X36199093Y-33677943D01*
X36178087Y-33690533D01*
X36155949Y-33701004D01*
X36132891Y-33709254D01*
X36109135Y-33715205D01*
X36084910Y-33718798D01*
X36060450Y-33720000D01*
X35409550Y-33720000D01*
X35385090Y-33718798D01*
X35360865Y-33715205D01*
X35337109Y-33709254D01*
X35314051Y-33701004D01*
X35291913Y-33690533D01*
X35270907Y-33677943D01*
X35251237Y-33663355D01*
X35233092Y-33646908D01*
X35216645Y-33628763D01*
X35202057Y-33609093D01*
X35189467Y-33588087D01*
X35178996Y-33565949D01*
X35170746Y-33542891D01*
X35164795Y-33519135D01*
X35161202Y-33494910D01*
X35160000Y-33470450D01*
X35160000Y-32569550D01*
X35161202Y-32545090D01*
X35164795Y-32520865D01*
X35170746Y-32497109D01*
X35178996Y-32474051D01*
X35189467Y-32451913D01*
X35202057Y-32430907D01*
X35216645Y-32411237D01*
X35233092Y-32393092D01*
X35251237Y-32376645D01*
X35270907Y-32362057D01*
X35291913Y-32349467D01*
X35314051Y-32338996D01*
X35337109Y-32330746D01*
X35360865Y-32324795D01*
X35385090Y-32321202D01*
X35409550Y-32320000D01*
X36060450Y-32320000D01*
X36084910Y-32321202D01*
X36084910Y-32321202D01*
G37*
D15*
G04 #@! TD*
G04 #@! TO.P,R6,1*
G04 #@! TO.N,GND*
X35735000Y-33020000D03*
D14*
G04 #@! TO.N,/En_VD*
G04 #@! TO.C,R6*
G36*
X34034910Y-32321202D02*
X34059135Y-32324795D01*
X34082891Y-32330746D01*
X34105949Y-32338996D01*
X34128087Y-32349467D01*
X34149093Y-32362057D01*
X34168763Y-32376645D01*
X34186908Y-32393092D01*
X34203355Y-32411237D01*
X34217943Y-32430907D01*
X34230533Y-32451913D01*
X34241004Y-32474051D01*
X34249254Y-32497109D01*
X34255205Y-32520865D01*
X34258798Y-32545090D01*
X34260000Y-32569550D01*
X34260000Y-33470450D01*
X34258798Y-33494910D01*
X34255205Y-33519135D01*
X34249254Y-33542891D01*
X34241004Y-33565949D01*
X34230533Y-33588087D01*
X34217943Y-33609093D01*
X34203355Y-33628763D01*
X34186908Y-33646908D01*
X34168763Y-33663355D01*
X34149093Y-33677943D01*
X34128087Y-33690533D01*
X34105949Y-33701004D01*
X34082891Y-33709254D01*
X34059135Y-33715205D01*
X34034910Y-33718798D01*
X34010450Y-33720000D01*
X33359550Y-33720000D01*
X33335090Y-33718798D01*
X33310865Y-33715205D01*
X33287109Y-33709254D01*
X33264051Y-33701004D01*
X33241913Y-33690533D01*
X33220907Y-33677943D01*
X33201237Y-33663355D01*
X33183092Y-33646908D01*
X33166645Y-33628763D01*
X33152057Y-33609093D01*
X33139467Y-33588087D01*
X33128996Y-33565949D01*
X33120746Y-33542891D01*
X33114795Y-33519135D01*
X33111202Y-33494910D01*
X33110000Y-33470450D01*
X33110000Y-32569550D01*
X33111202Y-32545090D01*
X33114795Y-32520865D01*
X33120746Y-32497109D01*
X33128996Y-32474051D01*
X33139467Y-32451913D01*
X33152057Y-32430907D01*
X33166645Y-32411237D01*
X33183092Y-32393092D01*
X33201237Y-32376645D01*
X33220907Y-32362057D01*
X33241913Y-32349467D01*
X33264051Y-32338996D01*
X33287109Y-32330746D01*
X33310865Y-32324795D01*
X33335090Y-32321202D01*
X33359550Y-32320000D01*
X34010450Y-32320000D01*
X34034910Y-32321202D01*
X34034910Y-32321202D01*
G37*
D15*
G04 #@! TD*
G04 #@! TO.P,R6,2*
G04 #@! TO.N,/En_VD*
X33685000Y-33020000D03*
D14*
G04 #@! TO.N,/Vbat*
G04 #@! TO.C,R7*
G36*
X25105779Y-30706144D02*
X25128834Y-30709563D01*
X25151443Y-30715227D01*
X25173387Y-30723079D01*
X25194457Y-30733044D01*
X25214448Y-30745026D01*
X25233168Y-30758910D01*
X25250438Y-30774562D01*
X25266090Y-30791832D01*
X25279974Y-30810552D01*
X25291956Y-30830543D01*
X25301921Y-30851613D01*
X25309773Y-30873557D01*
X25315437Y-30896166D01*
X25318856Y-30919221D01*
X25320000Y-30942500D01*
X25320000Y-31417500D01*
X25318856Y-31440779D01*
X25315437Y-31463834D01*
X25309773Y-31486443D01*
X25301921Y-31508387D01*
X25291956Y-31529457D01*
X25279974Y-31549448D01*
X25266090Y-31568168D01*
X25250438Y-31585438D01*
X25233168Y-31601090D01*
X25214448Y-31614974D01*
X25194457Y-31626956D01*
X25173387Y-31636921D01*
X25151443Y-31644773D01*
X25128834Y-31650437D01*
X25105779Y-31653856D01*
X25082500Y-31655000D01*
X24507500Y-31655000D01*
X24484221Y-31653856D01*
X24461166Y-31650437D01*
X24438557Y-31644773D01*
X24416613Y-31636921D01*
X24395543Y-31626956D01*
X24375552Y-31614974D01*
X24356832Y-31601090D01*
X24339562Y-31585438D01*
X24323910Y-31568168D01*
X24310026Y-31549448D01*
X24298044Y-31529457D01*
X24288079Y-31508387D01*
X24280227Y-31486443D01*
X24274563Y-31463834D01*
X24271144Y-31440779D01*
X24270000Y-31417500D01*
X24270000Y-30942500D01*
X24271144Y-30919221D01*
X24274563Y-30896166D01*
X24280227Y-30873557D01*
X24288079Y-30851613D01*
X24298044Y-30830543D01*
X24310026Y-30810552D01*
X24323910Y-30791832D01*
X24339562Y-30774562D01*
X24356832Y-30758910D01*
X24375552Y-30745026D01*
X24395543Y-30733044D01*
X24416613Y-30723079D01*
X24438557Y-30715227D01*
X24461166Y-30709563D01*
X24484221Y-30706144D01*
X24507500Y-30705000D01*
X25082500Y-30705000D01*
X25105779Y-30706144D01*
X25105779Y-30706144D01*
G37*
D16*
G04 #@! TD*
G04 #@! TO.P,R7,1*
G04 #@! TO.N,/Vbat*
X24795000Y-31180000D03*
D14*
G04 #@! TO.N,Net-(R7-Pad2)*
G04 #@! TO.C,R7*
G36*
X23355779Y-30706144D02*
X23378834Y-30709563D01*
X23401443Y-30715227D01*
X23423387Y-30723079D01*
X23444457Y-30733044D01*
X23464448Y-30745026D01*
X23483168Y-30758910D01*
X23500438Y-30774562D01*
X23516090Y-30791832D01*
X23529974Y-30810552D01*
X23541956Y-30830543D01*
X23551921Y-30851613D01*
X23559773Y-30873557D01*
X23565437Y-30896166D01*
X23568856Y-30919221D01*
X23570000Y-30942500D01*
X23570000Y-31417500D01*
X23568856Y-31440779D01*
X23565437Y-31463834D01*
X23559773Y-31486443D01*
X23551921Y-31508387D01*
X23541956Y-31529457D01*
X23529974Y-31549448D01*
X23516090Y-31568168D01*
X23500438Y-31585438D01*
X23483168Y-31601090D01*
X23464448Y-31614974D01*
X23444457Y-31626956D01*
X23423387Y-31636921D01*
X23401443Y-31644773D01*
X23378834Y-31650437D01*
X23355779Y-31653856D01*
X23332500Y-31655000D01*
X22757500Y-31655000D01*
X22734221Y-31653856D01*
X22711166Y-31650437D01*
X22688557Y-31644773D01*
X22666613Y-31636921D01*
X22645543Y-31626956D01*
X22625552Y-31614974D01*
X22606832Y-31601090D01*
X22589562Y-31585438D01*
X22573910Y-31568168D01*
X22560026Y-31549448D01*
X22548044Y-31529457D01*
X22538079Y-31508387D01*
X22530227Y-31486443D01*
X22524563Y-31463834D01*
X22521144Y-31440779D01*
X22520000Y-31417500D01*
X22520000Y-30942500D01*
X22521144Y-30919221D01*
X22524563Y-30896166D01*
X22530227Y-30873557D01*
X22538079Y-30851613D01*
X22548044Y-30830543D01*
X22560026Y-30810552D01*
X22573910Y-30791832D01*
X22589562Y-30774562D01*
X22606832Y-30758910D01*
X22625552Y-30745026D01*
X22645543Y-30733044D01*
X22666613Y-30723079D01*
X22688557Y-30715227D01*
X22711166Y-30709563D01*
X22734221Y-30706144D01*
X22757500Y-30705000D01*
X23332500Y-30705000D01*
X23355779Y-30706144D01*
X23355779Y-30706144D01*
G37*
D16*
G04 #@! TD*
G04 #@! TO.P,R7,2*
G04 #@! TO.N,Net-(R7-Pad2)*
X23045000Y-31180000D03*
D14*
G04 #@! TO.N,Net-(R7-Pad2)*
G04 #@! TO.C,R8*
G36*
X25105779Y-28806144D02*
X25128834Y-28809563D01*
X25151443Y-28815227D01*
X25173387Y-28823079D01*
X25194457Y-28833044D01*
X25214448Y-28845026D01*
X25233168Y-28858910D01*
X25250438Y-28874562D01*
X25266090Y-28891832D01*
X25279974Y-28910552D01*
X25291956Y-28930543D01*
X25301921Y-28951613D01*
X25309773Y-28973557D01*
X25315437Y-28996166D01*
X25318856Y-29019221D01*
X25320000Y-29042500D01*
X25320000Y-29517500D01*
X25318856Y-29540779D01*
X25315437Y-29563834D01*
X25309773Y-29586443D01*
X25301921Y-29608387D01*
X25291956Y-29629457D01*
X25279974Y-29649448D01*
X25266090Y-29668168D01*
X25250438Y-29685438D01*
X25233168Y-29701090D01*
X25214448Y-29714974D01*
X25194457Y-29726956D01*
X25173387Y-29736921D01*
X25151443Y-29744773D01*
X25128834Y-29750437D01*
X25105779Y-29753856D01*
X25082500Y-29755000D01*
X24507500Y-29755000D01*
X24484221Y-29753856D01*
X24461166Y-29750437D01*
X24438557Y-29744773D01*
X24416613Y-29736921D01*
X24395543Y-29726956D01*
X24375552Y-29714974D01*
X24356832Y-29701090D01*
X24339562Y-29685438D01*
X24323910Y-29668168D01*
X24310026Y-29649448D01*
X24298044Y-29629457D01*
X24288079Y-29608387D01*
X24280227Y-29586443D01*
X24274563Y-29563834D01*
X24271144Y-29540779D01*
X24270000Y-29517500D01*
X24270000Y-29042500D01*
X24271144Y-29019221D01*
X24274563Y-28996166D01*
X24280227Y-28973557D01*
X24288079Y-28951613D01*
X24298044Y-28930543D01*
X24310026Y-28910552D01*
X24323910Y-28891832D01*
X24339562Y-28874562D01*
X24356832Y-28858910D01*
X24375552Y-28845026D01*
X24395543Y-28833044D01*
X24416613Y-28823079D01*
X24438557Y-28815227D01*
X24461166Y-28809563D01*
X24484221Y-28806144D01*
X24507500Y-28805000D01*
X25082500Y-28805000D01*
X25105779Y-28806144D01*
X25105779Y-28806144D01*
G37*
D16*
G04 #@! TD*
G04 #@! TO.P,R8,1*
G04 #@! TO.N,Net-(R7-Pad2)*
X24795000Y-29280000D03*
D14*
G04 #@! TO.N,/Vin*
G04 #@! TO.C,R8*
G36*
X23355779Y-28806144D02*
X23378834Y-28809563D01*
X23401443Y-28815227D01*
X23423387Y-28823079D01*
X23444457Y-28833044D01*
X23464448Y-28845026D01*
X23483168Y-28858910D01*
X23500438Y-28874562D01*
X23516090Y-28891832D01*
X23529974Y-28910552D01*
X23541956Y-28930543D01*
X23551921Y-28951613D01*
X23559773Y-28973557D01*
X23565437Y-28996166D01*
X23568856Y-29019221D01*
X23570000Y-29042500D01*
X23570000Y-29517500D01*
X23568856Y-29540779D01*
X23565437Y-29563834D01*
X23559773Y-29586443D01*
X23551921Y-29608387D01*
X23541956Y-29629457D01*
X23529974Y-29649448D01*
X23516090Y-29668168D01*
X23500438Y-29685438D01*
X23483168Y-29701090D01*
X23464448Y-29714974D01*
X23444457Y-29726956D01*
X23423387Y-29736921D01*
X23401443Y-29744773D01*
X23378834Y-29750437D01*
X23355779Y-29753856D01*
X23332500Y-29755000D01*
X22757500Y-29755000D01*
X22734221Y-29753856D01*
X22711166Y-29750437D01*
X22688557Y-29744773D01*
X22666613Y-29736921D01*
X22645543Y-29726956D01*
X22625552Y-29714974D01*
X22606832Y-29701090D01*
X22589562Y-29685438D01*
X22573910Y-29668168D01*
X22560026Y-29649448D01*
X22548044Y-29629457D01*
X22538079Y-29608387D01*
X22530227Y-29586443D01*
X22524563Y-29563834D01*
X22521144Y-29540779D01*
X22520000Y-29517500D01*
X22520000Y-29042500D01*
X22521144Y-29019221D01*
X22524563Y-28996166D01*
X22530227Y-28973557D01*
X22538079Y-28951613D01*
X22548044Y-28930543D01*
X22560026Y-28910552D01*
X22573910Y-28891832D01*
X22589562Y-28874562D01*
X22606832Y-28858910D01*
X22625552Y-28845026D01*
X22645543Y-28833044D01*
X22666613Y-28823079D01*
X22688557Y-28815227D01*
X22711166Y-28809563D01*
X22734221Y-28806144D01*
X22757500Y-28805000D01*
X23332500Y-28805000D01*
X23355779Y-28806144D01*
X23355779Y-28806144D01*
G37*
D16*
G04 #@! TD*
G04 #@! TO.P,R8,2*
G04 #@! TO.N,/Vin*
X23045000Y-29280000D03*
D14*
G04 #@! TO.N,Net-(Q5-Pad3)*
G04 #@! TO.C,R9*
G36*
X25105779Y-26916144D02*
X25128834Y-26919563D01*
X25151443Y-26925227D01*
X25173387Y-26933079D01*
X25194457Y-26943044D01*
X25214448Y-26955026D01*
X25233168Y-26968910D01*
X25250438Y-26984562D01*
X25266090Y-27001832D01*
X25279974Y-27020552D01*
X25291956Y-27040543D01*
X25301921Y-27061613D01*
X25309773Y-27083557D01*
X25315437Y-27106166D01*
X25318856Y-27129221D01*
X25320000Y-27152500D01*
X25320000Y-27627500D01*
X25318856Y-27650779D01*
X25315437Y-27673834D01*
X25309773Y-27696443D01*
X25301921Y-27718387D01*
X25291956Y-27739457D01*
X25279974Y-27759448D01*
X25266090Y-27778168D01*
X25250438Y-27795438D01*
X25233168Y-27811090D01*
X25214448Y-27824974D01*
X25194457Y-27836956D01*
X25173387Y-27846921D01*
X25151443Y-27854773D01*
X25128834Y-27860437D01*
X25105779Y-27863856D01*
X25082500Y-27865000D01*
X24507500Y-27865000D01*
X24484221Y-27863856D01*
X24461166Y-27860437D01*
X24438557Y-27854773D01*
X24416613Y-27846921D01*
X24395543Y-27836956D01*
X24375552Y-27824974D01*
X24356832Y-27811090D01*
X24339562Y-27795438D01*
X24323910Y-27778168D01*
X24310026Y-27759448D01*
X24298044Y-27739457D01*
X24288079Y-27718387D01*
X24280227Y-27696443D01*
X24274563Y-27673834D01*
X24271144Y-27650779D01*
X24270000Y-27627500D01*
X24270000Y-27152500D01*
X24271144Y-27129221D01*
X24274563Y-27106166D01*
X24280227Y-27083557D01*
X24288079Y-27061613D01*
X24298044Y-27040543D01*
X24310026Y-27020552D01*
X24323910Y-27001832D01*
X24339562Y-26984562D01*
X24356832Y-26968910D01*
X24375552Y-26955026D01*
X24395543Y-26943044D01*
X24416613Y-26933079D01*
X24438557Y-26925227D01*
X24461166Y-26919563D01*
X24484221Y-26916144D01*
X24507500Y-26915000D01*
X25082500Y-26915000D01*
X25105779Y-26916144D01*
X25105779Y-26916144D01*
G37*
D16*
G04 #@! TD*
G04 #@! TO.P,R9,2*
G04 #@! TO.N,Net-(Q5-Pad3)*
X24795000Y-27390000D03*
D14*
G04 #@! TO.N,/Vin*
G04 #@! TO.C,R9*
G36*
X23355779Y-26916144D02*
X23378834Y-26919563D01*
X23401443Y-26925227D01*
X23423387Y-26933079D01*
X23444457Y-26943044D01*
X23464448Y-26955026D01*
X23483168Y-26968910D01*
X23500438Y-26984562D01*
X23516090Y-27001832D01*
X23529974Y-27020552D01*
X23541956Y-27040543D01*
X23551921Y-27061613D01*
X23559773Y-27083557D01*
X23565437Y-27106166D01*
X23568856Y-27129221D01*
X23570000Y-27152500D01*
X23570000Y-27627500D01*
X23568856Y-27650779D01*
X23565437Y-27673834D01*
X23559773Y-27696443D01*
X23551921Y-27718387D01*
X23541956Y-27739457D01*
X23529974Y-27759448D01*
X23516090Y-27778168D01*
X23500438Y-27795438D01*
X23483168Y-27811090D01*
X23464448Y-27824974D01*
X23444457Y-27836956D01*
X23423387Y-27846921D01*
X23401443Y-27854773D01*
X23378834Y-27860437D01*
X23355779Y-27863856D01*
X23332500Y-27865000D01*
X22757500Y-27865000D01*
X22734221Y-27863856D01*
X22711166Y-27860437D01*
X22688557Y-27854773D01*
X22666613Y-27846921D01*
X22645543Y-27836956D01*
X22625552Y-27824974D01*
X22606832Y-27811090D01*
X22589562Y-27795438D01*
X22573910Y-27778168D01*
X22560026Y-27759448D01*
X22548044Y-27739457D01*
X22538079Y-27718387D01*
X22530227Y-27696443D01*
X22524563Y-27673834D01*
X22521144Y-27650779D01*
X22520000Y-27627500D01*
X22520000Y-27152500D01*
X22521144Y-27129221D01*
X22524563Y-27106166D01*
X22530227Y-27083557D01*
X22538079Y-27061613D01*
X22548044Y-27040543D01*
X22560026Y-27020552D01*
X22573910Y-27001832D01*
X22589562Y-26984562D01*
X22606832Y-26968910D01*
X22625552Y-26955026D01*
X22645543Y-26943044D01*
X22666613Y-26933079D01*
X22688557Y-26925227D01*
X22711166Y-26919563D01*
X22734221Y-26916144D01*
X22757500Y-26915000D01*
X23332500Y-26915000D01*
X23355779Y-26916144D01*
X23355779Y-26916144D01*
G37*
D16*
G04 #@! TD*
G04 #@! TO.P,R9,1*
G04 #@! TO.N,/Vin*
X23045000Y-27390000D03*
D14*
G04 #@! TO.N,GND*
G04 #@! TO.C,R10*
G36*
X25284910Y-32641202D02*
X25309135Y-32644795D01*
X25332891Y-32650746D01*
X25355949Y-32658996D01*
X25378087Y-32669467D01*
X25399093Y-32682057D01*
X25418763Y-32696645D01*
X25436908Y-32713092D01*
X25453355Y-32731237D01*
X25467943Y-32750907D01*
X25480533Y-32771913D01*
X25491004Y-32794051D01*
X25499254Y-32817109D01*
X25505205Y-32840865D01*
X25508798Y-32865090D01*
X25510000Y-32889550D01*
X25510000Y-33790450D01*
X25508798Y-33814910D01*
X25505205Y-33839135D01*
X25499254Y-33862891D01*
X25491004Y-33885949D01*
X25480533Y-33908087D01*
X25467943Y-33929093D01*
X25453355Y-33948763D01*
X25436908Y-33966908D01*
X25418763Y-33983355D01*
X25399093Y-33997943D01*
X25378087Y-34010533D01*
X25355949Y-34021004D01*
X25332891Y-34029254D01*
X25309135Y-34035205D01*
X25284910Y-34038798D01*
X25260450Y-34040000D01*
X24609550Y-34040000D01*
X24585090Y-34038798D01*
X24560865Y-34035205D01*
X24537109Y-34029254D01*
X24514051Y-34021004D01*
X24491913Y-34010533D01*
X24470907Y-33997943D01*
X24451237Y-33983355D01*
X24433092Y-33966908D01*
X24416645Y-33948763D01*
X24402057Y-33929093D01*
X24389467Y-33908087D01*
X24378996Y-33885949D01*
X24370746Y-33862891D01*
X24364795Y-33839135D01*
X24361202Y-33814910D01*
X24360000Y-33790450D01*
X24360000Y-32889550D01*
X24361202Y-32865090D01*
X24364795Y-32840865D01*
X24370746Y-32817109D01*
X24378996Y-32794051D01*
X24389467Y-32771913D01*
X24402057Y-32750907D01*
X24416645Y-32731237D01*
X24433092Y-32713092D01*
X24451237Y-32696645D01*
X24470907Y-32682057D01*
X24491913Y-32669467D01*
X24514051Y-32658996D01*
X24537109Y-32650746D01*
X24560865Y-32644795D01*
X24585090Y-32641202D01*
X24609550Y-32640000D01*
X25260450Y-32640000D01*
X25284910Y-32641202D01*
X25284910Y-32641202D01*
G37*
D15*
G04 #@! TD*
G04 #@! TO.P,R10,2*
G04 #@! TO.N,GND*
X24935000Y-33340000D03*
D14*
G04 #@! TO.N,/SW*
G04 #@! TO.C,R10*
G36*
X23234910Y-32641202D02*
X23259135Y-32644795D01*
X23282891Y-32650746D01*
X23305949Y-32658996D01*
X23328087Y-32669467D01*
X23349093Y-32682057D01*
X23368763Y-32696645D01*
X23386908Y-32713092D01*
X23403355Y-32731237D01*
X23417943Y-32750907D01*
X23430533Y-32771913D01*
X23441004Y-32794051D01*
X23449254Y-32817109D01*
X23455205Y-32840865D01*
X23458798Y-32865090D01*
X23460000Y-32889550D01*
X23460000Y-33790450D01*
X23458798Y-33814910D01*
X23455205Y-33839135D01*
X23449254Y-33862891D01*
X23441004Y-33885949D01*
X23430533Y-33908087D01*
X23417943Y-33929093D01*
X23403355Y-33948763D01*
X23386908Y-33966908D01*
X23368763Y-33983355D01*
X23349093Y-33997943D01*
X23328087Y-34010533D01*
X23305949Y-34021004D01*
X23282891Y-34029254D01*
X23259135Y-34035205D01*
X23234910Y-34038798D01*
X23210450Y-34040000D01*
X22559550Y-34040000D01*
X22535090Y-34038798D01*
X22510865Y-34035205D01*
X22487109Y-34029254D01*
X22464051Y-34021004D01*
X22441913Y-34010533D01*
X22420907Y-33997943D01*
X22401237Y-33983355D01*
X22383092Y-33966908D01*
X22366645Y-33948763D01*
X22352057Y-33929093D01*
X22339467Y-33908087D01*
X22328996Y-33885949D01*
X22320746Y-33862891D01*
X22314795Y-33839135D01*
X22311202Y-33814910D01*
X22310000Y-33790450D01*
X22310000Y-32889550D01*
X22311202Y-32865090D01*
X22314795Y-32840865D01*
X22320746Y-32817109D01*
X22328996Y-32794051D01*
X22339467Y-32771913D01*
X22352057Y-32750907D01*
X22366645Y-32731237D01*
X22383092Y-32713092D01*
X22401237Y-32696645D01*
X22420907Y-32682057D01*
X22441913Y-32669467D01*
X22464051Y-32658996D01*
X22487109Y-32650746D01*
X22510865Y-32644795D01*
X22535090Y-32641202D01*
X22559550Y-32640000D01*
X23210450Y-32640000D01*
X23234910Y-32641202D01*
X23234910Y-32641202D01*
G37*
D15*
G04 #@! TD*
G04 #@! TO.P,R10,1*
G04 #@! TO.N,/SW*
X22885000Y-33340000D03*
D14*
G04 #@! TO.N,Net-(Q1-Pad3)*
G04 #@! TO.C,RL1*
G36*
X25694910Y-51301202D02*
X25719135Y-51304795D01*
X25742891Y-51310746D01*
X25765949Y-51318996D01*
X25788087Y-51329467D01*
X25809093Y-51342057D01*
X25828763Y-51356645D01*
X25846908Y-51373092D01*
X25863355Y-51391237D01*
X25877943Y-51410907D01*
X25890533Y-51431913D01*
X25901004Y-51454051D01*
X25909254Y-51477109D01*
X25915205Y-51500865D01*
X25918798Y-51525090D01*
X25920000Y-51549550D01*
X25920000Y-52450450D01*
X25918798Y-52474910D01*
X25915205Y-52499135D01*
X25909254Y-52522891D01*
X25901004Y-52545949D01*
X25890533Y-52568087D01*
X25877943Y-52589093D01*
X25863355Y-52608763D01*
X25846908Y-52626908D01*
X25828763Y-52643355D01*
X25809093Y-52657943D01*
X25788087Y-52670533D01*
X25765949Y-52681004D01*
X25742891Y-52689254D01*
X25719135Y-52695205D01*
X25694910Y-52698798D01*
X25670450Y-52700000D01*
X25019550Y-52700000D01*
X24995090Y-52698798D01*
X24970865Y-52695205D01*
X24947109Y-52689254D01*
X24924051Y-52681004D01*
X24901913Y-52670533D01*
X24880907Y-52657943D01*
X24861237Y-52643355D01*
X24843092Y-52626908D01*
X24826645Y-52608763D01*
X24812057Y-52589093D01*
X24799467Y-52568087D01*
X24788996Y-52545949D01*
X24780746Y-52522891D01*
X24774795Y-52499135D01*
X24771202Y-52474910D01*
X24770000Y-52450450D01*
X24770000Y-51549550D01*
X24771202Y-51525090D01*
X24774795Y-51500865D01*
X24780746Y-51477109D01*
X24788996Y-51454051D01*
X24799467Y-51431913D01*
X24812057Y-51410907D01*
X24826645Y-51391237D01*
X24843092Y-51373092D01*
X24861237Y-51356645D01*
X24880907Y-51342057D01*
X24901913Y-51329467D01*
X24924051Y-51318996D01*
X24947109Y-51310746D01*
X24970865Y-51304795D01*
X24995090Y-51301202D01*
X25019550Y-51300000D01*
X25670450Y-51300000D01*
X25694910Y-51301202D01*
X25694910Y-51301202D01*
G37*
D15*
G04 #@! TD*
G04 #@! TO.P,RL1,1*
G04 #@! TO.N,Net-(Q1-Pad3)*
X25345000Y-52000000D03*
D14*
G04 #@! TO.N,Net-(RL1-Pad2)*
G04 #@! TO.C,RL1*
G36*
X23644910Y-51301202D02*
X23669135Y-51304795D01*
X23692891Y-51310746D01*
X23715949Y-51318996D01*
X23738087Y-51329467D01*
X23759093Y-51342057D01*
X23778763Y-51356645D01*
X23796908Y-51373092D01*
X23813355Y-51391237D01*
X23827943Y-51410907D01*
X23840533Y-51431913D01*
X23851004Y-51454051D01*
X23859254Y-51477109D01*
X23865205Y-51500865D01*
X23868798Y-51525090D01*
X23870000Y-51549550D01*
X23870000Y-52450450D01*
X23868798Y-52474910D01*
X23865205Y-52499135D01*
X23859254Y-52522891D01*
X23851004Y-52545949D01*
X23840533Y-52568087D01*
X23827943Y-52589093D01*
X23813355Y-52608763D01*
X23796908Y-52626908D01*
X23778763Y-52643355D01*
X23759093Y-52657943D01*
X23738087Y-52670533D01*
X23715949Y-52681004D01*
X23692891Y-52689254D01*
X23669135Y-52695205D01*
X23644910Y-52698798D01*
X23620450Y-52700000D01*
X22969550Y-52700000D01*
X22945090Y-52698798D01*
X22920865Y-52695205D01*
X22897109Y-52689254D01*
X22874051Y-52681004D01*
X22851913Y-52670533D01*
X22830907Y-52657943D01*
X22811237Y-52643355D01*
X22793092Y-52626908D01*
X22776645Y-52608763D01*
X22762057Y-52589093D01*
X22749467Y-52568087D01*
X22738996Y-52545949D01*
X22730746Y-52522891D01*
X22724795Y-52499135D01*
X22721202Y-52474910D01*
X22720000Y-52450450D01*
X22720000Y-51549550D01*
X22721202Y-51525090D01*
X22724795Y-51500865D01*
X22730746Y-51477109D01*
X22738996Y-51454051D01*
X22749467Y-51431913D01*
X22762057Y-51410907D01*
X22776645Y-51391237D01*
X22793092Y-51373092D01*
X22811237Y-51356645D01*
X22830907Y-51342057D01*
X22851913Y-51329467D01*
X22874051Y-51318996D01*
X22897109Y-51310746D01*
X22920865Y-51304795D01*
X22945090Y-51301202D01*
X22969550Y-51300000D01*
X23620450Y-51300000D01*
X23644910Y-51301202D01*
X23644910Y-51301202D01*
G37*
D15*
G04 #@! TD*
G04 #@! TO.P,RL1,2*
G04 #@! TO.N,Net-(RL1-Pad2)*
X23295000Y-52000000D03*
D14*
G04 #@! TO.N,Net-(RL1-Pad2)*
G04 #@! TO.C,RL2*
G36*
X25694910Y-49001202D02*
X25719135Y-49004795D01*
X25742891Y-49010746D01*
X25765949Y-49018996D01*
X25788087Y-49029467D01*
X25809093Y-49042057D01*
X25828763Y-49056645D01*
X25846908Y-49073092D01*
X25863355Y-49091237D01*
X25877943Y-49110907D01*
X25890533Y-49131913D01*
X25901004Y-49154051D01*
X25909254Y-49177109D01*
X25915205Y-49200865D01*
X25918798Y-49225090D01*
X25920000Y-49249550D01*
X25920000Y-50150450D01*
X25918798Y-50174910D01*
X25915205Y-50199135D01*
X25909254Y-50222891D01*
X25901004Y-50245949D01*
X25890533Y-50268087D01*
X25877943Y-50289093D01*
X25863355Y-50308763D01*
X25846908Y-50326908D01*
X25828763Y-50343355D01*
X25809093Y-50357943D01*
X25788087Y-50370533D01*
X25765949Y-50381004D01*
X25742891Y-50389254D01*
X25719135Y-50395205D01*
X25694910Y-50398798D01*
X25670450Y-50400000D01*
X25019550Y-50400000D01*
X24995090Y-50398798D01*
X24970865Y-50395205D01*
X24947109Y-50389254D01*
X24924051Y-50381004D01*
X24901913Y-50370533D01*
X24880907Y-50357943D01*
X24861237Y-50343355D01*
X24843092Y-50326908D01*
X24826645Y-50308763D01*
X24812057Y-50289093D01*
X24799467Y-50268087D01*
X24788996Y-50245949D01*
X24780746Y-50222891D01*
X24774795Y-50199135D01*
X24771202Y-50174910D01*
X24770000Y-50150450D01*
X24770000Y-49249550D01*
X24771202Y-49225090D01*
X24774795Y-49200865D01*
X24780746Y-49177109D01*
X24788996Y-49154051D01*
X24799467Y-49131913D01*
X24812057Y-49110907D01*
X24826645Y-49091237D01*
X24843092Y-49073092D01*
X24861237Y-49056645D01*
X24880907Y-49042057D01*
X24901913Y-49029467D01*
X24924051Y-49018996D01*
X24947109Y-49010746D01*
X24970865Y-49004795D01*
X24995090Y-49001202D01*
X25019550Y-49000000D01*
X25670450Y-49000000D01*
X25694910Y-49001202D01*
X25694910Y-49001202D01*
G37*
D15*
G04 #@! TD*
G04 #@! TO.P,RL2,1*
G04 #@! TO.N,Net-(RL1-Pad2)*
X25345000Y-49700000D03*
D14*
G04 #@! TO.N,GND*
G04 #@! TO.C,RL2*
G36*
X23644910Y-49001202D02*
X23669135Y-49004795D01*
X23692891Y-49010746D01*
X23715949Y-49018996D01*
X23738087Y-49029467D01*
X23759093Y-49042057D01*
X23778763Y-49056645D01*
X23796908Y-49073092D01*
X23813355Y-49091237D01*
X23827943Y-49110907D01*
X23840533Y-49131913D01*
X23851004Y-49154051D01*
X23859254Y-49177109D01*
X23865205Y-49200865D01*
X23868798Y-49225090D01*
X23870000Y-49249550D01*
X23870000Y-50150450D01*
X23868798Y-50174910D01*
X23865205Y-50199135D01*
X23859254Y-50222891D01*
X23851004Y-50245949D01*
X23840533Y-50268087D01*
X23827943Y-50289093D01*
X23813355Y-50308763D01*
X23796908Y-50326908D01*
X23778763Y-50343355D01*
X23759093Y-50357943D01*
X23738087Y-50370533D01*
X23715949Y-50381004D01*
X23692891Y-50389254D01*
X23669135Y-50395205D01*
X23644910Y-50398798D01*
X23620450Y-50400000D01*
X22969550Y-50400000D01*
X22945090Y-50398798D01*
X22920865Y-50395205D01*
X22897109Y-50389254D01*
X22874051Y-50381004D01*
X22851913Y-50370533D01*
X22830907Y-50357943D01*
X22811237Y-50343355D01*
X22793092Y-50326908D01*
X22776645Y-50308763D01*
X22762057Y-50289093D01*
X22749467Y-50268087D01*
X22738996Y-50245949D01*
X22730746Y-50222891D01*
X22724795Y-50199135D01*
X22721202Y-50174910D01*
X22720000Y-50150450D01*
X22720000Y-49249550D01*
X22721202Y-49225090D01*
X22724795Y-49200865D01*
X22730746Y-49177109D01*
X22738996Y-49154051D01*
X22749467Y-49131913D01*
X22762057Y-49110907D01*
X22776645Y-49091237D01*
X22793092Y-49073092D01*
X22811237Y-49056645D01*
X22830907Y-49042057D01*
X22851913Y-49029467D01*
X22874051Y-49018996D01*
X22897109Y-49010746D01*
X22920865Y-49004795D01*
X22945090Y-49001202D01*
X22969550Y-49000000D01*
X23620450Y-49000000D01*
X23644910Y-49001202D01*
X23644910Y-49001202D01*
G37*
D15*
G04 #@! TD*
G04 #@! TO.P,RL2,2*
G04 #@! TO.N,GND*
X23295000Y-49700000D03*
D14*
G04 #@! TO.N,GND*
G04 #@! TO.C,RL3*
G36*
X23654910Y-46631202D02*
X23679135Y-46634795D01*
X23702891Y-46640746D01*
X23725949Y-46648996D01*
X23748087Y-46659467D01*
X23769093Y-46672057D01*
X23788763Y-46686645D01*
X23806908Y-46703092D01*
X23823355Y-46721237D01*
X23837943Y-46740907D01*
X23850533Y-46761913D01*
X23861004Y-46784051D01*
X23869254Y-46807109D01*
X23875205Y-46830865D01*
X23878798Y-46855090D01*
X23880000Y-46879550D01*
X23880000Y-47780450D01*
X23878798Y-47804910D01*
X23875205Y-47829135D01*
X23869254Y-47852891D01*
X23861004Y-47875949D01*
X23850533Y-47898087D01*
X23837943Y-47919093D01*
X23823355Y-47938763D01*
X23806908Y-47956908D01*
X23788763Y-47973355D01*
X23769093Y-47987943D01*
X23748087Y-48000533D01*
X23725949Y-48011004D01*
X23702891Y-48019254D01*
X23679135Y-48025205D01*
X23654910Y-48028798D01*
X23630450Y-48030000D01*
X22979550Y-48030000D01*
X22955090Y-48028798D01*
X22930865Y-48025205D01*
X22907109Y-48019254D01*
X22884051Y-48011004D01*
X22861913Y-48000533D01*
X22840907Y-47987943D01*
X22821237Y-47973355D01*
X22803092Y-47956908D01*
X22786645Y-47938763D01*
X22772057Y-47919093D01*
X22759467Y-47898087D01*
X22748996Y-47875949D01*
X22740746Y-47852891D01*
X22734795Y-47829135D01*
X22731202Y-47804910D01*
X22730000Y-47780450D01*
X22730000Y-46879550D01*
X22731202Y-46855090D01*
X22734795Y-46830865D01*
X22740746Y-46807109D01*
X22748996Y-46784051D01*
X22759467Y-46761913D01*
X22772057Y-46740907D01*
X22786645Y-46721237D01*
X22803092Y-46703092D01*
X22821237Y-46686645D01*
X22840907Y-46672057D01*
X22861913Y-46659467D01*
X22884051Y-46648996D01*
X22907109Y-46640746D01*
X22930865Y-46634795D01*
X22955090Y-46631202D01*
X22979550Y-46630000D01*
X23630450Y-46630000D01*
X23654910Y-46631202D01*
X23654910Y-46631202D01*
G37*
D15*
G04 #@! TD*
G04 #@! TO.P,RL3,2*
G04 #@! TO.N,GND*
X23305000Y-47330000D03*
D14*
G04 #@! TO.N,Net-(Q2-Pad3)*
G04 #@! TO.C,RL3*
G36*
X25704910Y-46631202D02*
X25729135Y-46634795D01*
X25752891Y-46640746D01*
X25775949Y-46648996D01*
X25798087Y-46659467D01*
X25819093Y-46672057D01*
X25838763Y-46686645D01*
X25856908Y-46703092D01*
X25873355Y-46721237D01*
X25887943Y-46740907D01*
X25900533Y-46761913D01*
X25911004Y-46784051D01*
X25919254Y-46807109D01*
X25925205Y-46830865D01*
X25928798Y-46855090D01*
X25930000Y-46879550D01*
X25930000Y-47780450D01*
X25928798Y-47804910D01*
X25925205Y-47829135D01*
X25919254Y-47852891D01*
X25911004Y-47875949D01*
X25900533Y-47898087D01*
X25887943Y-47919093D01*
X25873355Y-47938763D01*
X25856908Y-47956908D01*
X25838763Y-47973355D01*
X25819093Y-47987943D01*
X25798087Y-48000533D01*
X25775949Y-48011004D01*
X25752891Y-48019254D01*
X25729135Y-48025205D01*
X25704910Y-48028798D01*
X25680450Y-48030000D01*
X25029550Y-48030000D01*
X25005090Y-48028798D01*
X24980865Y-48025205D01*
X24957109Y-48019254D01*
X24934051Y-48011004D01*
X24911913Y-48000533D01*
X24890907Y-47987943D01*
X24871237Y-47973355D01*
X24853092Y-47956908D01*
X24836645Y-47938763D01*
X24822057Y-47919093D01*
X24809467Y-47898087D01*
X24798996Y-47875949D01*
X24790746Y-47852891D01*
X24784795Y-47829135D01*
X24781202Y-47804910D01*
X24780000Y-47780450D01*
X24780000Y-46879550D01*
X24781202Y-46855090D01*
X24784795Y-46830865D01*
X24790746Y-46807109D01*
X24798996Y-46784051D01*
X24809467Y-46761913D01*
X24822057Y-46740907D01*
X24836645Y-46721237D01*
X24853092Y-46703092D01*
X24871237Y-46686645D01*
X24890907Y-46672057D01*
X24911913Y-46659467D01*
X24934051Y-46648996D01*
X24957109Y-46640746D01*
X24980865Y-46634795D01*
X25005090Y-46631202D01*
X25029550Y-46630000D01*
X25680450Y-46630000D01*
X25704910Y-46631202D01*
X25704910Y-46631202D01*
G37*
D15*
G04 #@! TD*
G04 #@! TO.P,RL3,1*
G04 #@! TO.N,Net-(Q2-Pad3)*
X25355000Y-47330000D03*
D14*
G04 #@! TO.N,GND*
G04 #@! TO.C,RL4*
G36*
X23654910Y-44261202D02*
X23679135Y-44264795D01*
X23702891Y-44270746D01*
X23725949Y-44278996D01*
X23748087Y-44289467D01*
X23769093Y-44302057D01*
X23788763Y-44316645D01*
X23806908Y-44333092D01*
X23823355Y-44351237D01*
X23837943Y-44370907D01*
X23850533Y-44391913D01*
X23861004Y-44414051D01*
X23869254Y-44437109D01*
X23875205Y-44460865D01*
X23878798Y-44485090D01*
X23880000Y-44509550D01*
X23880000Y-45410450D01*
X23878798Y-45434910D01*
X23875205Y-45459135D01*
X23869254Y-45482891D01*
X23861004Y-45505949D01*
X23850533Y-45528087D01*
X23837943Y-45549093D01*
X23823355Y-45568763D01*
X23806908Y-45586908D01*
X23788763Y-45603355D01*
X23769093Y-45617943D01*
X23748087Y-45630533D01*
X23725949Y-45641004D01*
X23702891Y-45649254D01*
X23679135Y-45655205D01*
X23654910Y-45658798D01*
X23630450Y-45660000D01*
X22979550Y-45660000D01*
X22955090Y-45658798D01*
X22930865Y-45655205D01*
X22907109Y-45649254D01*
X22884051Y-45641004D01*
X22861913Y-45630533D01*
X22840907Y-45617943D01*
X22821237Y-45603355D01*
X22803092Y-45586908D01*
X22786645Y-45568763D01*
X22772057Y-45549093D01*
X22759467Y-45528087D01*
X22748996Y-45505949D01*
X22740746Y-45482891D01*
X22734795Y-45459135D01*
X22731202Y-45434910D01*
X22730000Y-45410450D01*
X22730000Y-44509550D01*
X22731202Y-44485090D01*
X22734795Y-44460865D01*
X22740746Y-44437109D01*
X22748996Y-44414051D01*
X22759467Y-44391913D01*
X22772057Y-44370907D01*
X22786645Y-44351237D01*
X22803092Y-44333092D01*
X22821237Y-44316645D01*
X22840907Y-44302057D01*
X22861913Y-44289467D01*
X22884051Y-44278996D01*
X22907109Y-44270746D01*
X22930865Y-44264795D01*
X22955090Y-44261202D01*
X22979550Y-44260000D01*
X23630450Y-44260000D01*
X23654910Y-44261202D01*
X23654910Y-44261202D01*
G37*
D15*
G04 #@! TD*
G04 #@! TO.P,RL4,2*
G04 #@! TO.N,GND*
X23305000Y-44960000D03*
D14*
G04 #@! TO.N,Net-(Q3-Pad3)*
G04 #@! TO.C,RL4*
G36*
X25704910Y-44261202D02*
X25729135Y-44264795D01*
X25752891Y-44270746D01*
X25775949Y-44278996D01*
X25798087Y-44289467D01*
X25819093Y-44302057D01*
X25838763Y-44316645D01*
X25856908Y-44333092D01*
X25873355Y-44351237D01*
X25887943Y-44370907D01*
X25900533Y-44391913D01*
X25911004Y-44414051D01*
X25919254Y-44437109D01*
X25925205Y-44460865D01*
X25928798Y-44485090D01*
X25930000Y-44509550D01*
X25930000Y-45410450D01*
X25928798Y-45434910D01*
X25925205Y-45459135D01*
X25919254Y-45482891D01*
X25911004Y-45505949D01*
X25900533Y-45528087D01*
X25887943Y-45549093D01*
X25873355Y-45568763D01*
X25856908Y-45586908D01*
X25838763Y-45603355D01*
X25819093Y-45617943D01*
X25798087Y-45630533D01*
X25775949Y-45641004D01*
X25752891Y-45649254D01*
X25729135Y-45655205D01*
X25704910Y-45658798D01*
X25680450Y-45660000D01*
X25029550Y-45660000D01*
X25005090Y-45658798D01*
X24980865Y-45655205D01*
X24957109Y-45649254D01*
X24934051Y-45641004D01*
X24911913Y-45630533D01*
X24890907Y-45617943D01*
X24871237Y-45603355D01*
X24853092Y-45586908D01*
X24836645Y-45568763D01*
X24822057Y-45549093D01*
X24809467Y-45528087D01*
X24798996Y-45505949D01*
X24790746Y-45482891D01*
X24784795Y-45459135D01*
X24781202Y-45434910D01*
X24780000Y-45410450D01*
X24780000Y-44509550D01*
X24781202Y-44485090D01*
X24784795Y-44460865D01*
X24790746Y-44437109D01*
X24798996Y-44414051D01*
X24809467Y-44391913D01*
X24822057Y-44370907D01*
X24836645Y-44351237D01*
X24853092Y-44333092D01*
X24871237Y-44316645D01*
X24890907Y-44302057D01*
X24911913Y-44289467D01*
X24934051Y-44278996D01*
X24957109Y-44270746D01*
X24980865Y-44264795D01*
X25005090Y-44261202D01*
X25029550Y-44260000D01*
X25680450Y-44260000D01*
X25704910Y-44261202D01*
X25704910Y-44261202D01*
G37*
D15*
G04 #@! TD*
G04 #@! TO.P,RL4,1*
G04 #@! TO.N,Net-(Q3-Pad3)*
X25355000Y-44960000D03*
D14*
G04 #@! TO.N,Net-(Q3-Pad3)*
G04 #@! TO.C,RL5*
G36*
X25694910Y-41891202D02*
X25719135Y-41894795D01*
X25742891Y-41900746D01*
X25765949Y-41908996D01*
X25788087Y-41919467D01*
X25809093Y-41932057D01*
X25828763Y-41946645D01*
X25846908Y-41963092D01*
X25863355Y-41981237D01*
X25877943Y-42000907D01*
X25890533Y-42021913D01*
X25901004Y-42044051D01*
X25909254Y-42067109D01*
X25915205Y-42090865D01*
X25918798Y-42115090D01*
X25920000Y-42139550D01*
X25920000Y-43040450D01*
X25918798Y-43064910D01*
X25915205Y-43089135D01*
X25909254Y-43112891D01*
X25901004Y-43135949D01*
X25890533Y-43158087D01*
X25877943Y-43179093D01*
X25863355Y-43198763D01*
X25846908Y-43216908D01*
X25828763Y-43233355D01*
X25809093Y-43247943D01*
X25788087Y-43260533D01*
X25765949Y-43271004D01*
X25742891Y-43279254D01*
X25719135Y-43285205D01*
X25694910Y-43288798D01*
X25670450Y-43290000D01*
X25019550Y-43290000D01*
X24995090Y-43288798D01*
X24970865Y-43285205D01*
X24947109Y-43279254D01*
X24924051Y-43271004D01*
X24901913Y-43260533D01*
X24880907Y-43247943D01*
X24861237Y-43233355D01*
X24843092Y-43216908D01*
X24826645Y-43198763D01*
X24812057Y-43179093D01*
X24799467Y-43158087D01*
X24788996Y-43135949D01*
X24780746Y-43112891D01*
X24774795Y-43089135D01*
X24771202Y-43064910D01*
X24770000Y-43040450D01*
X24770000Y-42139550D01*
X24771202Y-42115090D01*
X24774795Y-42090865D01*
X24780746Y-42067109D01*
X24788996Y-42044051D01*
X24799467Y-42021913D01*
X24812057Y-42000907D01*
X24826645Y-41981237D01*
X24843092Y-41963092D01*
X24861237Y-41946645D01*
X24880907Y-41932057D01*
X24901913Y-41919467D01*
X24924051Y-41908996D01*
X24947109Y-41900746D01*
X24970865Y-41894795D01*
X24995090Y-41891202D01*
X25019550Y-41890000D01*
X25670450Y-41890000D01*
X25694910Y-41891202D01*
X25694910Y-41891202D01*
G37*
D15*
G04 #@! TD*
G04 #@! TO.P,RL5,1*
G04 #@! TO.N,Net-(Q3-Pad3)*
X25345000Y-42590000D03*
D14*
G04 #@! TO.N,GND*
G04 #@! TO.C,RL5*
G36*
X23644910Y-41891202D02*
X23669135Y-41894795D01*
X23692891Y-41900746D01*
X23715949Y-41908996D01*
X23738087Y-41919467D01*
X23759093Y-41932057D01*
X23778763Y-41946645D01*
X23796908Y-41963092D01*
X23813355Y-41981237D01*
X23827943Y-42000907D01*
X23840533Y-42021913D01*
X23851004Y-42044051D01*
X23859254Y-42067109D01*
X23865205Y-42090865D01*
X23868798Y-42115090D01*
X23870000Y-42139550D01*
X23870000Y-43040450D01*
X23868798Y-43064910D01*
X23865205Y-43089135D01*
X23859254Y-43112891D01*
X23851004Y-43135949D01*
X23840533Y-43158087D01*
X23827943Y-43179093D01*
X23813355Y-43198763D01*
X23796908Y-43216908D01*
X23778763Y-43233355D01*
X23759093Y-43247943D01*
X23738087Y-43260533D01*
X23715949Y-43271004D01*
X23692891Y-43279254D01*
X23669135Y-43285205D01*
X23644910Y-43288798D01*
X23620450Y-43290000D01*
X22969550Y-43290000D01*
X22945090Y-43288798D01*
X22920865Y-43285205D01*
X22897109Y-43279254D01*
X22874051Y-43271004D01*
X22851913Y-43260533D01*
X22830907Y-43247943D01*
X22811237Y-43233355D01*
X22793092Y-43216908D01*
X22776645Y-43198763D01*
X22762057Y-43179093D01*
X22749467Y-43158087D01*
X22738996Y-43135949D01*
X22730746Y-43112891D01*
X22724795Y-43089135D01*
X22721202Y-43064910D01*
X22720000Y-43040450D01*
X22720000Y-42139550D01*
X22721202Y-42115090D01*
X22724795Y-42090865D01*
X22730746Y-42067109D01*
X22738996Y-42044051D01*
X22749467Y-42021913D01*
X22762057Y-42000907D01*
X22776645Y-41981237D01*
X22793092Y-41963092D01*
X22811237Y-41946645D01*
X22830907Y-41932057D01*
X22851913Y-41919467D01*
X22874051Y-41908996D01*
X22897109Y-41900746D01*
X22920865Y-41894795D01*
X22945090Y-41891202D01*
X22969550Y-41890000D01*
X23620450Y-41890000D01*
X23644910Y-41891202D01*
X23644910Y-41891202D01*
G37*
D15*
G04 #@! TD*
G04 #@! TO.P,RL5,2*
G04 #@! TO.N,GND*
X23295000Y-42590000D03*
D17*
G04 #@! TO.P,SW1,1*
G04 #@! TO.N,/Vcc*
X25340000Y-14600000D03*
G04 #@! TO.P,SW1,2*
G04 #@! TO.N,/SW*
X20840000Y-14600000D03*
G04 #@! TO.P,SW1,1*
G04 #@! TO.N,/Vcc*
X25340000Y-21100000D03*
G04 #@! TO.P,SW1,2*
G04 #@! TO.N,/SW*
X20840000Y-21100000D03*
G04 #@! TD*
D18*
G04 #@! TO.N,/Ctrl2*
X31900000Y-47090000D03*
G04 #@! TO.N,/Ctrl3*
X32100000Y-41200000D03*
G04 #@! TO.N,/Ctrl4*
X32100000Y-38930000D03*
G04 #@! TO.N,/Vbat*
X26900000Y-40170000D03*
X26900000Y-45270000D03*
X26900000Y-50310000D03*
X26890000Y-35120000D03*
G04 #@! TO.N,/Vin*
X21600000Y-26100000D03*
G04 #@! TO.N,Net-(D1-Pad2)*
X32130000Y-35410000D03*
G04 #@! TO.N,/En_VD*
X30700000Y-34300000D03*
G04 #@! TO.N,/dut*
X27940000Y-38590000D03*
G04 #@! TD*
D19*
G04 #@! TO.N,/Ctrl1*
X42490000Y-53020000D02*
X42810000Y-53340000D01*
X30350000Y-53020000D02*
X42490000Y-53020000D01*
X30400000Y-53020000D02*
X30350000Y-53020000D01*
X33675000Y-49745000D02*
X30400000Y-53020000D01*
X33675000Y-44800000D02*
X33675000Y-49745000D01*
G04 #@! TO.N,/Ctrl2*
X31050000Y-47940000D02*
X31900000Y-47090000D01*
X30350000Y-47940000D02*
X31050000Y-47940000D01*
X31900000Y-44245000D02*
X33685000Y-42460000D01*
X31900000Y-47090000D02*
X31900000Y-44245000D01*
X31900000Y-47090000D02*
X31900000Y-47090000D01*
G04 #@! TO.N,/Ctrl3*
X33160000Y-40100000D02*
X33685000Y-40100000D01*
X30400000Y-42860000D02*
X33160000Y-40100000D01*
X30350000Y-42860000D02*
X30400000Y-42860000D01*
G04 #@! TO.N,/Ctrl4*
X33645000Y-37780000D02*
X33685000Y-37740000D01*
X30630000Y-37780000D02*
X33645000Y-37780000D01*
X31790000Y-38930000D02*
X31780000Y-38930000D01*
X31780000Y-38930000D02*
X30630000Y-37780000D01*
X32100000Y-38930000D02*
X31780000Y-38930000D01*
G04 #@! TO.N,/Vcc*
X35735000Y-35380000D02*
X35735000Y-37740000D01*
X35735000Y-37740000D02*
X35735000Y-40100000D01*
X35735000Y-40100000D02*
X35735000Y-42460000D01*
X35735000Y-44790000D02*
X35725000Y-44800000D01*
X35735000Y-42460000D02*
X35735000Y-44790000D01*
X42630000Y-35380000D02*
X42810000Y-35560000D01*
X35735000Y-35380000D02*
X42630000Y-35380000D01*
G04 #@! TO.N,/Vbat*
X29280000Y-35880000D02*
X30630000Y-35880000D01*
X29530000Y-45270000D02*
X26900000Y-45270000D01*
X30350000Y-46040000D02*
X30300000Y-46040000D01*
X30300000Y-46040000D02*
X29530000Y-45270000D01*
X30300000Y-40960000D02*
X29510000Y-40170000D01*
X30350000Y-40960000D02*
X30300000Y-40960000D01*
X29510000Y-40170000D02*
X26900000Y-40170000D01*
X27650000Y-35880000D02*
X29280000Y-35880000D01*
X26890000Y-35120000D02*
X27650000Y-35880000D01*
X30300000Y-51120000D02*
X29490000Y-50310000D01*
X30350000Y-51120000D02*
X30300000Y-51120000D01*
X29490000Y-50310000D02*
X26900000Y-50310000D01*
X26890000Y-34554315D02*
X26890000Y-35120000D01*
X25420000Y-31210000D02*
X26890000Y-32680000D01*
X26890000Y-32680000D02*
X26890000Y-34554315D01*
X24795000Y-31210000D02*
X25420000Y-31210000D01*
G04 #@! TO.N,Net-(Q3-Pad3)*
X25345000Y-44950000D02*
X25355000Y-44960000D01*
X25345000Y-42590000D02*
X25345000Y-44950000D01*
X28300000Y-41910000D02*
X28350000Y-41910000D01*
X27620000Y-42590000D02*
X28300000Y-41910000D01*
X25345000Y-42590000D02*
X27620000Y-42590000D01*
G04 #@! TO.N,Net-(Q2-Pad3)*
X28010000Y-47330000D02*
X28350000Y-46990000D01*
X25565000Y-47330000D02*
X28010000Y-47330000D01*
G04 #@! TO.N,Net-(Q1-Pad3)*
X28280000Y-52000000D02*
X28350000Y-52070000D01*
X25555000Y-52000000D02*
X28280000Y-52000000D01*
G04 #@! TO.N,/Vin*
X22890000Y-27390000D02*
X21600000Y-26100000D01*
X23045000Y-27390000D02*
X22890000Y-27390000D01*
X23045000Y-27390000D02*
X23045000Y-29280000D01*
G04 #@! TO.N,Net-(D1-Pad2)*
X32130000Y-35410000D02*
X33655000Y-35410000D01*
X33655000Y-35410000D02*
X33685000Y-35380000D01*
G04 #@! TO.N,/SW*
X14870000Y-30480000D02*
X17750000Y-33360000D01*
X22905000Y-33360000D02*
X17750000Y-33360000D01*
X20840000Y-24510000D02*
X14870000Y-30480000D01*
X20840000Y-21100000D02*
X20840000Y-24510000D01*
G04 #@! TO.N,/En_VD*
X30950000Y-33020000D02*
X30630000Y-32700000D01*
X30700000Y-34300000D02*
X30700000Y-32770000D01*
X30700000Y-32770000D02*
X30630000Y-32700000D01*
X33685000Y-33020000D02*
X30950000Y-33020000D01*
G04 #@! TO.N,Net-(Q5-Pad3)*
X28630000Y-29630000D02*
X28630000Y-31750000D01*
X24805000Y-27400000D02*
X26400000Y-27400000D01*
X26400000Y-27400000D02*
X28630000Y-29630000D01*
G04 #@! TO.N,/dut*
X27940000Y-37520000D02*
X28630000Y-36830000D01*
X27940000Y-38590000D02*
X27940000Y-37520000D01*
G04 #@! TO.N,Net-(RL1-Pad2)*
X25345000Y-49950000D02*
X25345000Y-49700000D01*
X23295000Y-52000000D02*
X25345000Y-49950000D01*
G04 #@! TO.N,Net-(R7-Pad2)*
X23045000Y-31030000D02*
X23045000Y-31180000D01*
X24795000Y-29280000D02*
X23045000Y-31030000D01*
G04 #@! TD*
D20*
G04 #@! TO.N,GND*
G36*
X17159671Y-33844473D02*
X17202071Y-33907929D01*
X17453463Y-34075904D01*
X17675148Y-34120000D01*
X17675152Y-34120000D01*
X17749999Y-34134888D01*
X17824846Y-34120000D01*
X21728111Y-34120000D01*
X21730839Y-34133713D01*
X21925282Y-34424718D01*
X22216287Y-34619161D01*
X22559550Y-34687440D01*
X23210450Y-34687440D01*
X23553713Y-34619161D01*
X23844718Y-34424718D01*
X23845509Y-34423535D01*
X24000302Y-34578327D01*
X24233691Y-34675000D01*
X24649250Y-34675000D01*
X24808000Y-34516250D01*
X24808000Y-33467000D01*
X24788000Y-33467000D01*
X24788000Y-33213000D01*
X24808000Y-33213000D01*
X24808000Y-33193000D01*
X25062000Y-33193000D01*
X25062000Y-33213000D01*
X25082000Y-33213000D01*
X25082000Y-33467000D01*
X25062000Y-33467000D01*
X25062000Y-34516250D01*
X25220750Y-34675000D01*
X25636309Y-34675000D01*
X25869698Y-34578327D01*
X26048327Y-34399699D01*
X26130001Y-34202521D01*
X26130001Y-34416288D01*
X26012569Y-34533720D01*
X25855000Y-34914126D01*
X25855000Y-35325874D01*
X26012569Y-35706280D01*
X26303720Y-35997431D01*
X26684126Y-36155000D01*
X26850198Y-36155000D01*
X27059673Y-36364475D01*
X27102071Y-36427929D01*
X27165524Y-36470327D01*
X27165526Y-36470329D01*
X27251486Y-36527765D01*
X27353463Y-36595904D01*
X27532560Y-36631529D01*
X27532560Y-36852639D01*
X27455527Y-36929672D01*
X27392072Y-36972071D01*
X27349672Y-37035527D01*
X27349671Y-37035528D01*
X27224097Y-37223463D01*
X27165112Y-37520000D01*
X27180001Y-37594851D01*
X27180001Y-37886288D01*
X27062569Y-38003720D01*
X26905000Y-38384126D01*
X26905000Y-38795874D01*
X27045470Y-39135000D01*
X26694126Y-39135000D01*
X26313720Y-39292569D01*
X26022569Y-39583720D01*
X25865000Y-39964126D01*
X25865000Y-40375874D01*
X26022569Y-40756280D01*
X26313720Y-41047431D01*
X26694126Y-41205000D01*
X27105874Y-41205000D01*
X27429716Y-41070860D01*
X27301843Y-41262235D01*
X27252560Y-41510000D01*
X27252560Y-41830000D01*
X26505867Y-41830000D01*
X26499161Y-41796287D01*
X26304718Y-41505282D01*
X26013713Y-41310839D01*
X25670450Y-41242560D01*
X25019550Y-41242560D01*
X24676287Y-41310839D01*
X24385282Y-41505282D01*
X24384491Y-41506465D01*
X24229698Y-41351673D01*
X23996309Y-41255000D01*
X23580750Y-41255000D01*
X23422000Y-41413750D01*
X23422000Y-42463000D01*
X23442000Y-42463000D01*
X23442000Y-42717000D01*
X23422000Y-42717000D01*
X23422000Y-43766250D01*
X23435750Y-43780000D01*
X23432000Y-43783750D01*
X23432000Y-44833000D01*
X23452000Y-44833000D01*
X23452000Y-45087000D01*
X23432000Y-45087000D01*
X23432000Y-46136250D01*
X23440750Y-46145000D01*
X23432000Y-46153750D01*
X23432000Y-47203000D01*
X23452000Y-47203000D01*
X23452000Y-47457000D01*
X23432000Y-47457000D01*
X23432000Y-48506250D01*
X23435750Y-48510000D01*
X23422000Y-48523750D01*
X23422000Y-49573000D01*
X23442000Y-49573000D01*
X23442000Y-49827000D01*
X23422000Y-49827000D01*
X23422000Y-49847000D01*
X23168000Y-49847000D01*
X23168000Y-49827000D01*
X22243750Y-49827000D01*
X22085000Y-49985750D01*
X22085000Y-50526310D01*
X22181673Y-50759699D01*
X22336466Y-50914491D01*
X22335282Y-50915282D01*
X22140839Y-51206287D01*
X22072560Y-51549550D01*
X22072560Y-52450450D01*
X22140839Y-52793713D01*
X22335282Y-53084718D01*
X22626287Y-53279161D01*
X22969550Y-53347440D01*
X23620450Y-53347440D01*
X23963713Y-53279161D01*
X24254718Y-53084718D01*
X24320000Y-52987016D01*
X24385282Y-53084718D01*
X24676287Y-53279161D01*
X25019550Y-53347440D01*
X25670450Y-53347440D01*
X26013713Y-53279161D01*
X26304718Y-53084718D01*
X26499161Y-52793713D01*
X26505867Y-52760000D01*
X27330064Y-52760000D01*
X27442191Y-52927809D01*
X27652235Y-53068157D01*
X27900000Y-53117440D01*
X28800000Y-53117440D01*
X29047765Y-53068157D01*
X29252560Y-52931316D01*
X29252560Y-53420000D01*
X29301843Y-53667765D01*
X29442191Y-53877809D01*
X29652235Y-54018157D01*
X29900000Y-54067440D01*
X30800000Y-54067440D01*
X31047765Y-54018157D01*
X31257809Y-53877809D01*
X31323163Y-53780000D01*
X41480152Y-53780000D01*
X41625680Y-54131337D01*
X42018663Y-54524320D01*
X42209647Y-54603428D01*
X42078857Y-54657603D01*
X42009392Y-54899787D01*
X42810000Y-55700395D01*
X42824143Y-55686253D01*
X43003748Y-55865858D01*
X42989605Y-55880000D01*
X43003748Y-55894143D01*
X42824143Y-56073748D01*
X42810000Y-56059605D01*
X42009392Y-56860213D01*
X42078857Y-57102397D01*
X42219393Y-57152535D01*
X42018663Y-57235680D01*
X41625680Y-57628663D01*
X41413000Y-58142119D01*
X41413000Y-58697881D01*
X41625680Y-59211337D01*
X42018663Y-59604320D01*
X42532119Y-59817000D01*
X43087881Y-59817000D01*
X43601337Y-59604320D01*
X43715001Y-59490656D01*
X43715001Y-66720581D01*
X43434741Y-66043974D01*
X42806026Y-65415259D01*
X41984569Y-65075000D01*
X41095431Y-65075000D01*
X40273974Y-65415259D01*
X39645259Y-66043974D01*
X39305000Y-66865431D01*
X39305000Y-67754569D01*
X39645259Y-68576026D01*
X40273974Y-69204741D01*
X40540162Y-69315000D01*
X17139838Y-69315000D01*
X17406026Y-69204741D01*
X18034741Y-68576026D01*
X18375000Y-67754569D01*
X18375000Y-66865431D01*
X18034741Y-66043974D01*
X17406026Y-65415259D01*
X16584569Y-65075000D01*
X15695431Y-65075000D01*
X14873974Y-65415259D01*
X14245259Y-66043974D01*
X13985000Y-66672294D01*
X13985000Y-62865000D01*
X31759908Y-62865000D01*
X31875161Y-63444418D01*
X32203375Y-63935625D01*
X32694582Y-64263839D01*
X33127744Y-64350000D01*
X33420256Y-64350000D01*
X33853418Y-64263839D01*
X34344625Y-63935625D01*
X34359096Y-63913967D01*
X34425673Y-64074698D01*
X34604301Y-64253327D01*
X34837690Y-64350000D01*
X35528250Y-64350000D01*
X35687000Y-64191250D01*
X35687000Y-62992000D01*
X35941000Y-62992000D01*
X35941000Y-64191250D01*
X36099750Y-64350000D01*
X36790310Y-64350000D01*
X37023699Y-64253327D01*
X37202327Y-64074698D01*
X37299000Y-63841309D01*
X37299000Y-63150750D01*
X37140250Y-62992000D01*
X35941000Y-62992000D01*
X35687000Y-62992000D01*
X35667000Y-62992000D01*
X35667000Y-62738000D01*
X35687000Y-62738000D01*
X35687000Y-61538750D01*
X35941000Y-61538750D01*
X35941000Y-62738000D01*
X37140250Y-62738000D01*
X37299000Y-62579250D01*
X37299000Y-61888691D01*
X37202327Y-61655302D01*
X37023699Y-61476673D01*
X36790310Y-61380000D01*
X36099750Y-61380000D01*
X35941000Y-61538750D01*
X35687000Y-61538750D01*
X35528250Y-61380000D01*
X34837690Y-61380000D01*
X34604301Y-61476673D01*
X34425673Y-61655302D01*
X34359096Y-61816033D01*
X34344625Y-61794375D01*
X33853418Y-61466161D01*
X33420256Y-61380000D01*
X33127744Y-61380000D01*
X32694582Y-61466161D01*
X32203375Y-61794375D01*
X31875161Y-62285582D01*
X31759908Y-62865000D01*
X13985000Y-62865000D01*
X13985000Y-59510657D01*
X14078663Y-59604320D01*
X14592119Y-59817000D01*
X15147881Y-59817000D01*
X15661337Y-59604320D01*
X16054320Y-59211337D01*
X16267000Y-58697881D01*
X16267000Y-58142119D01*
X16054320Y-57628663D01*
X15661337Y-57235680D01*
X15470353Y-57156572D01*
X15601143Y-57102397D01*
X15670608Y-56860213D01*
X14870000Y-56059605D01*
X14855858Y-56073748D01*
X14676253Y-55894143D01*
X14690395Y-55880000D01*
X15049605Y-55880000D01*
X15850213Y-56680608D01*
X16092397Y-56611143D01*
X16279144Y-56087698D01*
X16258353Y-55672302D01*
X41400856Y-55672302D01*
X41428638Y-56227368D01*
X41587603Y-56611143D01*
X41829787Y-56680608D01*
X42630395Y-55880000D01*
X41829787Y-55079392D01*
X41587603Y-55148857D01*
X41400856Y-55672302D01*
X16258353Y-55672302D01*
X16251362Y-55532632D01*
X16092397Y-55148857D01*
X15850213Y-55079392D01*
X15049605Y-55880000D01*
X14690395Y-55880000D01*
X14676253Y-55865858D01*
X14855858Y-55686253D01*
X14870000Y-55700395D01*
X15670608Y-54899787D01*
X15601143Y-54657603D01*
X15460607Y-54607465D01*
X15661337Y-54524320D01*
X16054320Y-54131337D01*
X16267000Y-53617881D01*
X16267000Y-53062119D01*
X16054320Y-52548663D01*
X15661337Y-52155680D01*
X15454487Y-52070000D01*
X15661337Y-51984320D01*
X16054320Y-51591337D01*
X16267000Y-51077881D01*
X16267000Y-50522119D01*
X16054320Y-50008663D01*
X15661337Y-49615680D01*
X15454487Y-49530000D01*
X15661337Y-49444320D01*
X16054320Y-49051337D01*
X16127903Y-48873690D01*
X22085000Y-48873690D01*
X22085000Y-49414250D01*
X22243750Y-49573000D01*
X23168000Y-49573000D01*
X23168000Y-48523750D01*
X23164250Y-48520000D01*
X23178000Y-48506250D01*
X23178000Y-47457000D01*
X22253750Y-47457000D01*
X22095000Y-47615750D01*
X22095000Y-48156310D01*
X22191673Y-48389699D01*
X22311975Y-48510000D01*
X22181673Y-48640301D01*
X22085000Y-48873690D01*
X16127903Y-48873690D01*
X16267000Y-48537881D01*
X16267000Y-47982119D01*
X16054320Y-47468663D01*
X15661337Y-47075680D01*
X15470353Y-46996572D01*
X15601143Y-46942397D01*
X15670608Y-46700213D01*
X14870000Y-45899605D01*
X14855858Y-45913748D01*
X14676253Y-45734143D01*
X14690395Y-45720000D01*
X15049605Y-45720000D01*
X15850213Y-46520608D01*
X16092397Y-46451143D01*
X16279144Y-45927698D01*
X16251362Y-45372632D01*
X16198806Y-45245750D01*
X22095000Y-45245750D01*
X22095000Y-45786310D01*
X22191673Y-46019699D01*
X22316975Y-46145000D01*
X22191673Y-46270301D01*
X22095000Y-46503690D01*
X22095000Y-47044250D01*
X22253750Y-47203000D01*
X23178000Y-47203000D01*
X23178000Y-46153750D01*
X23169250Y-46145000D01*
X23178000Y-46136250D01*
X23178000Y-45087000D01*
X22253750Y-45087000D01*
X22095000Y-45245750D01*
X16198806Y-45245750D01*
X16092397Y-44988857D01*
X15850213Y-44919392D01*
X15049605Y-45720000D01*
X14690395Y-45720000D01*
X14676253Y-45705858D01*
X14855858Y-45526253D01*
X14870000Y-45540395D01*
X15670608Y-44739787D01*
X15601143Y-44497603D01*
X15460607Y-44447465D01*
X15661337Y-44364320D01*
X16054320Y-43971337D01*
X16267000Y-43457881D01*
X16267000Y-42902119D01*
X16256078Y-42875750D01*
X22085000Y-42875750D01*
X22085000Y-43416310D01*
X22181673Y-43649699D01*
X22311975Y-43780000D01*
X22191673Y-43900301D01*
X22095000Y-44133690D01*
X22095000Y-44674250D01*
X22253750Y-44833000D01*
X23178000Y-44833000D01*
X23178000Y-43783750D01*
X23164250Y-43770000D01*
X23168000Y-43766250D01*
X23168000Y-42717000D01*
X22243750Y-42717000D01*
X22085000Y-42875750D01*
X16256078Y-42875750D01*
X16054320Y-42388663D01*
X15661337Y-41995680D01*
X15454487Y-41910000D01*
X15661337Y-41824320D01*
X15721967Y-41763690D01*
X22085000Y-41763690D01*
X22085000Y-42304250D01*
X22243750Y-42463000D01*
X23168000Y-42463000D01*
X23168000Y-41413750D01*
X23009250Y-41255000D01*
X22593691Y-41255000D01*
X22360302Y-41351673D01*
X22181673Y-41530301D01*
X22085000Y-41763690D01*
X15721967Y-41763690D01*
X16054320Y-41431337D01*
X16267000Y-40917881D01*
X16267000Y-40362119D01*
X16054320Y-39848663D01*
X15661337Y-39455680D01*
X15454487Y-39370000D01*
X15661337Y-39284320D01*
X16054320Y-38891337D01*
X16267000Y-38377881D01*
X16267000Y-37822119D01*
X16054320Y-37308663D01*
X15661337Y-36915680D01*
X15454487Y-36830000D01*
X15661337Y-36744320D01*
X16054320Y-36351337D01*
X16267000Y-35837881D01*
X16267000Y-35282119D01*
X16054320Y-34768663D01*
X15661337Y-34375680D01*
X15454487Y-34290000D01*
X15661337Y-34204320D01*
X16054320Y-33811337D01*
X16267000Y-33297881D01*
X16267000Y-32951802D01*
X17159671Y-33844473D01*
X17159671Y-33844473D01*
G37*
X17159671Y-33844473D02*
X17202071Y-33907929D01*
X17453463Y-34075904D01*
X17675148Y-34120000D01*
X17675152Y-34120000D01*
X17749999Y-34134888D01*
X17824846Y-34120000D01*
X21728111Y-34120000D01*
X21730839Y-34133713D01*
X21925282Y-34424718D01*
X22216287Y-34619161D01*
X22559550Y-34687440D01*
X23210450Y-34687440D01*
X23553713Y-34619161D01*
X23844718Y-34424718D01*
X23845509Y-34423535D01*
X24000302Y-34578327D01*
X24233691Y-34675000D01*
X24649250Y-34675000D01*
X24808000Y-34516250D01*
X24808000Y-33467000D01*
X24788000Y-33467000D01*
X24788000Y-33213000D01*
X24808000Y-33213000D01*
X24808000Y-33193000D01*
X25062000Y-33193000D01*
X25062000Y-33213000D01*
X25082000Y-33213000D01*
X25082000Y-33467000D01*
X25062000Y-33467000D01*
X25062000Y-34516250D01*
X25220750Y-34675000D01*
X25636309Y-34675000D01*
X25869698Y-34578327D01*
X26048327Y-34399699D01*
X26130001Y-34202521D01*
X26130001Y-34416288D01*
X26012569Y-34533720D01*
X25855000Y-34914126D01*
X25855000Y-35325874D01*
X26012569Y-35706280D01*
X26303720Y-35997431D01*
X26684126Y-36155000D01*
X26850198Y-36155000D01*
X27059673Y-36364475D01*
X27102071Y-36427929D01*
X27165524Y-36470327D01*
X27165526Y-36470329D01*
X27251486Y-36527765D01*
X27353463Y-36595904D01*
X27532560Y-36631529D01*
X27532560Y-36852639D01*
X27455527Y-36929672D01*
X27392072Y-36972071D01*
X27349672Y-37035527D01*
X27349671Y-37035528D01*
X27224097Y-37223463D01*
X27165112Y-37520000D01*
X27180001Y-37594851D01*
X27180001Y-37886288D01*
X27062569Y-38003720D01*
X26905000Y-38384126D01*
X26905000Y-38795874D01*
X27045470Y-39135000D01*
X26694126Y-39135000D01*
X26313720Y-39292569D01*
X26022569Y-39583720D01*
X25865000Y-39964126D01*
X25865000Y-40375874D01*
X26022569Y-40756280D01*
X26313720Y-41047431D01*
X26694126Y-41205000D01*
X27105874Y-41205000D01*
X27429716Y-41070860D01*
X27301843Y-41262235D01*
X27252560Y-41510000D01*
X27252560Y-41830000D01*
X26505867Y-41830000D01*
X26499161Y-41796287D01*
X26304718Y-41505282D01*
X26013713Y-41310839D01*
X25670450Y-41242560D01*
X25019550Y-41242560D01*
X24676287Y-41310839D01*
X24385282Y-41505282D01*
X24384491Y-41506465D01*
X24229698Y-41351673D01*
X23996309Y-41255000D01*
X23580750Y-41255000D01*
X23422000Y-41413750D01*
X23422000Y-42463000D01*
X23442000Y-42463000D01*
X23442000Y-42717000D01*
X23422000Y-42717000D01*
X23422000Y-43766250D01*
X23435750Y-43780000D01*
X23432000Y-43783750D01*
X23432000Y-44833000D01*
X23452000Y-44833000D01*
X23452000Y-45087000D01*
X23432000Y-45087000D01*
X23432000Y-46136250D01*
X23440750Y-46145000D01*
X23432000Y-46153750D01*
X23432000Y-47203000D01*
X23452000Y-47203000D01*
X23452000Y-47457000D01*
X23432000Y-47457000D01*
X23432000Y-48506250D01*
X23435750Y-48510000D01*
X23422000Y-48523750D01*
X23422000Y-49573000D01*
X23442000Y-49573000D01*
X23442000Y-49827000D01*
X23422000Y-49827000D01*
X23422000Y-49847000D01*
X23168000Y-49847000D01*
X23168000Y-49827000D01*
X22243750Y-49827000D01*
X22085000Y-49985750D01*
X22085000Y-50526310D01*
X22181673Y-50759699D01*
X22336466Y-50914491D01*
X22335282Y-50915282D01*
X22140839Y-51206287D01*
X22072560Y-51549550D01*
X22072560Y-52450450D01*
X22140839Y-52793713D01*
X22335282Y-53084718D01*
X22626287Y-53279161D01*
X22969550Y-53347440D01*
X23620450Y-53347440D01*
X23963713Y-53279161D01*
X24254718Y-53084718D01*
X24320000Y-52987016D01*
X24385282Y-53084718D01*
X24676287Y-53279161D01*
X25019550Y-53347440D01*
X25670450Y-53347440D01*
X26013713Y-53279161D01*
X26304718Y-53084718D01*
X26499161Y-52793713D01*
X26505867Y-52760000D01*
X27330064Y-52760000D01*
X27442191Y-52927809D01*
X27652235Y-53068157D01*
X27900000Y-53117440D01*
X28800000Y-53117440D01*
X29047765Y-53068157D01*
X29252560Y-52931316D01*
X29252560Y-53420000D01*
X29301843Y-53667765D01*
X29442191Y-53877809D01*
X29652235Y-54018157D01*
X29900000Y-54067440D01*
X30800000Y-54067440D01*
X31047765Y-54018157D01*
X31257809Y-53877809D01*
X31323163Y-53780000D01*
X41480152Y-53780000D01*
X41625680Y-54131337D01*
X42018663Y-54524320D01*
X42209647Y-54603428D01*
X42078857Y-54657603D01*
X42009392Y-54899787D01*
X42810000Y-55700395D01*
X42824143Y-55686253D01*
X43003748Y-55865858D01*
X42989605Y-55880000D01*
X43003748Y-55894143D01*
X42824143Y-56073748D01*
X42810000Y-56059605D01*
X42009392Y-56860213D01*
X42078857Y-57102397D01*
X42219393Y-57152535D01*
X42018663Y-57235680D01*
X41625680Y-57628663D01*
X41413000Y-58142119D01*
X41413000Y-58697881D01*
X41625680Y-59211337D01*
X42018663Y-59604320D01*
X42532119Y-59817000D01*
X43087881Y-59817000D01*
X43601337Y-59604320D01*
X43715001Y-59490656D01*
X43715001Y-66720581D01*
X43434741Y-66043974D01*
X42806026Y-65415259D01*
X41984569Y-65075000D01*
X41095431Y-65075000D01*
X40273974Y-65415259D01*
X39645259Y-66043974D01*
X39305000Y-66865431D01*
X39305000Y-67754569D01*
X39645259Y-68576026D01*
X40273974Y-69204741D01*
X40540162Y-69315000D01*
X17139838Y-69315000D01*
X17406026Y-69204741D01*
X18034741Y-68576026D01*
X18375000Y-67754569D01*
X18375000Y-66865431D01*
X18034741Y-66043974D01*
X17406026Y-65415259D01*
X16584569Y-65075000D01*
X15695431Y-65075000D01*
X14873974Y-65415259D01*
X14245259Y-66043974D01*
X13985000Y-66672294D01*
X13985000Y-62865000D01*
X31759908Y-62865000D01*
X31875161Y-63444418D01*
X32203375Y-63935625D01*
X32694582Y-64263839D01*
X33127744Y-64350000D01*
X33420256Y-64350000D01*
X33853418Y-64263839D01*
X34344625Y-63935625D01*
X34359096Y-63913967D01*
X34425673Y-64074698D01*
X34604301Y-64253327D01*
X34837690Y-64350000D01*
X35528250Y-64350000D01*
X35687000Y-64191250D01*
X35687000Y-62992000D01*
X35941000Y-62992000D01*
X35941000Y-64191250D01*
X36099750Y-64350000D01*
X36790310Y-64350000D01*
X37023699Y-64253327D01*
X37202327Y-64074698D01*
X37299000Y-63841309D01*
X37299000Y-63150750D01*
X37140250Y-62992000D01*
X35941000Y-62992000D01*
X35687000Y-62992000D01*
X35667000Y-62992000D01*
X35667000Y-62738000D01*
X35687000Y-62738000D01*
X35687000Y-61538750D01*
X35941000Y-61538750D01*
X35941000Y-62738000D01*
X37140250Y-62738000D01*
X37299000Y-62579250D01*
X37299000Y-61888691D01*
X37202327Y-61655302D01*
X37023699Y-61476673D01*
X36790310Y-61380000D01*
X36099750Y-61380000D01*
X35941000Y-61538750D01*
X35687000Y-61538750D01*
X35528250Y-61380000D01*
X34837690Y-61380000D01*
X34604301Y-61476673D01*
X34425673Y-61655302D01*
X34359096Y-61816033D01*
X34344625Y-61794375D01*
X33853418Y-61466161D01*
X33420256Y-61380000D01*
X33127744Y-61380000D01*
X32694582Y-61466161D01*
X32203375Y-61794375D01*
X31875161Y-62285582D01*
X31759908Y-62865000D01*
X13985000Y-62865000D01*
X13985000Y-59510657D01*
X14078663Y-59604320D01*
X14592119Y-59817000D01*
X15147881Y-59817000D01*
X15661337Y-59604320D01*
X16054320Y-59211337D01*
X16267000Y-58697881D01*
X16267000Y-58142119D01*
X16054320Y-57628663D01*
X15661337Y-57235680D01*
X15470353Y-57156572D01*
X15601143Y-57102397D01*
X15670608Y-56860213D01*
X14870000Y-56059605D01*
X14855858Y-56073748D01*
X14676253Y-55894143D01*
X14690395Y-55880000D01*
X15049605Y-55880000D01*
X15850213Y-56680608D01*
X16092397Y-56611143D01*
X16279144Y-56087698D01*
X16258353Y-55672302D01*
X41400856Y-55672302D01*
X41428638Y-56227368D01*
X41587603Y-56611143D01*
X41829787Y-56680608D01*
X42630395Y-55880000D01*
X41829787Y-55079392D01*
X41587603Y-55148857D01*
X41400856Y-55672302D01*
X16258353Y-55672302D01*
X16251362Y-55532632D01*
X16092397Y-55148857D01*
X15850213Y-55079392D01*
X15049605Y-55880000D01*
X14690395Y-55880000D01*
X14676253Y-55865858D01*
X14855858Y-55686253D01*
X14870000Y-55700395D01*
X15670608Y-54899787D01*
X15601143Y-54657603D01*
X15460607Y-54607465D01*
X15661337Y-54524320D01*
X16054320Y-54131337D01*
X16267000Y-53617881D01*
X16267000Y-53062119D01*
X16054320Y-52548663D01*
X15661337Y-52155680D01*
X15454487Y-52070000D01*
X15661337Y-51984320D01*
X16054320Y-51591337D01*
X16267000Y-51077881D01*
X16267000Y-50522119D01*
X16054320Y-50008663D01*
X15661337Y-49615680D01*
X15454487Y-49530000D01*
X15661337Y-49444320D01*
X16054320Y-49051337D01*
X16127903Y-48873690D01*
X22085000Y-48873690D01*
X22085000Y-49414250D01*
X22243750Y-49573000D01*
X23168000Y-49573000D01*
X23168000Y-48523750D01*
X23164250Y-48520000D01*
X23178000Y-48506250D01*
X23178000Y-47457000D01*
X22253750Y-47457000D01*
X22095000Y-47615750D01*
X22095000Y-48156310D01*
X22191673Y-48389699D01*
X22311975Y-48510000D01*
X22181673Y-48640301D01*
X22085000Y-48873690D01*
X16127903Y-48873690D01*
X16267000Y-48537881D01*
X16267000Y-47982119D01*
X16054320Y-47468663D01*
X15661337Y-47075680D01*
X15470353Y-46996572D01*
X15601143Y-46942397D01*
X15670608Y-46700213D01*
X14870000Y-45899605D01*
X14855858Y-45913748D01*
X14676253Y-45734143D01*
X14690395Y-45720000D01*
X15049605Y-45720000D01*
X15850213Y-46520608D01*
X16092397Y-46451143D01*
X16279144Y-45927698D01*
X16251362Y-45372632D01*
X16198806Y-45245750D01*
X22095000Y-45245750D01*
X22095000Y-45786310D01*
X22191673Y-46019699D01*
X22316975Y-46145000D01*
X22191673Y-46270301D01*
X22095000Y-46503690D01*
X22095000Y-47044250D01*
X22253750Y-47203000D01*
X23178000Y-47203000D01*
X23178000Y-46153750D01*
X23169250Y-46145000D01*
X23178000Y-46136250D01*
X23178000Y-45087000D01*
X22253750Y-45087000D01*
X22095000Y-45245750D01*
X16198806Y-45245750D01*
X16092397Y-44988857D01*
X15850213Y-44919392D01*
X15049605Y-45720000D01*
X14690395Y-45720000D01*
X14676253Y-45705858D01*
X14855858Y-45526253D01*
X14870000Y-45540395D01*
X15670608Y-44739787D01*
X15601143Y-44497603D01*
X15460607Y-44447465D01*
X15661337Y-44364320D01*
X16054320Y-43971337D01*
X16267000Y-43457881D01*
X16267000Y-42902119D01*
X16256078Y-42875750D01*
X22085000Y-42875750D01*
X22085000Y-43416310D01*
X22181673Y-43649699D01*
X22311975Y-43780000D01*
X22191673Y-43900301D01*
X22095000Y-44133690D01*
X22095000Y-44674250D01*
X22253750Y-44833000D01*
X23178000Y-44833000D01*
X23178000Y-43783750D01*
X23164250Y-43770000D01*
X23168000Y-43766250D01*
X23168000Y-42717000D01*
X22243750Y-42717000D01*
X22085000Y-42875750D01*
X16256078Y-42875750D01*
X16054320Y-42388663D01*
X15661337Y-41995680D01*
X15454487Y-41910000D01*
X15661337Y-41824320D01*
X15721967Y-41763690D01*
X22085000Y-41763690D01*
X22085000Y-42304250D01*
X22243750Y-42463000D01*
X23168000Y-42463000D01*
X23168000Y-41413750D01*
X23009250Y-41255000D01*
X22593691Y-41255000D01*
X22360302Y-41351673D01*
X22181673Y-41530301D01*
X22085000Y-41763690D01*
X15721967Y-41763690D01*
X16054320Y-41431337D01*
X16267000Y-40917881D01*
X16267000Y-40362119D01*
X16054320Y-39848663D01*
X15661337Y-39455680D01*
X15454487Y-39370000D01*
X15661337Y-39284320D01*
X16054320Y-38891337D01*
X16267000Y-38377881D01*
X16267000Y-37822119D01*
X16054320Y-37308663D01*
X15661337Y-36915680D01*
X15454487Y-36830000D01*
X15661337Y-36744320D01*
X16054320Y-36351337D01*
X16267000Y-35837881D01*
X16267000Y-35282119D01*
X16054320Y-34768663D01*
X15661337Y-34375680D01*
X15454487Y-34290000D01*
X15661337Y-34204320D01*
X16054320Y-33811337D01*
X16267000Y-33297881D01*
X16267000Y-32951802D01*
X17159671Y-33844473D01*
G36*
X41625680Y-36351337D02*
X42018663Y-36744320D01*
X42209647Y-36823428D01*
X42078857Y-36877603D01*
X42009392Y-37119787D01*
X42810000Y-37920395D01*
X42824143Y-37906253D01*
X43003748Y-38085858D01*
X42989605Y-38100000D01*
X43003748Y-38114143D01*
X42824143Y-38293748D01*
X42810000Y-38279605D01*
X42009392Y-39080213D01*
X42078857Y-39322397D01*
X42219393Y-39372535D01*
X42018663Y-39455680D01*
X41625680Y-39848663D01*
X41413000Y-40362119D01*
X41413000Y-40917881D01*
X41625680Y-41431337D01*
X42018663Y-41824320D01*
X42225513Y-41910000D01*
X42018663Y-41995680D01*
X41625680Y-42388663D01*
X41413000Y-42902119D01*
X41413000Y-43457881D01*
X41625680Y-43971337D01*
X42018663Y-44364320D01*
X42225513Y-44450000D01*
X42018663Y-44535680D01*
X41625680Y-44928663D01*
X41413000Y-45442119D01*
X41413000Y-45997881D01*
X41625680Y-46511337D01*
X42018663Y-46904320D01*
X42225513Y-46990000D01*
X42018663Y-47075680D01*
X41625680Y-47468663D01*
X41413000Y-47982119D01*
X41413000Y-48537881D01*
X41625680Y-49051337D01*
X42018663Y-49444320D01*
X42225513Y-49530000D01*
X42018663Y-49615680D01*
X41625680Y-50008663D01*
X41413000Y-50522119D01*
X41413000Y-51077881D01*
X41625680Y-51591337D01*
X42018663Y-51984320D01*
X42225513Y-52070000D01*
X42018663Y-52155680D01*
X41914343Y-52260000D01*
X32234802Y-52260000D01*
X34159476Y-50335327D01*
X34222929Y-50292929D01*
X34265327Y-50229476D01*
X34265329Y-50229474D01*
X34390903Y-50041538D01*
X34390904Y-50041537D01*
X34435000Y-49819852D01*
X34435000Y-49819848D01*
X34449888Y-49745001D01*
X34435000Y-49670154D01*
X34435000Y-46018165D01*
X34634718Y-45884718D01*
X34700000Y-45787016D01*
X34765282Y-45884718D01*
X35056287Y-46079161D01*
X35399550Y-46147440D01*
X36050450Y-46147440D01*
X36393713Y-46079161D01*
X36684718Y-45884718D01*
X36879161Y-45593713D01*
X36947440Y-45250450D01*
X36947440Y-44349550D01*
X36879161Y-44006287D01*
X36684718Y-43715282D01*
X36562084Y-43633341D01*
X36694718Y-43544718D01*
X36889161Y-43253713D01*
X36957440Y-42910450D01*
X36957440Y-42009550D01*
X36889161Y-41666287D01*
X36694718Y-41375282D01*
X36552118Y-41280000D01*
X36694718Y-41184718D01*
X36889161Y-40893713D01*
X36957440Y-40550450D01*
X36957440Y-39649550D01*
X36889161Y-39306287D01*
X36694718Y-39015282D01*
X36552118Y-38920000D01*
X36694718Y-38824718D01*
X36889161Y-38533713D01*
X36957440Y-38190450D01*
X36957440Y-37892302D01*
X41400856Y-37892302D01*
X41428638Y-38447368D01*
X41587603Y-38831143D01*
X41829787Y-38900608D01*
X42630395Y-38100000D01*
X41829787Y-37299392D01*
X41587603Y-37368857D01*
X41400856Y-37892302D01*
X36957440Y-37892302D01*
X36957440Y-37289550D01*
X36889161Y-36946287D01*
X36694718Y-36655282D01*
X36552118Y-36560000D01*
X36694718Y-36464718D01*
X36889161Y-36173713D01*
X36895867Y-36140000D01*
X41538142Y-36140000D01*
X41625680Y-36351337D01*
X41625680Y-36351337D01*
G37*
X41625680Y-36351337D02*
X42018663Y-36744320D01*
X42209647Y-36823428D01*
X42078857Y-36877603D01*
X42009392Y-37119787D01*
X42810000Y-37920395D01*
X42824143Y-37906253D01*
X43003748Y-38085858D01*
X42989605Y-38100000D01*
X43003748Y-38114143D01*
X42824143Y-38293748D01*
X42810000Y-38279605D01*
X42009392Y-39080213D01*
X42078857Y-39322397D01*
X42219393Y-39372535D01*
X42018663Y-39455680D01*
X41625680Y-39848663D01*
X41413000Y-40362119D01*
X41413000Y-40917881D01*
X41625680Y-41431337D01*
X42018663Y-41824320D01*
X42225513Y-41910000D01*
X42018663Y-41995680D01*
X41625680Y-42388663D01*
X41413000Y-42902119D01*
X41413000Y-43457881D01*
X41625680Y-43971337D01*
X42018663Y-44364320D01*
X42225513Y-44450000D01*
X42018663Y-44535680D01*
X41625680Y-44928663D01*
X41413000Y-45442119D01*
X41413000Y-45997881D01*
X41625680Y-46511337D01*
X42018663Y-46904320D01*
X42225513Y-46990000D01*
X42018663Y-47075680D01*
X41625680Y-47468663D01*
X41413000Y-47982119D01*
X41413000Y-48537881D01*
X41625680Y-49051337D01*
X42018663Y-49444320D01*
X42225513Y-49530000D01*
X42018663Y-49615680D01*
X41625680Y-50008663D01*
X41413000Y-50522119D01*
X41413000Y-51077881D01*
X41625680Y-51591337D01*
X42018663Y-51984320D01*
X42225513Y-52070000D01*
X42018663Y-52155680D01*
X41914343Y-52260000D01*
X32234802Y-52260000D01*
X34159476Y-50335327D01*
X34222929Y-50292929D01*
X34265327Y-50229476D01*
X34265329Y-50229474D01*
X34390903Y-50041538D01*
X34390904Y-50041537D01*
X34435000Y-49819852D01*
X34435000Y-49819848D01*
X34449888Y-49745001D01*
X34435000Y-49670154D01*
X34435000Y-46018165D01*
X34634718Y-45884718D01*
X34700000Y-45787016D01*
X34765282Y-45884718D01*
X35056287Y-46079161D01*
X35399550Y-46147440D01*
X36050450Y-46147440D01*
X36393713Y-46079161D01*
X36684718Y-45884718D01*
X36879161Y-45593713D01*
X36947440Y-45250450D01*
X36947440Y-44349550D01*
X36879161Y-44006287D01*
X36684718Y-43715282D01*
X36562084Y-43633341D01*
X36694718Y-43544718D01*
X36889161Y-43253713D01*
X36957440Y-42910450D01*
X36957440Y-42009550D01*
X36889161Y-41666287D01*
X36694718Y-41375282D01*
X36552118Y-41280000D01*
X36694718Y-41184718D01*
X36889161Y-40893713D01*
X36957440Y-40550450D01*
X36957440Y-39649550D01*
X36889161Y-39306287D01*
X36694718Y-39015282D01*
X36552118Y-38920000D01*
X36694718Y-38824718D01*
X36889161Y-38533713D01*
X36957440Y-38190450D01*
X36957440Y-37892302D01*
X41400856Y-37892302D01*
X41428638Y-38447368D01*
X41587603Y-38831143D01*
X41829787Y-38900608D01*
X42630395Y-38100000D01*
X41829787Y-37299392D01*
X41587603Y-37368857D01*
X41400856Y-37892302D01*
X36957440Y-37892302D01*
X36957440Y-37289550D01*
X36889161Y-36946287D01*
X36694718Y-36655282D01*
X36552118Y-36560000D01*
X36694718Y-36464718D01*
X36889161Y-36173713D01*
X36895867Y-36140000D01*
X41538142Y-36140000D01*
X41625680Y-36351337D01*
G36*
X19913847Y-13213914D02*
X19453914Y-13673847D01*
X19205000Y-14274778D01*
X19205000Y-14925222D01*
X19453914Y-15526153D01*
X19913847Y-15986086D01*
X20514778Y-16235000D01*
X21165222Y-16235000D01*
X21766153Y-15986086D01*
X22226086Y-15526153D01*
X22475000Y-14925222D01*
X22475000Y-14274778D01*
X22226086Y-13673847D01*
X21766153Y-13213914D01*
X21454927Y-13085000D01*
X24725073Y-13085000D01*
X24413847Y-13213914D01*
X23953914Y-13673847D01*
X23705000Y-14274778D01*
X23705000Y-14925222D01*
X23953914Y-15526153D01*
X24413847Y-15986086D01*
X25014778Y-16235000D01*
X25665222Y-16235000D01*
X26266153Y-15986086D01*
X26726086Y-15526153D01*
X26975000Y-14925222D01*
X26975000Y-14274778D01*
X26726086Y-13673847D01*
X26266153Y-13213914D01*
X25954927Y-13085000D01*
X40902294Y-13085000D01*
X40273974Y-13345259D01*
X39645259Y-13973974D01*
X39305000Y-14795431D01*
X39305000Y-15684569D01*
X39645259Y-16506026D01*
X40273974Y-17134741D01*
X41095431Y-17475000D01*
X41984569Y-17475000D01*
X42806026Y-17134741D01*
X43434741Y-16506026D01*
X43715000Y-15829422D01*
X43715000Y-21789343D01*
X43601337Y-21675680D01*
X43087881Y-21463000D01*
X42532119Y-21463000D01*
X42018663Y-21675680D01*
X41625680Y-22068663D01*
X41413000Y-22582119D01*
X41413000Y-23137881D01*
X41625680Y-23651337D01*
X42018663Y-24044320D01*
X42225513Y-24130000D01*
X42018663Y-24215680D01*
X41625680Y-24608663D01*
X41413000Y-25122119D01*
X41413000Y-25677881D01*
X41625680Y-26191337D01*
X42018663Y-26584320D01*
X42225513Y-26670000D01*
X42018663Y-26755680D01*
X41625680Y-27148663D01*
X41413000Y-27662119D01*
X41413000Y-28217881D01*
X41625680Y-28731337D01*
X42018663Y-29124320D01*
X42225513Y-29210000D01*
X42018663Y-29295680D01*
X41625680Y-29688663D01*
X41413000Y-30202119D01*
X41413000Y-30757881D01*
X41625680Y-31271337D01*
X42018663Y-31664320D01*
X42225513Y-31750000D01*
X42018663Y-31835680D01*
X41625680Y-32228663D01*
X41413000Y-32742119D01*
X41413000Y-33297881D01*
X41625680Y-33811337D01*
X42018663Y-34204320D01*
X42225513Y-34290000D01*
X42018663Y-34375680D01*
X41774343Y-34620000D01*
X36895867Y-34620000D01*
X36889161Y-34586287D01*
X36694718Y-34295282D01*
X36651001Y-34266071D01*
X36669698Y-34258327D01*
X36848327Y-34079699D01*
X36945000Y-33846310D01*
X36945000Y-33305750D01*
X36786250Y-33147000D01*
X35862000Y-33147000D01*
X35862000Y-33167000D01*
X35608000Y-33167000D01*
X35608000Y-33147000D01*
X35588000Y-33147000D01*
X35588000Y-32893000D01*
X35608000Y-32893000D01*
X35608000Y-31843750D01*
X35862000Y-31843750D01*
X35862000Y-32893000D01*
X36786250Y-32893000D01*
X36945000Y-32734250D01*
X36945000Y-32193690D01*
X36848327Y-31960301D01*
X36669698Y-31781673D01*
X36436309Y-31685000D01*
X36020750Y-31685000D01*
X35862000Y-31843750D01*
X35608000Y-31843750D01*
X35449250Y-31685000D01*
X35033691Y-31685000D01*
X34800302Y-31781673D01*
X34645509Y-31936465D01*
X34644718Y-31935282D01*
X34353713Y-31740839D01*
X34010450Y-31672560D01*
X33359550Y-31672560D01*
X33016287Y-31740839D01*
X32725282Y-31935282D01*
X32530839Y-32226287D01*
X32524133Y-32260000D01*
X31717494Y-32260000D01*
X31678157Y-32062235D01*
X31537809Y-31852191D01*
X31404306Y-31762987D01*
X31439698Y-31748327D01*
X31618327Y-31569699D01*
X31715000Y-31336310D01*
X31715000Y-31095750D01*
X31556250Y-30937000D01*
X30757000Y-30937000D01*
X30757000Y-30957000D01*
X30503000Y-30957000D01*
X30503000Y-30937000D01*
X29703750Y-30937000D01*
X29618219Y-31022531D01*
X29537809Y-30902191D01*
X29390000Y-30803427D01*
X29390000Y-30283690D01*
X29545000Y-30283690D01*
X29545000Y-30524250D01*
X29703750Y-30683000D01*
X30503000Y-30683000D01*
X30503000Y-29933750D01*
X30757000Y-29933750D01*
X30757000Y-30683000D01*
X31556250Y-30683000D01*
X31715000Y-30524250D01*
X31715000Y-30283690D01*
X31618327Y-30050301D01*
X31439698Y-29871673D01*
X31206309Y-29775000D01*
X30915750Y-29775000D01*
X30757000Y-29933750D01*
X30503000Y-29933750D01*
X30344250Y-29775000D01*
X30053691Y-29775000D01*
X29820302Y-29871673D01*
X29641673Y-30050301D01*
X29545000Y-30283690D01*
X29390000Y-30283690D01*
X29390000Y-29704846D01*
X29404888Y-29629999D01*
X29390000Y-29555152D01*
X29390000Y-29555148D01*
X29345904Y-29333463D01*
X29177929Y-29082071D01*
X29114473Y-29039671D01*
X26990331Y-26915530D01*
X26947929Y-26852071D01*
X26696537Y-26684096D01*
X26474852Y-26640000D01*
X26474847Y-26640000D01*
X26400000Y-26625112D01*
X26325153Y-26640000D01*
X25783916Y-26640000D01*
X25708247Y-26526753D01*
X25421152Y-26334922D01*
X25082500Y-26267560D01*
X24507500Y-26267560D01*
X24168848Y-26334922D01*
X23920000Y-26501197D01*
X23671152Y-26334922D01*
X23332500Y-26267560D01*
X22842362Y-26267560D01*
X22635000Y-26060198D01*
X22635000Y-25894126D01*
X22477431Y-25513720D01*
X22186280Y-25222569D01*
X21805874Y-25065000D01*
X21394126Y-25065000D01*
X21349980Y-25083286D01*
X21387929Y-25057929D01*
X21555904Y-24806537D01*
X21600000Y-24584852D01*
X21600000Y-24584847D01*
X21614888Y-24510000D01*
X21600000Y-24435153D01*
X21600000Y-22554909D01*
X21766153Y-22486086D01*
X22226086Y-22026153D01*
X22475000Y-21425222D01*
X22475000Y-20774778D01*
X23705000Y-20774778D01*
X23705000Y-21425222D01*
X23953914Y-22026153D01*
X24413847Y-22486086D01*
X25014778Y-22735000D01*
X25665222Y-22735000D01*
X26266153Y-22486086D01*
X26726086Y-22026153D01*
X26975000Y-21425222D01*
X26975000Y-20774778D01*
X26726086Y-20173847D01*
X26487989Y-19935750D01*
X31789000Y-19935750D01*
X31789000Y-20626309D01*
X31885673Y-20859698D01*
X32064301Y-21038327D01*
X32297690Y-21135000D01*
X32988250Y-21135000D01*
X33147000Y-20976250D01*
X33147000Y-19777000D01*
X31947750Y-19777000D01*
X31789000Y-19935750D01*
X26487989Y-19935750D01*
X26266153Y-19713914D01*
X25665222Y-19465000D01*
X25014778Y-19465000D01*
X24413847Y-19713914D01*
X23953914Y-20173847D01*
X23705000Y-20774778D01*
X22475000Y-20774778D01*
X22226086Y-20173847D01*
X21766153Y-19713914D01*
X21165222Y-19465000D01*
X20514778Y-19465000D01*
X19913847Y-19713914D01*
X19453914Y-20173847D01*
X19205000Y-20774778D01*
X19205000Y-21425222D01*
X19453914Y-22026153D01*
X19913847Y-22486086D01*
X20080000Y-22554909D01*
X20080001Y-24195197D01*
X16267000Y-28008199D01*
X16267000Y-27662119D01*
X16054320Y-27148663D01*
X15661337Y-26755680D01*
X15470353Y-26676572D01*
X15601143Y-26622397D01*
X15670608Y-26380213D01*
X14870000Y-25579605D01*
X14855858Y-25593748D01*
X14676253Y-25414143D01*
X14690395Y-25400000D01*
X15049605Y-25400000D01*
X15850213Y-26200608D01*
X16092397Y-26131143D01*
X16279144Y-25607698D01*
X16251362Y-25052632D01*
X16092397Y-24668857D01*
X15850213Y-24599392D01*
X15049605Y-25400000D01*
X14690395Y-25400000D01*
X14676253Y-25385858D01*
X14855858Y-25206253D01*
X14870000Y-25220395D01*
X15670608Y-24419787D01*
X15601143Y-24177603D01*
X15460607Y-24127465D01*
X15661337Y-24044320D01*
X16054320Y-23651337D01*
X16267000Y-23137881D01*
X16267000Y-22582119D01*
X16054320Y-22068663D01*
X15661337Y-21675680D01*
X15147881Y-21463000D01*
X14592119Y-21463000D01*
X14078663Y-21675680D01*
X13985000Y-21769343D01*
X13985000Y-18673691D01*
X31789000Y-18673691D01*
X31789000Y-19364250D01*
X31947750Y-19523000D01*
X33147000Y-19523000D01*
X33147000Y-18323750D01*
X33401000Y-18323750D01*
X33401000Y-19523000D01*
X33421000Y-19523000D01*
X33421000Y-19777000D01*
X33401000Y-19777000D01*
X33401000Y-20976250D01*
X33559750Y-21135000D01*
X34250310Y-21135000D01*
X34483699Y-21038327D01*
X34662327Y-20859698D01*
X34728904Y-20698967D01*
X34743375Y-20720625D01*
X35234582Y-21048839D01*
X35667744Y-21135000D01*
X35960256Y-21135000D01*
X36393418Y-21048839D01*
X36884625Y-20720625D01*
X37212839Y-20229418D01*
X37328092Y-19650000D01*
X37212839Y-19070582D01*
X36884625Y-18579375D01*
X36393418Y-18251161D01*
X35960256Y-18165000D01*
X35667744Y-18165000D01*
X35234582Y-18251161D01*
X34743375Y-18579375D01*
X34728904Y-18601033D01*
X34662327Y-18440302D01*
X34483699Y-18261673D01*
X34250310Y-18165000D01*
X33559750Y-18165000D01*
X33401000Y-18323750D01*
X33147000Y-18323750D01*
X32988250Y-18165000D01*
X32297690Y-18165000D01*
X32064301Y-18261673D01*
X31885673Y-18440302D01*
X31789000Y-18673691D01*
X13985000Y-18673691D01*
X13985000Y-15877706D01*
X14245259Y-16506026D01*
X14873974Y-17134741D01*
X15695431Y-17475000D01*
X16584569Y-17475000D01*
X17406026Y-17134741D01*
X18034741Y-16506026D01*
X18375000Y-15684569D01*
X18375000Y-14795431D01*
X18034741Y-13973974D01*
X17406026Y-13345259D01*
X16777706Y-13085000D01*
X20225073Y-13085000D01*
X19913847Y-13213914D01*
X19913847Y-13213914D01*
G37*
X19913847Y-13213914D02*
X19453914Y-13673847D01*
X19205000Y-14274778D01*
X19205000Y-14925222D01*
X19453914Y-15526153D01*
X19913847Y-15986086D01*
X20514778Y-16235000D01*
X21165222Y-16235000D01*
X21766153Y-15986086D01*
X22226086Y-15526153D01*
X22475000Y-14925222D01*
X22475000Y-14274778D01*
X22226086Y-13673847D01*
X21766153Y-13213914D01*
X21454927Y-13085000D01*
X24725073Y-13085000D01*
X24413847Y-13213914D01*
X23953914Y-13673847D01*
X23705000Y-14274778D01*
X23705000Y-14925222D01*
X23953914Y-15526153D01*
X24413847Y-15986086D01*
X25014778Y-16235000D01*
X25665222Y-16235000D01*
X26266153Y-15986086D01*
X26726086Y-15526153D01*
X26975000Y-14925222D01*
X26975000Y-14274778D01*
X26726086Y-13673847D01*
X26266153Y-13213914D01*
X25954927Y-13085000D01*
X40902294Y-13085000D01*
X40273974Y-13345259D01*
X39645259Y-13973974D01*
X39305000Y-14795431D01*
X39305000Y-15684569D01*
X39645259Y-16506026D01*
X40273974Y-17134741D01*
X41095431Y-17475000D01*
X41984569Y-17475000D01*
X42806026Y-17134741D01*
X43434741Y-16506026D01*
X43715000Y-15829422D01*
X43715000Y-21789343D01*
X43601337Y-21675680D01*
X43087881Y-21463000D01*
X42532119Y-21463000D01*
X42018663Y-21675680D01*
X41625680Y-22068663D01*
X41413000Y-22582119D01*
X41413000Y-23137881D01*
X41625680Y-23651337D01*
X42018663Y-24044320D01*
X42225513Y-24130000D01*
X42018663Y-24215680D01*
X41625680Y-24608663D01*
X41413000Y-25122119D01*
X41413000Y-25677881D01*
X41625680Y-26191337D01*
X42018663Y-26584320D01*
X42225513Y-26670000D01*
X42018663Y-26755680D01*
X41625680Y-27148663D01*
X41413000Y-27662119D01*
X41413000Y-28217881D01*
X41625680Y-28731337D01*
X42018663Y-29124320D01*
X42225513Y-29210000D01*
X42018663Y-29295680D01*
X41625680Y-29688663D01*
X41413000Y-30202119D01*
X41413000Y-30757881D01*
X41625680Y-31271337D01*
X42018663Y-31664320D01*
X42225513Y-31750000D01*
X42018663Y-31835680D01*
X41625680Y-32228663D01*
X41413000Y-32742119D01*
X41413000Y-33297881D01*
X41625680Y-33811337D01*
X42018663Y-34204320D01*
X42225513Y-34290000D01*
X42018663Y-34375680D01*
X41774343Y-34620000D01*
X36895867Y-34620000D01*
X36889161Y-34586287D01*
X36694718Y-34295282D01*
X36651001Y-34266071D01*
X36669698Y-34258327D01*
X36848327Y-34079699D01*
X36945000Y-33846310D01*
X36945000Y-33305750D01*
X36786250Y-33147000D01*
X35862000Y-33147000D01*
X35862000Y-33167000D01*
X35608000Y-33167000D01*
X35608000Y-33147000D01*
X35588000Y-33147000D01*
X35588000Y-32893000D01*
X35608000Y-32893000D01*
X35608000Y-31843750D01*
X35862000Y-31843750D01*
X35862000Y-32893000D01*
X36786250Y-32893000D01*
X36945000Y-32734250D01*
X36945000Y-32193690D01*
X36848327Y-31960301D01*
X36669698Y-31781673D01*
X36436309Y-31685000D01*
X36020750Y-31685000D01*
X35862000Y-31843750D01*
X35608000Y-31843750D01*
X35449250Y-31685000D01*
X35033691Y-31685000D01*
X34800302Y-31781673D01*
X34645509Y-31936465D01*
X34644718Y-31935282D01*
X34353713Y-31740839D01*
X34010450Y-31672560D01*
X33359550Y-31672560D01*
X33016287Y-31740839D01*
X32725282Y-31935282D01*
X32530839Y-32226287D01*
X32524133Y-32260000D01*
X31717494Y-32260000D01*
X31678157Y-32062235D01*
X31537809Y-31852191D01*
X31404306Y-31762987D01*
X31439698Y-31748327D01*
X31618327Y-31569699D01*
X31715000Y-31336310D01*
X31715000Y-31095750D01*
X31556250Y-30937000D01*
X30757000Y-30937000D01*
X30757000Y-30957000D01*
X30503000Y-30957000D01*
X30503000Y-30937000D01*
X29703750Y-30937000D01*
X29618219Y-31022531D01*
X29537809Y-30902191D01*
X29390000Y-30803427D01*
X29390000Y-30283690D01*
X29545000Y-30283690D01*
X29545000Y-30524250D01*
X29703750Y-30683000D01*
X30503000Y-30683000D01*
X30503000Y-29933750D01*
X30757000Y-29933750D01*
X30757000Y-30683000D01*
X31556250Y-30683000D01*
X31715000Y-30524250D01*
X31715000Y-30283690D01*
X31618327Y-30050301D01*
X31439698Y-29871673D01*
X31206309Y-29775000D01*
X30915750Y-29775000D01*
X30757000Y-29933750D01*
X30503000Y-29933750D01*
X30344250Y-29775000D01*
X30053691Y-29775000D01*
X29820302Y-29871673D01*
X29641673Y-30050301D01*
X29545000Y-30283690D01*
X29390000Y-30283690D01*
X29390000Y-29704846D01*
X29404888Y-29629999D01*
X29390000Y-29555152D01*
X29390000Y-29555148D01*
X29345904Y-29333463D01*
X29177929Y-29082071D01*
X29114473Y-29039671D01*
X26990331Y-26915530D01*
X26947929Y-26852071D01*
X26696537Y-26684096D01*
X26474852Y-26640000D01*
X26474847Y-26640000D01*
X26400000Y-26625112D01*
X26325153Y-26640000D01*
X25783916Y-26640000D01*
X25708247Y-26526753D01*
X25421152Y-26334922D01*
X25082500Y-26267560D01*
X24507500Y-26267560D01*
X24168848Y-26334922D01*
X23920000Y-26501197D01*
X23671152Y-26334922D01*
X23332500Y-26267560D01*
X22842362Y-26267560D01*
X22635000Y-26060198D01*
X22635000Y-25894126D01*
X22477431Y-25513720D01*
X22186280Y-25222569D01*
X21805874Y-25065000D01*
X21394126Y-25065000D01*
X21349980Y-25083286D01*
X21387929Y-25057929D01*
X21555904Y-24806537D01*
X21600000Y-24584852D01*
X21600000Y-24584847D01*
X21614888Y-24510000D01*
X21600000Y-24435153D01*
X21600000Y-22554909D01*
X21766153Y-22486086D01*
X22226086Y-22026153D01*
X22475000Y-21425222D01*
X22475000Y-20774778D01*
X23705000Y-20774778D01*
X23705000Y-21425222D01*
X23953914Y-22026153D01*
X24413847Y-22486086D01*
X25014778Y-22735000D01*
X25665222Y-22735000D01*
X26266153Y-22486086D01*
X26726086Y-22026153D01*
X26975000Y-21425222D01*
X26975000Y-20774778D01*
X26726086Y-20173847D01*
X26487989Y-19935750D01*
X31789000Y-19935750D01*
X31789000Y-20626309D01*
X31885673Y-20859698D01*
X32064301Y-21038327D01*
X32297690Y-21135000D01*
X32988250Y-21135000D01*
X33147000Y-20976250D01*
X33147000Y-19777000D01*
X31947750Y-19777000D01*
X31789000Y-19935750D01*
X26487989Y-19935750D01*
X26266153Y-19713914D01*
X25665222Y-19465000D01*
X25014778Y-19465000D01*
X24413847Y-19713914D01*
X23953914Y-20173847D01*
X23705000Y-20774778D01*
X22475000Y-20774778D01*
X22226086Y-20173847D01*
X21766153Y-19713914D01*
X21165222Y-19465000D01*
X20514778Y-19465000D01*
X19913847Y-19713914D01*
X19453914Y-20173847D01*
X19205000Y-20774778D01*
X19205000Y-21425222D01*
X19453914Y-22026153D01*
X19913847Y-22486086D01*
X20080000Y-22554909D01*
X20080001Y-24195197D01*
X16267000Y-28008199D01*
X16267000Y-27662119D01*
X16054320Y-27148663D01*
X15661337Y-26755680D01*
X15470353Y-26676572D01*
X15601143Y-26622397D01*
X15670608Y-26380213D01*
X14870000Y-25579605D01*
X14855858Y-25593748D01*
X14676253Y-25414143D01*
X14690395Y-25400000D01*
X15049605Y-25400000D01*
X15850213Y-26200608D01*
X16092397Y-26131143D01*
X16279144Y-25607698D01*
X16251362Y-25052632D01*
X16092397Y-24668857D01*
X15850213Y-24599392D01*
X15049605Y-25400000D01*
X14690395Y-25400000D01*
X14676253Y-25385858D01*
X14855858Y-25206253D01*
X14870000Y-25220395D01*
X15670608Y-24419787D01*
X15601143Y-24177603D01*
X15460607Y-24127465D01*
X15661337Y-24044320D01*
X16054320Y-23651337D01*
X16267000Y-23137881D01*
X16267000Y-22582119D01*
X16054320Y-22068663D01*
X15661337Y-21675680D01*
X15147881Y-21463000D01*
X14592119Y-21463000D01*
X14078663Y-21675680D01*
X13985000Y-21769343D01*
X13985000Y-18673691D01*
X31789000Y-18673691D01*
X31789000Y-19364250D01*
X31947750Y-19523000D01*
X33147000Y-19523000D01*
X33147000Y-18323750D01*
X33401000Y-18323750D01*
X33401000Y-19523000D01*
X33421000Y-19523000D01*
X33421000Y-19777000D01*
X33401000Y-19777000D01*
X33401000Y-20976250D01*
X33559750Y-21135000D01*
X34250310Y-21135000D01*
X34483699Y-21038327D01*
X34662327Y-20859698D01*
X34728904Y-20698967D01*
X34743375Y-20720625D01*
X35234582Y-21048839D01*
X35667744Y-21135000D01*
X35960256Y-21135000D01*
X36393418Y-21048839D01*
X36884625Y-20720625D01*
X37212839Y-20229418D01*
X37328092Y-19650000D01*
X37212839Y-19070582D01*
X36884625Y-18579375D01*
X36393418Y-18251161D01*
X35960256Y-18165000D01*
X35667744Y-18165000D01*
X35234582Y-18251161D01*
X34743375Y-18579375D01*
X34728904Y-18601033D01*
X34662327Y-18440302D01*
X34483699Y-18261673D01*
X34250310Y-18165000D01*
X33559750Y-18165000D01*
X33401000Y-18323750D01*
X33147000Y-18323750D01*
X32988250Y-18165000D01*
X32297690Y-18165000D01*
X32064301Y-18261673D01*
X31885673Y-18440302D01*
X31789000Y-18673691D01*
X13985000Y-18673691D01*
X13985000Y-15877706D01*
X14245259Y-16506026D01*
X14873974Y-17134741D01*
X15695431Y-17475000D01*
X16584569Y-17475000D01*
X17406026Y-17134741D01*
X18034741Y-16506026D01*
X18375000Y-15684569D01*
X18375000Y-14795431D01*
X18034741Y-13973974D01*
X17406026Y-13345259D01*
X16777706Y-13085000D01*
X20225073Y-13085000D01*
X19913847Y-13213914D01*
G04 #@! TD*
M02*
