G04 #@! TF.GenerationSoftware,KiCad,Pcbnew,(5.0.2)-1*
G04 #@! TF.CreationDate,2019-06-21T16:27:59+05:30*
G04 #@! TF.ProjectId,CapacityOfBattery,43617061-6369-4747-994f-664261747465,rev?*
G04 #@! TF.SameCoordinates,Original*
G04 #@! TF.FileFunction,Soldermask,Top*
G04 #@! TF.FilePolarity,Negative*
%FSLAX46Y46*%
G04 Gerber Fmt 4.6, Leading zero omitted, Abs format (unit mm)*
G04 Created by KiCad (PCBNEW (5.0.2)-1) date 06/21/19 16:27:59*
%MOMM*%
%LPD*%
G01*
G04 APERTURE LIST*
%ADD10C,0.100000*%
G04 APERTURE END LIST*
D10*
G36*
X42006703Y-65771486D02*
X42297883Y-65892097D01*
X42559944Y-66067201D01*
X42782799Y-66290056D01*
X42957903Y-66552117D01*
X43078514Y-66843297D01*
X43140000Y-67152412D01*
X43140000Y-67467588D01*
X43078514Y-67776703D01*
X42957903Y-68067883D01*
X42782799Y-68329944D01*
X42559944Y-68552799D01*
X42297883Y-68727903D01*
X42006703Y-68848514D01*
X41697588Y-68910000D01*
X41382412Y-68910000D01*
X41073297Y-68848514D01*
X40782117Y-68727903D01*
X40520056Y-68552799D01*
X40297201Y-68329944D01*
X40122097Y-68067883D01*
X40001486Y-67776703D01*
X39940000Y-67467588D01*
X39940000Y-67152412D01*
X40001486Y-66843297D01*
X40122097Y-66552117D01*
X40297201Y-66290056D01*
X40520056Y-66067201D01*
X40782117Y-65892097D01*
X41073297Y-65771486D01*
X41382412Y-65710000D01*
X41697588Y-65710000D01*
X42006703Y-65771486D01*
X42006703Y-65771486D01*
G37*
G36*
X16606703Y-65771486D02*
X16897883Y-65892097D01*
X17159944Y-66067201D01*
X17382799Y-66290056D01*
X17557903Y-66552117D01*
X17678514Y-66843297D01*
X17740000Y-67152412D01*
X17740000Y-67467588D01*
X17678514Y-67776703D01*
X17557903Y-68067883D01*
X17382799Y-68329944D01*
X17159944Y-68552799D01*
X16897883Y-68727903D01*
X16606703Y-68848514D01*
X16297588Y-68910000D01*
X15982412Y-68910000D01*
X15673297Y-68848514D01*
X15382117Y-68727903D01*
X15120056Y-68552799D01*
X14897201Y-68329944D01*
X14722097Y-68067883D01*
X14601486Y-67776703D01*
X14540000Y-67467588D01*
X14540000Y-67152412D01*
X14601486Y-66843297D01*
X14722097Y-66552117D01*
X14897201Y-66290056D01*
X15120056Y-66067201D01*
X15382117Y-65892097D01*
X15673297Y-65771486D01*
X15982412Y-65710000D01*
X16297588Y-65710000D01*
X16606703Y-65771486D01*
X16606703Y-65771486D01*
G37*
G36*
X42983195Y-57677522D02*
X43032267Y-57687283D01*
X43170942Y-57744724D01*
X43295750Y-57828118D01*
X43401882Y-57934250D01*
X43485276Y-58059058D01*
X43542717Y-58197734D01*
X43572000Y-58344948D01*
X43572000Y-58495052D01*
X43542717Y-58642266D01*
X43485276Y-58780942D01*
X43401882Y-58905750D01*
X43295750Y-59011882D01*
X43295747Y-59011884D01*
X43170942Y-59095276D01*
X43032267Y-59152717D01*
X42983195Y-59162478D01*
X42885052Y-59182000D01*
X42734948Y-59182000D01*
X42636805Y-59162478D01*
X42587733Y-59152717D01*
X42449058Y-59095276D01*
X42324253Y-59011884D01*
X42324250Y-59011882D01*
X42218118Y-58905750D01*
X42134724Y-58780942D01*
X42077283Y-58642266D01*
X42048000Y-58495052D01*
X42048000Y-58344948D01*
X42077283Y-58197734D01*
X42134724Y-58059058D01*
X42218118Y-57934250D01*
X42324250Y-57828118D01*
X42449058Y-57744724D01*
X42587733Y-57687283D01*
X42636805Y-57677522D01*
X42734948Y-57658000D01*
X42885052Y-57658000D01*
X42983195Y-57677522D01*
X42983195Y-57677522D01*
G37*
G36*
X15043195Y-57677522D02*
X15092267Y-57687283D01*
X15230942Y-57744724D01*
X15355750Y-57828118D01*
X15461882Y-57934250D01*
X15545276Y-58059058D01*
X15602717Y-58197734D01*
X15632000Y-58344948D01*
X15632000Y-58495052D01*
X15602717Y-58642266D01*
X15545276Y-58780942D01*
X15461882Y-58905750D01*
X15355750Y-59011882D01*
X15355747Y-59011884D01*
X15230942Y-59095276D01*
X15092267Y-59152717D01*
X15043195Y-59162478D01*
X14945052Y-59182000D01*
X14794948Y-59182000D01*
X14696805Y-59162478D01*
X14647733Y-59152717D01*
X14509058Y-59095276D01*
X14384253Y-59011884D01*
X14384250Y-59011882D01*
X14278118Y-58905750D01*
X14194724Y-58780942D01*
X14137283Y-58642266D01*
X14108000Y-58495052D01*
X14108000Y-58344948D01*
X14137283Y-58197734D01*
X14194724Y-58059058D01*
X14278118Y-57934250D01*
X14384250Y-57828118D01*
X14509058Y-57744724D01*
X14647733Y-57687283D01*
X14696805Y-57677522D01*
X14794948Y-57658000D01*
X14945052Y-57658000D01*
X15043195Y-57677522D01*
X15043195Y-57677522D01*
G37*
G36*
X42983195Y-55137522D02*
X43032267Y-55147283D01*
X43170942Y-55204724D01*
X43295750Y-55288118D01*
X43401882Y-55394250D01*
X43485276Y-55519058D01*
X43542717Y-55657734D01*
X43572000Y-55804948D01*
X43572000Y-55955052D01*
X43542717Y-56102266D01*
X43485276Y-56240942D01*
X43401882Y-56365750D01*
X43295750Y-56471882D01*
X43295747Y-56471884D01*
X43170942Y-56555276D01*
X43032267Y-56612717D01*
X42983195Y-56622478D01*
X42885052Y-56642000D01*
X42734948Y-56642000D01*
X42636805Y-56622478D01*
X42587733Y-56612717D01*
X42449058Y-56555276D01*
X42324253Y-56471884D01*
X42324250Y-56471882D01*
X42218118Y-56365750D01*
X42134724Y-56240942D01*
X42077283Y-56102266D01*
X42048000Y-55955052D01*
X42048000Y-55804948D01*
X42077283Y-55657734D01*
X42134724Y-55519058D01*
X42218118Y-55394250D01*
X42324250Y-55288118D01*
X42449058Y-55204724D01*
X42587733Y-55147283D01*
X42636805Y-55137522D01*
X42734948Y-55118000D01*
X42885052Y-55118000D01*
X42983195Y-55137522D01*
X42983195Y-55137522D01*
G37*
G36*
X15043195Y-55137522D02*
X15092267Y-55147283D01*
X15230942Y-55204724D01*
X15355750Y-55288118D01*
X15461882Y-55394250D01*
X15545276Y-55519058D01*
X15602717Y-55657734D01*
X15632000Y-55804948D01*
X15632000Y-55955052D01*
X15602717Y-56102266D01*
X15545276Y-56240942D01*
X15461882Y-56365750D01*
X15355750Y-56471882D01*
X15355747Y-56471884D01*
X15230942Y-56555276D01*
X15092267Y-56612717D01*
X15043195Y-56622478D01*
X14945052Y-56642000D01*
X14794948Y-56642000D01*
X14696805Y-56622478D01*
X14647733Y-56612717D01*
X14509058Y-56555276D01*
X14384253Y-56471884D01*
X14384250Y-56471882D01*
X14278118Y-56365750D01*
X14194724Y-56240942D01*
X14137283Y-56102266D01*
X14108000Y-55955052D01*
X14108000Y-55804948D01*
X14137283Y-55657734D01*
X14194724Y-55519058D01*
X14278118Y-55394250D01*
X14384250Y-55288118D01*
X14509058Y-55204724D01*
X14647733Y-55147283D01*
X14696805Y-55137522D01*
X14794948Y-55118000D01*
X14945052Y-55118000D01*
X15043195Y-55137522D01*
X15043195Y-55137522D01*
G37*
G36*
X42983195Y-52597522D02*
X43032267Y-52607283D01*
X43154571Y-52657943D01*
X43170942Y-52664724D01*
X43295750Y-52748118D01*
X43401882Y-52854250D01*
X43485276Y-52979058D01*
X43542717Y-53117734D01*
X43572000Y-53264948D01*
X43572000Y-53415052D01*
X43542717Y-53562266D01*
X43485276Y-53700942D01*
X43401882Y-53825750D01*
X43295750Y-53931882D01*
X43295747Y-53931884D01*
X43170942Y-54015276D01*
X43032267Y-54072717D01*
X42983195Y-54082478D01*
X42885052Y-54102000D01*
X42734948Y-54102000D01*
X42636805Y-54082478D01*
X42587733Y-54072717D01*
X42449058Y-54015276D01*
X42324253Y-53931884D01*
X42324250Y-53931882D01*
X42218118Y-53825750D01*
X42134724Y-53700942D01*
X42077283Y-53562266D01*
X42048000Y-53415052D01*
X42048000Y-53264948D01*
X42077283Y-53117734D01*
X42134724Y-52979058D01*
X42218118Y-52854250D01*
X42324250Y-52748118D01*
X42449058Y-52664724D01*
X42465429Y-52657943D01*
X42587733Y-52607283D01*
X42636805Y-52597522D01*
X42734948Y-52578000D01*
X42885052Y-52578000D01*
X42983195Y-52597522D01*
X42983195Y-52597522D01*
G37*
G36*
X15043195Y-52597522D02*
X15092267Y-52607283D01*
X15214571Y-52657943D01*
X15230942Y-52664724D01*
X15355750Y-52748118D01*
X15461882Y-52854250D01*
X15545276Y-52979058D01*
X15602717Y-53117734D01*
X15632000Y-53264948D01*
X15632000Y-53415052D01*
X15602717Y-53562266D01*
X15545276Y-53700942D01*
X15461882Y-53825750D01*
X15355750Y-53931882D01*
X15355747Y-53931884D01*
X15230942Y-54015276D01*
X15092267Y-54072717D01*
X15043195Y-54082478D01*
X14945052Y-54102000D01*
X14794948Y-54102000D01*
X14696805Y-54082478D01*
X14647733Y-54072717D01*
X14509058Y-54015276D01*
X14384253Y-53931884D01*
X14384250Y-53931882D01*
X14278118Y-53825750D01*
X14194724Y-53700942D01*
X14137283Y-53562266D01*
X14108000Y-53415052D01*
X14108000Y-53264948D01*
X14137283Y-53117734D01*
X14194724Y-52979058D01*
X14278118Y-52854250D01*
X14384250Y-52748118D01*
X14509058Y-52664724D01*
X14525429Y-52657943D01*
X14647733Y-52607283D01*
X14696805Y-52597522D01*
X14794948Y-52578000D01*
X14945052Y-52578000D01*
X15043195Y-52597522D01*
X15043195Y-52597522D01*
G37*
G36*
X30800000Y-53420000D02*
X29900000Y-53420000D01*
X29900000Y-52620000D01*
X30800000Y-52620000D01*
X30800000Y-53420000D01*
X30800000Y-53420000D01*
G37*
G36*
X23725960Y-51304028D02*
X23759396Y-51314170D01*
X23790199Y-51330636D01*
X23817203Y-51352797D01*
X23839364Y-51379801D01*
X23855830Y-51410604D01*
X23865972Y-51444040D01*
X23870000Y-51484938D01*
X23870000Y-52515062D01*
X23865972Y-52555960D01*
X23855830Y-52589396D01*
X23839364Y-52620199D01*
X23817203Y-52647203D01*
X23790199Y-52669364D01*
X23759396Y-52685830D01*
X23725960Y-52695972D01*
X23685062Y-52700000D01*
X22904938Y-52700000D01*
X22864040Y-52695972D01*
X22830604Y-52685830D01*
X22799801Y-52669364D01*
X22772797Y-52647203D01*
X22750636Y-52620199D01*
X22734170Y-52589396D01*
X22724028Y-52555960D01*
X22720000Y-52515062D01*
X22720000Y-51484938D01*
X22724028Y-51444040D01*
X22734170Y-51410604D01*
X22750636Y-51379801D01*
X22772797Y-51352797D01*
X22799801Y-51330636D01*
X22830604Y-51314170D01*
X22864040Y-51304028D01*
X22904938Y-51300000D01*
X23685062Y-51300000D01*
X23725960Y-51304028D01*
X23725960Y-51304028D01*
G37*
G36*
X25775960Y-51304028D02*
X25809396Y-51314170D01*
X25840199Y-51330636D01*
X25867203Y-51352797D01*
X25889364Y-51379801D01*
X25905830Y-51410604D01*
X25915972Y-51444040D01*
X25920000Y-51484938D01*
X25920000Y-52515062D01*
X25915972Y-52555960D01*
X25905830Y-52589396D01*
X25889364Y-52620199D01*
X25867203Y-52647203D01*
X25840199Y-52669364D01*
X25809396Y-52685830D01*
X25775960Y-52695972D01*
X25735062Y-52700000D01*
X24954938Y-52700000D01*
X24914040Y-52695972D01*
X24880604Y-52685830D01*
X24849801Y-52669364D01*
X24822797Y-52647203D01*
X24800636Y-52620199D01*
X24784170Y-52589396D01*
X24774028Y-52555960D01*
X24770000Y-52515062D01*
X24770000Y-51484938D01*
X24774028Y-51444040D01*
X24784170Y-51410604D01*
X24800636Y-51379801D01*
X24822797Y-51352797D01*
X24849801Y-51330636D01*
X24880604Y-51314170D01*
X24914040Y-51304028D01*
X24954938Y-51300000D01*
X25735062Y-51300000D01*
X25775960Y-51304028D01*
X25775960Y-51304028D01*
G37*
G36*
X28800000Y-52470000D02*
X27900000Y-52470000D01*
X27900000Y-51670000D01*
X28800000Y-51670000D01*
X28800000Y-52470000D01*
X28800000Y-52470000D01*
G37*
G36*
X15043195Y-50057522D02*
X15092267Y-50067283D01*
X15230942Y-50124724D01*
X15355750Y-50208118D01*
X15461882Y-50314250D01*
X15545276Y-50439058D01*
X15602717Y-50577734D01*
X15632000Y-50724948D01*
X15632000Y-50875052D01*
X15602717Y-51022266D01*
X15545276Y-51160942D01*
X15461882Y-51285750D01*
X15355750Y-51391882D01*
X15355747Y-51391884D01*
X15230942Y-51475276D01*
X15092267Y-51532717D01*
X15043195Y-51542478D01*
X14945052Y-51562000D01*
X14794948Y-51562000D01*
X14696805Y-51542478D01*
X14647733Y-51532717D01*
X14509058Y-51475276D01*
X14384253Y-51391884D01*
X14384250Y-51391882D01*
X14278118Y-51285750D01*
X14194724Y-51160942D01*
X14137283Y-51022266D01*
X14108000Y-50875052D01*
X14108000Y-50724948D01*
X14137283Y-50577734D01*
X14194724Y-50439058D01*
X14278118Y-50314250D01*
X14384250Y-50208118D01*
X14509058Y-50124724D01*
X14647733Y-50067283D01*
X14696805Y-50057522D01*
X14794948Y-50038000D01*
X14945052Y-50038000D01*
X15043195Y-50057522D01*
X15043195Y-50057522D01*
G37*
G36*
X42983195Y-50057522D02*
X43032267Y-50067283D01*
X43170942Y-50124724D01*
X43295750Y-50208118D01*
X43401882Y-50314250D01*
X43485276Y-50439058D01*
X43542717Y-50577734D01*
X43572000Y-50724948D01*
X43572000Y-50875052D01*
X43542717Y-51022266D01*
X43485276Y-51160942D01*
X43401882Y-51285750D01*
X43295750Y-51391882D01*
X43295747Y-51391884D01*
X43170942Y-51475276D01*
X43032267Y-51532717D01*
X42983195Y-51542478D01*
X42885052Y-51562000D01*
X42734948Y-51562000D01*
X42636805Y-51542478D01*
X42587733Y-51532717D01*
X42449058Y-51475276D01*
X42324253Y-51391884D01*
X42324250Y-51391882D01*
X42218118Y-51285750D01*
X42134724Y-51160942D01*
X42077283Y-51022266D01*
X42048000Y-50875052D01*
X42048000Y-50724948D01*
X42077283Y-50577734D01*
X42134724Y-50439058D01*
X42218118Y-50314250D01*
X42324250Y-50208118D01*
X42449058Y-50124724D01*
X42587733Y-50067283D01*
X42636805Y-50057522D01*
X42734948Y-50038000D01*
X42885052Y-50038000D01*
X42983195Y-50057522D01*
X42983195Y-50057522D01*
G37*
G36*
X30800000Y-51520000D02*
X29900000Y-51520000D01*
X29900000Y-50720000D01*
X30800000Y-50720000D01*
X30800000Y-51520000D01*
X30800000Y-51520000D01*
G37*
G36*
X23725960Y-49004028D02*
X23759396Y-49014170D01*
X23790199Y-49030636D01*
X23817203Y-49052797D01*
X23839364Y-49079801D01*
X23855830Y-49110604D01*
X23865972Y-49144040D01*
X23870000Y-49184938D01*
X23870000Y-50215062D01*
X23865972Y-50255960D01*
X23855830Y-50289396D01*
X23839364Y-50320199D01*
X23817203Y-50347203D01*
X23790199Y-50369364D01*
X23759396Y-50385830D01*
X23725960Y-50395972D01*
X23685062Y-50400000D01*
X22904938Y-50400000D01*
X22864040Y-50395972D01*
X22830604Y-50385830D01*
X22799801Y-50369364D01*
X22772797Y-50347203D01*
X22750636Y-50320199D01*
X22734170Y-50289396D01*
X22724028Y-50255960D01*
X22720000Y-50215062D01*
X22720000Y-49184938D01*
X22724028Y-49144040D01*
X22734170Y-49110604D01*
X22750636Y-49079801D01*
X22772797Y-49052797D01*
X22799801Y-49030636D01*
X22830604Y-49014170D01*
X22864040Y-49004028D01*
X22904938Y-49000000D01*
X23685062Y-49000000D01*
X23725960Y-49004028D01*
X23725960Y-49004028D01*
G37*
G36*
X25775960Y-49004028D02*
X25809396Y-49014170D01*
X25840199Y-49030636D01*
X25867203Y-49052797D01*
X25889364Y-49079801D01*
X25905830Y-49110604D01*
X25915972Y-49144040D01*
X25920000Y-49184938D01*
X25920000Y-50215062D01*
X25915972Y-50255960D01*
X25905830Y-50289396D01*
X25889364Y-50320199D01*
X25867203Y-50347203D01*
X25840199Y-50369364D01*
X25809396Y-50385830D01*
X25775960Y-50395972D01*
X25735062Y-50400000D01*
X24954938Y-50400000D01*
X24914040Y-50395972D01*
X24880604Y-50385830D01*
X24849801Y-50369364D01*
X24822797Y-50347203D01*
X24800636Y-50320199D01*
X24784170Y-50289396D01*
X24774028Y-50255960D01*
X24770000Y-50215062D01*
X24770000Y-49184938D01*
X24774028Y-49144040D01*
X24784170Y-49110604D01*
X24800636Y-49079801D01*
X24822797Y-49052797D01*
X24849801Y-49030636D01*
X24880604Y-49014170D01*
X24914040Y-49004028D01*
X24954938Y-49000000D01*
X25735062Y-49000000D01*
X25775960Y-49004028D01*
X25775960Y-49004028D01*
G37*
G36*
X42983195Y-47517522D02*
X43032267Y-47527283D01*
X43170942Y-47584724D01*
X43295750Y-47668118D01*
X43401882Y-47774250D01*
X43401884Y-47774253D01*
X43485276Y-47899058D01*
X43539514Y-48030000D01*
X43542717Y-48037734D01*
X43572000Y-48184948D01*
X43572000Y-48335052D01*
X43542717Y-48482266D01*
X43485276Y-48620942D01*
X43401882Y-48745750D01*
X43295750Y-48851882D01*
X43295747Y-48851884D01*
X43170942Y-48935276D01*
X43032267Y-48992717D01*
X42983195Y-49002478D01*
X42885052Y-49022000D01*
X42734948Y-49022000D01*
X42636805Y-49002478D01*
X42587733Y-48992717D01*
X42449058Y-48935276D01*
X42324253Y-48851884D01*
X42324250Y-48851882D01*
X42218118Y-48745750D01*
X42134724Y-48620942D01*
X42077283Y-48482266D01*
X42048000Y-48335052D01*
X42048000Y-48184948D01*
X42077283Y-48037734D01*
X42080487Y-48030000D01*
X42134724Y-47899058D01*
X42218116Y-47774253D01*
X42218118Y-47774250D01*
X42324250Y-47668118D01*
X42449058Y-47584724D01*
X42587733Y-47527283D01*
X42636805Y-47517522D01*
X42734948Y-47498000D01*
X42885052Y-47498000D01*
X42983195Y-47517522D01*
X42983195Y-47517522D01*
G37*
G36*
X15043195Y-47517522D02*
X15092267Y-47527283D01*
X15230942Y-47584724D01*
X15355750Y-47668118D01*
X15461882Y-47774250D01*
X15461884Y-47774253D01*
X15545276Y-47899058D01*
X15599514Y-48030000D01*
X15602717Y-48037734D01*
X15632000Y-48184948D01*
X15632000Y-48335052D01*
X15602717Y-48482266D01*
X15545276Y-48620942D01*
X15461882Y-48745750D01*
X15355750Y-48851882D01*
X15355747Y-48851884D01*
X15230942Y-48935276D01*
X15092267Y-48992717D01*
X15043195Y-49002478D01*
X14945052Y-49022000D01*
X14794948Y-49022000D01*
X14696805Y-49002478D01*
X14647733Y-48992717D01*
X14509058Y-48935276D01*
X14384253Y-48851884D01*
X14384250Y-48851882D01*
X14278118Y-48745750D01*
X14194724Y-48620942D01*
X14137283Y-48482266D01*
X14108000Y-48335052D01*
X14108000Y-48184948D01*
X14137283Y-48037734D01*
X14140487Y-48030000D01*
X14194724Y-47899058D01*
X14278116Y-47774253D01*
X14278118Y-47774250D01*
X14384250Y-47668118D01*
X14509058Y-47584724D01*
X14647733Y-47527283D01*
X14696805Y-47517522D01*
X14794948Y-47498000D01*
X14945052Y-47498000D01*
X15043195Y-47517522D01*
X15043195Y-47517522D01*
G37*
G36*
X30800000Y-48340000D02*
X29900000Y-48340000D01*
X29900000Y-47540000D01*
X30800000Y-47540000D01*
X30800000Y-48340000D01*
X30800000Y-48340000D01*
G37*
G36*
X25785960Y-46634028D02*
X25819396Y-46644170D01*
X25850199Y-46660636D01*
X25877203Y-46682797D01*
X25899364Y-46709801D01*
X25915830Y-46740604D01*
X25925972Y-46774040D01*
X25930000Y-46814938D01*
X25930000Y-47845062D01*
X25925972Y-47885960D01*
X25915830Y-47919396D01*
X25899364Y-47950199D01*
X25877203Y-47977203D01*
X25850199Y-47999364D01*
X25819396Y-48015830D01*
X25785960Y-48025972D01*
X25745062Y-48030000D01*
X24964938Y-48030000D01*
X24924040Y-48025972D01*
X24890604Y-48015830D01*
X24859801Y-47999364D01*
X24832797Y-47977203D01*
X24810636Y-47950199D01*
X24794170Y-47919396D01*
X24784028Y-47885960D01*
X24780000Y-47845062D01*
X24780000Y-46814938D01*
X24784028Y-46774040D01*
X24794170Y-46740604D01*
X24810636Y-46709801D01*
X24832797Y-46682797D01*
X24859801Y-46660636D01*
X24890604Y-46644170D01*
X24924040Y-46634028D01*
X24964938Y-46630000D01*
X25745062Y-46630000D01*
X25785960Y-46634028D01*
X25785960Y-46634028D01*
G37*
G36*
X23735960Y-46634028D02*
X23769396Y-46644170D01*
X23800199Y-46660636D01*
X23827203Y-46682797D01*
X23849364Y-46709801D01*
X23865830Y-46740604D01*
X23875972Y-46774040D01*
X23880000Y-46814938D01*
X23880000Y-47845062D01*
X23875972Y-47885960D01*
X23865830Y-47919396D01*
X23849364Y-47950199D01*
X23827203Y-47977203D01*
X23800199Y-47999364D01*
X23769396Y-48015830D01*
X23735960Y-48025972D01*
X23695062Y-48030000D01*
X22914938Y-48030000D01*
X22874040Y-48025972D01*
X22840604Y-48015830D01*
X22809801Y-47999364D01*
X22782797Y-47977203D01*
X22760636Y-47950199D01*
X22744170Y-47919396D01*
X22734028Y-47885960D01*
X22730000Y-47845062D01*
X22730000Y-46814938D01*
X22734028Y-46774040D01*
X22744170Y-46740604D01*
X22760636Y-46709801D01*
X22782797Y-46682797D01*
X22809801Y-46660636D01*
X22840604Y-46644170D01*
X22874040Y-46634028D01*
X22914938Y-46630000D01*
X23695062Y-46630000D01*
X23735960Y-46634028D01*
X23735960Y-46634028D01*
G37*
G36*
X28800000Y-47390000D02*
X27900000Y-47390000D01*
X27900000Y-46590000D01*
X28800000Y-46590000D01*
X28800000Y-47390000D01*
X28800000Y-47390000D01*
G37*
G36*
X15043195Y-44977522D02*
X15092267Y-44987283D01*
X15230942Y-45044724D01*
X15355750Y-45128118D01*
X15461882Y-45234250D01*
X15461884Y-45234253D01*
X15545276Y-45359058D01*
X15602717Y-45497733D01*
X15612478Y-45546805D01*
X15632000Y-45644948D01*
X15632000Y-45795052D01*
X15602717Y-45942266D01*
X15545276Y-46080942D01*
X15461882Y-46205750D01*
X15355750Y-46311882D01*
X15355747Y-46311884D01*
X15230942Y-46395276D01*
X15092267Y-46452717D01*
X15043195Y-46462478D01*
X14945052Y-46482000D01*
X14794948Y-46482000D01*
X14696805Y-46462478D01*
X14647733Y-46452717D01*
X14509058Y-46395276D01*
X14384253Y-46311884D01*
X14384250Y-46311882D01*
X14278118Y-46205750D01*
X14194724Y-46080942D01*
X14137283Y-45942266D01*
X14108000Y-45795052D01*
X14108000Y-45644948D01*
X14127522Y-45546805D01*
X14137283Y-45497733D01*
X14194724Y-45359058D01*
X14278116Y-45234253D01*
X14278118Y-45234250D01*
X14384250Y-45128118D01*
X14509058Y-45044724D01*
X14647733Y-44987283D01*
X14696805Y-44977522D01*
X14794948Y-44958000D01*
X14945052Y-44958000D01*
X15043195Y-44977522D01*
X15043195Y-44977522D01*
G37*
G36*
X42983195Y-44977522D02*
X43032267Y-44987283D01*
X43170942Y-45044724D01*
X43295750Y-45128118D01*
X43401882Y-45234250D01*
X43401884Y-45234253D01*
X43485276Y-45359058D01*
X43542717Y-45497733D01*
X43552478Y-45546805D01*
X43572000Y-45644948D01*
X43572000Y-45795052D01*
X43542717Y-45942266D01*
X43485276Y-46080942D01*
X43401882Y-46205750D01*
X43295750Y-46311882D01*
X43295747Y-46311884D01*
X43170942Y-46395276D01*
X43032267Y-46452717D01*
X42983195Y-46462478D01*
X42885052Y-46482000D01*
X42734948Y-46482000D01*
X42636805Y-46462478D01*
X42587733Y-46452717D01*
X42449058Y-46395276D01*
X42324253Y-46311884D01*
X42324250Y-46311882D01*
X42218118Y-46205750D01*
X42134724Y-46080942D01*
X42077283Y-45942266D01*
X42048000Y-45795052D01*
X42048000Y-45644948D01*
X42067522Y-45546805D01*
X42077283Y-45497733D01*
X42134724Y-45359058D01*
X42218116Y-45234253D01*
X42218118Y-45234250D01*
X42324250Y-45128118D01*
X42449058Y-45044724D01*
X42587733Y-44987283D01*
X42636805Y-44977522D01*
X42734948Y-44958000D01*
X42885052Y-44958000D01*
X42983195Y-44977522D01*
X42983195Y-44977522D01*
G37*
G36*
X30800000Y-46440000D02*
X29900000Y-46440000D01*
X29900000Y-45640000D01*
X30800000Y-45640000D01*
X30800000Y-46440000D01*
X30800000Y-46440000D01*
G37*
G36*
X23735960Y-44264028D02*
X23769396Y-44274170D01*
X23800199Y-44290636D01*
X23827203Y-44312797D01*
X23849364Y-44339801D01*
X23865830Y-44370604D01*
X23875972Y-44404040D01*
X23880000Y-44444938D01*
X23880000Y-45475062D01*
X23875972Y-45515960D01*
X23865830Y-45549396D01*
X23849364Y-45580199D01*
X23827203Y-45607203D01*
X23800199Y-45629364D01*
X23769396Y-45645830D01*
X23735960Y-45655972D01*
X23695062Y-45660000D01*
X22914938Y-45660000D01*
X22874040Y-45655972D01*
X22840604Y-45645830D01*
X22809801Y-45629364D01*
X22782797Y-45607203D01*
X22760636Y-45580199D01*
X22744170Y-45549396D01*
X22734028Y-45515960D01*
X22730000Y-45475062D01*
X22730000Y-44444938D01*
X22734028Y-44404040D01*
X22744170Y-44370604D01*
X22760636Y-44339801D01*
X22782797Y-44312797D01*
X22809801Y-44290636D01*
X22840604Y-44274170D01*
X22874040Y-44264028D01*
X22914938Y-44260000D01*
X23695062Y-44260000D01*
X23735960Y-44264028D01*
X23735960Y-44264028D01*
G37*
G36*
X25785960Y-44264028D02*
X25819396Y-44274170D01*
X25850199Y-44290636D01*
X25877203Y-44312797D01*
X25899364Y-44339801D01*
X25915830Y-44370604D01*
X25925972Y-44404040D01*
X25930000Y-44444938D01*
X25930000Y-45475062D01*
X25925972Y-45515960D01*
X25915830Y-45549396D01*
X25899364Y-45580199D01*
X25877203Y-45607203D01*
X25850199Y-45629364D01*
X25819396Y-45645830D01*
X25785960Y-45655972D01*
X25745062Y-45660000D01*
X24964938Y-45660000D01*
X24924040Y-45655972D01*
X24890604Y-45645830D01*
X24859801Y-45629364D01*
X24832797Y-45607203D01*
X24810636Y-45580199D01*
X24794170Y-45549396D01*
X24784028Y-45515960D01*
X24780000Y-45475062D01*
X24780000Y-44444938D01*
X24784028Y-44404040D01*
X24794170Y-44370604D01*
X24810636Y-44339801D01*
X24832797Y-44312797D01*
X24859801Y-44290636D01*
X24890604Y-44274170D01*
X24924040Y-44264028D01*
X24964938Y-44260000D01*
X25745062Y-44260000D01*
X25785960Y-44264028D01*
X25785960Y-44264028D01*
G37*
G36*
X34105960Y-44104028D02*
X34139396Y-44114170D01*
X34170199Y-44130636D01*
X34197203Y-44152797D01*
X34219364Y-44179801D01*
X34235830Y-44210604D01*
X34245972Y-44244040D01*
X34250000Y-44284938D01*
X34250000Y-45315062D01*
X34245972Y-45355960D01*
X34235830Y-45389396D01*
X34219364Y-45420199D01*
X34197203Y-45447203D01*
X34170199Y-45469364D01*
X34139396Y-45485830D01*
X34105960Y-45495972D01*
X34065062Y-45500000D01*
X33284938Y-45500000D01*
X33244040Y-45495972D01*
X33210604Y-45485830D01*
X33179801Y-45469364D01*
X33152797Y-45447203D01*
X33130636Y-45420199D01*
X33114170Y-45389396D01*
X33104028Y-45355960D01*
X33100000Y-45315062D01*
X33100000Y-44284938D01*
X33104028Y-44244040D01*
X33114170Y-44210604D01*
X33130636Y-44179801D01*
X33152797Y-44152797D01*
X33179801Y-44130636D01*
X33210604Y-44114170D01*
X33244040Y-44104028D01*
X33284938Y-44100000D01*
X34065062Y-44100000D01*
X34105960Y-44104028D01*
X34105960Y-44104028D01*
G37*
G36*
X36155960Y-44104028D02*
X36189396Y-44114170D01*
X36220199Y-44130636D01*
X36247203Y-44152797D01*
X36269364Y-44179801D01*
X36285830Y-44210604D01*
X36295972Y-44244040D01*
X36300000Y-44284938D01*
X36300000Y-45315062D01*
X36295972Y-45355960D01*
X36285830Y-45389396D01*
X36269364Y-45420199D01*
X36247203Y-45447203D01*
X36220199Y-45469364D01*
X36189396Y-45485830D01*
X36155960Y-45495972D01*
X36115062Y-45500000D01*
X35334938Y-45500000D01*
X35294040Y-45495972D01*
X35260604Y-45485830D01*
X35229801Y-45469364D01*
X35202797Y-45447203D01*
X35180636Y-45420199D01*
X35164170Y-45389396D01*
X35154028Y-45355960D01*
X35150000Y-45315062D01*
X35150000Y-44284938D01*
X35154028Y-44244040D01*
X35164170Y-44210604D01*
X35180636Y-44179801D01*
X35202797Y-44152797D01*
X35229801Y-44130636D01*
X35260604Y-44114170D01*
X35294040Y-44104028D01*
X35334938Y-44100000D01*
X36115062Y-44100000D01*
X36155960Y-44104028D01*
X36155960Y-44104028D01*
G37*
G36*
X42983195Y-42437522D02*
X43032267Y-42447283D01*
X43170942Y-42504724D01*
X43295750Y-42588118D01*
X43401882Y-42694250D01*
X43401884Y-42694253D01*
X43485276Y-42819058D01*
X43523132Y-42910450D01*
X43542717Y-42957734D01*
X43572000Y-43104948D01*
X43572000Y-43255052D01*
X43542717Y-43402266D01*
X43485276Y-43540942D01*
X43401882Y-43665750D01*
X43295750Y-43771882D01*
X43295747Y-43771884D01*
X43170942Y-43855276D01*
X43032267Y-43912717D01*
X42983195Y-43922478D01*
X42885052Y-43942000D01*
X42734948Y-43942000D01*
X42636805Y-43922478D01*
X42587733Y-43912717D01*
X42449058Y-43855276D01*
X42324253Y-43771884D01*
X42324250Y-43771882D01*
X42218118Y-43665750D01*
X42134724Y-43540942D01*
X42077283Y-43402266D01*
X42048000Y-43255052D01*
X42048000Y-43104948D01*
X42077283Y-42957734D01*
X42096869Y-42910450D01*
X42134724Y-42819058D01*
X42218116Y-42694253D01*
X42218118Y-42694250D01*
X42324250Y-42588118D01*
X42449058Y-42504724D01*
X42587733Y-42447283D01*
X42636805Y-42437522D01*
X42734948Y-42418000D01*
X42885052Y-42418000D01*
X42983195Y-42437522D01*
X42983195Y-42437522D01*
G37*
G36*
X15043195Y-42437522D02*
X15092267Y-42447283D01*
X15230942Y-42504724D01*
X15355750Y-42588118D01*
X15461882Y-42694250D01*
X15461884Y-42694253D01*
X15545276Y-42819058D01*
X15583132Y-42910450D01*
X15602717Y-42957734D01*
X15632000Y-43104948D01*
X15632000Y-43255052D01*
X15602717Y-43402266D01*
X15545276Y-43540942D01*
X15461882Y-43665750D01*
X15355750Y-43771882D01*
X15355747Y-43771884D01*
X15230942Y-43855276D01*
X15092267Y-43912717D01*
X15043195Y-43922478D01*
X14945052Y-43942000D01*
X14794948Y-43942000D01*
X14696805Y-43922478D01*
X14647733Y-43912717D01*
X14509058Y-43855276D01*
X14384253Y-43771884D01*
X14384250Y-43771882D01*
X14278118Y-43665750D01*
X14194724Y-43540942D01*
X14137283Y-43402266D01*
X14108000Y-43255052D01*
X14108000Y-43104948D01*
X14137283Y-42957734D01*
X14156869Y-42910450D01*
X14194724Y-42819058D01*
X14278116Y-42694253D01*
X14278118Y-42694250D01*
X14384250Y-42588118D01*
X14509058Y-42504724D01*
X14647733Y-42447283D01*
X14696805Y-42437522D01*
X14794948Y-42418000D01*
X14945052Y-42418000D01*
X15043195Y-42437522D01*
X15043195Y-42437522D01*
G37*
G36*
X23725960Y-41894028D02*
X23759396Y-41904170D01*
X23790199Y-41920636D01*
X23817203Y-41942797D01*
X23839364Y-41969801D01*
X23855830Y-42000604D01*
X23865972Y-42034040D01*
X23870000Y-42074938D01*
X23870000Y-43105062D01*
X23865972Y-43145960D01*
X23855830Y-43179396D01*
X23839364Y-43210199D01*
X23817203Y-43237203D01*
X23790199Y-43259364D01*
X23759396Y-43275830D01*
X23725960Y-43285972D01*
X23685062Y-43290000D01*
X22904938Y-43290000D01*
X22864040Y-43285972D01*
X22830604Y-43275830D01*
X22799801Y-43259364D01*
X22772797Y-43237203D01*
X22750636Y-43210199D01*
X22734170Y-43179396D01*
X22724028Y-43145960D01*
X22720000Y-43105062D01*
X22720000Y-42074938D01*
X22724028Y-42034040D01*
X22734170Y-42000604D01*
X22750636Y-41969801D01*
X22772797Y-41942797D01*
X22799801Y-41920636D01*
X22830604Y-41904170D01*
X22864040Y-41894028D01*
X22904938Y-41890000D01*
X23685062Y-41890000D01*
X23725960Y-41894028D01*
X23725960Y-41894028D01*
G37*
G36*
X25775960Y-41894028D02*
X25809396Y-41904170D01*
X25840199Y-41920636D01*
X25867203Y-41942797D01*
X25889364Y-41969801D01*
X25905830Y-42000604D01*
X25915972Y-42034040D01*
X25920000Y-42074938D01*
X25920000Y-43105062D01*
X25915972Y-43145960D01*
X25905830Y-43179396D01*
X25889364Y-43210199D01*
X25867203Y-43237203D01*
X25840199Y-43259364D01*
X25809396Y-43275830D01*
X25775960Y-43285972D01*
X25735062Y-43290000D01*
X24954938Y-43290000D01*
X24914040Y-43285972D01*
X24880604Y-43275830D01*
X24849801Y-43259364D01*
X24822797Y-43237203D01*
X24800636Y-43210199D01*
X24784170Y-43179396D01*
X24774028Y-43145960D01*
X24770000Y-43105062D01*
X24770000Y-42074938D01*
X24774028Y-42034040D01*
X24784170Y-42000604D01*
X24800636Y-41969801D01*
X24822797Y-41942797D01*
X24849801Y-41920636D01*
X24880604Y-41904170D01*
X24914040Y-41894028D01*
X24954938Y-41890000D01*
X25735062Y-41890000D01*
X25775960Y-41894028D01*
X25775960Y-41894028D01*
G37*
G36*
X30800000Y-43260000D02*
X29900000Y-43260000D01*
X29900000Y-42460000D01*
X30800000Y-42460000D01*
X30800000Y-43260000D01*
X30800000Y-43260000D01*
G37*
G36*
X34115960Y-41764028D02*
X34149396Y-41774170D01*
X34180199Y-41790636D01*
X34207203Y-41812797D01*
X34229364Y-41839801D01*
X34245830Y-41870604D01*
X34255972Y-41904040D01*
X34260000Y-41944938D01*
X34260000Y-42975062D01*
X34255972Y-43015960D01*
X34245830Y-43049396D01*
X34229364Y-43080199D01*
X34207203Y-43107203D01*
X34180199Y-43129364D01*
X34149396Y-43145830D01*
X34115960Y-43155972D01*
X34075062Y-43160000D01*
X33294938Y-43160000D01*
X33254040Y-43155972D01*
X33220604Y-43145830D01*
X33189801Y-43129364D01*
X33162797Y-43107203D01*
X33140636Y-43080199D01*
X33124170Y-43049396D01*
X33114028Y-43015960D01*
X33110000Y-42975062D01*
X33110000Y-41944938D01*
X33114028Y-41904040D01*
X33124170Y-41870604D01*
X33140636Y-41839801D01*
X33162797Y-41812797D01*
X33189801Y-41790636D01*
X33220604Y-41774170D01*
X33254040Y-41764028D01*
X33294938Y-41760000D01*
X34075062Y-41760000D01*
X34115960Y-41764028D01*
X34115960Y-41764028D01*
G37*
G36*
X36165960Y-41764028D02*
X36199396Y-41774170D01*
X36230199Y-41790636D01*
X36257203Y-41812797D01*
X36279364Y-41839801D01*
X36295830Y-41870604D01*
X36305972Y-41904040D01*
X36310000Y-41944938D01*
X36310000Y-42975062D01*
X36305972Y-43015960D01*
X36295830Y-43049396D01*
X36279364Y-43080199D01*
X36257203Y-43107203D01*
X36230199Y-43129364D01*
X36199396Y-43145830D01*
X36165960Y-43155972D01*
X36125062Y-43160000D01*
X35344938Y-43160000D01*
X35304040Y-43155972D01*
X35270604Y-43145830D01*
X35239801Y-43129364D01*
X35212797Y-43107203D01*
X35190636Y-43080199D01*
X35174170Y-43049396D01*
X35164028Y-43015960D01*
X35160000Y-42975062D01*
X35160000Y-41944938D01*
X35164028Y-41904040D01*
X35174170Y-41870604D01*
X35190636Y-41839801D01*
X35212797Y-41812797D01*
X35239801Y-41790636D01*
X35270604Y-41774170D01*
X35304040Y-41764028D01*
X35344938Y-41760000D01*
X36125062Y-41760000D01*
X36165960Y-41764028D01*
X36165960Y-41764028D01*
G37*
G36*
X28800000Y-42310000D02*
X27900000Y-42310000D01*
X27900000Y-41510000D01*
X28800000Y-41510000D01*
X28800000Y-42310000D01*
X28800000Y-42310000D01*
G37*
G36*
X42983195Y-39897522D02*
X43032267Y-39907283D01*
X43170942Y-39964724D01*
X43295750Y-40048118D01*
X43401882Y-40154250D01*
X43485276Y-40279058D01*
X43542717Y-40417734D01*
X43572000Y-40564948D01*
X43572000Y-40715052D01*
X43542717Y-40862266D01*
X43485276Y-41000942D01*
X43401882Y-41125750D01*
X43295750Y-41231882D01*
X43295747Y-41231884D01*
X43170942Y-41315276D01*
X43032267Y-41372717D01*
X42983195Y-41382478D01*
X42885052Y-41402000D01*
X42734948Y-41402000D01*
X42636805Y-41382478D01*
X42587733Y-41372717D01*
X42449058Y-41315276D01*
X42324253Y-41231884D01*
X42324250Y-41231882D01*
X42218118Y-41125750D01*
X42134724Y-41000942D01*
X42077283Y-40862266D01*
X42048000Y-40715052D01*
X42048000Y-40564948D01*
X42077283Y-40417734D01*
X42134724Y-40279058D01*
X42218118Y-40154250D01*
X42324250Y-40048118D01*
X42449058Y-39964724D01*
X42587733Y-39907283D01*
X42636805Y-39897522D01*
X42734948Y-39878000D01*
X42885052Y-39878000D01*
X42983195Y-39897522D01*
X42983195Y-39897522D01*
G37*
G36*
X15043195Y-39897522D02*
X15092267Y-39907283D01*
X15230942Y-39964724D01*
X15355750Y-40048118D01*
X15461882Y-40154250D01*
X15545276Y-40279058D01*
X15602717Y-40417734D01*
X15632000Y-40564948D01*
X15632000Y-40715052D01*
X15602717Y-40862266D01*
X15545276Y-41000942D01*
X15461882Y-41125750D01*
X15355750Y-41231882D01*
X15355747Y-41231884D01*
X15230942Y-41315276D01*
X15092267Y-41372717D01*
X15043195Y-41382478D01*
X14945052Y-41402000D01*
X14794948Y-41402000D01*
X14696805Y-41382478D01*
X14647733Y-41372717D01*
X14509058Y-41315276D01*
X14384253Y-41231884D01*
X14384250Y-41231882D01*
X14278118Y-41125750D01*
X14194724Y-41000942D01*
X14137283Y-40862266D01*
X14108000Y-40715052D01*
X14108000Y-40564948D01*
X14137283Y-40417734D01*
X14194724Y-40279058D01*
X14278118Y-40154250D01*
X14384250Y-40048118D01*
X14509058Y-39964724D01*
X14647733Y-39907283D01*
X14696805Y-39897522D01*
X14794948Y-39878000D01*
X14945052Y-39878000D01*
X15043195Y-39897522D01*
X15043195Y-39897522D01*
G37*
G36*
X30800000Y-41360000D02*
X29900000Y-41360000D01*
X29900000Y-40560000D01*
X30800000Y-40560000D01*
X30800000Y-41360000D01*
X30800000Y-41360000D01*
G37*
G36*
X36165960Y-39404028D02*
X36199396Y-39414170D01*
X36230199Y-39430636D01*
X36257203Y-39452797D01*
X36279364Y-39479801D01*
X36295830Y-39510604D01*
X36305972Y-39544040D01*
X36310000Y-39584938D01*
X36310000Y-40615062D01*
X36305972Y-40655960D01*
X36295830Y-40689396D01*
X36279364Y-40720199D01*
X36257203Y-40747203D01*
X36230199Y-40769364D01*
X36199396Y-40785830D01*
X36165960Y-40795972D01*
X36125062Y-40800000D01*
X35344938Y-40800000D01*
X35304040Y-40795972D01*
X35270604Y-40785830D01*
X35239801Y-40769364D01*
X35212797Y-40747203D01*
X35190636Y-40720199D01*
X35174170Y-40689396D01*
X35164028Y-40655960D01*
X35160000Y-40615062D01*
X35160000Y-39584938D01*
X35164028Y-39544040D01*
X35174170Y-39510604D01*
X35190636Y-39479801D01*
X35212797Y-39452797D01*
X35239801Y-39430636D01*
X35270604Y-39414170D01*
X35304040Y-39404028D01*
X35344938Y-39400000D01*
X36125062Y-39400000D01*
X36165960Y-39404028D01*
X36165960Y-39404028D01*
G37*
G36*
X34115960Y-39404028D02*
X34149396Y-39414170D01*
X34180199Y-39430636D01*
X34207203Y-39452797D01*
X34229364Y-39479801D01*
X34245830Y-39510604D01*
X34255972Y-39544040D01*
X34260000Y-39584938D01*
X34260000Y-40615062D01*
X34255972Y-40655960D01*
X34245830Y-40689396D01*
X34229364Y-40720199D01*
X34207203Y-40747203D01*
X34180199Y-40769364D01*
X34149396Y-40785830D01*
X34115960Y-40795972D01*
X34075062Y-40800000D01*
X33294938Y-40800000D01*
X33254040Y-40795972D01*
X33220604Y-40785830D01*
X33189801Y-40769364D01*
X33162797Y-40747203D01*
X33140636Y-40720199D01*
X33124170Y-40689396D01*
X33114028Y-40655960D01*
X33110000Y-40615062D01*
X33110000Y-39584938D01*
X33114028Y-39544040D01*
X33124170Y-39510604D01*
X33140636Y-39479801D01*
X33162797Y-39452797D01*
X33189801Y-39430636D01*
X33220604Y-39414170D01*
X33254040Y-39404028D01*
X33294938Y-39400000D01*
X34075062Y-39400000D01*
X34115960Y-39404028D01*
X34115960Y-39404028D01*
G37*
G36*
X42983195Y-37357522D02*
X43032267Y-37367283D01*
X43170942Y-37424724D01*
X43295750Y-37508118D01*
X43401882Y-37614250D01*
X43485276Y-37739058D01*
X43542717Y-37877734D01*
X43572000Y-38024948D01*
X43572000Y-38175052D01*
X43568937Y-38190450D01*
X43542717Y-38322267D01*
X43511371Y-38397943D01*
X43485276Y-38460942D01*
X43401882Y-38585750D01*
X43295750Y-38691882D01*
X43295747Y-38691884D01*
X43170942Y-38775276D01*
X43032267Y-38832717D01*
X42983195Y-38842478D01*
X42885052Y-38862000D01*
X42734948Y-38862000D01*
X42636805Y-38842478D01*
X42587733Y-38832717D01*
X42449058Y-38775276D01*
X42324253Y-38691884D01*
X42324250Y-38691882D01*
X42218118Y-38585750D01*
X42134724Y-38460942D01*
X42108629Y-38397943D01*
X42077283Y-38322267D01*
X42051063Y-38190450D01*
X42048000Y-38175052D01*
X42048000Y-38024948D01*
X42077283Y-37877734D01*
X42134724Y-37739058D01*
X42218118Y-37614250D01*
X42324250Y-37508118D01*
X42449058Y-37424724D01*
X42587733Y-37367283D01*
X42636805Y-37357522D01*
X42734948Y-37338000D01*
X42885052Y-37338000D01*
X42983195Y-37357522D01*
X42983195Y-37357522D01*
G37*
G36*
X15043195Y-37357522D02*
X15092267Y-37367283D01*
X15230942Y-37424724D01*
X15355750Y-37508118D01*
X15461882Y-37614250D01*
X15545276Y-37739058D01*
X15602717Y-37877734D01*
X15632000Y-38024948D01*
X15632000Y-38175052D01*
X15628937Y-38190450D01*
X15602717Y-38322267D01*
X15571371Y-38397943D01*
X15545276Y-38460942D01*
X15461882Y-38585750D01*
X15355750Y-38691882D01*
X15355747Y-38691884D01*
X15230942Y-38775276D01*
X15092267Y-38832717D01*
X15043195Y-38842478D01*
X14945052Y-38862000D01*
X14794948Y-38862000D01*
X14696805Y-38842478D01*
X14647733Y-38832717D01*
X14509058Y-38775276D01*
X14384253Y-38691884D01*
X14384250Y-38691882D01*
X14278118Y-38585750D01*
X14194724Y-38460942D01*
X14168629Y-38397943D01*
X14137283Y-38322267D01*
X14111063Y-38190450D01*
X14108000Y-38175052D01*
X14108000Y-38024948D01*
X14137283Y-37877734D01*
X14194724Y-37739058D01*
X14278118Y-37614250D01*
X14384250Y-37508118D01*
X14509058Y-37424724D01*
X14647733Y-37367283D01*
X14696805Y-37357522D01*
X14794948Y-37338000D01*
X14945052Y-37338000D01*
X15043195Y-37357522D01*
X15043195Y-37357522D01*
G37*
G36*
X36165960Y-37044028D02*
X36199396Y-37054170D01*
X36230199Y-37070636D01*
X36257203Y-37092797D01*
X36279364Y-37119801D01*
X36295830Y-37150604D01*
X36305972Y-37184040D01*
X36310000Y-37224938D01*
X36310000Y-38255062D01*
X36305972Y-38295960D01*
X36295830Y-38329396D01*
X36279364Y-38360199D01*
X36257203Y-38387203D01*
X36230199Y-38409364D01*
X36199396Y-38425830D01*
X36165960Y-38435972D01*
X36125062Y-38440000D01*
X35344938Y-38440000D01*
X35304040Y-38435972D01*
X35270604Y-38425830D01*
X35239801Y-38409364D01*
X35212797Y-38387203D01*
X35190636Y-38360199D01*
X35174170Y-38329396D01*
X35164028Y-38295960D01*
X35160000Y-38255062D01*
X35160000Y-37224938D01*
X35164028Y-37184040D01*
X35174170Y-37150604D01*
X35190636Y-37119801D01*
X35212797Y-37092797D01*
X35239801Y-37070636D01*
X35270604Y-37054170D01*
X35304040Y-37044028D01*
X35344938Y-37040000D01*
X36125062Y-37040000D01*
X36165960Y-37044028D01*
X36165960Y-37044028D01*
G37*
G36*
X34115960Y-37044028D02*
X34149396Y-37054170D01*
X34180199Y-37070636D01*
X34207203Y-37092797D01*
X34229364Y-37119801D01*
X34245830Y-37150604D01*
X34255972Y-37184040D01*
X34260000Y-37224938D01*
X34260000Y-38255062D01*
X34255972Y-38295960D01*
X34245830Y-38329396D01*
X34229364Y-38360199D01*
X34207203Y-38387203D01*
X34180199Y-38409364D01*
X34149396Y-38425830D01*
X34115960Y-38435972D01*
X34075062Y-38440000D01*
X33294938Y-38440000D01*
X33254040Y-38435972D01*
X33220604Y-38425830D01*
X33189801Y-38409364D01*
X33162797Y-38387203D01*
X33140636Y-38360199D01*
X33124170Y-38329396D01*
X33114028Y-38295960D01*
X33110000Y-38255062D01*
X33110000Y-37224938D01*
X33114028Y-37184040D01*
X33124170Y-37150604D01*
X33140636Y-37119801D01*
X33162797Y-37092797D01*
X33189801Y-37070636D01*
X33220604Y-37054170D01*
X33254040Y-37044028D01*
X33294938Y-37040000D01*
X34075062Y-37040000D01*
X34115960Y-37044028D01*
X34115960Y-37044028D01*
G37*
G36*
X31080000Y-38180000D02*
X30180000Y-38180000D01*
X30180000Y-37380000D01*
X31080000Y-37380000D01*
X31080000Y-38180000D01*
X31080000Y-38180000D01*
G37*
G36*
X29080000Y-37230000D02*
X28180000Y-37230000D01*
X28180000Y-36430000D01*
X29080000Y-36430000D01*
X29080000Y-37230000D01*
X29080000Y-37230000D01*
G37*
G36*
X42983195Y-34817522D02*
X43032267Y-34827283D01*
X43170942Y-34884724D01*
X43295750Y-34968118D01*
X43401882Y-35074250D01*
X43485276Y-35199058D01*
X43542717Y-35337734D01*
X43572000Y-35484948D01*
X43572000Y-35635052D01*
X43542717Y-35782266D01*
X43485276Y-35920942D01*
X43401882Y-36045750D01*
X43295750Y-36151882D01*
X43295747Y-36151884D01*
X43170942Y-36235276D01*
X43032267Y-36292717D01*
X42983195Y-36302478D01*
X42885052Y-36322000D01*
X42734948Y-36322000D01*
X42636805Y-36302478D01*
X42587733Y-36292717D01*
X42449058Y-36235276D01*
X42324253Y-36151884D01*
X42324250Y-36151882D01*
X42218118Y-36045750D01*
X42134724Y-35920942D01*
X42077283Y-35782266D01*
X42048000Y-35635052D01*
X42048000Y-35484948D01*
X42077283Y-35337734D01*
X42134724Y-35199058D01*
X42218118Y-35074250D01*
X42324250Y-34968118D01*
X42449058Y-34884724D01*
X42587733Y-34827283D01*
X42636805Y-34817522D01*
X42734948Y-34798000D01*
X42885052Y-34798000D01*
X42983195Y-34817522D01*
X42983195Y-34817522D01*
G37*
G36*
X15043195Y-34817522D02*
X15092267Y-34827283D01*
X15230942Y-34884724D01*
X15355750Y-34968118D01*
X15461882Y-35074250D01*
X15545276Y-35199058D01*
X15602717Y-35337734D01*
X15632000Y-35484948D01*
X15632000Y-35635052D01*
X15602717Y-35782266D01*
X15545276Y-35920942D01*
X15461882Y-36045750D01*
X15355750Y-36151882D01*
X15355747Y-36151884D01*
X15230942Y-36235276D01*
X15092267Y-36292717D01*
X15043195Y-36302478D01*
X14945052Y-36322000D01*
X14794948Y-36322000D01*
X14696805Y-36302478D01*
X14647733Y-36292717D01*
X14509058Y-36235276D01*
X14384253Y-36151884D01*
X14384250Y-36151882D01*
X14278118Y-36045750D01*
X14194724Y-35920942D01*
X14137283Y-35782266D01*
X14108000Y-35635052D01*
X14108000Y-35484948D01*
X14137283Y-35337734D01*
X14194724Y-35199058D01*
X14278118Y-35074250D01*
X14384250Y-34968118D01*
X14509058Y-34884724D01*
X14647733Y-34827283D01*
X14696805Y-34817522D01*
X14794948Y-34798000D01*
X14945052Y-34798000D01*
X15043195Y-34817522D01*
X15043195Y-34817522D01*
G37*
G36*
X31080000Y-36280000D02*
X30180000Y-36280000D01*
X30180000Y-35480000D01*
X31080000Y-35480000D01*
X31080000Y-36280000D01*
X31080000Y-36280000D01*
G37*
G36*
X36165960Y-34684028D02*
X36199396Y-34694170D01*
X36230199Y-34710636D01*
X36257203Y-34732797D01*
X36279364Y-34759801D01*
X36295830Y-34790604D01*
X36305972Y-34824040D01*
X36310000Y-34864938D01*
X36310000Y-35895062D01*
X36305972Y-35935960D01*
X36295830Y-35969396D01*
X36279364Y-36000199D01*
X36257203Y-36027203D01*
X36230199Y-36049364D01*
X36199396Y-36065830D01*
X36165960Y-36075972D01*
X36125062Y-36080000D01*
X35344938Y-36080000D01*
X35304040Y-36075972D01*
X35270604Y-36065830D01*
X35239801Y-36049364D01*
X35212797Y-36027203D01*
X35190636Y-36000199D01*
X35174170Y-35969396D01*
X35164028Y-35935960D01*
X35160000Y-35895062D01*
X35160000Y-34864938D01*
X35164028Y-34824040D01*
X35174170Y-34790604D01*
X35190636Y-34759801D01*
X35212797Y-34732797D01*
X35239801Y-34710636D01*
X35270604Y-34694170D01*
X35304040Y-34684028D01*
X35344938Y-34680000D01*
X36125062Y-34680000D01*
X36165960Y-34684028D01*
X36165960Y-34684028D01*
G37*
G36*
X34115960Y-34684028D02*
X34149396Y-34694170D01*
X34180199Y-34710636D01*
X34207203Y-34732797D01*
X34229364Y-34759801D01*
X34245830Y-34790604D01*
X34255972Y-34824040D01*
X34260000Y-34864938D01*
X34260000Y-35895062D01*
X34255972Y-35935960D01*
X34245830Y-35969396D01*
X34229364Y-36000199D01*
X34207203Y-36027203D01*
X34180199Y-36049364D01*
X34149396Y-36065830D01*
X34115960Y-36075972D01*
X34075062Y-36080000D01*
X33294938Y-36080000D01*
X33254040Y-36075972D01*
X33220604Y-36065830D01*
X33189801Y-36049364D01*
X33162797Y-36027203D01*
X33140636Y-36000199D01*
X33124170Y-35969396D01*
X33114028Y-35935960D01*
X33110000Y-35895062D01*
X33110000Y-34864938D01*
X33114028Y-34824040D01*
X33124170Y-34790604D01*
X33140636Y-34759801D01*
X33162797Y-34732797D01*
X33189801Y-34710636D01*
X33220604Y-34694170D01*
X33254040Y-34684028D01*
X33294938Y-34680000D01*
X34075062Y-34680000D01*
X34115960Y-34684028D01*
X34115960Y-34684028D01*
G37*
G36*
X23315960Y-32644028D02*
X23349396Y-32654170D01*
X23380199Y-32670636D01*
X23407203Y-32692797D01*
X23429364Y-32719801D01*
X23445830Y-32750604D01*
X23455972Y-32784040D01*
X23460000Y-32824938D01*
X23460000Y-33855062D01*
X23455972Y-33895960D01*
X23445830Y-33929396D01*
X23429364Y-33960199D01*
X23407203Y-33987203D01*
X23380199Y-34009364D01*
X23349396Y-34025830D01*
X23315960Y-34035972D01*
X23275062Y-34040000D01*
X22494938Y-34040000D01*
X22454040Y-34035972D01*
X22420604Y-34025830D01*
X22389801Y-34009364D01*
X22362797Y-33987203D01*
X22340636Y-33960199D01*
X22324170Y-33929396D01*
X22314028Y-33895960D01*
X22310000Y-33855062D01*
X22310000Y-32824938D01*
X22314028Y-32784040D01*
X22324170Y-32750604D01*
X22340636Y-32719801D01*
X22362797Y-32692797D01*
X22389801Y-32670636D01*
X22420604Y-32654170D01*
X22454040Y-32644028D01*
X22494938Y-32640000D01*
X23275062Y-32640000D01*
X23315960Y-32644028D01*
X23315960Y-32644028D01*
G37*
G36*
X25365960Y-32644028D02*
X25399396Y-32654170D01*
X25430199Y-32670636D01*
X25457203Y-32692797D01*
X25479364Y-32719801D01*
X25495830Y-32750604D01*
X25505972Y-32784040D01*
X25510000Y-32824938D01*
X25510000Y-33855062D01*
X25505972Y-33895960D01*
X25495830Y-33929396D01*
X25479364Y-33960199D01*
X25457203Y-33987203D01*
X25430199Y-34009364D01*
X25399396Y-34025830D01*
X25365960Y-34035972D01*
X25325062Y-34040000D01*
X24544938Y-34040000D01*
X24504040Y-34035972D01*
X24470604Y-34025830D01*
X24439801Y-34009364D01*
X24412797Y-33987203D01*
X24390636Y-33960199D01*
X24374170Y-33929396D01*
X24364028Y-33895960D01*
X24360000Y-33855062D01*
X24360000Y-32824938D01*
X24364028Y-32784040D01*
X24374170Y-32750604D01*
X24390636Y-32719801D01*
X24412797Y-32692797D01*
X24439801Y-32670636D01*
X24470604Y-32654170D01*
X24504040Y-32644028D01*
X24544938Y-32640000D01*
X25325062Y-32640000D01*
X25365960Y-32644028D01*
X25365960Y-32644028D01*
G37*
G36*
X42983195Y-32277522D02*
X43032267Y-32287283D01*
X43120977Y-32324028D01*
X43170942Y-32344724D01*
X43295750Y-32428118D01*
X43401882Y-32534250D01*
X43401884Y-32534253D01*
X43485276Y-32659058D01*
X43541192Y-32794051D01*
X43542717Y-32797734D01*
X43572000Y-32944948D01*
X43572000Y-33095052D01*
X43542717Y-33242266D01*
X43485276Y-33380942D01*
X43401882Y-33505750D01*
X43295750Y-33611882D01*
X43295747Y-33611884D01*
X43170942Y-33695276D01*
X43032267Y-33752717D01*
X42983195Y-33762478D01*
X42885052Y-33782000D01*
X42734948Y-33782000D01*
X42636805Y-33762478D01*
X42587733Y-33752717D01*
X42449058Y-33695276D01*
X42324253Y-33611884D01*
X42324250Y-33611882D01*
X42218118Y-33505750D01*
X42134724Y-33380942D01*
X42077283Y-33242266D01*
X42048000Y-33095052D01*
X42048000Y-32944948D01*
X42077283Y-32797734D01*
X42078809Y-32794051D01*
X42134724Y-32659058D01*
X42218116Y-32534253D01*
X42218118Y-32534250D01*
X42324250Y-32428118D01*
X42449058Y-32344724D01*
X42499023Y-32324028D01*
X42587733Y-32287283D01*
X42636805Y-32277522D01*
X42734948Y-32258000D01*
X42885052Y-32258000D01*
X42983195Y-32277522D01*
X42983195Y-32277522D01*
G37*
G36*
X15043195Y-32277522D02*
X15092267Y-32287283D01*
X15180977Y-32324028D01*
X15230942Y-32344724D01*
X15355750Y-32428118D01*
X15461882Y-32534250D01*
X15461884Y-32534253D01*
X15545276Y-32659058D01*
X15601192Y-32794051D01*
X15602717Y-32797734D01*
X15632000Y-32944948D01*
X15632000Y-33095052D01*
X15602717Y-33242266D01*
X15545276Y-33380942D01*
X15461882Y-33505750D01*
X15355750Y-33611882D01*
X15355747Y-33611884D01*
X15230942Y-33695276D01*
X15092267Y-33752717D01*
X15043195Y-33762478D01*
X14945052Y-33782000D01*
X14794948Y-33782000D01*
X14696805Y-33762478D01*
X14647733Y-33752717D01*
X14509058Y-33695276D01*
X14384253Y-33611884D01*
X14384250Y-33611882D01*
X14278118Y-33505750D01*
X14194724Y-33380942D01*
X14137283Y-33242266D01*
X14108000Y-33095052D01*
X14108000Y-32944948D01*
X14137283Y-32797734D01*
X14138809Y-32794051D01*
X14194724Y-32659058D01*
X14278116Y-32534253D01*
X14278118Y-32534250D01*
X14384250Y-32428118D01*
X14509058Y-32344724D01*
X14559023Y-32324028D01*
X14647733Y-32287283D01*
X14696805Y-32277522D01*
X14794948Y-32258000D01*
X14945052Y-32258000D01*
X15043195Y-32277522D01*
X15043195Y-32277522D01*
G37*
G36*
X34115960Y-32324028D02*
X34149396Y-32334170D01*
X34180199Y-32350636D01*
X34207203Y-32372797D01*
X34229364Y-32399801D01*
X34245830Y-32430604D01*
X34255972Y-32464040D01*
X34260000Y-32504938D01*
X34260000Y-33535062D01*
X34255972Y-33575960D01*
X34245830Y-33609396D01*
X34229364Y-33640199D01*
X34207203Y-33667203D01*
X34180199Y-33689364D01*
X34149396Y-33705830D01*
X34115960Y-33715972D01*
X34075062Y-33720000D01*
X33294938Y-33720000D01*
X33254040Y-33715972D01*
X33220604Y-33705830D01*
X33189801Y-33689364D01*
X33162797Y-33667203D01*
X33140636Y-33640199D01*
X33124170Y-33609396D01*
X33114028Y-33575960D01*
X33110000Y-33535062D01*
X33110000Y-32504938D01*
X33114028Y-32464040D01*
X33124170Y-32430604D01*
X33140636Y-32399801D01*
X33162797Y-32372797D01*
X33189801Y-32350636D01*
X33220604Y-32334170D01*
X33254040Y-32324028D01*
X33294938Y-32320000D01*
X34075062Y-32320000D01*
X34115960Y-32324028D01*
X34115960Y-32324028D01*
G37*
G36*
X36165960Y-32324028D02*
X36199396Y-32334170D01*
X36230199Y-32350636D01*
X36257203Y-32372797D01*
X36279364Y-32399801D01*
X36295830Y-32430604D01*
X36305972Y-32464040D01*
X36310000Y-32504938D01*
X36310000Y-33535062D01*
X36305972Y-33575960D01*
X36295830Y-33609396D01*
X36279364Y-33640199D01*
X36257203Y-33667203D01*
X36230199Y-33689364D01*
X36199396Y-33705830D01*
X36165960Y-33715972D01*
X36125062Y-33720000D01*
X35344938Y-33720000D01*
X35304040Y-33715972D01*
X35270604Y-33705830D01*
X35239801Y-33689364D01*
X35212797Y-33667203D01*
X35190636Y-33640199D01*
X35174170Y-33609396D01*
X35164028Y-33575960D01*
X35160000Y-33535062D01*
X35160000Y-32504938D01*
X35164028Y-32464040D01*
X35174170Y-32430604D01*
X35190636Y-32399801D01*
X35212797Y-32372797D01*
X35239801Y-32350636D01*
X35270604Y-32334170D01*
X35304040Y-32324028D01*
X35344938Y-32320000D01*
X36125062Y-32320000D01*
X36165960Y-32324028D01*
X36165960Y-32324028D01*
G37*
G36*
X31080000Y-33110000D02*
X30180000Y-33110000D01*
X30180000Y-32310000D01*
X31080000Y-32310000D01*
X31080000Y-33110000D01*
X31080000Y-33110000D01*
G37*
G36*
X29080000Y-32160000D02*
X28180000Y-32160000D01*
X28180000Y-31360000D01*
X29080000Y-31360000D01*
X29080000Y-32160000D01*
X29080000Y-32160000D01*
G37*
G36*
X23429024Y-30708955D02*
X23461736Y-30718879D01*
X23491890Y-30734997D01*
X23518316Y-30756684D01*
X23540003Y-30783110D01*
X23556121Y-30813264D01*
X23566045Y-30845976D01*
X23570000Y-30886138D01*
X23570000Y-31473862D01*
X23566045Y-31514024D01*
X23556121Y-31546736D01*
X23540003Y-31576890D01*
X23518316Y-31603316D01*
X23491890Y-31625003D01*
X23461736Y-31641121D01*
X23429024Y-31651045D01*
X23388862Y-31655000D01*
X22701138Y-31655000D01*
X22660976Y-31651045D01*
X22628264Y-31641121D01*
X22598110Y-31625003D01*
X22571684Y-31603316D01*
X22549997Y-31576890D01*
X22533879Y-31546736D01*
X22523955Y-31514024D01*
X22520000Y-31473862D01*
X22520000Y-30886138D01*
X22523955Y-30845976D01*
X22533879Y-30813264D01*
X22549997Y-30783110D01*
X22571684Y-30756684D01*
X22598110Y-30734997D01*
X22628264Y-30718879D01*
X22660976Y-30708955D01*
X22701138Y-30705000D01*
X23388862Y-30705000D01*
X23429024Y-30708955D01*
X23429024Y-30708955D01*
G37*
G36*
X25179024Y-30708955D02*
X25211736Y-30718879D01*
X25241890Y-30734997D01*
X25268316Y-30756684D01*
X25290003Y-30783110D01*
X25306121Y-30813264D01*
X25316045Y-30845976D01*
X25320000Y-30886138D01*
X25320000Y-31473862D01*
X25316045Y-31514024D01*
X25306121Y-31546736D01*
X25290003Y-31576890D01*
X25268316Y-31603316D01*
X25241890Y-31625003D01*
X25211736Y-31641121D01*
X25179024Y-31651045D01*
X25138862Y-31655000D01*
X24451138Y-31655000D01*
X24410976Y-31651045D01*
X24378264Y-31641121D01*
X24348110Y-31625003D01*
X24321684Y-31603316D01*
X24299997Y-31576890D01*
X24283879Y-31546736D01*
X24273955Y-31514024D01*
X24270000Y-31473862D01*
X24270000Y-30886138D01*
X24273955Y-30845976D01*
X24283879Y-30813264D01*
X24299997Y-30783110D01*
X24321684Y-30756684D01*
X24348110Y-30734997D01*
X24378264Y-30718879D01*
X24410976Y-30708955D01*
X24451138Y-30705000D01*
X25138862Y-30705000D01*
X25179024Y-30708955D01*
X25179024Y-30708955D01*
G37*
G36*
X42980173Y-29736921D02*
X43032267Y-29747283D01*
X43170942Y-29804724D01*
X43295750Y-29888118D01*
X43401882Y-29994250D01*
X43401884Y-29994253D01*
X43485276Y-30119058D01*
X43542717Y-30257733D01*
X43572000Y-30404950D01*
X43572000Y-30555050D01*
X43542717Y-30702267D01*
X43520177Y-30756684D01*
X43485276Y-30840942D01*
X43401882Y-30965750D01*
X43295750Y-31071882D01*
X43295747Y-31071884D01*
X43170942Y-31155276D01*
X43032267Y-31212717D01*
X42983195Y-31222478D01*
X42885052Y-31242000D01*
X42734948Y-31242000D01*
X42636805Y-31222478D01*
X42587733Y-31212717D01*
X42449058Y-31155276D01*
X42324253Y-31071884D01*
X42324250Y-31071882D01*
X42218118Y-30965750D01*
X42134724Y-30840942D01*
X42099823Y-30756684D01*
X42077283Y-30702267D01*
X42048000Y-30555050D01*
X42048000Y-30404950D01*
X42077283Y-30257733D01*
X42134724Y-30119058D01*
X42218116Y-29994253D01*
X42218118Y-29994250D01*
X42324250Y-29888118D01*
X42449058Y-29804724D01*
X42587733Y-29747283D01*
X42639827Y-29736921D01*
X42734948Y-29718000D01*
X42885052Y-29718000D01*
X42980173Y-29736921D01*
X42980173Y-29736921D01*
G37*
G36*
X15040173Y-29736921D02*
X15092267Y-29747283D01*
X15230942Y-29804724D01*
X15355750Y-29888118D01*
X15461882Y-29994250D01*
X15461884Y-29994253D01*
X15545276Y-30119058D01*
X15602717Y-30257733D01*
X15632000Y-30404950D01*
X15632000Y-30555050D01*
X15602717Y-30702267D01*
X15580177Y-30756684D01*
X15545276Y-30840942D01*
X15461882Y-30965750D01*
X15355750Y-31071882D01*
X15355747Y-31071884D01*
X15230942Y-31155276D01*
X15092267Y-31212717D01*
X15043195Y-31222478D01*
X14945052Y-31242000D01*
X14794948Y-31242000D01*
X14696805Y-31222478D01*
X14647733Y-31212717D01*
X14509058Y-31155276D01*
X14384253Y-31071884D01*
X14384250Y-31071882D01*
X14278118Y-30965750D01*
X14194724Y-30840942D01*
X14159823Y-30756684D01*
X14137283Y-30702267D01*
X14108000Y-30555050D01*
X14108000Y-30404950D01*
X14137283Y-30257733D01*
X14194724Y-30119058D01*
X14278116Y-29994253D01*
X14278118Y-29994250D01*
X14384250Y-29888118D01*
X14509058Y-29804724D01*
X14647733Y-29747283D01*
X14699827Y-29736921D01*
X14794948Y-29718000D01*
X14945052Y-29718000D01*
X15040173Y-29736921D01*
X15040173Y-29736921D01*
G37*
G36*
X31080000Y-31210000D02*
X30180000Y-31210000D01*
X30180000Y-30410000D01*
X31080000Y-30410000D01*
X31080000Y-31210000D01*
X31080000Y-31210000D01*
G37*
G36*
X23429024Y-28808955D02*
X23461736Y-28818879D01*
X23491890Y-28834997D01*
X23518316Y-28856684D01*
X23540003Y-28883110D01*
X23556121Y-28913264D01*
X23566045Y-28945976D01*
X23570000Y-28986138D01*
X23570000Y-29573862D01*
X23566045Y-29614024D01*
X23556121Y-29646736D01*
X23540003Y-29676890D01*
X23518316Y-29703316D01*
X23491890Y-29725003D01*
X23461736Y-29741121D01*
X23429024Y-29751045D01*
X23388862Y-29755000D01*
X22701138Y-29755000D01*
X22660976Y-29751045D01*
X22628264Y-29741121D01*
X22598110Y-29725003D01*
X22571684Y-29703316D01*
X22549997Y-29676890D01*
X22533879Y-29646736D01*
X22523955Y-29614024D01*
X22520000Y-29573862D01*
X22520000Y-28986138D01*
X22523955Y-28945976D01*
X22533879Y-28913264D01*
X22549997Y-28883110D01*
X22571684Y-28856684D01*
X22598110Y-28834997D01*
X22628264Y-28818879D01*
X22660976Y-28808955D01*
X22701138Y-28805000D01*
X23388862Y-28805000D01*
X23429024Y-28808955D01*
X23429024Y-28808955D01*
G37*
G36*
X25179024Y-28808955D02*
X25211736Y-28818879D01*
X25241890Y-28834997D01*
X25268316Y-28856684D01*
X25290003Y-28883110D01*
X25306121Y-28913264D01*
X25316045Y-28945976D01*
X25320000Y-28986138D01*
X25320000Y-29573862D01*
X25316045Y-29614024D01*
X25306121Y-29646736D01*
X25290003Y-29676890D01*
X25268316Y-29703316D01*
X25241890Y-29725003D01*
X25211736Y-29741121D01*
X25179024Y-29751045D01*
X25138862Y-29755000D01*
X24451138Y-29755000D01*
X24410976Y-29751045D01*
X24378264Y-29741121D01*
X24348110Y-29725003D01*
X24321684Y-29703316D01*
X24299997Y-29676890D01*
X24283879Y-29646736D01*
X24273955Y-29614024D01*
X24270000Y-29573862D01*
X24270000Y-28986138D01*
X24273955Y-28945976D01*
X24283879Y-28913264D01*
X24299997Y-28883110D01*
X24321684Y-28856684D01*
X24348110Y-28834997D01*
X24378264Y-28818879D01*
X24410976Y-28808955D01*
X24451138Y-28805000D01*
X25138862Y-28805000D01*
X25179024Y-28808955D01*
X25179024Y-28808955D01*
G37*
G36*
X42983195Y-27197522D02*
X43032267Y-27207283D01*
X43170942Y-27264724D01*
X43295750Y-27348118D01*
X43401882Y-27454250D01*
X43485276Y-27579058D01*
X43542717Y-27717734D01*
X43572000Y-27864948D01*
X43572000Y-28015052D01*
X43542717Y-28162266D01*
X43485276Y-28300942D01*
X43401882Y-28425750D01*
X43295750Y-28531882D01*
X43295747Y-28531884D01*
X43170942Y-28615276D01*
X43032267Y-28672717D01*
X42983195Y-28682478D01*
X42885052Y-28702000D01*
X42734948Y-28702000D01*
X42636805Y-28682478D01*
X42587733Y-28672717D01*
X42449058Y-28615276D01*
X42324253Y-28531884D01*
X42324250Y-28531882D01*
X42218118Y-28425750D01*
X42134724Y-28300942D01*
X42077283Y-28162266D01*
X42048000Y-28015052D01*
X42048000Y-27864948D01*
X42077283Y-27717734D01*
X42134724Y-27579058D01*
X42218118Y-27454250D01*
X42324250Y-27348118D01*
X42449058Y-27264724D01*
X42587733Y-27207283D01*
X42636805Y-27197522D01*
X42734948Y-27178000D01*
X42885052Y-27178000D01*
X42983195Y-27197522D01*
X42983195Y-27197522D01*
G37*
G36*
X15043195Y-27197522D02*
X15092267Y-27207283D01*
X15230942Y-27264724D01*
X15355750Y-27348118D01*
X15461882Y-27454250D01*
X15545276Y-27579058D01*
X15602717Y-27717734D01*
X15632000Y-27864948D01*
X15632000Y-28015052D01*
X15602717Y-28162266D01*
X15545276Y-28300942D01*
X15461882Y-28425750D01*
X15355750Y-28531882D01*
X15355747Y-28531884D01*
X15230942Y-28615276D01*
X15092267Y-28672717D01*
X15043195Y-28682478D01*
X14945052Y-28702000D01*
X14794948Y-28702000D01*
X14696805Y-28682478D01*
X14647733Y-28672717D01*
X14509058Y-28615276D01*
X14384253Y-28531884D01*
X14384250Y-28531882D01*
X14278118Y-28425750D01*
X14194724Y-28300942D01*
X14137283Y-28162266D01*
X14108000Y-28015052D01*
X14108000Y-27864948D01*
X14137283Y-27717734D01*
X14194724Y-27579058D01*
X14278118Y-27454250D01*
X14384250Y-27348118D01*
X14509058Y-27264724D01*
X14647733Y-27207283D01*
X14696805Y-27197522D01*
X14794948Y-27178000D01*
X14945052Y-27178000D01*
X15043195Y-27197522D01*
X15043195Y-27197522D01*
G37*
G36*
X23429024Y-26918955D02*
X23461736Y-26928879D01*
X23491890Y-26944997D01*
X23518316Y-26966684D01*
X23540003Y-26993110D01*
X23556121Y-27023264D01*
X23566045Y-27055976D01*
X23570000Y-27096138D01*
X23570000Y-27683862D01*
X23566045Y-27724024D01*
X23556121Y-27756736D01*
X23540003Y-27786890D01*
X23518316Y-27813316D01*
X23491890Y-27835003D01*
X23461736Y-27851121D01*
X23429024Y-27861045D01*
X23388862Y-27865000D01*
X22701138Y-27865000D01*
X22660976Y-27861045D01*
X22628264Y-27851121D01*
X22598110Y-27835003D01*
X22571684Y-27813316D01*
X22549997Y-27786890D01*
X22533879Y-27756736D01*
X22523955Y-27724024D01*
X22520000Y-27683862D01*
X22520000Y-27096138D01*
X22523955Y-27055976D01*
X22533879Y-27023264D01*
X22549997Y-26993110D01*
X22571684Y-26966684D01*
X22598110Y-26944997D01*
X22628264Y-26928879D01*
X22660976Y-26918955D01*
X22701138Y-26915000D01*
X23388862Y-26915000D01*
X23429024Y-26918955D01*
X23429024Y-26918955D01*
G37*
G36*
X25179024Y-26918955D02*
X25211736Y-26928879D01*
X25241890Y-26944997D01*
X25268316Y-26966684D01*
X25290003Y-26993110D01*
X25306121Y-27023264D01*
X25316045Y-27055976D01*
X25320000Y-27096138D01*
X25320000Y-27683862D01*
X25316045Y-27724024D01*
X25306121Y-27756736D01*
X25290003Y-27786890D01*
X25268316Y-27813316D01*
X25241890Y-27835003D01*
X25211736Y-27851121D01*
X25179024Y-27861045D01*
X25138862Y-27865000D01*
X24451138Y-27865000D01*
X24410976Y-27861045D01*
X24378264Y-27851121D01*
X24348110Y-27835003D01*
X24321684Y-27813316D01*
X24299997Y-27786890D01*
X24283879Y-27756736D01*
X24273955Y-27724024D01*
X24270000Y-27683862D01*
X24270000Y-27096138D01*
X24273955Y-27055976D01*
X24283879Y-27023264D01*
X24299997Y-26993110D01*
X24321684Y-26966684D01*
X24348110Y-26944997D01*
X24378264Y-26928879D01*
X24410976Y-26918955D01*
X24451138Y-26915000D01*
X25138862Y-26915000D01*
X25179024Y-26918955D01*
X25179024Y-26918955D01*
G37*
G36*
X15043195Y-24657522D02*
X15092267Y-24667283D01*
X15230942Y-24724724D01*
X15355750Y-24808118D01*
X15461882Y-24914250D01*
X15545276Y-25039058D01*
X15602717Y-25177734D01*
X15632000Y-25324948D01*
X15632000Y-25475052D01*
X15602717Y-25622266D01*
X15545276Y-25760942D01*
X15461882Y-25885750D01*
X15355750Y-25991882D01*
X15355747Y-25991884D01*
X15230942Y-26075276D01*
X15092267Y-26132717D01*
X15043195Y-26142478D01*
X14945052Y-26162000D01*
X14794948Y-26162000D01*
X14696805Y-26142478D01*
X14647733Y-26132717D01*
X14509058Y-26075276D01*
X14384253Y-25991884D01*
X14384250Y-25991882D01*
X14278118Y-25885750D01*
X14194724Y-25760942D01*
X14137283Y-25622266D01*
X14108000Y-25475052D01*
X14108000Y-25324948D01*
X14137283Y-25177734D01*
X14194724Y-25039058D01*
X14278118Y-24914250D01*
X14384250Y-24808118D01*
X14509058Y-24724724D01*
X14647733Y-24667283D01*
X14696805Y-24657522D01*
X14794948Y-24638000D01*
X14945052Y-24638000D01*
X15043195Y-24657522D01*
X15043195Y-24657522D01*
G37*
G36*
X42983195Y-24657522D02*
X43032267Y-24667283D01*
X43170942Y-24724724D01*
X43295750Y-24808118D01*
X43401882Y-24914250D01*
X43485276Y-25039058D01*
X43542717Y-25177734D01*
X43572000Y-25324948D01*
X43572000Y-25475052D01*
X43542717Y-25622266D01*
X43485276Y-25760942D01*
X43401882Y-25885750D01*
X43295750Y-25991882D01*
X43295747Y-25991884D01*
X43170942Y-26075276D01*
X43032267Y-26132717D01*
X42983195Y-26142478D01*
X42885052Y-26162000D01*
X42734948Y-26162000D01*
X42636805Y-26142478D01*
X42587733Y-26132717D01*
X42449058Y-26075276D01*
X42324253Y-25991884D01*
X42324250Y-25991882D01*
X42218118Y-25885750D01*
X42134724Y-25760942D01*
X42077283Y-25622266D01*
X42048000Y-25475052D01*
X42048000Y-25324948D01*
X42077283Y-25177734D01*
X42134724Y-25039058D01*
X42218118Y-24914250D01*
X42324250Y-24808118D01*
X42449058Y-24724724D01*
X42587733Y-24667283D01*
X42636805Y-24657522D01*
X42734948Y-24638000D01*
X42885052Y-24638000D01*
X42983195Y-24657522D01*
X42983195Y-24657522D01*
G37*
G36*
X15043195Y-22117522D02*
X15092267Y-22127283D01*
X15230942Y-22184724D01*
X15355750Y-22268118D01*
X15461882Y-22374250D01*
X15545276Y-22499058D01*
X15602717Y-22637734D01*
X15632000Y-22784948D01*
X15632000Y-22935052D01*
X15602717Y-23082266D01*
X15545276Y-23220942D01*
X15461882Y-23345750D01*
X15355750Y-23451882D01*
X15355747Y-23451884D01*
X15230942Y-23535276D01*
X15092267Y-23592717D01*
X15043195Y-23602478D01*
X14945052Y-23622000D01*
X14794948Y-23622000D01*
X14696805Y-23602478D01*
X14647733Y-23592717D01*
X14509058Y-23535276D01*
X14384253Y-23451884D01*
X14384250Y-23451882D01*
X14278118Y-23345750D01*
X14194724Y-23220942D01*
X14137283Y-23082266D01*
X14108000Y-22935052D01*
X14108000Y-22784948D01*
X14137283Y-22637734D01*
X14194724Y-22499058D01*
X14278118Y-22374250D01*
X14384250Y-22268118D01*
X14509058Y-22184724D01*
X14647733Y-22127283D01*
X14696805Y-22117522D01*
X14794948Y-22098000D01*
X14945052Y-22098000D01*
X15043195Y-22117522D01*
X15043195Y-22117522D01*
G37*
G36*
X42983195Y-22117522D02*
X43032267Y-22127283D01*
X43170942Y-22184724D01*
X43295750Y-22268118D01*
X43401882Y-22374250D01*
X43485276Y-22499058D01*
X43542717Y-22637734D01*
X43572000Y-22784948D01*
X43572000Y-22935052D01*
X43542717Y-23082266D01*
X43485276Y-23220942D01*
X43401882Y-23345750D01*
X43295750Y-23451882D01*
X43295747Y-23451884D01*
X43170942Y-23535276D01*
X43032267Y-23592717D01*
X42983195Y-23602478D01*
X42885052Y-23622000D01*
X42734948Y-23622000D01*
X42636805Y-23602478D01*
X42587733Y-23592717D01*
X42449058Y-23535276D01*
X42324253Y-23451884D01*
X42324250Y-23451882D01*
X42218118Y-23345750D01*
X42134724Y-23220942D01*
X42077283Y-23082266D01*
X42048000Y-22935052D01*
X42048000Y-22784948D01*
X42077283Y-22637734D01*
X42134724Y-22499058D01*
X42218118Y-22374250D01*
X42324250Y-22268118D01*
X42449058Y-22184724D01*
X42587733Y-22127283D01*
X42636805Y-22117522D01*
X42734948Y-22098000D01*
X42885052Y-22098000D01*
X42983195Y-22117522D01*
X42983195Y-22117522D01*
G37*
G36*
X21015770Y-20115372D02*
X21131689Y-20138429D01*
X21313678Y-20213811D01*
X21477463Y-20323249D01*
X21616751Y-20462537D01*
X21726189Y-20626322D01*
X21801571Y-20808311D01*
X21840000Y-21001509D01*
X21840000Y-21198491D01*
X21801571Y-21391689D01*
X21726189Y-21573678D01*
X21616751Y-21737463D01*
X21477463Y-21876751D01*
X21313678Y-21986189D01*
X21131689Y-22061571D01*
X21015770Y-22084628D01*
X20938493Y-22100000D01*
X20741507Y-22100000D01*
X20664230Y-22084628D01*
X20548311Y-22061571D01*
X20366322Y-21986189D01*
X20202537Y-21876751D01*
X20063249Y-21737463D01*
X19953811Y-21573678D01*
X19878429Y-21391689D01*
X19840000Y-21198491D01*
X19840000Y-21001509D01*
X19878429Y-20808311D01*
X19953811Y-20626322D01*
X20063249Y-20462537D01*
X20202537Y-20323249D01*
X20366322Y-20213811D01*
X20548311Y-20138429D01*
X20664230Y-20115372D01*
X20741507Y-20100000D01*
X20938493Y-20100000D01*
X21015770Y-20115372D01*
X21015770Y-20115372D01*
G37*
G36*
X25515770Y-20115372D02*
X25631689Y-20138429D01*
X25813678Y-20213811D01*
X25977463Y-20323249D01*
X26116751Y-20462537D01*
X26226189Y-20626322D01*
X26301571Y-20808311D01*
X26340000Y-21001509D01*
X26340000Y-21198491D01*
X26301571Y-21391689D01*
X26226189Y-21573678D01*
X26116751Y-21737463D01*
X25977463Y-21876751D01*
X25813678Y-21986189D01*
X25631689Y-22061571D01*
X25515770Y-22084628D01*
X25438493Y-22100000D01*
X25241507Y-22100000D01*
X25164230Y-22084628D01*
X25048311Y-22061571D01*
X24866322Y-21986189D01*
X24702537Y-21876751D01*
X24563249Y-21737463D01*
X24453811Y-21573678D01*
X24378429Y-21391689D01*
X24340000Y-21198491D01*
X24340000Y-21001509D01*
X24378429Y-20808311D01*
X24453811Y-20626322D01*
X24563249Y-20462537D01*
X24702537Y-20323249D01*
X24866322Y-20213811D01*
X25048311Y-20138429D01*
X25164230Y-20115372D01*
X25241507Y-20100000D01*
X25438493Y-20100000D01*
X25515770Y-20115372D01*
X25515770Y-20115372D01*
G37*
G36*
X39530000Y-20530000D02*
X37830000Y-20530000D01*
X37830000Y-18830000D01*
X39530000Y-18830000D01*
X39530000Y-20530000D01*
X39530000Y-20530000D01*
G37*
G36*
X41386630Y-18842299D02*
X41546855Y-18890903D01*
X41694520Y-18969831D01*
X41823949Y-19076051D01*
X41930169Y-19205480D01*
X42009097Y-19353145D01*
X42057701Y-19513370D01*
X42074112Y-19680000D01*
X42057701Y-19846630D01*
X42009097Y-20006855D01*
X41930169Y-20154520D01*
X41823949Y-20283949D01*
X41694520Y-20390169D01*
X41546855Y-20469097D01*
X41386630Y-20517701D01*
X41261752Y-20530000D01*
X41178248Y-20530000D01*
X41053370Y-20517701D01*
X40893145Y-20469097D01*
X40745480Y-20390169D01*
X40616051Y-20283949D01*
X40509831Y-20154520D01*
X40430903Y-20006855D01*
X40382299Y-19846630D01*
X40365888Y-19680000D01*
X40382299Y-19513370D01*
X40430903Y-19353145D01*
X40509831Y-19205480D01*
X40616051Y-19076051D01*
X40745480Y-18969831D01*
X40893145Y-18890903D01*
X41053370Y-18842299D01*
X41178248Y-18830000D01*
X41261752Y-18830000D01*
X41386630Y-18842299D01*
X41386630Y-18842299D01*
G37*
G36*
X31600000Y-20500000D02*
X29900000Y-20500000D01*
X29900000Y-18800000D01*
X31600000Y-18800000D01*
X31600000Y-20500000D01*
X31600000Y-20500000D01*
G37*
G36*
X33456630Y-18812299D02*
X33616855Y-18860903D01*
X33764520Y-18939831D01*
X33893949Y-19046051D01*
X34000169Y-19175480D01*
X34079097Y-19323145D01*
X34127701Y-19483370D01*
X34144112Y-19650000D01*
X34127701Y-19816630D01*
X34079097Y-19976855D01*
X34000169Y-20124520D01*
X33893949Y-20253949D01*
X33764520Y-20360169D01*
X33616855Y-20439097D01*
X33456630Y-20487701D01*
X33331752Y-20500000D01*
X33248248Y-20500000D01*
X33123370Y-20487701D01*
X32963145Y-20439097D01*
X32815480Y-20360169D01*
X32686051Y-20253949D01*
X32579831Y-20124520D01*
X32500903Y-19976855D01*
X32452299Y-19816630D01*
X32435888Y-19650000D01*
X32452299Y-19483370D01*
X32500903Y-19323145D01*
X32579831Y-19175480D01*
X32686051Y-19046051D01*
X32815480Y-18939831D01*
X32963145Y-18860903D01*
X33123370Y-18812299D01*
X33248248Y-18800000D01*
X33331752Y-18800000D01*
X33456630Y-18812299D01*
X33456630Y-18812299D01*
G37*
G36*
X42006703Y-13701486D02*
X42297883Y-13822097D01*
X42559944Y-13997201D01*
X42782799Y-14220056D01*
X42957903Y-14482117D01*
X43078514Y-14773297D01*
X43140000Y-15082412D01*
X43140000Y-15397588D01*
X43078514Y-15706703D01*
X42957903Y-15997883D01*
X42782799Y-16259944D01*
X42559944Y-16482799D01*
X42297883Y-16657903D01*
X42006703Y-16778514D01*
X41697588Y-16840000D01*
X41382412Y-16840000D01*
X41073297Y-16778514D01*
X40782117Y-16657903D01*
X40520056Y-16482799D01*
X40297201Y-16259944D01*
X40122097Y-15997883D01*
X40001486Y-15706703D01*
X39940000Y-15397588D01*
X39940000Y-15082412D01*
X40001486Y-14773297D01*
X40122097Y-14482117D01*
X40297201Y-14220056D01*
X40520056Y-13997201D01*
X40782117Y-13822097D01*
X41073297Y-13701486D01*
X41382412Y-13640000D01*
X41697588Y-13640000D01*
X42006703Y-13701486D01*
X42006703Y-13701486D01*
G37*
G36*
X16606703Y-13701486D02*
X16897883Y-13822097D01*
X17159944Y-13997201D01*
X17382799Y-14220056D01*
X17557903Y-14482117D01*
X17678514Y-14773297D01*
X17740000Y-15082412D01*
X17740000Y-15397588D01*
X17678514Y-15706703D01*
X17557903Y-15997883D01*
X17382799Y-16259944D01*
X17159944Y-16482799D01*
X16897883Y-16657903D01*
X16606703Y-16778514D01*
X16297588Y-16840000D01*
X15982412Y-16840000D01*
X15673297Y-16778514D01*
X15382117Y-16657903D01*
X15120056Y-16482799D01*
X14897201Y-16259944D01*
X14722097Y-15997883D01*
X14601486Y-15706703D01*
X14540000Y-15397588D01*
X14540000Y-15082412D01*
X14601486Y-14773297D01*
X14722097Y-14482117D01*
X14897201Y-14220056D01*
X15120056Y-13997201D01*
X15382117Y-13822097D01*
X15673297Y-13701486D01*
X15982412Y-13640000D01*
X16297588Y-13640000D01*
X16606703Y-13701486D01*
X16606703Y-13701486D01*
G37*
G36*
X25515770Y-13615372D02*
X25631689Y-13638429D01*
X25813678Y-13713811D01*
X25977463Y-13823249D01*
X26116751Y-13962537D01*
X26226189Y-14126322D01*
X26301571Y-14308311D01*
X26340000Y-14501509D01*
X26340000Y-14698491D01*
X26301571Y-14891689D01*
X26226189Y-15073678D01*
X26116751Y-15237463D01*
X25977463Y-15376751D01*
X25813678Y-15486189D01*
X25631689Y-15561571D01*
X25515770Y-15584628D01*
X25438493Y-15600000D01*
X25241507Y-15600000D01*
X25164230Y-15584628D01*
X25048311Y-15561571D01*
X24866322Y-15486189D01*
X24702537Y-15376751D01*
X24563249Y-15237463D01*
X24453811Y-15073678D01*
X24378429Y-14891689D01*
X24340000Y-14698491D01*
X24340000Y-14501509D01*
X24378429Y-14308311D01*
X24453811Y-14126322D01*
X24563249Y-13962537D01*
X24702537Y-13823249D01*
X24866322Y-13713811D01*
X25048311Y-13638429D01*
X25164230Y-13615372D01*
X25241507Y-13600000D01*
X25438493Y-13600000D01*
X25515770Y-13615372D01*
X25515770Y-13615372D01*
G37*
G36*
X21015770Y-13615372D02*
X21131689Y-13638429D01*
X21313678Y-13713811D01*
X21477463Y-13823249D01*
X21616751Y-13962537D01*
X21726189Y-14126322D01*
X21801571Y-14308311D01*
X21840000Y-14501509D01*
X21840000Y-14698491D01*
X21801571Y-14891689D01*
X21726189Y-15073678D01*
X21616751Y-15237463D01*
X21477463Y-15376751D01*
X21313678Y-15486189D01*
X21131689Y-15561571D01*
X21015770Y-15584628D01*
X20938493Y-15600000D01*
X20741507Y-15600000D01*
X20664230Y-15584628D01*
X20548311Y-15561571D01*
X20366322Y-15486189D01*
X20202537Y-15376751D01*
X20063249Y-15237463D01*
X19953811Y-15073678D01*
X19878429Y-14891689D01*
X19840000Y-14698491D01*
X19840000Y-14501509D01*
X19878429Y-14308311D01*
X19953811Y-14126322D01*
X20063249Y-13962537D01*
X20202537Y-13823249D01*
X20366322Y-13713811D01*
X20548311Y-13638429D01*
X20664230Y-13615372D01*
X20741507Y-13600000D01*
X20938493Y-13600000D01*
X21015770Y-13615372D01*
X21015770Y-13615372D01*
G37*
M02*
