G04 #@! TF.GenerationSoftware,KiCad,Pcbnew,(5.0.2)-1*
G04 #@! TF.CreationDate,2019-06-21T18:54:03+05:30*
G04 #@! TF.ProjectId,CapacityOfBattery,43617061-6369-4747-994f-664261747465,rev?*
G04 #@! TF.SameCoordinates,Original*
G04 #@! TF.FileFunction,Legend,Bot*
G04 #@! TF.FilePolarity,Positive*
%FSLAX46Y46*%
G04 Gerber Fmt 4.6, Leading zero omitted, Abs format (unit mm)*
G04 Created by KiCad (PCBNEW (5.0.2)-1) date 06/21/19 18:54:03*
%MOMM*%
%LPD*%
G01*
G04 APERTURE LIST*
%ADD10C,0.300000*%
%ADD11C,0.150000*%
%ADD12C,0.010000*%
%ADD13C,0.120000*%
%ADD14C,0.250000*%
G04 APERTURE END LIST*
D10*
X33559142Y-67861571D02*
X33559142Y-67075857D01*
X33630571Y-66933000D01*
X33773428Y-66861571D01*
X34059142Y-66861571D01*
X34202000Y-66933000D01*
X33559142Y-67790142D02*
X33702000Y-67861571D01*
X34059142Y-67861571D01*
X34202000Y-67790142D01*
X34273428Y-67647285D01*
X34273428Y-67504428D01*
X34202000Y-67361571D01*
X34059142Y-67290142D01*
X33702000Y-67290142D01*
X33559142Y-67218714D01*
X32844857Y-66861571D02*
X32844857Y-68361571D01*
X32844857Y-66933000D02*
X32702000Y-66861571D01*
X32416285Y-66861571D01*
X32273428Y-66933000D01*
X32202000Y-67004428D01*
X32130571Y-67147285D01*
X32130571Y-67575857D01*
X32202000Y-67718714D01*
X32273428Y-67790142D01*
X32416285Y-67861571D01*
X32702000Y-67861571D01*
X32844857Y-67790142D01*
X31487714Y-66861571D02*
X31487714Y-68361571D01*
X31487714Y-66933000D02*
X31344857Y-66861571D01*
X31059142Y-66861571D01*
X30916285Y-66933000D01*
X30844857Y-67004428D01*
X30773428Y-67147285D01*
X30773428Y-67575857D01*
X30844857Y-67718714D01*
X30916285Y-67790142D01*
X31059142Y-67861571D01*
X31344857Y-67861571D01*
X31487714Y-67790142D01*
X30130571Y-67861571D02*
X30130571Y-66861571D01*
X30130571Y-66361571D02*
X30202000Y-66433000D01*
X30130571Y-66504428D01*
X30059142Y-66433000D01*
X30130571Y-66361571D01*
X30130571Y-66504428D01*
X29416285Y-67861571D02*
X29416285Y-66361571D01*
X29273428Y-67290142D02*
X28844857Y-67861571D01*
X28844857Y-66861571D02*
X29416285Y-67433000D01*
X27987714Y-67861571D02*
X28130571Y-67790142D01*
X28202000Y-67718714D01*
X28273428Y-67575857D01*
X28273428Y-67147285D01*
X28202000Y-67004428D01*
X28130571Y-66933000D01*
X27987714Y-66861571D01*
X27773428Y-66861571D01*
X27630571Y-66933000D01*
X27559142Y-67004428D01*
X27487714Y-67147285D01*
X27487714Y-67575857D01*
X27559142Y-67718714D01*
X27630571Y-67790142D01*
X27773428Y-67861571D01*
X27987714Y-67861571D01*
X26844857Y-67718714D02*
X26773428Y-67790142D01*
X26844857Y-67861571D01*
X26916285Y-67790142D01*
X26844857Y-67718714D01*
X26844857Y-67861571D01*
X25916285Y-67861571D02*
X26059142Y-67790142D01*
X26130571Y-67718714D01*
X26202000Y-67575857D01*
X26202000Y-67147285D01*
X26130571Y-67004428D01*
X26059142Y-66933000D01*
X25916285Y-66861571D01*
X25702000Y-66861571D01*
X25559142Y-66933000D01*
X25487714Y-67004428D01*
X25416285Y-67147285D01*
X25416285Y-67575857D01*
X25487714Y-67718714D01*
X25559142Y-67790142D01*
X25702000Y-67861571D01*
X25916285Y-67861571D01*
X24773428Y-67861571D02*
X24773428Y-66861571D01*
X24773428Y-67147285D02*
X24702000Y-67004428D01*
X24630571Y-66933000D01*
X24487714Y-66861571D01*
X24344857Y-66861571D01*
X23202000Y-66861571D02*
X23202000Y-68075857D01*
X23273428Y-68218714D01*
X23344857Y-68290142D01*
X23487714Y-68361571D01*
X23702000Y-68361571D01*
X23844857Y-68290142D01*
X23202000Y-67790142D02*
X23344857Y-67861571D01*
X23630571Y-67861571D01*
X23773428Y-67790142D01*
X23844857Y-67718714D01*
X23916285Y-67575857D01*
X23916285Y-67147285D01*
X23844857Y-67004428D01*
X23773428Y-66933000D01*
X23630571Y-66861571D01*
X23344857Y-66861571D01*
X23202000Y-66933000D01*
X36614285Y-14828571D02*
X36257142Y-15828571D01*
X35900000Y-14828571D01*
X33400000Y-15828571D02*
X34257142Y-15828571D01*
X33828571Y-15828571D02*
X33828571Y-14328571D01*
X33971428Y-14542857D01*
X34114285Y-14685714D01*
X34257142Y-14757142D01*
X32757142Y-15685714D02*
X32685714Y-15757142D01*
X32757142Y-15828571D01*
X32828571Y-15757142D01*
X32757142Y-15685714D01*
X32757142Y-15828571D01*
X31757142Y-14328571D02*
X31614285Y-14328571D01*
X31471428Y-14400000D01*
X31400000Y-14471428D01*
X31328571Y-14614285D01*
X31257142Y-14900000D01*
X31257142Y-15257142D01*
X31328571Y-15542857D01*
X31400000Y-15685714D01*
X31471428Y-15757142D01*
X31614285Y-15828571D01*
X31757142Y-15828571D01*
X31900000Y-15757142D01*
X31971428Y-15685714D01*
X32042857Y-15542857D01*
X32114285Y-15257142D01*
X32114285Y-14900000D01*
X32042857Y-14614285D01*
X31971428Y-14471428D01*
X31900000Y-14400000D01*
X31757142Y-14328571D01*
D11*
G36*
X16300000Y-22300000D02*
X35300000Y-22300000D01*
X35300000Y-34700000D01*
X16300000Y-34700000D01*
X16300000Y-22300000D01*
G37*
X16300000Y-22300000D02*
X35300000Y-22300000D01*
X35300000Y-34700000D01*
X16300000Y-34700000D01*
X16300000Y-22300000D01*
D12*
G04 #@! TO.C,*
G36*
X27771882Y-49634471D02*
X27713447Y-49713417D01*
X27711400Y-49730832D01*
X27747609Y-49870698D01*
X27837305Y-49952216D01*
X27952093Y-49962760D01*
X28063580Y-49889708D01*
X28064977Y-49888037D01*
X28101054Y-49776505D01*
X28067341Y-49657785D01*
X27985187Y-49585675D01*
X27877523Y-49583905D01*
X27771882Y-49634471D01*
X27771882Y-49634471D01*
G37*
X27771882Y-49634471D02*
X27713447Y-49713417D01*
X27711400Y-49730832D01*
X27747609Y-49870698D01*
X27837305Y-49952216D01*
X27952093Y-49962760D01*
X28063580Y-49889708D01*
X28064977Y-49888037D01*
X28101054Y-49776505D01*
X28067341Y-49657785D01*
X27985187Y-49585675D01*
X27877523Y-49583905D01*
X27771882Y-49634471D01*
G36*
X30800851Y-47430476D02*
X30719076Y-47452429D01*
X30708600Y-47465472D01*
X30661264Y-47483269D01*
X30533080Y-47497708D01*
X30344788Y-47507104D01*
X30162500Y-47509859D01*
X29680423Y-47536586D01*
X29169405Y-47610731D01*
X28661717Y-47725037D01*
X28189629Y-47872250D01*
X27787944Y-48043821D01*
X27309316Y-48334620D01*
X26867419Y-48695441D01*
X26488194Y-49103722D01*
X26341842Y-49301400D01*
X26183003Y-49544608D01*
X26063693Y-49758073D01*
X25963905Y-49982512D01*
X25863628Y-50258646D01*
X25846520Y-50309393D01*
X25793690Y-50477763D01*
X25757287Y-50629367D01*
X25734339Y-50789904D01*
X25721871Y-50985076D01*
X25716911Y-51240584D01*
X25716302Y-51435000D01*
X25718176Y-51739565D01*
X25725773Y-51968240D01*
X25742055Y-52146693D01*
X25769986Y-52300597D01*
X25812526Y-52455623D01*
X25846018Y-52559026D01*
X25962670Y-52881949D01*
X26081504Y-53145262D01*
X26223605Y-53389179D01*
X26410054Y-53653918D01*
X26442846Y-53697509D01*
X26558194Y-53853417D01*
X26642969Y-53974782D01*
X26683842Y-54042237D01*
X26685189Y-54049639D01*
X26634627Y-54075034D01*
X26517477Y-54129699D01*
X26371455Y-54196201D01*
X25969453Y-54415928D01*
X25559860Y-54708693D01*
X25169179Y-55051826D01*
X24823919Y-55422658D01*
X24615953Y-55697589D01*
X24300554Y-56222750D01*
X24066996Y-56756928D01*
X23899511Y-57337333D01*
X23876839Y-57441527D01*
X23853488Y-57612030D01*
X23834084Y-57874950D01*
X23818708Y-58221178D01*
X23807441Y-58641603D01*
X23800363Y-59127117D01*
X23797557Y-59668611D01*
X23799103Y-60256974D01*
X23805081Y-60883097D01*
X23815574Y-61537872D01*
X23830662Y-62212188D01*
X23833445Y-62318900D01*
X23866869Y-63576200D01*
X24443932Y-63576200D01*
X24477356Y-62318900D01*
X24487301Y-61905328D01*
X24496079Y-61464810D01*
X24503220Y-61027112D01*
X24508258Y-60621999D01*
X24510722Y-60279237D01*
X24510890Y-60188412D01*
X24511000Y-59315225D01*
X24726900Y-59289003D01*
X24881594Y-59270268D01*
X24981485Y-59258200D01*
X24409400Y-59258200D01*
X24409400Y-61849000D01*
X23901400Y-61849000D01*
X23901400Y-59258200D01*
X24409400Y-59258200D01*
X24981485Y-59258200D01*
X25095854Y-59244383D01*
X25328374Y-59216339D01*
X25374600Y-59210770D01*
X25587687Y-59182969D01*
X25773312Y-59154938D01*
X25899455Y-59131627D01*
X25920700Y-59126354D01*
X25981645Y-59114762D01*
X26015863Y-59137203D01*
X26031051Y-59214128D01*
X26034904Y-59365982D01*
X26035000Y-59430075D01*
X26042064Y-59604954D01*
X26060830Y-59724949D01*
X26085800Y-59766200D01*
X26111953Y-59719275D01*
X26129992Y-59593776D01*
X26136600Y-59415569D01*
X26138505Y-59230715D01*
X26151024Y-59121531D01*
X26184365Y-59062087D01*
X26248735Y-59026452D01*
X26296581Y-59009169D01*
X26410206Y-58971228D01*
X26472546Y-58953563D01*
X26474381Y-58953400D01*
X26482657Y-59000190D01*
X26488889Y-59124531D01*
X26492022Y-59302380D01*
X26492200Y-59359800D01*
X26495790Y-59568320D01*
X26508812Y-59693461D01*
X26534650Y-59753262D01*
X26568400Y-59766200D01*
X26606589Y-59747701D01*
X26629920Y-59680382D01*
X26641541Y-59546511D01*
X26644600Y-59336843D01*
X26644600Y-58907487D01*
X27077074Y-58704823D01*
X27289019Y-58601328D01*
X27484045Y-58498791D01*
X27630553Y-58414088D01*
X27668499Y-58388976D01*
X27774765Y-58322088D01*
X27866107Y-58301373D01*
X27988295Y-58321217D01*
X28061525Y-58340769D01*
X28236613Y-58374492D01*
X28483629Y-58402924D01*
X28772973Y-58424605D01*
X29075045Y-58438071D01*
X29360246Y-58441860D01*
X29598976Y-58434511D01*
X29718290Y-58422611D01*
X29959790Y-58386396D01*
X29925935Y-58055946D01*
X29890639Y-57829528D01*
X29835703Y-57597301D01*
X29822055Y-57554850D01*
X29469460Y-57554850D01*
X29462280Y-57771959D01*
X29450465Y-57908695D01*
X29428173Y-57986275D01*
X29389560Y-58025918D01*
X29333862Y-58047344D01*
X29195815Y-58066343D01*
X29035180Y-58060924D01*
X29032200Y-58060535D01*
X28923995Y-58051250D01*
X28734675Y-58040232D01*
X28484686Y-58028460D01*
X28194479Y-58016913D01*
X27940000Y-58008272D01*
X27611058Y-57997228D01*
X27366103Y-57986036D01*
X27187549Y-57972231D01*
X27057812Y-57953350D01*
X26959303Y-57926931D01*
X26874439Y-57890510D01*
X26797000Y-57848185D01*
X26223653Y-57464975D01*
X25729327Y-57019068D01*
X25310009Y-56506315D01*
X24992474Y-55982412D01*
X24753864Y-55526024D01*
X24923008Y-55457006D01*
X25135774Y-55412359D01*
X25288933Y-55419455D01*
X25485716Y-55450922D01*
X25379358Y-55315710D01*
X25285405Y-55167045D01*
X25270177Y-55051451D01*
X25339057Y-54962920D01*
X25497429Y-54895447D01*
X25750674Y-54843022D01*
X25810837Y-54834143D01*
X26390812Y-54803150D01*
X26967987Y-54871558D01*
X27534068Y-55037317D01*
X28080766Y-55298377D01*
X28336497Y-55458723D01*
X28733792Y-55761019D01*
X29037310Y-56070558D01*
X29254642Y-56401386D01*
X29393384Y-56767555D01*
X29461129Y-57183112D01*
X29469460Y-57554850D01*
X29822055Y-57554850D01*
X29793545Y-57466176D01*
X29734005Y-57287725D01*
X29724655Y-57192916D01*
X29766341Y-57176572D01*
X29834737Y-57214901D01*
X30252707Y-57454185D01*
X30735433Y-57630774D01*
X31263966Y-57739561D01*
X31819359Y-57775437D01*
X31909081Y-57774079D01*
X32461200Y-57759600D01*
X32449432Y-57446496D01*
X32412572Y-57202947D01*
X31967621Y-57202947D01*
X31953747Y-57304794D01*
X31871455Y-57357690D01*
X31707428Y-57375988D01*
X31611895Y-57376815D01*
X31373736Y-57363651D01*
X31116903Y-57331992D01*
X30988000Y-57308170D01*
X30781618Y-57255594D01*
X30580513Y-57192739D01*
X30480000Y-57154664D01*
X30212992Y-57088435D01*
X29947932Y-57079791D01*
X29619064Y-57091563D01*
X29544349Y-56850977D01*
X29502615Y-56699154D01*
X29497814Y-56600950D01*
X29531233Y-56514846D01*
X29556031Y-56473796D01*
X29648453Y-56311672D01*
X29761979Y-56089578D01*
X29879985Y-55841877D01*
X29985850Y-55602935D01*
X30032350Y-55489051D01*
X30125726Y-55250503D01*
X30352254Y-55351923D01*
X30489951Y-55418691D01*
X30584479Y-55474024D01*
X30605592Y-55492224D01*
X30659760Y-55540505D01*
X30770669Y-55623440D01*
X30865567Y-55689697D01*
X31223015Y-55978668D01*
X31532377Y-56319566D01*
X31775722Y-56689602D01*
X31926391Y-57037795D01*
X31967621Y-57202947D01*
X32412572Y-57202947D01*
X32386645Y-57031637D01*
X32234118Y-56607539D01*
X32000019Y-56192102D01*
X31706610Y-55818582D01*
X31477886Y-55599213D01*
X31200930Y-55381323D01*
X30906554Y-55185974D01*
X30625569Y-55034230D01*
X30462908Y-54968359D01*
X30218290Y-54887110D01*
X30288558Y-54570755D01*
X30366949Y-54059058D01*
X30392500Y-53494822D01*
X30367478Y-52908518D01*
X30294147Y-52330615D01*
X30174776Y-51791581D01*
X30054699Y-51426770D01*
X29960884Y-51184218D01*
X29891080Y-51023480D01*
X29827753Y-50933651D01*
X29753369Y-50903827D01*
X29650393Y-50923105D01*
X29501290Y-50980580D01*
X29402124Y-51020973D01*
X29137048Y-51127437D01*
X28954646Y-50816214D01*
X28732328Y-50357565D01*
X28570114Y-49854765D01*
X28528607Y-49634391D01*
X28259002Y-49634391D01*
X28241570Y-49797818D01*
X28128031Y-49942894D01*
X28041600Y-50002042D01*
X27957594Y-50046537D01*
X27894725Y-50052738D01*
X27812611Y-50015598D01*
X27724100Y-49962356D01*
X27594469Y-49834661D01*
X27556763Y-49676604D01*
X27613498Y-49506075D01*
X27652280Y-49451460D01*
X27785444Y-49358794D01*
X27948783Y-49340379D01*
X28104059Y-49395345D01*
X28177607Y-49463390D01*
X28259002Y-49634391D01*
X28528607Y-49634391D01*
X28471639Y-49331933D01*
X28440540Y-48813190D01*
X28480454Y-48322656D01*
X28538626Y-48056800D01*
X28586473Y-47920238D01*
X28636099Y-47828866D01*
X28648727Y-47816277D01*
X28760760Y-47779386D01*
X28877431Y-47795155D01*
X28950126Y-47856716D01*
X28951039Y-47858988D01*
X29018760Y-47911865D01*
X29143611Y-47900025D01*
X29307708Y-47827270D01*
X29410102Y-47761322D01*
X29486907Y-47713567D01*
X29572618Y-47681804D01*
X29689058Y-47662885D01*
X29858049Y-47653662D01*
X30101414Y-47650989D01*
X30175200Y-47650974D01*
X30439243Y-47652868D01*
X30625093Y-47660397D01*
X30756140Y-47677218D01*
X30855774Y-47706984D01*
X30947383Y-47753350D01*
X30988000Y-47777974D01*
X31191200Y-47904400D01*
X30810200Y-47915637D01*
X30524863Y-47930905D01*
X30211117Y-47959084D01*
X29889170Y-47997130D01*
X29579228Y-48041998D01*
X29301498Y-48090643D01*
X29076185Y-48140023D01*
X28923495Y-48187093D01*
X28885659Y-48205579D01*
X28858875Y-48279218D01*
X28880484Y-48363398D01*
X28903526Y-48455598D01*
X28891243Y-48490144D01*
X28896802Y-48511664D01*
X28942688Y-48543126D01*
X29040345Y-48564601D01*
X29210338Y-48552012D01*
X29413412Y-48515569D01*
X30109880Y-48417443D01*
X30833412Y-48406535D01*
X31592333Y-48483137D01*
X32262649Y-48615176D01*
X32551325Y-48690881D01*
X32815329Y-48773509D01*
X33039555Y-48856921D01*
X33208897Y-48934973D01*
X33308248Y-49001525D01*
X33325002Y-49047074D01*
X33270196Y-49081409D01*
X33254781Y-49076619D01*
X33157518Y-49046779D01*
X32975946Y-49018820D01*
X32727353Y-48993594D01*
X32429024Y-48971949D01*
X32098247Y-48954737D01*
X31752307Y-48942808D01*
X31408492Y-48937011D01*
X31084088Y-48938196D01*
X30796380Y-48947215D01*
X30716473Y-48951790D01*
X30469370Y-48971953D01*
X30192012Y-49001239D01*
X29903338Y-49036862D01*
X29622290Y-49076034D01*
X29367809Y-49115969D01*
X29158835Y-49153880D01*
X29014309Y-49186979D01*
X28954254Y-49211093D01*
X28933894Y-49264329D01*
X28899296Y-49379427D01*
X28888287Y-49419039D01*
X28857787Y-49542807D01*
X28866589Y-49592931D01*
X28926934Y-49593698D01*
X28971873Y-49584881D01*
X29391367Y-49501290D01*
X29743368Y-49438387D01*
X30056139Y-49393351D01*
X30357946Y-49363361D01*
X30677052Y-49345595D01*
X31041719Y-49337233D01*
X31470600Y-49335441D01*
X31903932Y-49337999D01*
X32260107Y-49346271D01*
X32563512Y-49362623D01*
X32838536Y-49389423D01*
X33109566Y-49429038D01*
X33400990Y-49483833D01*
X33731200Y-49554839D01*
X34079794Y-49643248D01*
X34460110Y-49757213D01*
X34830900Y-49883382D01*
X35150917Y-50008402D01*
X35204400Y-50031738D01*
X35560000Y-50190400D01*
X35382200Y-50218455D01*
X35247751Y-50226765D01*
X35154951Y-50209875D01*
X35148926Y-50206196D01*
X35083313Y-50183875D01*
X35069155Y-50190179D01*
X35012357Y-50191194D01*
X34877693Y-50174984D01*
X34686860Y-50144561D01*
X34515029Y-50113292D01*
X33742818Y-49992036D01*
X33043085Y-49936898D01*
X32417810Y-49948014D01*
X32287948Y-49959622D01*
X31844183Y-50012650D01*
X31415251Y-50076893D01*
X31027550Y-50147855D01*
X30707475Y-50221039D01*
X30632400Y-50241653D01*
X30431187Y-50297925D01*
X30226703Y-50352512D01*
X30161854Y-50369072D01*
X30029836Y-50408381D01*
X29978768Y-50448081D01*
X29989365Y-50505156D01*
X29994967Y-50516052D01*
X30024870Y-50601498D01*
X30019786Y-50633681D01*
X30030411Y-50681439D01*
X30059673Y-50711728D01*
X30131052Y-50730083D01*
X30271021Y-50717062D01*
X30490863Y-50671262D01*
X30598767Y-50644700D01*
X31524058Y-50448310D01*
X32445499Y-50327064D01*
X33343284Y-50282820D01*
X34139108Y-50312367D01*
X34705755Y-50367314D01*
X35195641Y-50432799D01*
X35633380Y-50512591D01*
X35984797Y-50594985D01*
X36158936Y-50635172D01*
X36296746Y-50657998D01*
X36363930Y-50659023D01*
X36358198Y-50617728D01*
X36286993Y-50522125D01*
X36162321Y-50383629D01*
X35996186Y-50213655D01*
X35800595Y-50023619D01*
X35587553Y-49824937D01*
X35369066Y-49629024D01*
X35157138Y-49447296D01*
X34963775Y-49291168D01*
X34800984Y-49172055D01*
X34798000Y-49170047D01*
X34430677Y-48940473D01*
X34030241Y-48719561D01*
X33624004Y-48520587D01*
X33239278Y-48356829D01*
X32903377Y-48241565D01*
X32867600Y-48231611D01*
X32476430Y-48131188D01*
X32154672Y-48060832D01*
X31876508Y-48015191D01*
X31753930Y-48000802D01*
X31481939Y-47953597D01*
X31299121Y-47873415D01*
X31196684Y-47754203D01*
X31165800Y-47595912D01*
X31160710Y-47488927D01*
X31127007Y-47438265D01*
X31037044Y-47422869D01*
X30937200Y-47421800D01*
X30800851Y-47430476D01*
X30800851Y-47430476D01*
G37*
X30800851Y-47430476D02*
X30719076Y-47452429D01*
X30708600Y-47465472D01*
X30661264Y-47483269D01*
X30533080Y-47497708D01*
X30344788Y-47507104D01*
X30162500Y-47509859D01*
X29680423Y-47536586D01*
X29169405Y-47610731D01*
X28661717Y-47725037D01*
X28189629Y-47872250D01*
X27787944Y-48043821D01*
X27309316Y-48334620D01*
X26867419Y-48695441D01*
X26488194Y-49103722D01*
X26341842Y-49301400D01*
X26183003Y-49544608D01*
X26063693Y-49758073D01*
X25963905Y-49982512D01*
X25863628Y-50258646D01*
X25846520Y-50309393D01*
X25793690Y-50477763D01*
X25757287Y-50629367D01*
X25734339Y-50789904D01*
X25721871Y-50985076D01*
X25716911Y-51240584D01*
X25716302Y-51435000D01*
X25718176Y-51739565D01*
X25725773Y-51968240D01*
X25742055Y-52146693D01*
X25769986Y-52300597D01*
X25812526Y-52455623D01*
X25846018Y-52559026D01*
X25962670Y-52881949D01*
X26081504Y-53145262D01*
X26223605Y-53389179D01*
X26410054Y-53653918D01*
X26442846Y-53697509D01*
X26558194Y-53853417D01*
X26642969Y-53974782D01*
X26683842Y-54042237D01*
X26685189Y-54049639D01*
X26634627Y-54075034D01*
X26517477Y-54129699D01*
X26371455Y-54196201D01*
X25969453Y-54415928D01*
X25559860Y-54708693D01*
X25169179Y-55051826D01*
X24823919Y-55422658D01*
X24615953Y-55697589D01*
X24300554Y-56222750D01*
X24066996Y-56756928D01*
X23899511Y-57337333D01*
X23876839Y-57441527D01*
X23853488Y-57612030D01*
X23834084Y-57874950D01*
X23818708Y-58221178D01*
X23807441Y-58641603D01*
X23800363Y-59127117D01*
X23797557Y-59668611D01*
X23799103Y-60256974D01*
X23805081Y-60883097D01*
X23815574Y-61537872D01*
X23830662Y-62212188D01*
X23833445Y-62318900D01*
X23866869Y-63576200D01*
X24443932Y-63576200D01*
X24477356Y-62318900D01*
X24487301Y-61905328D01*
X24496079Y-61464810D01*
X24503220Y-61027112D01*
X24508258Y-60621999D01*
X24510722Y-60279237D01*
X24510890Y-60188412D01*
X24511000Y-59315225D01*
X24726900Y-59289003D01*
X24881594Y-59270268D01*
X24981485Y-59258200D01*
X24409400Y-59258200D01*
X24409400Y-61849000D01*
X23901400Y-61849000D01*
X23901400Y-59258200D01*
X24409400Y-59258200D01*
X24981485Y-59258200D01*
X25095854Y-59244383D01*
X25328374Y-59216339D01*
X25374600Y-59210770D01*
X25587687Y-59182969D01*
X25773312Y-59154938D01*
X25899455Y-59131627D01*
X25920700Y-59126354D01*
X25981645Y-59114762D01*
X26015863Y-59137203D01*
X26031051Y-59214128D01*
X26034904Y-59365982D01*
X26035000Y-59430075D01*
X26042064Y-59604954D01*
X26060830Y-59724949D01*
X26085800Y-59766200D01*
X26111953Y-59719275D01*
X26129992Y-59593776D01*
X26136600Y-59415569D01*
X26138505Y-59230715D01*
X26151024Y-59121531D01*
X26184365Y-59062087D01*
X26248735Y-59026452D01*
X26296581Y-59009169D01*
X26410206Y-58971228D01*
X26472546Y-58953563D01*
X26474381Y-58953400D01*
X26482657Y-59000190D01*
X26488889Y-59124531D01*
X26492022Y-59302380D01*
X26492200Y-59359800D01*
X26495790Y-59568320D01*
X26508812Y-59693461D01*
X26534650Y-59753262D01*
X26568400Y-59766200D01*
X26606589Y-59747701D01*
X26629920Y-59680382D01*
X26641541Y-59546511D01*
X26644600Y-59336843D01*
X26644600Y-58907487D01*
X27077074Y-58704823D01*
X27289019Y-58601328D01*
X27484045Y-58498791D01*
X27630553Y-58414088D01*
X27668499Y-58388976D01*
X27774765Y-58322088D01*
X27866107Y-58301373D01*
X27988295Y-58321217D01*
X28061525Y-58340769D01*
X28236613Y-58374492D01*
X28483629Y-58402924D01*
X28772973Y-58424605D01*
X29075045Y-58438071D01*
X29360246Y-58441860D01*
X29598976Y-58434511D01*
X29718290Y-58422611D01*
X29959790Y-58386396D01*
X29925935Y-58055946D01*
X29890639Y-57829528D01*
X29835703Y-57597301D01*
X29822055Y-57554850D01*
X29469460Y-57554850D01*
X29462280Y-57771959D01*
X29450465Y-57908695D01*
X29428173Y-57986275D01*
X29389560Y-58025918D01*
X29333862Y-58047344D01*
X29195815Y-58066343D01*
X29035180Y-58060924D01*
X29032200Y-58060535D01*
X28923995Y-58051250D01*
X28734675Y-58040232D01*
X28484686Y-58028460D01*
X28194479Y-58016913D01*
X27940000Y-58008272D01*
X27611058Y-57997228D01*
X27366103Y-57986036D01*
X27187549Y-57972231D01*
X27057812Y-57953350D01*
X26959303Y-57926931D01*
X26874439Y-57890510D01*
X26797000Y-57848185D01*
X26223653Y-57464975D01*
X25729327Y-57019068D01*
X25310009Y-56506315D01*
X24992474Y-55982412D01*
X24753864Y-55526024D01*
X24923008Y-55457006D01*
X25135774Y-55412359D01*
X25288933Y-55419455D01*
X25485716Y-55450922D01*
X25379358Y-55315710D01*
X25285405Y-55167045D01*
X25270177Y-55051451D01*
X25339057Y-54962920D01*
X25497429Y-54895447D01*
X25750674Y-54843022D01*
X25810837Y-54834143D01*
X26390812Y-54803150D01*
X26967987Y-54871558D01*
X27534068Y-55037317D01*
X28080766Y-55298377D01*
X28336497Y-55458723D01*
X28733792Y-55761019D01*
X29037310Y-56070558D01*
X29254642Y-56401386D01*
X29393384Y-56767555D01*
X29461129Y-57183112D01*
X29469460Y-57554850D01*
X29822055Y-57554850D01*
X29793545Y-57466176D01*
X29734005Y-57287725D01*
X29724655Y-57192916D01*
X29766341Y-57176572D01*
X29834737Y-57214901D01*
X30252707Y-57454185D01*
X30735433Y-57630774D01*
X31263966Y-57739561D01*
X31819359Y-57775437D01*
X31909081Y-57774079D01*
X32461200Y-57759600D01*
X32449432Y-57446496D01*
X32412572Y-57202947D01*
X31967621Y-57202947D01*
X31953747Y-57304794D01*
X31871455Y-57357690D01*
X31707428Y-57375988D01*
X31611895Y-57376815D01*
X31373736Y-57363651D01*
X31116903Y-57331992D01*
X30988000Y-57308170D01*
X30781618Y-57255594D01*
X30580513Y-57192739D01*
X30480000Y-57154664D01*
X30212992Y-57088435D01*
X29947932Y-57079791D01*
X29619064Y-57091563D01*
X29544349Y-56850977D01*
X29502615Y-56699154D01*
X29497814Y-56600950D01*
X29531233Y-56514846D01*
X29556031Y-56473796D01*
X29648453Y-56311672D01*
X29761979Y-56089578D01*
X29879985Y-55841877D01*
X29985850Y-55602935D01*
X30032350Y-55489051D01*
X30125726Y-55250503D01*
X30352254Y-55351923D01*
X30489951Y-55418691D01*
X30584479Y-55474024D01*
X30605592Y-55492224D01*
X30659760Y-55540505D01*
X30770669Y-55623440D01*
X30865567Y-55689697D01*
X31223015Y-55978668D01*
X31532377Y-56319566D01*
X31775722Y-56689602D01*
X31926391Y-57037795D01*
X31967621Y-57202947D01*
X32412572Y-57202947D01*
X32386645Y-57031637D01*
X32234118Y-56607539D01*
X32000019Y-56192102D01*
X31706610Y-55818582D01*
X31477886Y-55599213D01*
X31200930Y-55381323D01*
X30906554Y-55185974D01*
X30625569Y-55034230D01*
X30462908Y-54968359D01*
X30218290Y-54887110D01*
X30288558Y-54570755D01*
X30366949Y-54059058D01*
X30392500Y-53494822D01*
X30367478Y-52908518D01*
X30294147Y-52330615D01*
X30174776Y-51791581D01*
X30054699Y-51426770D01*
X29960884Y-51184218D01*
X29891080Y-51023480D01*
X29827753Y-50933651D01*
X29753369Y-50903827D01*
X29650393Y-50923105D01*
X29501290Y-50980580D01*
X29402124Y-51020973D01*
X29137048Y-51127437D01*
X28954646Y-50816214D01*
X28732328Y-50357565D01*
X28570114Y-49854765D01*
X28528607Y-49634391D01*
X28259002Y-49634391D01*
X28241570Y-49797818D01*
X28128031Y-49942894D01*
X28041600Y-50002042D01*
X27957594Y-50046537D01*
X27894725Y-50052738D01*
X27812611Y-50015598D01*
X27724100Y-49962356D01*
X27594469Y-49834661D01*
X27556763Y-49676604D01*
X27613498Y-49506075D01*
X27652280Y-49451460D01*
X27785444Y-49358794D01*
X27948783Y-49340379D01*
X28104059Y-49395345D01*
X28177607Y-49463390D01*
X28259002Y-49634391D01*
X28528607Y-49634391D01*
X28471639Y-49331933D01*
X28440540Y-48813190D01*
X28480454Y-48322656D01*
X28538626Y-48056800D01*
X28586473Y-47920238D01*
X28636099Y-47828866D01*
X28648727Y-47816277D01*
X28760760Y-47779386D01*
X28877431Y-47795155D01*
X28950126Y-47856716D01*
X28951039Y-47858988D01*
X29018760Y-47911865D01*
X29143611Y-47900025D01*
X29307708Y-47827270D01*
X29410102Y-47761322D01*
X29486907Y-47713567D01*
X29572618Y-47681804D01*
X29689058Y-47662885D01*
X29858049Y-47653662D01*
X30101414Y-47650989D01*
X30175200Y-47650974D01*
X30439243Y-47652868D01*
X30625093Y-47660397D01*
X30756140Y-47677218D01*
X30855774Y-47706984D01*
X30947383Y-47753350D01*
X30988000Y-47777974D01*
X31191200Y-47904400D01*
X30810200Y-47915637D01*
X30524863Y-47930905D01*
X30211117Y-47959084D01*
X29889170Y-47997130D01*
X29579228Y-48041998D01*
X29301498Y-48090643D01*
X29076185Y-48140023D01*
X28923495Y-48187093D01*
X28885659Y-48205579D01*
X28858875Y-48279218D01*
X28880484Y-48363398D01*
X28903526Y-48455598D01*
X28891243Y-48490144D01*
X28896802Y-48511664D01*
X28942688Y-48543126D01*
X29040345Y-48564601D01*
X29210338Y-48552012D01*
X29413412Y-48515569D01*
X30109880Y-48417443D01*
X30833412Y-48406535D01*
X31592333Y-48483137D01*
X32262649Y-48615176D01*
X32551325Y-48690881D01*
X32815329Y-48773509D01*
X33039555Y-48856921D01*
X33208897Y-48934973D01*
X33308248Y-49001525D01*
X33325002Y-49047074D01*
X33270196Y-49081409D01*
X33254781Y-49076619D01*
X33157518Y-49046779D01*
X32975946Y-49018820D01*
X32727353Y-48993594D01*
X32429024Y-48971949D01*
X32098247Y-48954737D01*
X31752307Y-48942808D01*
X31408492Y-48937011D01*
X31084088Y-48938196D01*
X30796380Y-48947215D01*
X30716473Y-48951790D01*
X30469370Y-48971953D01*
X30192012Y-49001239D01*
X29903338Y-49036862D01*
X29622290Y-49076034D01*
X29367809Y-49115969D01*
X29158835Y-49153880D01*
X29014309Y-49186979D01*
X28954254Y-49211093D01*
X28933894Y-49264329D01*
X28899296Y-49379427D01*
X28888287Y-49419039D01*
X28857787Y-49542807D01*
X28866589Y-49592931D01*
X28926934Y-49593698D01*
X28971873Y-49584881D01*
X29391367Y-49501290D01*
X29743368Y-49438387D01*
X30056139Y-49393351D01*
X30357946Y-49363361D01*
X30677052Y-49345595D01*
X31041719Y-49337233D01*
X31470600Y-49335441D01*
X31903932Y-49337999D01*
X32260107Y-49346271D01*
X32563512Y-49362623D01*
X32838536Y-49389423D01*
X33109566Y-49429038D01*
X33400990Y-49483833D01*
X33731200Y-49554839D01*
X34079794Y-49643248D01*
X34460110Y-49757213D01*
X34830900Y-49883382D01*
X35150917Y-50008402D01*
X35204400Y-50031738D01*
X35560000Y-50190400D01*
X35382200Y-50218455D01*
X35247751Y-50226765D01*
X35154951Y-50209875D01*
X35148926Y-50206196D01*
X35083313Y-50183875D01*
X35069155Y-50190179D01*
X35012357Y-50191194D01*
X34877693Y-50174984D01*
X34686860Y-50144561D01*
X34515029Y-50113292D01*
X33742818Y-49992036D01*
X33043085Y-49936898D01*
X32417810Y-49948014D01*
X32287948Y-49959622D01*
X31844183Y-50012650D01*
X31415251Y-50076893D01*
X31027550Y-50147855D01*
X30707475Y-50221039D01*
X30632400Y-50241653D01*
X30431187Y-50297925D01*
X30226703Y-50352512D01*
X30161854Y-50369072D01*
X30029836Y-50408381D01*
X29978768Y-50448081D01*
X29989365Y-50505156D01*
X29994967Y-50516052D01*
X30024870Y-50601498D01*
X30019786Y-50633681D01*
X30030411Y-50681439D01*
X30059673Y-50711728D01*
X30131052Y-50730083D01*
X30271021Y-50717062D01*
X30490863Y-50671262D01*
X30598767Y-50644700D01*
X31524058Y-50448310D01*
X32445499Y-50327064D01*
X33343284Y-50282820D01*
X34139108Y-50312367D01*
X34705755Y-50367314D01*
X35195641Y-50432799D01*
X35633380Y-50512591D01*
X35984797Y-50594985D01*
X36158936Y-50635172D01*
X36296746Y-50657998D01*
X36363930Y-50659023D01*
X36358198Y-50617728D01*
X36286993Y-50522125D01*
X36162321Y-50383629D01*
X35996186Y-50213655D01*
X35800595Y-50023619D01*
X35587553Y-49824937D01*
X35369066Y-49629024D01*
X35157138Y-49447296D01*
X34963775Y-49291168D01*
X34800984Y-49172055D01*
X34798000Y-49170047D01*
X34430677Y-48940473D01*
X34030241Y-48719561D01*
X33624004Y-48520587D01*
X33239278Y-48356829D01*
X32903377Y-48241565D01*
X32867600Y-48231611D01*
X32476430Y-48131188D01*
X32154672Y-48060832D01*
X31876508Y-48015191D01*
X31753930Y-48000802D01*
X31481939Y-47953597D01*
X31299121Y-47873415D01*
X31196684Y-47754203D01*
X31165800Y-47595912D01*
X31160710Y-47488927D01*
X31127007Y-47438265D01*
X31037044Y-47422869D01*
X30937200Y-47421800D01*
X30800851Y-47430476D01*
G36*
X31728240Y-37824293D02*
X31600063Y-37856562D01*
X31484789Y-37913587D01*
X31385189Y-37993172D01*
X31304035Y-38093125D01*
X31244098Y-38211251D01*
X31209134Y-38339475D01*
X31201344Y-38468969D01*
X31221120Y-38593929D01*
X31265988Y-38710899D01*
X31333472Y-38816422D01*
X31421098Y-38907042D01*
X31526393Y-38979303D01*
X31646882Y-39029748D01*
X31715135Y-39046288D01*
X31774378Y-39056302D01*
X31820046Y-39060259D01*
X31863928Y-39057830D01*
X31917814Y-39048684D01*
X31961877Y-39039398D01*
X32086248Y-38997447D01*
X32197647Y-38929383D01*
X32293565Y-38837269D01*
X32371496Y-38723170D01*
X32390067Y-38686905D01*
X32411951Y-38638487D01*
X32425675Y-38597828D01*
X32433085Y-38555049D01*
X32436027Y-38500272D01*
X32436397Y-38438917D01*
X32430957Y-38326606D01*
X32413096Y-38234371D01*
X32379559Y-38153658D01*
X32327090Y-38075914D01*
X32275769Y-38016982D01*
X32180054Y-37929355D01*
X32080078Y-37868868D01*
X31969907Y-37832653D01*
X31866549Y-37818973D01*
X31728240Y-37824293D01*
X31728240Y-37824293D01*
G37*
X31728240Y-37824293D02*
X31600063Y-37856562D01*
X31484789Y-37913587D01*
X31385189Y-37993172D01*
X31304035Y-38093125D01*
X31244098Y-38211251D01*
X31209134Y-38339475D01*
X31201344Y-38468969D01*
X31221120Y-38593929D01*
X31265988Y-38710899D01*
X31333472Y-38816422D01*
X31421098Y-38907042D01*
X31526393Y-38979303D01*
X31646882Y-39029748D01*
X31715135Y-39046288D01*
X31774378Y-39056302D01*
X31820046Y-39060259D01*
X31863928Y-39057830D01*
X31917814Y-39048684D01*
X31961877Y-39039398D01*
X32086248Y-38997447D01*
X32197647Y-38929383D01*
X32293565Y-38837269D01*
X32371496Y-38723170D01*
X32390067Y-38686905D01*
X32411951Y-38638487D01*
X32425675Y-38597828D01*
X32433085Y-38555049D01*
X32436027Y-38500272D01*
X32436397Y-38438917D01*
X32430957Y-38326606D01*
X32413096Y-38234371D01*
X32379559Y-38153658D01*
X32327090Y-38075914D01*
X32275769Y-38016982D01*
X32180054Y-37929355D01*
X32080078Y-37868868D01*
X31969907Y-37832653D01*
X31866549Y-37818973D01*
X31728240Y-37824293D01*
G36*
X20465526Y-41080367D02*
X20465500Y-41392461D01*
X20465465Y-41675962D01*
X20465369Y-41932336D01*
X20465159Y-42163048D01*
X20464784Y-42369565D01*
X20464191Y-42553351D01*
X20463330Y-42715874D01*
X20462147Y-42858598D01*
X20460592Y-42982990D01*
X20458611Y-43090515D01*
X20456154Y-43182640D01*
X20453167Y-43260830D01*
X20449600Y-43326551D01*
X20445401Y-43381269D01*
X20440516Y-43426449D01*
X20434896Y-43463558D01*
X20428487Y-43494062D01*
X20421237Y-43519426D01*
X20413095Y-43541115D01*
X20404010Y-43560597D01*
X20393927Y-43579337D01*
X20382797Y-43598800D01*
X20375883Y-43610924D01*
X20330264Y-43691757D01*
X21472769Y-43691757D01*
X21472769Y-43564006D01*
X21473743Y-43506273D01*
X21476342Y-43462119D01*
X21480082Y-43438446D01*
X21481735Y-43436254D01*
X21496942Y-43445419D01*
X21527183Y-43469175D01*
X21557405Y-43494969D01*
X21630076Y-43549201D01*
X21722577Y-43603792D01*
X21825161Y-43653725D01*
X21928081Y-43693987D01*
X21969157Y-43706833D01*
X22060351Y-43726225D01*
X22170657Y-43739487D01*
X22289671Y-43746202D01*
X22406995Y-43745953D01*
X22512227Y-43738324D01*
X22562414Y-43730592D01*
X22746270Y-43679918D01*
X22915755Y-43603067D01*
X23069954Y-43500737D01*
X23207956Y-43373628D01*
X23328849Y-43222440D01*
X23417786Y-43074927D01*
X23490835Y-42919483D01*
X23546752Y-42760586D01*
X23586689Y-42592843D01*
X23611793Y-42410861D01*
X23623214Y-42209245D01*
X23624181Y-42106136D01*
X23621393Y-42030545D01*
X22517540Y-42030545D01*
X22517263Y-42154452D01*
X22513385Y-42271199D01*
X22505846Y-42373820D01*
X22494589Y-42455349D01*
X22491149Y-42471779D01*
X22448811Y-42614612D01*
X22393348Y-42730473D01*
X22324297Y-42819654D01*
X22241196Y-42882444D01*
X22143582Y-42919137D01*
X22030990Y-42930021D01*
X21902959Y-42915390D01*
X21818449Y-42894458D01*
X21753022Y-42870241D01*
X21680957Y-42835828D01*
X21626822Y-42804272D01*
X21532887Y-42742540D01*
X21532887Y-41211220D01*
X21622631Y-41153216D01*
X21727177Y-41098733D01*
X21839258Y-41063251D01*
X21952589Y-41047376D01*
X22060883Y-41051712D01*
X22157855Y-41076865D01*
X22200397Y-41097593D01*
X22277515Y-41154838D01*
X22342695Y-41230422D01*
X22397487Y-41327108D01*
X22443439Y-41447658D01*
X22482103Y-41594833D01*
X22483809Y-41602645D01*
X22497350Y-41685527D01*
X22507524Y-41789116D01*
X22514274Y-41906444D01*
X22517540Y-42030545D01*
X23621393Y-42030545D01*
X23613728Y-41822801D01*
X23584512Y-41562073D01*
X23536604Y-41324123D01*
X23470072Y-41109124D01*
X23384985Y-40917250D01*
X23281413Y-40748674D01*
X23159425Y-40603568D01*
X23019089Y-40482105D01*
X22958959Y-40440898D01*
X22824559Y-40366145D01*
X22687043Y-40313409D01*
X22540476Y-40281243D01*
X22378927Y-40268203D01*
X22255769Y-40269595D01*
X22083152Y-40284195D01*
X21933249Y-40313239D01*
X21801722Y-40358063D01*
X21684235Y-40420000D01*
X21619177Y-40465549D01*
X21580080Y-40494725D01*
X21551202Y-40514656D01*
X21540272Y-40520515D01*
X21538122Y-40506097D01*
X21536404Y-40465287D01*
X21535100Y-40401747D01*
X21534195Y-40319140D01*
X21533672Y-40221130D01*
X21533513Y-40111379D01*
X21533702Y-39993551D01*
X21534222Y-39871307D01*
X21535056Y-39748313D01*
X21536188Y-39628230D01*
X21537601Y-39514721D01*
X21539277Y-39411450D01*
X21541200Y-39322080D01*
X21543354Y-39250273D01*
X21545720Y-39199693D01*
X21546375Y-39190396D01*
X21556463Y-39096647D01*
X21571855Y-39023224D01*
X21595472Y-38960489D01*
X21630233Y-38898802D01*
X21638577Y-38886047D01*
X21671105Y-38837201D01*
X20465787Y-38837201D01*
X20465526Y-41080367D01*
X20465526Y-41080367D01*
G37*
X20465526Y-41080367D02*
X20465500Y-41392461D01*
X20465465Y-41675962D01*
X20465369Y-41932336D01*
X20465159Y-42163048D01*
X20464784Y-42369565D01*
X20464191Y-42553351D01*
X20463330Y-42715874D01*
X20462147Y-42858598D01*
X20460592Y-42982990D01*
X20458611Y-43090515D01*
X20456154Y-43182640D01*
X20453167Y-43260830D01*
X20449600Y-43326551D01*
X20445401Y-43381269D01*
X20440516Y-43426449D01*
X20434896Y-43463558D01*
X20428487Y-43494062D01*
X20421237Y-43519426D01*
X20413095Y-43541115D01*
X20404010Y-43560597D01*
X20393927Y-43579337D01*
X20382797Y-43598800D01*
X20375883Y-43610924D01*
X20330264Y-43691757D01*
X21472769Y-43691757D01*
X21472769Y-43564006D01*
X21473743Y-43506273D01*
X21476342Y-43462119D01*
X21480082Y-43438446D01*
X21481735Y-43436254D01*
X21496942Y-43445419D01*
X21527183Y-43469175D01*
X21557405Y-43494969D01*
X21630076Y-43549201D01*
X21722577Y-43603792D01*
X21825161Y-43653725D01*
X21928081Y-43693987D01*
X21969157Y-43706833D01*
X22060351Y-43726225D01*
X22170657Y-43739487D01*
X22289671Y-43746202D01*
X22406995Y-43745953D01*
X22512227Y-43738324D01*
X22562414Y-43730592D01*
X22746270Y-43679918D01*
X22915755Y-43603067D01*
X23069954Y-43500737D01*
X23207956Y-43373628D01*
X23328849Y-43222440D01*
X23417786Y-43074927D01*
X23490835Y-42919483D01*
X23546752Y-42760586D01*
X23586689Y-42592843D01*
X23611793Y-42410861D01*
X23623214Y-42209245D01*
X23624181Y-42106136D01*
X23621393Y-42030545D01*
X22517540Y-42030545D01*
X22517263Y-42154452D01*
X22513385Y-42271199D01*
X22505846Y-42373820D01*
X22494589Y-42455349D01*
X22491149Y-42471779D01*
X22448811Y-42614612D01*
X22393348Y-42730473D01*
X22324297Y-42819654D01*
X22241196Y-42882444D01*
X22143582Y-42919137D01*
X22030990Y-42930021D01*
X21902959Y-42915390D01*
X21818449Y-42894458D01*
X21753022Y-42870241D01*
X21680957Y-42835828D01*
X21626822Y-42804272D01*
X21532887Y-42742540D01*
X21532887Y-41211220D01*
X21622631Y-41153216D01*
X21727177Y-41098733D01*
X21839258Y-41063251D01*
X21952589Y-41047376D01*
X22060883Y-41051712D01*
X22157855Y-41076865D01*
X22200397Y-41097593D01*
X22277515Y-41154838D01*
X22342695Y-41230422D01*
X22397487Y-41327108D01*
X22443439Y-41447658D01*
X22482103Y-41594833D01*
X22483809Y-41602645D01*
X22497350Y-41685527D01*
X22507524Y-41789116D01*
X22514274Y-41906444D01*
X22517540Y-42030545D01*
X23621393Y-42030545D01*
X23613728Y-41822801D01*
X23584512Y-41562073D01*
X23536604Y-41324123D01*
X23470072Y-41109124D01*
X23384985Y-40917250D01*
X23281413Y-40748674D01*
X23159425Y-40603568D01*
X23019089Y-40482105D01*
X22958959Y-40440898D01*
X22824559Y-40366145D01*
X22687043Y-40313409D01*
X22540476Y-40281243D01*
X22378927Y-40268203D01*
X22255769Y-40269595D01*
X22083152Y-40284195D01*
X21933249Y-40313239D01*
X21801722Y-40358063D01*
X21684235Y-40420000D01*
X21619177Y-40465549D01*
X21580080Y-40494725D01*
X21551202Y-40514656D01*
X21540272Y-40520515D01*
X21538122Y-40506097D01*
X21536404Y-40465287D01*
X21535100Y-40401747D01*
X21534195Y-40319140D01*
X21533672Y-40221130D01*
X21533513Y-40111379D01*
X21533702Y-39993551D01*
X21534222Y-39871307D01*
X21535056Y-39748313D01*
X21536188Y-39628230D01*
X21537601Y-39514721D01*
X21539277Y-39411450D01*
X21541200Y-39322080D01*
X21543354Y-39250273D01*
X21545720Y-39199693D01*
X21546375Y-39190396D01*
X21556463Y-39096647D01*
X21571855Y-39023224D01*
X21595472Y-38960489D01*
X21630233Y-38898802D01*
X21638577Y-38886047D01*
X21671105Y-38837201D01*
X20465787Y-38837201D01*
X20465526Y-41080367D01*
G36*
X25142508Y-40273971D02*
X24940250Y-40300618D01*
X24760164Y-40345398D01*
X24601089Y-40408669D01*
X24461862Y-40490787D01*
X24358535Y-40575409D01*
X24266884Y-40674108D01*
X24195334Y-40780313D01*
X24138214Y-40903092D01*
X24117612Y-40960433D01*
X24100492Y-41012331D01*
X24085578Y-41060455D01*
X24072698Y-41107246D01*
X24061680Y-41155144D01*
X24052350Y-41206587D01*
X24044537Y-41264016D01*
X24038068Y-41329870D01*
X24032770Y-41406589D01*
X24028470Y-41496612D01*
X24024997Y-41602380D01*
X24022177Y-41726331D01*
X24019838Y-41870906D01*
X24017807Y-42038544D01*
X24015912Y-42231685D01*
X24014245Y-42421757D01*
X24012479Y-42629703D01*
X24010874Y-42809797D01*
X24009263Y-42964244D01*
X24007480Y-43095249D01*
X24005357Y-43205017D01*
X24002728Y-43295753D01*
X23999424Y-43369662D01*
X23995281Y-43428950D01*
X23990130Y-43475822D01*
X23983804Y-43512483D01*
X23976137Y-43541137D01*
X23966962Y-43563990D01*
X23956112Y-43583248D01*
X23943419Y-43601115D01*
X23928717Y-43619796D01*
X23922991Y-43627029D01*
X23901930Y-43657436D01*
X23892562Y-43678142D01*
X23892532Y-43678754D01*
X23907014Y-43681682D01*
X23948267Y-43684378D01*
X24013003Y-43686769D01*
X24097936Y-43688778D01*
X24199777Y-43690329D01*
X24315240Y-43691346D01*
X24441036Y-43691753D01*
X24455557Y-43691757D01*
X25018581Y-43691757D01*
X25022924Y-43563858D01*
X25027266Y-43435958D01*
X25109929Y-43503841D01*
X25239510Y-43593726D01*
X25385828Y-43666541D01*
X25500944Y-43706787D01*
X25592902Y-43726342D01*
X25703874Y-43739647D01*
X25823385Y-43746285D01*
X25940963Y-43745843D01*
X26046133Y-43737905D01*
X26094367Y-43730298D01*
X26280782Y-43679890D01*
X26449100Y-43606874D01*
X26598104Y-43512337D01*
X26726576Y-43397365D01*
X26833301Y-43263046D01*
X26917060Y-43110467D01*
X26976140Y-42942594D01*
X26992562Y-42867261D01*
X27002693Y-42784451D01*
X27007524Y-42684815D01*
X27008183Y-42639686D01*
X27008096Y-42635446D01*
X25996344Y-42635446D01*
X25983971Y-42735367D01*
X25946444Y-42820343D01*
X25881915Y-42894417D01*
X25875182Y-42900292D01*
X25810885Y-42946659D01*
X25742042Y-42976724D01*
X25661186Y-42992595D01*
X25560851Y-42996380D01*
X25536743Y-42995840D01*
X25465091Y-42992309D01*
X25411797Y-42985098D01*
X25365177Y-42971566D01*
X25313548Y-42949072D01*
X25299380Y-42942178D01*
X25218632Y-42894478D01*
X25156299Y-42837719D01*
X25139341Y-42817431D01*
X25079870Y-42742194D01*
X25079870Y-42481413D01*
X25080583Y-42376706D01*
X25082833Y-42299552D01*
X25086785Y-42247478D01*
X25092604Y-42218009D01*
X25098042Y-42209400D01*
X25119245Y-42205188D01*
X25164222Y-42201697D01*
X25226695Y-42199256D01*
X25300381Y-42198194D01*
X25312214Y-42198174D01*
X25473010Y-42205169D01*
X25609701Y-42226693D01*
X25724935Y-42263569D01*
X25821359Y-42316620D01*
X25894491Y-42379127D01*
X25953799Y-42456195D01*
X25986715Y-42540135D01*
X25996344Y-42635446D01*
X27008096Y-42635446D01*
X27005609Y-42514864D01*
X26994499Y-42409821D01*
X26972871Y-42314998D01*
X26938739Y-42220837D01*
X26906791Y-42151111D01*
X26828748Y-42024236D01*
X26724773Y-41907042D01*
X26598030Y-41801662D01*
X26451682Y-41710228D01*
X26288894Y-41634874D01*
X26112829Y-41577732D01*
X26026734Y-41557842D01*
X25845426Y-41528413D01*
X25647792Y-41508997D01*
X25446150Y-41500502D01*
X25277654Y-41502675D01*
X25062125Y-41511700D01*
X25072003Y-41433178D01*
X25097689Y-41301170D01*
X25139139Y-41193702D01*
X25197499Y-41109952D01*
X25273917Y-41049095D01*
X25369539Y-41010308D01*
X25485510Y-40992766D01*
X25622979Y-40995647D01*
X25673538Y-41000974D01*
X25861514Y-41034482D01*
X26043662Y-41089113D01*
X26169515Y-41139706D01*
X26229639Y-41165501D01*
X26280806Y-41186231D01*
X26315889Y-41199071D01*
X26326125Y-41201797D01*
X26339098Y-41189710D01*
X26361357Y-41151142D01*
X26393110Y-41085655D01*
X26434568Y-40992816D01*
X26485939Y-40872187D01*
X26494723Y-40851165D01*
X26534739Y-40754885D01*
X26570659Y-40667885D01*
X26600931Y-40593969D01*
X26624004Y-40536941D01*
X26638326Y-40500607D01*
X26642462Y-40488839D01*
X26629150Y-40482509D01*
X26594167Y-40475483D01*
X26556526Y-40470585D01*
X26516377Y-40464252D01*
X26452754Y-40451677D01*
X26371303Y-40434092D01*
X26277664Y-40412730D01*
X26177480Y-40388825D01*
X26139455Y-40379475D01*
X25999581Y-40345408D01*
X25882869Y-40318698D01*
X25783565Y-40298491D01*
X25695915Y-40283934D01*
X25614164Y-40274173D01*
X25532559Y-40268356D01*
X25445344Y-40265630D01*
X25368102Y-40265100D01*
X25142508Y-40273971D01*
X25142508Y-40273971D01*
G37*
X25142508Y-40273971D02*
X24940250Y-40300618D01*
X24760164Y-40345398D01*
X24601089Y-40408669D01*
X24461862Y-40490787D01*
X24358535Y-40575409D01*
X24266884Y-40674108D01*
X24195334Y-40780313D01*
X24138214Y-40903092D01*
X24117612Y-40960433D01*
X24100492Y-41012331D01*
X24085578Y-41060455D01*
X24072698Y-41107246D01*
X24061680Y-41155144D01*
X24052350Y-41206587D01*
X24044537Y-41264016D01*
X24038068Y-41329870D01*
X24032770Y-41406589D01*
X24028470Y-41496612D01*
X24024997Y-41602380D01*
X24022177Y-41726331D01*
X24019838Y-41870906D01*
X24017807Y-42038544D01*
X24015912Y-42231685D01*
X24014245Y-42421757D01*
X24012479Y-42629703D01*
X24010874Y-42809797D01*
X24009263Y-42964244D01*
X24007480Y-43095249D01*
X24005357Y-43205017D01*
X24002728Y-43295753D01*
X23999424Y-43369662D01*
X23995281Y-43428950D01*
X23990130Y-43475822D01*
X23983804Y-43512483D01*
X23976137Y-43541137D01*
X23966962Y-43563990D01*
X23956112Y-43583248D01*
X23943419Y-43601115D01*
X23928717Y-43619796D01*
X23922991Y-43627029D01*
X23901930Y-43657436D01*
X23892562Y-43678142D01*
X23892532Y-43678754D01*
X23907014Y-43681682D01*
X23948267Y-43684378D01*
X24013003Y-43686769D01*
X24097936Y-43688778D01*
X24199777Y-43690329D01*
X24315240Y-43691346D01*
X24441036Y-43691753D01*
X24455557Y-43691757D01*
X25018581Y-43691757D01*
X25022924Y-43563858D01*
X25027266Y-43435958D01*
X25109929Y-43503841D01*
X25239510Y-43593726D01*
X25385828Y-43666541D01*
X25500944Y-43706787D01*
X25592902Y-43726342D01*
X25703874Y-43739647D01*
X25823385Y-43746285D01*
X25940963Y-43745843D01*
X26046133Y-43737905D01*
X26094367Y-43730298D01*
X26280782Y-43679890D01*
X26449100Y-43606874D01*
X26598104Y-43512337D01*
X26726576Y-43397365D01*
X26833301Y-43263046D01*
X26917060Y-43110467D01*
X26976140Y-42942594D01*
X26992562Y-42867261D01*
X27002693Y-42784451D01*
X27007524Y-42684815D01*
X27008183Y-42639686D01*
X27008096Y-42635446D01*
X25996344Y-42635446D01*
X25983971Y-42735367D01*
X25946444Y-42820343D01*
X25881915Y-42894417D01*
X25875182Y-42900292D01*
X25810885Y-42946659D01*
X25742042Y-42976724D01*
X25661186Y-42992595D01*
X25560851Y-42996380D01*
X25536743Y-42995840D01*
X25465091Y-42992309D01*
X25411797Y-42985098D01*
X25365177Y-42971566D01*
X25313548Y-42949072D01*
X25299380Y-42942178D01*
X25218632Y-42894478D01*
X25156299Y-42837719D01*
X25139341Y-42817431D01*
X25079870Y-42742194D01*
X25079870Y-42481413D01*
X25080583Y-42376706D01*
X25082833Y-42299552D01*
X25086785Y-42247478D01*
X25092604Y-42218009D01*
X25098042Y-42209400D01*
X25119245Y-42205188D01*
X25164222Y-42201697D01*
X25226695Y-42199256D01*
X25300381Y-42198194D01*
X25312214Y-42198174D01*
X25473010Y-42205169D01*
X25609701Y-42226693D01*
X25724935Y-42263569D01*
X25821359Y-42316620D01*
X25894491Y-42379127D01*
X25953799Y-42456195D01*
X25986715Y-42540135D01*
X25996344Y-42635446D01*
X27008096Y-42635446D01*
X27005609Y-42514864D01*
X26994499Y-42409821D01*
X26972871Y-42314998D01*
X26938739Y-42220837D01*
X26906791Y-42151111D01*
X26828748Y-42024236D01*
X26724773Y-41907042D01*
X26598030Y-41801662D01*
X26451682Y-41710228D01*
X26288894Y-41634874D01*
X26112829Y-41577732D01*
X26026734Y-41557842D01*
X25845426Y-41528413D01*
X25647792Y-41508997D01*
X25446150Y-41500502D01*
X25277654Y-41502675D01*
X25062125Y-41511700D01*
X25072003Y-41433178D01*
X25097689Y-41301170D01*
X25139139Y-41193702D01*
X25197499Y-41109952D01*
X25273917Y-41049095D01*
X25369539Y-41010308D01*
X25485510Y-40992766D01*
X25622979Y-40995647D01*
X25673538Y-41000974D01*
X25861514Y-41034482D01*
X26043662Y-41089113D01*
X26169515Y-41139706D01*
X26229639Y-41165501D01*
X26280806Y-41186231D01*
X26315889Y-41199071D01*
X26326125Y-41201797D01*
X26339098Y-41189710D01*
X26361357Y-41151142D01*
X26393110Y-41085655D01*
X26434568Y-40992816D01*
X26485939Y-40872187D01*
X26494723Y-40851165D01*
X26534739Y-40754885D01*
X26570659Y-40667885D01*
X26600931Y-40593969D01*
X26624004Y-40536941D01*
X26638326Y-40500607D01*
X26642462Y-40488839D01*
X26629150Y-40482509D01*
X26594167Y-40475483D01*
X26556526Y-40470585D01*
X26516377Y-40464252D01*
X26452754Y-40451677D01*
X26371303Y-40434092D01*
X26277664Y-40412730D01*
X26177480Y-40388825D01*
X26139455Y-40379475D01*
X25999581Y-40345408D01*
X25882869Y-40318698D01*
X25783565Y-40298491D01*
X25695915Y-40283934D01*
X25614164Y-40274173D01*
X25532559Y-40268356D01*
X25445344Y-40265630D01*
X25368102Y-40265100D01*
X25142508Y-40273971D01*
G36*
X28264742Y-39052473D02*
X28051536Y-39080663D01*
X27833273Y-39134103D01*
X27607204Y-39213325D01*
X27370582Y-39318856D01*
X27355580Y-39326238D01*
X27278768Y-39363550D01*
X27210140Y-39395605D01*
X27154703Y-39420166D01*
X27117464Y-39434992D01*
X27104722Y-39438384D01*
X27079137Y-39445051D01*
X27072997Y-39450651D01*
X27079792Y-39464541D01*
X27101147Y-39499540D01*
X27134604Y-39551980D01*
X27177706Y-39618194D01*
X27227992Y-39694514D01*
X27283005Y-39777273D01*
X27340286Y-39862801D01*
X27397377Y-39947433D01*
X27451817Y-40027500D01*
X27501150Y-40099334D01*
X27542917Y-40159268D01*
X27574658Y-40203635D01*
X27593915Y-40228765D01*
X27596558Y-40231680D01*
X27610029Y-40225491D01*
X27639773Y-40202623D01*
X27680473Y-40167314D01*
X27701434Y-40148040D01*
X27829896Y-40047814D01*
X27971966Y-39974002D01*
X28125744Y-39927270D01*
X28289328Y-39908284D01*
X28381725Y-39909843D01*
X28543005Y-39932690D01*
X28688413Y-39980462D01*
X28818384Y-40053508D01*
X28933353Y-40152176D01*
X29033754Y-40276815D01*
X29120022Y-40427776D01*
X29169839Y-40543059D01*
X29228222Y-40723724D01*
X29271252Y-40920078D01*
X29299040Y-41127057D01*
X29311695Y-41339598D01*
X29309330Y-41552638D01*
X29292055Y-41761113D01*
X29259981Y-41959961D01*
X29213218Y-42144118D01*
X29151877Y-42308520D01*
X29130200Y-42354124D01*
X29039340Y-42506014D01*
X28932219Y-42634481D01*
X28810412Y-42738478D01*
X28675490Y-42816958D01*
X28529029Y-42868874D01*
X28372600Y-42893179D01*
X28317392Y-42894967D01*
X28155554Y-42880428D01*
X27995209Y-42836737D01*
X27838390Y-42764798D01*
X27687133Y-42665512D01*
X27565436Y-42561232D01*
X27503488Y-42501945D01*
X27262155Y-42897709D01*
X27202114Y-42996446D01*
X27147211Y-43087262D01*
X27099394Y-43166895D01*
X27060609Y-43232080D01*
X27032806Y-43279554D01*
X27017930Y-43306055D01*
X27015997Y-43310175D01*
X27026953Y-43323009D01*
X27061007Y-43346016D01*
X27113855Y-43377015D01*
X27181189Y-43413829D01*
X27258706Y-43454278D01*
X27342098Y-43496182D01*
X27427060Y-43537363D01*
X27509286Y-43575642D01*
X27584471Y-43608838D01*
X27648309Y-43634775D01*
X27679533Y-43645997D01*
X27857623Y-43696342D01*
X28041209Y-43729630D01*
X28237858Y-43746943D01*
X28406659Y-43750043D01*
X28497133Y-43748585D01*
X28584471Y-43745792D01*
X28660932Y-43742009D01*
X28718770Y-43737578D01*
X28737549Y-43735337D01*
X28922628Y-43696947D01*
X29111051Y-43636877D01*
X29294090Y-43558702D01*
X29463013Y-43466000D01*
X29566201Y-43395864D01*
X29735826Y-43251809D01*
X29893330Y-43083302D01*
X30035795Y-42894508D01*
X30160303Y-42689591D01*
X30263938Y-42472715D01*
X30322324Y-42316550D01*
X30389222Y-42072076D01*
X30433821Y-41813064D01*
X30456135Y-41545119D01*
X30456179Y-41273845D01*
X30433966Y-41004847D01*
X30389509Y-40743729D01*
X30322824Y-40496095D01*
X30317743Y-40480666D01*
X30234022Y-40264915D01*
X30131844Y-40067983D01*
X30007742Y-39884299D01*
X29858250Y-39708288D01*
X29799850Y-39648027D01*
X29618596Y-39483016D01*
X29432263Y-39346495D01*
X29237991Y-39236979D01*
X29032921Y-39152981D01*
X28814190Y-39093015D01*
X28686970Y-39069730D01*
X28475637Y-39049005D01*
X28264742Y-39052473D01*
X28264742Y-39052473D01*
G37*
X28264742Y-39052473D02*
X28051536Y-39080663D01*
X27833273Y-39134103D01*
X27607204Y-39213325D01*
X27370582Y-39318856D01*
X27355580Y-39326238D01*
X27278768Y-39363550D01*
X27210140Y-39395605D01*
X27154703Y-39420166D01*
X27117464Y-39434992D01*
X27104722Y-39438384D01*
X27079137Y-39445051D01*
X27072997Y-39450651D01*
X27079792Y-39464541D01*
X27101147Y-39499540D01*
X27134604Y-39551980D01*
X27177706Y-39618194D01*
X27227992Y-39694514D01*
X27283005Y-39777273D01*
X27340286Y-39862801D01*
X27397377Y-39947433D01*
X27451817Y-40027500D01*
X27501150Y-40099334D01*
X27542917Y-40159268D01*
X27574658Y-40203635D01*
X27593915Y-40228765D01*
X27596558Y-40231680D01*
X27610029Y-40225491D01*
X27639773Y-40202623D01*
X27680473Y-40167314D01*
X27701434Y-40148040D01*
X27829896Y-40047814D01*
X27971966Y-39974002D01*
X28125744Y-39927270D01*
X28289328Y-39908284D01*
X28381725Y-39909843D01*
X28543005Y-39932690D01*
X28688413Y-39980462D01*
X28818384Y-40053508D01*
X28933353Y-40152176D01*
X29033754Y-40276815D01*
X29120022Y-40427776D01*
X29169839Y-40543059D01*
X29228222Y-40723724D01*
X29271252Y-40920078D01*
X29299040Y-41127057D01*
X29311695Y-41339598D01*
X29309330Y-41552638D01*
X29292055Y-41761113D01*
X29259981Y-41959961D01*
X29213218Y-42144118D01*
X29151877Y-42308520D01*
X29130200Y-42354124D01*
X29039340Y-42506014D01*
X28932219Y-42634481D01*
X28810412Y-42738478D01*
X28675490Y-42816958D01*
X28529029Y-42868874D01*
X28372600Y-42893179D01*
X28317392Y-42894967D01*
X28155554Y-42880428D01*
X27995209Y-42836737D01*
X27838390Y-42764798D01*
X27687133Y-42665512D01*
X27565436Y-42561232D01*
X27503488Y-42501945D01*
X27262155Y-42897709D01*
X27202114Y-42996446D01*
X27147211Y-43087262D01*
X27099394Y-43166895D01*
X27060609Y-43232080D01*
X27032806Y-43279554D01*
X27017930Y-43306055D01*
X27015997Y-43310175D01*
X27026953Y-43323009D01*
X27061007Y-43346016D01*
X27113855Y-43377015D01*
X27181189Y-43413829D01*
X27258706Y-43454278D01*
X27342098Y-43496182D01*
X27427060Y-43537363D01*
X27509286Y-43575642D01*
X27584471Y-43608838D01*
X27648309Y-43634775D01*
X27679533Y-43645997D01*
X27857623Y-43696342D01*
X28041209Y-43729630D01*
X28237858Y-43746943D01*
X28406659Y-43750043D01*
X28497133Y-43748585D01*
X28584471Y-43745792D01*
X28660932Y-43742009D01*
X28718770Y-43737578D01*
X28737549Y-43735337D01*
X28922628Y-43696947D01*
X29111051Y-43636877D01*
X29294090Y-43558702D01*
X29463013Y-43466000D01*
X29566201Y-43395864D01*
X29735826Y-43251809D01*
X29893330Y-43083302D01*
X30035795Y-42894508D01*
X30160303Y-42689591D01*
X30263938Y-42472715D01*
X30322324Y-42316550D01*
X30389222Y-42072076D01*
X30433821Y-41813064D01*
X30456135Y-41545119D01*
X30456179Y-41273845D01*
X30433966Y-41004847D01*
X30389509Y-40743729D01*
X30322824Y-40496095D01*
X30317743Y-40480666D01*
X30234022Y-40264915D01*
X30131844Y-40067983D01*
X30007742Y-39884299D01*
X29858250Y-39708288D01*
X29799850Y-39648027D01*
X29618596Y-39483016D01*
X29432263Y-39346495D01*
X29237991Y-39236979D01*
X29032921Y-39152981D01*
X28814190Y-39093015D01*
X28686970Y-39069730D01*
X28475637Y-39049005D01*
X28264742Y-39052473D01*
G36*
X32624722Y-38440024D02*
X32610256Y-38591719D01*
X32568163Y-38735003D01*
X32500393Y-38866807D01*
X32408899Y-38984058D01*
X32295635Y-39083687D01*
X32166510Y-39160729D01*
X32025028Y-39213479D01*
X31882554Y-39238201D01*
X31741896Y-39236684D01*
X31605864Y-39210717D01*
X31477267Y-39162090D01*
X31358914Y-39092593D01*
X31253614Y-39004014D01*
X31164177Y-38898143D01*
X31093412Y-38776770D01*
X31044129Y-38641683D01*
X31019135Y-38494674D01*
X31016556Y-38428244D01*
X31016556Y-38311165D01*
X30947420Y-38311165D01*
X30899081Y-38314953D01*
X30863271Y-38330662D01*
X30827183Y-38362266D01*
X30776083Y-38413367D01*
X30776083Y-41331138D01*
X30776095Y-41680138D01*
X30776138Y-42000332D01*
X30776223Y-42292974D01*
X30776361Y-42559318D01*
X30776562Y-42800617D01*
X30776838Y-43018125D01*
X30777200Y-43213095D01*
X30777658Y-43386780D01*
X30778223Y-43540435D01*
X30778906Y-43675313D01*
X30779717Y-43792668D01*
X30780669Y-43893753D01*
X30781771Y-43979821D01*
X30783035Y-44052127D01*
X30784470Y-44111923D01*
X30786089Y-44160464D01*
X30787902Y-44199003D01*
X30789920Y-44228793D01*
X30792154Y-44251089D01*
X30794614Y-44267143D01*
X30797312Y-44278210D01*
X30800258Y-44285542D01*
X30801699Y-44288005D01*
X30807241Y-44297340D01*
X30811947Y-44305923D01*
X30817045Y-44313784D01*
X30823765Y-44320955D01*
X30833336Y-44327467D01*
X30846986Y-44333353D01*
X30865945Y-44338642D01*
X30891442Y-44343368D01*
X30924705Y-44347560D01*
X30966964Y-44351251D01*
X31019448Y-44354472D01*
X31083386Y-44357254D01*
X31160007Y-44359630D01*
X31250540Y-44361629D01*
X31356214Y-44363284D01*
X31478258Y-44364627D01*
X31617901Y-44365687D01*
X31776372Y-44366498D01*
X31954900Y-44367090D01*
X32154715Y-44367495D01*
X32377045Y-44367744D01*
X32623119Y-44367869D01*
X32894166Y-44367901D01*
X33191416Y-44367871D01*
X33516097Y-44367811D01*
X33869438Y-44367752D01*
X33920541Y-44367746D01*
X34275985Y-44367689D01*
X34602594Y-44367595D01*
X34901592Y-44367455D01*
X35174204Y-44367259D01*
X35421653Y-44366997D01*
X35645164Y-44366660D01*
X35845960Y-44366239D01*
X36025266Y-44365723D01*
X36184307Y-44365104D01*
X36324306Y-44364371D01*
X36446487Y-44363515D01*
X36552075Y-44362526D01*
X36642293Y-44361394D01*
X36718366Y-44360111D01*
X36781519Y-44358666D01*
X36832975Y-44357049D01*
X36873958Y-44355252D01*
X36905692Y-44353265D01*
X36929402Y-44351077D01*
X36946312Y-44348679D01*
X36957646Y-44346063D01*
X36963448Y-44343841D01*
X36974714Y-44339088D01*
X36985058Y-44335578D01*
X36994517Y-44332068D01*
X37003132Y-44327313D01*
X37010942Y-44320069D01*
X37017985Y-44309091D01*
X37024302Y-44293135D01*
X37029931Y-44270955D01*
X37034912Y-44241309D01*
X37039284Y-44202951D01*
X37043086Y-44154637D01*
X37046358Y-44095122D01*
X37049139Y-44023163D01*
X37051467Y-43937513D01*
X37053383Y-43836931D01*
X37054925Y-43720169D01*
X37056134Y-43585985D01*
X37057047Y-43433134D01*
X37057705Y-43260371D01*
X37058146Y-43066452D01*
X37058411Y-42850133D01*
X37058536Y-42610168D01*
X37058564Y-42345314D01*
X37058533Y-42054326D01*
X37058481Y-41735960D01*
X37058449Y-41388970D01*
X37058449Y-41332852D01*
X37058467Y-40982841D01*
X37058501Y-40661636D01*
X37058515Y-40367983D01*
X37058476Y-40100628D01*
X37058351Y-39858317D01*
X37058103Y-39639797D01*
X37057700Y-39443813D01*
X37057107Y-39269113D01*
X37056335Y-39122763D01*
X36653149Y-39122763D01*
X36600174Y-39199775D01*
X36585302Y-39220768D01*
X36571895Y-39239356D01*
X36559876Y-39257120D01*
X36549170Y-39275638D01*
X36539703Y-39296491D01*
X36531397Y-39321257D01*
X36524178Y-39351517D01*
X36517969Y-39388850D01*
X36512696Y-39434835D01*
X36508282Y-39491052D01*
X36504652Y-39559080D01*
X36501730Y-39640500D01*
X36499441Y-39736890D01*
X36497709Y-39849830D01*
X36496458Y-39980899D01*
X36495614Y-40131678D01*
X36495099Y-40303746D01*
X36494839Y-40498681D01*
X36494757Y-40718065D01*
X36494779Y-40963476D01*
X36494828Y-41236494D01*
X36494840Y-41399745D01*
X36494808Y-41688583D01*
X36494763Y-41948943D01*
X36494779Y-42182406D01*
X36494931Y-42390554D01*
X36495294Y-42574969D01*
X36495943Y-42737231D01*
X36496953Y-42878922D01*
X36498399Y-43001624D01*
X36500355Y-43106917D01*
X36502896Y-43196383D01*
X36506097Y-43271603D01*
X36510033Y-43334159D01*
X36514780Y-43385632D01*
X36520410Y-43427603D01*
X36527001Y-43461653D01*
X36534626Y-43489365D01*
X36543360Y-43512318D01*
X36553279Y-43532096D01*
X36564456Y-43550278D01*
X36576967Y-43568446D01*
X36590888Y-43588182D01*
X36598997Y-43600019D01*
X36650618Y-43676728D01*
X35942914Y-43676728D01*
X35778826Y-43676681D01*
X35642367Y-43676481D01*
X35531109Y-43676033D01*
X35442621Y-43675244D01*
X35374476Y-43674020D01*
X35324243Y-43672269D01*
X35289493Y-43669897D01*
X35267798Y-43666810D01*
X35256727Y-43662916D01*
X35253851Y-43658120D01*
X35256741Y-43652330D01*
X35258333Y-43650426D01*
X35291817Y-43601070D01*
X35326296Y-43530773D01*
X35357729Y-43448227D01*
X35368738Y-43413061D01*
X35374884Y-43389175D01*
X35380078Y-43361135D01*
X35384430Y-43326165D01*
X35388048Y-43281489D01*
X35391043Y-43224329D01*
X35393523Y-43151910D01*
X35395598Y-43061455D01*
X35397377Y-42950188D01*
X35398970Y-42815331D01*
X35400486Y-42654109D01*
X35400988Y-42594597D01*
X35402342Y-42427976D01*
X35403352Y-42289026D01*
X35403941Y-42175361D01*
X35404031Y-42084596D01*
X35403544Y-42014344D01*
X35402403Y-41962219D01*
X35400530Y-41925834D01*
X35397847Y-41902804D01*
X35394276Y-41890742D01*
X35389739Y-41887261D01*
X35384159Y-41889976D01*
X35378203Y-41895722D01*
X35364417Y-41912943D01*
X35335050Y-41951651D01*
X35292179Y-42009010D01*
X35237882Y-42082181D01*
X35174237Y-42168326D01*
X35103323Y-42264609D01*
X35027216Y-42368192D01*
X34947995Y-42476237D01*
X34867738Y-42585907D01*
X34788522Y-42694364D01*
X34712426Y-42798770D01*
X34641527Y-42896289D01*
X34577903Y-42984083D01*
X34523633Y-43059314D01*
X34480793Y-43119144D01*
X34451462Y-43160737D01*
X34445380Y-43169567D01*
X34414864Y-43218698D01*
X34379172Y-43282590D01*
X34345357Y-43348542D01*
X34341069Y-43357437D01*
X34312208Y-43421602D01*
X34295452Y-43471610D01*
X34287823Y-43519307D01*
X34286334Y-43575278D01*
X34287178Y-43676728D01*
X32750204Y-43676728D01*
X32871575Y-43551938D01*
X32933879Y-43485510D01*
X33000830Y-43410316D01*
X33062132Y-43338063D01*
X33089325Y-43304310D01*
X33129849Y-43251661D01*
X33183176Y-43180817D01*
X33247747Y-43093947D01*
X33322001Y-42993222D01*
X33404381Y-42880809D01*
X33493326Y-42758879D01*
X33587278Y-42629602D01*
X33684678Y-42495146D01*
X33783965Y-42357681D01*
X33883581Y-42219377D01*
X33981967Y-42082403D01*
X34077564Y-41948929D01*
X34168812Y-41821124D01*
X34254152Y-41701157D01*
X34332025Y-41591199D01*
X34400871Y-41493418D01*
X34459132Y-41409984D01*
X34505249Y-41343066D01*
X34537661Y-41294834D01*
X34554810Y-41267458D01*
X34557150Y-41261996D01*
X34546554Y-41246917D01*
X34518868Y-41210730D01*
X34475909Y-41155701D01*
X34419490Y-41084093D01*
X34351426Y-40998171D01*
X34273533Y-40900198D01*
X34187625Y-40792438D01*
X34095517Y-40677155D01*
X33999023Y-40556614D01*
X33899959Y-40433079D01*
X33820438Y-40334082D01*
X32474426Y-40334082D01*
X32466558Y-40351333D01*
X32447480Y-40380955D01*
X32446086Y-40382928D01*
X32421073Y-40423073D01*
X32394916Y-40472109D01*
X32389725Y-40482941D01*
X32385017Y-40494163D01*
X32380857Y-40507634D01*
X32377203Y-40525210D01*
X32374015Y-40548745D01*
X32371255Y-40580094D01*
X32368881Y-40621112D01*
X32366853Y-40673652D01*
X32365132Y-40739571D01*
X32363676Y-40820723D01*
X32362447Y-40918962D01*
X32361404Y-41036143D01*
X32360506Y-41174121D01*
X32359714Y-41334751D01*
X32358988Y-41519888D01*
X32358287Y-41731386D01*
X32357577Y-41969509D01*
X32356860Y-42215967D01*
X32356282Y-42434229D01*
X32355931Y-42626155D01*
X32355898Y-42793607D01*
X32356272Y-42938449D01*
X32357143Y-43062540D01*
X32358601Y-43167744D01*
X32360736Y-43255922D01*
X32363637Y-43328936D01*
X32367394Y-43388648D01*
X32372097Y-43436920D01*
X32377835Y-43475614D01*
X32384699Y-43506591D01*
X32392778Y-43531714D01*
X32402162Y-43552845D01*
X32412940Y-43571845D01*
X32425203Y-43590576D01*
X32436520Y-43607175D01*
X32459334Y-43642182D01*
X32472843Y-43665593D01*
X32474426Y-43669880D01*
X32459905Y-43671314D01*
X32418375Y-43672646D01*
X32352889Y-43673845D01*
X32266495Y-43674877D01*
X32162246Y-43675712D01*
X32043192Y-43676317D01*
X31912384Y-43676660D01*
X31820639Y-43676728D01*
X31680855Y-43676434D01*
X31551924Y-43675593D01*
X31436758Y-43674263D01*
X31338270Y-43672503D01*
X31259376Y-43670372D01*
X31202988Y-43667928D01*
X31172020Y-43665231D01*
X31166852Y-43663538D01*
X31177100Y-43643697D01*
X31187749Y-43633006D01*
X31205286Y-43610204D01*
X31228237Y-43569929D01*
X31244110Y-43537231D01*
X31279574Y-43458799D01*
X31283668Y-41891964D01*
X31287762Y-40325130D01*
X31881094Y-40325130D01*
X32011323Y-40325349D01*
X32131670Y-40325973D01*
X32238932Y-40326953D01*
X32329907Y-40328243D01*
X32401393Y-40329792D01*
X32450186Y-40331554D01*
X32473085Y-40333479D01*
X32474426Y-40334082D01*
X33820438Y-40334082D01*
X33800140Y-40308813D01*
X33701380Y-40186081D01*
X33605493Y-40067147D01*
X33514296Y-39954274D01*
X33429602Y-39849728D01*
X33353227Y-39755771D01*
X33286984Y-39674668D01*
X33232690Y-39608684D01*
X33209838Y-39581165D01*
X33094952Y-39447149D01*
X32992971Y-39336303D01*
X32901355Y-39246009D01*
X32817566Y-39173651D01*
X32805077Y-39163842D01*
X32752473Y-39123096D01*
X33505864Y-39122930D01*
X34259254Y-39122763D01*
X34252213Y-39186639D01*
X34256610Y-39262984D01*
X34285276Y-39353882D01*
X34338496Y-39460057D01*
X34398817Y-39556292D01*
X34420409Y-39586441D01*
X34457758Y-39636441D01*
X34508637Y-39703442D01*
X34570820Y-39784591D01*
X34642081Y-39877038D01*
X34720192Y-39977933D01*
X34802928Y-40084423D01*
X34888063Y-40193658D01*
X34973369Y-40302787D01*
X35056621Y-40408959D01*
X35135592Y-40509323D01*
X35208055Y-40601027D01*
X35271785Y-40681221D01*
X35324555Y-40747054D01*
X35364138Y-40795674D01*
X35388309Y-40824230D01*
X35392381Y-40828621D01*
X35396188Y-40817962D01*
X35399135Y-40777630D01*
X35401217Y-40708000D01*
X35402429Y-40609447D01*
X35402766Y-40482344D01*
X35402223Y-40327068D01*
X35401013Y-40167319D01*
X35399253Y-39991431D01*
X35397223Y-39842667D01*
X35394593Y-39718092D01*
X35391031Y-39614771D01*
X35386206Y-39529769D01*
X35379787Y-39460152D01*
X35371444Y-39402984D01*
X35360844Y-39355331D01*
X35347657Y-39314257D01*
X35331552Y-39276827D01*
X35312197Y-39240107D01*
X35292650Y-39206771D01*
X35242063Y-39122763D01*
X36653149Y-39122763D01*
X37056335Y-39122763D01*
X37056291Y-39114442D01*
X37055218Y-38978547D01*
X37053853Y-38860174D01*
X37052162Y-38758069D01*
X37050112Y-38670979D01*
X37047668Y-38597650D01*
X37044796Y-38536829D01*
X37041462Y-38487260D01*
X37037633Y-38447692D01*
X37033274Y-38416870D01*
X37028351Y-38393540D01*
X37022830Y-38376448D01*
X37016678Y-38364342D01*
X37009859Y-38355967D01*
X37002340Y-38350070D01*
X36994087Y-38345396D01*
X36985067Y-38340693D01*
X36977084Y-38335942D01*
X36970117Y-38332512D01*
X36959232Y-38329412D01*
X36942972Y-38326625D01*
X36919879Y-38324134D01*
X36888497Y-38321923D01*
X36847368Y-38319976D01*
X36795034Y-38318276D01*
X36730039Y-38316807D01*
X36650925Y-38315552D01*
X36556236Y-38314494D01*
X36444512Y-38313618D01*
X36314299Y-38312907D01*
X36164137Y-38312345D01*
X35992570Y-38311914D01*
X35798141Y-38311599D01*
X35579392Y-38311383D01*
X35334866Y-38311250D01*
X35063105Y-38311183D01*
X34781996Y-38311165D01*
X32624722Y-38311165D01*
X32624722Y-38440024D01*
X32624722Y-38440024D01*
G37*
X32624722Y-38440024D02*
X32610256Y-38591719D01*
X32568163Y-38735003D01*
X32500393Y-38866807D01*
X32408899Y-38984058D01*
X32295635Y-39083687D01*
X32166510Y-39160729D01*
X32025028Y-39213479D01*
X31882554Y-39238201D01*
X31741896Y-39236684D01*
X31605864Y-39210717D01*
X31477267Y-39162090D01*
X31358914Y-39092593D01*
X31253614Y-39004014D01*
X31164177Y-38898143D01*
X31093412Y-38776770D01*
X31044129Y-38641683D01*
X31019135Y-38494674D01*
X31016556Y-38428244D01*
X31016556Y-38311165D01*
X30947420Y-38311165D01*
X30899081Y-38314953D01*
X30863271Y-38330662D01*
X30827183Y-38362266D01*
X30776083Y-38413367D01*
X30776083Y-41331138D01*
X30776095Y-41680138D01*
X30776138Y-42000332D01*
X30776223Y-42292974D01*
X30776361Y-42559318D01*
X30776562Y-42800617D01*
X30776838Y-43018125D01*
X30777200Y-43213095D01*
X30777658Y-43386780D01*
X30778223Y-43540435D01*
X30778906Y-43675313D01*
X30779717Y-43792668D01*
X30780669Y-43893753D01*
X30781771Y-43979821D01*
X30783035Y-44052127D01*
X30784470Y-44111923D01*
X30786089Y-44160464D01*
X30787902Y-44199003D01*
X30789920Y-44228793D01*
X30792154Y-44251089D01*
X30794614Y-44267143D01*
X30797312Y-44278210D01*
X30800258Y-44285542D01*
X30801699Y-44288005D01*
X30807241Y-44297340D01*
X30811947Y-44305923D01*
X30817045Y-44313784D01*
X30823765Y-44320955D01*
X30833336Y-44327467D01*
X30846986Y-44333353D01*
X30865945Y-44338642D01*
X30891442Y-44343368D01*
X30924705Y-44347560D01*
X30966964Y-44351251D01*
X31019448Y-44354472D01*
X31083386Y-44357254D01*
X31160007Y-44359630D01*
X31250540Y-44361629D01*
X31356214Y-44363284D01*
X31478258Y-44364627D01*
X31617901Y-44365687D01*
X31776372Y-44366498D01*
X31954900Y-44367090D01*
X32154715Y-44367495D01*
X32377045Y-44367744D01*
X32623119Y-44367869D01*
X32894166Y-44367901D01*
X33191416Y-44367871D01*
X33516097Y-44367811D01*
X33869438Y-44367752D01*
X33920541Y-44367746D01*
X34275985Y-44367689D01*
X34602594Y-44367595D01*
X34901592Y-44367455D01*
X35174204Y-44367259D01*
X35421653Y-44366997D01*
X35645164Y-44366660D01*
X35845960Y-44366239D01*
X36025266Y-44365723D01*
X36184307Y-44365104D01*
X36324306Y-44364371D01*
X36446487Y-44363515D01*
X36552075Y-44362526D01*
X36642293Y-44361394D01*
X36718366Y-44360111D01*
X36781519Y-44358666D01*
X36832975Y-44357049D01*
X36873958Y-44355252D01*
X36905692Y-44353265D01*
X36929402Y-44351077D01*
X36946312Y-44348679D01*
X36957646Y-44346063D01*
X36963448Y-44343841D01*
X36974714Y-44339088D01*
X36985058Y-44335578D01*
X36994517Y-44332068D01*
X37003132Y-44327313D01*
X37010942Y-44320069D01*
X37017985Y-44309091D01*
X37024302Y-44293135D01*
X37029931Y-44270955D01*
X37034912Y-44241309D01*
X37039284Y-44202951D01*
X37043086Y-44154637D01*
X37046358Y-44095122D01*
X37049139Y-44023163D01*
X37051467Y-43937513D01*
X37053383Y-43836931D01*
X37054925Y-43720169D01*
X37056134Y-43585985D01*
X37057047Y-43433134D01*
X37057705Y-43260371D01*
X37058146Y-43066452D01*
X37058411Y-42850133D01*
X37058536Y-42610168D01*
X37058564Y-42345314D01*
X37058533Y-42054326D01*
X37058481Y-41735960D01*
X37058449Y-41388970D01*
X37058449Y-41332852D01*
X37058467Y-40982841D01*
X37058501Y-40661636D01*
X37058515Y-40367983D01*
X37058476Y-40100628D01*
X37058351Y-39858317D01*
X37058103Y-39639797D01*
X37057700Y-39443813D01*
X37057107Y-39269113D01*
X37056335Y-39122763D01*
X36653149Y-39122763D01*
X36600174Y-39199775D01*
X36585302Y-39220768D01*
X36571895Y-39239356D01*
X36559876Y-39257120D01*
X36549170Y-39275638D01*
X36539703Y-39296491D01*
X36531397Y-39321257D01*
X36524178Y-39351517D01*
X36517969Y-39388850D01*
X36512696Y-39434835D01*
X36508282Y-39491052D01*
X36504652Y-39559080D01*
X36501730Y-39640500D01*
X36499441Y-39736890D01*
X36497709Y-39849830D01*
X36496458Y-39980899D01*
X36495614Y-40131678D01*
X36495099Y-40303746D01*
X36494839Y-40498681D01*
X36494757Y-40718065D01*
X36494779Y-40963476D01*
X36494828Y-41236494D01*
X36494840Y-41399745D01*
X36494808Y-41688583D01*
X36494763Y-41948943D01*
X36494779Y-42182406D01*
X36494931Y-42390554D01*
X36495294Y-42574969D01*
X36495943Y-42737231D01*
X36496953Y-42878922D01*
X36498399Y-43001624D01*
X36500355Y-43106917D01*
X36502896Y-43196383D01*
X36506097Y-43271603D01*
X36510033Y-43334159D01*
X36514780Y-43385632D01*
X36520410Y-43427603D01*
X36527001Y-43461653D01*
X36534626Y-43489365D01*
X36543360Y-43512318D01*
X36553279Y-43532096D01*
X36564456Y-43550278D01*
X36576967Y-43568446D01*
X36590888Y-43588182D01*
X36598997Y-43600019D01*
X36650618Y-43676728D01*
X35942914Y-43676728D01*
X35778826Y-43676681D01*
X35642367Y-43676481D01*
X35531109Y-43676033D01*
X35442621Y-43675244D01*
X35374476Y-43674020D01*
X35324243Y-43672269D01*
X35289493Y-43669897D01*
X35267798Y-43666810D01*
X35256727Y-43662916D01*
X35253851Y-43658120D01*
X35256741Y-43652330D01*
X35258333Y-43650426D01*
X35291817Y-43601070D01*
X35326296Y-43530773D01*
X35357729Y-43448227D01*
X35368738Y-43413061D01*
X35374884Y-43389175D01*
X35380078Y-43361135D01*
X35384430Y-43326165D01*
X35388048Y-43281489D01*
X35391043Y-43224329D01*
X35393523Y-43151910D01*
X35395598Y-43061455D01*
X35397377Y-42950188D01*
X35398970Y-42815331D01*
X35400486Y-42654109D01*
X35400988Y-42594597D01*
X35402342Y-42427976D01*
X35403352Y-42289026D01*
X35403941Y-42175361D01*
X35404031Y-42084596D01*
X35403544Y-42014344D01*
X35402403Y-41962219D01*
X35400530Y-41925834D01*
X35397847Y-41902804D01*
X35394276Y-41890742D01*
X35389739Y-41887261D01*
X35384159Y-41889976D01*
X35378203Y-41895722D01*
X35364417Y-41912943D01*
X35335050Y-41951651D01*
X35292179Y-42009010D01*
X35237882Y-42082181D01*
X35174237Y-42168326D01*
X35103323Y-42264609D01*
X35027216Y-42368192D01*
X34947995Y-42476237D01*
X34867738Y-42585907D01*
X34788522Y-42694364D01*
X34712426Y-42798770D01*
X34641527Y-42896289D01*
X34577903Y-42984083D01*
X34523633Y-43059314D01*
X34480793Y-43119144D01*
X34451462Y-43160737D01*
X34445380Y-43169567D01*
X34414864Y-43218698D01*
X34379172Y-43282590D01*
X34345357Y-43348542D01*
X34341069Y-43357437D01*
X34312208Y-43421602D01*
X34295452Y-43471610D01*
X34287823Y-43519307D01*
X34286334Y-43575278D01*
X34287178Y-43676728D01*
X32750204Y-43676728D01*
X32871575Y-43551938D01*
X32933879Y-43485510D01*
X33000830Y-43410316D01*
X33062132Y-43338063D01*
X33089325Y-43304310D01*
X33129849Y-43251661D01*
X33183176Y-43180817D01*
X33247747Y-43093947D01*
X33322001Y-42993222D01*
X33404381Y-42880809D01*
X33493326Y-42758879D01*
X33587278Y-42629602D01*
X33684678Y-42495146D01*
X33783965Y-42357681D01*
X33883581Y-42219377D01*
X33981967Y-42082403D01*
X34077564Y-41948929D01*
X34168812Y-41821124D01*
X34254152Y-41701157D01*
X34332025Y-41591199D01*
X34400871Y-41493418D01*
X34459132Y-41409984D01*
X34505249Y-41343066D01*
X34537661Y-41294834D01*
X34554810Y-41267458D01*
X34557150Y-41261996D01*
X34546554Y-41246917D01*
X34518868Y-41210730D01*
X34475909Y-41155701D01*
X34419490Y-41084093D01*
X34351426Y-40998171D01*
X34273533Y-40900198D01*
X34187625Y-40792438D01*
X34095517Y-40677155D01*
X33999023Y-40556614D01*
X33899959Y-40433079D01*
X33820438Y-40334082D01*
X32474426Y-40334082D01*
X32466558Y-40351333D01*
X32447480Y-40380955D01*
X32446086Y-40382928D01*
X32421073Y-40423073D01*
X32394916Y-40472109D01*
X32389725Y-40482941D01*
X32385017Y-40494163D01*
X32380857Y-40507634D01*
X32377203Y-40525210D01*
X32374015Y-40548745D01*
X32371255Y-40580094D01*
X32368881Y-40621112D01*
X32366853Y-40673652D01*
X32365132Y-40739571D01*
X32363676Y-40820723D01*
X32362447Y-40918962D01*
X32361404Y-41036143D01*
X32360506Y-41174121D01*
X32359714Y-41334751D01*
X32358988Y-41519888D01*
X32358287Y-41731386D01*
X32357577Y-41969509D01*
X32356860Y-42215967D01*
X32356282Y-42434229D01*
X32355931Y-42626155D01*
X32355898Y-42793607D01*
X32356272Y-42938449D01*
X32357143Y-43062540D01*
X32358601Y-43167744D01*
X32360736Y-43255922D01*
X32363637Y-43328936D01*
X32367394Y-43388648D01*
X32372097Y-43436920D01*
X32377835Y-43475614D01*
X32384699Y-43506591D01*
X32392778Y-43531714D01*
X32402162Y-43552845D01*
X32412940Y-43571845D01*
X32425203Y-43590576D01*
X32436520Y-43607175D01*
X32459334Y-43642182D01*
X32472843Y-43665593D01*
X32474426Y-43669880D01*
X32459905Y-43671314D01*
X32418375Y-43672646D01*
X32352889Y-43673845D01*
X32266495Y-43674877D01*
X32162246Y-43675712D01*
X32043192Y-43676317D01*
X31912384Y-43676660D01*
X31820639Y-43676728D01*
X31680855Y-43676434D01*
X31551924Y-43675593D01*
X31436758Y-43674263D01*
X31338270Y-43672503D01*
X31259376Y-43670372D01*
X31202988Y-43667928D01*
X31172020Y-43665231D01*
X31166852Y-43663538D01*
X31177100Y-43643697D01*
X31187749Y-43633006D01*
X31205286Y-43610204D01*
X31228237Y-43569929D01*
X31244110Y-43537231D01*
X31279574Y-43458799D01*
X31283668Y-41891964D01*
X31287762Y-40325130D01*
X31881094Y-40325130D01*
X32011323Y-40325349D01*
X32131670Y-40325973D01*
X32238932Y-40326953D01*
X32329907Y-40328243D01*
X32401393Y-40329792D01*
X32450186Y-40331554D01*
X32473085Y-40333479D01*
X32474426Y-40334082D01*
X33820438Y-40334082D01*
X33800140Y-40308813D01*
X33701380Y-40186081D01*
X33605493Y-40067147D01*
X33514296Y-39954274D01*
X33429602Y-39849728D01*
X33353227Y-39755771D01*
X33286984Y-39674668D01*
X33232690Y-39608684D01*
X33209838Y-39581165D01*
X33094952Y-39447149D01*
X32992971Y-39336303D01*
X32901355Y-39246009D01*
X32817566Y-39173651D01*
X32805077Y-39163842D01*
X32752473Y-39123096D01*
X33505864Y-39122930D01*
X34259254Y-39122763D01*
X34252213Y-39186639D01*
X34256610Y-39262984D01*
X34285276Y-39353882D01*
X34338496Y-39460057D01*
X34398817Y-39556292D01*
X34420409Y-39586441D01*
X34457758Y-39636441D01*
X34508637Y-39703442D01*
X34570820Y-39784591D01*
X34642081Y-39877038D01*
X34720192Y-39977933D01*
X34802928Y-40084423D01*
X34888063Y-40193658D01*
X34973369Y-40302787D01*
X35056621Y-40408959D01*
X35135592Y-40509323D01*
X35208055Y-40601027D01*
X35271785Y-40681221D01*
X35324555Y-40747054D01*
X35364138Y-40795674D01*
X35388309Y-40824230D01*
X35392381Y-40828621D01*
X35396188Y-40817962D01*
X35399135Y-40777630D01*
X35401217Y-40708000D01*
X35402429Y-40609447D01*
X35402766Y-40482344D01*
X35402223Y-40327068D01*
X35401013Y-40167319D01*
X35399253Y-39991431D01*
X35397223Y-39842667D01*
X35394593Y-39718092D01*
X35391031Y-39614771D01*
X35386206Y-39529769D01*
X35379787Y-39460152D01*
X35371444Y-39402984D01*
X35360844Y-39355331D01*
X35347657Y-39314257D01*
X35331552Y-39276827D01*
X35312197Y-39240107D01*
X35292650Y-39206771D01*
X35242063Y-39122763D01*
X36653149Y-39122763D01*
X37056335Y-39122763D01*
X37056291Y-39114442D01*
X37055218Y-38978547D01*
X37053853Y-38860174D01*
X37052162Y-38758069D01*
X37050112Y-38670979D01*
X37047668Y-38597650D01*
X37044796Y-38536829D01*
X37041462Y-38487260D01*
X37037633Y-38447692D01*
X37033274Y-38416870D01*
X37028351Y-38393540D01*
X37022830Y-38376448D01*
X37016678Y-38364342D01*
X37009859Y-38355967D01*
X37002340Y-38350070D01*
X36994087Y-38345396D01*
X36985067Y-38340693D01*
X36977084Y-38335942D01*
X36970117Y-38332512D01*
X36959232Y-38329412D01*
X36942972Y-38326625D01*
X36919879Y-38324134D01*
X36888497Y-38321923D01*
X36847368Y-38319976D01*
X36795034Y-38318276D01*
X36730039Y-38316807D01*
X36650925Y-38315552D01*
X36556236Y-38314494D01*
X36444512Y-38313618D01*
X36314299Y-38312907D01*
X36164137Y-38312345D01*
X35992570Y-38311914D01*
X35798141Y-38311599D01*
X35579392Y-38311383D01*
X35334866Y-38311250D01*
X35063105Y-38311183D01*
X34781996Y-38311165D01*
X32624722Y-38311165D01*
X32624722Y-38440024D01*
G36*
X20409187Y-44811224D02*
X20367411Y-44840837D01*
X20330521Y-44877728D01*
X20330521Y-45289698D01*
X20330617Y-45412022D01*
X20331074Y-45507934D01*
X20332143Y-45581080D01*
X20334075Y-45635106D01*
X20337123Y-45673659D01*
X20341537Y-45700384D01*
X20347570Y-45718930D01*
X20355472Y-45732941D01*
X20361671Y-45741269D01*
X20402585Y-45773985D01*
X20449564Y-45777536D01*
X20492502Y-45757473D01*
X20506690Y-45745628D01*
X20516174Y-45729894D01*
X20521895Y-45704558D01*
X20524793Y-45663906D01*
X20525808Y-45602224D01*
X20525905Y-45554574D01*
X20525905Y-45375071D01*
X21187207Y-45375071D01*
X21187207Y-45538369D01*
X21187891Y-45613041D01*
X21190627Y-45664360D01*
X21196442Y-45699013D01*
X21206362Y-45723691D01*
X21218357Y-45741269D01*
X21259500Y-45773893D01*
X21306029Y-45777756D01*
X21350573Y-45754568D01*
X21362734Y-45742412D01*
X21371323Y-45726297D01*
X21376988Y-45701196D01*
X21380377Y-45662080D01*
X21382138Y-45603922D01*
X21382918Y-45521694D01*
X21383010Y-45502822D01*
X21383654Y-45347893D01*
X21383986Y-45220210D01*
X21383878Y-45116963D01*
X21383201Y-45035339D01*
X21381828Y-44972528D01*
X21379630Y-44925717D01*
X21376480Y-44892095D01*
X21372248Y-44868851D01*
X21366808Y-44853172D01*
X21360031Y-44842247D01*
X21352532Y-44834006D01*
X21310113Y-44807643D01*
X21265874Y-44811224D01*
X21224098Y-44840837D01*
X21207193Y-44859943D01*
X21196417Y-44881047D01*
X21190405Y-44911104D01*
X21187790Y-44957069D01*
X21187207Y-45025896D01*
X21187207Y-45179686D01*
X20525905Y-45179686D01*
X20525905Y-45021875D01*
X20525230Y-44949172D01*
X20522520Y-44900081D01*
X20516745Y-44868172D01*
X20506877Y-44847014D01*
X20495846Y-44834006D01*
X20453427Y-44807643D01*
X20409187Y-44811224D01*
X20409187Y-44811224D01*
G37*
X20409187Y-44811224D02*
X20367411Y-44840837D01*
X20330521Y-44877728D01*
X20330521Y-45289698D01*
X20330617Y-45412022D01*
X20331074Y-45507934D01*
X20332143Y-45581080D01*
X20334075Y-45635106D01*
X20337123Y-45673659D01*
X20341537Y-45700384D01*
X20347570Y-45718930D01*
X20355472Y-45732941D01*
X20361671Y-45741269D01*
X20402585Y-45773985D01*
X20449564Y-45777536D01*
X20492502Y-45757473D01*
X20506690Y-45745628D01*
X20516174Y-45729894D01*
X20521895Y-45704558D01*
X20524793Y-45663906D01*
X20525808Y-45602224D01*
X20525905Y-45554574D01*
X20525905Y-45375071D01*
X21187207Y-45375071D01*
X21187207Y-45538369D01*
X21187891Y-45613041D01*
X21190627Y-45664360D01*
X21196442Y-45699013D01*
X21206362Y-45723691D01*
X21218357Y-45741269D01*
X21259500Y-45773893D01*
X21306029Y-45777756D01*
X21350573Y-45754568D01*
X21362734Y-45742412D01*
X21371323Y-45726297D01*
X21376988Y-45701196D01*
X21380377Y-45662080D01*
X21382138Y-45603922D01*
X21382918Y-45521694D01*
X21383010Y-45502822D01*
X21383654Y-45347893D01*
X21383986Y-45220210D01*
X21383878Y-45116963D01*
X21383201Y-45035339D01*
X21381828Y-44972528D01*
X21379630Y-44925717D01*
X21376480Y-44892095D01*
X21372248Y-44868851D01*
X21366808Y-44853172D01*
X21360031Y-44842247D01*
X21352532Y-44834006D01*
X21310113Y-44807643D01*
X21265874Y-44811224D01*
X21224098Y-44840837D01*
X21207193Y-44859943D01*
X21196417Y-44881047D01*
X21190405Y-44911104D01*
X21187790Y-44957069D01*
X21187207Y-45025896D01*
X21187207Y-45179686D01*
X20525905Y-45179686D01*
X20525905Y-45021875D01*
X20525230Y-44949172D01*
X20522520Y-44900081D01*
X20516745Y-44868172D01*
X20506877Y-44847014D01*
X20495846Y-44834006D01*
X20453427Y-44807643D01*
X20409187Y-44811224D01*
G36*
X22094369Y-44804075D02*
X21989581Y-44804579D01*
X21908247Y-44805632D01*
X21847066Y-44807412D01*
X21802735Y-44810093D01*
X21771952Y-44813850D01*
X21751415Y-44818861D01*
X21737821Y-44825299D01*
X21731243Y-44830248D01*
X21697102Y-44873565D01*
X21692972Y-44918539D01*
X21714070Y-44959396D01*
X21727867Y-44975722D01*
X21742714Y-44986854D01*
X21764231Y-44993786D01*
X21798038Y-44997513D01*
X21849754Y-44999030D01*
X21924999Y-44999330D01*
X21939777Y-44999331D01*
X22134071Y-44999331D01*
X22134071Y-45360041D01*
X22134199Y-45473737D01*
X22134780Y-45561221D01*
X22136110Y-45626338D01*
X22138486Y-45672934D01*
X22142202Y-45704855D01*
X22147554Y-45725948D01*
X22154839Y-45740059D01*
X22164130Y-45750810D01*
X22207975Y-45777232D01*
X22253746Y-45775150D01*
X22295256Y-45745005D01*
X22298305Y-45741269D01*
X22308234Y-45727146D01*
X22315798Y-45710622D01*
X22321317Y-45687682D01*
X22325113Y-45654309D01*
X22327504Y-45606491D01*
X22328812Y-45540210D01*
X22329355Y-45451454D01*
X22329455Y-45350499D01*
X22329455Y-44999331D01*
X22514996Y-44999331D01*
X22594619Y-44998792D01*
X22649742Y-44996693D01*
X22685914Y-44992307D01*
X22708684Y-44984912D01*
X22723599Y-44973781D01*
X22725410Y-44971846D01*
X22747188Y-44927593D01*
X22745262Y-44877565D01*
X22720225Y-44834006D01*
X22710542Y-44825556D01*
X22698058Y-44818857D01*
X22679443Y-44813705D01*
X22651369Y-44809897D01*
X22610505Y-44807233D01*
X22553524Y-44805508D01*
X22477094Y-44804520D01*
X22377889Y-44804068D01*
X22252577Y-44803948D01*
X22225913Y-44803946D01*
X22094369Y-44804075D01*
X22094369Y-44804075D01*
G37*
X22094369Y-44804075D02*
X21989581Y-44804579D01*
X21908247Y-44805632D01*
X21847066Y-44807412D01*
X21802735Y-44810093D01*
X21771952Y-44813850D01*
X21751415Y-44818861D01*
X21737821Y-44825299D01*
X21731243Y-44830248D01*
X21697102Y-44873565D01*
X21692972Y-44918539D01*
X21714070Y-44959396D01*
X21727867Y-44975722D01*
X21742714Y-44986854D01*
X21764231Y-44993786D01*
X21798038Y-44997513D01*
X21849754Y-44999030D01*
X21924999Y-44999330D01*
X21939777Y-44999331D01*
X22134071Y-44999331D01*
X22134071Y-45360041D01*
X22134199Y-45473737D01*
X22134780Y-45561221D01*
X22136110Y-45626338D01*
X22138486Y-45672934D01*
X22142202Y-45704855D01*
X22147554Y-45725948D01*
X22154839Y-45740059D01*
X22164130Y-45750810D01*
X22207975Y-45777232D01*
X22253746Y-45775150D01*
X22295256Y-45745005D01*
X22298305Y-45741269D01*
X22308234Y-45727146D01*
X22315798Y-45710622D01*
X22321317Y-45687682D01*
X22325113Y-45654309D01*
X22327504Y-45606491D01*
X22328812Y-45540210D01*
X22329355Y-45451454D01*
X22329455Y-45350499D01*
X22329455Y-44999331D01*
X22514996Y-44999331D01*
X22594619Y-44998792D01*
X22649742Y-44996693D01*
X22685914Y-44992307D01*
X22708684Y-44984912D01*
X22723599Y-44973781D01*
X22725410Y-44971846D01*
X22747188Y-44927593D01*
X22745262Y-44877565D01*
X22720225Y-44834006D01*
X22710542Y-44825556D01*
X22698058Y-44818857D01*
X22679443Y-44813705D01*
X22651369Y-44809897D01*
X22610505Y-44807233D01*
X22553524Y-44805508D01*
X22477094Y-44804520D01*
X22377889Y-44804068D01*
X22252577Y-44803948D01*
X22225913Y-44803946D01*
X22094369Y-44804075D01*
G36*
X23125442Y-44813013D02*
X23093872Y-44832678D01*
X23058390Y-44861409D01*
X23058390Y-45289502D01*
X23058503Y-45414726D01*
X23058987Y-45513383D01*
X23060060Y-45588966D01*
X23061938Y-45644969D01*
X23064840Y-45684883D01*
X23068983Y-45712202D01*
X23074584Y-45730417D01*
X23081861Y-45743022D01*
X23087022Y-45749232D01*
X23128878Y-45776516D01*
X23176541Y-45775403D01*
X23218293Y-45752138D01*
X23253775Y-45723407D01*
X23253775Y-44861409D01*
X23218293Y-44832678D01*
X23184048Y-44811778D01*
X23156083Y-44803946D01*
X23125442Y-44813013D01*
X23125442Y-44813013D01*
G37*
X23125442Y-44813013D02*
X23093872Y-44832678D01*
X23058390Y-44861409D01*
X23058390Y-45289502D01*
X23058503Y-45414726D01*
X23058987Y-45513383D01*
X23060060Y-45588966D01*
X23061938Y-45644969D01*
X23064840Y-45684883D01*
X23068983Y-45712202D01*
X23074584Y-45730417D01*
X23081861Y-45743022D01*
X23087022Y-45749232D01*
X23128878Y-45776516D01*
X23176541Y-45775403D01*
X23218293Y-45752138D01*
X23253775Y-45723407D01*
X23253775Y-44861409D01*
X23218293Y-44832678D01*
X23184048Y-44811778D01*
X23156083Y-44803946D01*
X23125442Y-44813013D01*
G36*
X23716499Y-44806566D02*
X23690418Y-44815886D01*
X23689412Y-44816342D01*
X23653994Y-44843370D01*
X23634480Y-44871172D01*
X23630662Y-44884208D01*
X23630851Y-44901528D01*
X23636224Y-44926203D01*
X23647958Y-44961300D01*
X23667233Y-45009889D01*
X23695224Y-45075038D01*
X23733110Y-45159817D01*
X23782068Y-45267295D01*
X23809015Y-45326039D01*
X23857676Y-45430909D01*
X23903356Y-45527350D01*
X23944312Y-45611834D01*
X23978800Y-45680836D01*
X24005077Y-45730830D01*
X24021400Y-45758290D01*
X24024630Y-45762083D01*
X24065957Y-45778816D01*
X24112637Y-45776575D01*
X24150076Y-45756223D01*
X24151602Y-45754568D01*
X24166495Y-45732022D01*
X24191477Y-45688107D01*
X24223467Y-45628476D01*
X24259386Y-45558782D01*
X24272294Y-45533099D01*
X24369732Y-45337933D01*
X24475940Y-45549943D01*
X24513849Y-45623197D01*
X24549019Y-45686726D01*
X24578578Y-45735667D01*
X24599652Y-45765158D01*
X24606794Y-45771412D01*
X24662308Y-45779881D01*
X24708117Y-45762083D01*
X24721592Y-45743061D01*
X24744910Y-45700785D01*
X24776169Y-45639416D01*
X24813466Y-45563112D01*
X24854900Y-45476035D01*
X24898568Y-45382343D01*
X24942568Y-45286197D01*
X24984998Y-45191757D01*
X25023956Y-45103181D01*
X25057539Y-45024632D01*
X25083845Y-44960267D01*
X25100972Y-44914247D01*
X25107017Y-44890733D01*
X25106955Y-44889881D01*
X25092246Y-44860292D01*
X25062844Y-44830156D01*
X25061113Y-44828844D01*
X25024976Y-44808418D01*
X24991552Y-44808616D01*
X24979024Y-44812467D01*
X24963759Y-44820789D01*
X24947548Y-44837161D01*
X24928447Y-44864978D01*
X24904511Y-44907636D01*
X24873795Y-44968531D01*
X24834355Y-45051061D01*
X24798788Y-45127243D01*
X24757869Y-45215550D01*
X24721202Y-45294962D01*
X24690692Y-45361332D01*
X24668244Y-45410511D01*
X24655763Y-45438349D01*
X24653943Y-45442704D01*
X24645756Y-45435585D01*
X24626941Y-45405777D01*
X24600000Y-45357632D01*
X24567438Y-45295499D01*
X24554480Y-45269864D01*
X24510586Y-45183301D01*
X24476735Y-45120261D01*
X24450149Y-45077078D01*
X24428051Y-45050088D01*
X24407662Y-45035624D01*
X24386206Y-45030023D01*
X24372223Y-45029390D01*
X24347558Y-45031576D01*
X24325944Y-45040615D01*
X24304468Y-45060233D01*
X24280216Y-45094153D01*
X24250276Y-45146098D01*
X24211733Y-45219794D01*
X24190468Y-45261716D01*
X24155974Y-45328530D01*
X24125890Y-45383937D01*
X24102869Y-45423263D01*
X24089566Y-45441832D01*
X24087757Y-45442605D01*
X24079166Y-45427991D01*
X24059932Y-45390043D01*
X24031981Y-45332732D01*
X23997239Y-45260032D01*
X23957633Y-45175912D01*
X23938150Y-45134130D01*
X23887466Y-45026299D01*
X23846653Y-44943326D01*
X23813592Y-44882502D01*
X23786165Y-44841121D01*
X23762254Y-44816476D01*
X23739738Y-44805860D01*
X23716499Y-44806566D01*
X23716499Y-44806566D01*
G37*
X23716499Y-44806566D02*
X23690418Y-44815886D01*
X23689412Y-44816342D01*
X23653994Y-44843370D01*
X23634480Y-44871172D01*
X23630662Y-44884208D01*
X23630851Y-44901528D01*
X23636224Y-44926203D01*
X23647958Y-44961300D01*
X23667233Y-45009889D01*
X23695224Y-45075038D01*
X23733110Y-45159817D01*
X23782068Y-45267295D01*
X23809015Y-45326039D01*
X23857676Y-45430909D01*
X23903356Y-45527350D01*
X23944312Y-45611834D01*
X23978800Y-45680836D01*
X24005077Y-45730830D01*
X24021400Y-45758290D01*
X24024630Y-45762083D01*
X24065957Y-45778816D01*
X24112637Y-45776575D01*
X24150076Y-45756223D01*
X24151602Y-45754568D01*
X24166495Y-45732022D01*
X24191477Y-45688107D01*
X24223467Y-45628476D01*
X24259386Y-45558782D01*
X24272294Y-45533099D01*
X24369732Y-45337933D01*
X24475940Y-45549943D01*
X24513849Y-45623197D01*
X24549019Y-45686726D01*
X24578578Y-45735667D01*
X24599652Y-45765158D01*
X24606794Y-45771412D01*
X24662308Y-45779881D01*
X24708117Y-45762083D01*
X24721592Y-45743061D01*
X24744910Y-45700785D01*
X24776169Y-45639416D01*
X24813466Y-45563112D01*
X24854900Y-45476035D01*
X24898568Y-45382343D01*
X24942568Y-45286197D01*
X24984998Y-45191757D01*
X25023956Y-45103181D01*
X25057539Y-45024632D01*
X25083845Y-44960267D01*
X25100972Y-44914247D01*
X25107017Y-44890733D01*
X25106955Y-44889881D01*
X25092246Y-44860292D01*
X25062844Y-44830156D01*
X25061113Y-44828844D01*
X25024976Y-44808418D01*
X24991552Y-44808616D01*
X24979024Y-44812467D01*
X24963759Y-44820789D01*
X24947548Y-44837161D01*
X24928447Y-44864978D01*
X24904511Y-44907636D01*
X24873795Y-44968531D01*
X24834355Y-45051061D01*
X24798788Y-45127243D01*
X24757869Y-45215550D01*
X24721202Y-45294962D01*
X24690692Y-45361332D01*
X24668244Y-45410511D01*
X24655763Y-45438349D01*
X24653943Y-45442704D01*
X24645756Y-45435585D01*
X24626941Y-45405777D01*
X24600000Y-45357632D01*
X24567438Y-45295499D01*
X24554480Y-45269864D01*
X24510586Y-45183301D01*
X24476735Y-45120261D01*
X24450149Y-45077078D01*
X24428051Y-45050088D01*
X24407662Y-45035624D01*
X24386206Y-45030023D01*
X24372223Y-45029390D01*
X24347558Y-45031576D01*
X24325944Y-45040615D01*
X24304468Y-45060233D01*
X24280216Y-45094153D01*
X24250276Y-45146098D01*
X24211733Y-45219794D01*
X24190468Y-45261716D01*
X24155974Y-45328530D01*
X24125890Y-45383937D01*
X24102869Y-45423263D01*
X24089566Y-45441832D01*
X24087757Y-45442605D01*
X24079166Y-45427991D01*
X24059932Y-45390043D01*
X24031981Y-45332732D01*
X23997239Y-45260032D01*
X23957633Y-45175912D01*
X23938150Y-45134130D01*
X23887466Y-45026299D01*
X23846653Y-44943326D01*
X23813592Y-44882502D01*
X23786165Y-44841121D01*
X23762254Y-44816476D01*
X23739738Y-44805860D01*
X23716499Y-44806566D01*
G36*
X27346263Y-44804223D02*
X27174545Y-44810029D01*
X27028491Y-44827637D01*
X26905693Y-44858099D01*
X26803743Y-44902471D01*
X26720232Y-44961807D01*
X26652753Y-45037160D01*
X26598897Y-45129586D01*
X26597838Y-45131840D01*
X26565697Y-45214560D01*
X26554245Y-45287820D01*
X26563526Y-45361548D01*
X26593585Y-45445671D01*
X26599285Y-45458473D01*
X26638161Y-45533398D01*
X26681851Y-45591293D01*
X26738240Y-45640508D01*
X26815208Y-45689393D01*
X26819680Y-45691945D01*
X26886683Y-45724131D01*
X26962415Y-45748168D01*
X27051742Y-45764887D01*
X27159531Y-45775115D01*
X27290648Y-45779682D01*
X27336974Y-45780079D01*
X27557570Y-45780870D01*
X27588720Y-45741269D01*
X27597960Y-45728247D01*
X27605168Y-45713040D01*
X27610596Y-45692002D01*
X27614495Y-45661486D01*
X27617117Y-45617847D01*
X27617972Y-45585485D01*
X27409455Y-45585485D01*
X27284464Y-45585485D01*
X27211323Y-45583346D01*
X27136239Y-45577717D01*
X27074616Y-45569779D01*
X27070897Y-45569111D01*
X26961447Y-45539748D01*
X26876552Y-45495633D01*
X26813528Y-45434719D01*
X26769686Y-45354960D01*
X26762063Y-45333820D01*
X26754590Y-45300898D01*
X26757825Y-45268372D01*
X26773567Y-45225100D01*
X26783056Y-45203843D01*
X26814129Y-45147356D01*
X26851567Y-45107727D01*
X26892759Y-45080130D01*
X26975270Y-45044218D01*
X27080867Y-45018204D01*
X27203882Y-45003224D01*
X27292976Y-44999928D01*
X27409455Y-44999331D01*
X27409455Y-45585485D01*
X27617972Y-45585485D01*
X27618714Y-45557436D01*
X27619536Y-45476608D01*
X27619836Y-45371717D01*
X27619870Y-45289698D01*
X27619870Y-44877728D01*
X27582979Y-44840837D01*
X27566606Y-44825884D01*
X27548903Y-44815644D01*
X27524181Y-44809237D01*
X27486752Y-44805783D01*
X27430927Y-44804403D01*
X27351018Y-44804217D01*
X27346263Y-44804223D01*
X27346263Y-44804223D01*
G37*
X27346263Y-44804223D02*
X27174545Y-44810029D01*
X27028491Y-44827637D01*
X26905693Y-44858099D01*
X26803743Y-44902471D01*
X26720232Y-44961807D01*
X26652753Y-45037160D01*
X26598897Y-45129586D01*
X26597838Y-45131840D01*
X26565697Y-45214560D01*
X26554245Y-45287820D01*
X26563526Y-45361548D01*
X26593585Y-45445671D01*
X26599285Y-45458473D01*
X26638161Y-45533398D01*
X26681851Y-45591293D01*
X26738240Y-45640508D01*
X26815208Y-45689393D01*
X26819680Y-45691945D01*
X26886683Y-45724131D01*
X26962415Y-45748168D01*
X27051742Y-45764887D01*
X27159531Y-45775115D01*
X27290648Y-45779682D01*
X27336974Y-45780079D01*
X27557570Y-45780870D01*
X27588720Y-45741269D01*
X27597960Y-45728247D01*
X27605168Y-45713040D01*
X27610596Y-45692002D01*
X27614495Y-45661486D01*
X27617117Y-45617847D01*
X27617972Y-45585485D01*
X27409455Y-45585485D01*
X27284464Y-45585485D01*
X27211323Y-45583346D01*
X27136239Y-45577717D01*
X27074616Y-45569779D01*
X27070897Y-45569111D01*
X26961447Y-45539748D01*
X26876552Y-45495633D01*
X26813528Y-45434719D01*
X26769686Y-45354960D01*
X26762063Y-45333820D01*
X26754590Y-45300898D01*
X26757825Y-45268372D01*
X26773567Y-45225100D01*
X26783056Y-45203843D01*
X26814129Y-45147356D01*
X26851567Y-45107727D01*
X26892759Y-45080130D01*
X26975270Y-45044218D01*
X27080867Y-45018204D01*
X27203882Y-45003224D01*
X27292976Y-44999928D01*
X27409455Y-44999331D01*
X27409455Y-45585485D01*
X27617972Y-45585485D01*
X27618714Y-45557436D01*
X27619536Y-45476608D01*
X27619836Y-45371717D01*
X27619870Y-45289698D01*
X27619870Y-44877728D01*
X27582979Y-44840837D01*
X27566606Y-44825884D01*
X27548903Y-44815644D01*
X27524181Y-44809237D01*
X27486752Y-44805783D01*
X27430927Y-44804403D01*
X27351018Y-44804217D01*
X27346263Y-44804223D01*
G36*
X28395330Y-44804203D02*
X28293669Y-44805420D01*
X28215764Y-44808266D01*
X28158465Y-44813410D01*
X28118619Y-44821520D01*
X28093078Y-44833267D01*
X28078689Y-44849318D01*
X28072301Y-44870344D01*
X28070765Y-44897012D01*
X28070757Y-44900162D01*
X28072091Y-44930326D01*
X28078395Y-44953639D01*
X28093124Y-44971042D01*
X28119731Y-44983476D01*
X28161672Y-44991881D01*
X28222400Y-44997201D01*
X28305370Y-45000375D01*
X28414035Y-45002345D01*
X28447341Y-45002781D01*
X28769633Y-45006846D01*
X28774140Y-45093266D01*
X28778648Y-45179686D01*
X28554783Y-45179686D01*
X28467325Y-45180009D01*
X28404877Y-45181373D01*
X28362392Y-45184375D01*
X28334823Y-45189609D01*
X28317124Y-45197671D01*
X28304249Y-45209156D01*
X28304166Y-45209247D01*
X28280816Y-45254007D01*
X28281660Y-45302383D01*
X28306167Y-45343622D01*
X28311017Y-45347861D01*
X28328231Y-45358785D01*
X28351820Y-45366385D01*
X28387039Y-45371233D01*
X28439146Y-45373902D01*
X28513396Y-45374964D01*
X28560884Y-45375071D01*
X28777148Y-45375071D01*
X28777148Y-45585485D01*
X28448826Y-45585485D01*
X28340428Y-45585675D01*
X28258111Y-45586450D01*
X28197897Y-45588120D01*
X28155811Y-45590994D01*
X28127875Y-45595383D01*
X28110112Y-45601595D01*
X28098546Y-45609940D01*
X28095631Y-45612970D01*
X28074110Y-45654970D01*
X28072536Y-45702750D01*
X28090191Y-45744178D01*
X28104161Y-45757473D01*
X28118692Y-45764792D01*
X28141208Y-45770455D01*
X28175270Y-45774659D01*
X28224439Y-45777604D01*
X28292278Y-45779487D01*
X28382348Y-45780506D01*
X28498209Y-45780861D01*
X28524403Y-45780870D01*
X28642207Y-45780792D01*
X28733650Y-45780367D01*
X28802432Y-45779302D01*
X28852250Y-45777305D01*
X28886806Y-45774086D01*
X28909796Y-45769352D01*
X28924920Y-45762813D01*
X28935877Y-45754177D01*
X28941888Y-45747976D01*
X28950936Y-45736993D01*
X28958004Y-45723388D01*
X28963337Y-45703592D01*
X28967178Y-45674038D01*
X28969771Y-45631157D01*
X28971359Y-45571381D01*
X28972185Y-45491143D01*
X28972494Y-45386875D01*
X28972532Y-45299116D01*
X28972438Y-45176144D01*
X28971989Y-45079605D01*
X28970938Y-45005875D01*
X28969036Y-44951326D01*
X28966037Y-44912335D01*
X28961691Y-44885275D01*
X28955752Y-44866520D01*
X28947971Y-44852446D01*
X28941382Y-44843547D01*
X28910232Y-44803946D01*
X28523898Y-44803946D01*
X28395330Y-44804203D01*
X28395330Y-44804203D01*
G37*
X28395330Y-44804203D02*
X28293669Y-44805420D01*
X28215764Y-44808266D01*
X28158465Y-44813410D01*
X28118619Y-44821520D01*
X28093078Y-44833267D01*
X28078689Y-44849318D01*
X28072301Y-44870344D01*
X28070765Y-44897012D01*
X28070757Y-44900162D01*
X28072091Y-44930326D01*
X28078395Y-44953639D01*
X28093124Y-44971042D01*
X28119731Y-44983476D01*
X28161672Y-44991881D01*
X28222400Y-44997201D01*
X28305370Y-45000375D01*
X28414035Y-45002345D01*
X28447341Y-45002781D01*
X28769633Y-45006846D01*
X28774140Y-45093266D01*
X28778648Y-45179686D01*
X28554783Y-45179686D01*
X28467325Y-45180009D01*
X28404877Y-45181373D01*
X28362392Y-45184375D01*
X28334823Y-45189609D01*
X28317124Y-45197671D01*
X28304249Y-45209156D01*
X28304166Y-45209247D01*
X28280816Y-45254007D01*
X28281660Y-45302383D01*
X28306167Y-45343622D01*
X28311017Y-45347861D01*
X28328231Y-45358785D01*
X28351820Y-45366385D01*
X28387039Y-45371233D01*
X28439146Y-45373902D01*
X28513396Y-45374964D01*
X28560884Y-45375071D01*
X28777148Y-45375071D01*
X28777148Y-45585485D01*
X28448826Y-45585485D01*
X28340428Y-45585675D01*
X28258111Y-45586450D01*
X28197897Y-45588120D01*
X28155811Y-45590994D01*
X28127875Y-45595383D01*
X28110112Y-45601595D01*
X28098546Y-45609940D01*
X28095631Y-45612970D01*
X28074110Y-45654970D01*
X28072536Y-45702750D01*
X28090191Y-45744178D01*
X28104161Y-45757473D01*
X28118692Y-45764792D01*
X28141208Y-45770455D01*
X28175270Y-45774659D01*
X28224439Y-45777604D01*
X28292278Y-45779487D01*
X28382348Y-45780506D01*
X28498209Y-45780861D01*
X28524403Y-45780870D01*
X28642207Y-45780792D01*
X28733650Y-45780367D01*
X28802432Y-45779302D01*
X28852250Y-45777305D01*
X28886806Y-45774086D01*
X28909796Y-45769352D01*
X28924920Y-45762813D01*
X28935877Y-45754177D01*
X28941888Y-45747976D01*
X28950936Y-45736993D01*
X28958004Y-45723388D01*
X28963337Y-45703592D01*
X28967178Y-45674038D01*
X28969771Y-45631157D01*
X28971359Y-45571381D01*
X28972185Y-45491143D01*
X28972494Y-45386875D01*
X28972532Y-45299116D01*
X28972438Y-45176144D01*
X28971989Y-45079605D01*
X28970938Y-45005875D01*
X28969036Y-44951326D01*
X28966037Y-44912335D01*
X28961691Y-44885275D01*
X28955752Y-44866520D01*
X28947971Y-44852446D01*
X28941382Y-44843547D01*
X28910232Y-44803946D01*
X28523898Y-44803946D01*
X28395330Y-44804203D01*
G36*
X30432920Y-44809780D02*
X30401545Y-44828185D01*
X30360522Y-44858285D01*
X30307724Y-44901496D01*
X30241025Y-44959238D01*
X30158299Y-45032928D01*
X30057420Y-45123984D01*
X29941941Y-45228674D01*
X29701467Y-45446743D01*
X29693952Y-45154044D01*
X29691239Y-45053290D01*
X29688622Y-44978258D01*
X29685520Y-44924620D01*
X29681356Y-44888046D01*
X29675551Y-44864207D01*
X29667524Y-44848774D01*
X29656697Y-44837418D01*
X29650956Y-44832646D01*
X29604983Y-44807413D01*
X29561237Y-44811102D01*
X29526535Y-44832659D01*
X29491053Y-44861371D01*
X29486640Y-45280686D01*
X29485419Y-45404007D01*
X29484797Y-45500884D01*
X29484990Y-45574930D01*
X29486214Y-45629757D01*
X29488684Y-45668979D01*
X29492614Y-45696209D01*
X29498220Y-45715059D01*
X29505718Y-45729141D01*
X29514033Y-45740435D01*
X29532022Y-45761382D01*
X29549921Y-45775267D01*
X29570212Y-45780596D01*
X29595378Y-45775876D01*
X29627900Y-45759613D01*
X29670263Y-45730313D01*
X29724948Y-45686482D01*
X29794437Y-45626627D01*
X29881215Y-45549254D01*
X29979515Y-45460350D01*
X30332710Y-45139971D01*
X30340225Y-45431713D01*
X30342943Y-45532283D01*
X30345567Y-45607140D01*
X30348679Y-45660620D01*
X30352862Y-45697062D01*
X30358697Y-45720804D01*
X30366766Y-45736182D01*
X30377651Y-45747536D01*
X30383221Y-45752162D01*
X30432456Y-45777578D01*
X30478977Y-45773745D01*
X30519489Y-45741269D01*
X30528756Y-45728203D01*
X30535979Y-45712945D01*
X30541412Y-45691832D01*
X30545308Y-45661205D01*
X30547921Y-45617402D01*
X30549507Y-45556763D01*
X30550318Y-45475627D01*
X30550608Y-45370333D01*
X30550639Y-45292408D01*
X30550541Y-45170524D01*
X30550079Y-45075039D01*
X30548997Y-45002291D01*
X30547043Y-44948619D01*
X30543962Y-44910363D01*
X30539500Y-44883863D01*
X30533403Y-44865456D01*
X30525417Y-44851484D01*
X30519489Y-44843547D01*
X30504462Y-44824748D01*
X30490418Y-44810553D01*
X30475230Y-44802382D01*
X30456773Y-44801652D01*
X30432920Y-44809780D01*
X30432920Y-44809780D01*
G37*
X30432920Y-44809780D02*
X30401545Y-44828185D01*
X30360522Y-44858285D01*
X30307724Y-44901496D01*
X30241025Y-44959238D01*
X30158299Y-45032928D01*
X30057420Y-45123984D01*
X29941941Y-45228674D01*
X29701467Y-45446743D01*
X29693952Y-45154044D01*
X29691239Y-45053290D01*
X29688622Y-44978258D01*
X29685520Y-44924620D01*
X29681356Y-44888046D01*
X29675551Y-44864207D01*
X29667524Y-44848774D01*
X29656697Y-44837418D01*
X29650956Y-44832646D01*
X29604983Y-44807413D01*
X29561237Y-44811102D01*
X29526535Y-44832659D01*
X29491053Y-44861371D01*
X29486640Y-45280686D01*
X29485419Y-45404007D01*
X29484797Y-45500884D01*
X29484990Y-45574930D01*
X29486214Y-45629757D01*
X29488684Y-45668979D01*
X29492614Y-45696209D01*
X29498220Y-45715059D01*
X29505718Y-45729141D01*
X29514033Y-45740435D01*
X29532022Y-45761382D01*
X29549921Y-45775267D01*
X29570212Y-45780596D01*
X29595378Y-45775876D01*
X29627900Y-45759613D01*
X29670263Y-45730313D01*
X29724948Y-45686482D01*
X29794437Y-45626627D01*
X29881215Y-45549254D01*
X29979515Y-45460350D01*
X30332710Y-45139971D01*
X30340225Y-45431713D01*
X30342943Y-45532283D01*
X30345567Y-45607140D01*
X30348679Y-45660620D01*
X30352862Y-45697062D01*
X30358697Y-45720804D01*
X30366766Y-45736182D01*
X30377651Y-45747536D01*
X30383221Y-45752162D01*
X30432456Y-45777578D01*
X30478977Y-45773745D01*
X30519489Y-45741269D01*
X30528756Y-45728203D01*
X30535979Y-45712945D01*
X30541412Y-45691832D01*
X30545308Y-45661205D01*
X30547921Y-45617402D01*
X30549507Y-45556763D01*
X30550318Y-45475627D01*
X30550608Y-45370333D01*
X30550639Y-45292408D01*
X30550541Y-45170524D01*
X30550079Y-45075039D01*
X30548997Y-45002291D01*
X30547043Y-44948619D01*
X30543962Y-44910363D01*
X30539500Y-44883863D01*
X30533403Y-44865456D01*
X30525417Y-44851484D01*
X30519489Y-44843547D01*
X30504462Y-44824748D01*
X30490418Y-44810553D01*
X30475230Y-44802382D01*
X30456773Y-44801652D01*
X30432920Y-44809780D01*
G36*
X31298262Y-44811312D02*
X31207041Y-44826618D01*
X31136982Y-44850411D01*
X31091404Y-44881740D01*
X31078984Y-44899614D01*
X31066354Y-44941185D01*
X31074853Y-44978792D01*
X31101685Y-45014455D01*
X31143376Y-45031139D01*
X31203870Y-45029784D01*
X31250659Y-45020745D01*
X31354628Y-45003523D01*
X31460880Y-45001887D01*
X31579809Y-45015865D01*
X31612660Y-45021788D01*
X31723245Y-45052967D01*
X31809759Y-45099346D01*
X31871253Y-45160135D01*
X31906778Y-45234544D01*
X31914125Y-45273014D01*
X31909316Y-45351063D01*
X31878266Y-45420117D01*
X31823806Y-45478829D01*
X31748764Y-45525853D01*
X31655970Y-45559843D01*
X31548252Y-45579454D01*
X31428441Y-45583341D01*
X31299365Y-45570156D01*
X31292077Y-45568912D01*
X31240738Y-45559350D01*
X31212272Y-45550114D01*
X31199934Y-45536409D01*
X31196978Y-45513442D01*
X31196911Y-45501279D01*
X31196911Y-45450219D01*
X31288077Y-45450219D01*
X31368582Y-45444704D01*
X31423521Y-45427130D01*
X31455486Y-45395953D01*
X31467072Y-45349630D01*
X31467213Y-45343584D01*
X31460435Y-45303989D01*
X31437191Y-45275717D01*
X31393930Y-45257007D01*
X31327101Y-45246100D01*
X31262370Y-45242090D01*
X31168287Y-45239789D01*
X31100044Y-45243300D01*
X31053501Y-45256255D01*
X31024518Y-45282286D01*
X31008955Y-45325027D01*
X31002671Y-45388110D01*
X31001526Y-45470964D01*
X31003402Y-45563446D01*
X31009046Y-45626354D01*
X31018482Y-45659939D01*
X31020313Y-45662569D01*
X31072125Y-45704534D01*
X31148090Y-45737768D01*
X31243392Y-45761559D01*
X31353216Y-45775199D01*
X31472746Y-45777978D01*
X31597166Y-45769185D01*
X31670343Y-45758385D01*
X31785120Y-45725898D01*
X31891796Y-45672786D01*
X31981111Y-45603855D01*
X31994686Y-45590078D01*
X32038792Y-45532158D01*
X32078589Y-45460376D01*
X32109427Y-45385119D01*
X32126657Y-45316777D01*
X32128734Y-45290529D01*
X32119893Y-45235777D01*
X32096395Y-45167655D01*
X32062749Y-45095950D01*
X32023464Y-45030449D01*
X31988755Y-44986698D01*
X31907603Y-44921619D01*
X31802698Y-44869821D01*
X31677800Y-44832474D01*
X31536667Y-44810753D01*
X31407325Y-44805445D01*
X31298262Y-44811312D01*
X31298262Y-44811312D01*
G37*
X31298262Y-44811312D02*
X31207041Y-44826618D01*
X31136982Y-44850411D01*
X31091404Y-44881740D01*
X31078984Y-44899614D01*
X31066354Y-44941185D01*
X31074853Y-44978792D01*
X31101685Y-45014455D01*
X31143376Y-45031139D01*
X31203870Y-45029784D01*
X31250659Y-45020745D01*
X31354628Y-45003523D01*
X31460880Y-45001887D01*
X31579809Y-45015865D01*
X31612660Y-45021788D01*
X31723245Y-45052967D01*
X31809759Y-45099346D01*
X31871253Y-45160135D01*
X31906778Y-45234544D01*
X31914125Y-45273014D01*
X31909316Y-45351063D01*
X31878266Y-45420117D01*
X31823806Y-45478829D01*
X31748764Y-45525853D01*
X31655970Y-45559843D01*
X31548252Y-45579454D01*
X31428441Y-45583341D01*
X31299365Y-45570156D01*
X31292077Y-45568912D01*
X31240738Y-45559350D01*
X31212272Y-45550114D01*
X31199934Y-45536409D01*
X31196978Y-45513442D01*
X31196911Y-45501279D01*
X31196911Y-45450219D01*
X31288077Y-45450219D01*
X31368582Y-45444704D01*
X31423521Y-45427130D01*
X31455486Y-45395953D01*
X31467072Y-45349630D01*
X31467213Y-45343584D01*
X31460435Y-45303989D01*
X31437191Y-45275717D01*
X31393930Y-45257007D01*
X31327101Y-45246100D01*
X31262370Y-45242090D01*
X31168287Y-45239789D01*
X31100044Y-45243300D01*
X31053501Y-45256255D01*
X31024518Y-45282286D01*
X31008955Y-45325027D01*
X31002671Y-45388110D01*
X31001526Y-45470964D01*
X31003402Y-45563446D01*
X31009046Y-45626354D01*
X31018482Y-45659939D01*
X31020313Y-45662569D01*
X31072125Y-45704534D01*
X31148090Y-45737768D01*
X31243392Y-45761559D01*
X31353216Y-45775199D01*
X31472746Y-45777978D01*
X31597166Y-45769185D01*
X31670343Y-45758385D01*
X31785120Y-45725898D01*
X31891796Y-45672786D01*
X31981111Y-45603855D01*
X31994686Y-45590078D01*
X32038792Y-45532158D01*
X32078589Y-45460376D01*
X32109427Y-45385119D01*
X32126657Y-45316777D01*
X32128734Y-45290529D01*
X32119893Y-45235777D01*
X32096395Y-45167655D01*
X32062749Y-45095950D01*
X32023464Y-45030449D01*
X31988755Y-44986698D01*
X31907603Y-44921619D01*
X31802698Y-44869821D01*
X31677800Y-44832474D01*
X31536667Y-44810753D01*
X31407325Y-44805445D01*
X31298262Y-44811312D01*
G36*
X32594663Y-44834006D02*
X32585901Y-44844088D01*
X32579028Y-44857095D01*
X32573815Y-44876511D01*
X32570034Y-44905820D01*
X32567456Y-44948507D01*
X32565853Y-45008055D01*
X32564995Y-45087950D01*
X32564656Y-45191676D01*
X32564603Y-45292408D01*
X32564696Y-45417352D01*
X32565127Y-45515721D01*
X32566123Y-45591001D01*
X32567915Y-45646674D01*
X32570729Y-45686226D01*
X32574796Y-45713141D01*
X32580342Y-45730903D01*
X32587597Y-45742997D01*
X32594663Y-45750810D01*
X32638602Y-45777012D01*
X32685420Y-45774661D01*
X32727309Y-45746084D01*
X32736934Y-45734927D01*
X32744455Y-45721983D01*
X32750134Y-45703672D01*
X32754227Y-45676418D01*
X32756995Y-45636640D01*
X32758696Y-45580762D01*
X32759589Y-45505204D01*
X32759933Y-45406388D01*
X32759988Y-45294514D01*
X32759988Y-44877728D01*
X32723097Y-44840837D01*
X32677625Y-44809800D01*
X32633516Y-44808681D01*
X32594663Y-44834006D01*
X32594663Y-44834006D01*
G37*
X32594663Y-44834006D02*
X32585901Y-44844088D01*
X32579028Y-44857095D01*
X32573815Y-44876511D01*
X32570034Y-44905820D01*
X32567456Y-44948507D01*
X32565853Y-45008055D01*
X32564995Y-45087950D01*
X32564656Y-45191676D01*
X32564603Y-45292408D01*
X32564696Y-45417352D01*
X32565127Y-45515721D01*
X32566123Y-45591001D01*
X32567915Y-45646674D01*
X32570729Y-45686226D01*
X32574796Y-45713141D01*
X32580342Y-45730903D01*
X32587597Y-45742997D01*
X32594663Y-45750810D01*
X32638602Y-45777012D01*
X32685420Y-45774661D01*
X32727309Y-45746084D01*
X32736934Y-45734927D01*
X32744455Y-45721983D01*
X32750134Y-45703672D01*
X32754227Y-45676418D01*
X32756995Y-45636640D01*
X32758696Y-45580762D01*
X32759589Y-45505204D01*
X32759933Y-45406388D01*
X32759988Y-45294514D01*
X32759988Y-44877728D01*
X32723097Y-44840837D01*
X32677625Y-44809800D01*
X32633516Y-44808681D01*
X32594663Y-44834006D01*
G36*
X33616988Y-44805657D02*
X33517383Y-44812620D01*
X33424744Y-44823495D01*
X33344458Y-44837874D01*
X33281908Y-44855346D01*
X33242481Y-44875502D01*
X33236429Y-44881435D01*
X33215384Y-44927475D01*
X33221766Y-44974740D01*
X33254407Y-45015178D01*
X33255964Y-45016337D01*
X33275163Y-45028797D01*
X33295205Y-45035349D01*
X33323160Y-45036144D01*
X33366099Y-45031336D01*
X33431091Y-45021075D01*
X33436319Y-45020211D01*
X33533161Y-45008314D01*
X33637644Y-45002445D01*
X33742435Y-45002388D01*
X33840202Y-45007927D01*
X33923612Y-45018845D01*
X33985333Y-45034925D01*
X33989388Y-45036541D01*
X34034164Y-45061629D01*
X34049896Y-45087018D01*
X34037580Y-45111987D01*
X33998215Y-45135816D01*
X33932798Y-45157782D01*
X33842326Y-45177166D01*
X33782000Y-45186498D01*
X33656600Y-45204449D01*
X33556865Y-45220859D01*
X33478546Y-45237148D01*
X33417393Y-45254738D01*
X33369159Y-45275049D01*
X33329595Y-45299503D01*
X33294452Y-45329520D01*
X33266211Y-45358996D01*
X33232708Y-45400067D01*
X33216219Y-45435382D01*
X33211063Y-45478893D01*
X33210876Y-45494828D01*
X33214748Y-45547705D01*
X33230227Y-45587043D01*
X33257015Y-45621960D01*
X33311459Y-45675334D01*
X33372170Y-45716038D01*
X33443658Y-45745400D01*
X33530436Y-45764747D01*
X33637014Y-45775406D01*
X33767903Y-45778705D01*
X33789515Y-45778649D01*
X33876798Y-45776840D01*
X33963359Y-45772729D01*
X34039762Y-45766906D01*
X34096570Y-45759961D01*
X34101164Y-45759164D01*
X34157645Y-45745784D01*
X34205552Y-45728882D01*
X34232673Y-45713431D01*
X34257911Y-45672666D01*
X34259669Y-45625198D01*
X34237912Y-45582895D01*
X34233044Y-45578112D01*
X34212922Y-45563899D01*
X34187758Y-45557776D01*
X34148813Y-45558818D01*
X34101535Y-45564234D01*
X34048705Y-45569073D01*
X33974648Y-45573155D01*
X33888191Y-45576118D01*
X33798163Y-45577597D01*
X33774485Y-45577694D01*
X33684122Y-45577330D01*
X33617989Y-45575576D01*
X33570267Y-45571823D01*
X33535138Y-45565463D01*
X33506782Y-45555887D01*
X33489741Y-45547911D01*
X33452296Y-45525765D01*
X33428421Y-45505708D01*
X33424932Y-45500023D01*
X33432293Y-45476545D01*
X33467287Y-45453817D01*
X33527488Y-45432870D01*
X33610471Y-45414736D01*
X33634920Y-45410697D01*
X33762622Y-45390639D01*
X33864540Y-45373874D01*
X33944606Y-45359183D01*
X34006754Y-45345348D01*
X34054918Y-45331151D01*
X34093032Y-45315373D01*
X34125030Y-45296796D01*
X34154844Y-45274202D01*
X34186410Y-45246373D01*
X34197032Y-45236616D01*
X34234273Y-45200202D01*
X34253987Y-45171352D01*
X34261699Y-45138338D01*
X34262947Y-45096735D01*
X34249215Y-45015151D01*
X34208178Y-44945834D01*
X34140070Y-44889008D01*
X34045127Y-44844897D01*
X33977384Y-44825112D01*
X33903759Y-44812333D01*
X33815561Y-44805104D01*
X33718176Y-44803015D01*
X33616988Y-44805657D01*
X33616988Y-44805657D01*
G37*
X33616988Y-44805657D02*
X33517383Y-44812620D01*
X33424744Y-44823495D01*
X33344458Y-44837874D01*
X33281908Y-44855346D01*
X33242481Y-44875502D01*
X33236429Y-44881435D01*
X33215384Y-44927475D01*
X33221766Y-44974740D01*
X33254407Y-45015178D01*
X33255964Y-45016337D01*
X33275163Y-45028797D01*
X33295205Y-45035349D01*
X33323160Y-45036144D01*
X33366099Y-45031336D01*
X33431091Y-45021075D01*
X33436319Y-45020211D01*
X33533161Y-45008314D01*
X33637644Y-45002445D01*
X33742435Y-45002388D01*
X33840202Y-45007927D01*
X33923612Y-45018845D01*
X33985333Y-45034925D01*
X33989388Y-45036541D01*
X34034164Y-45061629D01*
X34049896Y-45087018D01*
X34037580Y-45111987D01*
X33998215Y-45135816D01*
X33932798Y-45157782D01*
X33842326Y-45177166D01*
X33782000Y-45186498D01*
X33656600Y-45204449D01*
X33556865Y-45220859D01*
X33478546Y-45237148D01*
X33417393Y-45254738D01*
X33369159Y-45275049D01*
X33329595Y-45299503D01*
X33294452Y-45329520D01*
X33266211Y-45358996D01*
X33232708Y-45400067D01*
X33216219Y-45435382D01*
X33211063Y-45478893D01*
X33210876Y-45494828D01*
X33214748Y-45547705D01*
X33230227Y-45587043D01*
X33257015Y-45621960D01*
X33311459Y-45675334D01*
X33372170Y-45716038D01*
X33443658Y-45745400D01*
X33530436Y-45764747D01*
X33637014Y-45775406D01*
X33767903Y-45778705D01*
X33789515Y-45778649D01*
X33876798Y-45776840D01*
X33963359Y-45772729D01*
X34039762Y-45766906D01*
X34096570Y-45759961D01*
X34101164Y-45759164D01*
X34157645Y-45745784D01*
X34205552Y-45728882D01*
X34232673Y-45713431D01*
X34257911Y-45672666D01*
X34259669Y-45625198D01*
X34237912Y-45582895D01*
X34233044Y-45578112D01*
X34212922Y-45563899D01*
X34187758Y-45557776D01*
X34148813Y-45558818D01*
X34101535Y-45564234D01*
X34048705Y-45569073D01*
X33974648Y-45573155D01*
X33888191Y-45576118D01*
X33798163Y-45577597D01*
X33774485Y-45577694D01*
X33684122Y-45577330D01*
X33617989Y-45575576D01*
X33570267Y-45571823D01*
X33535138Y-45565463D01*
X33506782Y-45555887D01*
X33489741Y-45547911D01*
X33452296Y-45525765D01*
X33428421Y-45505708D01*
X33424932Y-45500023D01*
X33432293Y-45476545D01*
X33467287Y-45453817D01*
X33527488Y-45432870D01*
X33610471Y-45414736D01*
X33634920Y-45410697D01*
X33762622Y-45390639D01*
X33864540Y-45373874D01*
X33944606Y-45359183D01*
X34006754Y-45345348D01*
X34054918Y-45331151D01*
X34093032Y-45315373D01*
X34125030Y-45296796D01*
X34154844Y-45274202D01*
X34186410Y-45246373D01*
X34197032Y-45236616D01*
X34234273Y-45200202D01*
X34253987Y-45171352D01*
X34261699Y-45138338D01*
X34262947Y-45096735D01*
X34249215Y-45015151D01*
X34208178Y-44945834D01*
X34140070Y-44889008D01*
X34045127Y-44844897D01*
X33977384Y-44825112D01*
X33903759Y-44812333D01*
X33815561Y-44805104D01*
X33718176Y-44803015D01*
X33616988Y-44805657D01*
G36*
X34976430Y-44804052D02*
X34884022Y-44804548D01*
X34814273Y-44805701D01*
X34763483Y-44807780D01*
X34727951Y-44811051D01*
X34703978Y-44815783D01*
X34687864Y-44822243D01*
X34675909Y-44830699D01*
X34671579Y-44834591D01*
X34645251Y-44875940D01*
X34640511Y-44923452D01*
X34657830Y-44965631D01*
X34665839Y-44974156D01*
X34678792Y-44982421D01*
X34699648Y-44988797D01*
X34732276Y-44993595D01*
X34780542Y-44997124D01*
X34848314Y-44999694D01*
X34939460Y-45001617D01*
X35022791Y-45002787D01*
X35352592Y-45006846D01*
X35361606Y-45179686D01*
X35137742Y-45179686D01*
X35040554Y-45180525D01*
X34969403Y-45184032D01*
X34920291Y-45191695D01*
X34889217Y-45205003D01*
X34872184Y-45225441D01*
X34865192Y-45254499D01*
X34864130Y-45281467D01*
X34867430Y-45314557D01*
X34879883Y-45338940D01*
X34905320Y-45355889D01*
X34947571Y-45366679D01*
X35010466Y-45372584D01*
X35097835Y-45374877D01*
X35145521Y-45375071D01*
X35360106Y-45375071D01*
X35360106Y-45585485D01*
X35029455Y-45585485D01*
X34921070Y-45585636D01*
X34838697Y-45586314D01*
X34778289Y-45587856D01*
X34735799Y-45590599D01*
X34707181Y-45594881D01*
X34688388Y-45601039D01*
X34675374Y-45609409D01*
X34668745Y-45615544D01*
X34646007Y-45651349D01*
X34638686Y-45683177D01*
X34649139Y-45722054D01*
X34668745Y-45750810D01*
X34679205Y-45759863D01*
X34692708Y-45766893D01*
X34712886Y-45772154D01*
X34743371Y-45775901D01*
X34787795Y-45778390D01*
X34849791Y-45779875D01*
X34932991Y-45780611D01*
X35041027Y-45780854D01*
X35097089Y-45780870D01*
X35217144Y-45780763D01*
X35310774Y-45780275D01*
X35381609Y-45779149D01*
X35433281Y-45777131D01*
X35469423Y-45773966D01*
X35493668Y-45769399D01*
X35509647Y-45763176D01*
X35520993Y-45755040D01*
X35525432Y-45750810D01*
X35534217Y-45740696D01*
X35541104Y-45727648D01*
X35546321Y-45708170D01*
X35550099Y-45678764D01*
X35552670Y-45635934D01*
X35554264Y-45576184D01*
X35555111Y-45496017D01*
X35555442Y-45391937D01*
X35555491Y-45295028D01*
X35555446Y-45170923D01*
X35555134Y-45073366D01*
X35554288Y-44998846D01*
X35552642Y-44943851D01*
X35549929Y-44904870D01*
X35545883Y-44878393D01*
X35540237Y-44860906D01*
X35532726Y-44848900D01*
X35523082Y-44838863D01*
X35520706Y-44836626D01*
X35509175Y-44826719D01*
X35495778Y-44819048D01*
X35476796Y-44813326D01*
X35448515Y-44809268D01*
X35407218Y-44806588D01*
X35349188Y-44805002D01*
X35270709Y-44804224D01*
X35168066Y-44803968D01*
X35095196Y-44803946D01*
X34976430Y-44804052D01*
X34976430Y-44804052D01*
G37*
X34976430Y-44804052D02*
X34884022Y-44804548D01*
X34814273Y-44805701D01*
X34763483Y-44807780D01*
X34727951Y-44811051D01*
X34703978Y-44815783D01*
X34687864Y-44822243D01*
X34675909Y-44830699D01*
X34671579Y-44834591D01*
X34645251Y-44875940D01*
X34640511Y-44923452D01*
X34657830Y-44965631D01*
X34665839Y-44974156D01*
X34678792Y-44982421D01*
X34699648Y-44988797D01*
X34732276Y-44993595D01*
X34780542Y-44997124D01*
X34848314Y-44999694D01*
X34939460Y-45001617D01*
X35022791Y-45002787D01*
X35352592Y-45006846D01*
X35361606Y-45179686D01*
X35137742Y-45179686D01*
X35040554Y-45180525D01*
X34969403Y-45184032D01*
X34920291Y-45191695D01*
X34889217Y-45205003D01*
X34872184Y-45225441D01*
X34865192Y-45254499D01*
X34864130Y-45281467D01*
X34867430Y-45314557D01*
X34879883Y-45338940D01*
X34905320Y-45355889D01*
X34947571Y-45366679D01*
X35010466Y-45372584D01*
X35097835Y-45374877D01*
X35145521Y-45375071D01*
X35360106Y-45375071D01*
X35360106Y-45585485D01*
X35029455Y-45585485D01*
X34921070Y-45585636D01*
X34838697Y-45586314D01*
X34778289Y-45587856D01*
X34735799Y-45590599D01*
X34707181Y-45594881D01*
X34688388Y-45601039D01*
X34675374Y-45609409D01*
X34668745Y-45615544D01*
X34646007Y-45651349D01*
X34638686Y-45683177D01*
X34649139Y-45722054D01*
X34668745Y-45750810D01*
X34679205Y-45759863D01*
X34692708Y-45766893D01*
X34712886Y-45772154D01*
X34743371Y-45775901D01*
X34787795Y-45778390D01*
X34849791Y-45779875D01*
X34932991Y-45780611D01*
X35041027Y-45780854D01*
X35097089Y-45780870D01*
X35217144Y-45780763D01*
X35310774Y-45780275D01*
X35381609Y-45779149D01*
X35433281Y-45777131D01*
X35469423Y-45773966D01*
X35493668Y-45769399D01*
X35509647Y-45763176D01*
X35520993Y-45755040D01*
X35525432Y-45750810D01*
X35534217Y-45740696D01*
X35541104Y-45727648D01*
X35546321Y-45708170D01*
X35550099Y-45678764D01*
X35552670Y-45635934D01*
X35554264Y-45576184D01*
X35555111Y-45496017D01*
X35555442Y-45391937D01*
X35555491Y-45295028D01*
X35555446Y-45170923D01*
X35555134Y-45073366D01*
X35554288Y-44998846D01*
X35552642Y-44943851D01*
X35549929Y-44904870D01*
X35545883Y-44878393D01*
X35540237Y-44860906D01*
X35532726Y-44848900D01*
X35523082Y-44838863D01*
X35520706Y-44836626D01*
X35509175Y-44826719D01*
X35495778Y-44819048D01*
X35476796Y-44813326D01*
X35448515Y-44809268D01*
X35407218Y-44806588D01*
X35349188Y-44805002D01*
X35270709Y-44804224D01*
X35168066Y-44803968D01*
X35095196Y-44803946D01*
X34976430Y-44804052D01*
G36*
X36851754Y-44803945D02*
X36799189Y-44804480D01*
X36645165Y-44808196D01*
X36516171Y-44819235D01*
X36407809Y-44838782D01*
X36315684Y-44868019D01*
X36235399Y-44908133D01*
X36162558Y-44960305D01*
X36136541Y-44982969D01*
X36093383Y-45035998D01*
X36054467Y-45107957D01*
X36024473Y-45187720D01*
X36008081Y-45264161D01*
X36006378Y-45292408D01*
X36017051Y-45370710D01*
X36045653Y-45456241D01*
X36087057Y-45537199D01*
X36136141Y-45601782D01*
X36144113Y-45609574D01*
X36211646Y-45664344D01*
X36285598Y-45707099D01*
X36370234Y-45738959D01*
X36469817Y-45761044D01*
X36588612Y-45774474D01*
X36730880Y-45780370D01*
X36796046Y-45780870D01*
X36878901Y-45780471D01*
X36937169Y-45778802D01*
X36976316Y-45775158D01*
X37001809Y-45768829D01*
X37019114Y-45759110D01*
X37028390Y-45750810D01*
X37037152Y-45740728D01*
X37044025Y-45727721D01*
X37049238Y-45708305D01*
X37053019Y-45678996D01*
X37055597Y-45636309D01*
X37057200Y-45576761D01*
X37058057Y-45496866D01*
X37058397Y-45393141D01*
X37058449Y-45292408D01*
X37058780Y-45158055D01*
X37058708Y-45050728D01*
X37057430Y-44999331D01*
X36863065Y-44999331D01*
X36863065Y-45585485D01*
X36739071Y-45585371D01*
X36664461Y-45583232D01*
X36586318Y-45577719D01*
X36521120Y-45570008D01*
X36519136Y-45569691D01*
X36413763Y-45544214D01*
X36332032Y-45504536D01*
X36269862Y-45448074D01*
X36230360Y-45386942D01*
X36206020Y-45319129D01*
X36207907Y-45255455D01*
X36236155Y-45187201D01*
X36291408Y-45116592D01*
X36367973Y-45064271D01*
X36467495Y-45029299D01*
X36534007Y-45016922D01*
X36609507Y-45008230D01*
X36689525Y-45001940D01*
X36757584Y-44999324D01*
X36761615Y-44999312D01*
X36863065Y-44999331D01*
X37057430Y-44999331D01*
X37056636Y-44967417D01*
X37050961Y-44905115D01*
X37040087Y-44860811D01*
X37022414Y-44831496D01*
X36996343Y-44814161D01*
X36960275Y-44805797D01*
X36912612Y-44803395D01*
X36851754Y-44803945D01*
X36851754Y-44803945D01*
G37*
X36851754Y-44803945D02*
X36799189Y-44804480D01*
X36645165Y-44808196D01*
X36516171Y-44819235D01*
X36407809Y-44838782D01*
X36315684Y-44868019D01*
X36235399Y-44908133D01*
X36162558Y-44960305D01*
X36136541Y-44982969D01*
X36093383Y-45035998D01*
X36054467Y-45107957D01*
X36024473Y-45187720D01*
X36008081Y-45264161D01*
X36006378Y-45292408D01*
X36017051Y-45370710D01*
X36045653Y-45456241D01*
X36087057Y-45537199D01*
X36136141Y-45601782D01*
X36144113Y-45609574D01*
X36211646Y-45664344D01*
X36285598Y-45707099D01*
X36370234Y-45738959D01*
X36469817Y-45761044D01*
X36588612Y-45774474D01*
X36730880Y-45780370D01*
X36796046Y-45780870D01*
X36878901Y-45780471D01*
X36937169Y-45778802D01*
X36976316Y-45775158D01*
X37001809Y-45768829D01*
X37019114Y-45759110D01*
X37028390Y-45750810D01*
X37037152Y-45740728D01*
X37044025Y-45727721D01*
X37049238Y-45708305D01*
X37053019Y-45678996D01*
X37055597Y-45636309D01*
X37057200Y-45576761D01*
X37058057Y-45496866D01*
X37058397Y-45393141D01*
X37058449Y-45292408D01*
X37058780Y-45158055D01*
X37058708Y-45050728D01*
X37057430Y-44999331D01*
X36863065Y-44999331D01*
X36863065Y-45585485D01*
X36739071Y-45585371D01*
X36664461Y-45583232D01*
X36586318Y-45577719D01*
X36521120Y-45570008D01*
X36519136Y-45569691D01*
X36413763Y-45544214D01*
X36332032Y-45504536D01*
X36269862Y-45448074D01*
X36230360Y-45386942D01*
X36206020Y-45319129D01*
X36207907Y-45255455D01*
X36236155Y-45187201D01*
X36291408Y-45116592D01*
X36367973Y-45064271D01*
X36467495Y-45029299D01*
X36534007Y-45016922D01*
X36609507Y-45008230D01*
X36689525Y-45001940D01*
X36757584Y-44999324D01*
X36761615Y-44999312D01*
X36863065Y-44999331D01*
X37057430Y-44999331D01*
X37056636Y-44967417D01*
X37050961Y-44905115D01*
X37040087Y-44860811D01*
X37022414Y-44831496D01*
X36996343Y-44814161D01*
X36960275Y-44805797D01*
X36912612Y-44803395D01*
X36851754Y-44803945D01*
D13*
G04 #@! TO.C,D1*
X38360000Y-23170000D02*
X41220000Y-23170000D01*
X41220000Y-23170000D02*
X41220000Y-25090000D01*
X41220000Y-25090000D02*
X38360000Y-25090000D01*
G04 #@! TO.C,D2*
X41220000Y-28011000D02*
X38360000Y-28011000D01*
X41220000Y-26091000D02*
X41220000Y-28011000D01*
X38360000Y-26091000D02*
X41220000Y-26091000D01*
G04 #@! TO.C,D3*
X38360000Y-29022000D02*
X41220000Y-29022000D01*
X41220000Y-29022000D02*
X41220000Y-30942000D01*
X41220000Y-30942000D02*
X38360000Y-30942000D01*
G04 #@! TO.C,D4*
X41220000Y-33980000D02*
X38360000Y-33980000D01*
X41220000Y-32060000D02*
X41220000Y-33980000D01*
X38360000Y-32060000D02*
X41220000Y-32060000D01*
G04 #@! TO.C,SW1*
X22340000Y-14350000D02*
X23840000Y-14350000D01*
X26340000Y-15600000D02*
X26340000Y-20100000D01*
X23840000Y-21350000D02*
X22340000Y-21350000D01*
X19840000Y-20100000D02*
X19840000Y-15600000D01*
G04 #@! TO.C,*
D14*
G04 #@! TO.C,D1*
D11*
X37188161Y-24581547D02*
X37188161Y-23581547D01*
X36950066Y-23581547D01*
X36807208Y-23629167D01*
X36711970Y-23724405D01*
X36664351Y-23819643D01*
X36616732Y-24010119D01*
X36616732Y-24152976D01*
X36664351Y-24343452D01*
X36711970Y-24438690D01*
X36807208Y-24533928D01*
X36950066Y-24581547D01*
X37188161Y-24581547D01*
X35664351Y-24581547D02*
X36235780Y-24581547D01*
X35950066Y-24581547D02*
X35950066Y-23581547D01*
X36045304Y-23724405D01*
X36140542Y-23819643D01*
X36235780Y-23867262D01*
G04 #@! TO.C,D2*
X37198095Y-27503380D02*
X37198095Y-26503380D01*
X36960000Y-26503380D01*
X36817142Y-26551000D01*
X36721904Y-26646238D01*
X36674285Y-26741476D01*
X36626666Y-26931952D01*
X36626666Y-27074809D01*
X36674285Y-27265285D01*
X36721904Y-27360523D01*
X36817142Y-27455761D01*
X36960000Y-27503380D01*
X37198095Y-27503380D01*
X36245714Y-26598619D02*
X36198095Y-26551000D01*
X36102857Y-26503380D01*
X35864761Y-26503380D01*
X35769523Y-26551000D01*
X35721904Y-26598619D01*
X35674285Y-26693857D01*
X35674285Y-26789095D01*
X35721904Y-26931952D01*
X36293333Y-27503380D01*
X35674285Y-27503380D01*
G04 #@! TO.C,D3*
X37198095Y-30434380D02*
X37198095Y-29434380D01*
X36960000Y-29434380D01*
X36817142Y-29482000D01*
X36721904Y-29577238D01*
X36674285Y-29672476D01*
X36626666Y-29862952D01*
X36626666Y-30005809D01*
X36674285Y-30196285D01*
X36721904Y-30291523D01*
X36817142Y-30386761D01*
X36960000Y-30434380D01*
X37198095Y-30434380D01*
X36293333Y-29434380D02*
X35674285Y-29434380D01*
X36007619Y-29815333D01*
X35864761Y-29815333D01*
X35769523Y-29862952D01*
X35721904Y-29910571D01*
X35674285Y-30005809D01*
X35674285Y-30243904D01*
X35721904Y-30339142D01*
X35769523Y-30386761D01*
X35864761Y-30434380D01*
X36150476Y-30434380D01*
X36245714Y-30386761D01*
X36293333Y-30339142D01*
G04 #@! TO.C,D4*
X37198095Y-33472380D02*
X37198095Y-32472380D01*
X36960000Y-32472380D01*
X36817142Y-32520000D01*
X36721904Y-32615238D01*
X36674285Y-32710476D01*
X36626666Y-32900952D01*
X36626666Y-33043809D01*
X36674285Y-33234285D01*
X36721904Y-33329523D01*
X36817142Y-33424761D01*
X36960000Y-33472380D01*
X37198095Y-33472380D01*
X35769523Y-32805714D02*
X35769523Y-33472380D01*
X36007619Y-32424761D02*
X36245714Y-33139047D01*
X35626666Y-33139047D01*
G04 #@! TO.C,SW1*
X19003333Y-19424761D02*
X18860476Y-19472380D01*
X18622380Y-19472380D01*
X18527142Y-19424761D01*
X18479523Y-19377142D01*
X18431904Y-19281904D01*
X18431904Y-19186666D01*
X18479523Y-19091428D01*
X18527142Y-19043809D01*
X18622380Y-18996190D01*
X18812857Y-18948571D01*
X18908095Y-18900952D01*
X18955714Y-18853333D01*
X19003333Y-18758095D01*
X19003333Y-18662857D01*
X18955714Y-18567619D01*
X18908095Y-18520000D01*
X18812857Y-18472380D01*
X18574761Y-18472380D01*
X18431904Y-18520000D01*
X18098571Y-18472380D02*
X17860476Y-19472380D01*
X17670000Y-18758095D01*
X17479523Y-19472380D01*
X17241428Y-18472380D01*
X16336666Y-19472380D02*
X16908095Y-19472380D01*
X16622380Y-19472380D02*
X16622380Y-18472380D01*
X16717619Y-18615238D01*
X16812857Y-18710476D01*
X16908095Y-18758095D01*
G04 #@! TD*
M02*
