G04 #@! TF.GenerationSoftware,KiCad,Pcbnew,(5.0.2)-1*
G04 #@! TF.CreationDate,2019-06-20T09:18:01+05:30*
G04 #@! TF.ProjectId,CapacityOfBattery,43617061-6369-4747-994f-664261747465,rev?*
G04 #@! TF.SameCoordinates,Original*
G04 #@! TF.FileFunction,Other,User*
%FSLAX46Y46*%
G04 Gerber Fmt 4.6, Leading zero omitted, Abs format (unit mm)*
G04 Created by KiCad (PCBNEW (5.0.2)-1) date 06/20/19 09:18:01*
%MOMM*%
%LPD*%
G01*
G04 APERTURE LIST*
%ADD10C,0.050000*%
G04 APERTURE END LIST*
D10*
G04 #@! TO.C,*
X44651340Y-67734180D02*
G75*
G03X44651340Y-67734180I-3450000J0D01*
G01*
X19258960Y-67734180D02*
G75*
G03X19258960Y-67734180I-3450000J0D01*
G01*
X19269120Y-15654020D02*
G75*
G03X19269120Y-15654020I-3450000J0D01*
G01*
G04 #@! TO.C,Q3*
X30360000Y-47450000D02*
X26960000Y-47450000D01*
X26960000Y-47450000D02*
X26960000Y-43950000D01*
X26960000Y-43950000D02*
X30360000Y-43950000D01*
X30360000Y-43950000D02*
X30360000Y-47450000D01*
G04 #@! TO.C,R9*
X35590000Y-25700000D02*
X35590000Y-27600000D01*
X35590000Y-27600000D02*
X31890000Y-27600000D01*
X31890000Y-27600000D02*
X31890000Y-25700000D01*
X31890000Y-25700000D02*
X35590000Y-25700000D01*
G04 #@! TO.C,Q6*
X30360000Y-27130000D02*
X26960000Y-27130000D01*
X26960000Y-27130000D02*
X26960000Y-23630000D01*
X26960000Y-23630000D02*
X30360000Y-23630000D01*
X30360000Y-23630000D02*
X30360000Y-27130000D01*
G04 #@! TO.C,D2*
X25850000Y-67750000D02*
X23950000Y-67750000D01*
X23950000Y-67750000D02*
X23950000Y-64050000D01*
X23950000Y-64050000D02*
X25850000Y-64050000D01*
X25850000Y-64050000D02*
X25850000Y-67750000D01*
G04 #@! TO.C,D3*
X29450000Y-64050000D02*
X29450000Y-67750000D01*
X27550000Y-64050000D02*
X29450000Y-64050000D01*
X27550000Y-67750000D02*
X27550000Y-64050000D01*
X29450000Y-67750000D02*
X27550000Y-67750000D01*
G04 #@! TO.C,D4*
X33050000Y-67750000D02*
X31150000Y-67750000D01*
X31150000Y-67750000D02*
X31150000Y-64050000D01*
X31150000Y-64050000D02*
X33050000Y-64050000D01*
X33050000Y-64050000D02*
X33050000Y-67750000D01*
G04 #@! TO.C,D5*
X36650000Y-64050000D02*
X36650000Y-67750000D01*
X34750000Y-64050000D02*
X36650000Y-64050000D01*
X34750000Y-67750000D02*
X34750000Y-64050000D01*
X36650000Y-67750000D02*
X34750000Y-67750000D01*
G04 #@! TO.C,D1*
X22250833Y-67759934D02*
X20350833Y-67759934D01*
X20350833Y-67759934D02*
X20350833Y-64059934D01*
X20350833Y-64059934D02*
X22250833Y-64059934D01*
X22250833Y-64059934D02*
X22250833Y-67759934D01*
G04 #@! TO.C,R6*
X35590000Y-60010000D02*
X35590000Y-61910000D01*
X35590000Y-61910000D02*
X31890000Y-61910000D01*
X31890000Y-61910000D02*
X31890000Y-60010000D01*
X31890000Y-60010000D02*
X35590000Y-60010000D01*
G04 #@! TO.C,R7*
X21730000Y-26990000D02*
X25430000Y-26990000D01*
X21730000Y-28890000D02*
X21730000Y-26990000D01*
X25430000Y-28890000D02*
X21730000Y-28890000D01*
X25430000Y-26990000D02*
X25430000Y-28890000D01*
G04 #@! TO.C,R8*
X21730000Y-25060000D02*
X21730000Y-23160000D01*
X21730000Y-23160000D02*
X25430000Y-23160000D01*
X25430000Y-23160000D02*
X25430000Y-25060000D01*
X25430000Y-25060000D02*
X21730000Y-25060000D01*
G04 #@! TO.C,J2*
X19790000Y-17250000D02*
X19790000Y-20850000D01*
X25940000Y-17250000D02*
X19790000Y-17250000D01*
X25940000Y-20850000D02*
X25940000Y-17250000D01*
X19790000Y-20850000D02*
X25940000Y-20850000D01*
G04 #@! TO.C,J1*
X31220000Y-20850000D02*
X37370000Y-20850000D01*
X37370000Y-20850000D02*
X37370000Y-17250000D01*
X37370000Y-17250000D02*
X31220000Y-17250000D01*
X31220000Y-17250000D02*
X31220000Y-20850000D01*
G04 #@! TO.C,Q1*
X30360000Y-34750000D02*
X26960000Y-34750000D01*
X26960000Y-34750000D02*
X26960000Y-31250000D01*
X26960000Y-31250000D02*
X30360000Y-31250000D01*
X30360000Y-31250000D02*
X30360000Y-34750000D01*
G04 #@! TO.C,Q2*
X30360000Y-37600000D02*
X30360000Y-41100000D01*
X26960000Y-37600000D02*
X30360000Y-37600000D01*
X26960000Y-41100000D02*
X26960000Y-37600000D01*
X30360000Y-41100000D02*
X26960000Y-41100000D01*
G04 #@! TO.C,Q4*
X30360000Y-50300000D02*
X30360000Y-53800000D01*
X26960000Y-50300000D02*
X30360000Y-50300000D01*
X26960000Y-53800000D02*
X26960000Y-50300000D01*
X30360000Y-53800000D02*
X26960000Y-53800000D01*
G04 #@! TO.C,Q5*
X30360000Y-60150000D02*
X26960000Y-60150000D01*
X26960000Y-60150000D02*
X26960000Y-56650000D01*
X26960000Y-56650000D02*
X30360000Y-56650000D01*
X30360000Y-56650000D02*
X30360000Y-60150000D01*
G04 #@! TO.C,R1*
X35590000Y-33320000D02*
X35590000Y-35220000D01*
X35590000Y-35220000D02*
X31890000Y-35220000D01*
X31890000Y-35220000D02*
X31890000Y-33320000D01*
X31890000Y-33320000D02*
X35590000Y-33320000D01*
G04 #@! TO.C,R3*
X31890000Y-46020000D02*
X35590000Y-46020000D01*
X31890000Y-47920000D02*
X31890000Y-46020000D01*
X35590000Y-47920000D02*
X31890000Y-47920000D01*
X35590000Y-46020000D02*
X35590000Y-47920000D01*
G04 #@! TO.C,R4*
X35590000Y-52370000D02*
X35590000Y-54270000D01*
X35590000Y-54270000D02*
X31890000Y-54270000D01*
X31890000Y-54270000D02*
X31890000Y-52370000D01*
X31890000Y-52370000D02*
X35590000Y-52370000D01*
G04 #@! TO.C,R5*
X31890000Y-56200000D02*
X35590000Y-56200000D01*
X31890000Y-58100000D02*
X31890000Y-56200000D01*
X35590000Y-58100000D02*
X31890000Y-58100000D01*
X35590000Y-56200000D02*
X35590000Y-58100000D01*
G04 #@! TO.C,RL1*
X21730000Y-33950000D02*
X21730000Y-32050000D01*
X21730000Y-32050000D02*
X25430000Y-32050000D01*
X25430000Y-32050000D02*
X25430000Y-33950000D01*
X25430000Y-33950000D02*
X21730000Y-33950000D01*
G04 #@! TO.C,RL2*
X25430000Y-40300000D02*
X21730000Y-40300000D01*
X25430000Y-38400000D02*
X25430000Y-40300000D01*
X21730000Y-38400000D02*
X25430000Y-38400000D01*
X21730000Y-40300000D02*
X21730000Y-38400000D01*
G04 #@! TO.C,RL3*
X21730000Y-46650000D02*
X21730000Y-44750000D01*
X21730000Y-44750000D02*
X25430000Y-44750000D01*
X25430000Y-44750000D02*
X25430000Y-46650000D01*
X25430000Y-46650000D02*
X21730000Y-46650000D01*
G04 #@! TO.C,RL4*
X25430000Y-53000000D02*
X21730000Y-53000000D01*
X25430000Y-51100000D02*
X25430000Y-53000000D01*
X21730000Y-51100000D02*
X25430000Y-51100000D01*
X21730000Y-53000000D02*
X21730000Y-51100000D01*
G04 #@! TO.C,R2*
X35590000Y-39670000D02*
X35590000Y-41570000D01*
X35590000Y-41570000D02*
X31890000Y-41570000D01*
X31890000Y-41570000D02*
X31890000Y-39670000D01*
X31890000Y-39670000D02*
X35590000Y-39670000D01*
G04 #@! TO.C,*
X44674200Y-15674340D02*
G75*
G03X44674200Y-15674340I-3450000J0D01*
G01*
G04 #@! TD*
M02*
