G04 #@! TF.GenerationSoftware,KiCad,Pcbnew,(5.0.2)-1*
G04 #@! TF.CreationDate,2019-06-20T09:18:01+05:30*
G04 #@! TF.ProjectId,CapacityOfBattery,43617061-6369-4747-994f-664261747465,rev?*
G04 #@! TF.SameCoordinates,Original*
G04 #@! TF.FileFunction,Paste,Top*
G04 #@! TF.FilePolarity,Positive*
%FSLAX46Y46*%
G04 Gerber Fmt 4.6, Leading zero omitted, Abs format (unit mm)*
G04 Created by KiCad (PCBNEW (5.0.2)-1) date 06/20/19 09:18:01*
%MOMM*%
%LPD*%
G01*
G04 APERTURE LIST*
%ADD10R,0.900000X0.800000*%
%ADD11C,0.100000*%
%ADD12C,1.150000*%
G04 APERTURE END LIST*
D10*
G04 #@! TO.C,Q3*
X29660000Y-46650000D03*
X29660000Y-44750000D03*
X27660000Y-45700000D03*
G04 #@! TD*
D11*
G04 #@! TO.C,R9*
G36*
X35114505Y-25951204D02*
X35138773Y-25954804D01*
X35162572Y-25960765D01*
X35185671Y-25969030D01*
X35207850Y-25979520D01*
X35228893Y-25992132D01*
X35248599Y-26006747D01*
X35266777Y-26023223D01*
X35283253Y-26041401D01*
X35297868Y-26061107D01*
X35310480Y-26082150D01*
X35320970Y-26104329D01*
X35329235Y-26127428D01*
X35335196Y-26151227D01*
X35338796Y-26175495D01*
X35340000Y-26199999D01*
X35340000Y-27100001D01*
X35338796Y-27124505D01*
X35335196Y-27148773D01*
X35329235Y-27172572D01*
X35320970Y-27195671D01*
X35310480Y-27217850D01*
X35297868Y-27238893D01*
X35283253Y-27258599D01*
X35266777Y-27276777D01*
X35248599Y-27293253D01*
X35228893Y-27307868D01*
X35207850Y-27320480D01*
X35185671Y-27330970D01*
X35162572Y-27339235D01*
X35138773Y-27345196D01*
X35114505Y-27348796D01*
X35090001Y-27350000D01*
X34439999Y-27350000D01*
X34415495Y-27348796D01*
X34391227Y-27345196D01*
X34367428Y-27339235D01*
X34344329Y-27330970D01*
X34322150Y-27320480D01*
X34301107Y-27307868D01*
X34281401Y-27293253D01*
X34263223Y-27276777D01*
X34246747Y-27258599D01*
X34232132Y-27238893D01*
X34219520Y-27217850D01*
X34209030Y-27195671D01*
X34200765Y-27172572D01*
X34194804Y-27148773D01*
X34191204Y-27124505D01*
X34190000Y-27100001D01*
X34190000Y-26199999D01*
X34191204Y-26175495D01*
X34194804Y-26151227D01*
X34200765Y-26127428D01*
X34209030Y-26104329D01*
X34219520Y-26082150D01*
X34232132Y-26061107D01*
X34246747Y-26041401D01*
X34263223Y-26023223D01*
X34281401Y-26006747D01*
X34301107Y-25992132D01*
X34322150Y-25979520D01*
X34344329Y-25969030D01*
X34367428Y-25960765D01*
X34391227Y-25954804D01*
X34415495Y-25951204D01*
X34439999Y-25950000D01*
X35090001Y-25950000D01*
X35114505Y-25951204D01*
X35114505Y-25951204D01*
G37*
D12*
X34765000Y-26650000D03*
D11*
G36*
X33064505Y-25951204D02*
X33088773Y-25954804D01*
X33112572Y-25960765D01*
X33135671Y-25969030D01*
X33157850Y-25979520D01*
X33178893Y-25992132D01*
X33198599Y-26006747D01*
X33216777Y-26023223D01*
X33233253Y-26041401D01*
X33247868Y-26061107D01*
X33260480Y-26082150D01*
X33270970Y-26104329D01*
X33279235Y-26127428D01*
X33285196Y-26151227D01*
X33288796Y-26175495D01*
X33290000Y-26199999D01*
X33290000Y-27100001D01*
X33288796Y-27124505D01*
X33285196Y-27148773D01*
X33279235Y-27172572D01*
X33270970Y-27195671D01*
X33260480Y-27217850D01*
X33247868Y-27238893D01*
X33233253Y-27258599D01*
X33216777Y-27276777D01*
X33198599Y-27293253D01*
X33178893Y-27307868D01*
X33157850Y-27320480D01*
X33135671Y-27330970D01*
X33112572Y-27339235D01*
X33088773Y-27345196D01*
X33064505Y-27348796D01*
X33040001Y-27350000D01*
X32389999Y-27350000D01*
X32365495Y-27348796D01*
X32341227Y-27345196D01*
X32317428Y-27339235D01*
X32294329Y-27330970D01*
X32272150Y-27320480D01*
X32251107Y-27307868D01*
X32231401Y-27293253D01*
X32213223Y-27276777D01*
X32196747Y-27258599D01*
X32182132Y-27238893D01*
X32169520Y-27217850D01*
X32159030Y-27195671D01*
X32150765Y-27172572D01*
X32144804Y-27148773D01*
X32141204Y-27124505D01*
X32140000Y-27100001D01*
X32140000Y-26199999D01*
X32141204Y-26175495D01*
X32144804Y-26151227D01*
X32150765Y-26127428D01*
X32159030Y-26104329D01*
X32169520Y-26082150D01*
X32182132Y-26061107D01*
X32196747Y-26041401D01*
X32213223Y-26023223D01*
X32231401Y-26006747D01*
X32251107Y-25992132D01*
X32272150Y-25979520D01*
X32294329Y-25969030D01*
X32317428Y-25960765D01*
X32341227Y-25954804D01*
X32365495Y-25951204D01*
X32389999Y-25950000D01*
X33040001Y-25950000D01*
X33064505Y-25951204D01*
X33064505Y-25951204D01*
G37*
D12*
X32715000Y-26650000D03*
G04 #@! TD*
D10*
G04 #@! TO.C,Q6*
X29660000Y-26330000D03*
X29660000Y-24430000D03*
X27660000Y-25380000D03*
G04 #@! TD*
D11*
G04 #@! TO.C,D2*
G36*
X25374505Y-66351204D02*
X25398773Y-66354804D01*
X25422572Y-66360765D01*
X25445671Y-66369030D01*
X25467850Y-66379520D01*
X25488893Y-66392132D01*
X25508599Y-66406747D01*
X25526777Y-66423223D01*
X25543253Y-66441401D01*
X25557868Y-66461107D01*
X25570480Y-66482150D01*
X25580970Y-66504329D01*
X25589235Y-66527428D01*
X25595196Y-66551227D01*
X25598796Y-66575495D01*
X25600000Y-66599999D01*
X25600000Y-67250001D01*
X25598796Y-67274505D01*
X25595196Y-67298773D01*
X25589235Y-67322572D01*
X25580970Y-67345671D01*
X25570480Y-67367850D01*
X25557868Y-67388893D01*
X25543253Y-67408599D01*
X25526777Y-67426777D01*
X25508599Y-67443253D01*
X25488893Y-67457868D01*
X25467850Y-67470480D01*
X25445671Y-67480970D01*
X25422572Y-67489235D01*
X25398773Y-67495196D01*
X25374505Y-67498796D01*
X25350001Y-67500000D01*
X24449999Y-67500000D01*
X24425495Y-67498796D01*
X24401227Y-67495196D01*
X24377428Y-67489235D01*
X24354329Y-67480970D01*
X24332150Y-67470480D01*
X24311107Y-67457868D01*
X24291401Y-67443253D01*
X24273223Y-67426777D01*
X24256747Y-67408599D01*
X24242132Y-67388893D01*
X24229520Y-67367850D01*
X24219030Y-67345671D01*
X24210765Y-67322572D01*
X24204804Y-67298773D01*
X24201204Y-67274505D01*
X24200000Y-67250001D01*
X24200000Y-66599999D01*
X24201204Y-66575495D01*
X24204804Y-66551227D01*
X24210765Y-66527428D01*
X24219030Y-66504329D01*
X24229520Y-66482150D01*
X24242132Y-66461107D01*
X24256747Y-66441401D01*
X24273223Y-66423223D01*
X24291401Y-66406747D01*
X24311107Y-66392132D01*
X24332150Y-66379520D01*
X24354329Y-66369030D01*
X24377428Y-66360765D01*
X24401227Y-66354804D01*
X24425495Y-66351204D01*
X24449999Y-66350000D01*
X25350001Y-66350000D01*
X25374505Y-66351204D01*
X25374505Y-66351204D01*
G37*
D12*
X24900000Y-66925000D03*
D11*
G36*
X25374505Y-64301204D02*
X25398773Y-64304804D01*
X25422572Y-64310765D01*
X25445671Y-64319030D01*
X25467850Y-64329520D01*
X25488893Y-64342132D01*
X25508599Y-64356747D01*
X25526777Y-64373223D01*
X25543253Y-64391401D01*
X25557868Y-64411107D01*
X25570480Y-64432150D01*
X25580970Y-64454329D01*
X25589235Y-64477428D01*
X25595196Y-64501227D01*
X25598796Y-64525495D01*
X25600000Y-64549999D01*
X25600000Y-65200001D01*
X25598796Y-65224505D01*
X25595196Y-65248773D01*
X25589235Y-65272572D01*
X25580970Y-65295671D01*
X25570480Y-65317850D01*
X25557868Y-65338893D01*
X25543253Y-65358599D01*
X25526777Y-65376777D01*
X25508599Y-65393253D01*
X25488893Y-65407868D01*
X25467850Y-65420480D01*
X25445671Y-65430970D01*
X25422572Y-65439235D01*
X25398773Y-65445196D01*
X25374505Y-65448796D01*
X25350001Y-65450000D01*
X24449999Y-65450000D01*
X24425495Y-65448796D01*
X24401227Y-65445196D01*
X24377428Y-65439235D01*
X24354329Y-65430970D01*
X24332150Y-65420480D01*
X24311107Y-65407868D01*
X24291401Y-65393253D01*
X24273223Y-65376777D01*
X24256747Y-65358599D01*
X24242132Y-65338893D01*
X24229520Y-65317850D01*
X24219030Y-65295671D01*
X24210765Y-65272572D01*
X24204804Y-65248773D01*
X24201204Y-65224505D01*
X24200000Y-65200001D01*
X24200000Y-64549999D01*
X24201204Y-64525495D01*
X24204804Y-64501227D01*
X24210765Y-64477428D01*
X24219030Y-64454329D01*
X24229520Y-64432150D01*
X24242132Y-64411107D01*
X24256747Y-64391401D01*
X24273223Y-64373223D01*
X24291401Y-64356747D01*
X24311107Y-64342132D01*
X24332150Y-64329520D01*
X24354329Y-64319030D01*
X24377428Y-64310765D01*
X24401227Y-64304804D01*
X24425495Y-64301204D01*
X24449999Y-64300000D01*
X25350001Y-64300000D01*
X25374505Y-64301204D01*
X25374505Y-64301204D01*
G37*
D12*
X24900000Y-64875000D03*
G04 #@! TD*
D11*
G04 #@! TO.C,D3*
G36*
X28974505Y-64301204D02*
X28998773Y-64304804D01*
X29022572Y-64310765D01*
X29045671Y-64319030D01*
X29067850Y-64329520D01*
X29088893Y-64342132D01*
X29108599Y-64356747D01*
X29126777Y-64373223D01*
X29143253Y-64391401D01*
X29157868Y-64411107D01*
X29170480Y-64432150D01*
X29180970Y-64454329D01*
X29189235Y-64477428D01*
X29195196Y-64501227D01*
X29198796Y-64525495D01*
X29200000Y-64549999D01*
X29200000Y-65200001D01*
X29198796Y-65224505D01*
X29195196Y-65248773D01*
X29189235Y-65272572D01*
X29180970Y-65295671D01*
X29170480Y-65317850D01*
X29157868Y-65338893D01*
X29143253Y-65358599D01*
X29126777Y-65376777D01*
X29108599Y-65393253D01*
X29088893Y-65407868D01*
X29067850Y-65420480D01*
X29045671Y-65430970D01*
X29022572Y-65439235D01*
X28998773Y-65445196D01*
X28974505Y-65448796D01*
X28950001Y-65450000D01*
X28049999Y-65450000D01*
X28025495Y-65448796D01*
X28001227Y-65445196D01*
X27977428Y-65439235D01*
X27954329Y-65430970D01*
X27932150Y-65420480D01*
X27911107Y-65407868D01*
X27891401Y-65393253D01*
X27873223Y-65376777D01*
X27856747Y-65358599D01*
X27842132Y-65338893D01*
X27829520Y-65317850D01*
X27819030Y-65295671D01*
X27810765Y-65272572D01*
X27804804Y-65248773D01*
X27801204Y-65224505D01*
X27800000Y-65200001D01*
X27800000Y-64549999D01*
X27801204Y-64525495D01*
X27804804Y-64501227D01*
X27810765Y-64477428D01*
X27819030Y-64454329D01*
X27829520Y-64432150D01*
X27842132Y-64411107D01*
X27856747Y-64391401D01*
X27873223Y-64373223D01*
X27891401Y-64356747D01*
X27911107Y-64342132D01*
X27932150Y-64329520D01*
X27954329Y-64319030D01*
X27977428Y-64310765D01*
X28001227Y-64304804D01*
X28025495Y-64301204D01*
X28049999Y-64300000D01*
X28950001Y-64300000D01*
X28974505Y-64301204D01*
X28974505Y-64301204D01*
G37*
D12*
X28500000Y-64875000D03*
D11*
G36*
X28974505Y-66351204D02*
X28998773Y-66354804D01*
X29022572Y-66360765D01*
X29045671Y-66369030D01*
X29067850Y-66379520D01*
X29088893Y-66392132D01*
X29108599Y-66406747D01*
X29126777Y-66423223D01*
X29143253Y-66441401D01*
X29157868Y-66461107D01*
X29170480Y-66482150D01*
X29180970Y-66504329D01*
X29189235Y-66527428D01*
X29195196Y-66551227D01*
X29198796Y-66575495D01*
X29200000Y-66599999D01*
X29200000Y-67250001D01*
X29198796Y-67274505D01*
X29195196Y-67298773D01*
X29189235Y-67322572D01*
X29180970Y-67345671D01*
X29170480Y-67367850D01*
X29157868Y-67388893D01*
X29143253Y-67408599D01*
X29126777Y-67426777D01*
X29108599Y-67443253D01*
X29088893Y-67457868D01*
X29067850Y-67470480D01*
X29045671Y-67480970D01*
X29022572Y-67489235D01*
X28998773Y-67495196D01*
X28974505Y-67498796D01*
X28950001Y-67500000D01*
X28049999Y-67500000D01*
X28025495Y-67498796D01*
X28001227Y-67495196D01*
X27977428Y-67489235D01*
X27954329Y-67480970D01*
X27932150Y-67470480D01*
X27911107Y-67457868D01*
X27891401Y-67443253D01*
X27873223Y-67426777D01*
X27856747Y-67408599D01*
X27842132Y-67388893D01*
X27829520Y-67367850D01*
X27819030Y-67345671D01*
X27810765Y-67322572D01*
X27804804Y-67298773D01*
X27801204Y-67274505D01*
X27800000Y-67250001D01*
X27800000Y-66599999D01*
X27801204Y-66575495D01*
X27804804Y-66551227D01*
X27810765Y-66527428D01*
X27819030Y-66504329D01*
X27829520Y-66482150D01*
X27842132Y-66461107D01*
X27856747Y-66441401D01*
X27873223Y-66423223D01*
X27891401Y-66406747D01*
X27911107Y-66392132D01*
X27932150Y-66379520D01*
X27954329Y-66369030D01*
X27977428Y-66360765D01*
X28001227Y-66354804D01*
X28025495Y-66351204D01*
X28049999Y-66350000D01*
X28950001Y-66350000D01*
X28974505Y-66351204D01*
X28974505Y-66351204D01*
G37*
D12*
X28500000Y-66925000D03*
G04 #@! TD*
D11*
G04 #@! TO.C,D4*
G36*
X32574505Y-66351204D02*
X32598773Y-66354804D01*
X32622572Y-66360765D01*
X32645671Y-66369030D01*
X32667850Y-66379520D01*
X32688893Y-66392132D01*
X32708599Y-66406747D01*
X32726777Y-66423223D01*
X32743253Y-66441401D01*
X32757868Y-66461107D01*
X32770480Y-66482150D01*
X32780970Y-66504329D01*
X32789235Y-66527428D01*
X32795196Y-66551227D01*
X32798796Y-66575495D01*
X32800000Y-66599999D01*
X32800000Y-67250001D01*
X32798796Y-67274505D01*
X32795196Y-67298773D01*
X32789235Y-67322572D01*
X32780970Y-67345671D01*
X32770480Y-67367850D01*
X32757868Y-67388893D01*
X32743253Y-67408599D01*
X32726777Y-67426777D01*
X32708599Y-67443253D01*
X32688893Y-67457868D01*
X32667850Y-67470480D01*
X32645671Y-67480970D01*
X32622572Y-67489235D01*
X32598773Y-67495196D01*
X32574505Y-67498796D01*
X32550001Y-67500000D01*
X31649999Y-67500000D01*
X31625495Y-67498796D01*
X31601227Y-67495196D01*
X31577428Y-67489235D01*
X31554329Y-67480970D01*
X31532150Y-67470480D01*
X31511107Y-67457868D01*
X31491401Y-67443253D01*
X31473223Y-67426777D01*
X31456747Y-67408599D01*
X31442132Y-67388893D01*
X31429520Y-67367850D01*
X31419030Y-67345671D01*
X31410765Y-67322572D01*
X31404804Y-67298773D01*
X31401204Y-67274505D01*
X31400000Y-67250001D01*
X31400000Y-66599999D01*
X31401204Y-66575495D01*
X31404804Y-66551227D01*
X31410765Y-66527428D01*
X31419030Y-66504329D01*
X31429520Y-66482150D01*
X31442132Y-66461107D01*
X31456747Y-66441401D01*
X31473223Y-66423223D01*
X31491401Y-66406747D01*
X31511107Y-66392132D01*
X31532150Y-66379520D01*
X31554329Y-66369030D01*
X31577428Y-66360765D01*
X31601227Y-66354804D01*
X31625495Y-66351204D01*
X31649999Y-66350000D01*
X32550001Y-66350000D01*
X32574505Y-66351204D01*
X32574505Y-66351204D01*
G37*
D12*
X32100000Y-66925000D03*
D11*
G36*
X32574505Y-64301204D02*
X32598773Y-64304804D01*
X32622572Y-64310765D01*
X32645671Y-64319030D01*
X32667850Y-64329520D01*
X32688893Y-64342132D01*
X32708599Y-64356747D01*
X32726777Y-64373223D01*
X32743253Y-64391401D01*
X32757868Y-64411107D01*
X32770480Y-64432150D01*
X32780970Y-64454329D01*
X32789235Y-64477428D01*
X32795196Y-64501227D01*
X32798796Y-64525495D01*
X32800000Y-64549999D01*
X32800000Y-65200001D01*
X32798796Y-65224505D01*
X32795196Y-65248773D01*
X32789235Y-65272572D01*
X32780970Y-65295671D01*
X32770480Y-65317850D01*
X32757868Y-65338893D01*
X32743253Y-65358599D01*
X32726777Y-65376777D01*
X32708599Y-65393253D01*
X32688893Y-65407868D01*
X32667850Y-65420480D01*
X32645671Y-65430970D01*
X32622572Y-65439235D01*
X32598773Y-65445196D01*
X32574505Y-65448796D01*
X32550001Y-65450000D01*
X31649999Y-65450000D01*
X31625495Y-65448796D01*
X31601227Y-65445196D01*
X31577428Y-65439235D01*
X31554329Y-65430970D01*
X31532150Y-65420480D01*
X31511107Y-65407868D01*
X31491401Y-65393253D01*
X31473223Y-65376777D01*
X31456747Y-65358599D01*
X31442132Y-65338893D01*
X31429520Y-65317850D01*
X31419030Y-65295671D01*
X31410765Y-65272572D01*
X31404804Y-65248773D01*
X31401204Y-65224505D01*
X31400000Y-65200001D01*
X31400000Y-64549999D01*
X31401204Y-64525495D01*
X31404804Y-64501227D01*
X31410765Y-64477428D01*
X31419030Y-64454329D01*
X31429520Y-64432150D01*
X31442132Y-64411107D01*
X31456747Y-64391401D01*
X31473223Y-64373223D01*
X31491401Y-64356747D01*
X31511107Y-64342132D01*
X31532150Y-64329520D01*
X31554329Y-64319030D01*
X31577428Y-64310765D01*
X31601227Y-64304804D01*
X31625495Y-64301204D01*
X31649999Y-64300000D01*
X32550001Y-64300000D01*
X32574505Y-64301204D01*
X32574505Y-64301204D01*
G37*
D12*
X32100000Y-64875000D03*
G04 #@! TD*
D11*
G04 #@! TO.C,D5*
G36*
X36174505Y-64301204D02*
X36198773Y-64304804D01*
X36222572Y-64310765D01*
X36245671Y-64319030D01*
X36267850Y-64329520D01*
X36288893Y-64342132D01*
X36308599Y-64356747D01*
X36326777Y-64373223D01*
X36343253Y-64391401D01*
X36357868Y-64411107D01*
X36370480Y-64432150D01*
X36380970Y-64454329D01*
X36389235Y-64477428D01*
X36395196Y-64501227D01*
X36398796Y-64525495D01*
X36400000Y-64549999D01*
X36400000Y-65200001D01*
X36398796Y-65224505D01*
X36395196Y-65248773D01*
X36389235Y-65272572D01*
X36380970Y-65295671D01*
X36370480Y-65317850D01*
X36357868Y-65338893D01*
X36343253Y-65358599D01*
X36326777Y-65376777D01*
X36308599Y-65393253D01*
X36288893Y-65407868D01*
X36267850Y-65420480D01*
X36245671Y-65430970D01*
X36222572Y-65439235D01*
X36198773Y-65445196D01*
X36174505Y-65448796D01*
X36150001Y-65450000D01*
X35249999Y-65450000D01*
X35225495Y-65448796D01*
X35201227Y-65445196D01*
X35177428Y-65439235D01*
X35154329Y-65430970D01*
X35132150Y-65420480D01*
X35111107Y-65407868D01*
X35091401Y-65393253D01*
X35073223Y-65376777D01*
X35056747Y-65358599D01*
X35042132Y-65338893D01*
X35029520Y-65317850D01*
X35019030Y-65295671D01*
X35010765Y-65272572D01*
X35004804Y-65248773D01*
X35001204Y-65224505D01*
X35000000Y-65200001D01*
X35000000Y-64549999D01*
X35001204Y-64525495D01*
X35004804Y-64501227D01*
X35010765Y-64477428D01*
X35019030Y-64454329D01*
X35029520Y-64432150D01*
X35042132Y-64411107D01*
X35056747Y-64391401D01*
X35073223Y-64373223D01*
X35091401Y-64356747D01*
X35111107Y-64342132D01*
X35132150Y-64329520D01*
X35154329Y-64319030D01*
X35177428Y-64310765D01*
X35201227Y-64304804D01*
X35225495Y-64301204D01*
X35249999Y-64300000D01*
X36150001Y-64300000D01*
X36174505Y-64301204D01*
X36174505Y-64301204D01*
G37*
D12*
X35700000Y-64875000D03*
D11*
G36*
X36174505Y-66351204D02*
X36198773Y-66354804D01*
X36222572Y-66360765D01*
X36245671Y-66369030D01*
X36267850Y-66379520D01*
X36288893Y-66392132D01*
X36308599Y-66406747D01*
X36326777Y-66423223D01*
X36343253Y-66441401D01*
X36357868Y-66461107D01*
X36370480Y-66482150D01*
X36380970Y-66504329D01*
X36389235Y-66527428D01*
X36395196Y-66551227D01*
X36398796Y-66575495D01*
X36400000Y-66599999D01*
X36400000Y-67250001D01*
X36398796Y-67274505D01*
X36395196Y-67298773D01*
X36389235Y-67322572D01*
X36380970Y-67345671D01*
X36370480Y-67367850D01*
X36357868Y-67388893D01*
X36343253Y-67408599D01*
X36326777Y-67426777D01*
X36308599Y-67443253D01*
X36288893Y-67457868D01*
X36267850Y-67470480D01*
X36245671Y-67480970D01*
X36222572Y-67489235D01*
X36198773Y-67495196D01*
X36174505Y-67498796D01*
X36150001Y-67500000D01*
X35249999Y-67500000D01*
X35225495Y-67498796D01*
X35201227Y-67495196D01*
X35177428Y-67489235D01*
X35154329Y-67480970D01*
X35132150Y-67470480D01*
X35111107Y-67457868D01*
X35091401Y-67443253D01*
X35073223Y-67426777D01*
X35056747Y-67408599D01*
X35042132Y-67388893D01*
X35029520Y-67367850D01*
X35019030Y-67345671D01*
X35010765Y-67322572D01*
X35004804Y-67298773D01*
X35001204Y-67274505D01*
X35000000Y-67250001D01*
X35000000Y-66599999D01*
X35001204Y-66575495D01*
X35004804Y-66551227D01*
X35010765Y-66527428D01*
X35019030Y-66504329D01*
X35029520Y-66482150D01*
X35042132Y-66461107D01*
X35056747Y-66441401D01*
X35073223Y-66423223D01*
X35091401Y-66406747D01*
X35111107Y-66392132D01*
X35132150Y-66379520D01*
X35154329Y-66369030D01*
X35177428Y-66360765D01*
X35201227Y-66354804D01*
X35225495Y-66351204D01*
X35249999Y-66350000D01*
X36150001Y-66350000D01*
X36174505Y-66351204D01*
X36174505Y-66351204D01*
G37*
D12*
X35700000Y-66925000D03*
G04 #@! TD*
D11*
G04 #@! TO.C,D1*
G36*
X21775338Y-66361138D02*
X21799606Y-66364738D01*
X21823405Y-66370699D01*
X21846504Y-66378964D01*
X21868683Y-66389454D01*
X21889726Y-66402066D01*
X21909432Y-66416681D01*
X21927610Y-66433157D01*
X21944086Y-66451335D01*
X21958701Y-66471041D01*
X21971313Y-66492084D01*
X21981803Y-66514263D01*
X21990068Y-66537362D01*
X21996029Y-66561161D01*
X21999629Y-66585429D01*
X22000833Y-66609933D01*
X22000833Y-67259935D01*
X21999629Y-67284439D01*
X21996029Y-67308707D01*
X21990068Y-67332506D01*
X21981803Y-67355605D01*
X21971313Y-67377784D01*
X21958701Y-67398827D01*
X21944086Y-67418533D01*
X21927610Y-67436711D01*
X21909432Y-67453187D01*
X21889726Y-67467802D01*
X21868683Y-67480414D01*
X21846504Y-67490904D01*
X21823405Y-67499169D01*
X21799606Y-67505130D01*
X21775338Y-67508730D01*
X21750834Y-67509934D01*
X20850832Y-67509934D01*
X20826328Y-67508730D01*
X20802060Y-67505130D01*
X20778261Y-67499169D01*
X20755162Y-67490904D01*
X20732983Y-67480414D01*
X20711940Y-67467802D01*
X20692234Y-67453187D01*
X20674056Y-67436711D01*
X20657580Y-67418533D01*
X20642965Y-67398827D01*
X20630353Y-67377784D01*
X20619863Y-67355605D01*
X20611598Y-67332506D01*
X20605637Y-67308707D01*
X20602037Y-67284439D01*
X20600833Y-67259935D01*
X20600833Y-66609933D01*
X20602037Y-66585429D01*
X20605637Y-66561161D01*
X20611598Y-66537362D01*
X20619863Y-66514263D01*
X20630353Y-66492084D01*
X20642965Y-66471041D01*
X20657580Y-66451335D01*
X20674056Y-66433157D01*
X20692234Y-66416681D01*
X20711940Y-66402066D01*
X20732983Y-66389454D01*
X20755162Y-66378964D01*
X20778261Y-66370699D01*
X20802060Y-66364738D01*
X20826328Y-66361138D01*
X20850832Y-66359934D01*
X21750834Y-66359934D01*
X21775338Y-66361138D01*
X21775338Y-66361138D01*
G37*
D12*
X21300833Y-66934934D03*
D11*
G36*
X21775338Y-64311138D02*
X21799606Y-64314738D01*
X21823405Y-64320699D01*
X21846504Y-64328964D01*
X21868683Y-64339454D01*
X21889726Y-64352066D01*
X21909432Y-64366681D01*
X21927610Y-64383157D01*
X21944086Y-64401335D01*
X21958701Y-64421041D01*
X21971313Y-64442084D01*
X21981803Y-64464263D01*
X21990068Y-64487362D01*
X21996029Y-64511161D01*
X21999629Y-64535429D01*
X22000833Y-64559933D01*
X22000833Y-65209935D01*
X21999629Y-65234439D01*
X21996029Y-65258707D01*
X21990068Y-65282506D01*
X21981803Y-65305605D01*
X21971313Y-65327784D01*
X21958701Y-65348827D01*
X21944086Y-65368533D01*
X21927610Y-65386711D01*
X21909432Y-65403187D01*
X21889726Y-65417802D01*
X21868683Y-65430414D01*
X21846504Y-65440904D01*
X21823405Y-65449169D01*
X21799606Y-65455130D01*
X21775338Y-65458730D01*
X21750834Y-65459934D01*
X20850832Y-65459934D01*
X20826328Y-65458730D01*
X20802060Y-65455130D01*
X20778261Y-65449169D01*
X20755162Y-65440904D01*
X20732983Y-65430414D01*
X20711940Y-65417802D01*
X20692234Y-65403187D01*
X20674056Y-65386711D01*
X20657580Y-65368533D01*
X20642965Y-65348827D01*
X20630353Y-65327784D01*
X20619863Y-65305605D01*
X20611598Y-65282506D01*
X20605637Y-65258707D01*
X20602037Y-65234439D01*
X20600833Y-65209935D01*
X20600833Y-64559933D01*
X20602037Y-64535429D01*
X20605637Y-64511161D01*
X20611598Y-64487362D01*
X20619863Y-64464263D01*
X20630353Y-64442084D01*
X20642965Y-64421041D01*
X20657580Y-64401335D01*
X20674056Y-64383157D01*
X20692234Y-64366681D01*
X20711940Y-64352066D01*
X20732983Y-64339454D01*
X20755162Y-64328964D01*
X20778261Y-64320699D01*
X20802060Y-64314738D01*
X20826328Y-64311138D01*
X20850832Y-64309934D01*
X21750834Y-64309934D01*
X21775338Y-64311138D01*
X21775338Y-64311138D01*
G37*
D12*
X21300833Y-64884934D03*
G04 #@! TD*
D11*
G04 #@! TO.C,R6*
G36*
X35114505Y-60261204D02*
X35138773Y-60264804D01*
X35162572Y-60270765D01*
X35185671Y-60279030D01*
X35207850Y-60289520D01*
X35228893Y-60302132D01*
X35248599Y-60316747D01*
X35266777Y-60333223D01*
X35283253Y-60351401D01*
X35297868Y-60371107D01*
X35310480Y-60392150D01*
X35320970Y-60414329D01*
X35329235Y-60437428D01*
X35335196Y-60461227D01*
X35338796Y-60485495D01*
X35340000Y-60509999D01*
X35340000Y-61410001D01*
X35338796Y-61434505D01*
X35335196Y-61458773D01*
X35329235Y-61482572D01*
X35320970Y-61505671D01*
X35310480Y-61527850D01*
X35297868Y-61548893D01*
X35283253Y-61568599D01*
X35266777Y-61586777D01*
X35248599Y-61603253D01*
X35228893Y-61617868D01*
X35207850Y-61630480D01*
X35185671Y-61640970D01*
X35162572Y-61649235D01*
X35138773Y-61655196D01*
X35114505Y-61658796D01*
X35090001Y-61660000D01*
X34439999Y-61660000D01*
X34415495Y-61658796D01*
X34391227Y-61655196D01*
X34367428Y-61649235D01*
X34344329Y-61640970D01*
X34322150Y-61630480D01*
X34301107Y-61617868D01*
X34281401Y-61603253D01*
X34263223Y-61586777D01*
X34246747Y-61568599D01*
X34232132Y-61548893D01*
X34219520Y-61527850D01*
X34209030Y-61505671D01*
X34200765Y-61482572D01*
X34194804Y-61458773D01*
X34191204Y-61434505D01*
X34190000Y-61410001D01*
X34190000Y-60509999D01*
X34191204Y-60485495D01*
X34194804Y-60461227D01*
X34200765Y-60437428D01*
X34209030Y-60414329D01*
X34219520Y-60392150D01*
X34232132Y-60371107D01*
X34246747Y-60351401D01*
X34263223Y-60333223D01*
X34281401Y-60316747D01*
X34301107Y-60302132D01*
X34322150Y-60289520D01*
X34344329Y-60279030D01*
X34367428Y-60270765D01*
X34391227Y-60264804D01*
X34415495Y-60261204D01*
X34439999Y-60260000D01*
X35090001Y-60260000D01*
X35114505Y-60261204D01*
X35114505Y-60261204D01*
G37*
D12*
X34765000Y-60960000D03*
D11*
G36*
X33064505Y-60261204D02*
X33088773Y-60264804D01*
X33112572Y-60270765D01*
X33135671Y-60279030D01*
X33157850Y-60289520D01*
X33178893Y-60302132D01*
X33198599Y-60316747D01*
X33216777Y-60333223D01*
X33233253Y-60351401D01*
X33247868Y-60371107D01*
X33260480Y-60392150D01*
X33270970Y-60414329D01*
X33279235Y-60437428D01*
X33285196Y-60461227D01*
X33288796Y-60485495D01*
X33290000Y-60509999D01*
X33290000Y-61410001D01*
X33288796Y-61434505D01*
X33285196Y-61458773D01*
X33279235Y-61482572D01*
X33270970Y-61505671D01*
X33260480Y-61527850D01*
X33247868Y-61548893D01*
X33233253Y-61568599D01*
X33216777Y-61586777D01*
X33198599Y-61603253D01*
X33178893Y-61617868D01*
X33157850Y-61630480D01*
X33135671Y-61640970D01*
X33112572Y-61649235D01*
X33088773Y-61655196D01*
X33064505Y-61658796D01*
X33040001Y-61660000D01*
X32389999Y-61660000D01*
X32365495Y-61658796D01*
X32341227Y-61655196D01*
X32317428Y-61649235D01*
X32294329Y-61640970D01*
X32272150Y-61630480D01*
X32251107Y-61617868D01*
X32231401Y-61603253D01*
X32213223Y-61586777D01*
X32196747Y-61568599D01*
X32182132Y-61548893D01*
X32169520Y-61527850D01*
X32159030Y-61505671D01*
X32150765Y-61482572D01*
X32144804Y-61458773D01*
X32141204Y-61434505D01*
X32140000Y-61410001D01*
X32140000Y-60509999D01*
X32141204Y-60485495D01*
X32144804Y-60461227D01*
X32150765Y-60437428D01*
X32159030Y-60414329D01*
X32169520Y-60392150D01*
X32182132Y-60371107D01*
X32196747Y-60351401D01*
X32213223Y-60333223D01*
X32231401Y-60316747D01*
X32251107Y-60302132D01*
X32272150Y-60289520D01*
X32294329Y-60279030D01*
X32317428Y-60270765D01*
X32341227Y-60264804D01*
X32365495Y-60261204D01*
X32389999Y-60260000D01*
X33040001Y-60260000D01*
X33064505Y-60261204D01*
X33064505Y-60261204D01*
G37*
D12*
X32715000Y-60960000D03*
G04 #@! TD*
D11*
G04 #@! TO.C,R7*
G36*
X22904505Y-27241204D02*
X22928773Y-27244804D01*
X22952572Y-27250765D01*
X22975671Y-27259030D01*
X22997850Y-27269520D01*
X23018893Y-27282132D01*
X23038599Y-27296747D01*
X23056777Y-27313223D01*
X23073253Y-27331401D01*
X23087868Y-27351107D01*
X23100480Y-27372150D01*
X23110970Y-27394329D01*
X23119235Y-27417428D01*
X23125196Y-27441227D01*
X23128796Y-27465495D01*
X23130000Y-27489999D01*
X23130000Y-28390001D01*
X23128796Y-28414505D01*
X23125196Y-28438773D01*
X23119235Y-28462572D01*
X23110970Y-28485671D01*
X23100480Y-28507850D01*
X23087868Y-28528893D01*
X23073253Y-28548599D01*
X23056777Y-28566777D01*
X23038599Y-28583253D01*
X23018893Y-28597868D01*
X22997850Y-28610480D01*
X22975671Y-28620970D01*
X22952572Y-28629235D01*
X22928773Y-28635196D01*
X22904505Y-28638796D01*
X22880001Y-28640000D01*
X22229999Y-28640000D01*
X22205495Y-28638796D01*
X22181227Y-28635196D01*
X22157428Y-28629235D01*
X22134329Y-28620970D01*
X22112150Y-28610480D01*
X22091107Y-28597868D01*
X22071401Y-28583253D01*
X22053223Y-28566777D01*
X22036747Y-28548599D01*
X22022132Y-28528893D01*
X22009520Y-28507850D01*
X21999030Y-28485671D01*
X21990765Y-28462572D01*
X21984804Y-28438773D01*
X21981204Y-28414505D01*
X21980000Y-28390001D01*
X21980000Y-27489999D01*
X21981204Y-27465495D01*
X21984804Y-27441227D01*
X21990765Y-27417428D01*
X21999030Y-27394329D01*
X22009520Y-27372150D01*
X22022132Y-27351107D01*
X22036747Y-27331401D01*
X22053223Y-27313223D01*
X22071401Y-27296747D01*
X22091107Y-27282132D01*
X22112150Y-27269520D01*
X22134329Y-27259030D01*
X22157428Y-27250765D01*
X22181227Y-27244804D01*
X22205495Y-27241204D01*
X22229999Y-27240000D01*
X22880001Y-27240000D01*
X22904505Y-27241204D01*
X22904505Y-27241204D01*
G37*
D12*
X22555000Y-27940000D03*
D11*
G36*
X24954505Y-27241204D02*
X24978773Y-27244804D01*
X25002572Y-27250765D01*
X25025671Y-27259030D01*
X25047850Y-27269520D01*
X25068893Y-27282132D01*
X25088599Y-27296747D01*
X25106777Y-27313223D01*
X25123253Y-27331401D01*
X25137868Y-27351107D01*
X25150480Y-27372150D01*
X25160970Y-27394329D01*
X25169235Y-27417428D01*
X25175196Y-27441227D01*
X25178796Y-27465495D01*
X25180000Y-27489999D01*
X25180000Y-28390001D01*
X25178796Y-28414505D01*
X25175196Y-28438773D01*
X25169235Y-28462572D01*
X25160970Y-28485671D01*
X25150480Y-28507850D01*
X25137868Y-28528893D01*
X25123253Y-28548599D01*
X25106777Y-28566777D01*
X25088599Y-28583253D01*
X25068893Y-28597868D01*
X25047850Y-28610480D01*
X25025671Y-28620970D01*
X25002572Y-28629235D01*
X24978773Y-28635196D01*
X24954505Y-28638796D01*
X24930001Y-28640000D01*
X24279999Y-28640000D01*
X24255495Y-28638796D01*
X24231227Y-28635196D01*
X24207428Y-28629235D01*
X24184329Y-28620970D01*
X24162150Y-28610480D01*
X24141107Y-28597868D01*
X24121401Y-28583253D01*
X24103223Y-28566777D01*
X24086747Y-28548599D01*
X24072132Y-28528893D01*
X24059520Y-28507850D01*
X24049030Y-28485671D01*
X24040765Y-28462572D01*
X24034804Y-28438773D01*
X24031204Y-28414505D01*
X24030000Y-28390001D01*
X24030000Y-27489999D01*
X24031204Y-27465495D01*
X24034804Y-27441227D01*
X24040765Y-27417428D01*
X24049030Y-27394329D01*
X24059520Y-27372150D01*
X24072132Y-27351107D01*
X24086747Y-27331401D01*
X24103223Y-27313223D01*
X24121401Y-27296747D01*
X24141107Y-27282132D01*
X24162150Y-27269520D01*
X24184329Y-27259030D01*
X24207428Y-27250765D01*
X24231227Y-27244804D01*
X24255495Y-27241204D01*
X24279999Y-27240000D01*
X24930001Y-27240000D01*
X24954505Y-27241204D01*
X24954505Y-27241204D01*
G37*
D12*
X24605000Y-27940000D03*
G04 #@! TD*
D11*
G04 #@! TO.C,R8*
G36*
X22904505Y-23411204D02*
X22928773Y-23414804D01*
X22952572Y-23420765D01*
X22975671Y-23429030D01*
X22997850Y-23439520D01*
X23018893Y-23452132D01*
X23038599Y-23466747D01*
X23056777Y-23483223D01*
X23073253Y-23501401D01*
X23087868Y-23521107D01*
X23100480Y-23542150D01*
X23110970Y-23564329D01*
X23119235Y-23587428D01*
X23125196Y-23611227D01*
X23128796Y-23635495D01*
X23130000Y-23659999D01*
X23130000Y-24560001D01*
X23128796Y-24584505D01*
X23125196Y-24608773D01*
X23119235Y-24632572D01*
X23110970Y-24655671D01*
X23100480Y-24677850D01*
X23087868Y-24698893D01*
X23073253Y-24718599D01*
X23056777Y-24736777D01*
X23038599Y-24753253D01*
X23018893Y-24767868D01*
X22997850Y-24780480D01*
X22975671Y-24790970D01*
X22952572Y-24799235D01*
X22928773Y-24805196D01*
X22904505Y-24808796D01*
X22880001Y-24810000D01*
X22229999Y-24810000D01*
X22205495Y-24808796D01*
X22181227Y-24805196D01*
X22157428Y-24799235D01*
X22134329Y-24790970D01*
X22112150Y-24780480D01*
X22091107Y-24767868D01*
X22071401Y-24753253D01*
X22053223Y-24736777D01*
X22036747Y-24718599D01*
X22022132Y-24698893D01*
X22009520Y-24677850D01*
X21999030Y-24655671D01*
X21990765Y-24632572D01*
X21984804Y-24608773D01*
X21981204Y-24584505D01*
X21980000Y-24560001D01*
X21980000Y-23659999D01*
X21981204Y-23635495D01*
X21984804Y-23611227D01*
X21990765Y-23587428D01*
X21999030Y-23564329D01*
X22009520Y-23542150D01*
X22022132Y-23521107D01*
X22036747Y-23501401D01*
X22053223Y-23483223D01*
X22071401Y-23466747D01*
X22091107Y-23452132D01*
X22112150Y-23439520D01*
X22134329Y-23429030D01*
X22157428Y-23420765D01*
X22181227Y-23414804D01*
X22205495Y-23411204D01*
X22229999Y-23410000D01*
X22880001Y-23410000D01*
X22904505Y-23411204D01*
X22904505Y-23411204D01*
G37*
D12*
X22555000Y-24110000D03*
D11*
G36*
X24954505Y-23411204D02*
X24978773Y-23414804D01*
X25002572Y-23420765D01*
X25025671Y-23429030D01*
X25047850Y-23439520D01*
X25068893Y-23452132D01*
X25088599Y-23466747D01*
X25106777Y-23483223D01*
X25123253Y-23501401D01*
X25137868Y-23521107D01*
X25150480Y-23542150D01*
X25160970Y-23564329D01*
X25169235Y-23587428D01*
X25175196Y-23611227D01*
X25178796Y-23635495D01*
X25180000Y-23659999D01*
X25180000Y-24560001D01*
X25178796Y-24584505D01*
X25175196Y-24608773D01*
X25169235Y-24632572D01*
X25160970Y-24655671D01*
X25150480Y-24677850D01*
X25137868Y-24698893D01*
X25123253Y-24718599D01*
X25106777Y-24736777D01*
X25088599Y-24753253D01*
X25068893Y-24767868D01*
X25047850Y-24780480D01*
X25025671Y-24790970D01*
X25002572Y-24799235D01*
X24978773Y-24805196D01*
X24954505Y-24808796D01*
X24930001Y-24810000D01*
X24279999Y-24810000D01*
X24255495Y-24808796D01*
X24231227Y-24805196D01*
X24207428Y-24799235D01*
X24184329Y-24790970D01*
X24162150Y-24780480D01*
X24141107Y-24767868D01*
X24121401Y-24753253D01*
X24103223Y-24736777D01*
X24086747Y-24718599D01*
X24072132Y-24698893D01*
X24059520Y-24677850D01*
X24049030Y-24655671D01*
X24040765Y-24632572D01*
X24034804Y-24608773D01*
X24031204Y-24584505D01*
X24030000Y-24560001D01*
X24030000Y-23659999D01*
X24031204Y-23635495D01*
X24034804Y-23611227D01*
X24040765Y-23587428D01*
X24049030Y-23564329D01*
X24059520Y-23542150D01*
X24072132Y-23521107D01*
X24086747Y-23501401D01*
X24103223Y-23483223D01*
X24121401Y-23466747D01*
X24141107Y-23452132D01*
X24162150Y-23439520D01*
X24184329Y-23429030D01*
X24207428Y-23420765D01*
X24231227Y-23414804D01*
X24255495Y-23411204D01*
X24279999Y-23410000D01*
X24930001Y-23410000D01*
X24954505Y-23411204D01*
X24954505Y-23411204D01*
G37*
D12*
X24605000Y-24110000D03*
G04 #@! TD*
D10*
G04 #@! TO.C,Q1*
X29660000Y-33950000D03*
X29660000Y-32050000D03*
X27660000Y-33000000D03*
G04 #@! TD*
G04 #@! TO.C,Q2*
X27660000Y-39350000D03*
X29660000Y-38400000D03*
X29660000Y-40300000D03*
G04 #@! TD*
G04 #@! TO.C,Q4*
X27660000Y-52050000D03*
X29660000Y-51100000D03*
X29660000Y-53000000D03*
G04 #@! TD*
G04 #@! TO.C,Q5*
X29660000Y-59350000D03*
X29660000Y-57450000D03*
X27660000Y-58400000D03*
G04 #@! TD*
D11*
G04 #@! TO.C,R1*
G36*
X35114505Y-33571204D02*
X35138773Y-33574804D01*
X35162572Y-33580765D01*
X35185671Y-33589030D01*
X35207850Y-33599520D01*
X35228893Y-33612132D01*
X35248599Y-33626747D01*
X35266777Y-33643223D01*
X35283253Y-33661401D01*
X35297868Y-33681107D01*
X35310480Y-33702150D01*
X35320970Y-33724329D01*
X35329235Y-33747428D01*
X35335196Y-33771227D01*
X35338796Y-33795495D01*
X35340000Y-33819999D01*
X35340000Y-34720001D01*
X35338796Y-34744505D01*
X35335196Y-34768773D01*
X35329235Y-34792572D01*
X35320970Y-34815671D01*
X35310480Y-34837850D01*
X35297868Y-34858893D01*
X35283253Y-34878599D01*
X35266777Y-34896777D01*
X35248599Y-34913253D01*
X35228893Y-34927868D01*
X35207850Y-34940480D01*
X35185671Y-34950970D01*
X35162572Y-34959235D01*
X35138773Y-34965196D01*
X35114505Y-34968796D01*
X35090001Y-34970000D01*
X34439999Y-34970000D01*
X34415495Y-34968796D01*
X34391227Y-34965196D01*
X34367428Y-34959235D01*
X34344329Y-34950970D01*
X34322150Y-34940480D01*
X34301107Y-34927868D01*
X34281401Y-34913253D01*
X34263223Y-34896777D01*
X34246747Y-34878599D01*
X34232132Y-34858893D01*
X34219520Y-34837850D01*
X34209030Y-34815671D01*
X34200765Y-34792572D01*
X34194804Y-34768773D01*
X34191204Y-34744505D01*
X34190000Y-34720001D01*
X34190000Y-33819999D01*
X34191204Y-33795495D01*
X34194804Y-33771227D01*
X34200765Y-33747428D01*
X34209030Y-33724329D01*
X34219520Y-33702150D01*
X34232132Y-33681107D01*
X34246747Y-33661401D01*
X34263223Y-33643223D01*
X34281401Y-33626747D01*
X34301107Y-33612132D01*
X34322150Y-33599520D01*
X34344329Y-33589030D01*
X34367428Y-33580765D01*
X34391227Y-33574804D01*
X34415495Y-33571204D01*
X34439999Y-33570000D01*
X35090001Y-33570000D01*
X35114505Y-33571204D01*
X35114505Y-33571204D01*
G37*
D12*
X34765000Y-34270000D03*
D11*
G36*
X33064505Y-33571204D02*
X33088773Y-33574804D01*
X33112572Y-33580765D01*
X33135671Y-33589030D01*
X33157850Y-33599520D01*
X33178893Y-33612132D01*
X33198599Y-33626747D01*
X33216777Y-33643223D01*
X33233253Y-33661401D01*
X33247868Y-33681107D01*
X33260480Y-33702150D01*
X33270970Y-33724329D01*
X33279235Y-33747428D01*
X33285196Y-33771227D01*
X33288796Y-33795495D01*
X33290000Y-33819999D01*
X33290000Y-34720001D01*
X33288796Y-34744505D01*
X33285196Y-34768773D01*
X33279235Y-34792572D01*
X33270970Y-34815671D01*
X33260480Y-34837850D01*
X33247868Y-34858893D01*
X33233253Y-34878599D01*
X33216777Y-34896777D01*
X33198599Y-34913253D01*
X33178893Y-34927868D01*
X33157850Y-34940480D01*
X33135671Y-34950970D01*
X33112572Y-34959235D01*
X33088773Y-34965196D01*
X33064505Y-34968796D01*
X33040001Y-34970000D01*
X32389999Y-34970000D01*
X32365495Y-34968796D01*
X32341227Y-34965196D01*
X32317428Y-34959235D01*
X32294329Y-34950970D01*
X32272150Y-34940480D01*
X32251107Y-34927868D01*
X32231401Y-34913253D01*
X32213223Y-34896777D01*
X32196747Y-34878599D01*
X32182132Y-34858893D01*
X32169520Y-34837850D01*
X32159030Y-34815671D01*
X32150765Y-34792572D01*
X32144804Y-34768773D01*
X32141204Y-34744505D01*
X32140000Y-34720001D01*
X32140000Y-33819999D01*
X32141204Y-33795495D01*
X32144804Y-33771227D01*
X32150765Y-33747428D01*
X32159030Y-33724329D01*
X32169520Y-33702150D01*
X32182132Y-33681107D01*
X32196747Y-33661401D01*
X32213223Y-33643223D01*
X32231401Y-33626747D01*
X32251107Y-33612132D01*
X32272150Y-33599520D01*
X32294329Y-33589030D01*
X32317428Y-33580765D01*
X32341227Y-33574804D01*
X32365495Y-33571204D01*
X32389999Y-33570000D01*
X33040001Y-33570000D01*
X33064505Y-33571204D01*
X33064505Y-33571204D01*
G37*
D12*
X32715000Y-34270000D03*
G04 #@! TD*
D11*
G04 #@! TO.C,R3*
G36*
X33064505Y-46271204D02*
X33088773Y-46274804D01*
X33112572Y-46280765D01*
X33135671Y-46289030D01*
X33157850Y-46299520D01*
X33178893Y-46312132D01*
X33198599Y-46326747D01*
X33216777Y-46343223D01*
X33233253Y-46361401D01*
X33247868Y-46381107D01*
X33260480Y-46402150D01*
X33270970Y-46424329D01*
X33279235Y-46447428D01*
X33285196Y-46471227D01*
X33288796Y-46495495D01*
X33290000Y-46519999D01*
X33290000Y-47420001D01*
X33288796Y-47444505D01*
X33285196Y-47468773D01*
X33279235Y-47492572D01*
X33270970Y-47515671D01*
X33260480Y-47537850D01*
X33247868Y-47558893D01*
X33233253Y-47578599D01*
X33216777Y-47596777D01*
X33198599Y-47613253D01*
X33178893Y-47627868D01*
X33157850Y-47640480D01*
X33135671Y-47650970D01*
X33112572Y-47659235D01*
X33088773Y-47665196D01*
X33064505Y-47668796D01*
X33040001Y-47670000D01*
X32389999Y-47670000D01*
X32365495Y-47668796D01*
X32341227Y-47665196D01*
X32317428Y-47659235D01*
X32294329Y-47650970D01*
X32272150Y-47640480D01*
X32251107Y-47627868D01*
X32231401Y-47613253D01*
X32213223Y-47596777D01*
X32196747Y-47578599D01*
X32182132Y-47558893D01*
X32169520Y-47537850D01*
X32159030Y-47515671D01*
X32150765Y-47492572D01*
X32144804Y-47468773D01*
X32141204Y-47444505D01*
X32140000Y-47420001D01*
X32140000Y-46519999D01*
X32141204Y-46495495D01*
X32144804Y-46471227D01*
X32150765Y-46447428D01*
X32159030Y-46424329D01*
X32169520Y-46402150D01*
X32182132Y-46381107D01*
X32196747Y-46361401D01*
X32213223Y-46343223D01*
X32231401Y-46326747D01*
X32251107Y-46312132D01*
X32272150Y-46299520D01*
X32294329Y-46289030D01*
X32317428Y-46280765D01*
X32341227Y-46274804D01*
X32365495Y-46271204D01*
X32389999Y-46270000D01*
X33040001Y-46270000D01*
X33064505Y-46271204D01*
X33064505Y-46271204D01*
G37*
D12*
X32715000Y-46970000D03*
D11*
G36*
X35114505Y-46271204D02*
X35138773Y-46274804D01*
X35162572Y-46280765D01*
X35185671Y-46289030D01*
X35207850Y-46299520D01*
X35228893Y-46312132D01*
X35248599Y-46326747D01*
X35266777Y-46343223D01*
X35283253Y-46361401D01*
X35297868Y-46381107D01*
X35310480Y-46402150D01*
X35320970Y-46424329D01*
X35329235Y-46447428D01*
X35335196Y-46471227D01*
X35338796Y-46495495D01*
X35340000Y-46519999D01*
X35340000Y-47420001D01*
X35338796Y-47444505D01*
X35335196Y-47468773D01*
X35329235Y-47492572D01*
X35320970Y-47515671D01*
X35310480Y-47537850D01*
X35297868Y-47558893D01*
X35283253Y-47578599D01*
X35266777Y-47596777D01*
X35248599Y-47613253D01*
X35228893Y-47627868D01*
X35207850Y-47640480D01*
X35185671Y-47650970D01*
X35162572Y-47659235D01*
X35138773Y-47665196D01*
X35114505Y-47668796D01*
X35090001Y-47670000D01*
X34439999Y-47670000D01*
X34415495Y-47668796D01*
X34391227Y-47665196D01*
X34367428Y-47659235D01*
X34344329Y-47650970D01*
X34322150Y-47640480D01*
X34301107Y-47627868D01*
X34281401Y-47613253D01*
X34263223Y-47596777D01*
X34246747Y-47578599D01*
X34232132Y-47558893D01*
X34219520Y-47537850D01*
X34209030Y-47515671D01*
X34200765Y-47492572D01*
X34194804Y-47468773D01*
X34191204Y-47444505D01*
X34190000Y-47420001D01*
X34190000Y-46519999D01*
X34191204Y-46495495D01*
X34194804Y-46471227D01*
X34200765Y-46447428D01*
X34209030Y-46424329D01*
X34219520Y-46402150D01*
X34232132Y-46381107D01*
X34246747Y-46361401D01*
X34263223Y-46343223D01*
X34281401Y-46326747D01*
X34301107Y-46312132D01*
X34322150Y-46299520D01*
X34344329Y-46289030D01*
X34367428Y-46280765D01*
X34391227Y-46274804D01*
X34415495Y-46271204D01*
X34439999Y-46270000D01*
X35090001Y-46270000D01*
X35114505Y-46271204D01*
X35114505Y-46271204D01*
G37*
D12*
X34765000Y-46970000D03*
G04 #@! TD*
D11*
G04 #@! TO.C,R4*
G36*
X35114505Y-52621204D02*
X35138773Y-52624804D01*
X35162572Y-52630765D01*
X35185671Y-52639030D01*
X35207850Y-52649520D01*
X35228893Y-52662132D01*
X35248599Y-52676747D01*
X35266777Y-52693223D01*
X35283253Y-52711401D01*
X35297868Y-52731107D01*
X35310480Y-52752150D01*
X35320970Y-52774329D01*
X35329235Y-52797428D01*
X35335196Y-52821227D01*
X35338796Y-52845495D01*
X35340000Y-52869999D01*
X35340000Y-53770001D01*
X35338796Y-53794505D01*
X35335196Y-53818773D01*
X35329235Y-53842572D01*
X35320970Y-53865671D01*
X35310480Y-53887850D01*
X35297868Y-53908893D01*
X35283253Y-53928599D01*
X35266777Y-53946777D01*
X35248599Y-53963253D01*
X35228893Y-53977868D01*
X35207850Y-53990480D01*
X35185671Y-54000970D01*
X35162572Y-54009235D01*
X35138773Y-54015196D01*
X35114505Y-54018796D01*
X35090001Y-54020000D01*
X34439999Y-54020000D01*
X34415495Y-54018796D01*
X34391227Y-54015196D01*
X34367428Y-54009235D01*
X34344329Y-54000970D01*
X34322150Y-53990480D01*
X34301107Y-53977868D01*
X34281401Y-53963253D01*
X34263223Y-53946777D01*
X34246747Y-53928599D01*
X34232132Y-53908893D01*
X34219520Y-53887850D01*
X34209030Y-53865671D01*
X34200765Y-53842572D01*
X34194804Y-53818773D01*
X34191204Y-53794505D01*
X34190000Y-53770001D01*
X34190000Y-52869999D01*
X34191204Y-52845495D01*
X34194804Y-52821227D01*
X34200765Y-52797428D01*
X34209030Y-52774329D01*
X34219520Y-52752150D01*
X34232132Y-52731107D01*
X34246747Y-52711401D01*
X34263223Y-52693223D01*
X34281401Y-52676747D01*
X34301107Y-52662132D01*
X34322150Y-52649520D01*
X34344329Y-52639030D01*
X34367428Y-52630765D01*
X34391227Y-52624804D01*
X34415495Y-52621204D01*
X34439999Y-52620000D01*
X35090001Y-52620000D01*
X35114505Y-52621204D01*
X35114505Y-52621204D01*
G37*
D12*
X34765000Y-53320000D03*
D11*
G36*
X33064505Y-52621204D02*
X33088773Y-52624804D01*
X33112572Y-52630765D01*
X33135671Y-52639030D01*
X33157850Y-52649520D01*
X33178893Y-52662132D01*
X33198599Y-52676747D01*
X33216777Y-52693223D01*
X33233253Y-52711401D01*
X33247868Y-52731107D01*
X33260480Y-52752150D01*
X33270970Y-52774329D01*
X33279235Y-52797428D01*
X33285196Y-52821227D01*
X33288796Y-52845495D01*
X33290000Y-52869999D01*
X33290000Y-53770001D01*
X33288796Y-53794505D01*
X33285196Y-53818773D01*
X33279235Y-53842572D01*
X33270970Y-53865671D01*
X33260480Y-53887850D01*
X33247868Y-53908893D01*
X33233253Y-53928599D01*
X33216777Y-53946777D01*
X33198599Y-53963253D01*
X33178893Y-53977868D01*
X33157850Y-53990480D01*
X33135671Y-54000970D01*
X33112572Y-54009235D01*
X33088773Y-54015196D01*
X33064505Y-54018796D01*
X33040001Y-54020000D01*
X32389999Y-54020000D01*
X32365495Y-54018796D01*
X32341227Y-54015196D01*
X32317428Y-54009235D01*
X32294329Y-54000970D01*
X32272150Y-53990480D01*
X32251107Y-53977868D01*
X32231401Y-53963253D01*
X32213223Y-53946777D01*
X32196747Y-53928599D01*
X32182132Y-53908893D01*
X32169520Y-53887850D01*
X32159030Y-53865671D01*
X32150765Y-53842572D01*
X32144804Y-53818773D01*
X32141204Y-53794505D01*
X32140000Y-53770001D01*
X32140000Y-52869999D01*
X32141204Y-52845495D01*
X32144804Y-52821227D01*
X32150765Y-52797428D01*
X32159030Y-52774329D01*
X32169520Y-52752150D01*
X32182132Y-52731107D01*
X32196747Y-52711401D01*
X32213223Y-52693223D01*
X32231401Y-52676747D01*
X32251107Y-52662132D01*
X32272150Y-52649520D01*
X32294329Y-52639030D01*
X32317428Y-52630765D01*
X32341227Y-52624804D01*
X32365495Y-52621204D01*
X32389999Y-52620000D01*
X33040001Y-52620000D01*
X33064505Y-52621204D01*
X33064505Y-52621204D01*
G37*
D12*
X32715000Y-53320000D03*
G04 #@! TD*
D11*
G04 #@! TO.C,R5*
G36*
X33064505Y-56451204D02*
X33088773Y-56454804D01*
X33112572Y-56460765D01*
X33135671Y-56469030D01*
X33157850Y-56479520D01*
X33178893Y-56492132D01*
X33198599Y-56506747D01*
X33216777Y-56523223D01*
X33233253Y-56541401D01*
X33247868Y-56561107D01*
X33260480Y-56582150D01*
X33270970Y-56604329D01*
X33279235Y-56627428D01*
X33285196Y-56651227D01*
X33288796Y-56675495D01*
X33290000Y-56699999D01*
X33290000Y-57600001D01*
X33288796Y-57624505D01*
X33285196Y-57648773D01*
X33279235Y-57672572D01*
X33270970Y-57695671D01*
X33260480Y-57717850D01*
X33247868Y-57738893D01*
X33233253Y-57758599D01*
X33216777Y-57776777D01*
X33198599Y-57793253D01*
X33178893Y-57807868D01*
X33157850Y-57820480D01*
X33135671Y-57830970D01*
X33112572Y-57839235D01*
X33088773Y-57845196D01*
X33064505Y-57848796D01*
X33040001Y-57850000D01*
X32389999Y-57850000D01*
X32365495Y-57848796D01*
X32341227Y-57845196D01*
X32317428Y-57839235D01*
X32294329Y-57830970D01*
X32272150Y-57820480D01*
X32251107Y-57807868D01*
X32231401Y-57793253D01*
X32213223Y-57776777D01*
X32196747Y-57758599D01*
X32182132Y-57738893D01*
X32169520Y-57717850D01*
X32159030Y-57695671D01*
X32150765Y-57672572D01*
X32144804Y-57648773D01*
X32141204Y-57624505D01*
X32140000Y-57600001D01*
X32140000Y-56699999D01*
X32141204Y-56675495D01*
X32144804Y-56651227D01*
X32150765Y-56627428D01*
X32159030Y-56604329D01*
X32169520Y-56582150D01*
X32182132Y-56561107D01*
X32196747Y-56541401D01*
X32213223Y-56523223D01*
X32231401Y-56506747D01*
X32251107Y-56492132D01*
X32272150Y-56479520D01*
X32294329Y-56469030D01*
X32317428Y-56460765D01*
X32341227Y-56454804D01*
X32365495Y-56451204D01*
X32389999Y-56450000D01*
X33040001Y-56450000D01*
X33064505Y-56451204D01*
X33064505Y-56451204D01*
G37*
D12*
X32715000Y-57150000D03*
D11*
G36*
X35114505Y-56451204D02*
X35138773Y-56454804D01*
X35162572Y-56460765D01*
X35185671Y-56469030D01*
X35207850Y-56479520D01*
X35228893Y-56492132D01*
X35248599Y-56506747D01*
X35266777Y-56523223D01*
X35283253Y-56541401D01*
X35297868Y-56561107D01*
X35310480Y-56582150D01*
X35320970Y-56604329D01*
X35329235Y-56627428D01*
X35335196Y-56651227D01*
X35338796Y-56675495D01*
X35340000Y-56699999D01*
X35340000Y-57600001D01*
X35338796Y-57624505D01*
X35335196Y-57648773D01*
X35329235Y-57672572D01*
X35320970Y-57695671D01*
X35310480Y-57717850D01*
X35297868Y-57738893D01*
X35283253Y-57758599D01*
X35266777Y-57776777D01*
X35248599Y-57793253D01*
X35228893Y-57807868D01*
X35207850Y-57820480D01*
X35185671Y-57830970D01*
X35162572Y-57839235D01*
X35138773Y-57845196D01*
X35114505Y-57848796D01*
X35090001Y-57850000D01*
X34439999Y-57850000D01*
X34415495Y-57848796D01*
X34391227Y-57845196D01*
X34367428Y-57839235D01*
X34344329Y-57830970D01*
X34322150Y-57820480D01*
X34301107Y-57807868D01*
X34281401Y-57793253D01*
X34263223Y-57776777D01*
X34246747Y-57758599D01*
X34232132Y-57738893D01*
X34219520Y-57717850D01*
X34209030Y-57695671D01*
X34200765Y-57672572D01*
X34194804Y-57648773D01*
X34191204Y-57624505D01*
X34190000Y-57600001D01*
X34190000Y-56699999D01*
X34191204Y-56675495D01*
X34194804Y-56651227D01*
X34200765Y-56627428D01*
X34209030Y-56604329D01*
X34219520Y-56582150D01*
X34232132Y-56561107D01*
X34246747Y-56541401D01*
X34263223Y-56523223D01*
X34281401Y-56506747D01*
X34301107Y-56492132D01*
X34322150Y-56479520D01*
X34344329Y-56469030D01*
X34367428Y-56460765D01*
X34391227Y-56454804D01*
X34415495Y-56451204D01*
X34439999Y-56450000D01*
X35090001Y-56450000D01*
X35114505Y-56451204D01*
X35114505Y-56451204D01*
G37*
D12*
X34765000Y-57150000D03*
G04 #@! TD*
D11*
G04 #@! TO.C,RL1*
G36*
X22904505Y-32301204D02*
X22928773Y-32304804D01*
X22952572Y-32310765D01*
X22975671Y-32319030D01*
X22997850Y-32329520D01*
X23018893Y-32342132D01*
X23038599Y-32356747D01*
X23056777Y-32373223D01*
X23073253Y-32391401D01*
X23087868Y-32411107D01*
X23100480Y-32432150D01*
X23110970Y-32454329D01*
X23119235Y-32477428D01*
X23125196Y-32501227D01*
X23128796Y-32525495D01*
X23130000Y-32549999D01*
X23130000Y-33450001D01*
X23128796Y-33474505D01*
X23125196Y-33498773D01*
X23119235Y-33522572D01*
X23110970Y-33545671D01*
X23100480Y-33567850D01*
X23087868Y-33588893D01*
X23073253Y-33608599D01*
X23056777Y-33626777D01*
X23038599Y-33643253D01*
X23018893Y-33657868D01*
X22997850Y-33670480D01*
X22975671Y-33680970D01*
X22952572Y-33689235D01*
X22928773Y-33695196D01*
X22904505Y-33698796D01*
X22880001Y-33700000D01*
X22229999Y-33700000D01*
X22205495Y-33698796D01*
X22181227Y-33695196D01*
X22157428Y-33689235D01*
X22134329Y-33680970D01*
X22112150Y-33670480D01*
X22091107Y-33657868D01*
X22071401Y-33643253D01*
X22053223Y-33626777D01*
X22036747Y-33608599D01*
X22022132Y-33588893D01*
X22009520Y-33567850D01*
X21999030Y-33545671D01*
X21990765Y-33522572D01*
X21984804Y-33498773D01*
X21981204Y-33474505D01*
X21980000Y-33450001D01*
X21980000Y-32549999D01*
X21981204Y-32525495D01*
X21984804Y-32501227D01*
X21990765Y-32477428D01*
X21999030Y-32454329D01*
X22009520Y-32432150D01*
X22022132Y-32411107D01*
X22036747Y-32391401D01*
X22053223Y-32373223D01*
X22071401Y-32356747D01*
X22091107Y-32342132D01*
X22112150Y-32329520D01*
X22134329Y-32319030D01*
X22157428Y-32310765D01*
X22181227Y-32304804D01*
X22205495Y-32301204D01*
X22229999Y-32300000D01*
X22880001Y-32300000D01*
X22904505Y-32301204D01*
X22904505Y-32301204D01*
G37*
D12*
X22555000Y-33000000D03*
D11*
G36*
X24954505Y-32301204D02*
X24978773Y-32304804D01*
X25002572Y-32310765D01*
X25025671Y-32319030D01*
X25047850Y-32329520D01*
X25068893Y-32342132D01*
X25088599Y-32356747D01*
X25106777Y-32373223D01*
X25123253Y-32391401D01*
X25137868Y-32411107D01*
X25150480Y-32432150D01*
X25160970Y-32454329D01*
X25169235Y-32477428D01*
X25175196Y-32501227D01*
X25178796Y-32525495D01*
X25180000Y-32549999D01*
X25180000Y-33450001D01*
X25178796Y-33474505D01*
X25175196Y-33498773D01*
X25169235Y-33522572D01*
X25160970Y-33545671D01*
X25150480Y-33567850D01*
X25137868Y-33588893D01*
X25123253Y-33608599D01*
X25106777Y-33626777D01*
X25088599Y-33643253D01*
X25068893Y-33657868D01*
X25047850Y-33670480D01*
X25025671Y-33680970D01*
X25002572Y-33689235D01*
X24978773Y-33695196D01*
X24954505Y-33698796D01*
X24930001Y-33700000D01*
X24279999Y-33700000D01*
X24255495Y-33698796D01*
X24231227Y-33695196D01*
X24207428Y-33689235D01*
X24184329Y-33680970D01*
X24162150Y-33670480D01*
X24141107Y-33657868D01*
X24121401Y-33643253D01*
X24103223Y-33626777D01*
X24086747Y-33608599D01*
X24072132Y-33588893D01*
X24059520Y-33567850D01*
X24049030Y-33545671D01*
X24040765Y-33522572D01*
X24034804Y-33498773D01*
X24031204Y-33474505D01*
X24030000Y-33450001D01*
X24030000Y-32549999D01*
X24031204Y-32525495D01*
X24034804Y-32501227D01*
X24040765Y-32477428D01*
X24049030Y-32454329D01*
X24059520Y-32432150D01*
X24072132Y-32411107D01*
X24086747Y-32391401D01*
X24103223Y-32373223D01*
X24121401Y-32356747D01*
X24141107Y-32342132D01*
X24162150Y-32329520D01*
X24184329Y-32319030D01*
X24207428Y-32310765D01*
X24231227Y-32304804D01*
X24255495Y-32301204D01*
X24279999Y-32300000D01*
X24930001Y-32300000D01*
X24954505Y-32301204D01*
X24954505Y-32301204D01*
G37*
D12*
X24605000Y-33000000D03*
G04 #@! TD*
D11*
G04 #@! TO.C,RL2*
G36*
X24954505Y-38651204D02*
X24978773Y-38654804D01*
X25002572Y-38660765D01*
X25025671Y-38669030D01*
X25047850Y-38679520D01*
X25068893Y-38692132D01*
X25088599Y-38706747D01*
X25106777Y-38723223D01*
X25123253Y-38741401D01*
X25137868Y-38761107D01*
X25150480Y-38782150D01*
X25160970Y-38804329D01*
X25169235Y-38827428D01*
X25175196Y-38851227D01*
X25178796Y-38875495D01*
X25180000Y-38899999D01*
X25180000Y-39800001D01*
X25178796Y-39824505D01*
X25175196Y-39848773D01*
X25169235Y-39872572D01*
X25160970Y-39895671D01*
X25150480Y-39917850D01*
X25137868Y-39938893D01*
X25123253Y-39958599D01*
X25106777Y-39976777D01*
X25088599Y-39993253D01*
X25068893Y-40007868D01*
X25047850Y-40020480D01*
X25025671Y-40030970D01*
X25002572Y-40039235D01*
X24978773Y-40045196D01*
X24954505Y-40048796D01*
X24930001Y-40050000D01*
X24279999Y-40050000D01*
X24255495Y-40048796D01*
X24231227Y-40045196D01*
X24207428Y-40039235D01*
X24184329Y-40030970D01*
X24162150Y-40020480D01*
X24141107Y-40007868D01*
X24121401Y-39993253D01*
X24103223Y-39976777D01*
X24086747Y-39958599D01*
X24072132Y-39938893D01*
X24059520Y-39917850D01*
X24049030Y-39895671D01*
X24040765Y-39872572D01*
X24034804Y-39848773D01*
X24031204Y-39824505D01*
X24030000Y-39800001D01*
X24030000Y-38899999D01*
X24031204Y-38875495D01*
X24034804Y-38851227D01*
X24040765Y-38827428D01*
X24049030Y-38804329D01*
X24059520Y-38782150D01*
X24072132Y-38761107D01*
X24086747Y-38741401D01*
X24103223Y-38723223D01*
X24121401Y-38706747D01*
X24141107Y-38692132D01*
X24162150Y-38679520D01*
X24184329Y-38669030D01*
X24207428Y-38660765D01*
X24231227Y-38654804D01*
X24255495Y-38651204D01*
X24279999Y-38650000D01*
X24930001Y-38650000D01*
X24954505Y-38651204D01*
X24954505Y-38651204D01*
G37*
D12*
X24605000Y-39350000D03*
D11*
G36*
X22904505Y-38651204D02*
X22928773Y-38654804D01*
X22952572Y-38660765D01*
X22975671Y-38669030D01*
X22997850Y-38679520D01*
X23018893Y-38692132D01*
X23038599Y-38706747D01*
X23056777Y-38723223D01*
X23073253Y-38741401D01*
X23087868Y-38761107D01*
X23100480Y-38782150D01*
X23110970Y-38804329D01*
X23119235Y-38827428D01*
X23125196Y-38851227D01*
X23128796Y-38875495D01*
X23130000Y-38899999D01*
X23130000Y-39800001D01*
X23128796Y-39824505D01*
X23125196Y-39848773D01*
X23119235Y-39872572D01*
X23110970Y-39895671D01*
X23100480Y-39917850D01*
X23087868Y-39938893D01*
X23073253Y-39958599D01*
X23056777Y-39976777D01*
X23038599Y-39993253D01*
X23018893Y-40007868D01*
X22997850Y-40020480D01*
X22975671Y-40030970D01*
X22952572Y-40039235D01*
X22928773Y-40045196D01*
X22904505Y-40048796D01*
X22880001Y-40050000D01*
X22229999Y-40050000D01*
X22205495Y-40048796D01*
X22181227Y-40045196D01*
X22157428Y-40039235D01*
X22134329Y-40030970D01*
X22112150Y-40020480D01*
X22091107Y-40007868D01*
X22071401Y-39993253D01*
X22053223Y-39976777D01*
X22036747Y-39958599D01*
X22022132Y-39938893D01*
X22009520Y-39917850D01*
X21999030Y-39895671D01*
X21990765Y-39872572D01*
X21984804Y-39848773D01*
X21981204Y-39824505D01*
X21980000Y-39800001D01*
X21980000Y-38899999D01*
X21981204Y-38875495D01*
X21984804Y-38851227D01*
X21990765Y-38827428D01*
X21999030Y-38804329D01*
X22009520Y-38782150D01*
X22022132Y-38761107D01*
X22036747Y-38741401D01*
X22053223Y-38723223D01*
X22071401Y-38706747D01*
X22091107Y-38692132D01*
X22112150Y-38679520D01*
X22134329Y-38669030D01*
X22157428Y-38660765D01*
X22181227Y-38654804D01*
X22205495Y-38651204D01*
X22229999Y-38650000D01*
X22880001Y-38650000D01*
X22904505Y-38651204D01*
X22904505Y-38651204D01*
G37*
D12*
X22555000Y-39350000D03*
G04 #@! TD*
D11*
G04 #@! TO.C,RL3*
G36*
X22904505Y-45001204D02*
X22928773Y-45004804D01*
X22952572Y-45010765D01*
X22975671Y-45019030D01*
X22997850Y-45029520D01*
X23018893Y-45042132D01*
X23038599Y-45056747D01*
X23056777Y-45073223D01*
X23073253Y-45091401D01*
X23087868Y-45111107D01*
X23100480Y-45132150D01*
X23110970Y-45154329D01*
X23119235Y-45177428D01*
X23125196Y-45201227D01*
X23128796Y-45225495D01*
X23130000Y-45249999D01*
X23130000Y-46150001D01*
X23128796Y-46174505D01*
X23125196Y-46198773D01*
X23119235Y-46222572D01*
X23110970Y-46245671D01*
X23100480Y-46267850D01*
X23087868Y-46288893D01*
X23073253Y-46308599D01*
X23056777Y-46326777D01*
X23038599Y-46343253D01*
X23018893Y-46357868D01*
X22997850Y-46370480D01*
X22975671Y-46380970D01*
X22952572Y-46389235D01*
X22928773Y-46395196D01*
X22904505Y-46398796D01*
X22880001Y-46400000D01*
X22229999Y-46400000D01*
X22205495Y-46398796D01*
X22181227Y-46395196D01*
X22157428Y-46389235D01*
X22134329Y-46380970D01*
X22112150Y-46370480D01*
X22091107Y-46357868D01*
X22071401Y-46343253D01*
X22053223Y-46326777D01*
X22036747Y-46308599D01*
X22022132Y-46288893D01*
X22009520Y-46267850D01*
X21999030Y-46245671D01*
X21990765Y-46222572D01*
X21984804Y-46198773D01*
X21981204Y-46174505D01*
X21980000Y-46150001D01*
X21980000Y-45249999D01*
X21981204Y-45225495D01*
X21984804Y-45201227D01*
X21990765Y-45177428D01*
X21999030Y-45154329D01*
X22009520Y-45132150D01*
X22022132Y-45111107D01*
X22036747Y-45091401D01*
X22053223Y-45073223D01*
X22071401Y-45056747D01*
X22091107Y-45042132D01*
X22112150Y-45029520D01*
X22134329Y-45019030D01*
X22157428Y-45010765D01*
X22181227Y-45004804D01*
X22205495Y-45001204D01*
X22229999Y-45000000D01*
X22880001Y-45000000D01*
X22904505Y-45001204D01*
X22904505Y-45001204D01*
G37*
D12*
X22555000Y-45700000D03*
D11*
G36*
X24954505Y-45001204D02*
X24978773Y-45004804D01*
X25002572Y-45010765D01*
X25025671Y-45019030D01*
X25047850Y-45029520D01*
X25068893Y-45042132D01*
X25088599Y-45056747D01*
X25106777Y-45073223D01*
X25123253Y-45091401D01*
X25137868Y-45111107D01*
X25150480Y-45132150D01*
X25160970Y-45154329D01*
X25169235Y-45177428D01*
X25175196Y-45201227D01*
X25178796Y-45225495D01*
X25180000Y-45249999D01*
X25180000Y-46150001D01*
X25178796Y-46174505D01*
X25175196Y-46198773D01*
X25169235Y-46222572D01*
X25160970Y-46245671D01*
X25150480Y-46267850D01*
X25137868Y-46288893D01*
X25123253Y-46308599D01*
X25106777Y-46326777D01*
X25088599Y-46343253D01*
X25068893Y-46357868D01*
X25047850Y-46370480D01*
X25025671Y-46380970D01*
X25002572Y-46389235D01*
X24978773Y-46395196D01*
X24954505Y-46398796D01*
X24930001Y-46400000D01*
X24279999Y-46400000D01*
X24255495Y-46398796D01*
X24231227Y-46395196D01*
X24207428Y-46389235D01*
X24184329Y-46380970D01*
X24162150Y-46370480D01*
X24141107Y-46357868D01*
X24121401Y-46343253D01*
X24103223Y-46326777D01*
X24086747Y-46308599D01*
X24072132Y-46288893D01*
X24059520Y-46267850D01*
X24049030Y-46245671D01*
X24040765Y-46222572D01*
X24034804Y-46198773D01*
X24031204Y-46174505D01*
X24030000Y-46150001D01*
X24030000Y-45249999D01*
X24031204Y-45225495D01*
X24034804Y-45201227D01*
X24040765Y-45177428D01*
X24049030Y-45154329D01*
X24059520Y-45132150D01*
X24072132Y-45111107D01*
X24086747Y-45091401D01*
X24103223Y-45073223D01*
X24121401Y-45056747D01*
X24141107Y-45042132D01*
X24162150Y-45029520D01*
X24184329Y-45019030D01*
X24207428Y-45010765D01*
X24231227Y-45004804D01*
X24255495Y-45001204D01*
X24279999Y-45000000D01*
X24930001Y-45000000D01*
X24954505Y-45001204D01*
X24954505Y-45001204D01*
G37*
D12*
X24605000Y-45700000D03*
G04 #@! TD*
D11*
G04 #@! TO.C,RL4*
G36*
X24954505Y-51351204D02*
X24978773Y-51354804D01*
X25002572Y-51360765D01*
X25025671Y-51369030D01*
X25047850Y-51379520D01*
X25068893Y-51392132D01*
X25088599Y-51406747D01*
X25106777Y-51423223D01*
X25123253Y-51441401D01*
X25137868Y-51461107D01*
X25150480Y-51482150D01*
X25160970Y-51504329D01*
X25169235Y-51527428D01*
X25175196Y-51551227D01*
X25178796Y-51575495D01*
X25180000Y-51599999D01*
X25180000Y-52500001D01*
X25178796Y-52524505D01*
X25175196Y-52548773D01*
X25169235Y-52572572D01*
X25160970Y-52595671D01*
X25150480Y-52617850D01*
X25137868Y-52638893D01*
X25123253Y-52658599D01*
X25106777Y-52676777D01*
X25088599Y-52693253D01*
X25068893Y-52707868D01*
X25047850Y-52720480D01*
X25025671Y-52730970D01*
X25002572Y-52739235D01*
X24978773Y-52745196D01*
X24954505Y-52748796D01*
X24930001Y-52750000D01*
X24279999Y-52750000D01*
X24255495Y-52748796D01*
X24231227Y-52745196D01*
X24207428Y-52739235D01*
X24184329Y-52730970D01*
X24162150Y-52720480D01*
X24141107Y-52707868D01*
X24121401Y-52693253D01*
X24103223Y-52676777D01*
X24086747Y-52658599D01*
X24072132Y-52638893D01*
X24059520Y-52617850D01*
X24049030Y-52595671D01*
X24040765Y-52572572D01*
X24034804Y-52548773D01*
X24031204Y-52524505D01*
X24030000Y-52500001D01*
X24030000Y-51599999D01*
X24031204Y-51575495D01*
X24034804Y-51551227D01*
X24040765Y-51527428D01*
X24049030Y-51504329D01*
X24059520Y-51482150D01*
X24072132Y-51461107D01*
X24086747Y-51441401D01*
X24103223Y-51423223D01*
X24121401Y-51406747D01*
X24141107Y-51392132D01*
X24162150Y-51379520D01*
X24184329Y-51369030D01*
X24207428Y-51360765D01*
X24231227Y-51354804D01*
X24255495Y-51351204D01*
X24279999Y-51350000D01*
X24930001Y-51350000D01*
X24954505Y-51351204D01*
X24954505Y-51351204D01*
G37*
D12*
X24605000Y-52050000D03*
D11*
G36*
X22904505Y-51351204D02*
X22928773Y-51354804D01*
X22952572Y-51360765D01*
X22975671Y-51369030D01*
X22997850Y-51379520D01*
X23018893Y-51392132D01*
X23038599Y-51406747D01*
X23056777Y-51423223D01*
X23073253Y-51441401D01*
X23087868Y-51461107D01*
X23100480Y-51482150D01*
X23110970Y-51504329D01*
X23119235Y-51527428D01*
X23125196Y-51551227D01*
X23128796Y-51575495D01*
X23130000Y-51599999D01*
X23130000Y-52500001D01*
X23128796Y-52524505D01*
X23125196Y-52548773D01*
X23119235Y-52572572D01*
X23110970Y-52595671D01*
X23100480Y-52617850D01*
X23087868Y-52638893D01*
X23073253Y-52658599D01*
X23056777Y-52676777D01*
X23038599Y-52693253D01*
X23018893Y-52707868D01*
X22997850Y-52720480D01*
X22975671Y-52730970D01*
X22952572Y-52739235D01*
X22928773Y-52745196D01*
X22904505Y-52748796D01*
X22880001Y-52750000D01*
X22229999Y-52750000D01*
X22205495Y-52748796D01*
X22181227Y-52745196D01*
X22157428Y-52739235D01*
X22134329Y-52730970D01*
X22112150Y-52720480D01*
X22091107Y-52707868D01*
X22071401Y-52693253D01*
X22053223Y-52676777D01*
X22036747Y-52658599D01*
X22022132Y-52638893D01*
X22009520Y-52617850D01*
X21999030Y-52595671D01*
X21990765Y-52572572D01*
X21984804Y-52548773D01*
X21981204Y-52524505D01*
X21980000Y-52500001D01*
X21980000Y-51599999D01*
X21981204Y-51575495D01*
X21984804Y-51551227D01*
X21990765Y-51527428D01*
X21999030Y-51504329D01*
X22009520Y-51482150D01*
X22022132Y-51461107D01*
X22036747Y-51441401D01*
X22053223Y-51423223D01*
X22071401Y-51406747D01*
X22091107Y-51392132D01*
X22112150Y-51379520D01*
X22134329Y-51369030D01*
X22157428Y-51360765D01*
X22181227Y-51354804D01*
X22205495Y-51351204D01*
X22229999Y-51350000D01*
X22880001Y-51350000D01*
X22904505Y-51351204D01*
X22904505Y-51351204D01*
G37*
D12*
X22555000Y-52050000D03*
G04 #@! TD*
D11*
G04 #@! TO.C,R2*
G36*
X35114505Y-39921204D02*
X35138773Y-39924804D01*
X35162572Y-39930765D01*
X35185671Y-39939030D01*
X35207850Y-39949520D01*
X35228893Y-39962132D01*
X35248599Y-39976747D01*
X35266777Y-39993223D01*
X35283253Y-40011401D01*
X35297868Y-40031107D01*
X35310480Y-40052150D01*
X35320970Y-40074329D01*
X35329235Y-40097428D01*
X35335196Y-40121227D01*
X35338796Y-40145495D01*
X35340000Y-40169999D01*
X35340000Y-41070001D01*
X35338796Y-41094505D01*
X35335196Y-41118773D01*
X35329235Y-41142572D01*
X35320970Y-41165671D01*
X35310480Y-41187850D01*
X35297868Y-41208893D01*
X35283253Y-41228599D01*
X35266777Y-41246777D01*
X35248599Y-41263253D01*
X35228893Y-41277868D01*
X35207850Y-41290480D01*
X35185671Y-41300970D01*
X35162572Y-41309235D01*
X35138773Y-41315196D01*
X35114505Y-41318796D01*
X35090001Y-41320000D01*
X34439999Y-41320000D01*
X34415495Y-41318796D01*
X34391227Y-41315196D01*
X34367428Y-41309235D01*
X34344329Y-41300970D01*
X34322150Y-41290480D01*
X34301107Y-41277868D01*
X34281401Y-41263253D01*
X34263223Y-41246777D01*
X34246747Y-41228599D01*
X34232132Y-41208893D01*
X34219520Y-41187850D01*
X34209030Y-41165671D01*
X34200765Y-41142572D01*
X34194804Y-41118773D01*
X34191204Y-41094505D01*
X34190000Y-41070001D01*
X34190000Y-40169999D01*
X34191204Y-40145495D01*
X34194804Y-40121227D01*
X34200765Y-40097428D01*
X34209030Y-40074329D01*
X34219520Y-40052150D01*
X34232132Y-40031107D01*
X34246747Y-40011401D01*
X34263223Y-39993223D01*
X34281401Y-39976747D01*
X34301107Y-39962132D01*
X34322150Y-39949520D01*
X34344329Y-39939030D01*
X34367428Y-39930765D01*
X34391227Y-39924804D01*
X34415495Y-39921204D01*
X34439999Y-39920000D01*
X35090001Y-39920000D01*
X35114505Y-39921204D01*
X35114505Y-39921204D01*
G37*
D12*
X34765000Y-40620000D03*
D11*
G36*
X33064505Y-39921204D02*
X33088773Y-39924804D01*
X33112572Y-39930765D01*
X33135671Y-39939030D01*
X33157850Y-39949520D01*
X33178893Y-39962132D01*
X33198599Y-39976747D01*
X33216777Y-39993223D01*
X33233253Y-40011401D01*
X33247868Y-40031107D01*
X33260480Y-40052150D01*
X33270970Y-40074329D01*
X33279235Y-40097428D01*
X33285196Y-40121227D01*
X33288796Y-40145495D01*
X33290000Y-40169999D01*
X33290000Y-41070001D01*
X33288796Y-41094505D01*
X33285196Y-41118773D01*
X33279235Y-41142572D01*
X33270970Y-41165671D01*
X33260480Y-41187850D01*
X33247868Y-41208893D01*
X33233253Y-41228599D01*
X33216777Y-41246777D01*
X33198599Y-41263253D01*
X33178893Y-41277868D01*
X33157850Y-41290480D01*
X33135671Y-41300970D01*
X33112572Y-41309235D01*
X33088773Y-41315196D01*
X33064505Y-41318796D01*
X33040001Y-41320000D01*
X32389999Y-41320000D01*
X32365495Y-41318796D01*
X32341227Y-41315196D01*
X32317428Y-41309235D01*
X32294329Y-41300970D01*
X32272150Y-41290480D01*
X32251107Y-41277868D01*
X32231401Y-41263253D01*
X32213223Y-41246777D01*
X32196747Y-41228599D01*
X32182132Y-41208893D01*
X32169520Y-41187850D01*
X32159030Y-41165671D01*
X32150765Y-41142572D01*
X32144804Y-41118773D01*
X32141204Y-41094505D01*
X32140000Y-41070001D01*
X32140000Y-40169999D01*
X32141204Y-40145495D01*
X32144804Y-40121227D01*
X32150765Y-40097428D01*
X32159030Y-40074329D01*
X32169520Y-40052150D01*
X32182132Y-40031107D01*
X32196747Y-40011401D01*
X32213223Y-39993223D01*
X32231401Y-39976747D01*
X32251107Y-39962132D01*
X32272150Y-39949520D01*
X32294329Y-39939030D01*
X32317428Y-39930765D01*
X32341227Y-39924804D01*
X32365495Y-39921204D01*
X32389999Y-39920000D01*
X33040001Y-39920000D01*
X33064505Y-39921204D01*
X33064505Y-39921204D01*
G37*
D12*
X32715000Y-40620000D03*
G04 #@! TD*
M02*
