G04 #@! TF.GenerationSoftware,KiCad,Pcbnew,(5.0.2)-1*
G04 #@! TF.CreationDate,2019-06-20T09:18:01+05:30*
G04 #@! TF.ProjectId,CapacityOfBattery,43617061-6369-4747-994f-664261747465,rev?*
G04 #@! TF.SameCoordinates,Original*
G04 #@! TF.FileFunction,Copper,L2,Bot*
G04 #@! TF.FilePolarity,Positive*
%FSLAX46Y46*%
G04 Gerber Fmt 4.6, Leading zero omitted, Abs format (unit mm)*
G04 Created by KiCad (PCBNEW (5.0.2)-1) date 06/20/19 09:18:01*
%MOMM*%
%LPD*%
G01*
G04 APERTURE LIST*
G04 #@! TA.AperFunction,ComponentPad*
%ADD10C,1.524000*%
G04 #@! TD*
G04 #@! TA.AperFunction,ComponentPad*
%ADD11O,1.700000X1.700000*%
G04 #@! TD*
G04 #@! TA.AperFunction,ComponentPad*
%ADD12R,1.700000X1.700000*%
G04 #@! TD*
G04 #@! TA.AperFunction,ViaPad*
%ADD13C,0.800000*%
G04 #@! TD*
G04 #@! TA.AperFunction,Conductor*
%ADD14C,0.500000*%
G04 #@! TD*
G04 #@! TA.AperFunction,Conductor*
%ADD15C,0.254000*%
G04 #@! TD*
G04 APERTURE END LIST*
D10*
G04 #@! TO.P,U1,30*
G04 #@! TO.N,/Ctrl1*
X42470000Y-23280000D03*
G04 #@! TO.P,U1,29*
G04 #@! TO.N,/Ctrl2*
X42470000Y-25820000D03*
G04 #@! TO.P,U1,28*
G04 #@! TO.N,/Ctrl3*
X42470000Y-28360000D03*
G04 #@! TO.P,U1,27*
G04 #@! TO.N,Net-(U1-Pad27)*
X42470000Y-30900000D03*
G04 #@! TO.P,U1,26*
G04 #@! TO.N,Net-(U1-Pad26)*
X42470000Y-33440000D03*
G04 #@! TO.P,U1,25*
G04 #@! TO.N,Net-(U1-Pad25)*
X42470000Y-35980000D03*
G04 #@! TO.P,U1,24*
G04 #@! TO.N,GND*
X42470000Y-38520000D03*
G04 #@! TO.P,U1,23*
G04 #@! TO.N,Net-(U1-Pad23)*
X42470000Y-41060000D03*
G04 #@! TO.P,U1,22*
G04 #@! TO.N,/En_VoltageDivider*
X42470000Y-43600000D03*
G04 #@! TO.P,U1,21*
G04 #@! TO.N,/Ctrl4*
X42470000Y-46140000D03*
G04 #@! TO.P,U1,20*
G04 #@! TO.N,/Ctrl5*
X42470000Y-48680000D03*
G04 #@! TO.P,U1,19*
G04 #@! TO.N,Net-(U1-Pad19)*
X42470000Y-51220000D03*
G04 #@! TO.P,U1,18*
G04 #@! TO.N,Net-(U1-Pad18)*
X42470000Y-53760000D03*
G04 #@! TO.P,U1,17*
G04 #@! TO.N,GND*
X42470000Y-56300000D03*
G04 #@! TO.P,U1,16*
G04 #@! TO.N,/Vcc*
X42470000Y-58840000D03*
G04 #@! TO.P,U1,15*
G04 #@! TO.N,Net-(U1-Pad15)*
X14530000Y-58840000D03*
G04 #@! TO.P,U1,14*
G04 #@! TO.N,GND*
X14530000Y-56300000D03*
G04 #@! TO.P,U1,13*
G04 #@! TO.N,Net-(U1-Pad13)*
X14530000Y-53760000D03*
G04 #@! TO.P,U1,12*
G04 #@! TO.N,Net-(U1-Pad12)*
X14530000Y-51220000D03*
G04 #@! TO.P,U1,11*
G04 #@! TO.N,/Vcc*
X14530000Y-48680000D03*
G04 #@! TO.P,U1,10*
G04 #@! TO.N,GND*
X14530000Y-46140000D03*
G04 #@! TO.P,U1,9*
G04 #@! TO.N,Net-(U1-Pad9)*
X14530000Y-43600000D03*
G04 #@! TO.P,U1,8*
G04 #@! TO.N,Net-(U1-Pad8)*
X14530000Y-41060000D03*
G04 #@! TO.P,U1,7*
G04 #@! TO.N,Net-(U1-Pad7)*
X14530000Y-38520000D03*
G04 #@! TO.P,U1,6*
G04 #@! TO.N,Net-(U1-Pad6)*
X14530000Y-35980000D03*
G04 #@! TO.P,U1,5*
G04 #@! TO.N,Net-(U1-Pad5)*
X14530000Y-33440000D03*
G04 #@! TO.P,U1,4*
G04 #@! TO.N,Net-(U1-Pad4)*
X14530000Y-30900000D03*
G04 #@! TO.P,U1,3*
G04 #@! TO.N,Net-(U1-Pad3)*
X14530000Y-28360000D03*
G04 #@! TO.P,U1,2*
G04 #@! TO.N,GND*
X14530000Y-25820000D03*
G04 #@! TO.P,U1,1*
G04 #@! TO.N,/Vin*
X14530000Y-23280000D03*
G04 #@! TD*
D11*
G04 #@! TO.P,J2,2*
G04 #@! TO.N,Net-(J2-Pad2)*
X24130000Y-19050000D03*
D12*
G04 #@! TO.P,J2,1*
G04 #@! TO.N,GND*
X21590000Y-19050000D03*
G04 #@! TD*
G04 #@! TO.P,J1,1*
G04 #@! TO.N,GND*
X33020000Y-19050000D03*
D11*
G04 #@! TO.P,J1,2*
G04 #@! TO.N,/Vbat*
X35560000Y-19050000D03*
G04 #@! TD*
D13*
G04 #@! TO.N,/Ctrl1*
X21300000Y-68800000D03*
X32730000Y-33020000D03*
G04 #@! TO.N,/Ctrl2*
X24900000Y-68800000D03*
X33020000Y-38100000D03*
G04 #@! TO.N,/Ctrl3*
X28500000Y-68800000D03*
X33020000Y-44450000D03*
G04 #@! TO.N,/Ctrl4*
X32100000Y-68800000D03*
X33020000Y-50800000D03*
G04 #@! TO.N,/Ctrl5*
X31750000Y-59055000D03*
X35700000Y-68800000D03*
G04 #@! TO.N,/Vbat*
X25400000Y-30480000D03*
X25400000Y-36830000D03*
X25400000Y-43180000D03*
X25400000Y-49530000D03*
X25400000Y-55880000D03*
G04 #@! TO.N,Net-(J2-Pad2)*
X25400000Y-58420000D03*
G04 #@! TD*
D14*
G04 #@! TO.N,/Ctrl1*
X42470000Y-23280000D02*
X32730000Y-33020000D01*
X26670000Y-39080000D02*
X26670000Y-58852002D01*
X32730000Y-33020000D02*
X26670000Y-39080000D01*
X26670000Y-58852002D02*
X24562002Y-60960000D01*
X24562002Y-60960000D02*
X22860000Y-60960000D01*
X21300000Y-62520000D02*
X21300000Y-68800000D01*
X22860000Y-60960000D02*
X21300000Y-62520000D01*
G04 #@! TO.N,/Ctrl2*
X33020000Y-35270000D02*
X42470000Y-25820000D01*
X33020000Y-38100000D02*
X33020000Y-35270000D01*
X24900000Y-62730000D02*
X24900000Y-68800000D01*
X27940000Y-59690000D02*
X24900000Y-62730000D01*
X33020000Y-38100000D02*
X27940000Y-43180000D01*
X27940000Y-43180000D02*
X27940000Y-59690000D01*
G04 #@! TO.N,/Ctrl3*
X41708001Y-29121999D02*
X42470000Y-28360000D01*
X38100000Y-32730000D02*
X41708001Y-29121999D01*
X38100000Y-39370000D02*
X38100000Y-32730000D01*
X33020000Y-44450000D02*
X38100000Y-39370000D01*
X28940010Y-68359990D02*
X28500000Y-68800000D01*
X33020000Y-44450000D02*
X28940010Y-48529990D01*
X28940010Y-48529990D02*
X28940010Y-68359990D01*
G04 #@! TO.N,/Ctrl4*
X37810000Y-50800000D02*
X42470000Y-46140000D01*
X33020000Y-50800000D02*
X37810000Y-50800000D01*
X32100000Y-63850000D02*
X32100000Y-68800000D01*
X29940020Y-61690020D02*
X32100000Y-63850000D01*
X33020000Y-50800000D02*
X29940020Y-53879980D01*
X29940020Y-53879980D02*
X29940020Y-61690020D01*
G04 #@! TO.N,/Ctrl5*
X42470000Y-48970000D02*
X42470000Y-48680000D01*
X32095000Y-59055000D02*
X31750000Y-59055000D01*
X42470000Y-48680000D02*
X32095000Y-59055000D01*
X35700000Y-64910000D02*
X35700000Y-68800000D01*
X31750000Y-59055000D02*
X31750000Y-60960000D01*
X31750000Y-60960000D02*
X35700000Y-64910000D01*
G04 #@! TO.N,/Vbat*
X25400000Y-30480000D02*
X25400000Y-36830000D01*
X25400000Y-36830000D02*
X25400000Y-43180000D01*
X25400000Y-43180000D02*
X25400000Y-49530000D01*
X25400000Y-49530000D02*
X25400000Y-55880000D01*
X35560000Y-20320000D02*
X35560000Y-19050000D01*
X25400000Y-30480000D02*
X35560000Y-20320000D01*
G04 #@! TO.N,Net-(J2-Pad2)*
X25400000Y-58420000D02*
X22860000Y-58420000D01*
X22860000Y-58420000D02*
X21590000Y-57150000D01*
X24130000Y-20252081D02*
X21590000Y-22792081D01*
X24130000Y-19050000D02*
X24130000Y-20252081D01*
X21590000Y-22792081D02*
X21590000Y-57150000D01*
G04 #@! TD*
D15*
G04 #@! TO.N,GND*
G36*
X43765000Y-22755869D02*
X43654320Y-22488663D01*
X43261337Y-22095680D01*
X42747881Y-21883000D01*
X42192119Y-21883000D01*
X41678663Y-22095680D01*
X41285680Y-22488663D01*
X41073000Y-23002119D01*
X41073000Y-23425421D01*
X32505853Y-31992569D01*
X32143720Y-32142569D01*
X31852569Y-32433720D01*
X31702569Y-32795852D01*
X26285000Y-38213422D01*
X26285000Y-37398007D01*
X26435000Y-37035874D01*
X26435000Y-36624126D01*
X26285000Y-36261993D01*
X26285000Y-31048007D01*
X26427431Y-30704147D01*
X36124157Y-21007422D01*
X36198049Y-20958049D01*
X36393652Y-20665310D01*
X36445000Y-20407165D01*
X36445000Y-20407161D01*
X36462337Y-20320000D01*
X36447075Y-20243269D01*
X36630625Y-20120625D01*
X36958839Y-19629418D01*
X37074092Y-19050000D01*
X36958839Y-18470582D01*
X36630625Y-17979375D01*
X36139418Y-17651161D01*
X35706256Y-17565000D01*
X35413744Y-17565000D01*
X34980582Y-17651161D01*
X34489375Y-17979375D01*
X34474904Y-18001033D01*
X34408327Y-17840302D01*
X34229699Y-17661673D01*
X33996310Y-17565000D01*
X33305750Y-17565000D01*
X33147000Y-17723750D01*
X33147000Y-18923000D01*
X33167000Y-18923000D01*
X33167000Y-19177000D01*
X33147000Y-19177000D01*
X33147000Y-20376250D01*
X33305750Y-20535000D01*
X33996310Y-20535000D01*
X34162089Y-20466332D01*
X25175853Y-29452569D01*
X24813720Y-29602569D01*
X24522569Y-29893720D01*
X24365000Y-30274126D01*
X24365000Y-30685874D01*
X24515000Y-31048007D01*
X24515001Y-36261991D01*
X24365000Y-36624126D01*
X24365000Y-37035874D01*
X24515000Y-37398007D01*
X24515001Y-42611991D01*
X24365000Y-42974126D01*
X24365000Y-43385874D01*
X24515000Y-43748007D01*
X24515001Y-48961991D01*
X24365000Y-49324126D01*
X24365000Y-49735874D01*
X24515000Y-50098007D01*
X24515001Y-55311991D01*
X24365000Y-55674126D01*
X24365000Y-56085874D01*
X24522569Y-56466280D01*
X24813720Y-56757431D01*
X25194126Y-56915000D01*
X25605874Y-56915000D01*
X25785001Y-56840803D01*
X25785001Y-57459197D01*
X25605874Y-57385000D01*
X25194126Y-57385000D01*
X24831993Y-57535000D01*
X23226579Y-57535000D01*
X22475000Y-56783422D01*
X22475000Y-23158659D01*
X24694156Y-20939504D01*
X24768049Y-20890130D01*
X24963652Y-20597391D01*
X25015000Y-20339246D01*
X25015000Y-20339242D01*
X25032337Y-20252082D01*
X25028999Y-20235302D01*
X25200625Y-20120625D01*
X25528839Y-19629418D01*
X25587252Y-19335750D01*
X31535000Y-19335750D01*
X31535000Y-20026309D01*
X31631673Y-20259698D01*
X31810301Y-20438327D01*
X32043690Y-20535000D01*
X32734250Y-20535000D01*
X32893000Y-20376250D01*
X32893000Y-19177000D01*
X31693750Y-19177000D01*
X31535000Y-19335750D01*
X25587252Y-19335750D01*
X25644092Y-19050000D01*
X25528839Y-18470582D01*
X25263645Y-18073691D01*
X31535000Y-18073691D01*
X31535000Y-18764250D01*
X31693750Y-18923000D01*
X32893000Y-18923000D01*
X32893000Y-17723750D01*
X32734250Y-17565000D01*
X32043690Y-17565000D01*
X31810301Y-17661673D01*
X31631673Y-17840302D01*
X31535000Y-18073691D01*
X25263645Y-18073691D01*
X25200625Y-17979375D01*
X24709418Y-17651161D01*
X24276256Y-17565000D01*
X23983744Y-17565000D01*
X23550582Y-17651161D01*
X23059375Y-17979375D01*
X23044904Y-18001033D01*
X22978327Y-17840302D01*
X22799699Y-17661673D01*
X22566310Y-17565000D01*
X21875750Y-17565000D01*
X21717000Y-17723750D01*
X21717000Y-18923000D01*
X21737000Y-18923000D01*
X21737000Y-19177000D01*
X21717000Y-19177000D01*
X21717000Y-20376250D01*
X21875750Y-20535000D01*
X22566310Y-20535000D01*
X22616145Y-20514358D01*
X21025847Y-22104656D01*
X20951951Y-22154032D01*
X20756348Y-22446772D01*
X20705000Y-22704917D01*
X20705000Y-22704920D01*
X20687663Y-22792081D01*
X20705000Y-22879242D01*
X20705001Y-57062834D01*
X20687663Y-57150000D01*
X20756348Y-57495309D01*
X20902576Y-57714154D01*
X20902578Y-57714156D01*
X20951952Y-57788049D01*
X21025845Y-57837423D01*
X22172577Y-58984156D01*
X22221951Y-59058049D01*
X22295844Y-59107423D01*
X22295845Y-59107424D01*
X22311495Y-59117881D01*
X22514690Y-59253652D01*
X22772835Y-59305000D01*
X22772839Y-59305000D01*
X22859999Y-59322337D01*
X22947159Y-59305000D01*
X24831993Y-59305000D01*
X24926343Y-59344081D01*
X24195424Y-60075000D01*
X22947159Y-60075000D01*
X22859999Y-60057663D01*
X22772839Y-60075000D01*
X22772835Y-60075000D01*
X22514690Y-60126348D01*
X22514688Y-60126349D01*
X22514689Y-60126349D01*
X22295845Y-60272576D01*
X22295844Y-60272577D01*
X22221951Y-60321951D01*
X22172577Y-60395844D01*
X20735847Y-61832575D01*
X20661951Y-61881951D01*
X20466348Y-62174691D01*
X20415000Y-62432836D01*
X20415000Y-62432839D01*
X20397663Y-62520000D01*
X20415000Y-62607161D01*
X20415001Y-68231991D01*
X20265000Y-68594126D01*
X20265000Y-69005874D01*
X20422569Y-69386280D01*
X20713720Y-69677431D01*
X21094126Y-69835000D01*
X21505874Y-69835000D01*
X21886280Y-69677431D01*
X22177431Y-69386280D01*
X22335000Y-69005874D01*
X22335000Y-68594126D01*
X22185000Y-68231993D01*
X22185000Y-62886578D01*
X23226579Y-61845000D01*
X24474841Y-61845000D01*
X24523703Y-61854719D01*
X24335847Y-62042575D01*
X24261951Y-62091951D01*
X24066348Y-62384691D01*
X24015000Y-62642836D01*
X24015000Y-62642839D01*
X23997663Y-62730000D01*
X24015000Y-62817161D01*
X24015001Y-68231991D01*
X23865000Y-68594126D01*
X23865000Y-69005874D01*
X24022569Y-69386280D01*
X24313720Y-69677431D01*
X24694126Y-69835000D01*
X25105874Y-69835000D01*
X25486280Y-69677431D01*
X25777431Y-69386280D01*
X25935000Y-69005874D01*
X25935000Y-68594126D01*
X25785000Y-68231993D01*
X25785000Y-63096578D01*
X28055011Y-60826568D01*
X28055011Y-67864044D01*
X27913720Y-67922569D01*
X27622569Y-68213720D01*
X27465000Y-68594126D01*
X27465000Y-69005874D01*
X27622569Y-69386280D01*
X27913720Y-69677431D01*
X28294126Y-69835000D01*
X28705874Y-69835000D01*
X29086280Y-69677431D01*
X29377431Y-69386280D01*
X29523009Y-69034822D01*
X29578059Y-68998039D01*
X29773662Y-68705300D01*
X29825010Y-68447155D01*
X29825010Y-68447151D01*
X29842347Y-68359991D01*
X29825010Y-68272831D01*
X29825010Y-62826588D01*
X31215000Y-64216579D01*
X31215001Y-68231991D01*
X31065000Y-68594126D01*
X31065000Y-69005874D01*
X31222569Y-69386280D01*
X31513720Y-69677431D01*
X31894126Y-69835000D01*
X32305874Y-69835000D01*
X32686280Y-69677431D01*
X32977431Y-69386280D01*
X33135000Y-69005874D01*
X33135000Y-68594126D01*
X32985000Y-68231993D01*
X32985000Y-63937160D01*
X33002337Y-63849999D01*
X32985000Y-63762836D01*
X32985000Y-63762835D01*
X32933652Y-63504690D01*
X32878625Y-63422337D01*
X32787424Y-63285845D01*
X32787423Y-63285844D01*
X32738049Y-63211951D01*
X32664156Y-63162577D01*
X30825020Y-61323442D01*
X30825020Y-59526486D01*
X30865000Y-59623008D01*
X30865001Y-60872835D01*
X30847663Y-60960000D01*
X30916348Y-61305309D01*
X31062576Y-61524154D01*
X31062577Y-61524155D01*
X31111952Y-61598049D01*
X31185845Y-61647423D01*
X34815000Y-65276579D01*
X34815001Y-68231991D01*
X34665000Y-68594126D01*
X34665000Y-69005874D01*
X34822569Y-69386280D01*
X35113720Y-69677431D01*
X35494126Y-69835000D01*
X35905874Y-69835000D01*
X36286280Y-69677431D01*
X36577431Y-69386280D01*
X36735000Y-69005874D01*
X36735000Y-68594126D01*
X36585000Y-68231993D01*
X36585000Y-67289611D01*
X38966340Y-67289611D01*
X38966340Y-68178749D01*
X39306599Y-69000206D01*
X39935314Y-69628921D01*
X40756771Y-69969180D01*
X41645909Y-69969180D01*
X42467366Y-69628921D01*
X43096081Y-69000206D01*
X43436340Y-68178749D01*
X43436340Y-67289611D01*
X43096081Y-66468154D01*
X42467366Y-65839439D01*
X41645909Y-65499180D01*
X40756771Y-65499180D01*
X39935314Y-65839439D01*
X39306599Y-66468154D01*
X38966340Y-67289611D01*
X36585000Y-67289611D01*
X36585000Y-64997161D01*
X36602337Y-64910000D01*
X36585000Y-64822839D01*
X36585000Y-64822835D01*
X36533652Y-64564690D01*
X36338049Y-64271951D01*
X36264156Y-64222577D01*
X32635000Y-60593422D01*
X32635000Y-59758564D01*
X32733049Y-59693049D01*
X32782425Y-59619153D01*
X36309276Y-56092302D01*
X41060856Y-56092302D01*
X41088638Y-56647368D01*
X41247603Y-57031143D01*
X41489787Y-57100608D01*
X42290395Y-56300000D01*
X41489787Y-55499392D01*
X41247603Y-55568857D01*
X41060856Y-56092302D01*
X36309276Y-56092302D01*
X41073000Y-51328579D01*
X41073000Y-51497881D01*
X41285680Y-52011337D01*
X41678663Y-52404320D01*
X41885513Y-52490000D01*
X41678663Y-52575680D01*
X41285680Y-52968663D01*
X41073000Y-53482119D01*
X41073000Y-54037881D01*
X41285680Y-54551337D01*
X41678663Y-54944320D01*
X41869647Y-55023428D01*
X41738857Y-55077603D01*
X41669392Y-55319787D01*
X42470000Y-56120395D01*
X43270608Y-55319787D01*
X43201143Y-55077603D01*
X43060607Y-55027465D01*
X43261337Y-54944320D01*
X43654320Y-54551337D01*
X43765001Y-54284130D01*
X43765001Y-55744138D01*
X43692397Y-55568857D01*
X43450213Y-55499392D01*
X42649605Y-56300000D01*
X43450213Y-57100608D01*
X43692397Y-57031143D01*
X43765001Y-56827637D01*
X43765001Y-58315871D01*
X43654320Y-58048663D01*
X43261337Y-57655680D01*
X43070353Y-57576572D01*
X43201143Y-57522397D01*
X43270608Y-57280213D01*
X42470000Y-56479605D01*
X41669392Y-57280213D01*
X41738857Y-57522397D01*
X41879393Y-57572535D01*
X41678663Y-57655680D01*
X41285680Y-58048663D01*
X41073000Y-58562119D01*
X41073000Y-59117881D01*
X41285680Y-59631337D01*
X41678663Y-60024320D01*
X42192119Y-60237000D01*
X42747881Y-60237000D01*
X43261337Y-60024320D01*
X43654320Y-59631337D01*
X43765001Y-59364129D01*
X43765001Y-70435000D01*
X13385000Y-70435000D01*
X13385000Y-67289611D01*
X13573960Y-67289611D01*
X13573960Y-68178749D01*
X13914219Y-69000206D01*
X14542934Y-69628921D01*
X15364391Y-69969180D01*
X16253529Y-69969180D01*
X17074986Y-69628921D01*
X17703701Y-69000206D01*
X18043960Y-68178749D01*
X18043960Y-67289611D01*
X17703701Y-66468154D01*
X17074986Y-65839439D01*
X16253529Y-65499180D01*
X15364391Y-65499180D01*
X14542934Y-65839439D01*
X13914219Y-66468154D01*
X13573960Y-67289611D01*
X13385000Y-67289611D01*
X13385000Y-59670657D01*
X13738663Y-60024320D01*
X14252119Y-60237000D01*
X14807881Y-60237000D01*
X15321337Y-60024320D01*
X15714320Y-59631337D01*
X15927000Y-59117881D01*
X15927000Y-58562119D01*
X15714320Y-58048663D01*
X15321337Y-57655680D01*
X15130353Y-57576572D01*
X15261143Y-57522397D01*
X15330608Y-57280213D01*
X14530000Y-56479605D01*
X13729392Y-57280213D01*
X13798857Y-57522397D01*
X13939393Y-57572535D01*
X13738663Y-57655680D01*
X13385000Y-58009343D01*
X13385000Y-57053343D01*
X13549787Y-57100608D01*
X14350395Y-56300000D01*
X14709605Y-56300000D01*
X15510213Y-57100608D01*
X15752397Y-57031143D01*
X15939144Y-56507698D01*
X15911362Y-55952632D01*
X15752397Y-55568857D01*
X15510213Y-55499392D01*
X14709605Y-56300000D01*
X14350395Y-56300000D01*
X13549787Y-55499392D01*
X13385000Y-55546657D01*
X13385000Y-54590657D01*
X13738663Y-54944320D01*
X13929647Y-55023428D01*
X13798857Y-55077603D01*
X13729392Y-55319787D01*
X14530000Y-56120395D01*
X15330608Y-55319787D01*
X15261143Y-55077603D01*
X15120607Y-55027465D01*
X15321337Y-54944320D01*
X15714320Y-54551337D01*
X15927000Y-54037881D01*
X15927000Y-53482119D01*
X15714320Y-52968663D01*
X15321337Y-52575680D01*
X15114487Y-52490000D01*
X15321337Y-52404320D01*
X15714320Y-52011337D01*
X15927000Y-51497881D01*
X15927000Y-50942119D01*
X15714320Y-50428663D01*
X15321337Y-50035680D01*
X15114487Y-49950000D01*
X15321337Y-49864320D01*
X15714320Y-49471337D01*
X15927000Y-48957881D01*
X15927000Y-48402119D01*
X15714320Y-47888663D01*
X15321337Y-47495680D01*
X15130353Y-47416572D01*
X15261143Y-47362397D01*
X15330608Y-47120213D01*
X14530000Y-46319605D01*
X13729392Y-47120213D01*
X13798857Y-47362397D01*
X13939393Y-47412535D01*
X13738663Y-47495680D01*
X13385000Y-47849343D01*
X13385000Y-46893343D01*
X13549787Y-46940608D01*
X14350395Y-46140000D01*
X14709605Y-46140000D01*
X15510213Y-46940608D01*
X15752397Y-46871143D01*
X15939144Y-46347698D01*
X15911362Y-45792632D01*
X15752397Y-45408857D01*
X15510213Y-45339392D01*
X14709605Y-46140000D01*
X14350395Y-46140000D01*
X13549787Y-45339392D01*
X13385000Y-45386657D01*
X13385000Y-44430657D01*
X13738663Y-44784320D01*
X13929647Y-44863428D01*
X13798857Y-44917603D01*
X13729392Y-45159787D01*
X14530000Y-45960395D01*
X15330608Y-45159787D01*
X15261143Y-44917603D01*
X15120607Y-44867465D01*
X15321337Y-44784320D01*
X15714320Y-44391337D01*
X15927000Y-43877881D01*
X15927000Y-43322119D01*
X15714320Y-42808663D01*
X15321337Y-42415680D01*
X15114487Y-42330000D01*
X15321337Y-42244320D01*
X15714320Y-41851337D01*
X15927000Y-41337881D01*
X15927000Y-40782119D01*
X15714320Y-40268663D01*
X15321337Y-39875680D01*
X15114487Y-39790000D01*
X15321337Y-39704320D01*
X15714320Y-39311337D01*
X15927000Y-38797881D01*
X15927000Y-38242119D01*
X15714320Y-37728663D01*
X15321337Y-37335680D01*
X15114487Y-37250000D01*
X15321337Y-37164320D01*
X15714320Y-36771337D01*
X15927000Y-36257881D01*
X15927000Y-35702119D01*
X15714320Y-35188663D01*
X15321337Y-34795680D01*
X15114487Y-34710000D01*
X15321337Y-34624320D01*
X15714320Y-34231337D01*
X15927000Y-33717881D01*
X15927000Y-33162119D01*
X15714320Y-32648663D01*
X15321337Y-32255680D01*
X15114487Y-32170000D01*
X15321337Y-32084320D01*
X15714320Y-31691337D01*
X15927000Y-31177881D01*
X15927000Y-30622119D01*
X15714320Y-30108663D01*
X15321337Y-29715680D01*
X15114487Y-29630000D01*
X15321337Y-29544320D01*
X15714320Y-29151337D01*
X15927000Y-28637881D01*
X15927000Y-28082119D01*
X15714320Y-27568663D01*
X15321337Y-27175680D01*
X15130353Y-27096572D01*
X15261143Y-27042397D01*
X15330608Y-26800213D01*
X14530000Y-25999605D01*
X13729392Y-26800213D01*
X13798857Y-27042397D01*
X13939393Y-27092535D01*
X13738663Y-27175680D01*
X13385000Y-27529343D01*
X13385000Y-26573343D01*
X13549787Y-26620608D01*
X14350395Y-25820000D01*
X14709605Y-25820000D01*
X15510213Y-26620608D01*
X15752397Y-26551143D01*
X15939144Y-26027698D01*
X15911362Y-25472632D01*
X15752397Y-25088857D01*
X15510213Y-25019392D01*
X14709605Y-25820000D01*
X14350395Y-25820000D01*
X13549787Y-25019392D01*
X13385000Y-25066657D01*
X13385000Y-24110657D01*
X13738663Y-24464320D01*
X13929647Y-24543428D01*
X13798857Y-24597603D01*
X13729392Y-24839787D01*
X14530000Y-25640395D01*
X15330608Y-24839787D01*
X15261143Y-24597603D01*
X15120607Y-24547465D01*
X15321337Y-24464320D01*
X15714320Y-24071337D01*
X15927000Y-23557881D01*
X15927000Y-23002119D01*
X15714320Y-22488663D01*
X15321337Y-22095680D01*
X14807881Y-21883000D01*
X14252119Y-21883000D01*
X13738663Y-22095680D01*
X13385000Y-22449343D01*
X13385000Y-19335750D01*
X20105000Y-19335750D01*
X20105000Y-20026309D01*
X20201673Y-20259698D01*
X20380301Y-20438327D01*
X20613690Y-20535000D01*
X21304250Y-20535000D01*
X21463000Y-20376250D01*
X21463000Y-19177000D01*
X20263750Y-19177000D01*
X20105000Y-19335750D01*
X13385000Y-19335750D01*
X13385000Y-18073691D01*
X20105000Y-18073691D01*
X20105000Y-18764250D01*
X20263750Y-18923000D01*
X21463000Y-18923000D01*
X21463000Y-17723750D01*
X21304250Y-17565000D01*
X20613690Y-17565000D01*
X20380301Y-17661673D01*
X20201673Y-17840302D01*
X20105000Y-18073691D01*
X13385000Y-18073691D01*
X13385000Y-15209451D01*
X13584120Y-15209451D01*
X13584120Y-16098589D01*
X13924379Y-16920046D01*
X14553094Y-17548761D01*
X15374551Y-17889020D01*
X16263689Y-17889020D01*
X17085146Y-17548761D01*
X17713861Y-16920046D01*
X18054120Y-16098589D01*
X18054120Y-15229771D01*
X38989200Y-15229771D01*
X38989200Y-16118909D01*
X39329459Y-16940366D01*
X39958174Y-17569081D01*
X40779631Y-17909340D01*
X41668769Y-17909340D01*
X42490226Y-17569081D01*
X43118941Y-16940366D01*
X43459200Y-16118909D01*
X43459200Y-15229771D01*
X43118941Y-14408314D01*
X42490226Y-13779599D01*
X41668769Y-13439340D01*
X40779631Y-13439340D01*
X39958174Y-13779599D01*
X39329459Y-14408314D01*
X38989200Y-15229771D01*
X18054120Y-15229771D01*
X18054120Y-15209451D01*
X17713861Y-14387994D01*
X17085146Y-13759279D01*
X16263689Y-13419020D01*
X15374551Y-13419020D01*
X14553094Y-13759279D01*
X13924379Y-14387994D01*
X13584120Y-15209451D01*
X13385000Y-15209451D01*
X13385000Y-13385000D01*
X43765000Y-13385000D01*
X43765000Y-22755869D01*
X43765000Y-22755869D01*
G37*
X43765000Y-22755869D02*
X43654320Y-22488663D01*
X43261337Y-22095680D01*
X42747881Y-21883000D01*
X42192119Y-21883000D01*
X41678663Y-22095680D01*
X41285680Y-22488663D01*
X41073000Y-23002119D01*
X41073000Y-23425421D01*
X32505853Y-31992569D01*
X32143720Y-32142569D01*
X31852569Y-32433720D01*
X31702569Y-32795852D01*
X26285000Y-38213422D01*
X26285000Y-37398007D01*
X26435000Y-37035874D01*
X26435000Y-36624126D01*
X26285000Y-36261993D01*
X26285000Y-31048007D01*
X26427431Y-30704147D01*
X36124157Y-21007422D01*
X36198049Y-20958049D01*
X36393652Y-20665310D01*
X36445000Y-20407165D01*
X36445000Y-20407161D01*
X36462337Y-20320000D01*
X36447075Y-20243269D01*
X36630625Y-20120625D01*
X36958839Y-19629418D01*
X37074092Y-19050000D01*
X36958839Y-18470582D01*
X36630625Y-17979375D01*
X36139418Y-17651161D01*
X35706256Y-17565000D01*
X35413744Y-17565000D01*
X34980582Y-17651161D01*
X34489375Y-17979375D01*
X34474904Y-18001033D01*
X34408327Y-17840302D01*
X34229699Y-17661673D01*
X33996310Y-17565000D01*
X33305750Y-17565000D01*
X33147000Y-17723750D01*
X33147000Y-18923000D01*
X33167000Y-18923000D01*
X33167000Y-19177000D01*
X33147000Y-19177000D01*
X33147000Y-20376250D01*
X33305750Y-20535000D01*
X33996310Y-20535000D01*
X34162089Y-20466332D01*
X25175853Y-29452569D01*
X24813720Y-29602569D01*
X24522569Y-29893720D01*
X24365000Y-30274126D01*
X24365000Y-30685874D01*
X24515000Y-31048007D01*
X24515001Y-36261991D01*
X24365000Y-36624126D01*
X24365000Y-37035874D01*
X24515000Y-37398007D01*
X24515001Y-42611991D01*
X24365000Y-42974126D01*
X24365000Y-43385874D01*
X24515000Y-43748007D01*
X24515001Y-48961991D01*
X24365000Y-49324126D01*
X24365000Y-49735874D01*
X24515000Y-50098007D01*
X24515001Y-55311991D01*
X24365000Y-55674126D01*
X24365000Y-56085874D01*
X24522569Y-56466280D01*
X24813720Y-56757431D01*
X25194126Y-56915000D01*
X25605874Y-56915000D01*
X25785001Y-56840803D01*
X25785001Y-57459197D01*
X25605874Y-57385000D01*
X25194126Y-57385000D01*
X24831993Y-57535000D01*
X23226579Y-57535000D01*
X22475000Y-56783422D01*
X22475000Y-23158659D01*
X24694156Y-20939504D01*
X24768049Y-20890130D01*
X24963652Y-20597391D01*
X25015000Y-20339246D01*
X25015000Y-20339242D01*
X25032337Y-20252082D01*
X25028999Y-20235302D01*
X25200625Y-20120625D01*
X25528839Y-19629418D01*
X25587252Y-19335750D01*
X31535000Y-19335750D01*
X31535000Y-20026309D01*
X31631673Y-20259698D01*
X31810301Y-20438327D01*
X32043690Y-20535000D01*
X32734250Y-20535000D01*
X32893000Y-20376250D01*
X32893000Y-19177000D01*
X31693750Y-19177000D01*
X31535000Y-19335750D01*
X25587252Y-19335750D01*
X25644092Y-19050000D01*
X25528839Y-18470582D01*
X25263645Y-18073691D01*
X31535000Y-18073691D01*
X31535000Y-18764250D01*
X31693750Y-18923000D01*
X32893000Y-18923000D01*
X32893000Y-17723750D01*
X32734250Y-17565000D01*
X32043690Y-17565000D01*
X31810301Y-17661673D01*
X31631673Y-17840302D01*
X31535000Y-18073691D01*
X25263645Y-18073691D01*
X25200625Y-17979375D01*
X24709418Y-17651161D01*
X24276256Y-17565000D01*
X23983744Y-17565000D01*
X23550582Y-17651161D01*
X23059375Y-17979375D01*
X23044904Y-18001033D01*
X22978327Y-17840302D01*
X22799699Y-17661673D01*
X22566310Y-17565000D01*
X21875750Y-17565000D01*
X21717000Y-17723750D01*
X21717000Y-18923000D01*
X21737000Y-18923000D01*
X21737000Y-19177000D01*
X21717000Y-19177000D01*
X21717000Y-20376250D01*
X21875750Y-20535000D01*
X22566310Y-20535000D01*
X22616145Y-20514358D01*
X21025847Y-22104656D01*
X20951951Y-22154032D01*
X20756348Y-22446772D01*
X20705000Y-22704917D01*
X20705000Y-22704920D01*
X20687663Y-22792081D01*
X20705000Y-22879242D01*
X20705001Y-57062834D01*
X20687663Y-57150000D01*
X20756348Y-57495309D01*
X20902576Y-57714154D01*
X20902578Y-57714156D01*
X20951952Y-57788049D01*
X21025845Y-57837423D01*
X22172577Y-58984156D01*
X22221951Y-59058049D01*
X22295844Y-59107423D01*
X22295845Y-59107424D01*
X22311495Y-59117881D01*
X22514690Y-59253652D01*
X22772835Y-59305000D01*
X22772839Y-59305000D01*
X22859999Y-59322337D01*
X22947159Y-59305000D01*
X24831993Y-59305000D01*
X24926343Y-59344081D01*
X24195424Y-60075000D01*
X22947159Y-60075000D01*
X22859999Y-60057663D01*
X22772839Y-60075000D01*
X22772835Y-60075000D01*
X22514690Y-60126348D01*
X22514688Y-60126349D01*
X22514689Y-60126349D01*
X22295845Y-60272576D01*
X22295844Y-60272577D01*
X22221951Y-60321951D01*
X22172577Y-60395844D01*
X20735847Y-61832575D01*
X20661951Y-61881951D01*
X20466348Y-62174691D01*
X20415000Y-62432836D01*
X20415000Y-62432839D01*
X20397663Y-62520000D01*
X20415000Y-62607161D01*
X20415001Y-68231991D01*
X20265000Y-68594126D01*
X20265000Y-69005874D01*
X20422569Y-69386280D01*
X20713720Y-69677431D01*
X21094126Y-69835000D01*
X21505874Y-69835000D01*
X21886280Y-69677431D01*
X22177431Y-69386280D01*
X22335000Y-69005874D01*
X22335000Y-68594126D01*
X22185000Y-68231993D01*
X22185000Y-62886578D01*
X23226579Y-61845000D01*
X24474841Y-61845000D01*
X24523703Y-61854719D01*
X24335847Y-62042575D01*
X24261951Y-62091951D01*
X24066348Y-62384691D01*
X24015000Y-62642836D01*
X24015000Y-62642839D01*
X23997663Y-62730000D01*
X24015000Y-62817161D01*
X24015001Y-68231991D01*
X23865000Y-68594126D01*
X23865000Y-69005874D01*
X24022569Y-69386280D01*
X24313720Y-69677431D01*
X24694126Y-69835000D01*
X25105874Y-69835000D01*
X25486280Y-69677431D01*
X25777431Y-69386280D01*
X25935000Y-69005874D01*
X25935000Y-68594126D01*
X25785000Y-68231993D01*
X25785000Y-63096578D01*
X28055011Y-60826568D01*
X28055011Y-67864044D01*
X27913720Y-67922569D01*
X27622569Y-68213720D01*
X27465000Y-68594126D01*
X27465000Y-69005874D01*
X27622569Y-69386280D01*
X27913720Y-69677431D01*
X28294126Y-69835000D01*
X28705874Y-69835000D01*
X29086280Y-69677431D01*
X29377431Y-69386280D01*
X29523009Y-69034822D01*
X29578059Y-68998039D01*
X29773662Y-68705300D01*
X29825010Y-68447155D01*
X29825010Y-68447151D01*
X29842347Y-68359991D01*
X29825010Y-68272831D01*
X29825010Y-62826588D01*
X31215000Y-64216579D01*
X31215001Y-68231991D01*
X31065000Y-68594126D01*
X31065000Y-69005874D01*
X31222569Y-69386280D01*
X31513720Y-69677431D01*
X31894126Y-69835000D01*
X32305874Y-69835000D01*
X32686280Y-69677431D01*
X32977431Y-69386280D01*
X33135000Y-69005874D01*
X33135000Y-68594126D01*
X32985000Y-68231993D01*
X32985000Y-63937160D01*
X33002337Y-63849999D01*
X32985000Y-63762836D01*
X32985000Y-63762835D01*
X32933652Y-63504690D01*
X32878625Y-63422337D01*
X32787424Y-63285845D01*
X32787423Y-63285844D01*
X32738049Y-63211951D01*
X32664156Y-63162577D01*
X30825020Y-61323442D01*
X30825020Y-59526486D01*
X30865000Y-59623008D01*
X30865001Y-60872835D01*
X30847663Y-60960000D01*
X30916348Y-61305309D01*
X31062576Y-61524154D01*
X31062577Y-61524155D01*
X31111952Y-61598049D01*
X31185845Y-61647423D01*
X34815000Y-65276579D01*
X34815001Y-68231991D01*
X34665000Y-68594126D01*
X34665000Y-69005874D01*
X34822569Y-69386280D01*
X35113720Y-69677431D01*
X35494126Y-69835000D01*
X35905874Y-69835000D01*
X36286280Y-69677431D01*
X36577431Y-69386280D01*
X36735000Y-69005874D01*
X36735000Y-68594126D01*
X36585000Y-68231993D01*
X36585000Y-67289611D01*
X38966340Y-67289611D01*
X38966340Y-68178749D01*
X39306599Y-69000206D01*
X39935314Y-69628921D01*
X40756771Y-69969180D01*
X41645909Y-69969180D01*
X42467366Y-69628921D01*
X43096081Y-69000206D01*
X43436340Y-68178749D01*
X43436340Y-67289611D01*
X43096081Y-66468154D01*
X42467366Y-65839439D01*
X41645909Y-65499180D01*
X40756771Y-65499180D01*
X39935314Y-65839439D01*
X39306599Y-66468154D01*
X38966340Y-67289611D01*
X36585000Y-67289611D01*
X36585000Y-64997161D01*
X36602337Y-64910000D01*
X36585000Y-64822839D01*
X36585000Y-64822835D01*
X36533652Y-64564690D01*
X36338049Y-64271951D01*
X36264156Y-64222577D01*
X32635000Y-60593422D01*
X32635000Y-59758564D01*
X32733049Y-59693049D01*
X32782425Y-59619153D01*
X36309276Y-56092302D01*
X41060856Y-56092302D01*
X41088638Y-56647368D01*
X41247603Y-57031143D01*
X41489787Y-57100608D01*
X42290395Y-56300000D01*
X41489787Y-55499392D01*
X41247603Y-55568857D01*
X41060856Y-56092302D01*
X36309276Y-56092302D01*
X41073000Y-51328579D01*
X41073000Y-51497881D01*
X41285680Y-52011337D01*
X41678663Y-52404320D01*
X41885513Y-52490000D01*
X41678663Y-52575680D01*
X41285680Y-52968663D01*
X41073000Y-53482119D01*
X41073000Y-54037881D01*
X41285680Y-54551337D01*
X41678663Y-54944320D01*
X41869647Y-55023428D01*
X41738857Y-55077603D01*
X41669392Y-55319787D01*
X42470000Y-56120395D01*
X43270608Y-55319787D01*
X43201143Y-55077603D01*
X43060607Y-55027465D01*
X43261337Y-54944320D01*
X43654320Y-54551337D01*
X43765001Y-54284130D01*
X43765001Y-55744138D01*
X43692397Y-55568857D01*
X43450213Y-55499392D01*
X42649605Y-56300000D01*
X43450213Y-57100608D01*
X43692397Y-57031143D01*
X43765001Y-56827637D01*
X43765001Y-58315871D01*
X43654320Y-58048663D01*
X43261337Y-57655680D01*
X43070353Y-57576572D01*
X43201143Y-57522397D01*
X43270608Y-57280213D01*
X42470000Y-56479605D01*
X41669392Y-57280213D01*
X41738857Y-57522397D01*
X41879393Y-57572535D01*
X41678663Y-57655680D01*
X41285680Y-58048663D01*
X41073000Y-58562119D01*
X41073000Y-59117881D01*
X41285680Y-59631337D01*
X41678663Y-60024320D01*
X42192119Y-60237000D01*
X42747881Y-60237000D01*
X43261337Y-60024320D01*
X43654320Y-59631337D01*
X43765001Y-59364129D01*
X43765001Y-70435000D01*
X13385000Y-70435000D01*
X13385000Y-67289611D01*
X13573960Y-67289611D01*
X13573960Y-68178749D01*
X13914219Y-69000206D01*
X14542934Y-69628921D01*
X15364391Y-69969180D01*
X16253529Y-69969180D01*
X17074986Y-69628921D01*
X17703701Y-69000206D01*
X18043960Y-68178749D01*
X18043960Y-67289611D01*
X17703701Y-66468154D01*
X17074986Y-65839439D01*
X16253529Y-65499180D01*
X15364391Y-65499180D01*
X14542934Y-65839439D01*
X13914219Y-66468154D01*
X13573960Y-67289611D01*
X13385000Y-67289611D01*
X13385000Y-59670657D01*
X13738663Y-60024320D01*
X14252119Y-60237000D01*
X14807881Y-60237000D01*
X15321337Y-60024320D01*
X15714320Y-59631337D01*
X15927000Y-59117881D01*
X15927000Y-58562119D01*
X15714320Y-58048663D01*
X15321337Y-57655680D01*
X15130353Y-57576572D01*
X15261143Y-57522397D01*
X15330608Y-57280213D01*
X14530000Y-56479605D01*
X13729392Y-57280213D01*
X13798857Y-57522397D01*
X13939393Y-57572535D01*
X13738663Y-57655680D01*
X13385000Y-58009343D01*
X13385000Y-57053343D01*
X13549787Y-57100608D01*
X14350395Y-56300000D01*
X14709605Y-56300000D01*
X15510213Y-57100608D01*
X15752397Y-57031143D01*
X15939144Y-56507698D01*
X15911362Y-55952632D01*
X15752397Y-55568857D01*
X15510213Y-55499392D01*
X14709605Y-56300000D01*
X14350395Y-56300000D01*
X13549787Y-55499392D01*
X13385000Y-55546657D01*
X13385000Y-54590657D01*
X13738663Y-54944320D01*
X13929647Y-55023428D01*
X13798857Y-55077603D01*
X13729392Y-55319787D01*
X14530000Y-56120395D01*
X15330608Y-55319787D01*
X15261143Y-55077603D01*
X15120607Y-55027465D01*
X15321337Y-54944320D01*
X15714320Y-54551337D01*
X15927000Y-54037881D01*
X15927000Y-53482119D01*
X15714320Y-52968663D01*
X15321337Y-52575680D01*
X15114487Y-52490000D01*
X15321337Y-52404320D01*
X15714320Y-52011337D01*
X15927000Y-51497881D01*
X15927000Y-50942119D01*
X15714320Y-50428663D01*
X15321337Y-50035680D01*
X15114487Y-49950000D01*
X15321337Y-49864320D01*
X15714320Y-49471337D01*
X15927000Y-48957881D01*
X15927000Y-48402119D01*
X15714320Y-47888663D01*
X15321337Y-47495680D01*
X15130353Y-47416572D01*
X15261143Y-47362397D01*
X15330608Y-47120213D01*
X14530000Y-46319605D01*
X13729392Y-47120213D01*
X13798857Y-47362397D01*
X13939393Y-47412535D01*
X13738663Y-47495680D01*
X13385000Y-47849343D01*
X13385000Y-46893343D01*
X13549787Y-46940608D01*
X14350395Y-46140000D01*
X14709605Y-46140000D01*
X15510213Y-46940608D01*
X15752397Y-46871143D01*
X15939144Y-46347698D01*
X15911362Y-45792632D01*
X15752397Y-45408857D01*
X15510213Y-45339392D01*
X14709605Y-46140000D01*
X14350395Y-46140000D01*
X13549787Y-45339392D01*
X13385000Y-45386657D01*
X13385000Y-44430657D01*
X13738663Y-44784320D01*
X13929647Y-44863428D01*
X13798857Y-44917603D01*
X13729392Y-45159787D01*
X14530000Y-45960395D01*
X15330608Y-45159787D01*
X15261143Y-44917603D01*
X15120607Y-44867465D01*
X15321337Y-44784320D01*
X15714320Y-44391337D01*
X15927000Y-43877881D01*
X15927000Y-43322119D01*
X15714320Y-42808663D01*
X15321337Y-42415680D01*
X15114487Y-42330000D01*
X15321337Y-42244320D01*
X15714320Y-41851337D01*
X15927000Y-41337881D01*
X15927000Y-40782119D01*
X15714320Y-40268663D01*
X15321337Y-39875680D01*
X15114487Y-39790000D01*
X15321337Y-39704320D01*
X15714320Y-39311337D01*
X15927000Y-38797881D01*
X15927000Y-38242119D01*
X15714320Y-37728663D01*
X15321337Y-37335680D01*
X15114487Y-37250000D01*
X15321337Y-37164320D01*
X15714320Y-36771337D01*
X15927000Y-36257881D01*
X15927000Y-35702119D01*
X15714320Y-35188663D01*
X15321337Y-34795680D01*
X15114487Y-34710000D01*
X15321337Y-34624320D01*
X15714320Y-34231337D01*
X15927000Y-33717881D01*
X15927000Y-33162119D01*
X15714320Y-32648663D01*
X15321337Y-32255680D01*
X15114487Y-32170000D01*
X15321337Y-32084320D01*
X15714320Y-31691337D01*
X15927000Y-31177881D01*
X15927000Y-30622119D01*
X15714320Y-30108663D01*
X15321337Y-29715680D01*
X15114487Y-29630000D01*
X15321337Y-29544320D01*
X15714320Y-29151337D01*
X15927000Y-28637881D01*
X15927000Y-28082119D01*
X15714320Y-27568663D01*
X15321337Y-27175680D01*
X15130353Y-27096572D01*
X15261143Y-27042397D01*
X15330608Y-26800213D01*
X14530000Y-25999605D01*
X13729392Y-26800213D01*
X13798857Y-27042397D01*
X13939393Y-27092535D01*
X13738663Y-27175680D01*
X13385000Y-27529343D01*
X13385000Y-26573343D01*
X13549787Y-26620608D01*
X14350395Y-25820000D01*
X14709605Y-25820000D01*
X15510213Y-26620608D01*
X15752397Y-26551143D01*
X15939144Y-26027698D01*
X15911362Y-25472632D01*
X15752397Y-25088857D01*
X15510213Y-25019392D01*
X14709605Y-25820000D01*
X14350395Y-25820000D01*
X13549787Y-25019392D01*
X13385000Y-25066657D01*
X13385000Y-24110657D01*
X13738663Y-24464320D01*
X13929647Y-24543428D01*
X13798857Y-24597603D01*
X13729392Y-24839787D01*
X14530000Y-25640395D01*
X15330608Y-24839787D01*
X15261143Y-24597603D01*
X15120607Y-24547465D01*
X15321337Y-24464320D01*
X15714320Y-24071337D01*
X15927000Y-23557881D01*
X15927000Y-23002119D01*
X15714320Y-22488663D01*
X15321337Y-22095680D01*
X14807881Y-21883000D01*
X14252119Y-21883000D01*
X13738663Y-22095680D01*
X13385000Y-22449343D01*
X13385000Y-19335750D01*
X20105000Y-19335750D01*
X20105000Y-20026309D01*
X20201673Y-20259698D01*
X20380301Y-20438327D01*
X20613690Y-20535000D01*
X21304250Y-20535000D01*
X21463000Y-20376250D01*
X21463000Y-19177000D01*
X20263750Y-19177000D01*
X20105000Y-19335750D01*
X13385000Y-19335750D01*
X13385000Y-18073691D01*
X20105000Y-18073691D01*
X20105000Y-18764250D01*
X20263750Y-18923000D01*
X21463000Y-18923000D01*
X21463000Y-17723750D01*
X21304250Y-17565000D01*
X20613690Y-17565000D01*
X20380301Y-17661673D01*
X20201673Y-17840302D01*
X20105000Y-18073691D01*
X13385000Y-18073691D01*
X13385000Y-15209451D01*
X13584120Y-15209451D01*
X13584120Y-16098589D01*
X13924379Y-16920046D01*
X14553094Y-17548761D01*
X15374551Y-17889020D01*
X16263689Y-17889020D01*
X17085146Y-17548761D01*
X17713861Y-16920046D01*
X18054120Y-16098589D01*
X18054120Y-15229771D01*
X38989200Y-15229771D01*
X38989200Y-16118909D01*
X39329459Y-16940366D01*
X39958174Y-17569081D01*
X40779631Y-17909340D01*
X41668769Y-17909340D01*
X42490226Y-17569081D01*
X43118941Y-16940366D01*
X43459200Y-16118909D01*
X43459200Y-15229771D01*
X43118941Y-14408314D01*
X42490226Y-13779599D01*
X41668769Y-13439340D01*
X40779631Y-13439340D01*
X39958174Y-13779599D01*
X39329459Y-14408314D01*
X38989200Y-15229771D01*
X18054120Y-15229771D01*
X18054120Y-15209451D01*
X17713861Y-14387994D01*
X17085146Y-13759279D01*
X16263689Y-13419020D01*
X15374551Y-13419020D01*
X14553094Y-13759279D01*
X13924379Y-14387994D01*
X13584120Y-15209451D01*
X13385000Y-15209451D01*
X13385000Y-13385000D01*
X43765000Y-13385000D01*
X43765000Y-22755869D01*
G36*
X41073000Y-31177881D02*
X41285680Y-31691337D01*
X41678663Y-32084320D01*
X41885513Y-32170000D01*
X41678663Y-32255680D01*
X41285680Y-32648663D01*
X41073000Y-33162119D01*
X41073000Y-33717881D01*
X41285680Y-34231337D01*
X41678663Y-34624320D01*
X41885513Y-34710000D01*
X41678663Y-34795680D01*
X41285680Y-35188663D01*
X41073000Y-35702119D01*
X41073000Y-36257881D01*
X41285680Y-36771337D01*
X41678663Y-37164320D01*
X41869647Y-37243428D01*
X41738857Y-37297603D01*
X41669392Y-37539787D01*
X42470000Y-38340395D01*
X43270608Y-37539787D01*
X43201143Y-37297603D01*
X43060607Y-37247465D01*
X43261337Y-37164320D01*
X43654320Y-36771337D01*
X43765000Y-36504130D01*
X43765000Y-37964137D01*
X43692397Y-37788857D01*
X43450213Y-37719392D01*
X42649605Y-38520000D01*
X43450213Y-39320608D01*
X43692397Y-39251143D01*
X43765000Y-39047638D01*
X43765000Y-40535870D01*
X43654320Y-40268663D01*
X43261337Y-39875680D01*
X43070353Y-39796572D01*
X43201143Y-39742397D01*
X43270608Y-39500213D01*
X42470000Y-38699605D01*
X41669392Y-39500213D01*
X41738857Y-39742397D01*
X41879393Y-39792535D01*
X41678663Y-39875680D01*
X41285680Y-40268663D01*
X41073000Y-40782119D01*
X41073000Y-41337881D01*
X41285680Y-41851337D01*
X41678663Y-42244320D01*
X41885513Y-42330000D01*
X41678663Y-42415680D01*
X41285680Y-42808663D01*
X41073000Y-43322119D01*
X41073000Y-43877881D01*
X41285680Y-44391337D01*
X41678663Y-44784320D01*
X41885513Y-44870000D01*
X41678663Y-44955680D01*
X41285680Y-45348663D01*
X41073000Y-45862119D01*
X41073000Y-46285421D01*
X37443422Y-49915000D01*
X33588007Y-49915000D01*
X33225874Y-49765000D01*
X32814126Y-49765000D01*
X32433720Y-49922569D01*
X32142569Y-50213720D01*
X31992569Y-50575852D01*
X29825010Y-52743412D01*
X29825010Y-48896568D01*
X33244148Y-45477431D01*
X33606280Y-45327431D01*
X33897431Y-45036280D01*
X34047431Y-44674147D01*
X38664156Y-40057423D01*
X38738049Y-40008049D01*
X38798887Y-39917000D01*
X38933652Y-39715310D01*
X38976437Y-39500213D01*
X38985000Y-39457165D01*
X38985000Y-39457161D01*
X39002337Y-39370000D01*
X38985000Y-39282839D01*
X38985000Y-38312302D01*
X41060856Y-38312302D01*
X41088638Y-38867368D01*
X41247603Y-39251143D01*
X41489787Y-39320608D01*
X42290395Y-38520000D01*
X41489787Y-37719392D01*
X41247603Y-37788857D01*
X41060856Y-38312302D01*
X38985000Y-38312302D01*
X38985000Y-33096578D01*
X41073000Y-31008579D01*
X41073000Y-31177881D01*
X41073000Y-31177881D01*
G37*
X41073000Y-31177881D02*
X41285680Y-31691337D01*
X41678663Y-32084320D01*
X41885513Y-32170000D01*
X41678663Y-32255680D01*
X41285680Y-32648663D01*
X41073000Y-33162119D01*
X41073000Y-33717881D01*
X41285680Y-34231337D01*
X41678663Y-34624320D01*
X41885513Y-34710000D01*
X41678663Y-34795680D01*
X41285680Y-35188663D01*
X41073000Y-35702119D01*
X41073000Y-36257881D01*
X41285680Y-36771337D01*
X41678663Y-37164320D01*
X41869647Y-37243428D01*
X41738857Y-37297603D01*
X41669392Y-37539787D01*
X42470000Y-38340395D01*
X43270608Y-37539787D01*
X43201143Y-37297603D01*
X43060607Y-37247465D01*
X43261337Y-37164320D01*
X43654320Y-36771337D01*
X43765000Y-36504130D01*
X43765000Y-37964137D01*
X43692397Y-37788857D01*
X43450213Y-37719392D01*
X42649605Y-38520000D01*
X43450213Y-39320608D01*
X43692397Y-39251143D01*
X43765000Y-39047638D01*
X43765000Y-40535870D01*
X43654320Y-40268663D01*
X43261337Y-39875680D01*
X43070353Y-39796572D01*
X43201143Y-39742397D01*
X43270608Y-39500213D01*
X42470000Y-38699605D01*
X41669392Y-39500213D01*
X41738857Y-39742397D01*
X41879393Y-39792535D01*
X41678663Y-39875680D01*
X41285680Y-40268663D01*
X41073000Y-40782119D01*
X41073000Y-41337881D01*
X41285680Y-41851337D01*
X41678663Y-42244320D01*
X41885513Y-42330000D01*
X41678663Y-42415680D01*
X41285680Y-42808663D01*
X41073000Y-43322119D01*
X41073000Y-43877881D01*
X41285680Y-44391337D01*
X41678663Y-44784320D01*
X41885513Y-44870000D01*
X41678663Y-44955680D01*
X41285680Y-45348663D01*
X41073000Y-45862119D01*
X41073000Y-46285421D01*
X37443422Y-49915000D01*
X33588007Y-49915000D01*
X33225874Y-49765000D01*
X32814126Y-49765000D01*
X32433720Y-49922569D01*
X32142569Y-50213720D01*
X31992569Y-50575852D01*
X29825010Y-52743412D01*
X29825010Y-48896568D01*
X33244148Y-45477431D01*
X33606280Y-45327431D01*
X33897431Y-45036280D01*
X34047431Y-44674147D01*
X38664156Y-40057423D01*
X38738049Y-40008049D01*
X38798887Y-39917000D01*
X38933652Y-39715310D01*
X38976437Y-39500213D01*
X38985000Y-39457165D01*
X38985000Y-39457161D01*
X39002337Y-39370000D01*
X38985000Y-39282839D01*
X38985000Y-38312302D01*
X41060856Y-38312302D01*
X41088638Y-38867368D01*
X41247603Y-39251143D01*
X41489787Y-39320608D01*
X42290395Y-38520000D01*
X41489787Y-37719392D01*
X41247603Y-37788857D01*
X41060856Y-38312302D01*
X38985000Y-38312302D01*
X38985000Y-33096578D01*
X41073000Y-31008579D01*
X41073000Y-31177881D01*
G04 #@! TD*
M02*
