G04 #@! TF.GenerationSoftware,KiCad,Pcbnew,(5.0.2)-1*
G04 #@! TF.CreationDate,2019-06-20T09:18:01+05:30*
G04 #@! TF.ProjectId,CapacityOfBattery,43617061-6369-4747-994f-664261747465,rev?*
G04 #@! TF.SameCoordinates,Original*
G04 #@! TF.FileFunction,Legend,Top*
G04 #@! TF.FilePolarity,Positive*
%FSLAX46Y46*%
G04 Gerber Fmt 4.6, Leading zero omitted, Abs format (unit mm)*
G04 Created by KiCad (PCBNEW (5.0.2)-1) date 06/20/19 09:18:01*
%MOMM*%
%LPD*%
G01*
G04 APERTURE LIST*
%ADD10C,0.150000*%
%ADD11C,0.120000*%
G04 APERTURE END LIST*
D10*
X34552380Y-69746666D02*
X33552380Y-69746666D01*
X33552380Y-69508571D01*
X33600000Y-69365714D01*
X33695238Y-69270476D01*
X33790476Y-69222857D01*
X33980952Y-69175238D01*
X34123809Y-69175238D01*
X34314285Y-69222857D01*
X34409523Y-69270476D01*
X34504761Y-69365714D01*
X34552380Y-69508571D01*
X34552380Y-69746666D01*
X33552380Y-68746666D02*
X34361904Y-68746666D01*
X34457142Y-68699047D01*
X34504761Y-68651428D01*
X34552380Y-68556190D01*
X34552380Y-68365714D01*
X34504761Y-68270476D01*
X34457142Y-68222857D01*
X34361904Y-68175238D01*
X33552380Y-68175238D01*
X33552380Y-67841904D02*
X33552380Y-67270476D01*
X34552380Y-67556190D02*
X33552380Y-67556190D01*
X29952380Y-69580000D02*
X29952380Y-69484761D01*
X30000000Y-69389523D01*
X30047619Y-69341904D01*
X30142857Y-69294285D01*
X30333333Y-69246666D01*
X30571428Y-69246666D01*
X30761904Y-69294285D01*
X30857142Y-69341904D01*
X30904761Y-69389523D01*
X30952380Y-69484761D01*
X30952380Y-69580000D01*
X30904761Y-69675238D01*
X30857142Y-69722857D01*
X30761904Y-69770476D01*
X30571428Y-69818095D01*
X30333333Y-69818095D01*
X30142857Y-69770476D01*
X30047619Y-69722857D01*
X30000000Y-69675238D01*
X29952380Y-69580000D01*
X30285714Y-68389523D02*
X30952380Y-68389523D01*
X29904761Y-68627619D02*
X30619047Y-68865714D01*
X30619047Y-68246666D01*
X29952380Y-67960952D02*
X29952380Y-67294285D01*
X30952380Y-67722857D01*
X27352380Y-69266666D02*
X27352380Y-69838095D01*
X27352380Y-69552380D02*
X26352380Y-69552380D01*
X26495238Y-69647619D01*
X26590476Y-69742857D01*
X26638095Y-69838095D01*
X27352380Y-68314285D02*
X27352380Y-68885714D01*
X27352380Y-68600000D02*
X26352380Y-68600000D01*
X26495238Y-68695238D01*
X26590476Y-68790476D01*
X26638095Y-68885714D01*
X26352380Y-67457142D02*
X26352380Y-67647619D01*
X26400000Y-67742857D01*
X26447619Y-67790476D01*
X26590476Y-67885714D01*
X26780952Y-67933333D01*
X27161904Y-67933333D01*
X27257142Y-67885714D01*
X27304761Y-67838095D01*
X27352380Y-67742857D01*
X27352380Y-67552380D01*
X27304761Y-67457142D01*
X27257142Y-67409523D01*
X27161904Y-67361904D01*
X26923809Y-67361904D01*
X26828571Y-67409523D01*
X26780952Y-67457142D01*
X26733333Y-67552380D01*
X26733333Y-67742857D01*
X26780952Y-67838095D01*
X26828571Y-67885714D01*
X26923809Y-67933333D01*
X22847619Y-69818095D02*
X22800000Y-69770476D01*
X22752380Y-69675238D01*
X22752380Y-69437142D01*
X22800000Y-69341904D01*
X22847619Y-69294285D01*
X22942857Y-69246666D01*
X23038095Y-69246666D01*
X23180952Y-69294285D01*
X23752380Y-69865714D01*
X23752380Y-69246666D01*
X22752380Y-68913333D02*
X22752380Y-68294285D01*
X23133333Y-68627619D01*
X23133333Y-68484761D01*
X23180952Y-68389523D01*
X23228571Y-68341904D01*
X23323809Y-68294285D01*
X23561904Y-68294285D01*
X23657142Y-68341904D01*
X23704761Y-68389523D01*
X23752380Y-68484761D01*
X23752380Y-68770476D01*
X23704761Y-68865714D01*
X23657142Y-68913333D01*
X22847619Y-67913333D02*
X22800000Y-67865714D01*
X22752380Y-67770476D01*
X22752380Y-67532380D01*
X22800000Y-67437142D01*
X22847619Y-67389523D01*
X22942857Y-67341904D01*
X23038095Y-67341904D01*
X23180952Y-67389523D01*
X23752380Y-67960952D01*
X23752380Y-67341904D01*
X19052380Y-69214285D02*
X19052380Y-69690476D01*
X19528571Y-69738095D01*
X19480952Y-69690476D01*
X19433333Y-69595238D01*
X19433333Y-69357142D01*
X19480952Y-69261904D01*
X19528571Y-69214285D01*
X19623809Y-69166666D01*
X19861904Y-69166666D01*
X19957142Y-69214285D01*
X20004761Y-69261904D01*
X20052380Y-69357142D01*
X20052380Y-69595238D01*
X20004761Y-69690476D01*
X19957142Y-69738095D01*
X19052380Y-68309523D02*
X19052380Y-68500000D01*
X19100000Y-68595238D01*
X19147619Y-68642857D01*
X19290476Y-68738095D01*
X19480952Y-68785714D01*
X19861904Y-68785714D01*
X19957142Y-68738095D01*
X20004761Y-68690476D01*
X20052380Y-68595238D01*
X20052380Y-68404761D01*
X20004761Y-68309523D01*
X19957142Y-68261904D01*
X19861904Y-68214285D01*
X19623809Y-68214285D01*
X19528571Y-68261904D01*
X19480952Y-68309523D01*
X19433333Y-68404761D01*
X19433333Y-68595238D01*
X19480952Y-68690476D01*
X19528571Y-68738095D01*
X19623809Y-68785714D01*
X19052380Y-67595238D02*
X19052380Y-67500000D01*
X19100000Y-67404761D01*
X19147619Y-67357142D01*
X19242857Y-67309523D01*
X19433333Y-67261904D01*
X19671428Y-67261904D01*
X19861904Y-67309523D01*
X19957142Y-67357142D01*
X20004761Y-67404761D01*
X20052380Y-67500000D01*
X20052380Y-67595238D01*
X20004761Y-67690476D01*
X19957142Y-67738095D01*
X19861904Y-67785714D01*
X19671428Y-67833333D01*
X19433333Y-67833333D01*
X19242857Y-67785714D01*
X19147619Y-67738095D01*
X19100000Y-67690476D01*
X19052380Y-67595238D01*
D11*
G04 #@! TO.C,Q3*
X27900000Y-44120000D02*
X27900000Y-45050000D01*
X27900000Y-47280000D02*
X27900000Y-46350000D01*
X27900000Y-47280000D02*
X30060000Y-47280000D01*
X27900000Y-44120000D02*
X29360000Y-44120000D01*
G04 #@! TO.C,R9*
X34001252Y-27360000D02*
X33478748Y-27360000D01*
X34001252Y-25940000D02*
X33478748Y-25940000D01*
G04 #@! TO.C,Q6*
X27900000Y-23800000D02*
X27900000Y-24730000D01*
X27900000Y-26960000D02*
X27900000Y-26030000D01*
X27900000Y-26960000D02*
X30060000Y-26960000D01*
X27900000Y-23800000D02*
X29360000Y-23800000D01*
G04 #@! TO.C,D2*
X23940000Y-64900000D02*
X23940000Y-67760000D01*
X23940000Y-67760000D02*
X25860000Y-67760000D01*
X25860000Y-67760000D02*
X25860000Y-64900000D01*
G04 #@! TO.C,D3*
X29460000Y-67760000D02*
X29460000Y-64900000D01*
X27540000Y-67760000D02*
X29460000Y-67760000D01*
X27540000Y-64900000D02*
X27540000Y-67760000D01*
G04 #@! TO.C,D4*
X31140000Y-64900000D02*
X31140000Y-67760000D01*
X31140000Y-67760000D02*
X33060000Y-67760000D01*
X33060000Y-67760000D02*
X33060000Y-64900000D01*
G04 #@! TO.C,D5*
X36660000Y-67760000D02*
X36660000Y-64900000D01*
X34740000Y-67760000D02*
X36660000Y-67760000D01*
X34740000Y-64900000D02*
X34740000Y-67760000D01*
G04 #@! TO.C,D1*
X20340833Y-64909934D02*
X20340833Y-67769934D01*
X20340833Y-67769934D02*
X22260833Y-67769934D01*
X22260833Y-67769934D02*
X22260833Y-64909934D01*
G04 #@! TO.C,R6*
X34001252Y-61670000D02*
X33478748Y-61670000D01*
X34001252Y-60250000D02*
X33478748Y-60250000D01*
G04 #@! TO.C,R7*
X23841252Y-27230000D02*
X23318748Y-27230000D01*
X23841252Y-28650000D02*
X23318748Y-28650000D01*
G04 #@! TO.C,R8*
X23318748Y-23400000D02*
X23841252Y-23400000D01*
X23318748Y-24820000D02*
X23841252Y-24820000D01*
D10*
G04 #@! TO.C,U1*
X43750000Y-70100000D02*
X43750000Y-13100000D01*
X13250000Y-70100000D02*
X43750000Y-70100000D01*
X13250000Y-13100000D02*
X13250000Y-70100000D01*
X13750000Y-13100000D02*
X13250000Y-13100000D01*
X43750000Y-13100000D02*
X13750000Y-13100000D01*
X42996051Y-15660000D02*
G75*
G03X42996051Y-15660000I-1796051J0D01*
G01*
X17596051Y-15660000D02*
G75*
G03X17596051Y-15660000I-1796051J0D01*
G01*
X17596051Y-67730000D02*
G75*
G03X17596051Y-67730000I-1796051J0D01*
G01*
X42996051Y-67730000D02*
G75*
G03X42996051Y-67730000I-1796051J0D01*
G01*
D11*
G04 #@! TO.C,J2*
X20260000Y-20380000D02*
X20260000Y-19050000D01*
X21590000Y-20380000D02*
X20260000Y-20380000D01*
X22860000Y-20380000D02*
X22860000Y-17720000D01*
X22860000Y-17720000D02*
X25460000Y-17720000D01*
X22860000Y-20380000D02*
X25460000Y-20380000D01*
X25460000Y-20380000D02*
X25460000Y-17720000D01*
G04 #@! TO.C,J1*
X36890000Y-20380000D02*
X36890000Y-17720000D01*
X34290000Y-20380000D02*
X36890000Y-20380000D01*
X34290000Y-17720000D02*
X36890000Y-17720000D01*
X34290000Y-20380000D02*
X34290000Y-17720000D01*
X33020000Y-20380000D02*
X31690000Y-20380000D01*
X31690000Y-20380000D02*
X31690000Y-19050000D01*
G04 #@! TO.C,Q1*
X27900000Y-31420000D02*
X27900000Y-32350000D01*
X27900000Y-34580000D02*
X27900000Y-33650000D01*
X27900000Y-34580000D02*
X30060000Y-34580000D01*
X27900000Y-31420000D02*
X29360000Y-31420000D01*
G04 #@! TO.C,Q2*
X27900000Y-37770000D02*
X29360000Y-37770000D01*
X27900000Y-40930000D02*
X30060000Y-40930000D01*
X27900000Y-40930000D02*
X27900000Y-40000000D01*
X27900000Y-37770000D02*
X27900000Y-38700000D01*
G04 #@! TO.C,Q4*
X27900000Y-50470000D02*
X29360000Y-50470000D01*
X27900000Y-53630000D02*
X30060000Y-53630000D01*
X27900000Y-53630000D02*
X27900000Y-52700000D01*
X27900000Y-50470000D02*
X27900000Y-51400000D01*
G04 #@! TO.C,Q5*
X27900000Y-56820000D02*
X27900000Y-57750000D01*
X27900000Y-59980000D02*
X27900000Y-59050000D01*
X27900000Y-59980000D02*
X30060000Y-59980000D01*
X27900000Y-56820000D02*
X29360000Y-56820000D01*
G04 #@! TO.C,R1*
X34001252Y-34980000D02*
X33478748Y-34980000D01*
X34001252Y-33560000D02*
X33478748Y-33560000D01*
G04 #@! TO.C,R3*
X34001252Y-46260000D02*
X33478748Y-46260000D01*
X34001252Y-47680000D02*
X33478748Y-47680000D01*
G04 #@! TO.C,R4*
X34001252Y-54030000D02*
X33478748Y-54030000D01*
X34001252Y-52610000D02*
X33478748Y-52610000D01*
G04 #@! TO.C,R5*
X34001252Y-56440000D02*
X33478748Y-56440000D01*
X34001252Y-57860000D02*
X33478748Y-57860000D01*
G04 #@! TO.C,RL1*
X23318748Y-32290000D02*
X23841252Y-32290000D01*
X23318748Y-33710000D02*
X23841252Y-33710000D01*
G04 #@! TO.C,RL2*
X23318748Y-40060000D02*
X23841252Y-40060000D01*
X23318748Y-38640000D02*
X23841252Y-38640000D01*
G04 #@! TO.C,RL3*
X23318748Y-44990000D02*
X23841252Y-44990000D01*
X23318748Y-46410000D02*
X23841252Y-46410000D01*
G04 #@! TO.C,RL4*
X23318748Y-52760000D02*
X23841252Y-52760000D01*
X23318748Y-51340000D02*
X23841252Y-51340000D01*
G04 #@! TO.C,R2*
X34001252Y-41330000D02*
X33478748Y-41330000D01*
X34001252Y-39910000D02*
X33478748Y-39910000D01*
G04 #@! TO.C,*
D10*
G04 #@! TO.C,Q3*
X28564761Y-48747619D02*
X28469523Y-48700000D01*
X28374285Y-48604761D01*
X28231428Y-48461904D01*
X28136190Y-48414285D01*
X28040952Y-48414285D01*
X28088571Y-48652380D02*
X27993333Y-48604761D01*
X27898095Y-48509523D01*
X27850476Y-48319047D01*
X27850476Y-47985714D01*
X27898095Y-47795238D01*
X27993333Y-47700000D01*
X28088571Y-47652380D01*
X28279047Y-47652380D01*
X28374285Y-47700000D01*
X28469523Y-47795238D01*
X28517142Y-47985714D01*
X28517142Y-48319047D01*
X28469523Y-48509523D01*
X28374285Y-48604761D01*
X28279047Y-48652380D01*
X28088571Y-48652380D01*
X28850476Y-47652380D02*
X29469523Y-47652380D01*
X29136190Y-48033333D01*
X29279047Y-48033333D01*
X29374285Y-48080952D01*
X29421904Y-48128571D01*
X29469523Y-48223809D01*
X29469523Y-48461904D01*
X29421904Y-48557142D01*
X29374285Y-48604761D01*
X29279047Y-48652380D01*
X28993333Y-48652380D01*
X28898095Y-48604761D01*
X28850476Y-48557142D01*
G04 #@! TO.C,R9*
X36663333Y-27122380D02*
X36330000Y-26646190D01*
X36091904Y-27122380D02*
X36091904Y-26122380D01*
X36472857Y-26122380D01*
X36568095Y-26170000D01*
X36615714Y-26217619D01*
X36663333Y-26312857D01*
X36663333Y-26455714D01*
X36615714Y-26550952D01*
X36568095Y-26598571D01*
X36472857Y-26646190D01*
X36091904Y-26646190D01*
X37139523Y-27122380D02*
X37330000Y-27122380D01*
X37425238Y-27074761D01*
X37472857Y-27027142D01*
X37568095Y-26884285D01*
X37615714Y-26693809D01*
X37615714Y-26312857D01*
X37568095Y-26217619D01*
X37520476Y-26170000D01*
X37425238Y-26122380D01*
X37234761Y-26122380D01*
X37139523Y-26170000D01*
X37091904Y-26217619D01*
X37044285Y-26312857D01*
X37044285Y-26550952D01*
X37091904Y-26646190D01*
X37139523Y-26693809D01*
X37234761Y-26741428D01*
X37425238Y-26741428D01*
X37520476Y-26693809D01*
X37568095Y-26646190D01*
X37615714Y-26550952D01*
G04 #@! TO.C,Q6*
X28564761Y-28427619D02*
X28469523Y-28380000D01*
X28374285Y-28284761D01*
X28231428Y-28141904D01*
X28136190Y-28094285D01*
X28040952Y-28094285D01*
X28088571Y-28332380D02*
X27993333Y-28284761D01*
X27898095Y-28189523D01*
X27850476Y-27999047D01*
X27850476Y-27665714D01*
X27898095Y-27475238D01*
X27993333Y-27380000D01*
X28088571Y-27332380D01*
X28279047Y-27332380D01*
X28374285Y-27380000D01*
X28469523Y-27475238D01*
X28517142Y-27665714D01*
X28517142Y-27999047D01*
X28469523Y-28189523D01*
X28374285Y-28284761D01*
X28279047Y-28332380D01*
X28088571Y-28332380D01*
X29374285Y-27332380D02*
X29183809Y-27332380D01*
X29088571Y-27380000D01*
X29040952Y-27427619D01*
X28945714Y-27570476D01*
X28898095Y-27760952D01*
X28898095Y-28141904D01*
X28945714Y-28237142D01*
X28993333Y-28284761D01*
X29088571Y-28332380D01*
X29279047Y-28332380D01*
X29374285Y-28284761D01*
X29421904Y-28237142D01*
X29469523Y-28141904D01*
X29469523Y-27903809D01*
X29421904Y-27808571D01*
X29374285Y-27760952D01*
X29279047Y-27713333D01*
X29088571Y-27713333D01*
X28993333Y-27760952D01*
X28945714Y-27808571D01*
X28898095Y-27903809D01*
G04 #@! TO.C,D2*
X25352380Y-63738095D02*
X24352380Y-63738095D01*
X24352380Y-63500000D01*
X24400000Y-63357142D01*
X24495238Y-63261904D01*
X24590476Y-63214285D01*
X24780952Y-63166666D01*
X24923809Y-63166666D01*
X25114285Y-63214285D01*
X25209523Y-63261904D01*
X25304761Y-63357142D01*
X25352380Y-63500000D01*
X25352380Y-63738095D01*
X24447619Y-62785714D02*
X24400000Y-62738095D01*
X24352380Y-62642857D01*
X24352380Y-62404761D01*
X24400000Y-62309523D01*
X24447619Y-62261904D01*
X24542857Y-62214285D01*
X24638095Y-62214285D01*
X24780952Y-62261904D01*
X25352380Y-62833333D01*
X25352380Y-62214285D01*
G04 #@! TO.C,D3*
X28952380Y-63738095D02*
X27952380Y-63738095D01*
X27952380Y-63500000D01*
X28000000Y-63357142D01*
X28095238Y-63261904D01*
X28190476Y-63214285D01*
X28380952Y-63166666D01*
X28523809Y-63166666D01*
X28714285Y-63214285D01*
X28809523Y-63261904D01*
X28904761Y-63357142D01*
X28952380Y-63500000D01*
X28952380Y-63738095D01*
X27952380Y-62833333D02*
X27952380Y-62214285D01*
X28333333Y-62547619D01*
X28333333Y-62404761D01*
X28380952Y-62309523D01*
X28428571Y-62261904D01*
X28523809Y-62214285D01*
X28761904Y-62214285D01*
X28857142Y-62261904D01*
X28904761Y-62309523D01*
X28952380Y-62404761D01*
X28952380Y-62690476D01*
X28904761Y-62785714D01*
X28857142Y-62833333D01*
G04 #@! TO.C,D4*
X32552380Y-63738095D02*
X31552380Y-63738095D01*
X31552380Y-63500000D01*
X31600000Y-63357142D01*
X31695238Y-63261904D01*
X31790476Y-63214285D01*
X31980952Y-63166666D01*
X32123809Y-63166666D01*
X32314285Y-63214285D01*
X32409523Y-63261904D01*
X32504761Y-63357142D01*
X32552380Y-63500000D01*
X32552380Y-63738095D01*
X31885714Y-62309523D02*
X32552380Y-62309523D01*
X31504761Y-62547619D02*
X32219047Y-62785714D01*
X32219047Y-62166666D01*
G04 #@! TO.C,D5*
X36152380Y-63738095D02*
X35152380Y-63738095D01*
X35152380Y-63500000D01*
X35200000Y-63357142D01*
X35295238Y-63261904D01*
X35390476Y-63214285D01*
X35580952Y-63166666D01*
X35723809Y-63166666D01*
X35914285Y-63214285D01*
X36009523Y-63261904D01*
X36104761Y-63357142D01*
X36152380Y-63500000D01*
X36152380Y-63738095D01*
X35152380Y-62261904D02*
X35152380Y-62738095D01*
X35628571Y-62785714D01*
X35580952Y-62738095D01*
X35533333Y-62642857D01*
X35533333Y-62404761D01*
X35580952Y-62309523D01*
X35628571Y-62261904D01*
X35723809Y-62214285D01*
X35961904Y-62214285D01*
X36057142Y-62261904D01*
X36104761Y-62309523D01*
X36152380Y-62404761D01*
X36152380Y-62642857D01*
X36104761Y-62738095D01*
X36057142Y-62785714D01*
G04 #@! TO.C,D1*
X21752380Y-63738095D02*
X20752380Y-63738095D01*
X20752380Y-63500000D01*
X20800000Y-63357142D01*
X20895238Y-63261904D01*
X20990476Y-63214285D01*
X21180952Y-63166666D01*
X21323809Y-63166666D01*
X21514285Y-63214285D01*
X21609523Y-63261904D01*
X21704761Y-63357142D01*
X21752380Y-63500000D01*
X21752380Y-63738095D01*
X21752380Y-62214285D02*
X21752380Y-62785714D01*
X21752380Y-62500000D02*
X20752380Y-62500000D01*
X20895238Y-62595238D01*
X20990476Y-62690476D01*
X21038095Y-62785714D01*
G04 #@! TO.C,R6*
X36663333Y-61412380D02*
X36330000Y-60936190D01*
X36091904Y-61412380D02*
X36091904Y-60412380D01*
X36472857Y-60412380D01*
X36568095Y-60460000D01*
X36615714Y-60507619D01*
X36663333Y-60602857D01*
X36663333Y-60745714D01*
X36615714Y-60840952D01*
X36568095Y-60888571D01*
X36472857Y-60936190D01*
X36091904Y-60936190D01*
X37520476Y-60412380D02*
X37330000Y-60412380D01*
X37234761Y-60460000D01*
X37187142Y-60507619D01*
X37091904Y-60650476D01*
X37044285Y-60840952D01*
X37044285Y-61221904D01*
X37091904Y-61317142D01*
X37139523Y-61364761D01*
X37234761Y-61412380D01*
X37425238Y-61412380D01*
X37520476Y-61364761D01*
X37568095Y-61317142D01*
X37615714Y-61221904D01*
X37615714Y-60983809D01*
X37568095Y-60888571D01*
X37520476Y-60840952D01*
X37425238Y-60793333D01*
X37234761Y-60793333D01*
X37139523Y-60840952D01*
X37091904Y-60888571D01*
X37044285Y-60983809D01*
G04 #@! TO.C,R7*
X20153333Y-28412380D02*
X19820000Y-27936190D01*
X19581904Y-28412380D02*
X19581904Y-27412380D01*
X19962857Y-27412380D01*
X20058095Y-27460000D01*
X20105714Y-27507619D01*
X20153333Y-27602857D01*
X20153333Y-27745714D01*
X20105714Y-27840952D01*
X20058095Y-27888571D01*
X19962857Y-27936190D01*
X19581904Y-27936190D01*
X20486666Y-27412380D02*
X21153333Y-27412380D01*
X20724761Y-28412380D01*
G04 #@! TO.C,R8*
X20153333Y-24582380D02*
X19820000Y-24106190D01*
X19581904Y-24582380D02*
X19581904Y-23582380D01*
X19962857Y-23582380D01*
X20058095Y-23630000D01*
X20105714Y-23677619D01*
X20153333Y-23772857D01*
X20153333Y-23915714D01*
X20105714Y-24010952D01*
X20058095Y-24058571D01*
X19962857Y-24106190D01*
X19581904Y-24106190D01*
X20724761Y-24010952D02*
X20629523Y-23963333D01*
X20581904Y-23915714D01*
X20534285Y-23820476D01*
X20534285Y-23772857D01*
X20581904Y-23677619D01*
X20629523Y-23630000D01*
X20724761Y-23582380D01*
X20915238Y-23582380D01*
X21010476Y-23630000D01*
X21058095Y-23677619D01*
X21105714Y-23772857D01*
X21105714Y-23820476D01*
X21058095Y-23915714D01*
X21010476Y-23963333D01*
X20915238Y-24010952D01*
X20724761Y-24010952D01*
X20629523Y-24058571D01*
X20581904Y-24106190D01*
X20534285Y-24201428D01*
X20534285Y-24391904D01*
X20581904Y-24487142D01*
X20629523Y-24534761D01*
X20724761Y-24582380D01*
X20915238Y-24582380D01*
X21010476Y-24534761D01*
X21058095Y-24487142D01*
X21105714Y-24391904D01*
X21105714Y-24201428D01*
X21058095Y-24106190D01*
X21010476Y-24058571D01*
X20915238Y-24010952D01*
G04 #@! TO.C,U1*
X14478095Y-61682380D02*
X14478095Y-62491904D01*
X14525714Y-62587142D01*
X14573333Y-62634761D01*
X14668571Y-62682380D01*
X14859047Y-62682380D01*
X14954285Y-62634761D01*
X15001904Y-62587142D01*
X15049523Y-62491904D01*
X15049523Y-61682380D01*
X16049523Y-62682380D02*
X15478095Y-62682380D01*
X15763809Y-62682380D02*
X15763809Y-61682380D01*
X15668571Y-61825238D01*
X15573333Y-61920476D01*
X15478095Y-61968095D01*
X39191904Y-23732380D02*
X39191904Y-22732380D01*
X39430000Y-22732380D01*
X39572857Y-22780000D01*
X39668095Y-22875238D01*
X39715714Y-22970476D01*
X39763333Y-23160952D01*
X39763333Y-23303809D01*
X39715714Y-23494285D01*
X39668095Y-23589523D01*
X39572857Y-23684761D01*
X39430000Y-23732380D01*
X39191904Y-23732380D01*
X40382380Y-22732380D02*
X40477619Y-22732380D01*
X40572857Y-22780000D01*
X40620476Y-22827619D01*
X40668095Y-22922857D01*
X40715714Y-23113333D01*
X40715714Y-23351428D01*
X40668095Y-23541904D01*
X40620476Y-23637142D01*
X40572857Y-23684761D01*
X40477619Y-23732380D01*
X40382380Y-23732380D01*
X40287142Y-23684761D01*
X40239523Y-23637142D01*
X40191904Y-23541904D01*
X40144285Y-23351428D01*
X40144285Y-23113333D01*
X40191904Y-22922857D01*
X40239523Y-22827619D01*
X40287142Y-22780000D01*
X40382380Y-22732380D01*
X39191904Y-26272380D02*
X39191904Y-25272380D01*
X39430000Y-25272380D01*
X39572857Y-25320000D01*
X39668095Y-25415238D01*
X39715714Y-25510476D01*
X39763333Y-25700952D01*
X39763333Y-25843809D01*
X39715714Y-26034285D01*
X39668095Y-26129523D01*
X39572857Y-26224761D01*
X39430000Y-26272380D01*
X39191904Y-26272380D01*
X40715714Y-26272380D02*
X40144285Y-26272380D01*
X40430000Y-26272380D02*
X40430000Y-25272380D01*
X40334761Y-25415238D01*
X40239523Y-25510476D01*
X40144285Y-25558095D01*
X39191904Y-28812380D02*
X39191904Y-27812380D01*
X39430000Y-27812380D01*
X39572857Y-27860000D01*
X39668095Y-27955238D01*
X39715714Y-28050476D01*
X39763333Y-28240952D01*
X39763333Y-28383809D01*
X39715714Y-28574285D01*
X39668095Y-28669523D01*
X39572857Y-28764761D01*
X39430000Y-28812380D01*
X39191904Y-28812380D01*
X40144285Y-27907619D02*
X40191904Y-27860000D01*
X40287142Y-27812380D01*
X40525238Y-27812380D01*
X40620476Y-27860000D01*
X40668095Y-27907619D01*
X40715714Y-28002857D01*
X40715714Y-28098095D01*
X40668095Y-28240952D01*
X40096666Y-28812380D01*
X40715714Y-28812380D01*
X39191904Y-31352380D02*
X39191904Y-30352380D01*
X39430000Y-30352380D01*
X39572857Y-30400000D01*
X39668095Y-30495238D01*
X39715714Y-30590476D01*
X39763333Y-30780952D01*
X39763333Y-30923809D01*
X39715714Y-31114285D01*
X39668095Y-31209523D01*
X39572857Y-31304761D01*
X39430000Y-31352380D01*
X39191904Y-31352380D01*
X40096666Y-30352380D02*
X40715714Y-30352380D01*
X40382380Y-30733333D01*
X40525238Y-30733333D01*
X40620476Y-30780952D01*
X40668095Y-30828571D01*
X40715714Y-30923809D01*
X40715714Y-31161904D01*
X40668095Y-31257142D01*
X40620476Y-31304761D01*
X40525238Y-31352380D01*
X40239523Y-31352380D01*
X40144285Y-31304761D01*
X40096666Y-31257142D01*
X39191904Y-33892380D02*
X39191904Y-32892380D01*
X39430000Y-32892380D01*
X39572857Y-32940000D01*
X39668095Y-33035238D01*
X39715714Y-33130476D01*
X39763333Y-33320952D01*
X39763333Y-33463809D01*
X39715714Y-33654285D01*
X39668095Y-33749523D01*
X39572857Y-33844761D01*
X39430000Y-33892380D01*
X39191904Y-33892380D01*
X40620476Y-33225714D02*
X40620476Y-33892380D01*
X40382380Y-32844761D02*
X40144285Y-33559047D01*
X40763333Y-33559047D01*
X39168095Y-35432380D02*
X39787142Y-35432380D01*
X39453809Y-35813333D01*
X39596666Y-35813333D01*
X39691904Y-35860952D01*
X39739523Y-35908571D01*
X39787142Y-36003809D01*
X39787142Y-36241904D01*
X39739523Y-36337142D01*
X39691904Y-36384761D01*
X39596666Y-36432380D01*
X39310952Y-36432380D01*
X39215714Y-36384761D01*
X39168095Y-36337142D01*
X40072857Y-35432380D02*
X40406190Y-36432380D01*
X40739523Y-35432380D01*
X40191904Y-38020000D02*
X40096666Y-37972380D01*
X39953809Y-37972380D01*
X39810952Y-38020000D01*
X39715714Y-38115238D01*
X39668095Y-38210476D01*
X39620476Y-38400952D01*
X39620476Y-38543809D01*
X39668095Y-38734285D01*
X39715714Y-38829523D01*
X39810952Y-38924761D01*
X39953809Y-38972380D01*
X40049047Y-38972380D01*
X40191904Y-38924761D01*
X40239523Y-38877142D01*
X40239523Y-38543809D01*
X40049047Y-38543809D01*
X39191904Y-41512380D02*
X39191904Y-40512380D01*
X39430000Y-40512380D01*
X39572857Y-40560000D01*
X39668095Y-40655238D01*
X39715714Y-40750476D01*
X39763333Y-40940952D01*
X39763333Y-41083809D01*
X39715714Y-41274285D01*
X39668095Y-41369523D01*
X39572857Y-41464761D01*
X39430000Y-41512380D01*
X39191904Y-41512380D01*
X40668095Y-40512380D02*
X40191904Y-40512380D01*
X40144285Y-40988571D01*
X40191904Y-40940952D01*
X40287142Y-40893333D01*
X40525238Y-40893333D01*
X40620476Y-40940952D01*
X40668095Y-40988571D01*
X40715714Y-41083809D01*
X40715714Y-41321904D01*
X40668095Y-41417142D01*
X40620476Y-41464761D01*
X40525238Y-41512380D01*
X40287142Y-41512380D01*
X40191904Y-41464761D01*
X40144285Y-41417142D01*
X39191904Y-44052380D02*
X39191904Y-43052380D01*
X39430000Y-43052380D01*
X39572857Y-43100000D01*
X39668095Y-43195238D01*
X39715714Y-43290476D01*
X39763333Y-43480952D01*
X39763333Y-43623809D01*
X39715714Y-43814285D01*
X39668095Y-43909523D01*
X39572857Y-44004761D01*
X39430000Y-44052380D01*
X39191904Y-44052380D01*
X40620476Y-43052380D02*
X40430000Y-43052380D01*
X40334761Y-43100000D01*
X40287142Y-43147619D01*
X40191904Y-43290476D01*
X40144285Y-43480952D01*
X40144285Y-43861904D01*
X40191904Y-43957142D01*
X40239523Y-44004761D01*
X40334761Y-44052380D01*
X40525238Y-44052380D01*
X40620476Y-44004761D01*
X40668095Y-43957142D01*
X40715714Y-43861904D01*
X40715714Y-43623809D01*
X40668095Y-43528571D01*
X40620476Y-43480952D01*
X40525238Y-43433333D01*
X40334761Y-43433333D01*
X40239523Y-43480952D01*
X40191904Y-43528571D01*
X40144285Y-43623809D01*
X39191904Y-46592380D02*
X39191904Y-45592380D01*
X39430000Y-45592380D01*
X39572857Y-45640000D01*
X39668095Y-45735238D01*
X39715714Y-45830476D01*
X39763333Y-46020952D01*
X39763333Y-46163809D01*
X39715714Y-46354285D01*
X39668095Y-46449523D01*
X39572857Y-46544761D01*
X39430000Y-46592380D01*
X39191904Y-46592380D01*
X40096666Y-45592380D02*
X40763333Y-45592380D01*
X40334761Y-46592380D01*
X39191904Y-49132380D02*
X39191904Y-48132380D01*
X39430000Y-48132380D01*
X39572857Y-48180000D01*
X39668095Y-48275238D01*
X39715714Y-48370476D01*
X39763333Y-48560952D01*
X39763333Y-48703809D01*
X39715714Y-48894285D01*
X39668095Y-48989523D01*
X39572857Y-49084761D01*
X39430000Y-49132380D01*
X39191904Y-49132380D01*
X40334761Y-48560952D02*
X40239523Y-48513333D01*
X40191904Y-48465714D01*
X40144285Y-48370476D01*
X40144285Y-48322857D01*
X40191904Y-48227619D01*
X40239523Y-48180000D01*
X40334761Y-48132380D01*
X40525238Y-48132380D01*
X40620476Y-48180000D01*
X40668095Y-48227619D01*
X40715714Y-48322857D01*
X40715714Y-48370476D01*
X40668095Y-48465714D01*
X40620476Y-48513333D01*
X40525238Y-48560952D01*
X40334761Y-48560952D01*
X40239523Y-48608571D01*
X40191904Y-48656190D01*
X40144285Y-48751428D01*
X40144285Y-48941904D01*
X40191904Y-49037142D01*
X40239523Y-49084761D01*
X40334761Y-49132380D01*
X40525238Y-49132380D01*
X40620476Y-49084761D01*
X40668095Y-49037142D01*
X40715714Y-48941904D01*
X40715714Y-48751428D01*
X40668095Y-48656190D01*
X40620476Y-48608571D01*
X40525238Y-48560952D01*
X39763333Y-51672380D02*
X39430000Y-51196190D01*
X39191904Y-51672380D02*
X39191904Y-50672380D01*
X39572857Y-50672380D01*
X39668095Y-50720000D01*
X39715714Y-50767619D01*
X39763333Y-50862857D01*
X39763333Y-51005714D01*
X39715714Y-51100952D01*
X39668095Y-51148571D01*
X39572857Y-51196190D01*
X39191904Y-51196190D01*
X40096666Y-50672380D02*
X40763333Y-51672380D01*
X40763333Y-50672380D02*
X40096666Y-51672380D01*
X39168095Y-53212380D02*
X39739523Y-53212380D01*
X39453809Y-54212380D02*
X39453809Y-53212380D01*
X39977619Y-53212380D02*
X40644285Y-54212380D01*
X40644285Y-53212380D02*
X39977619Y-54212380D01*
X40191904Y-55800000D02*
X40096666Y-55752380D01*
X39953809Y-55752380D01*
X39810952Y-55800000D01*
X39715714Y-55895238D01*
X39668095Y-55990476D01*
X39620476Y-56180952D01*
X39620476Y-56323809D01*
X39668095Y-56514285D01*
X39715714Y-56609523D01*
X39810952Y-56704761D01*
X39953809Y-56752380D01*
X40049047Y-56752380D01*
X40191904Y-56704761D01*
X40239523Y-56657142D01*
X40239523Y-56323809D01*
X40049047Y-56323809D01*
X39168095Y-58292380D02*
X39787142Y-58292380D01*
X39453809Y-58673333D01*
X39596666Y-58673333D01*
X39691904Y-58720952D01*
X39739523Y-58768571D01*
X39787142Y-58863809D01*
X39787142Y-59101904D01*
X39739523Y-59197142D01*
X39691904Y-59244761D01*
X39596666Y-59292380D01*
X39310952Y-59292380D01*
X39215714Y-59244761D01*
X39168095Y-59197142D01*
X40072857Y-58292380D02*
X40406190Y-59292380D01*
X40739523Y-58292380D01*
X16355714Y-23446666D02*
X16831904Y-23446666D01*
X16260476Y-23732380D02*
X16593809Y-22732380D01*
X16927142Y-23732380D01*
X17450952Y-22732380D02*
X17546190Y-22732380D01*
X17641428Y-22780000D01*
X17689047Y-22827619D01*
X17736666Y-22922857D01*
X17784285Y-23113333D01*
X17784285Y-23351428D01*
X17736666Y-23541904D01*
X17689047Y-23637142D01*
X17641428Y-23684761D01*
X17546190Y-23732380D01*
X17450952Y-23732380D01*
X17355714Y-23684761D01*
X17308095Y-23637142D01*
X17260476Y-23541904D01*
X17212857Y-23351428D01*
X17212857Y-23113333D01*
X17260476Y-22922857D01*
X17308095Y-22827619D01*
X17355714Y-22780000D01*
X17450952Y-22732380D01*
X17331904Y-25320000D02*
X17236666Y-25272380D01*
X17093809Y-25272380D01*
X16950952Y-25320000D01*
X16855714Y-25415238D01*
X16808095Y-25510476D01*
X16760476Y-25700952D01*
X16760476Y-25843809D01*
X16808095Y-26034285D01*
X16855714Y-26129523D01*
X16950952Y-26224761D01*
X17093809Y-26272380D01*
X17189047Y-26272380D01*
X17331904Y-26224761D01*
X17379523Y-26177142D01*
X17379523Y-25843809D01*
X17189047Y-25843809D01*
X16212857Y-27812380D02*
X16546190Y-28812380D01*
X16879523Y-27812380D01*
X17212857Y-27812380D02*
X17212857Y-28621904D01*
X17260476Y-28717142D01*
X17308095Y-28764761D01*
X17403333Y-28812380D01*
X17593809Y-28812380D01*
X17689047Y-28764761D01*
X17736666Y-28717142D01*
X17784285Y-28621904D01*
X17784285Y-27812380D01*
X16308095Y-31304761D02*
X16450952Y-31352380D01*
X16689047Y-31352380D01*
X16784285Y-31304761D01*
X16831904Y-31257142D01*
X16879523Y-31161904D01*
X16879523Y-31066666D01*
X16831904Y-30971428D01*
X16784285Y-30923809D01*
X16689047Y-30876190D01*
X16498571Y-30828571D01*
X16403333Y-30780952D01*
X16355714Y-30733333D01*
X16308095Y-30638095D01*
X16308095Y-30542857D01*
X16355714Y-30447619D01*
X16403333Y-30400000D01*
X16498571Y-30352380D01*
X16736666Y-30352380D01*
X16879523Y-30400000D01*
X17212857Y-30352380D02*
X17831904Y-30352380D01*
X17498571Y-30733333D01*
X17641428Y-30733333D01*
X17736666Y-30780952D01*
X17784285Y-30828571D01*
X17831904Y-30923809D01*
X17831904Y-31161904D01*
X17784285Y-31257142D01*
X17736666Y-31304761D01*
X17641428Y-31352380D01*
X17355714Y-31352380D01*
X17260476Y-31304761D01*
X17212857Y-31257142D01*
X16308095Y-33844761D02*
X16450952Y-33892380D01*
X16689047Y-33892380D01*
X16784285Y-33844761D01*
X16831904Y-33797142D01*
X16879523Y-33701904D01*
X16879523Y-33606666D01*
X16831904Y-33511428D01*
X16784285Y-33463809D01*
X16689047Y-33416190D01*
X16498571Y-33368571D01*
X16403333Y-33320952D01*
X16355714Y-33273333D01*
X16308095Y-33178095D01*
X16308095Y-33082857D01*
X16355714Y-32987619D01*
X16403333Y-32940000D01*
X16498571Y-32892380D01*
X16736666Y-32892380D01*
X16879523Y-32940000D01*
X17260476Y-32987619D02*
X17308095Y-32940000D01*
X17403333Y-32892380D01*
X17641428Y-32892380D01*
X17736666Y-32940000D01*
X17784285Y-32987619D01*
X17831904Y-33082857D01*
X17831904Y-33178095D01*
X17784285Y-33320952D01*
X17212857Y-33892380D01*
X17831904Y-33892380D01*
X16308095Y-36384761D02*
X16450952Y-36432380D01*
X16689047Y-36432380D01*
X16784285Y-36384761D01*
X16831904Y-36337142D01*
X16879523Y-36241904D01*
X16879523Y-36146666D01*
X16831904Y-36051428D01*
X16784285Y-36003809D01*
X16689047Y-35956190D01*
X16498571Y-35908571D01*
X16403333Y-35860952D01*
X16355714Y-35813333D01*
X16308095Y-35718095D01*
X16308095Y-35622857D01*
X16355714Y-35527619D01*
X16403333Y-35480000D01*
X16498571Y-35432380D01*
X16736666Y-35432380D01*
X16879523Y-35480000D01*
X17831904Y-36432380D02*
X17260476Y-36432380D01*
X17546190Y-36432380D02*
X17546190Y-35432380D01*
X17450952Y-35575238D01*
X17355714Y-35670476D01*
X17260476Y-35718095D01*
X16284285Y-38924761D02*
X16427142Y-38972380D01*
X16665238Y-38972380D01*
X16760476Y-38924761D01*
X16808095Y-38877142D01*
X16855714Y-38781904D01*
X16855714Y-38686666D01*
X16808095Y-38591428D01*
X16760476Y-38543809D01*
X16665238Y-38496190D01*
X16474761Y-38448571D01*
X16379523Y-38400952D01*
X16331904Y-38353333D01*
X16284285Y-38258095D01*
X16284285Y-38162857D01*
X16331904Y-38067619D01*
X16379523Y-38020000D01*
X16474761Y-37972380D01*
X16712857Y-37972380D01*
X16855714Y-38020000D01*
X17855714Y-38877142D02*
X17808095Y-38924761D01*
X17665238Y-38972380D01*
X17570000Y-38972380D01*
X17427142Y-38924761D01*
X17331904Y-38829523D01*
X17284285Y-38734285D01*
X17236666Y-38543809D01*
X17236666Y-38400952D01*
X17284285Y-38210476D01*
X17331904Y-38115238D01*
X17427142Y-38020000D01*
X17570000Y-37972380D01*
X17665238Y-37972380D01*
X17808095Y-38020000D01*
X17855714Y-38067619D01*
X16260476Y-41464761D02*
X16403333Y-41512380D01*
X16641428Y-41512380D01*
X16736666Y-41464761D01*
X16784285Y-41417142D01*
X16831904Y-41321904D01*
X16831904Y-41226666D01*
X16784285Y-41131428D01*
X16736666Y-41083809D01*
X16641428Y-41036190D01*
X16450952Y-40988571D01*
X16355714Y-40940952D01*
X16308095Y-40893333D01*
X16260476Y-40798095D01*
X16260476Y-40702857D01*
X16308095Y-40607619D01*
X16355714Y-40560000D01*
X16450952Y-40512380D01*
X16689047Y-40512380D01*
X16831904Y-40560000D01*
X17450952Y-40512380D02*
X17641428Y-40512380D01*
X17736666Y-40560000D01*
X17831904Y-40655238D01*
X17879523Y-40845714D01*
X17879523Y-41179047D01*
X17831904Y-41369523D01*
X17736666Y-41464761D01*
X17641428Y-41512380D01*
X17450952Y-41512380D01*
X17355714Y-41464761D01*
X17260476Y-41369523D01*
X17212857Y-41179047D01*
X17212857Y-40845714D01*
X17260476Y-40655238D01*
X17355714Y-40560000D01*
X17450952Y-40512380D01*
X16284285Y-44004761D02*
X16427142Y-44052380D01*
X16665238Y-44052380D01*
X16760476Y-44004761D01*
X16808095Y-43957142D01*
X16855714Y-43861904D01*
X16855714Y-43766666D01*
X16808095Y-43671428D01*
X16760476Y-43623809D01*
X16665238Y-43576190D01*
X16474761Y-43528571D01*
X16379523Y-43480952D01*
X16331904Y-43433333D01*
X16284285Y-43338095D01*
X16284285Y-43242857D01*
X16331904Y-43147619D01*
X16379523Y-43100000D01*
X16474761Y-43052380D01*
X16712857Y-43052380D01*
X16855714Y-43100000D01*
X17284285Y-44052380D02*
X17284285Y-43052380D01*
X17855714Y-44052380D02*
X17427142Y-43480952D01*
X17855714Y-43052380D02*
X17284285Y-43623809D01*
X17331904Y-45640000D02*
X17236666Y-45592380D01*
X17093809Y-45592380D01*
X16950952Y-45640000D01*
X16855714Y-45735238D01*
X16808095Y-45830476D01*
X16760476Y-46020952D01*
X16760476Y-46163809D01*
X16808095Y-46354285D01*
X16855714Y-46449523D01*
X16950952Y-46544761D01*
X17093809Y-46592380D01*
X17189047Y-46592380D01*
X17331904Y-46544761D01*
X17379523Y-46497142D01*
X17379523Y-46163809D01*
X17189047Y-46163809D01*
X16308095Y-48132380D02*
X16927142Y-48132380D01*
X16593809Y-48513333D01*
X16736666Y-48513333D01*
X16831904Y-48560952D01*
X16879523Y-48608571D01*
X16927142Y-48703809D01*
X16927142Y-48941904D01*
X16879523Y-49037142D01*
X16831904Y-49084761D01*
X16736666Y-49132380D01*
X16450952Y-49132380D01*
X16355714Y-49084761D01*
X16308095Y-49037142D01*
X17212857Y-48132380D02*
X17546190Y-49132380D01*
X17879523Y-48132380D01*
X16331904Y-51148571D02*
X16665238Y-51148571D01*
X16808095Y-51672380D02*
X16331904Y-51672380D01*
X16331904Y-50672380D01*
X16808095Y-50672380D01*
X17236666Y-51672380D02*
X17236666Y-50672380D01*
X17808095Y-51672380D01*
X17808095Y-50672380D01*
X16522380Y-54212380D02*
X16189047Y-53736190D01*
X15950952Y-54212380D02*
X15950952Y-53212380D01*
X16331904Y-53212380D01*
X16427142Y-53260000D01*
X16474761Y-53307619D01*
X16522380Y-53402857D01*
X16522380Y-53545714D01*
X16474761Y-53640952D01*
X16427142Y-53688571D01*
X16331904Y-53736190D01*
X15950952Y-53736190D01*
X16903333Y-54164761D02*
X17046190Y-54212380D01*
X17284285Y-54212380D01*
X17379523Y-54164761D01*
X17427142Y-54117142D01*
X17474761Y-54021904D01*
X17474761Y-53926666D01*
X17427142Y-53831428D01*
X17379523Y-53783809D01*
X17284285Y-53736190D01*
X17093809Y-53688571D01*
X16998571Y-53640952D01*
X16950952Y-53593333D01*
X16903333Y-53498095D01*
X16903333Y-53402857D01*
X16950952Y-53307619D01*
X16998571Y-53260000D01*
X17093809Y-53212380D01*
X17331904Y-53212380D01*
X17474761Y-53260000D01*
X17760476Y-53212380D02*
X18331904Y-53212380D01*
X18046190Y-54212380D02*
X18046190Y-53212380D01*
X17331904Y-55800000D02*
X17236666Y-55752380D01*
X17093809Y-55752380D01*
X16950952Y-55800000D01*
X16855714Y-55895238D01*
X16808095Y-55990476D01*
X16760476Y-56180952D01*
X16760476Y-56323809D01*
X16808095Y-56514285D01*
X16855714Y-56609523D01*
X16950952Y-56704761D01*
X17093809Y-56752380D01*
X17189047Y-56752380D01*
X17331904Y-56704761D01*
X17379523Y-56657142D01*
X17379523Y-56323809D01*
X17189047Y-56323809D01*
X15974761Y-58292380D02*
X16308095Y-59292380D01*
X16641428Y-58292380D01*
X16974761Y-59292380D02*
X16974761Y-58292380D01*
X17450952Y-59292380D02*
X17450952Y-58292380D01*
X18022380Y-59292380D01*
X18022380Y-58292380D01*
G04 #@! TO.C,J2*
X18716666Y-18502380D02*
X18716666Y-19216666D01*
X18669047Y-19359523D01*
X18573809Y-19454761D01*
X18430952Y-19502380D01*
X18335714Y-19502380D01*
X19145238Y-18597619D02*
X19192857Y-18550000D01*
X19288095Y-18502380D01*
X19526190Y-18502380D01*
X19621428Y-18550000D01*
X19669047Y-18597619D01*
X19716666Y-18692857D01*
X19716666Y-18788095D01*
X19669047Y-18930952D01*
X19097619Y-19502380D01*
X19716666Y-19502380D01*
G04 #@! TO.C,J1*
X30146666Y-18502380D02*
X30146666Y-19216666D01*
X30099047Y-19359523D01*
X30003809Y-19454761D01*
X29860952Y-19502380D01*
X29765714Y-19502380D01*
X31146666Y-19502380D02*
X30575238Y-19502380D01*
X30860952Y-19502380D02*
X30860952Y-18502380D01*
X30765714Y-18645238D01*
X30670476Y-18740476D01*
X30575238Y-18788095D01*
G04 #@! TO.C,Q1*
X28564761Y-36047619D02*
X28469523Y-36000000D01*
X28374285Y-35904761D01*
X28231428Y-35761904D01*
X28136190Y-35714285D01*
X28040952Y-35714285D01*
X28088571Y-35952380D02*
X27993333Y-35904761D01*
X27898095Y-35809523D01*
X27850476Y-35619047D01*
X27850476Y-35285714D01*
X27898095Y-35095238D01*
X27993333Y-35000000D01*
X28088571Y-34952380D01*
X28279047Y-34952380D01*
X28374285Y-35000000D01*
X28469523Y-35095238D01*
X28517142Y-35285714D01*
X28517142Y-35619047D01*
X28469523Y-35809523D01*
X28374285Y-35904761D01*
X28279047Y-35952380D01*
X28088571Y-35952380D01*
X29469523Y-35952380D02*
X28898095Y-35952380D01*
X29183809Y-35952380D02*
X29183809Y-34952380D01*
X29088571Y-35095238D01*
X28993333Y-35190476D01*
X28898095Y-35238095D01*
G04 #@! TO.C,Q2*
X28564761Y-42397619D02*
X28469523Y-42350000D01*
X28374285Y-42254761D01*
X28231428Y-42111904D01*
X28136190Y-42064285D01*
X28040952Y-42064285D01*
X28088571Y-42302380D02*
X27993333Y-42254761D01*
X27898095Y-42159523D01*
X27850476Y-41969047D01*
X27850476Y-41635714D01*
X27898095Y-41445238D01*
X27993333Y-41350000D01*
X28088571Y-41302380D01*
X28279047Y-41302380D01*
X28374285Y-41350000D01*
X28469523Y-41445238D01*
X28517142Y-41635714D01*
X28517142Y-41969047D01*
X28469523Y-42159523D01*
X28374285Y-42254761D01*
X28279047Y-42302380D01*
X28088571Y-42302380D01*
X28898095Y-41397619D02*
X28945714Y-41350000D01*
X29040952Y-41302380D01*
X29279047Y-41302380D01*
X29374285Y-41350000D01*
X29421904Y-41397619D01*
X29469523Y-41492857D01*
X29469523Y-41588095D01*
X29421904Y-41730952D01*
X28850476Y-42302380D01*
X29469523Y-42302380D01*
G04 #@! TO.C,Q4*
X28564761Y-55097619D02*
X28469523Y-55050000D01*
X28374285Y-54954761D01*
X28231428Y-54811904D01*
X28136190Y-54764285D01*
X28040952Y-54764285D01*
X28088571Y-55002380D02*
X27993333Y-54954761D01*
X27898095Y-54859523D01*
X27850476Y-54669047D01*
X27850476Y-54335714D01*
X27898095Y-54145238D01*
X27993333Y-54050000D01*
X28088571Y-54002380D01*
X28279047Y-54002380D01*
X28374285Y-54050000D01*
X28469523Y-54145238D01*
X28517142Y-54335714D01*
X28517142Y-54669047D01*
X28469523Y-54859523D01*
X28374285Y-54954761D01*
X28279047Y-55002380D01*
X28088571Y-55002380D01*
X29374285Y-54335714D02*
X29374285Y-55002380D01*
X29136190Y-53954761D02*
X28898095Y-54669047D01*
X29517142Y-54669047D01*
G04 #@! TO.C,Q5*
X28564761Y-61447619D02*
X28469523Y-61400000D01*
X28374285Y-61304761D01*
X28231428Y-61161904D01*
X28136190Y-61114285D01*
X28040952Y-61114285D01*
X28088571Y-61352380D02*
X27993333Y-61304761D01*
X27898095Y-61209523D01*
X27850476Y-61019047D01*
X27850476Y-60685714D01*
X27898095Y-60495238D01*
X27993333Y-60400000D01*
X28088571Y-60352380D01*
X28279047Y-60352380D01*
X28374285Y-60400000D01*
X28469523Y-60495238D01*
X28517142Y-60685714D01*
X28517142Y-61019047D01*
X28469523Y-61209523D01*
X28374285Y-61304761D01*
X28279047Y-61352380D01*
X28088571Y-61352380D01*
X29421904Y-60352380D02*
X28945714Y-60352380D01*
X28898095Y-60828571D01*
X28945714Y-60780952D01*
X29040952Y-60733333D01*
X29279047Y-60733333D01*
X29374285Y-60780952D01*
X29421904Y-60828571D01*
X29469523Y-60923809D01*
X29469523Y-61161904D01*
X29421904Y-61257142D01*
X29374285Y-61304761D01*
X29279047Y-61352380D01*
X29040952Y-61352380D01*
X28945714Y-61304761D01*
X28898095Y-61257142D01*
G04 #@! TO.C,R1*
X36663333Y-34742380D02*
X36330000Y-34266190D01*
X36091904Y-34742380D02*
X36091904Y-33742380D01*
X36472857Y-33742380D01*
X36568095Y-33790000D01*
X36615714Y-33837619D01*
X36663333Y-33932857D01*
X36663333Y-34075714D01*
X36615714Y-34170952D01*
X36568095Y-34218571D01*
X36472857Y-34266190D01*
X36091904Y-34266190D01*
X37615714Y-34742380D02*
X37044285Y-34742380D01*
X37330000Y-34742380D02*
X37330000Y-33742380D01*
X37234761Y-33885238D01*
X37139523Y-33980476D01*
X37044285Y-34028095D01*
G04 #@! TO.C,R3*
X36663333Y-47442380D02*
X36330000Y-46966190D01*
X36091904Y-47442380D02*
X36091904Y-46442380D01*
X36472857Y-46442380D01*
X36568095Y-46490000D01*
X36615714Y-46537619D01*
X36663333Y-46632857D01*
X36663333Y-46775714D01*
X36615714Y-46870952D01*
X36568095Y-46918571D01*
X36472857Y-46966190D01*
X36091904Y-46966190D01*
X36996666Y-46442380D02*
X37615714Y-46442380D01*
X37282380Y-46823333D01*
X37425238Y-46823333D01*
X37520476Y-46870952D01*
X37568095Y-46918571D01*
X37615714Y-47013809D01*
X37615714Y-47251904D01*
X37568095Y-47347142D01*
X37520476Y-47394761D01*
X37425238Y-47442380D01*
X37139523Y-47442380D01*
X37044285Y-47394761D01*
X36996666Y-47347142D01*
G04 #@! TO.C,R4*
X36663333Y-53792380D02*
X36330000Y-53316190D01*
X36091904Y-53792380D02*
X36091904Y-52792380D01*
X36472857Y-52792380D01*
X36568095Y-52840000D01*
X36615714Y-52887619D01*
X36663333Y-52982857D01*
X36663333Y-53125714D01*
X36615714Y-53220952D01*
X36568095Y-53268571D01*
X36472857Y-53316190D01*
X36091904Y-53316190D01*
X37520476Y-53125714D02*
X37520476Y-53792380D01*
X37282380Y-52744761D02*
X37044285Y-53459047D01*
X37663333Y-53459047D01*
G04 #@! TO.C,R5*
X36663333Y-57602380D02*
X36330000Y-57126190D01*
X36091904Y-57602380D02*
X36091904Y-56602380D01*
X36472857Y-56602380D01*
X36568095Y-56650000D01*
X36615714Y-56697619D01*
X36663333Y-56792857D01*
X36663333Y-56935714D01*
X36615714Y-57030952D01*
X36568095Y-57078571D01*
X36472857Y-57126190D01*
X36091904Y-57126190D01*
X37568095Y-56602380D02*
X37091904Y-56602380D01*
X37044285Y-57078571D01*
X37091904Y-57030952D01*
X37187142Y-56983333D01*
X37425238Y-56983333D01*
X37520476Y-57030952D01*
X37568095Y-57078571D01*
X37615714Y-57173809D01*
X37615714Y-57411904D01*
X37568095Y-57507142D01*
X37520476Y-57554761D01*
X37425238Y-57602380D01*
X37187142Y-57602380D01*
X37091904Y-57554761D01*
X37044285Y-57507142D01*
G04 #@! TO.C,RL1*
X19748571Y-33472380D02*
X19415238Y-32996190D01*
X19177142Y-33472380D02*
X19177142Y-32472380D01*
X19558095Y-32472380D01*
X19653333Y-32520000D01*
X19700952Y-32567619D01*
X19748571Y-32662857D01*
X19748571Y-32805714D01*
X19700952Y-32900952D01*
X19653333Y-32948571D01*
X19558095Y-32996190D01*
X19177142Y-32996190D01*
X20653333Y-33472380D02*
X20177142Y-33472380D01*
X20177142Y-32472380D01*
X21510476Y-33472380D02*
X20939047Y-33472380D01*
X21224761Y-33472380D02*
X21224761Y-32472380D01*
X21129523Y-32615238D01*
X21034285Y-32710476D01*
X20939047Y-32758095D01*
G04 #@! TO.C,RL2*
X19748571Y-39822380D02*
X19415238Y-39346190D01*
X19177142Y-39822380D02*
X19177142Y-38822380D01*
X19558095Y-38822380D01*
X19653333Y-38870000D01*
X19700952Y-38917619D01*
X19748571Y-39012857D01*
X19748571Y-39155714D01*
X19700952Y-39250952D01*
X19653333Y-39298571D01*
X19558095Y-39346190D01*
X19177142Y-39346190D01*
X20653333Y-39822380D02*
X20177142Y-39822380D01*
X20177142Y-38822380D01*
X20939047Y-38917619D02*
X20986666Y-38870000D01*
X21081904Y-38822380D01*
X21320000Y-38822380D01*
X21415238Y-38870000D01*
X21462857Y-38917619D01*
X21510476Y-39012857D01*
X21510476Y-39108095D01*
X21462857Y-39250952D01*
X20891428Y-39822380D01*
X21510476Y-39822380D01*
G04 #@! TO.C,RL3*
X19748571Y-46172380D02*
X19415238Y-45696190D01*
X19177142Y-46172380D02*
X19177142Y-45172380D01*
X19558095Y-45172380D01*
X19653333Y-45220000D01*
X19700952Y-45267619D01*
X19748571Y-45362857D01*
X19748571Y-45505714D01*
X19700952Y-45600952D01*
X19653333Y-45648571D01*
X19558095Y-45696190D01*
X19177142Y-45696190D01*
X20653333Y-46172380D02*
X20177142Y-46172380D01*
X20177142Y-45172380D01*
X20891428Y-45172380D02*
X21510476Y-45172380D01*
X21177142Y-45553333D01*
X21320000Y-45553333D01*
X21415238Y-45600952D01*
X21462857Y-45648571D01*
X21510476Y-45743809D01*
X21510476Y-45981904D01*
X21462857Y-46077142D01*
X21415238Y-46124761D01*
X21320000Y-46172380D01*
X21034285Y-46172380D01*
X20939047Y-46124761D01*
X20891428Y-46077142D01*
G04 #@! TO.C,RL4*
X23008571Y-55042380D02*
X22675238Y-54566190D01*
X22437142Y-55042380D02*
X22437142Y-54042380D01*
X22818095Y-54042380D01*
X22913333Y-54090000D01*
X22960952Y-54137619D01*
X23008571Y-54232857D01*
X23008571Y-54375714D01*
X22960952Y-54470952D01*
X22913333Y-54518571D01*
X22818095Y-54566190D01*
X22437142Y-54566190D01*
X23913333Y-55042380D02*
X23437142Y-55042380D01*
X23437142Y-54042380D01*
X24675238Y-54375714D02*
X24675238Y-55042380D01*
X24437142Y-53994761D02*
X24199047Y-54709047D01*
X24818095Y-54709047D01*
G04 #@! TO.C,R2*
X36663333Y-41092380D02*
X36330000Y-40616190D01*
X36091904Y-41092380D02*
X36091904Y-40092380D01*
X36472857Y-40092380D01*
X36568095Y-40140000D01*
X36615714Y-40187619D01*
X36663333Y-40282857D01*
X36663333Y-40425714D01*
X36615714Y-40520952D01*
X36568095Y-40568571D01*
X36472857Y-40616190D01*
X36091904Y-40616190D01*
X37044285Y-40187619D02*
X37091904Y-40140000D01*
X37187142Y-40092380D01*
X37425238Y-40092380D01*
X37520476Y-40140000D01*
X37568095Y-40187619D01*
X37615714Y-40282857D01*
X37615714Y-40378095D01*
X37568095Y-40520952D01*
X36996666Y-41092380D01*
X37615714Y-41092380D01*
G04 #@! TO.C,*
G04 #@! TD*
M02*
