G04 #@! TF.GenerationSoftware,KiCad,Pcbnew,(5.0.2)-1*
G04 #@! TF.CreationDate,2019-06-20T09:18:01+05:30*
G04 #@! TF.ProjectId,CapacityOfBattery,43617061-6369-4747-994f-664261747465,rev?*
G04 #@! TF.SameCoordinates,Original*
G04 #@! TF.FileFunction,Copper,L1,Top*
G04 #@! TF.FilePolarity,Positive*
%FSLAX46Y46*%
G04 Gerber Fmt 4.6, Leading zero omitted, Abs format (unit mm)*
G04 Created by KiCad (PCBNEW (5.0.2)-1) date 06/20/19 09:18:01*
%MOMM*%
%LPD*%
G01*
G04 APERTURE LIST*
G04 #@! TA.AperFunction,SMDPad,CuDef*
%ADD10R,0.900000X0.800000*%
G04 #@! TD*
G04 #@! TA.AperFunction,Conductor*
%ADD11C,0.100000*%
G04 #@! TD*
G04 #@! TA.AperFunction,SMDPad,CuDef*
%ADD12C,1.150000*%
G04 #@! TD*
G04 #@! TA.AperFunction,ComponentPad*
%ADD13C,1.524000*%
G04 #@! TD*
G04 #@! TA.AperFunction,ComponentPad*
%ADD14O,1.700000X1.700000*%
G04 #@! TD*
G04 #@! TA.AperFunction,ComponentPad*
%ADD15R,1.700000X1.700000*%
G04 #@! TD*
G04 #@! TA.AperFunction,ViaPad*
%ADD16C,0.800000*%
G04 #@! TD*
G04 #@! TA.AperFunction,Conductor*
%ADD17C,0.500000*%
G04 #@! TD*
G04 #@! TA.AperFunction,Conductor*
%ADD18C,0.254000*%
G04 #@! TD*
G04 APERTURE END LIST*
D10*
G04 #@! TO.P,Q3,1*
G04 #@! TO.N,/Ctrl3*
X29660000Y-46650000D03*
G04 #@! TO.P,Q3,2*
G04 #@! TO.N,/Vbat*
X29660000Y-44750000D03*
G04 #@! TO.P,Q3,3*
G04 #@! TO.N,Net-(Q3-Pad3)*
X27660000Y-45700000D03*
G04 #@! TD*
D11*
G04 #@! TO.N,GND*
G04 #@! TO.C,R9*
G36*
X35114505Y-25951204D02*
X35138773Y-25954804D01*
X35162572Y-25960765D01*
X35185671Y-25969030D01*
X35207850Y-25979520D01*
X35228893Y-25992132D01*
X35248599Y-26006747D01*
X35266777Y-26023223D01*
X35283253Y-26041401D01*
X35297868Y-26061107D01*
X35310480Y-26082150D01*
X35320970Y-26104329D01*
X35329235Y-26127428D01*
X35335196Y-26151227D01*
X35338796Y-26175495D01*
X35340000Y-26199999D01*
X35340000Y-27100001D01*
X35338796Y-27124505D01*
X35335196Y-27148773D01*
X35329235Y-27172572D01*
X35320970Y-27195671D01*
X35310480Y-27217850D01*
X35297868Y-27238893D01*
X35283253Y-27258599D01*
X35266777Y-27276777D01*
X35248599Y-27293253D01*
X35228893Y-27307868D01*
X35207850Y-27320480D01*
X35185671Y-27330970D01*
X35162572Y-27339235D01*
X35138773Y-27345196D01*
X35114505Y-27348796D01*
X35090001Y-27350000D01*
X34439999Y-27350000D01*
X34415495Y-27348796D01*
X34391227Y-27345196D01*
X34367428Y-27339235D01*
X34344329Y-27330970D01*
X34322150Y-27320480D01*
X34301107Y-27307868D01*
X34281401Y-27293253D01*
X34263223Y-27276777D01*
X34246747Y-27258599D01*
X34232132Y-27238893D01*
X34219520Y-27217850D01*
X34209030Y-27195671D01*
X34200765Y-27172572D01*
X34194804Y-27148773D01*
X34191204Y-27124505D01*
X34190000Y-27100001D01*
X34190000Y-26199999D01*
X34191204Y-26175495D01*
X34194804Y-26151227D01*
X34200765Y-26127428D01*
X34209030Y-26104329D01*
X34219520Y-26082150D01*
X34232132Y-26061107D01*
X34246747Y-26041401D01*
X34263223Y-26023223D01*
X34281401Y-26006747D01*
X34301107Y-25992132D01*
X34322150Y-25979520D01*
X34344329Y-25969030D01*
X34367428Y-25960765D01*
X34391227Y-25954804D01*
X34415495Y-25951204D01*
X34439999Y-25950000D01*
X35090001Y-25950000D01*
X35114505Y-25951204D01*
X35114505Y-25951204D01*
G37*
D12*
G04 #@! TD*
G04 #@! TO.P,R9,1*
G04 #@! TO.N,GND*
X34765000Y-26650000D03*
D11*
G04 #@! TO.N,/En_VoltageDivider*
G04 #@! TO.C,R9*
G36*
X33064505Y-25951204D02*
X33088773Y-25954804D01*
X33112572Y-25960765D01*
X33135671Y-25969030D01*
X33157850Y-25979520D01*
X33178893Y-25992132D01*
X33198599Y-26006747D01*
X33216777Y-26023223D01*
X33233253Y-26041401D01*
X33247868Y-26061107D01*
X33260480Y-26082150D01*
X33270970Y-26104329D01*
X33279235Y-26127428D01*
X33285196Y-26151227D01*
X33288796Y-26175495D01*
X33290000Y-26199999D01*
X33290000Y-27100001D01*
X33288796Y-27124505D01*
X33285196Y-27148773D01*
X33279235Y-27172572D01*
X33270970Y-27195671D01*
X33260480Y-27217850D01*
X33247868Y-27238893D01*
X33233253Y-27258599D01*
X33216777Y-27276777D01*
X33198599Y-27293253D01*
X33178893Y-27307868D01*
X33157850Y-27320480D01*
X33135671Y-27330970D01*
X33112572Y-27339235D01*
X33088773Y-27345196D01*
X33064505Y-27348796D01*
X33040001Y-27350000D01*
X32389999Y-27350000D01*
X32365495Y-27348796D01*
X32341227Y-27345196D01*
X32317428Y-27339235D01*
X32294329Y-27330970D01*
X32272150Y-27320480D01*
X32251107Y-27307868D01*
X32231401Y-27293253D01*
X32213223Y-27276777D01*
X32196747Y-27258599D01*
X32182132Y-27238893D01*
X32169520Y-27217850D01*
X32159030Y-27195671D01*
X32150765Y-27172572D01*
X32144804Y-27148773D01*
X32141204Y-27124505D01*
X32140000Y-27100001D01*
X32140000Y-26199999D01*
X32141204Y-26175495D01*
X32144804Y-26151227D01*
X32150765Y-26127428D01*
X32159030Y-26104329D01*
X32169520Y-26082150D01*
X32182132Y-26061107D01*
X32196747Y-26041401D01*
X32213223Y-26023223D01*
X32231401Y-26006747D01*
X32251107Y-25992132D01*
X32272150Y-25979520D01*
X32294329Y-25969030D01*
X32317428Y-25960765D01*
X32341227Y-25954804D01*
X32365495Y-25951204D01*
X32389999Y-25950000D01*
X33040001Y-25950000D01*
X33064505Y-25951204D01*
X33064505Y-25951204D01*
G37*
D12*
G04 #@! TD*
G04 #@! TO.P,R9,2*
G04 #@! TO.N,/En_VoltageDivider*
X32715000Y-26650000D03*
D10*
G04 #@! TO.P,Q6,1*
G04 #@! TO.N,/En_VoltageDivider*
X29660000Y-26330000D03*
G04 #@! TO.P,Q6,2*
G04 #@! TO.N,GND*
X29660000Y-24430000D03*
G04 #@! TO.P,Q6,3*
G04 #@! TO.N,Net-(Q6-Pad3)*
X27660000Y-25380000D03*
G04 #@! TD*
D11*
G04 #@! TO.N,/Ctrl2*
G04 #@! TO.C,D2*
G36*
X25374505Y-66351204D02*
X25398773Y-66354804D01*
X25422572Y-66360765D01*
X25445671Y-66369030D01*
X25467850Y-66379520D01*
X25488893Y-66392132D01*
X25508599Y-66406747D01*
X25526777Y-66423223D01*
X25543253Y-66441401D01*
X25557868Y-66461107D01*
X25570480Y-66482150D01*
X25580970Y-66504329D01*
X25589235Y-66527428D01*
X25595196Y-66551227D01*
X25598796Y-66575495D01*
X25600000Y-66599999D01*
X25600000Y-67250001D01*
X25598796Y-67274505D01*
X25595196Y-67298773D01*
X25589235Y-67322572D01*
X25580970Y-67345671D01*
X25570480Y-67367850D01*
X25557868Y-67388893D01*
X25543253Y-67408599D01*
X25526777Y-67426777D01*
X25508599Y-67443253D01*
X25488893Y-67457868D01*
X25467850Y-67470480D01*
X25445671Y-67480970D01*
X25422572Y-67489235D01*
X25398773Y-67495196D01*
X25374505Y-67498796D01*
X25350001Y-67500000D01*
X24449999Y-67500000D01*
X24425495Y-67498796D01*
X24401227Y-67495196D01*
X24377428Y-67489235D01*
X24354329Y-67480970D01*
X24332150Y-67470480D01*
X24311107Y-67457868D01*
X24291401Y-67443253D01*
X24273223Y-67426777D01*
X24256747Y-67408599D01*
X24242132Y-67388893D01*
X24229520Y-67367850D01*
X24219030Y-67345671D01*
X24210765Y-67322572D01*
X24204804Y-67298773D01*
X24201204Y-67274505D01*
X24200000Y-67250001D01*
X24200000Y-66599999D01*
X24201204Y-66575495D01*
X24204804Y-66551227D01*
X24210765Y-66527428D01*
X24219030Y-66504329D01*
X24229520Y-66482150D01*
X24242132Y-66461107D01*
X24256747Y-66441401D01*
X24273223Y-66423223D01*
X24291401Y-66406747D01*
X24311107Y-66392132D01*
X24332150Y-66379520D01*
X24354329Y-66369030D01*
X24377428Y-66360765D01*
X24401227Y-66354804D01*
X24425495Y-66351204D01*
X24449999Y-66350000D01*
X25350001Y-66350000D01*
X25374505Y-66351204D01*
X25374505Y-66351204D01*
G37*
D12*
G04 #@! TD*
G04 #@! TO.P,D2,1*
G04 #@! TO.N,/Ctrl2*
X24900000Y-66925000D03*
D11*
G04 #@! TO.N,Net-(D1-Pad2)*
G04 #@! TO.C,D2*
G36*
X25374505Y-64301204D02*
X25398773Y-64304804D01*
X25422572Y-64310765D01*
X25445671Y-64319030D01*
X25467850Y-64329520D01*
X25488893Y-64342132D01*
X25508599Y-64356747D01*
X25526777Y-64373223D01*
X25543253Y-64391401D01*
X25557868Y-64411107D01*
X25570480Y-64432150D01*
X25580970Y-64454329D01*
X25589235Y-64477428D01*
X25595196Y-64501227D01*
X25598796Y-64525495D01*
X25600000Y-64549999D01*
X25600000Y-65200001D01*
X25598796Y-65224505D01*
X25595196Y-65248773D01*
X25589235Y-65272572D01*
X25580970Y-65295671D01*
X25570480Y-65317850D01*
X25557868Y-65338893D01*
X25543253Y-65358599D01*
X25526777Y-65376777D01*
X25508599Y-65393253D01*
X25488893Y-65407868D01*
X25467850Y-65420480D01*
X25445671Y-65430970D01*
X25422572Y-65439235D01*
X25398773Y-65445196D01*
X25374505Y-65448796D01*
X25350001Y-65450000D01*
X24449999Y-65450000D01*
X24425495Y-65448796D01*
X24401227Y-65445196D01*
X24377428Y-65439235D01*
X24354329Y-65430970D01*
X24332150Y-65420480D01*
X24311107Y-65407868D01*
X24291401Y-65393253D01*
X24273223Y-65376777D01*
X24256747Y-65358599D01*
X24242132Y-65338893D01*
X24229520Y-65317850D01*
X24219030Y-65295671D01*
X24210765Y-65272572D01*
X24204804Y-65248773D01*
X24201204Y-65224505D01*
X24200000Y-65200001D01*
X24200000Y-64549999D01*
X24201204Y-64525495D01*
X24204804Y-64501227D01*
X24210765Y-64477428D01*
X24219030Y-64454329D01*
X24229520Y-64432150D01*
X24242132Y-64411107D01*
X24256747Y-64391401D01*
X24273223Y-64373223D01*
X24291401Y-64356747D01*
X24311107Y-64342132D01*
X24332150Y-64329520D01*
X24354329Y-64319030D01*
X24377428Y-64310765D01*
X24401227Y-64304804D01*
X24425495Y-64301204D01*
X24449999Y-64300000D01*
X25350001Y-64300000D01*
X25374505Y-64301204D01*
X25374505Y-64301204D01*
G37*
D12*
G04 #@! TD*
G04 #@! TO.P,D2,2*
G04 #@! TO.N,Net-(D1-Pad2)*
X24900000Y-64875000D03*
D11*
G04 #@! TO.N,Net-(D1-Pad2)*
G04 #@! TO.C,D3*
G36*
X28974505Y-64301204D02*
X28998773Y-64304804D01*
X29022572Y-64310765D01*
X29045671Y-64319030D01*
X29067850Y-64329520D01*
X29088893Y-64342132D01*
X29108599Y-64356747D01*
X29126777Y-64373223D01*
X29143253Y-64391401D01*
X29157868Y-64411107D01*
X29170480Y-64432150D01*
X29180970Y-64454329D01*
X29189235Y-64477428D01*
X29195196Y-64501227D01*
X29198796Y-64525495D01*
X29200000Y-64549999D01*
X29200000Y-65200001D01*
X29198796Y-65224505D01*
X29195196Y-65248773D01*
X29189235Y-65272572D01*
X29180970Y-65295671D01*
X29170480Y-65317850D01*
X29157868Y-65338893D01*
X29143253Y-65358599D01*
X29126777Y-65376777D01*
X29108599Y-65393253D01*
X29088893Y-65407868D01*
X29067850Y-65420480D01*
X29045671Y-65430970D01*
X29022572Y-65439235D01*
X28998773Y-65445196D01*
X28974505Y-65448796D01*
X28950001Y-65450000D01*
X28049999Y-65450000D01*
X28025495Y-65448796D01*
X28001227Y-65445196D01*
X27977428Y-65439235D01*
X27954329Y-65430970D01*
X27932150Y-65420480D01*
X27911107Y-65407868D01*
X27891401Y-65393253D01*
X27873223Y-65376777D01*
X27856747Y-65358599D01*
X27842132Y-65338893D01*
X27829520Y-65317850D01*
X27819030Y-65295671D01*
X27810765Y-65272572D01*
X27804804Y-65248773D01*
X27801204Y-65224505D01*
X27800000Y-65200001D01*
X27800000Y-64549999D01*
X27801204Y-64525495D01*
X27804804Y-64501227D01*
X27810765Y-64477428D01*
X27819030Y-64454329D01*
X27829520Y-64432150D01*
X27842132Y-64411107D01*
X27856747Y-64391401D01*
X27873223Y-64373223D01*
X27891401Y-64356747D01*
X27911107Y-64342132D01*
X27932150Y-64329520D01*
X27954329Y-64319030D01*
X27977428Y-64310765D01*
X28001227Y-64304804D01*
X28025495Y-64301204D01*
X28049999Y-64300000D01*
X28950001Y-64300000D01*
X28974505Y-64301204D01*
X28974505Y-64301204D01*
G37*
D12*
G04 #@! TD*
G04 #@! TO.P,D3,2*
G04 #@! TO.N,Net-(D1-Pad2)*
X28500000Y-64875000D03*
D11*
G04 #@! TO.N,/Ctrl3*
G04 #@! TO.C,D3*
G36*
X28974505Y-66351204D02*
X28998773Y-66354804D01*
X29022572Y-66360765D01*
X29045671Y-66369030D01*
X29067850Y-66379520D01*
X29088893Y-66392132D01*
X29108599Y-66406747D01*
X29126777Y-66423223D01*
X29143253Y-66441401D01*
X29157868Y-66461107D01*
X29170480Y-66482150D01*
X29180970Y-66504329D01*
X29189235Y-66527428D01*
X29195196Y-66551227D01*
X29198796Y-66575495D01*
X29200000Y-66599999D01*
X29200000Y-67250001D01*
X29198796Y-67274505D01*
X29195196Y-67298773D01*
X29189235Y-67322572D01*
X29180970Y-67345671D01*
X29170480Y-67367850D01*
X29157868Y-67388893D01*
X29143253Y-67408599D01*
X29126777Y-67426777D01*
X29108599Y-67443253D01*
X29088893Y-67457868D01*
X29067850Y-67470480D01*
X29045671Y-67480970D01*
X29022572Y-67489235D01*
X28998773Y-67495196D01*
X28974505Y-67498796D01*
X28950001Y-67500000D01*
X28049999Y-67500000D01*
X28025495Y-67498796D01*
X28001227Y-67495196D01*
X27977428Y-67489235D01*
X27954329Y-67480970D01*
X27932150Y-67470480D01*
X27911107Y-67457868D01*
X27891401Y-67443253D01*
X27873223Y-67426777D01*
X27856747Y-67408599D01*
X27842132Y-67388893D01*
X27829520Y-67367850D01*
X27819030Y-67345671D01*
X27810765Y-67322572D01*
X27804804Y-67298773D01*
X27801204Y-67274505D01*
X27800000Y-67250001D01*
X27800000Y-66599999D01*
X27801204Y-66575495D01*
X27804804Y-66551227D01*
X27810765Y-66527428D01*
X27819030Y-66504329D01*
X27829520Y-66482150D01*
X27842132Y-66461107D01*
X27856747Y-66441401D01*
X27873223Y-66423223D01*
X27891401Y-66406747D01*
X27911107Y-66392132D01*
X27932150Y-66379520D01*
X27954329Y-66369030D01*
X27977428Y-66360765D01*
X28001227Y-66354804D01*
X28025495Y-66351204D01*
X28049999Y-66350000D01*
X28950001Y-66350000D01*
X28974505Y-66351204D01*
X28974505Y-66351204D01*
G37*
D12*
G04 #@! TD*
G04 #@! TO.P,D3,1*
G04 #@! TO.N,/Ctrl3*
X28500000Y-66925000D03*
D11*
G04 #@! TO.N,/Ctrl4*
G04 #@! TO.C,D4*
G36*
X32574505Y-66351204D02*
X32598773Y-66354804D01*
X32622572Y-66360765D01*
X32645671Y-66369030D01*
X32667850Y-66379520D01*
X32688893Y-66392132D01*
X32708599Y-66406747D01*
X32726777Y-66423223D01*
X32743253Y-66441401D01*
X32757868Y-66461107D01*
X32770480Y-66482150D01*
X32780970Y-66504329D01*
X32789235Y-66527428D01*
X32795196Y-66551227D01*
X32798796Y-66575495D01*
X32800000Y-66599999D01*
X32800000Y-67250001D01*
X32798796Y-67274505D01*
X32795196Y-67298773D01*
X32789235Y-67322572D01*
X32780970Y-67345671D01*
X32770480Y-67367850D01*
X32757868Y-67388893D01*
X32743253Y-67408599D01*
X32726777Y-67426777D01*
X32708599Y-67443253D01*
X32688893Y-67457868D01*
X32667850Y-67470480D01*
X32645671Y-67480970D01*
X32622572Y-67489235D01*
X32598773Y-67495196D01*
X32574505Y-67498796D01*
X32550001Y-67500000D01*
X31649999Y-67500000D01*
X31625495Y-67498796D01*
X31601227Y-67495196D01*
X31577428Y-67489235D01*
X31554329Y-67480970D01*
X31532150Y-67470480D01*
X31511107Y-67457868D01*
X31491401Y-67443253D01*
X31473223Y-67426777D01*
X31456747Y-67408599D01*
X31442132Y-67388893D01*
X31429520Y-67367850D01*
X31419030Y-67345671D01*
X31410765Y-67322572D01*
X31404804Y-67298773D01*
X31401204Y-67274505D01*
X31400000Y-67250001D01*
X31400000Y-66599999D01*
X31401204Y-66575495D01*
X31404804Y-66551227D01*
X31410765Y-66527428D01*
X31419030Y-66504329D01*
X31429520Y-66482150D01*
X31442132Y-66461107D01*
X31456747Y-66441401D01*
X31473223Y-66423223D01*
X31491401Y-66406747D01*
X31511107Y-66392132D01*
X31532150Y-66379520D01*
X31554329Y-66369030D01*
X31577428Y-66360765D01*
X31601227Y-66354804D01*
X31625495Y-66351204D01*
X31649999Y-66350000D01*
X32550001Y-66350000D01*
X32574505Y-66351204D01*
X32574505Y-66351204D01*
G37*
D12*
G04 #@! TD*
G04 #@! TO.P,D4,1*
G04 #@! TO.N,/Ctrl4*
X32100000Y-66925000D03*
D11*
G04 #@! TO.N,Net-(D1-Pad2)*
G04 #@! TO.C,D4*
G36*
X32574505Y-64301204D02*
X32598773Y-64304804D01*
X32622572Y-64310765D01*
X32645671Y-64319030D01*
X32667850Y-64329520D01*
X32688893Y-64342132D01*
X32708599Y-64356747D01*
X32726777Y-64373223D01*
X32743253Y-64391401D01*
X32757868Y-64411107D01*
X32770480Y-64432150D01*
X32780970Y-64454329D01*
X32789235Y-64477428D01*
X32795196Y-64501227D01*
X32798796Y-64525495D01*
X32800000Y-64549999D01*
X32800000Y-65200001D01*
X32798796Y-65224505D01*
X32795196Y-65248773D01*
X32789235Y-65272572D01*
X32780970Y-65295671D01*
X32770480Y-65317850D01*
X32757868Y-65338893D01*
X32743253Y-65358599D01*
X32726777Y-65376777D01*
X32708599Y-65393253D01*
X32688893Y-65407868D01*
X32667850Y-65420480D01*
X32645671Y-65430970D01*
X32622572Y-65439235D01*
X32598773Y-65445196D01*
X32574505Y-65448796D01*
X32550001Y-65450000D01*
X31649999Y-65450000D01*
X31625495Y-65448796D01*
X31601227Y-65445196D01*
X31577428Y-65439235D01*
X31554329Y-65430970D01*
X31532150Y-65420480D01*
X31511107Y-65407868D01*
X31491401Y-65393253D01*
X31473223Y-65376777D01*
X31456747Y-65358599D01*
X31442132Y-65338893D01*
X31429520Y-65317850D01*
X31419030Y-65295671D01*
X31410765Y-65272572D01*
X31404804Y-65248773D01*
X31401204Y-65224505D01*
X31400000Y-65200001D01*
X31400000Y-64549999D01*
X31401204Y-64525495D01*
X31404804Y-64501227D01*
X31410765Y-64477428D01*
X31419030Y-64454329D01*
X31429520Y-64432150D01*
X31442132Y-64411107D01*
X31456747Y-64391401D01*
X31473223Y-64373223D01*
X31491401Y-64356747D01*
X31511107Y-64342132D01*
X31532150Y-64329520D01*
X31554329Y-64319030D01*
X31577428Y-64310765D01*
X31601227Y-64304804D01*
X31625495Y-64301204D01*
X31649999Y-64300000D01*
X32550001Y-64300000D01*
X32574505Y-64301204D01*
X32574505Y-64301204D01*
G37*
D12*
G04 #@! TD*
G04 #@! TO.P,D4,2*
G04 #@! TO.N,Net-(D1-Pad2)*
X32100000Y-64875000D03*
D11*
G04 #@! TO.N,Net-(D1-Pad2)*
G04 #@! TO.C,D5*
G36*
X36174505Y-64301204D02*
X36198773Y-64304804D01*
X36222572Y-64310765D01*
X36245671Y-64319030D01*
X36267850Y-64329520D01*
X36288893Y-64342132D01*
X36308599Y-64356747D01*
X36326777Y-64373223D01*
X36343253Y-64391401D01*
X36357868Y-64411107D01*
X36370480Y-64432150D01*
X36380970Y-64454329D01*
X36389235Y-64477428D01*
X36395196Y-64501227D01*
X36398796Y-64525495D01*
X36400000Y-64549999D01*
X36400000Y-65200001D01*
X36398796Y-65224505D01*
X36395196Y-65248773D01*
X36389235Y-65272572D01*
X36380970Y-65295671D01*
X36370480Y-65317850D01*
X36357868Y-65338893D01*
X36343253Y-65358599D01*
X36326777Y-65376777D01*
X36308599Y-65393253D01*
X36288893Y-65407868D01*
X36267850Y-65420480D01*
X36245671Y-65430970D01*
X36222572Y-65439235D01*
X36198773Y-65445196D01*
X36174505Y-65448796D01*
X36150001Y-65450000D01*
X35249999Y-65450000D01*
X35225495Y-65448796D01*
X35201227Y-65445196D01*
X35177428Y-65439235D01*
X35154329Y-65430970D01*
X35132150Y-65420480D01*
X35111107Y-65407868D01*
X35091401Y-65393253D01*
X35073223Y-65376777D01*
X35056747Y-65358599D01*
X35042132Y-65338893D01*
X35029520Y-65317850D01*
X35019030Y-65295671D01*
X35010765Y-65272572D01*
X35004804Y-65248773D01*
X35001204Y-65224505D01*
X35000000Y-65200001D01*
X35000000Y-64549999D01*
X35001204Y-64525495D01*
X35004804Y-64501227D01*
X35010765Y-64477428D01*
X35019030Y-64454329D01*
X35029520Y-64432150D01*
X35042132Y-64411107D01*
X35056747Y-64391401D01*
X35073223Y-64373223D01*
X35091401Y-64356747D01*
X35111107Y-64342132D01*
X35132150Y-64329520D01*
X35154329Y-64319030D01*
X35177428Y-64310765D01*
X35201227Y-64304804D01*
X35225495Y-64301204D01*
X35249999Y-64300000D01*
X36150001Y-64300000D01*
X36174505Y-64301204D01*
X36174505Y-64301204D01*
G37*
D12*
G04 #@! TD*
G04 #@! TO.P,D5,2*
G04 #@! TO.N,Net-(D1-Pad2)*
X35700000Y-64875000D03*
D11*
G04 #@! TO.N,/Ctrl5*
G04 #@! TO.C,D5*
G36*
X36174505Y-66351204D02*
X36198773Y-66354804D01*
X36222572Y-66360765D01*
X36245671Y-66369030D01*
X36267850Y-66379520D01*
X36288893Y-66392132D01*
X36308599Y-66406747D01*
X36326777Y-66423223D01*
X36343253Y-66441401D01*
X36357868Y-66461107D01*
X36370480Y-66482150D01*
X36380970Y-66504329D01*
X36389235Y-66527428D01*
X36395196Y-66551227D01*
X36398796Y-66575495D01*
X36400000Y-66599999D01*
X36400000Y-67250001D01*
X36398796Y-67274505D01*
X36395196Y-67298773D01*
X36389235Y-67322572D01*
X36380970Y-67345671D01*
X36370480Y-67367850D01*
X36357868Y-67388893D01*
X36343253Y-67408599D01*
X36326777Y-67426777D01*
X36308599Y-67443253D01*
X36288893Y-67457868D01*
X36267850Y-67470480D01*
X36245671Y-67480970D01*
X36222572Y-67489235D01*
X36198773Y-67495196D01*
X36174505Y-67498796D01*
X36150001Y-67500000D01*
X35249999Y-67500000D01*
X35225495Y-67498796D01*
X35201227Y-67495196D01*
X35177428Y-67489235D01*
X35154329Y-67480970D01*
X35132150Y-67470480D01*
X35111107Y-67457868D01*
X35091401Y-67443253D01*
X35073223Y-67426777D01*
X35056747Y-67408599D01*
X35042132Y-67388893D01*
X35029520Y-67367850D01*
X35019030Y-67345671D01*
X35010765Y-67322572D01*
X35004804Y-67298773D01*
X35001204Y-67274505D01*
X35000000Y-67250001D01*
X35000000Y-66599999D01*
X35001204Y-66575495D01*
X35004804Y-66551227D01*
X35010765Y-66527428D01*
X35019030Y-66504329D01*
X35029520Y-66482150D01*
X35042132Y-66461107D01*
X35056747Y-66441401D01*
X35073223Y-66423223D01*
X35091401Y-66406747D01*
X35111107Y-66392132D01*
X35132150Y-66379520D01*
X35154329Y-66369030D01*
X35177428Y-66360765D01*
X35201227Y-66354804D01*
X35225495Y-66351204D01*
X35249999Y-66350000D01*
X36150001Y-66350000D01*
X36174505Y-66351204D01*
X36174505Y-66351204D01*
G37*
D12*
G04 #@! TD*
G04 #@! TO.P,D5,1*
G04 #@! TO.N,/Ctrl5*
X35700000Y-66925000D03*
D11*
G04 #@! TO.N,/Ctrl1*
G04 #@! TO.C,D1*
G36*
X21775338Y-66361138D02*
X21799606Y-66364738D01*
X21823405Y-66370699D01*
X21846504Y-66378964D01*
X21868683Y-66389454D01*
X21889726Y-66402066D01*
X21909432Y-66416681D01*
X21927610Y-66433157D01*
X21944086Y-66451335D01*
X21958701Y-66471041D01*
X21971313Y-66492084D01*
X21981803Y-66514263D01*
X21990068Y-66537362D01*
X21996029Y-66561161D01*
X21999629Y-66585429D01*
X22000833Y-66609933D01*
X22000833Y-67259935D01*
X21999629Y-67284439D01*
X21996029Y-67308707D01*
X21990068Y-67332506D01*
X21981803Y-67355605D01*
X21971313Y-67377784D01*
X21958701Y-67398827D01*
X21944086Y-67418533D01*
X21927610Y-67436711D01*
X21909432Y-67453187D01*
X21889726Y-67467802D01*
X21868683Y-67480414D01*
X21846504Y-67490904D01*
X21823405Y-67499169D01*
X21799606Y-67505130D01*
X21775338Y-67508730D01*
X21750834Y-67509934D01*
X20850832Y-67509934D01*
X20826328Y-67508730D01*
X20802060Y-67505130D01*
X20778261Y-67499169D01*
X20755162Y-67490904D01*
X20732983Y-67480414D01*
X20711940Y-67467802D01*
X20692234Y-67453187D01*
X20674056Y-67436711D01*
X20657580Y-67418533D01*
X20642965Y-67398827D01*
X20630353Y-67377784D01*
X20619863Y-67355605D01*
X20611598Y-67332506D01*
X20605637Y-67308707D01*
X20602037Y-67284439D01*
X20600833Y-67259935D01*
X20600833Y-66609933D01*
X20602037Y-66585429D01*
X20605637Y-66561161D01*
X20611598Y-66537362D01*
X20619863Y-66514263D01*
X20630353Y-66492084D01*
X20642965Y-66471041D01*
X20657580Y-66451335D01*
X20674056Y-66433157D01*
X20692234Y-66416681D01*
X20711940Y-66402066D01*
X20732983Y-66389454D01*
X20755162Y-66378964D01*
X20778261Y-66370699D01*
X20802060Y-66364738D01*
X20826328Y-66361138D01*
X20850832Y-66359934D01*
X21750834Y-66359934D01*
X21775338Y-66361138D01*
X21775338Y-66361138D01*
G37*
D12*
G04 #@! TD*
G04 #@! TO.P,D1,1*
G04 #@! TO.N,/Ctrl1*
X21300833Y-66934934D03*
D11*
G04 #@! TO.N,Net-(D1-Pad2)*
G04 #@! TO.C,D1*
G36*
X21775338Y-64311138D02*
X21799606Y-64314738D01*
X21823405Y-64320699D01*
X21846504Y-64328964D01*
X21868683Y-64339454D01*
X21889726Y-64352066D01*
X21909432Y-64366681D01*
X21927610Y-64383157D01*
X21944086Y-64401335D01*
X21958701Y-64421041D01*
X21971313Y-64442084D01*
X21981803Y-64464263D01*
X21990068Y-64487362D01*
X21996029Y-64511161D01*
X21999629Y-64535429D01*
X22000833Y-64559933D01*
X22000833Y-65209935D01*
X21999629Y-65234439D01*
X21996029Y-65258707D01*
X21990068Y-65282506D01*
X21981803Y-65305605D01*
X21971313Y-65327784D01*
X21958701Y-65348827D01*
X21944086Y-65368533D01*
X21927610Y-65386711D01*
X21909432Y-65403187D01*
X21889726Y-65417802D01*
X21868683Y-65430414D01*
X21846504Y-65440904D01*
X21823405Y-65449169D01*
X21799606Y-65455130D01*
X21775338Y-65458730D01*
X21750834Y-65459934D01*
X20850832Y-65459934D01*
X20826328Y-65458730D01*
X20802060Y-65455130D01*
X20778261Y-65449169D01*
X20755162Y-65440904D01*
X20732983Y-65430414D01*
X20711940Y-65417802D01*
X20692234Y-65403187D01*
X20674056Y-65386711D01*
X20657580Y-65368533D01*
X20642965Y-65348827D01*
X20630353Y-65327784D01*
X20619863Y-65305605D01*
X20611598Y-65282506D01*
X20605637Y-65258707D01*
X20602037Y-65234439D01*
X20600833Y-65209935D01*
X20600833Y-64559933D01*
X20602037Y-64535429D01*
X20605637Y-64511161D01*
X20611598Y-64487362D01*
X20619863Y-64464263D01*
X20630353Y-64442084D01*
X20642965Y-64421041D01*
X20657580Y-64401335D01*
X20674056Y-64383157D01*
X20692234Y-64366681D01*
X20711940Y-64352066D01*
X20732983Y-64339454D01*
X20755162Y-64328964D01*
X20778261Y-64320699D01*
X20802060Y-64314738D01*
X20826328Y-64311138D01*
X20850832Y-64309934D01*
X21750834Y-64309934D01*
X21775338Y-64311138D01*
X21775338Y-64311138D01*
G37*
D12*
G04 #@! TD*
G04 #@! TO.P,D1,2*
G04 #@! TO.N,Net-(D1-Pad2)*
X21300833Y-64884934D03*
D11*
G04 #@! TO.N,/Vcc*
G04 #@! TO.C,R6*
G36*
X35114505Y-60261204D02*
X35138773Y-60264804D01*
X35162572Y-60270765D01*
X35185671Y-60279030D01*
X35207850Y-60289520D01*
X35228893Y-60302132D01*
X35248599Y-60316747D01*
X35266777Y-60333223D01*
X35283253Y-60351401D01*
X35297868Y-60371107D01*
X35310480Y-60392150D01*
X35320970Y-60414329D01*
X35329235Y-60437428D01*
X35335196Y-60461227D01*
X35338796Y-60485495D01*
X35340000Y-60509999D01*
X35340000Y-61410001D01*
X35338796Y-61434505D01*
X35335196Y-61458773D01*
X35329235Y-61482572D01*
X35320970Y-61505671D01*
X35310480Y-61527850D01*
X35297868Y-61548893D01*
X35283253Y-61568599D01*
X35266777Y-61586777D01*
X35248599Y-61603253D01*
X35228893Y-61617868D01*
X35207850Y-61630480D01*
X35185671Y-61640970D01*
X35162572Y-61649235D01*
X35138773Y-61655196D01*
X35114505Y-61658796D01*
X35090001Y-61660000D01*
X34439999Y-61660000D01*
X34415495Y-61658796D01*
X34391227Y-61655196D01*
X34367428Y-61649235D01*
X34344329Y-61640970D01*
X34322150Y-61630480D01*
X34301107Y-61617868D01*
X34281401Y-61603253D01*
X34263223Y-61586777D01*
X34246747Y-61568599D01*
X34232132Y-61548893D01*
X34219520Y-61527850D01*
X34209030Y-61505671D01*
X34200765Y-61482572D01*
X34194804Y-61458773D01*
X34191204Y-61434505D01*
X34190000Y-61410001D01*
X34190000Y-60509999D01*
X34191204Y-60485495D01*
X34194804Y-60461227D01*
X34200765Y-60437428D01*
X34209030Y-60414329D01*
X34219520Y-60392150D01*
X34232132Y-60371107D01*
X34246747Y-60351401D01*
X34263223Y-60333223D01*
X34281401Y-60316747D01*
X34301107Y-60302132D01*
X34322150Y-60289520D01*
X34344329Y-60279030D01*
X34367428Y-60270765D01*
X34391227Y-60264804D01*
X34415495Y-60261204D01*
X34439999Y-60260000D01*
X35090001Y-60260000D01*
X35114505Y-60261204D01*
X35114505Y-60261204D01*
G37*
D12*
G04 #@! TD*
G04 #@! TO.P,R6,1*
G04 #@! TO.N,/Vcc*
X34765000Y-60960000D03*
D11*
G04 #@! TO.N,Net-(D1-Pad2)*
G04 #@! TO.C,R6*
G36*
X33064505Y-60261204D02*
X33088773Y-60264804D01*
X33112572Y-60270765D01*
X33135671Y-60279030D01*
X33157850Y-60289520D01*
X33178893Y-60302132D01*
X33198599Y-60316747D01*
X33216777Y-60333223D01*
X33233253Y-60351401D01*
X33247868Y-60371107D01*
X33260480Y-60392150D01*
X33270970Y-60414329D01*
X33279235Y-60437428D01*
X33285196Y-60461227D01*
X33288796Y-60485495D01*
X33290000Y-60509999D01*
X33290000Y-61410001D01*
X33288796Y-61434505D01*
X33285196Y-61458773D01*
X33279235Y-61482572D01*
X33270970Y-61505671D01*
X33260480Y-61527850D01*
X33247868Y-61548893D01*
X33233253Y-61568599D01*
X33216777Y-61586777D01*
X33198599Y-61603253D01*
X33178893Y-61617868D01*
X33157850Y-61630480D01*
X33135671Y-61640970D01*
X33112572Y-61649235D01*
X33088773Y-61655196D01*
X33064505Y-61658796D01*
X33040001Y-61660000D01*
X32389999Y-61660000D01*
X32365495Y-61658796D01*
X32341227Y-61655196D01*
X32317428Y-61649235D01*
X32294329Y-61640970D01*
X32272150Y-61630480D01*
X32251107Y-61617868D01*
X32231401Y-61603253D01*
X32213223Y-61586777D01*
X32196747Y-61568599D01*
X32182132Y-61548893D01*
X32169520Y-61527850D01*
X32159030Y-61505671D01*
X32150765Y-61482572D01*
X32144804Y-61458773D01*
X32141204Y-61434505D01*
X32140000Y-61410001D01*
X32140000Y-60509999D01*
X32141204Y-60485495D01*
X32144804Y-60461227D01*
X32150765Y-60437428D01*
X32159030Y-60414329D01*
X32169520Y-60392150D01*
X32182132Y-60371107D01*
X32196747Y-60351401D01*
X32213223Y-60333223D01*
X32231401Y-60316747D01*
X32251107Y-60302132D01*
X32272150Y-60289520D01*
X32294329Y-60279030D01*
X32317428Y-60270765D01*
X32341227Y-60264804D01*
X32365495Y-60261204D01*
X32389999Y-60260000D01*
X33040001Y-60260000D01*
X33064505Y-60261204D01*
X33064505Y-60261204D01*
G37*
D12*
G04 #@! TD*
G04 #@! TO.P,R6,2*
G04 #@! TO.N,Net-(D1-Pad2)*
X32715000Y-60960000D03*
D11*
G04 #@! TO.N,/Vin*
G04 #@! TO.C,R7*
G36*
X22904505Y-27241204D02*
X22928773Y-27244804D01*
X22952572Y-27250765D01*
X22975671Y-27259030D01*
X22997850Y-27269520D01*
X23018893Y-27282132D01*
X23038599Y-27296747D01*
X23056777Y-27313223D01*
X23073253Y-27331401D01*
X23087868Y-27351107D01*
X23100480Y-27372150D01*
X23110970Y-27394329D01*
X23119235Y-27417428D01*
X23125196Y-27441227D01*
X23128796Y-27465495D01*
X23130000Y-27489999D01*
X23130000Y-28390001D01*
X23128796Y-28414505D01*
X23125196Y-28438773D01*
X23119235Y-28462572D01*
X23110970Y-28485671D01*
X23100480Y-28507850D01*
X23087868Y-28528893D01*
X23073253Y-28548599D01*
X23056777Y-28566777D01*
X23038599Y-28583253D01*
X23018893Y-28597868D01*
X22997850Y-28610480D01*
X22975671Y-28620970D01*
X22952572Y-28629235D01*
X22928773Y-28635196D01*
X22904505Y-28638796D01*
X22880001Y-28640000D01*
X22229999Y-28640000D01*
X22205495Y-28638796D01*
X22181227Y-28635196D01*
X22157428Y-28629235D01*
X22134329Y-28620970D01*
X22112150Y-28610480D01*
X22091107Y-28597868D01*
X22071401Y-28583253D01*
X22053223Y-28566777D01*
X22036747Y-28548599D01*
X22022132Y-28528893D01*
X22009520Y-28507850D01*
X21999030Y-28485671D01*
X21990765Y-28462572D01*
X21984804Y-28438773D01*
X21981204Y-28414505D01*
X21980000Y-28390001D01*
X21980000Y-27489999D01*
X21981204Y-27465495D01*
X21984804Y-27441227D01*
X21990765Y-27417428D01*
X21999030Y-27394329D01*
X22009520Y-27372150D01*
X22022132Y-27351107D01*
X22036747Y-27331401D01*
X22053223Y-27313223D01*
X22071401Y-27296747D01*
X22091107Y-27282132D01*
X22112150Y-27269520D01*
X22134329Y-27259030D01*
X22157428Y-27250765D01*
X22181227Y-27244804D01*
X22205495Y-27241204D01*
X22229999Y-27240000D01*
X22880001Y-27240000D01*
X22904505Y-27241204D01*
X22904505Y-27241204D01*
G37*
D12*
G04 #@! TD*
G04 #@! TO.P,R7,2*
G04 #@! TO.N,/Vin*
X22555000Y-27940000D03*
D11*
G04 #@! TO.N,/Vbat*
G04 #@! TO.C,R7*
G36*
X24954505Y-27241204D02*
X24978773Y-27244804D01*
X25002572Y-27250765D01*
X25025671Y-27259030D01*
X25047850Y-27269520D01*
X25068893Y-27282132D01*
X25088599Y-27296747D01*
X25106777Y-27313223D01*
X25123253Y-27331401D01*
X25137868Y-27351107D01*
X25150480Y-27372150D01*
X25160970Y-27394329D01*
X25169235Y-27417428D01*
X25175196Y-27441227D01*
X25178796Y-27465495D01*
X25180000Y-27489999D01*
X25180000Y-28390001D01*
X25178796Y-28414505D01*
X25175196Y-28438773D01*
X25169235Y-28462572D01*
X25160970Y-28485671D01*
X25150480Y-28507850D01*
X25137868Y-28528893D01*
X25123253Y-28548599D01*
X25106777Y-28566777D01*
X25088599Y-28583253D01*
X25068893Y-28597868D01*
X25047850Y-28610480D01*
X25025671Y-28620970D01*
X25002572Y-28629235D01*
X24978773Y-28635196D01*
X24954505Y-28638796D01*
X24930001Y-28640000D01*
X24279999Y-28640000D01*
X24255495Y-28638796D01*
X24231227Y-28635196D01*
X24207428Y-28629235D01*
X24184329Y-28620970D01*
X24162150Y-28610480D01*
X24141107Y-28597868D01*
X24121401Y-28583253D01*
X24103223Y-28566777D01*
X24086747Y-28548599D01*
X24072132Y-28528893D01*
X24059520Y-28507850D01*
X24049030Y-28485671D01*
X24040765Y-28462572D01*
X24034804Y-28438773D01*
X24031204Y-28414505D01*
X24030000Y-28390001D01*
X24030000Y-27489999D01*
X24031204Y-27465495D01*
X24034804Y-27441227D01*
X24040765Y-27417428D01*
X24049030Y-27394329D01*
X24059520Y-27372150D01*
X24072132Y-27351107D01*
X24086747Y-27331401D01*
X24103223Y-27313223D01*
X24121401Y-27296747D01*
X24141107Y-27282132D01*
X24162150Y-27269520D01*
X24184329Y-27259030D01*
X24207428Y-27250765D01*
X24231227Y-27244804D01*
X24255495Y-27241204D01*
X24279999Y-27240000D01*
X24930001Y-27240000D01*
X24954505Y-27241204D01*
X24954505Y-27241204D01*
G37*
D12*
G04 #@! TD*
G04 #@! TO.P,R7,1*
G04 #@! TO.N,/Vbat*
X24605000Y-27940000D03*
D11*
G04 #@! TO.N,/Vin*
G04 #@! TO.C,R8*
G36*
X22904505Y-23411204D02*
X22928773Y-23414804D01*
X22952572Y-23420765D01*
X22975671Y-23429030D01*
X22997850Y-23439520D01*
X23018893Y-23452132D01*
X23038599Y-23466747D01*
X23056777Y-23483223D01*
X23073253Y-23501401D01*
X23087868Y-23521107D01*
X23100480Y-23542150D01*
X23110970Y-23564329D01*
X23119235Y-23587428D01*
X23125196Y-23611227D01*
X23128796Y-23635495D01*
X23130000Y-23659999D01*
X23130000Y-24560001D01*
X23128796Y-24584505D01*
X23125196Y-24608773D01*
X23119235Y-24632572D01*
X23110970Y-24655671D01*
X23100480Y-24677850D01*
X23087868Y-24698893D01*
X23073253Y-24718599D01*
X23056777Y-24736777D01*
X23038599Y-24753253D01*
X23018893Y-24767868D01*
X22997850Y-24780480D01*
X22975671Y-24790970D01*
X22952572Y-24799235D01*
X22928773Y-24805196D01*
X22904505Y-24808796D01*
X22880001Y-24810000D01*
X22229999Y-24810000D01*
X22205495Y-24808796D01*
X22181227Y-24805196D01*
X22157428Y-24799235D01*
X22134329Y-24790970D01*
X22112150Y-24780480D01*
X22091107Y-24767868D01*
X22071401Y-24753253D01*
X22053223Y-24736777D01*
X22036747Y-24718599D01*
X22022132Y-24698893D01*
X22009520Y-24677850D01*
X21999030Y-24655671D01*
X21990765Y-24632572D01*
X21984804Y-24608773D01*
X21981204Y-24584505D01*
X21980000Y-24560001D01*
X21980000Y-23659999D01*
X21981204Y-23635495D01*
X21984804Y-23611227D01*
X21990765Y-23587428D01*
X21999030Y-23564329D01*
X22009520Y-23542150D01*
X22022132Y-23521107D01*
X22036747Y-23501401D01*
X22053223Y-23483223D01*
X22071401Y-23466747D01*
X22091107Y-23452132D01*
X22112150Y-23439520D01*
X22134329Y-23429030D01*
X22157428Y-23420765D01*
X22181227Y-23414804D01*
X22205495Y-23411204D01*
X22229999Y-23410000D01*
X22880001Y-23410000D01*
X22904505Y-23411204D01*
X22904505Y-23411204D01*
G37*
D12*
G04 #@! TD*
G04 #@! TO.P,R8,1*
G04 #@! TO.N,/Vin*
X22555000Y-24110000D03*
D11*
G04 #@! TO.N,Net-(Q6-Pad3)*
G04 #@! TO.C,R8*
G36*
X24954505Y-23411204D02*
X24978773Y-23414804D01*
X25002572Y-23420765D01*
X25025671Y-23429030D01*
X25047850Y-23439520D01*
X25068893Y-23452132D01*
X25088599Y-23466747D01*
X25106777Y-23483223D01*
X25123253Y-23501401D01*
X25137868Y-23521107D01*
X25150480Y-23542150D01*
X25160970Y-23564329D01*
X25169235Y-23587428D01*
X25175196Y-23611227D01*
X25178796Y-23635495D01*
X25180000Y-23659999D01*
X25180000Y-24560001D01*
X25178796Y-24584505D01*
X25175196Y-24608773D01*
X25169235Y-24632572D01*
X25160970Y-24655671D01*
X25150480Y-24677850D01*
X25137868Y-24698893D01*
X25123253Y-24718599D01*
X25106777Y-24736777D01*
X25088599Y-24753253D01*
X25068893Y-24767868D01*
X25047850Y-24780480D01*
X25025671Y-24790970D01*
X25002572Y-24799235D01*
X24978773Y-24805196D01*
X24954505Y-24808796D01*
X24930001Y-24810000D01*
X24279999Y-24810000D01*
X24255495Y-24808796D01*
X24231227Y-24805196D01*
X24207428Y-24799235D01*
X24184329Y-24790970D01*
X24162150Y-24780480D01*
X24141107Y-24767868D01*
X24121401Y-24753253D01*
X24103223Y-24736777D01*
X24086747Y-24718599D01*
X24072132Y-24698893D01*
X24059520Y-24677850D01*
X24049030Y-24655671D01*
X24040765Y-24632572D01*
X24034804Y-24608773D01*
X24031204Y-24584505D01*
X24030000Y-24560001D01*
X24030000Y-23659999D01*
X24031204Y-23635495D01*
X24034804Y-23611227D01*
X24040765Y-23587428D01*
X24049030Y-23564329D01*
X24059520Y-23542150D01*
X24072132Y-23521107D01*
X24086747Y-23501401D01*
X24103223Y-23483223D01*
X24121401Y-23466747D01*
X24141107Y-23452132D01*
X24162150Y-23439520D01*
X24184329Y-23429030D01*
X24207428Y-23420765D01*
X24231227Y-23414804D01*
X24255495Y-23411204D01*
X24279999Y-23410000D01*
X24930001Y-23410000D01*
X24954505Y-23411204D01*
X24954505Y-23411204D01*
G37*
D12*
G04 #@! TD*
G04 #@! TO.P,R8,2*
G04 #@! TO.N,Net-(Q6-Pad3)*
X24605000Y-24110000D03*
D13*
G04 #@! TO.P,U1,30*
G04 #@! TO.N,/Ctrl1*
X42470000Y-23280000D03*
G04 #@! TO.P,U1,29*
G04 #@! TO.N,/Ctrl2*
X42470000Y-25820000D03*
G04 #@! TO.P,U1,28*
G04 #@! TO.N,/Ctrl3*
X42470000Y-28360000D03*
G04 #@! TO.P,U1,27*
G04 #@! TO.N,Net-(U1-Pad27)*
X42470000Y-30900000D03*
G04 #@! TO.P,U1,26*
G04 #@! TO.N,Net-(U1-Pad26)*
X42470000Y-33440000D03*
G04 #@! TO.P,U1,25*
G04 #@! TO.N,Net-(U1-Pad25)*
X42470000Y-35980000D03*
G04 #@! TO.P,U1,24*
G04 #@! TO.N,GND*
X42470000Y-38520000D03*
G04 #@! TO.P,U1,23*
G04 #@! TO.N,Net-(U1-Pad23)*
X42470000Y-41060000D03*
G04 #@! TO.P,U1,22*
G04 #@! TO.N,/En_VoltageDivider*
X42470000Y-43600000D03*
G04 #@! TO.P,U1,21*
G04 #@! TO.N,/Ctrl4*
X42470000Y-46140000D03*
G04 #@! TO.P,U1,20*
G04 #@! TO.N,/Ctrl5*
X42470000Y-48680000D03*
G04 #@! TO.P,U1,19*
G04 #@! TO.N,Net-(U1-Pad19)*
X42470000Y-51220000D03*
G04 #@! TO.P,U1,18*
G04 #@! TO.N,Net-(U1-Pad18)*
X42470000Y-53760000D03*
G04 #@! TO.P,U1,17*
G04 #@! TO.N,GND*
X42470000Y-56300000D03*
G04 #@! TO.P,U1,16*
G04 #@! TO.N,/Vcc*
X42470000Y-58840000D03*
G04 #@! TO.P,U1,15*
G04 #@! TO.N,Net-(U1-Pad15)*
X14530000Y-58840000D03*
G04 #@! TO.P,U1,14*
G04 #@! TO.N,GND*
X14530000Y-56300000D03*
G04 #@! TO.P,U1,13*
G04 #@! TO.N,Net-(U1-Pad13)*
X14530000Y-53760000D03*
G04 #@! TO.P,U1,12*
G04 #@! TO.N,Net-(U1-Pad12)*
X14530000Y-51220000D03*
G04 #@! TO.P,U1,11*
G04 #@! TO.N,/Vcc*
X14530000Y-48680000D03*
G04 #@! TO.P,U1,10*
G04 #@! TO.N,GND*
X14530000Y-46140000D03*
G04 #@! TO.P,U1,9*
G04 #@! TO.N,Net-(U1-Pad9)*
X14530000Y-43600000D03*
G04 #@! TO.P,U1,8*
G04 #@! TO.N,Net-(U1-Pad8)*
X14530000Y-41060000D03*
G04 #@! TO.P,U1,7*
G04 #@! TO.N,Net-(U1-Pad7)*
X14530000Y-38520000D03*
G04 #@! TO.P,U1,6*
G04 #@! TO.N,Net-(U1-Pad6)*
X14530000Y-35980000D03*
G04 #@! TO.P,U1,5*
G04 #@! TO.N,Net-(U1-Pad5)*
X14530000Y-33440000D03*
G04 #@! TO.P,U1,4*
G04 #@! TO.N,Net-(U1-Pad4)*
X14530000Y-30900000D03*
G04 #@! TO.P,U1,3*
G04 #@! TO.N,Net-(U1-Pad3)*
X14530000Y-28360000D03*
G04 #@! TO.P,U1,2*
G04 #@! TO.N,GND*
X14530000Y-25820000D03*
G04 #@! TO.P,U1,1*
G04 #@! TO.N,/Vin*
X14530000Y-23280000D03*
G04 #@! TD*
D14*
G04 #@! TO.P,J2,2*
G04 #@! TO.N,Net-(J2-Pad2)*
X24130000Y-19050000D03*
D15*
G04 #@! TO.P,J2,1*
G04 #@! TO.N,GND*
X21590000Y-19050000D03*
G04 #@! TD*
G04 #@! TO.P,J1,1*
G04 #@! TO.N,GND*
X33020000Y-19050000D03*
D14*
G04 #@! TO.P,J1,2*
G04 #@! TO.N,/Vbat*
X35560000Y-19050000D03*
G04 #@! TD*
D10*
G04 #@! TO.P,Q1,1*
G04 #@! TO.N,/Ctrl1*
X29660000Y-33950000D03*
G04 #@! TO.P,Q1,2*
G04 #@! TO.N,/Vbat*
X29660000Y-32050000D03*
G04 #@! TO.P,Q1,3*
G04 #@! TO.N,Net-(Q1-Pad3)*
X27660000Y-33000000D03*
G04 #@! TD*
G04 #@! TO.P,Q2,3*
G04 #@! TO.N,Net-(Q2-Pad3)*
X27660000Y-39350000D03*
G04 #@! TO.P,Q2,2*
G04 #@! TO.N,/Vbat*
X29660000Y-38400000D03*
G04 #@! TO.P,Q2,1*
G04 #@! TO.N,/Ctrl2*
X29660000Y-40300000D03*
G04 #@! TD*
G04 #@! TO.P,Q4,3*
G04 #@! TO.N,Net-(Q4-Pad3)*
X27660000Y-52050000D03*
G04 #@! TO.P,Q4,2*
G04 #@! TO.N,/Vbat*
X29660000Y-51100000D03*
G04 #@! TO.P,Q4,1*
G04 #@! TO.N,/Ctrl4*
X29660000Y-53000000D03*
G04 #@! TD*
G04 #@! TO.P,Q5,1*
G04 #@! TO.N,/Ctrl5*
X29660000Y-59350000D03*
G04 #@! TO.P,Q5,2*
G04 #@! TO.N,/Vbat*
X29660000Y-57450000D03*
G04 #@! TO.P,Q5,3*
G04 #@! TO.N,Net-(J2-Pad2)*
X27660000Y-58400000D03*
G04 #@! TD*
D11*
G04 #@! TO.N,/Vcc*
G04 #@! TO.C,R1*
G36*
X35114505Y-33571204D02*
X35138773Y-33574804D01*
X35162572Y-33580765D01*
X35185671Y-33589030D01*
X35207850Y-33599520D01*
X35228893Y-33612132D01*
X35248599Y-33626747D01*
X35266777Y-33643223D01*
X35283253Y-33661401D01*
X35297868Y-33681107D01*
X35310480Y-33702150D01*
X35320970Y-33724329D01*
X35329235Y-33747428D01*
X35335196Y-33771227D01*
X35338796Y-33795495D01*
X35340000Y-33819999D01*
X35340000Y-34720001D01*
X35338796Y-34744505D01*
X35335196Y-34768773D01*
X35329235Y-34792572D01*
X35320970Y-34815671D01*
X35310480Y-34837850D01*
X35297868Y-34858893D01*
X35283253Y-34878599D01*
X35266777Y-34896777D01*
X35248599Y-34913253D01*
X35228893Y-34927868D01*
X35207850Y-34940480D01*
X35185671Y-34950970D01*
X35162572Y-34959235D01*
X35138773Y-34965196D01*
X35114505Y-34968796D01*
X35090001Y-34970000D01*
X34439999Y-34970000D01*
X34415495Y-34968796D01*
X34391227Y-34965196D01*
X34367428Y-34959235D01*
X34344329Y-34950970D01*
X34322150Y-34940480D01*
X34301107Y-34927868D01*
X34281401Y-34913253D01*
X34263223Y-34896777D01*
X34246747Y-34878599D01*
X34232132Y-34858893D01*
X34219520Y-34837850D01*
X34209030Y-34815671D01*
X34200765Y-34792572D01*
X34194804Y-34768773D01*
X34191204Y-34744505D01*
X34190000Y-34720001D01*
X34190000Y-33819999D01*
X34191204Y-33795495D01*
X34194804Y-33771227D01*
X34200765Y-33747428D01*
X34209030Y-33724329D01*
X34219520Y-33702150D01*
X34232132Y-33681107D01*
X34246747Y-33661401D01*
X34263223Y-33643223D01*
X34281401Y-33626747D01*
X34301107Y-33612132D01*
X34322150Y-33599520D01*
X34344329Y-33589030D01*
X34367428Y-33580765D01*
X34391227Y-33574804D01*
X34415495Y-33571204D01*
X34439999Y-33570000D01*
X35090001Y-33570000D01*
X35114505Y-33571204D01*
X35114505Y-33571204D01*
G37*
D12*
G04 #@! TD*
G04 #@! TO.P,R1,1*
G04 #@! TO.N,/Vcc*
X34765000Y-34270000D03*
D11*
G04 #@! TO.N,/Ctrl1*
G04 #@! TO.C,R1*
G36*
X33064505Y-33571204D02*
X33088773Y-33574804D01*
X33112572Y-33580765D01*
X33135671Y-33589030D01*
X33157850Y-33599520D01*
X33178893Y-33612132D01*
X33198599Y-33626747D01*
X33216777Y-33643223D01*
X33233253Y-33661401D01*
X33247868Y-33681107D01*
X33260480Y-33702150D01*
X33270970Y-33724329D01*
X33279235Y-33747428D01*
X33285196Y-33771227D01*
X33288796Y-33795495D01*
X33290000Y-33819999D01*
X33290000Y-34720001D01*
X33288796Y-34744505D01*
X33285196Y-34768773D01*
X33279235Y-34792572D01*
X33270970Y-34815671D01*
X33260480Y-34837850D01*
X33247868Y-34858893D01*
X33233253Y-34878599D01*
X33216777Y-34896777D01*
X33198599Y-34913253D01*
X33178893Y-34927868D01*
X33157850Y-34940480D01*
X33135671Y-34950970D01*
X33112572Y-34959235D01*
X33088773Y-34965196D01*
X33064505Y-34968796D01*
X33040001Y-34970000D01*
X32389999Y-34970000D01*
X32365495Y-34968796D01*
X32341227Y-34965196D01*
X32317428Y-34959235D01*
X32294329Y-34950970D01*
X32272150Y-34940480D01*
X32251107Y-34927868D01*
X32231401Y-34913253D01*
X32213223Y-34896777D01*
X32196747Y-34878599D01*
X32182132Y-34858893D01*
X32169520Y-34837850D01*
X32159030Y-34815671D01*
X32150765Y-34792572D01*
X32144804Y-34768773D01*
X32141204Y-34744505D01*
X32140000Y-34720001D01*
X32140000Y-33819999D01*
X32141204Y-33795495D01*
X32144804Y-33771227D01*
X32150765Y-33747428D01*
X32159030Y-33724329D01*
X32169520Y-33702150D01*
X32182132Y-33681107D01*
X32196747Y-33661401D01*
X32213223Y-33643223D01*
X32231401Y-33626747D01*
X32251107Y-33612132D01*
X32272150Y-33599520D01*
X32294329Y-33589030D01*
X32317428Y-33580765D01*
X32341227Y-33574804D01*
X32365495Y-33571204D01*
X32389999Y-33570000D01*
X33040001Y-33570000D01*
X33064505Y-33571204D01*
X33064505Y-33571204D01*
G37*
D12*
G04 #@! TD*
G04 #@! TO.P,R1,2*
G04 #@! TO.N,/Ctrl1*
X32715000Y-34270000D03*
D11*
G04 #@! TO.N,/Ctrl3*
G04 #@! TO.C,R3*
G36*
X33064505Y-46271204D02*
X33088773Y-46274804D01*
X33112572Y-46280765D01*
X33135671Y-46289030D01*
X33157850Y-46299520D01*
X33178893Y-46312132D01*
X33198599Y-46326747D01*
X33216777Y-46343223D01*
X33233253Y-46361401D01*
X33247868Y-46381107D01*
X33260480Y-46402150D01*
X33270970Y-46424329D01*
X33279235Y-46447428D01*
X33285196Y-46471227D01*
X33288796Y-46495495D01*
X33290000Y-46519999D01*
X33290000Y-47420001D01*
X33288796Y-47444505D01*
X33285196Y-47468773D01*
X33279235Y-47492572D01*
X33270970Y-47515671D01*
X33260480Y-47537850D01*
X33247868Y-47558893D01*
X33233253Y-47578599D01*
X33216777Y-47596777D01*
X33198599Y-47613253D01*
X33178893Y-47627868D01*
X33157850Y-47640480D01*
X33135671Y-47650970D01*
X33112572Y-47659235D01*
X33088773Y-47665196D01*
X33064505Y-47668796D01*
X33040001Y-47670000D01*
X32389999Y-47670000D01*
X32365495Y-47668796D01*
X32341227Y-47665196D01*
X32317428Y-47659235D01*
X32294329Y-47650970D01*
X32272150Y-47640480D01*
X32251107Y-47627868D01*
X32231401Y-47613253D01*
X32213223Y-47596777D01*
X32196747Y-47578599D01*
X32182132Y-47558893D01*
X32169520Y-47537850D01*
X32159030Y-47515671D01*
X32150765Y-47492572D01*
X32144804Y-47468773D01*
X32141204Y-47444505D01*
X32140000Y-47420001D01*
X32140000Y-46519999D01*
X32141204Y-46495495D01*
X32144804Y-46471227D01*
X32150765Y-46447428D01*
X32159030Y-46424329D01*
X32169520Y-46402150D01*
X32182132Y-46381107D01*
X32196747Y-46361401D01*
X32213223Y-46343223D01*
X32231401Y-46326747D01*
X32251107Y-46312132D01*
X32272150Y-46299520D01*
X32294329Y-46289030D01*
X32317428Y-46280765D01*
X32341227Y-46274804D01*
X32365495Y-46271204D01*
X32389999Y-46270000D01*
X33040001Y-46270000D01*
X33064505Y-46271204D01*
X33064505Y-46271204D01*
G37*
D12*
G04 #@! TD*
G04 #@! TO.P,R3,2*
G04 #@! TO.N,/Ctrl3*
X32715000Y-46970000D03*
D11*
G04 #@! TO.N,/Vcc*
G04 #@! TO.C,R3*
G36*
X35114505Y-46271204D02*
X35138773Y-46274804D01*
X35162572Y-46280765D01*
X35185671Y-46289030D01*
X35207850Y-46299520D01*
X35228893Y-46312132D01*
X35248599Y-46326747D01*
X35266777Y-46343223D01*
X35283253Y-46361401D01*
X35297868Y-46381107D01*
X35310480Y-46402150D01*
X35320970Y-46424329D01*
X35329235Y-46447428D01*
X35335196Y-46471227D01*
X35338796Y-46495495D01*
X35340000Y-46519999D01*
X35340000Y-47420001D01*
X35338796Y-47444505D01*
X35335196Y-47468773D01*
X35329235Y-47492572D01*
X35320970Y-47515671D01*
X35310480Y-47537850D01*
X35297868Y-47558893D01*
X35283253Y-47578599D01*
X35266777Y-47596777D01*
X35248599Y-47613253D01*
X35228893Y-47627868D01*
X35207850Y-47640480D01*
X35185671Y-47650970D01*
X35162572Y-47659235D01*
X35138773Y-47665196D01*
X35114505Y-47668796D01*
X35090001Y-47670000D01*
X34439999Y-47670000D01*
X34415495Y-47668796D01*
X34391227Y-47665196D01*
X34367428Y-47659235D01*
X34344329Y-47650970D01*
X34322150Y-47640480D01*
X34301107Y-47627868D01*
X34281401Y-47613253D01*
X34263223Y-47596777D01*
X34246747Y-47578599D01*
X34232132Y-47558893D01*
X34219520Y-47537850D01*
X34209030Y-47515671D01*
X34200765Y-47492572D01*
X34194804Y-47468773D01*
X34191204Y-47444505D01*
X34190000Y-47420001D01*
X34190000Y-46519999D01*
X34191204Y-46495495D01*
X34194804Y-46471227D01*
X34200765Y-46447428D01*
X34209030Y-46424329D01*
X34219520Y-46402150D01*
X34232132Y-46381107D01*
X34246747Y-46361401D01*
X34263223Y-46343223D01*
X34281401Y-46326747D01*
X34301107Y-46312132D01*
X34322150Y-46299520D01*
X34344329Y-46289030D01*
X34367428Y-46280765D01*
X34391227Y-46274804D01*
X34415495Y-46271204D01*
X34439999Y-46270000D01*
X35090001Y-46270000D01*
X35114505Y-46271204D01*
X35114505Y-46271204D01*
G37*
D12*
G04 #@! TD*
G04 #@! TO.P,R3,1*
G04 #@! TO.N,/Vcc*
X34765000Y-46970000D03*
D11*
G04 #@! TO.N,/Vcc*
G04 #@! TO.C,R4*
G36*
X35114505Y-52621204D02*
X35138773Y-52624804D01*
X35162572Y-52630765D01*
X35185671Y-52639030D01*
X35207850Y-52649520D01*
X35228893Y-52662132D01*
X35248599Y-52676747D01*
X35266777Y-52693223D01*
X35283253Y-52711401D01*
X35297868Y-52731107D01*
X35310480Y-52752150D01*
X35320970Y-52774329D01*
X35329235Y-52797428D01*
X35335196Y-52821227D01*
X35338796Y-52845495D01*
X35340000Y-52869999D01*
X35340000Y-53770001D01*
X35338796Y-53794505D01*
X35335196Y-53818773D01*
X35329235Y-53842572D01*
X35320970Y-53865671D01*
X35310480Y-53887850D01*
X35297868Y-53908893D01*
X35283253Y-53928599D01*
X35266777Y-53946777D01*
X35248599Y-53963253D01*
X35228893Y-53977868D01*
X35207850Y-53990480D01*
X35185671Y-54000970D01*
X35162572Y-54009235D01*
X35138773Y-54015196D01*
X35114505Y-54018796D01*
X35090001Y-54020000D01*
X34439999Y-54020000D01*
X34415495Y-54018796D01*
X34391227Y-54015196D01*
X34367428Y-54009235D01*
X34344329Y-54000970D01*
X34322150Y-53990480D01*
X34301107Y-53977868D01*
X34281401Y-53963253D01*
X34263223Y-53946777D01*
X34246747Y-53928599D01*
X34232132Y-53908893D01*
X34219520Y-53887850D01*
X34209030Y-53865671D01*
X34200765Y-53842572D01*
X34194804Y-53818773D01*
X34191204Y-53794505D01*
X34190000Y-53770001D01*
X34190000Y-52869999D01*
X34191204Y-52845495D01*
X34194804Y-52821227D01*
X34200765Y-52797428D01*
X34209030Y-52774329D01*
X34219520Y-52752150D01*
X34232132Y-52731107D01*
X34246747Y-52711401D01*
X34263223Y-52693223D01*
X34281401Y-52676747D01*
X34301107Y-52662132D01*
X34322150Y-52649520D01*
X34344329Y-52639030D01*
X34367428Y-52630765D01*
X34391227Y-52624804D01*
X34415495Y-52621204D01*
X34439999Y-52620000D01*
X35090001Y-52620000D01*
X35114505Y-52621204D01*
X35114505Y-52621204D01*
G37*
D12*
G04 #@! TD*
G04 #@! TO.P,R4,1*
G04 #@! TO.N,/Vcc*
X34765000Y-53320000D03*
D11*
G04 #@! TO.N,/Ctrl4*
G04 #@! TO.C,R4*
G36*
X33064505Y-52621204D02*
X33088773Y-52624804D01*
X33112572Y-52630765D01*
X33135671Y-52639030D01*
X33157850Y-52649520D01*
X33178893Y-52662132D01*
X33198599Y-52676747D01*
X33216777Y-52693223D01*
X33233253Y-52711401D01*
X33247868Y-52731107D01*
X33260480Y-52752150D01*
X33270970Y-52774329D01*
X33279235Y-52797428D01*
X33285196Y-52821227D01*
X33288796Y-52845495D01*
X33290000Y-52869999D01*
X33290000Y-53770001D01*
X33288796Y-53794505D01*
X33285196Y-53818773D01*
X33279235Y-53842572D01*
X33270970Y-53865671D01*
X33260480Y-53887850D01*
X33247868Y-53908893D01*
X33233253Y-53928599D01*
X33216777Y-53946777D01*
X33198599Y-53963253D01*
X33178893Y-53977868D01*
X33157850Y-53990480D01*
X33135671Y-54000970D01*
X33112572Y-54009235D01*
X33088773Y-54015196D01*
X33064505Y-54018796D01*
X33040001Y-54020000D01*
X32389999Y-54020000D01*
X32365495Y-54018796D01*
X32341227Y-54015196D01*
X32317428Y-54009235D01*
X32294329Y-54000970D01*
X32272150Y-53990480D01*
X32251107Y-53977868D01*
X32231401Y-53963253D01*
X32213223Y-53946777D01*
X32196747Y-53928599D01*
X32182132Y-53908893D01*
X32169520Y-53887850D01*
X32159030Y-53865671D01*
X32150765Y-53842572D01*
X32144804Y-53818773D01*
X32141204Y-53794505D01*
X32140000Y-53770001D01*
X32140000Y-52869999D01*
X32141204Y-52845495D01*
X32144804Y-52821227D01*
X32150765Y-52797428D01*
X32159030Y-52774329D01*
X32169520Y-52752150D01*
X32182132Y-52731107D01*
X32196747Y-52711401D01*
X32213223Y-52693223D01*
X32231401Y-52676747D01*
X32251107Y-52662132D01*
X32272150Y-52649520D01*
X32294329Y-52639030D01*
X32317428Y-52630765D01*
X32341227Y-52624804D01*
X32365495Y-52621204D01*
X32389999Y-52620000D01*
X33040001Y-52620000D01*
X33064505Y-52621204D01*
X33064505Y-52621204D01*
G37*
D12*
G04 #@! TD*
G04 #@! TO.P,R4,2*
G04 #@! TO.N,/Ctrl4*
X32715000Y-53320000D03*
D11*
G04 #@! TO.N,/Ctrl5*
G04 #@! TO.C,R5*
G36*
X33064505Y-56451204D02*
X33088773Y-56454804D01*
X33112572Y-56460765D01*
X33135671Y-56469030D01*
X33157850Y-56479520D01*
X33178893Y-56492132D01*
X33198599Y-56506747D01*
X33216777Y-56523223D01*
X33233253Y-56541401D01*
X33247868Y-56561107D01*
X33260480Y-56582150D01*
X33270970Y-56604329D01*
X33279235Y-56627428D01*
X33285196Y-56651227D01*
X33288796Y-56675495D01*
X33290000Y-56699999D01*
X33290000Y-57600001D01*
X33288796Y-57624505D01*
X33285196Y-57648773D01*
X33279235Y-57672572D01*
X33270970Y-57695671D01*
X33260480Y-57717850D01*
X33247868Y-57738893D01*
X33233253Y-57758599D01*
X33216777Y-57776777D01*
X33198599Y-57793253D01*
X33178893Y-57807868D01*
X33157850Y-57820480D01*
X33135671Y-57830970D01*
X33112572Y-57839235D01*
X33088773Y-57845196D01*
X33064505Y-57848796D01*
X33040001Y-57850000D01*
X32389999Y-57850000D01*
X32365495Y-57848796D01*
X32341227Y-57845196D01*
X32317428Y-57839235D01*
X32294329Y-57830970D01*
X32272150Y-57820480D01*
X32251107Y-57807868D01*
X32231401Y-57793253D01*
X32213223Y-57776777D01*
X32196747Y-57758599D01*
X32182132Y-57738893D01*
X32169520Y-57717850D01*
X32159030Y-57695671D01*
X32150765Y-57672572D01*
X32144804Y-57648773D01*
X32141204Y-57624505D01*
X32140000Y-57600001D01*
X32140000Y-56699999D01*
X32141204Y-56675495D01*
X32144804Y-56651227D01*
X32150765Y-56627428D01*
X32159030Y-56604329D01*
X32169520Y-56582150D01*
X32182132Y-56561107D01*
X32196747Y-56541401D01*
X32213223Y-56523223D01*
X32231401Y-56506747D01*
X32251107Y-56492132D01*
X32272150Y-56479520D01*
X32294329Y-56469030D01*
X32317428Y-56460765D01*
X32341227Y-56454804D01*
X32365495Y-56451204D01*
X32389999Y-56450000D01*
X33040001Y-56450000D01*
X33064505Y-56451204D01*
X33064505Y-56451204D01*
G37*
D12*
G04 #@! TD*
G04 #@! TO.P,R5,2*
G04 #@! TO.N,/Ctrl5*
X32715000Y-57150000D03*
D11*
G04 #@! TO.N,/Vcc*
G04 #@! TO.C,R5*
G36*
X35114505Y-56451204D02*
X35138773Y-56454804D01*
X35162572Y-56460765D01*
X35185671Y-56469030D01*
X35207850Y-56479520D01*
X35228893Y-56492132D01*
X35248599Y-56506747D01*
X35266777Y-56523223D01*
X35283253Y-56541401D01*
X35297868Y-56561107D01*
X35310480Y-56582150D01*
X35320970Y-56604329D01*
X35329235Y-56627428D01*
X35335196Y-56651227D01*
X35338796Y-56675495D01*
X35340000Y-56699999D01*
X35340000Y-57600001D01*
X35338796Y-57624505D01*
X35335196Y-57648773D01*
X35329235Y-57672572D01*
X35320970Y-57695671D01*
X35310480Y-57717850D01*
X35297868Y-57738893D01*
X35283253Y-57758599D01*
X35266777Y-57776777D01*
X35248599Y-57793253D01*
X35228893Y-57807868D01*
X35207850Y-57820480D01*
X35185671Y-57830970D01*
X35162572Y-57839235D01*
X35138773Y-57845196D01*
X35114505Y-57848796D01*
X35090001Y-57850000D01*
X34439999Y-57850000D01*
X34415495Y-57848796D01*
X34391227Y-57845196D01*
X34367428Y-57839235D01*
X34344329Y-57830970D01*
X34322150Y-57820480D01*
X34301107Y-57807868D01*
X34281401Y-57793253D01*
X34263223Y-57776777D01*
X34246747Y-57758599D01*
X34232132Y-57738893D01*
X34219520Y-57717850D01*
X34209030Y-57695671D01*
X34200765Y-57672572D01*
X34194804Y-57648773D01*
X34191204Y-57624505D01*
X34190000Y-57600001D01*
X34190000Y-56699999D01*
X34191204Y-56675495D01*
X34194804Y-56651227D01*
X34200765Y-56627428D01*
X34209030Y-56604329D01*
X34219520Y-56582150D01*
X34232132Y-56561107D01*
X34246747Y-56541401D01*
X34263223Y-56523223D01*
X34281401Y-56506747D01*
X34301107Y-56492132D01*
X34322150Y-56479520D01*
X34344329Y-56469030D01*
X34367428Y-56460765D01*
X34391227Y-56454804D01*
X34415495Y-56451204D01*
X34439999Y-56450000D01*
X35090001Y-56450000D01*
X35114505Y-56451204D01*
X35114505Y-56451204D01*
G37*
D12*
G04 #@! TD*
G04 #@! TO.P,R5,1*
G04 #@! TO.N,/Vcc*
X34765000Y-57150000D03*
D11*
G04 #@! TO.N,GND*
G04 #@! TO.C,RL1*
G36*
X22904505Y-32301204D02*
X22928773Y-32304804D01*
X22952572Y-32310765D01*
X22975671Y-32319030D01*
X22997850Y-32329520D01*
X23018893Y-32342132D01*
X23038599Y-32356747D01*
X23056777Y-32373223D01*
X23073253Y-32391401D01*
X23087868Y-32411107D01*
X23100480Y-32432150D01*
X23110970Y-32454329D01*
X23119235Y-32477428D01*
X23125196Y-32501227D01*
X23128796Y-32525495D01*
X23130000Y-32549999D01*
X23130000Y-33450001D01*
X23128796Y-33474505D01*
X23125196Y-33498773D01*
X23119235Y-33522572D01*
X23110970Y-33545671D01*
X23100480Y-33567850D01*
X23087868Y-33588893D01*
X23073253Y-33608599D01*
X23056777Y-33626777D01*
X23038599Y-33643253D01*
X23018893Y-33657868D01*
X22997850Y-33670480D01*
X22975671Y-33680970D01*
X22952572Y-33689235D01*
X22928773Y-33695196D01*
X22904505Y-33698796D01*
X22880001Y-33700000D01*
X22229999Y-33700000D01*
X22205495Y-33698796D01*
X22181227Y-33695196D01*
X22157428Y-33689235D01*
X22134329Y-33680970D01*
X22112150Y-33670480D01*
X22091107Y-33657868D01*
X22071401Y-33643253D01*
X22053223Y-33626777D01*
X22036747Y-33608599D01*
X22022132Y-33588893D01*
X22009520Y-33567850D01*
X21999030Y-33545671D01*
X21990765Y-33522572D01*
X21984804Y-33498773D01*
X21981204Y-33474505D01*
X21980000Y-33450001D01*
X21980000Y-32549999D01*
X21981204Y-32525495D01*
X21984804Y-32501227D01*
X21990765Y-32477428D01*
X21999030Y-32454329D01*
X22009520Y-32432150D01*
X22022132Y-32411107D01*
X22036747Y-32391401D01*
X22053223Y-32373223D01*
X22071401Y-32356747D01*
X22091107Y-32342132D01*
X22112150Y-32329520D01*
X22134329Y-32319030D01*
X22157428Y-32310765D01*
X22181227Y-32304804D01*
X22205495Y-32301204D01*
X22229999Y-32300000D01*
X22880001Y-32300000D01*
X22904505Y-32301204D01*
X22904505Y-32301204D01*
G37*
D12*
G04 #@! TD*
G04 #@! TO.P,RL1,1*
G04 #@! TO.N,GND*
X22555000Y-33000000D03*
D11*
G04 #@! TO.N,Net-(Q1-Pad3)*
G04 #@! TO.C,RL1*
G36*
X24954505Y-32301204D02*
X24978773Y-32304804D01*
X25002572Y-32310765D01*
X25025671Y-32319030D01*
X25047850Y-32329520D01*
X25068893Y-32342132D01*
X25088599Y-32356747D01*
X25106777Y-32373223D01*
X25123253Y-32391401D01*
X25137868Y-32411107D01*
X25150480Y-32432150D01*
X25160970Y-32454329D01*
X25169235Y-32477428D01*
X25175196Y-32501227D01*
X25178796Y-32525495D01*
X25180000Y-32549999D01*
X25180000Y-33450001D01*
X25178796Y-33474505D01*
X25175196Y-33498773D01*
X25169235Y-33522572D01*
X25160970Y-33545671D01*
X25150480Y-33567850D01*
X25137868Y-33588893D01*
X25123253Y-33608599D01*
X25106777Y-33626777D01*
X25088599Y-33643253D01*
X25068893Y-33657868D01*
X25047850Y-33670480D01*
X25025671Y-33680970D01*
X25002572Y-33689235D01*
X24978773Y-33695196D01*
X24954505Y-33698796D01*
X24930001Y-33700000D01*
X24279999Y-33700000D01*
X24255495Y-33698796D01*
X24231227Y-33695196D01*
X24207428Y-33689235D01*
X24184329Y-33680970D01*
X24162150Y-33670480D01*
X24141107Y-33657868D01*
X24121401Y-33643253D01*
X24103223Y-33626777D01*
X24086747Y-33608599D01*
X24072132Y-33588893D01*
X24059520Y-33567850D01*
X24049030Y-33545671D01*
X24040765Y-33522572D01*
X24034804Y-33498773D01*
X24031204Y-33474505D01*
X24030000Y-33450001D01*
X24030000Y-32549999D01*
X24031204Y-32525495D01*
X24034804Y-32501227D01*
X24040765Y-32477428D01*
X24049030Y-32454329D01*
X24059520Y-32432150D01*
X24072132Y-32411107D01*
X24086747Y-32391401D01*
X24103223Y-32373223D01*
X24121401Y-32356747D01*
X24141107Y-32342132D01*
X24162150Y-32329520D01*
X24184329Y-32319030D01*
X24207428Y-32310765D01*
X24231227Y-32304804D01*
X24255495Y-32301204D01*
X24279999Y-32300000D01*
X24930001Y-32300000D01*
X24954505Y-32301204D01*
X24954505Y-32301204D01*
G37*
D12*
G04 #@! TD*
G04 #@! TO.P,RL1,2*
G04 #@! TO.N,Net-(Q1-Pad3)*
X24605000Y-33000000D03*
D11*
G04 #@! TO.N,Net-(Q2-Pad3)*
G04 #@! TO.C,RL2*
G36*
X24954505Y-38651204D02*
X24978773Y-38654804D01*
X25002572Y-38660765D01*
X25025671Y-38669030D01*
X25047850Y-38679520D01*
X25068893Y-38692132D01*
X25088599Y-38706747D01*
X25106777Y-38723223D01*
X25123253Y-38741401D01*
X25137868Y-38761107D01*
X25150480Y-38782150D01*
X25160970Y-38804329D01*
X25169235Y-38827428D01*
X25175196Y-38851227D01*
X25178796Y-38875495D01*
X25180000Y-38899999D01*
X25180000Y-39800001D01*
X25178796Y-39824505D01*
X25175196Y-39848773D01*
X25169235Y-39872572D01*
X25160970Y-39895671D01*
X25150480Y-39917850D01*
X25137868Y-39938893D01*
X25123253Y-39958599D01*
X25106777Y-39976777D01*
X25088599Y-39993253D01*
X25068893Y-40007868D01*
X25047850Y-40020480D01*
X25025671Y-40030970D01*
X25002572Y-40039235D01*
X24978773Y-40045196D01*
X24954505Y-40048796D01*
X24930001Y-40050000D01*
X24279999Y-40050000D01*
X24255495Y-40048796D01*
X24231227Y-40045196D01*
X24207428Y-40039235D01*
X24184329Y-40030970D01*
X24162150Y-40020480D01*
X24141107Y-40007868D01*
X24121401Y-39993253D01*
X24103223Y-39976777D01*
X24086747Y-39958599D01*
X24072132Y-39938893D01*
X24059520Y-39917850D01*
X24049030Y-39895671D01*
X24040765Y-39872572D01*
X24034804Y-39848773D01*
X24031204Y-39824505D01*
X24030000Y-39800001D01*
X24030000Y-38899999D01*
X24031204Y-38875495D01*
X24034804Y-38851227D01*
X24040765Y-38827428D01*
X24049030Y-38804329D01*
X24059520Y-38782150D01*
X24072132Y-38761107D01*
X24086747Y-38741401D01*
X24103223Y-38723223D01*
X24121401Y-38706747D01*
X24141107Y-38692132D01*
X24162150Y-38679520D01*
X24184329Y-38669030D01*
X24207428Y-38660765D01*
X24231227Y-38654804D01*
X24255495Y-38651204D01*
X24279999Y-38650000D01*
X24930001Y-38650000D01*
X24954505Y-38651204D01*
X24954505Y-38651204D01*
G37*
D12*
G04 #@! TD*
G04 #@! TO.P,RL2,2*
G04 #@! TO.N,Net-(Q2-Pad3)*
X24605000Y-39350000D03*
D11*
G04 #@! TO.N,GND*
G04 #@! TO.C,RL2*
G36*
X22904505Y-38651204D02*
X22928773Y-38654804D01*
X22952572Y-38660765D01*
X22975671Y-38669030D01*
X22997850Y-38679520D01*
X23018893Y-38692132D01*
X23038599Y-38706747D01*
X23056777Y-38723223D01*
X23073253Y-38741401D01*
X23087868Y-38761107D01*
X23100480Y-38782150D01*
X23110970Y-38804329D01*
X23119235Y-38827428D01*
X23125196Y-38851227D01*
X23128796Y-38875495D01*
X23130000Y-38899999D01*
X23130000Y-39800001D01*
X23128796Y-39824505D01*
X23125196Y-39848773D01*
X23119235Y-39872572D01*
X23110970Y-39895671D01*
X23100480Y-39917850D01*
X23087868Y-39938893D01*
X23073253Y-39958599D01*
X23056777Y-39976777D01*
X23038599Y-39993253D01*
X23018893Y-40007868D01*
X22997850Y-40020480D01*
X22975671Y-40030970D01*
X22952572Y-40039235D01*
X22928773Y-40045196D01*
X22904505Y-40048796D01*
X22880001Y-40050000D01*
X22229999Y-40050000D01*
X22205495Y-40048796D01*
X22181227Y-40045196D01*
X22157428Y-40039235D01*
X22134329Y-40030970D01*
X22112150Y-40020480D01*
X22091107Y-40007868D01*
X22071401Y-39993253D01*
X22053223Y-39976777D01*
X22036747Y-39958599D01*
X22022132Y-39938893D01*
X22009520Y-39917850D01*
X21999030Y-39895671D01*
X21990765Y-39872572D01*
X21984804Y-39848773D01*
X21981204Y-39824505D01*
X21980000Y-39800001D01*
X21980000Y-38899999D01*
X21981204Y-38875495D01*
X21984804Y-38851227D01*
X21990765Y-38827428D01*
X21999030Y-38804329D01*
X22009520Y-38782150D01*
X22022132Y-38761107D01*
X22036747Y-38741401D01*
X22053223Y-38723223D01*
X22071401Y-38706747D01*
X22091107Y-38692132D01*
X22112150Y-38679520D01*
X22134329Y-38669030D01*
X22157428Y-38660765D01*
X22181227Y-38654804D01*
X22205495Y-38651204D01*
X22229999Y-38650000D01*
X22880001Y-38650000D01*
X22904505Y-38651204D01*
X22904505Y-38651204D01*
G37*
D12*
G04 #@! TD*
G04 #@! TO.P,RL2,1*
G04 #@! TO.N,GND*
X22555000Y-39350000D03*
D11*
G04 #@! TO.N,GND*
G04 #@! TO.C,RL3*
G36*
X22904505Y-45001204D02*
X22928773Y-45004804D01*
X22952572Y-45010765D01*
X22975671Y-45019030D01*
X22997850Y-45029520D01*
X23018893Y-45042132D01*
X23038599Y-45056747D01*
X23056777Y-45073223D01*
X23073253Y-45091401D01*
X23087868Y-45111107D01*
X23100480Y-45132150D01*
X23110970Y-45154329D01*
X23119235Y-45177428D01*
X23125196Y-45201227D01*
X23128796Y-45225495D01*
X23130000Y-45249999D01*
X23130000Y-46150001D01*
X23128796Y-46174505D01*
X23125196Y-46198773D01*
X23119235Y-46222572D01*
X23110970Y-46245671D01*
X23100480Y-46267850D01*
X23087868Y-46288893D01*
X23073253Y-46308599D01*
X23056777Y-46326777D01*
X23038599Y-46343253D01*
X23018893Y-46357868D01*
X22997850Y-46370480D01*
X22975671Y-46380970D01*
X22952572Y-46389235D01*
X22928773Y-46395196D01*
X22904505Y-46398796D01*
X22880001Y-46400000D01*
X22229999Y-46400000D01*
X22205495Y-46398796D01*
X22181227Y-46395196D01*
X22157428Y-46389235D01*
X22134329Y-46380970D01*
X22112150Y-46370480D01*
X22091107Y-46357868D01*
X22071401Y-46343253D01*
X22053223Y-46326777D01*
X22036747Y-46308599D01*
X22022132Y-46288893D01*
X22009520Y-46267850D01*
X21999030Y-46245671D01*
X21990765Y-46222572D01*
X21984804Y-46198773D01*
X21981204Y-46174505D01*
X21980000Y-46150001D01*
X21980000Y-45249999D01*
X21981204Y-45225495D01*
X21984804Y-45201227D01*
X21990765Y-45177428D01*
X21999030Y-45154329D01*
X22009520Y-45132150D01*
X22022132Y-45111107D01*
X22036747Y-45091401D01*
X22053223Y-45073223D01*
X22071401Y-45056747D01*
X22091107Y-45042132D01*
X22112150Y-45029520D01*
X22134329Y-45019030D01*
X22157428Y-45010765D01*
X22181227Y-45004804D01*
X22205495Y-45001204D01*
X22229999Y-45000000D01*
X22880001Y-45000000D01*
X22904505Y-45001204D01*
X22904505Y-45001204D01*
G37*
D12*
G04 #@! TD*
G04 #@! TO.P,RL3,1*
G04 #@! TO.N,GND*
X22555000Y-45700000D03*
D11*
G04 #@! TO.N,Net-(Q3-Pad3)*
G04 #@! TO.C,RL3*
G36*
X24954505Y-45001204D02*
X24978773Y-45004804D01*
X25002572Y-45010765D01*
X25025671Y-45019030D01*
X25047850Y-45029520D01*
X25068893Y-45042132D01*
X25088599Y-45056747D01*
X25106777Y-45073223D01*
X25123253Y-45091401D01*
X25137868Y-45111107D01*
X25150480Y-45132150D01*
X25160970Y-45154329D01*
X25169235Y-45177428D01*
X25175196Y-45201227D01*
X25178796Y-45225495D01*
X25180000Y-45249999D01*
X25180000Y-46150001D01*
X25178796Y-46174505D01*
X25175196Y-46198773D01*
X25169235Y-46222572D01*
X25160970Y-46245671D01*
X25150480Y-46267850D01*
X25137868Y-46288893D01*
X25123253Y-46308599D01*
X25106777Y-46326777D01*
X25088599Y-46343253D01*
X25068893Y-46357868D01*
X25047850Y-46370480D01*
X25025671Y-46380970D01*
X25002572Y-46389235D01*
X24978773Y-46395196D01*
X24954505Y-46398796D01*
X24930001Y-46400000D01*
X24279999Y-46400000D01*
X24255495Y-46398796D01*
X24231227Y-46395196D01*
X24207428Y-46389235D01*
X24184329Y-46380970D01*
X24162150Y-46370480D01*
X24141107Y-46357868D01*
X24121401Y-46343253D01*
X24103223Y-46326777D01*
X24086747Y-46308599D01*
X24072132Y-46288893D01*
X24059520Y-46267850D01*
X24049030Y-46245671D01*
X24040765Y-46222572D01*
X24034804Y-46198773D01*
X24031204Y-46174505D01*
X24030000Y-46150001D01*
X24030000Y-45249999D01*
X24031204Y-45225495D01*
X24034804Y-45201227D01*
X24040765Y-45177428D01*
X24049030Y-45154329D01*
X24059520Y-45132150D01*
X24072132Y-45111107D01*
X24086747Y-45091401D01*
X24103223Y-45073223D01*
X24121401Y-45056747D01*
X24141107Y-45042132D01*
X24162150Y-45029520D01*
X24184329Y-45019030D01*
X24207428Y-45010765D01*
X24231227Y-45004804D01*
X24255495Y-45001204D01*
X24279999Y-45000000D01*
X24930001Y-45000000D01*
X24954505Y-45001204D01*
X24954505Y-45001204D01*
G37*
D12*
G04 #@! TD*
G04 #@! TO.P,RL3,2*
G04 #@! TO.N,Net-(Q3-Pad3)*
X24605000Y-45700000D03*
D11*
G04 #@! TO.N,Net-(Q4-Pad3)*
G04 #@! TO.C,RL4*
G36*
X24954505Y-51351204D02*
X24978773Y-51354804D01*
X25002572Y-51360765D01*
X25025671Y-51369030D01*
X25047850Y-51379520D01*
X25068893Y-51392132D01*
X25088599Y-51406747D01*
X25106777Y-51423223D01*
X25123253Y-51441401D01*
X25137868Y-51461107D01*
X25150480Y-51482150D01*
X25160970Y-51504329D01*
X25169235Y-51527428D01*
X25175196Y-51551227D01*
X25178796Y-51575495D01*
X25180000Y-51599999D01*
X25180000Y-52500001D01*
X25178796Y-52524505D01*
X25175196Y-52548773D01*
X25169235Y-52572572D01*
X25160970Y-52595671D01*
X25150480Y-52617850D01*
X25137868Y-52638893D01*
X25123253Y-52658599D01*
X25106777Y-52676777D01*
X25088599Y-52693253D01*
X25068893Y-52707868D01*
X25047850Y-52720480D01*
X25025671Y-52730970D01*
X25002572Y-52739235D01*
X24978773Y-52745196D01*
X24954505Y-52748796D01*
X24930001Y-52750000D01*
X24279999Y-52750000D01*
X24255495Y-52748796D01*
X24231227Y-52745196D01*
X24207428Y-52739235D01*
X24184329Y-52730970D01*
X24162150Y-52720480D01*
X24141107Y-52707868D01*
X24121401Y-52693253D01*
X24103223Y-52676777D01*
X24086747Y-52658599D01*
X24072132Y-52638893D01*
X24059520Y-52617850D01*
X24049030Y-52595671D01*
X24040765Y-52572572D01*
X24034804Y-52548773D01*
X24031204Y-52524505D01*
X24030000Y-52500001D01*
X24030000Y-51599999D01*
X24031204Y-51575495D01*
X24034804Y-51551227D01*
X24040765Y-51527428D01*
X24049030Y-51504329D01*
X24059520Y-51482150D01*
X24072132Y-51461107D01*
X24086747Y-51441401D01*
X24103223Y-51423223D01*
X24121401Y-51406747D01*
X24141107Y-51392132D01*
X24162150Y-51379520D01*
X24184329Y-51369030D01*
X24207428Y-51360765D01*
X24231227Y-51354804D01*
X24255495Y-51351204D01*
X24279999Y-51350000D01*
X24930001Y-51350000D01*
X24954505Y-51351204D01*
X24954505Y-51351204D01*
G37*
D12*
G04 #@! TD*
G04 #@! TO.P,RL4,2*
G04 #@! TO.N,Net-(Q4-Pad3)*
X24605000Y-52050000D03*
D11*
G04 #@! TO.N,GND*
G04 #@! TO.C,RL4*
G36*
X22904505Y-51351204D02*
X22928773Y-51354804D01*
X22952572Y-51360765D01*
X22975671Y-51369030D01*
X22997850Y-51379520D01*
X23018893Y-51392132D01*
X23038599Y-51406747D01*
X23056777Y-51423223D01*
X23073253Y-51441401D01*
X23087868Y-51461107D01*
X23100480Y-51482150D01*
X23110970Y-51504329D01*
X23119235Y-51527428D01*
X23125196Y-51551227D01*
X23128796Y-51575495D01*
X23130000Y-51599999D01*
X23130000Y-52500001D01*
X23128796Y-52524505D01*
X23125196Y-52548773D01*
X23119235Y-52572572D01*
X23110970Y-52595671D01*
X23100480Y-52617850D01*
X23087868Y-52638893D01*
X23073253Y-52658599D01*
X23056777Y-52676777D01*
X23038599Y-52693253D01*
X23018893Y-52707868D01*
X22997850Y-52720480D01*
X22975671Y-52730970D01*
X22952572Y-52739235D01*
X22928773Y-52745196D01*
X22904505Y-52748796D01*
X22880001Y-52750000D01*
X22229999Y-52750000D01*
X22205495Y-52748796D01*
X22181227Y-52745196D01*
X22157428Y-52739235D01*
X22134329Y-52730970D01*
X22112150Y-52720480D01*
X22091107Y-52707868D01*
X22071401Y-52693253D01*
X22053223Y-52676777D01*
X22036747Y-52658599D01*
X22022132Y-52638893D01*
X22009520Y-52617850D01*
X21999030Y-52595671D01*
X21990765Y-52572572D01*
X21984804Y-52548773D01*
X21981204Y-52524505D01*
X21980000Y-52500001D01*
X21980000Y-51599999D01*
X21981204Y-51575495D01*
X21984804Y-51551227D01*
X21990765Y-51527428D01*
X21999030Y-51504329D01*
X22009520Y-51482150D01*
X22022132Y-51461107D01*
X22036747Y-51441401D01*
X22053223Y-51423223D01*
X22071401Y-51406747D01*
X22091107Y-51392132D01*
X22112150Y-51379520D01*
X22134329Y-51369030D01*
X22157428Y-51360765D01*
X22181227Y-51354804D01*
X22205495Y-51351204D01*
X22229999Y-51350000D01*
X22880001Y-51350000D01*
X22904505Y-51351204D01*
X22904505Y-51351204D01*
G37*
D12*
G04 #@! TD*
G04 #@! TO.P,RL4,1*
G04 #@! TO.N,GND*
X22555000Y-52050000D03*
D11*
G04 #@! TO.N,/Vcc*
G04 #@! TO.C,R2*
G36*
X35114505Y-39921204D02*
X35138773Y-39924804D01*
X35162572Y-39930765D01*
X35185671Y-39939030D01*
X35207850Y-39949520D01*
X35228893Y-39962132D01*
X35248599Y-39976747D01*
X35266777Y-39993223D01*
X35283253Y-40011401D01*
X35297868Y-40031107D01*
X35310480Y-40052150D01*
X35320970Y-40074329D01*
X35329235Y-40097428D01*
X35335196Y-40121227D01*
X35338796Y-40145495D01*
X35340000Y-40169999D01*
X35340000Y-41070001D01*
X35338796Y-41094505D01*
X35335196Y-41118773D01*
X35329235Y-41142572D01*
X35320970Y-41165671D01*
X35310480Y-41187850D01*
X35297868Y-41208893D01*
X35283253Y-41228599D01*
X35266777Y-41246777D01*
X35248599Y-41263253D01*
X35228893Y-41277868D01*
X35207850Y-41290480D01*
X35185671Y-41300970D01*
X35162572Y-41309235D01*
X35138773Y-41315196D01*
X35114505Y-41318796D01*
X35090001Y-41320000D01*
X34439999Y-41320000D01*
X34415495Y-41318796D01*
X34391227Y-41315196D01*
X34367428Y-41309235D01*
X34344329Y-41300970D01*
X34322150Y-41290480D01*
X34301107Y-41277868D01*
X34281401Y-41263253D01*
X34263223Y-41246777D01*
X34246747Y-41228599D01*
X34232132Y-41208893D01*
X34219520Y-41187850D01*
X34209030Y-41165671D01*
X34200765Y-41142572D01*
X34194804Y-41118773D01*
X34191204Y-41094505D01*
X34190000Y-41070001D01*
X34190000Y-40169999D01*
X34191204Y-40145495D01*
X34194804Y-40121227D01*
X34200765Y-40097428D01*
X34209030Y-40074329D01*
X34219520Y-40052150D01*
X34232132Y-40031107D01*
X34246747Y-40011401D01*
X34263223Y-39993223D01*
X34281401Y-39976747D01*
X34301107Y-39962132D01*
X34322150Y-39949520D01*
X34344329Y-39939030D01*
X34367428Y-39930765D01*
X34391227Y-39924804D01*
X34415495Y-39921204D01*
X34439999Y-39920000D01*
X35090001Y-39920000D01*
X35114505Y-39921204D01*
X35114505Y-39921204D01*
G37*
D12*
G04 #@! TD*
G04 #@! TO.P,R2,1*
G04 #@! TO.N,/Vcc*
X34765000Y-40620000D03*
D11*
G04 #@! TO.N,/Ctrl2*
G04 #@! TO.C,R2*
G36*
X33064505Y-39921204D02*
X33088773Y-39924804D01*
X33112572Y-39930765D01*
X33135671Y-39939030D01*
X33157850Y-39949520D01*
X33178893Y-39962132D01*
X33198599Y-39976747D01*
X33216777Y-39993223D01*
X33233253Y-40011401D01*
X33247868Y-40031107D01*
X33260480Y-40052150D01*
X33270970Y-40074329D01*
X33279235Y-40097428D01*
X33285196Y-40121227D01*
X33288796Y-40145495D01*
X33290000Y-40169999D01*
X33290000Y-41070001D01*
X33288796Y-41094505D01*
X33285196Y-41118773D01*
X33279235Y-41142572D01*
X33270970Y-41165671D01*
X33260480Y-41187850D01*
X33247868Y-41208893D01*
X33233253Y-41228599D01*
X33216777Y-41246777D01*
X33198599Y-41263253D01*
X33178893Y-41277868D01*
X33157850Y-41290480D01*
X33135671Y-41300970D01*
X33112572Y-41309235D01*
X33088773Y-41315196D01*
X33064505Y-41318796D01*
X33040001Y-41320000D01*
X32389999Y-41320000D01*
X32365495Y-41318796D01*
X32341227Y-41315196D01*
X32317428Y-41309235D01*
X32294329Y-41300970D01*
X32272150Y-41290480D01*
X32251107Y-41277868D01*
X32231401Y-41263253D01*
X32213223Y-41246777D01*
X32196747Y-41228599D01*
X32182132Y-41208893D01*
X32169520Y-41187850D01*
X32159030Y-41165671D01*
X32150765Y-41142572D01*
X32144804Y-41118773D01*
X32141204Y-41094505D01*
X32140000Y-41070001D01*
X32140000Y-40169999D01*
X32141204Y-40145495D01*
X32144804Y-40121227D01*
X32150765Y-40097428D01*
X32159030Y-40074329D01*
X32169520Y-40052150D01*
X32182132Y-40031107D01*
X32196747Y-40011401D01*
X32213223Y-39993223D01*
X32231401Y-39976747D01*
X32251107Y-39962132D01*
X32272150Y-39949520D01*
X32294329Y-39939030D01*
X32317428Y-39930765D01*
X32341227Y-39924804D01*
X32365495Y-39921204D01*
X32389999Y-39920000D01*
X33040001Y-39920000D01*
X33064505Y-39921204D01*
X33064505Y-39921204D01*
G37*
D12*
G04 #@! TD*
G04 #@! TO.P,R2,2*
G04 #@! TO.N,/Ctrl2*
X32715000Y-40620000D03*
D16*
G04 #@! TO.N,/Ctrl1*
X21300000Y-68800000D03*
X32730000Y-33020000D03*
G04 #@! TO.N,/Ctrl2*
X24900000Y-68800000D03*
X33020000Y-38100000D03*
G04 #@! TO.N,/Ctrl3*
X28500000Y-68800000D03*
X33020000Y-44450000D03*
G04 #@! TO.N,/Ctrl4*
X32100000Y-68800000D03*
X33020000Y-50800000D03*
G04 #@! TO.N,/Ctrl5*
X31750000Y-59055000D03*
X35700000Y-68800000D03*
G04 #@! TO.N,/Vbat*
X25400000Y-30480000D03*
X25400000Y-36830000D03*
X25400000Y-43180000D03*
X25400000Y-49530000D03*
X25400000Y-55880000D03*
G04 #@! TO.N,Net-(J2-Pad2)*
X25400000Y-58420000D03*
G04 #@! TD*
D17*
G04 #@! TO.N,/Ctrl1*
X32395000Y-33950000D02*
X32715000Y-34270000D01*
X29660000Y-33950000D02*
X32395000Y-33950000D01*
X41708001Y-24041999D02*
X42470000Y-23280000D01*
X32715000Y-33035000D02*
X32730000Y-33020000D01*
X32715000Y-34270000D02*
X32715000Y-33035000D01*
X21300833Y-68799167D02*
X21300000Y-68800000D01*
X21300833Y-66934934D02*
X21300833Y-68799167D01*
G04 #@! TO.N,/Ctrl2*
X32395000Y-40300000D02*
X32715000Y-40620000D01*
X29660000Y-40300000D02*
X32395000Y-40300000D01*
X33020000Y-40315000D02*
X33020000Y-38100000D01*
X32715000Y-40620000D02*
X33020000Y-40315000D01*
X24900000Y-66925000D02*
X24900000Y-68800000D01*
G04 #@! TO.N,/Ctrl3*
X32395000Y-46650000D02*
X32715000Y-46970000D01*
X29660000Y-46650000D02*
X32395000Y-46650000D01*
X33020000Y-46665000D02*
X33020000Y-44450000D01*
X32715000Y-46970000D02*
X33020000Y-46665000D01*
X28500000Y-66925000D02*
X28500000Y-68800000D01*
G04 #@! TO.N,/Ctrl4*
X32395000Y-53000000D02*
X32715000Y-53320000D01*
X29660000Y-53000000D02*
X32395000Y-53000000D01*
X33020000Y-53015000D02*
X33020000Y-50800000D01*
X32715000Y-53320000D02*
X33020000Y-53015000D01*
X32100000Y-66925000D02*
X32100000Y-68800000D01*
G04 #@! TO.N,/Ctrl5*
X32715000Y-58090000D02*
X31750000Y-59055000D01*
X32715000Y-57150000D02*
X32715000Y-58090000D01*
X31455000Y-59350000D02*
X31750000Y-59055000D01*
X29660000Y-59350000D02*
X31455000Y-59350000D01*
X35700000Y-68800000D02*
X35700000Y-66925000D01*
G04 #@! TO.N,GND*
X18305000Y-56300000D02*
X22555000Y-52050000D01*
X14530000Y-56300000D02*
X18305000Y-56300000D01*
X22555000Y-52050000D02*
X22555000Y-45700000D01*
X22555000Y-33000000D02*
X22555000Y-39350000D01*
X22555000Y-39350000D02*
X22555000Y-45700000D01*
G04 #@! TO.N,/Vcc*
X34765000Y-57150000D02*
X34765000Y-60960000D01*
X40350000Y-60960000D02*
X42470000Y-58840000D01*
X34765000Y-60960000D02*
X40350000Y-60960000D01*
X34765000Y-46970000D02*
X34765000Y-53320000D01*
X34765000Y-40620000D02*
X34765000Y-46970000D01*
X34765000Y-34270000D02*
X34765000Y-40620000D01*
X34765000Y-57150000D02*
X34765000Y-53320000D01*
G04 #@! TO.N,/Vbat*
X29660000Y-31150000D02*
X29660000Y-32050000D01*
X24605000Y-27940000D02*
X26450000Y-27940000D01*
X25400000Y-30480000D02*
X28990000Y-30480000D01*
X26450000Y-27940000D02*
X28990000Y-30480000D01*
X28990000Y-30480000D02*
X29660000Y-31150000D01*
X29660000Y-37500000D02*
X29660000Y-38400000D01*
X28990000Y-36830000D02*
X29660000Y-37500000D01*
X25400000Y-36830000D02*
X28990000Y-36830000D01*
X29660000Y-43850000D02*
X29660000Y-44750000D01*
X28990000Y-43180000D02*
X29660000Y-43850000D01*
X25400000Y-43180000D02*
X28990000Y-43180000D01*
X29660000Y-50200000D02*
X29660000Y-51100000D01*
X28990000Y-49530000D02*
X29660000Y-50200000D01*
X25400000Y-49530000D02*
X28990000Y-49530000D01*
X29660000Y-56550000D02*
X29660000Y-57450000D01*
X28990000Y-55880000D02*
X29660000Y-56550000D01*
X25400000Y-55880000D02*
X28990000Y-55880000D01*
G04 #@! TO.N,Net-(Q4-Pad3)*
X24605000Y-52050000D02*
X27660000Y-52050000D01*
G04 #@! TO.N,Net-(Q3-Pad3)*
X24605000Y-45700000D02*
X27920000Y-45700000D01*
G04 #@! TO.N,Net-(Q2-Pad3)*
X24605000Y-39350000D02*
X27660000Y-39350000D01*
G04 #@! TO.N,Net-(Q1-Pad3)*
X24605000Y-33000000D02*
X27660000Y-33000000D01*
G04 #@! TO.N,/En_VoltageDivider*
X32395000Y-26330000D02*
X32715000Y-26650000D01*
X29660000Y-26330000D02*
X32395000Y-26330000D01*
X32715000Y-27450000D02*
X38100000Y-32835000D01*
X32715000Y-26650000D02*
X32715000Y-27450000D01*
X38100000Y-39230000D02*
X42470000Y-43600000D01*
X38100000Y-32835000D02*
X38100000Y-39230000D01*
G04 #@! TO.N,/Vin*
X22555000Y-24110000D02*
X22555000Y-27940000D01*
X21725000Y-23280000D02*
X22555000Y-24110000D01*
X14530000Y-23280000D02*
X21725000Y-23280000D01*
G04 #@! TO.N,Net-(Q6-Pad3)*
X25875000Y-25380000D02*
X24605000Y-24110000D01*
X27660000Y-25380000D02*
X25875000Y-25380000D01*
G04 #@! TO.N,Net-(D1-Pad2)*
X24890066Y-64884934D02*
X24900000Y-64875000D01*
X21300833Y-64884934D02*
X24890066Y-64884934D01*
X24900000Y-64875000D02*
X28500000Y-64875000D01*
X28500000Y-64875000D02*
X32100000Y-64875000D01*
X32100000Y-64875000D02*
X35700000Y-64875000D01*
X32100000Y-61575000D02*
X32715000Y-60960000D01*
X32100000Y-64875000D02*
X32100000Y-61575000D01*
G04 #@! TO.N,Net-(J2-Pad2)*
X27640000Y-58420000D02*
X27660000Y-58400000D01*
X25400000Y-58420000D02*
X27640000Y-58420000D01*
G04 #@! TD*
D18*
G04 #@! TO.N,GND*
G36*
X13738663Y-24464320D02*
X13929647Y-24543428D01*
X13798857Y-24597603D01*
X13729392Y-24839787D01*
X14530000Y-25640395D01*
X15330608Y-24839787D01*
X15261143Y-24597603D01*
X15120607Y-24547465D01*
X15321337Y-24464320D01*
X15620657Y-24165000D01*
X21332560Y-24165000D01*
X21332560Y-24560001D01*
X21400873Y-24903436D01*
X21595414Y-25194586D01*
X21670000Y-25244423D01*
X21670001Y-26805577D01*
X21595414Y-26855414D01*
X21400873Y-27146564D01*
X21332560Y-27489999D01*
X21332560Y-28390001D01*
X21400873Y-28733436D01*
X21595414Y-29024586D01*
X21886564Y-29219127D01*
X22229999Y-29287440D01*
X22880001Y-29287440D01*
X23223436Y-29219127D01*
X23514586Y-29024586D01*
X23580000Y-28926687D01*
X23645414Y-29024586D01*
X23936564Y-29219127D01*
X24279999Y-29287440D01*
X24930001Y-29287440D01*
X25273436Y-29219127D01*
X25564586Y-29024586D01*
X25697946Y-28825000D01*
X26083422Y-28825000D01*
X26853422Y-29595000D01*
X25968007Y-29595000D01*
X25605874Y-29445000D01*
X25194126Y-29445000D01*
X24813720Y-29602569D01*
X24522569Y-29893720D01*
X24365000Y-30274126D01*
X24365000Y-30685874D01*
X24522569Y-31066280D01*
X24813720Y-31357431D01*
X25194126Y-31515000D01*
X25605874Y-31515000D01*
X25968007Y-31365000D01*
X28623422Y-31365000D01*
X28631395Y-31372973D01*
X28611843Y-31402235D01*
X28562560Y-31650000D01*
X28562560Y-32138684D01*
X28357765Y-32001843D01*
X28110000Y-31952560D01*
X27210000Y-31952560D01*
X26962235Y-32001843D01*
X26792885Y-32115000D01*
X25697946Y-32115000D01*
X25564586Y-31915414D01*
X25273436Y-31720873D01*
X24930001Y-31652560D01*
X24279999Y-31652560D01*
X23936564Y-31720873D01*
X23645414Y-31915414D01*
X23644623Y-31916597D01*
X23489698Y-31761673D01*
X23256309Y-31665000D01*
X22840750Y-31665000D01*
X22682000Y-31823750D01*
X22682000Y-32873000D01*
X22702000Y-32873000D01*
X22702000Y-33127000D01*
X22682000Y-33127000D01*
X22682000Y-34176250D01*
X22840750Y-34335000D01*
X23256309Y-34335000D01*
X23489698Y-34238327D01*
X23644623Y-34083403D01*
X23645414Y-34084586D01*
X23936564Y-34279127D01*
X24279999Y-34347440D01*
X24930001Y-34347440D01*
X25273436Y-34279127D01*
X25564586Y-34084586D01*
X25697946Y-33885000D01*
X26792885Y-33885000D01*
X26962235Y-33998157D01*
X27210000Y-34047440D01*
X28110000Y-34047440D01*
X28357765Y-33998157D01*
X28562560Y-33861316D01*
X28562560Y-34350000D01*
X28611843Y-34597765D01*
X28752191Y-34807809D01*
X28962235Y-34948157D01*
X29210000Y-34997440D01*
X30110000Y-34997440D01*
X30357765Y-34948157D01*
X30527115Y-34835000D01*
X31515435Y-34835000D01*
X31560873Y-35063436D01*
X31755414Y-35354586D01*
X32046564Y-35549127D01*
X32389999Y-35617440D01*
X33040001Y-35617440D01*
X33383436Y-35549127D01*
X33674586Y-35354586D01*
X33740000Y-35256687D01*
X33805414Y-35354586D01*
X33880000Y-35404423D01*
X33880001Y-37496290D01*
X33606280Y-37222569D01*
X33225874Y-37065000D01*
X32814126Y-37065000D01*
X32433720Y-37222569D01*
X32142569Y-37513720D01*
X31985000Y-37894126D01*
X31985000Y-38305874D01*
X32135001Y-38668009D01*
X32135000Y-39323282D01*
X32046564Y-39340873D01*
X31935626Y-39415000D01*
X30527115Y-39415000D01*
X30429836Y-39350000D01*
X30567809Y-39257809D01*
X30708157Y-39047765D01*
X30757440Y-38800000D01*
X30757440Y-38000000D01*
X30708157Y-37752235D01*
X30567809Y-37542191D01*
X30555571Y-37534014D01*
X30562337Y-37499999D01*
X30545000Y-37412839D01*
X30545000Y-37412835D01*
X30493652Y-37154690D01*
X30298049Y-36861951D01*
X30224156Y-36812577D01*
X29677425Y-36265847D01*
X29628049Y-36191951D01*
X29335310Y-35996348D01*
X29077165Y-35945000D01*
X29077161Y-35945000D01*
X28990000Y-35927663D01*
X28902839Y-35945000D01*
X25968007Y-35945000D01*
X25605874Y-35795000D01*
X25194126Y-35795000D01*
X24813720Y-35952569D01*
X24522569Y-36243720D01*
X24365000Y-36624126D01*
X24365000Y-37035874D01*
X24522569Y-37416280D01*
X24813720Y-37707431D01*
X25194126Y-37865000D01*
X25605874Y-37865000D01*
X25968007Y-37715000D01*
X28623422Y-37715000D01*
X28631395Y-37722973D01*
X28611843Y-37752235D01*
X28562560Y-38000000D01*
X28562560Y-38488684D01*
X28357765Y-38351843D01*
X28110000Y-38302560D01*
X27210000Y-38302560D01*
X26962235Y-38351843D01*
X26792885Y-38465000D01*
X25697946Y-38465000D01*
X25564586Y-38265414D01*
X25273436Y-38070873D01*
X24930001Y-38002560D01*
X24279999Y-38002560D01*
X23936564Y-38070873D01*
X23645414Y-38265414D01*
X23644623Y-38266597D01*
X23489698Y-38111673D01*
X23256309Y-38015000D01*
X22840750Y-38015000D01*
X22682000Y-38173750D01*
X22682000Y-39223000D01*
X22702000Y-39223000D01*
X22702000Y-39477000D01*
X22682000Y-39477000D01*
X22682000Y-40526250D01*
X22840750Y-40685000D01*
X23256309Y-40685000D01*
X23489698Y-40588327D01*
X23644623Y-40433403D01*
X23645414Y-40434586D01*
X23936564Y-40629127D01*
X24279999Y-40697440D01*
X24930001Y-40697440D01*
X25273436Y-40629127D01*
X25564586Y-40434586D01*
X25697946Y-40235000D01*
X26792885Y-40235000D01*
X26962235Y-40348157D01*
X27210000Y-40397440D01*
X28110000Y-40397440D01*
X28357765Y-40348157D01*
X28562560Y-40211316D01*
X28562560Y-40700000D01*
X28611843Y-40947765D01*
X28752191Y-41157809D01*
X28962235Y-41298157D01*
X29210000Y-41347440D01*
X30110000Y-41347440D01*
X30357765Y-41298157D01*
X30527115Y-41185000D01*
X31515435Y-41185000D01*
X31560873Y-41413436D01*
X31755414Y-41704586D01*
X32046564Y-41899127D01*
X32389999Y-41967440D01*
X33040001Y-41967440D01*
X33383436Y-41899127D01*
X33674586Y-41704586D01*
X33740000Y-41606687D01*
X33805414Y-41704586D01*
X33880000Y-41754423D01*
X33880001Y-43846290D01*
X33606280Y-43572569D01*
X33225874Y-43415000D01*
X32814126Y-43415000D01*
X32433720Y-43572569D01*
X32142569Y-43863720D01*
X31985000Y-44244126D01*
X31985000Y-44655874D01*
X32135001Y-45018009D01*
X32135000Y-45673282D01*
X32046564Y-45690873D01*
X31935626Y-45765000D01*
X30527115Y-45765000D01*
X30429836Y-45700000D01*
X30567809Y-45607809D01*
X30708157Y-45397765D01*
X30757440Y-45150000D01*
X30757440Y-44350000D01*
X30708157Y-44102235D01*
X30567809Y-43892191D01*
X30555571Y-43884014D01*
X30562337Y-43849999D01*
X30545000Y-43762839D01*
X30545000Y-43762835D01*
X30493652Y-43504690D01*
X30414261Y-43385874D01*
X30347424Y-43285845D01*
X30347423Y-43285844D01*
X30298049Y-43211951D01*
X30224156Y-43162577D01*
X29677425Y-42615847D01*
X29628049Y-42541951D01*
X29335310Y-42346348D01*
X29077165Y-42295000D01*
X29077161Y-42295000D01*
X28990000Y-42277663D01*
X28902839Y-42295000D01*
X25968007Y-42295000D01*
X25605874Y-42145000D01*
X25194126Y-42145000D01*
X24813720Y-42302569D01*
X24522569Y-42593720D01*
X24365000Y-42974126D01*
X24365000Y-43385874D01*
X24522569Y-43766280D01*
X24813720Y-44057431D01*
X25194126Y-44215000D01*
X25605874Y-44215000D01*
X25968007Y-44065000D01*
X28623422Y-44065000D01*
X28631395Y-44072973D01*
X28611843Y-44102235D01*
X28562560Y-44350000D01*
X28562560Y-44838684D01*
X28357765Y-44701843D01*
X28110000Y-44652560D01*
X27210000Y-44652560D01*
X26962235Y-44701843D01*
X26792885Y-44815000D01*
X25697946Y-44815000D01*
X25564586Y-44615414D01*
X25273436Y-44420873D01*
X24930001Y-44352560D01*
X24279999Y-44352560D01*
X23936564Y-44420873D01*
X23645414Y-44615414D01*
X23644623Y-44616597D01*
X23489698Y-44461673D01*
X23256309Y-44365000D01*
X22840750Y-44365000D01*
X22682000Y-44523750D01*
X22682000Y-45573000D01*
X22702000Y-45573000D01*
X22702000Y-45827000D01*
X22682000Y-45827000D01*
X22682000Y-46876250D01*
X22840750Y-47035000D01*
X23256309Y-47035000D01*
X23489698Y-46938327D01*
X23644623Y-46783403D01*
X23645414Y-46784586D01*
X23936564Y-46979127D01*
X24279999Y-47047440D01*
X24930001Y-47047440D01*
X25273436Y-46979127D01*
X25564586Y-46784586D01*
X25697946Y-46585000D01*
X26792885Y-46585000D01*
X26962235Y-46698157D01*
X27210000Y-46747440D01*
X28110000Y-46747440D01*
X28357765Y-46698157D01*
X28562560Y-46561316D01*
X28562560Y-47050000D01*
X28611843Y-47297765D01*
X28752191Y-47507809D01*
X28962235Y-47648157D01*
X29210000Y-47697440D01*
X30110000Y-47697440D01*
X30357765Y-47648157D01*
X30527115Y-47535000D01*
X31515435Y-47535000D01*
X31560873Y-47763436D01*
X31755414Y-48054586D01*
X32046564Y-48249127D01*
X32389999Y-48317440D01*
X33040001Y-48317440D01*
X33383436Y-48249127D01*
X33674586Y-48054586D01*
X33740000Y-47956687D01*
X33805414Y-48054586D01*
X33880000Y-48104423D01*
X33880001Y-50196290D01*
X33606280Y-49922569D01*
X33225874Y-49765000D01*
X32814126Y-49765000D01*
X32433720Y-49922569D01*
X32142569Y-50213720D01*
X31985000Y-50594126D01*
X31985000Y-51005874D01*
X32135001Y-51368009D01*
X32135000Y-52023282D01*
X32046564Y-52040873D01*
X31935626Y-52115000D01*
X30527115Y-52115000D01*
X30429836Y-52050000D01*
X30567809Y-51957809D01*
X30708157Y-51747765D01*
X30757440Y-51500000D01*
X30757440Y-50700000D01*
X30708157Y-50452235D01*
X30567809Y-50242191D01*
X30555571Y-50234014D01*
X30562337Y-50199999D01*
X30545000Y-50112839D01*
X30545000Y-50112835D01*
X30493652Y-49854690D01*
X30298049Y-49561951D01*
X30224156Y-49512577D01*
X29677425Y-48965847D01*
X29628049Y-48891951D01*
X29335310Y-48696348D01*
X29077165Y-48645000D01*
X29077161Y-48645000D01*
X28990000Y-48627663D01*
X28902839Y-48645000D01*
X25968007Y-48645000D01*
X25605874Y-48495000D01*
X25194126Y-48495000D01*
X24813720Y-48652569D01*
X24522569Y-48943720D01*
X24365000Y-49324126D01*
X24365000Y-49735874D01*
X24522569Y-50116280D01*
X24813720Y-50407431D01*
X25194126Y-50565000D01*
X25605874Y-50565000D01*
X25968007Y-50415000D01*
X28623422Y-50415000D01*
X28631395Y-50422973D01*
X28611843Y-50452235D01*
X28562560Y-50700000D01*
X28562560Y-51188684D01*
X28357765Y-51051843D01*
X28110000Y-51002560D01*
X27210000Y-51002560D01*
X26962235Y-51051843D01*
X26792885Y-51165000D01*
X25697946Y-51165000D01*
X25564586Y-50965414D01*
X25273436Y-50770873D01*
X24930001Y-50702560D01*
X24279999Y-50702560D01*
X23936564Y-50770873D01*
X23645414Y-50965414D01*
X23644623Y-50966597D01*
X23489698Y-50811673D01*
X23256309Y-50715000D01*
X22840750Y-50715000D01*
X22682000Y-50873750D01*
X22682000Y-51923000D01*
X22702000Y-51923000D01*
X22702000Y-52177000D01*
X22682000Y-52177000D01*
X22682000Y-53226250D01*
X22840750Y-53385000D01*
X23256309Y-53385000D01*
X23489698Y-53288327D01*
X23644623Y-53133403D01*
X23645414Y-53134586D01*
X23936564Y-53329127D01*
X24279999Y-53397440D01*
X24930001Y-53397440D01*
X25273436Y-53329127D01*
X25564586Y-53134586D01*
X25697946Y-52935000D01*
X26792885Y-52935000D01*
X26962235Y-53048157D01*
X27210000Y-53097440D01*
X28110000Y-53097440D01*
X28357765Y-53048157D01*
X28562560Y-52911316D01*
X28562560Y-53400000D01*
X28611843Y-53647765D01*
X28752191Y-53857809D01*
X28962235Y-53998157D01*
X29210000Y-54047440D01*
X30110000Y-54047440D01*
X30357765Y-53998157D01*
X30527115Y-53885000D01*
X31515435Y-53885000D01*
X31560873Y-54113436D01*
X31755414Y-54404586D01*
X32046564Y-54599127D01*
X32389999Y-54667440D01*
X33040001Y-54667440D01*
X33383436Y-54599127D01*
X33674586Y-54404586D01*
X33740000Y-54306687D01*
X33805414Y-54404586D01*
X33880001Y-54454423D01*
X33880000Y-56015577D01*
X33805414Y-56065414D01*
X33740000Y-56163313D01*
X33674586Y-56065414D01*
X33383436Y-55870873D01*
X33040001Y-55802560D01*
X32389999Y-55802560D01*
X32046564Y-55870873D01*
X31755414Y-56065414D01*
X31560873Y-56356564D01*
X31492560Y-56699999D01*
X31492560Y-57600001D01*
X31560873Y-57943436D01*
X31580545Y-57972877D01*
X31525852Y-58027569D01*
X31163720Y-58177569D01*
X30876289Y-58465000D01*
X30527115Y-58465000D01*
X30429836Y-58400000D01*
X30567809Y-58307809D01*
X30708157Y-58097765D01*
X30757440Y-57850000D01*
X30757440Y-57050000D01*
X30708157Y-56802235D01*
X30567809Y-56592191D01*
X30555571Y-56584014D01*
X30562337Y-56549999D01*
X30545000Y-56462839D01*
X30545000Y-56462835D01*
X30493652Y-56204690D01*
X30298049Y-55911951D01*
X30224156Y-55862577D01*
X29677425Y-55315847D01*
X29628049Y-55241951D01*
X29335310Y-55046348D01*
X29077165Y-54995000D01*
X29077161Y-54995000D01*
X28990000Y-54977663D01*
X28902839Y-54995000D01*
X25968007Y-54995000D01*
X25605874Y-54845000D01*
X25194126Y-54845000D01*
X24813720Y-55002569D01*
X24522569Y-55293720D01*
X24365000Y-55674126D01*
X24365000Y-56085874D01*
X24522569Y-56466280D01*
X24813720Y-56757431D01*
X25194126Y-56915000D01*
X25605874Y-56915000D01*
X25968007Y-56765000D01*
X28623422Y-56765000D01*
X28631395Y-56772973D01*
X28611843Y-56802235D01*
X28562560Y-57050000D01*
X28562560Y-57538684D01*
X28357765Y-57401843D01*
X28110000Y-57352560D01*
X27210000Y-57352560D01*
X26962235Y-57401843D01*
X26762953Y-57535000D01*
X25968007Y-57535000D01*
X25605874Y-57385000D01*
X25194126Y-57385000D01*
X24813720Y-57542569D01*
X24522569Y-57833720D01*
X24365000Y-58214126D01*
X24365000Y-58625874D01*
X24522569Y-59006280D01*
X24813720Y-59297431D01*
X25194126Y-59455000D01*
X25605874Y-59455000D01*
X25968007Y-59305000D01*
X26822817Y-59305000D01*
X26962235Y-59398157D01*
X27210000Y-59447440D01*
X28110000Y-59447440D01*
X28357765Y-59398157D01*
X28562560Y-59261316D01*
X28562560Y-59750000D01*
X28611843Y-59997765D01*
X28752191Y-60207809D01*
X28962235Y-60348157D01*
X29210000Y-60397440D01*
X30110000Y-60397440D01*
X30357765Y-60348157D01*
X30527115Y-60235000D01*
X31367839Y-60235000D01*
X31455000Y-60252337D01*
X31542161Y-60235000D01*
X31542165Y-60235000D01*
X31547470Y-60233945D01*
X31492560Y-60509999D01*
X31492560Y-60916499D01*
X31461952Y-60936951D01*
X31412578Y-61010844D01*
X31412576Y-61010846D01*
X31266348Y-61229691D01*
X31197663Y-61575000D01*
X31215001Y-61662165D01*
X31215000Y-63782054D01*
X31015414Y-63915414D01*
X30965577Y-63990000D01*
X29634423Y-63990000D01*
X29584586Y-63915414D01*
X29293436Y-63720873D01*
X28950001Y-63652560D01*
X28049999Y-63652560D01*
X27706564Y-63720873D01*
X27415414Y-63915414D01*
X27365577Y-63990000D01*
X26034423Y-63990000D01*
X25984586Y-63915414D01*
X25693436Y-63720873D01*
X25350001Y-63652560D01*
X24449999Y-63652560D01*
X24106564Y-63720873D01*
X23815414Y-63915414D01*
X23758939Y-63999934D01*
X22435256Y-63999934D01*
X22385419Y-63925348D01*
X22094269Y-63730807D01*
X21750834Y-63662494D01*
X20850832Y-63662494D01*
X20507397Y-63730807D01*
X20216247Y-63925348D01*
X20021706Y-64216498D01*
X19953393Y-64559933D01*
X19953393Y-65209935D01*
X20021706Y-65553370D01*
X20216247Y-65844520D01*
X20314146Y-65909934D01*
X20216247Y-65975348D01*
X20021706Y-66266498D01*
X19953393Y-66609933D01*
X19953393Y-67259935D01*
X20021706Y-67603370D01*
X20216247Y-67894520D01*
X20415834Y-68027880D01*
X20415834Y-68229981D01*
X20265000Y-68594126D01*
X20265000Y-69005874D01*
X20422569Y-69386280D01*
X20713720Y-69677431D01*
X21094126Y-69835000D01*
X21505874Y-69835000D01*
X21886280Y-69677431D01*
X22177431Y-69386280D01*
X22335000Y-69005874D01*
X22335000Y-68594126D01*
X22185833Y-68234004D01*
X22185833Y-68027880D01*
X22385419Y-67894520D01*
X22579960Y-67603370D01*
X22648273Y-67259935D01*
X22648273Y-66609933D01*
X22579960Y-66266498D01*
X22385419Y-65975348D01*
X22287520Y-65909934D01*
X22385419Y-65844520D01*
X22435256Y-65769934D01*
X23772215Y-65769934D01*
X23815414Y-65834586D01*
X23913313Y-65900000D01*
X23815414Y-65965414D01*
X23620873Y-66256564D01*
X23552560Y-66599999D01*
X23552560Y-67250001D01*
X23620873Y-67593436D01*
X23815414Y-67884586D01*
X24015001Y-68017946D01*
X24015001Y-68231992D01*
X23865000Y-68594126D01*
X23865000Y-69005874D01*
X24022569Y-69386280D01*
X24313720Y-69677431D01*
X24694126Y-69835000D01*
X25105874Y-69835000D01*
X25486280Y-69677431D01*
X25777431Y-69386280D01*
X25935000Y-69005874D01*
X25935000Y-68594126D01*
X25785000Y-68231993D01*
X25785000Y-68017946D01*
X25984586Y-67884586D01*
X26179127Y-67593436D01*
X26247440Y-67250001D01*
X26247440Y-66599999D01*
X26179127Y-66256564D01*
X25984586Y-65965414D01*
X25886687Y-65900000D01*
X25984586Y-65834586D01*
X26034423Y-65760000D01*
X27365577Y-65760000D01*
X27415414Y-65834586D01*
X27513313Y-65900000D01*
X27415414Y-65965414D01*
X27220873Y-66256564D01*
X27152560Y-66599999D01*
X27152560Y-67250001D01*
X27220873Y-67593436D01*
X27415414Y-67884586D01*
X27615001Y-68017946D01*
X27615001Y-68231992D01*
X27465000Y-68594126D01*
X27465000Y-69005874D01*
X27622569Y-69386280D01*
X27913720Y-69677431D01*
X28294126Y-69835000D01*
X28705874Y-69835000D01*
X29086280Y-69677431D01*
X29377431Y-69386280D01*
X29535000Y-69005874D01*
X29535000Y-68594126D01*
X29385000Y-68231993D01*
X29385000Y-68017946D01*
X29584586Y-67884586D01*
X29779127Y-67593436D01*
X29847440Y-67250001D01*
X29847440Y-66599999D01*
X29779127Y-66256564D01*
X29584586Y-65965414D01*
X29486687Y-65900000D01*
X29584586Y-65834586D01*
X29634423Y-65760000D01*
X30965577Y-65760000D01*
X31015414Y-65834586D01*
X31113313Y-65900000D01*
X31015414Y-65965414D01*
X30820873Y-66256564D01*
X30752560Y-66599999D01*
X30752560Y-67250001D01*
X30820873Y-67593436D01*
X31015414Y-67884586D01*
X31215001Y-68017946D01*
X31215001Y-68231992D01*
X31065000Y-68594126D01*
X31065000Y-69005874D01*
X31222569Y-69386280D01*
X31513720Y-69677431D01*
X31894126Y-69835000D01*
X32305874Y-69835000D01*
X32686280Y-69677431D01*
X32977431Y-69386280D01*
X33135000Y-69005874D01*
X33135000Y-68594126D01*
X32985000Y-68231993D01*
X32985000Y-68017946D01*
X33184586Y-67884586D01*
X33379127Y-67593436D01*
X33447440Y-67250001D01*
X33447440Y-66599999D01*
X33379127Y-66256564D01*
X33184586Y-65965414D01*
X33086687Y-65900000D01*
X33184586Y-65834586D01*
X33234423Y-65760000D01*
X34565577Y-65760000D01*
X34615414Y-65834586D01*
X34713313Y-65900000D01*
X34615414Y-65965414D01*
X34420873Y-66256564D01*
X34352560Y-66599999D01*
X34352560Y-67250001D01*
X34420873Y-67593436D01*
X34615414Y-67884586D01*
X34815000Y-68017946D01*
X34815000Y-68231992D01*
X34665000Y-68594126D01*
X34665000Y-69005874D01*
X34822569Y-69386280D01*
X35113720Y-69677431D01*
X35494126Y-69835000D01*
X35905874Y-69835000D01*
X36286280Y-69677431D01*
X36577431Y-69386280D01*
X36735000Y-69005874D01*
X36735000Y-68594126D01*
X36585000Y-68231993D01*
X36585000Y-68017946D01*
X36784586Y-67884586D01*
X36979127Y-67593436D01*
X37039561Y-67289611D01*
X38966340Y-67289611D01*
X38966340Y-68178749D01*
X39306599Y-69000206D01*
X39935314Y-69628921D01*
X40756771Y-69969180D01*
X41645909Y-69969180D01*
X42467366Y-69628921D01*
X43096081Y-69000206D01*
X43436340Y-68178749D01*
X43436340Y-67289611D01*
X43096081Y-66468154D01*
X42467366Y-65839439D01*
X41645909Y-65499180D01*
X40756771Y-65499180D01*
X39935314Y-65839439D01*
X39306599Y-66468154D01*
X38966340Y-67289611D01*
X37039561Y-67289611D01*
X37047440Y-67250001D01*
X37047440Y-66599999D01*
X36979127Y-66256564D01*
X36784586Y-65965414D01*
X36686687Y-65900000D01*
X36784586Y-65834586D01*
X36979127Y-65543436D01*
X37047440Y-65200001D01*
X37047440Y-64549999D01*
X36979127Y-64206564D01*
X36784586Y-63915414D01*
X36493436Y-63720873D01*
X36150001Y-63652560D01*
X35249999Y-63652560D01*
X34906564Y-63720873D01*
X34615414Y-63915414D01*
X34565577Y-63990000D01*
X33234423Y-63990000D01*
X33184586Y-63915414D01*
X32985000Y-63782054D01*
X32985000Y-62307440D01*
X33040001Y-62307440D01*
X33383436Y-62239127D01*
X33674586Y-62044586D01*
X33740000Y-61946687D01*
X33805414Y-62044586D01*
X34096564Y-62239127D01*
X34439999Y-62307440D01*
X35090001Y-62307440D01*
X35433436Y-62239127D01*
X35724586Y-62044586D01*
X35857946Y-61845000D01*
X40262839Y-61845000D01*
X40350000Y-61862337D01*
X40437161Y-61845000D01*
X40437165Y-61845000D01*
X40695310Y-61793652D01*
X40988049Y-61598049D01*
X41037425Y-61524153D01*
X42324579Y-60237000D01*
X42747881Y-60237000D01*
X43261337Y-60024320D01*
X43654320Y-59631337D01*
X43765001Y-59364129D01*
X43765001Y-70435000D01*
X13385000Y-70435000D01*
X13385000Y-67289611D01*
X13573960Y-67289611D01*
X13573960Y-68178749D01*
X13914219Y-69000206D01*
X14542934Y-69628921D01*
X15364391Y-69969180D01*
X16253529Y-69969180D01*
X17074986Y-69628921D01*
X17703701Y-69000206D01*
X18043960Y-68178749D01*
X18043960Y-67289611D01*
X17703701Y-66468154D01*
X17074986Y-65839439D01*
X16253529Y-65499180D01*
X15364391Y-65499180D01*
X14542934Y-65839439D01*
X13914219Y-66468154D01*
X13573960Y-67289611D01*
X13385000Y-67289611D01*
X13385000Y-59670657D01*
X13738663Y-60024320D01*
X14252119Y-60237000D01*
X14807881Y-60237000D01*
X15321337Y-60024320D01*
X15714320Y-59631337D01*
X15927000Y-59117881D01*
X15927000Y-58562119D01*
X15714320Y-58048663D01*
X15321337Y-57655680D01*
X15130353Y-57576572D01*
X15261143Y-57522397D01*
X15330608Y-57280213D01*
X14530000Y-56479605D01*
X13729392Y-57280213D01*
X13798857Y-57522397D01*
X13939393Y-57572535D01*
X13738663Y-57655680D01*
X13385000Y-58009343D01*
X13385000Y-57053343D01*
X13549787Y-57100608D01*
X14350395Y-56300000D01*
X14709605Y-56300000D01*
X15510213Y-57100608D01*
X15752397Y-57031143D01*
X15939144Y-56507698D01*
X15911362Y-55952632D01*
X15752397Y-55568857D01*
X15510213Y-55499392D01*
X14709605Y-56300000D01*
X14350395Y-56300000D01*
X13549787Y-55499392D01*
X13385000Y-55546657D01*
X13385000Y-54590657D01*
X13738663Y-54944320D01*
X13929647Y-55023428D01*
X13798857Y-55077603D01*
X13729392Y-55319787D01*
X14530000Y-56120395D01*
X15330608Y-55319787D01*
X15261143Y-55077603D01*
X15120607Y-55027465D01*
X15321337Y-54944320D01*
X15714320Y-54551337D01*
X15927000Y-54037881D01*
X15927000Y-53482119D01*
X15714320Y-52968663D01*
X15321337Y-52575680D01*
X15114487Y-52490000D01*
X15321337Y-52404320D01*
X15389907Y-52335750D01*
X21345000Y-52335750D01*
X21345000Y-52876310D01*
X21441673Y-53109699D01*
X21620302Y-53288327D01*
X21853691Y-53385000D01*
X22269250Y-53385000D01*
X22428000Y-53226250D01*
X22428000Y-52177000D01*
X21503750Y-52177000D01*
X21345000Y-52335750D01*
X15389907Y-52335750D01*
X15714320Y-52011337D01*
X15927000Y-51497881D01*
X15927000Y-51223690D01*
X21345000Y-51223690D01*
X21345000Y-51764250D01*
X21503750Y-51923000D01*
X22428000Y-51923000D01*
X22428000Y-50873750D01*
X22269250Y-50715000D01*
X21853691Y-50715000D01*
X21620302Y-50811673D01*
X21441673Y-50990301D01*
X21345000Y-51223690D01*
X15927000Y-51223690D01*
X15927000Y-50942119D01*
X15714320Y-50428663D01*
X15321337Y-50035680D01*
X15114487Y-49950000D01*
X15321337Y-49864320D01*
X15714320Y-49471337D01*
X15927000Y-48957881D01*
X15927000Y-48402119D01*
X15714320Y-47888663D01*
X15321337Y-47495680D01*
X15130353Y-47416572D01*
X15261143Y-47362397D01*
X15330608Y-47120213D01*
X14530000Y-46319605D01*
X13729392Y-47120213D01*
X13798857Y-47362397D01*
X13939393Y-47412535D01*
X13738663Y-47495680D01*
X13385000Y-47849343D01*
X13385000Y-46893343D01*
X13549787Y-46940608D01*
X14350395Y-46140000D01*
X14709605Y-46140000D01*
X15510213Y-46940608D01*
X15752397Y-46871143D01*
X15939144Y-46347698D01*
X15921028Y-45985750D01*
X21345000Y-45985750D01*
X21345000Y-46526310D01*
X21441673Y-46759699D01*
X21620302Y-46938327D01*
X21853691Y-47035000D01*
X22269250Y-47035000D01*
X22428000Y-46876250D01*
X22428000Y-45827000D01*
X21503750Y-45827000D01*
X21345000Y-45985750D01*
X15921028Y-45985750D01*
X15911362Y-45792632D01*
X15752397Y-45408857D01*
X15510213Y-45339392D01*
X14709605Y-46140000D01*
X14350395Y-46140000D01*
X13549787Y-45339392D01*
X13385000Y-45386657D01*
X13385000Y-44430657D01*
X13738663Y-44784320D01*
X13929647Y-44863428D01*
X13798857Y-44917603D01*
X13729392Y-45159787D01*
X14530000Y-45960395D01*
X15330608Y-45159787D01*
X15261143Y-44917603D01*
X15138056Y-44873690D01*
X21345000Y-44873690D01*
X21345000Y-45414250D01*
X21503750Y-45573000D01*
X22428000Y-45573000D01*
X22428000Y-44523750D01*
X22269250Y-44365000D01*
X21853691Y-44365000D01*
X21620302Y-44461673D01*
X21441673Y-44640301D01*
X21345000Y-44873690D01*
X15138056Y-44873690D01*
X15120607Y-44867465D01*
X15321337Y-44784320D01*
X15714320Y-44391337D01*
X15927000Y-43877881D01*
X15927000Y-43322119D01*
X15714320Y-42808663D01*
X15321337Y-42415680D01*
X15114487Y-42330000D01*
X15321337Y-42244320D01*
X15714320Y-41851337D01*
X15927000Y-41337881D01*
X15927000Y-40782119D01*
X15714320Y-40268663D01*
X15321337Y-39875680D01*
X15114487Y-39790000D01*
X15321337Y-39704320D01*
X15389907Y-39635750D01*
X21345000Y-39635750D01*
X21345000Y-40176310D01*
X21441673Y-40409699D01*
X21620302Y-40588327D01*
X21853691Y-40685000D01*
X22269250Y-40685000D01*
X22428000Y-40526250D01*
X22428000Y-39477000D01*
X21503750Y-39477000D01*
X21345000Y-39635750D01*
X15389907Y-39635750D01*
X15714320Y-39311337D01*
X15927000Y-38797881D01*
X15927000Y-38523690D01*
X21345000Y-38523690D01*
X21345000Y-39064250D01*
X21503750Y-39223000D01*
X22428000Y-39223000D01*
X22428000Y-38173750D01*
X22269250Y-38015000D01*
X21853691Y-38015000D01*
X21620302Y-38111673D01*
X21441673Y-38290301D01*
X21345000Y-38523690D01*
X15927000Y-38523690D01*
X15927000Y-38242119D01*
X15714320Y-37728663D01*
X15321337Y-37335680D01*
X15114487Y-37250000D01*
X15321337Y-37164320D01*
X15714320Y-36771337D01*
X15927000Y-36257881D01*
X15927000Y-35702119D01*
X15714320Y-35188663D01*
X15321337Y-34795680D01*
X15114487Y-34710000D01*
X15321337Y-34624320D01*
X15714320Y-34231337D01*
X15927000Y-33717881D01*
X15927000Y-33285750D01*
X21345000Y-33285750D01*
X21345000Y-33826310D01*
X21441673Y-34059699D01*
X21620302Y-34238327D01*
X21853691Y-34335000D01*
X22269250Y-34335000D01*
X22428000Y-34176250D01*
X22428000Y-33127000D01*
X21503750Y-33127000D01*
X21345000Y-33285750D01*
X15927000Y-33285750D01*
X15927000Y-33162119D01*
X15714320Y-32648663D01*
X15321337Y-32255680D01*
X15123396Y-32173690D01*
X21345000Y-32173690D01*
X21345000Y-32714250D01*
X21503750Y-32873000D01*
X22428000Y-32873000D01*
X22428000Y-31823750D01*
X22269250Y-31665000D01*
X21853691Y-31665000D01*
X21620302Y-31761673D01*
X21441673Y-31940301D01*
X21345000Y-32173690D01*
X15123396Y-32173690D01*
X15114487Y-32170000D01*
X15321337Y-32084320D01*
X15714320Y-31691337D01*
X15927000Y-31177881D01*
X15927000Y-30622119D01*
X15714320Y-30108663D01*
X15321337Y-29715680D01*
X15114487Y-29630000D01*
X15321337Y-29544320D01*
X15714320Y-29151337D01*
X15927000Y-28637881D01*
X15927000Y-28082119D01*
X15714320Y-27568663D01*
X15321337Y-27175680D01*
X15130353Y-27096572D01*
X15261143Y-27042397D01*
X15330608Y-26800213D01*
X14530000Y-25999605D01*
X13729392Y-26800213D01*
X13798857Y-27042397D01*
X13939393Y-27092535D01*
X13738663Y-27175680D01*
X13385000Y-27529343D01*
X13385000Y-26573343D01*
X13549787Y-26620608D01*
X14350395Y-25820000D01*
X14709605Y-25820000D01*
X15510213Y-26620608D01*
X15752397Y-26551143D01*
X15939144Y-26027698D01*
X15911362Y-25472632D01*
X15752397Y-25088857D01*
X15510213Y-25019392D01*
X14709605Y-25820000D01*
X14350395Y-25820000D01*
X13549787Y-25019392D01*
X13385000Y-25066657D01*
X13385000Y-24110657D01*
X13738663Y-24464320D01*
X13738663Y-24464320D01*
G37*
X13738663Y-24464320D02*
X13929647Y-24543428D01*
X13798857Y-24597603D01*
X13729392Y-24839787D01*
X14530000Y-25640395D01*
X15330608Y-24839787D01*
X15261143Y-24597603D01*
X15120607Y-24547465D01*
X15321337Y-24464320D01*
X15620657Y-24165000D01*
X21332560Y-24165000D01*
X21332560Y-24560001D01*
X21400873Y-24903436D01*
X21595414Y-25194586D01*
X21670000Y-25244423D01*
X21670001Y-26805577D01*
X21595414Y-26855414D01*
X21400873Y-27146564D01*
X21332560Y-27489999D01*
X21332560Y-28390001D01*
X21400873Y-28733436D01*
X21595414Y-29024586D01*
X21886564Y-29219127D01*
X22229999Y-29287440D01*
X22880001Y-29287440D01*
X23223436Y-29219127D01*
X23514586Y-29024586D01*
X23580000Y-28926687D01*
X23645414Y-29024586D01*
X23936564Y-29219127D01*
X24279999Y-29287440D01*
X24930001Y-29287440D01*
X25273436Y-29219127D01*
X25564586Y-29024586D01*
X25697946Y-28825000D01*
X26083422Y-28825000D01*
X26853422Y-29595000D01*
X25968007Y-29595000D01*
X25605874Y-29445000D01*
X25194126Y-29445000D01*
X24813720Y-29602569D01*
X24522569Y-29893720D01*
X24365000Y-30274126D01*
X24365000Y-30685874D01*
X24522569Y-31066280D01*
X24813720Y-31357431D01*
X25194126Y-31515000D01*
X25605874Y-31515000D01*
X25968007Y-31365000D01*
X28623422Y-31365000D01*
X28631395Y-31372973D01*
X28611843Y-31402235D01*
X28562560Y-31650000D01*
X28562560Y-32138684D01*
X28357765Y-32001843D01*
X28110000Y-31952560D01*
X27210000Y-31952560D01*
X26962235Y-32001843D01*
X26792885Y-32115000D01*
X25697946Y-32115000D01*
X25564586Y-31915414D01*
X25273436Y-31720873D01*
X24930001Y-31652560D01*
X24279999Y-31652560D01*
X23936564Y-31720873D01*
X23645414Y-31915414D01*
X23644623Y-31916597D01*
X23489698Y-31761673D01*
X23256309Y-31665000D01*
X22840750Y-31665000D01*
X22682000Y-31823750D01*
X22682000Y-32873000D01*
X22702000Y-32873000D01*
X22702000Y-33127000D01*
X22682000Y-33127000D01*
X22682000Y-34176250D01*
X22840750Y-34335000D01*
X23256309Y-34335000D01*
X23489698Y-34238327D01*
X23644623Y-34083403D01*
X23645414Y-34084586D01*
X23936564Y-34279127D01*
X24279999Y-34347440D01*
X24930001Y-34347440D01*
X25273436Y-34279127D01*
X25564586Y-34084586D01*
X25697946Y-33885000D01*
X26792885Y-33885000D01*
X26962235Y-33998157D01*
X27210000Y-34047440D01*
X28110000Y-34047440D01*
X28357765Y-33998157D01*
X28562560Y-33861316D01*
X28562560Y-34350000D01*
X28611843Y-34597765D01*
X28752191Y-34807809D01*
X28962235Y-34948157D01*
X29210000Y-34997440D01*
X30110000Y-34997440D01*
X30357765Y-34948157D01*
X30527115Y-34835000D01*
X31515435Y-34835000D01*
X31560873Y-35063436D01*
X31755414Y-35354586D01*
X32046564Y-35549127D01*
X32389999Y-35617440D01*
X33040001Y-35617440D01*
X33383436Y-35549127D01*
X33674586Y-35354586D01*
X33740000Y-35256687D01*
X33805414Y-35354586D01*
X33880000Y-35404423D01*
X33880001Y-37496290D01*
X33606280Y-37222569D01*
X33225874Y-37065000D01*
X32814126Y-37065000D01*
X32433720Y-37222569D01*
X32142569Y-37513720D01*
X31985000Y-37894126D01*
X31985000Y-38305874D01*
X32135001Y-38668009D01*
X32135000Y-39323282D01*
X32046564Y-39340873D01*
X31935626Y-39415000D01*
X30527115Y-39415000D01*
X30429836Y-39350000D01*
X30567809Y-39257809D01*
X30708157Y-39047765D01*
X30757440Y-38800000D01*
X30757440Y-38000000D01*
X30708157Y-37752235D01*
X30567809Y-37542191D01*
X30555571Y-37534014D01*
X30562337Y-37499999D01*
X30545000Y-37412839D01*
X30545000Y-37412835D01*
X30493652Y-37154690D01*
X30298049Y-36861951D01*
X30224156Y-36812577D01*
X29677425Y-36265847D01*
X29628049Y-36191951D01*
X29335310Y-35996348D01*
X29077165Y-35945000D01*
X29077161Y-35945000D01*
X28990000Y-35927663D01*
X28902839Y-35945000D01*
X25968007Y-35945000D01*
X25605874Y-35795000D01*
X25194126Y-35795000D01*
X24813720Y-35952569D01*
X24522569Y-36243720D01*
X24365000Y-36624126D01*
X24365000Y-37035874D01*
X24522569Y-37416280D01*
X24813720Y-37707431D01*
X25194126Y-37865000D01*
X25605874Y-37865000D01*
X25968007Y-37715000D01*
X28623422Y-37715000D01*
X28631395Y-37722973D01*
X28611843Y-37752235D01*
X28562560Y-38000000D01*
X28562560Y-38488684D01*
X28357765Y-38351843D01*
X28110000Y-38302560D01*
X27210000Y-38302560D01*
X26962235Y-38351843D01*
X26792885Y-38465000D01*
X25697946Y-38465000D01*
X25564586Y-38265414D01*
X25273436Y-38070873D01*
X24930001Y-38002560D01*
X24279999Y-38002560D01*
X23936564Y-38070873D01*
X23645414Y-38265414D01*
X23644623Y-38266597D01*
X23489698Y-38111673D01*
X23256309Y-38015000D01*
X22840750Y-38015000D01*
X22682000Y-38173750D01*
X22682000Y-39223000D01*
X22702000Y-39223000D01*
X22702000Y-39477000D01*
X22682000Y-39477000D01*
X22682000Y-40526250D01*
X22840750Y-40685000D01*
X23256309Y-40685000D01*
X23489698Y-40588327D01*
X23644623Y-40433403D01*
X23645414Y-40434586D01*
X23936564Y-40629127D01*
X24279999Y-40697440D01*
X24930001Y-40697440D01*
X25273436Y-40629127D01*
X25564586Y-40434586D01*
X25697946Y-40235000D01*
X26792885Y-40235000D01*
X26962235Y-40348157D01*
X27210000Y-40397440D01*
X28110000Y-40397440D01*
X28357765Y-40348157D01*
X28562560Y-40211316D01*
X28562560Y-40700000D01*
X28611843Y-40947765D01*
X28752191Y-41157809D01*
X28962235Y-41298157D01*
X29210000Y-41347440D01*
X30110000Y-41347440D01*
X30357765Y-41298157D01*
X30527115Y-41185000D01*
X31515435Y-41185000D01*
X31560873Y-41413436D01*
X31755414Y-41704586D01*
X32046564Y-41899127D01*
X32389999Y-41967440D01*
X33040001Y-41967440D01*
X33383436Y-41899127D01*
X33674586Y-41704586D01*
X33740000Y-41606687D01*
X33805414Y-41704586D01*
X33880000Y-41754423D01*
X33880001Y-43846290D01*
X33606280Y-43572569D01*
X33225874Y-43415000D01*
X32814126Y-43415000D01*
X32433720Y-43572569D01*
X32142569Y-43863720D01*
X31985000Y-44244126D01*
X31985000Y-44655874D01*
X32135001Y-45018009D01*
X32135000Y-45673282D01*
X32046564Y-45690873D01*
X31935626Y-45765000D01*
X30527115Y-45765000D01*
X30429836Y-45700000D01*
X30567809Y-45607809D01*
X30708157Y-45397765D01*
X30757440Y-45150000D01*
X30757440Y-44350000D01*
X30708157Y-44102235D01*
X30567809Y-43892191D01*
X30555571Y-43884014D01*
X30562337Y-43849999D01*
X30545000Y-43762839D01*
X30545000Y-43762835D01*
X30493652Y-43504690D01*
X30414261Y-43385874D01*
X30347424Y-43285845D01*
X30347423Y-43285844D01*
X30298049Y-43211951D01*
X30224156Y-43162577D01*
X29677425Y-42615847D01*
X29628049Y-42541951D01*
X29335310Y-42346348D01*
X29077165Y-42295000D01*
X29077161Y-42295000D01*
X28990000Y-42277663D01*
X28902839Y-42295000D01*
X25968007Y-42295000D01*
X25605874Y-42145000D01*
X25194126Y-42145000D01*
X24813720Y-42302569D01*
X24522569Y-42593720D01*
X24365000Y-42974126D01*
X24365000Y-43385874D01*
X24522569Y-43766280D01*
X24813720Y-44057431D01*
X25194126Y-44215000D01*
X25605874Y-44215000D01*
X25968007Y-44065000D01*
X28623422Y-44065000D01*
X28631395Y-44072973D01*
X28611843Y-44102235D01*
X28562560Y-44350000D01*
X28562560Y-44838684D01*
X28357765Y-44701843D01*
X28110000Y-44652560D01*
X27210000Y-44652560D01*
X26962235Y-44701843D01*
X26792885Y-44815000D01*
X25697946Y-44815000D01*
X25564586Y-44615414D01*
X25273436Y-44420873D01*
X24930001Y-44352560D01*
X24279999Y-44352560D01*
X23936564Y-44420873D01*
X23645414Y-44615414D01*
X23644623Y-44616597D01*
X23489698Y-44461673D01*
X23256309Y-44365000D01*
X22840750Y-44365000D01*
X22682000Y-44523750D01*
X22682000Y-45573000D01*
X22702000Y-45573000D01*
X22702000Y-45827000D01*
X22682000Y-45827000D01*
X22682000Y-46876250D01*
X22840750Y-47035000D01*
X23256309Y-47035000D01*
X23489698Y-46938327D01*
X23644623Y-46783403D01*
X23645414Y-46784586D01*
X23936564Y-46979127D01*
X24279999Y-47047440D01*
X24930001Y-47047440D01*
X25273436Y-46979127D01*
X25564586Y-46784586D01*
X25697946Y-46585000D01*
X26792885Y-46585000D01*
X26962235Y-46698157D01*
X27210000Y-46747440D01*
X28110000Y-46747440D01*
X28357765Y-46698157D01*
X28562560Y-46561316D01*
X28562560Y-47050000D01*
X28611843Y-47297765D01*
X28752191Y-47507809D01*
X28962235Y-47648157D01*
X29210000Y-47697440D01*
X30110000Y-47697440D01*
X30357765Y-47648157D01*
X30527115Y-47535000D01*
X31515435Y-47535000D01*
X31560873Y-47763436D01*
X31755414Y-48054586D01*
X32046564Y-48249127D01*
X32389999Y-48317440D01*
X33040001Y-48317440D01*
X33383436Y-48249127D01*
X33674586Y-48054586D01*
X33740000Y-47956687D01*
X33805414Y-48054586D01*
X33880000Y-48104423D01*
X33880001Y-50196290D01*
X33606280Y-49922569D01*
X33225874Y-49765000D01*
X32814126Y-49765000D01*
X32433720Y-49922569D01*
X32142569Y-50213720D01*
X31985000Y-50594126D01*
X31985000Y-51005874D01*
X32135001Y-51368009D01*
X32135000Y-52023282D01*
X32046564Y-52040873D01*
X31935626Y-52115000D01*
X30527115Y-52115000D01*
X30429836Y-52050000D01*
X30567809Y-51957809D01*
X30708157Y-51747765D01*
X30757440Y-51500000D01*
X30757440Y-50700000D01*
X30708157Y-50452235D01*
X30567809Y-50242191D01*
X30555571Y-50234014D01*
X30562337Y-50199999D01*
X30545000Y-50112839D01*
X30545000Y-50112835D01*
X30493652Y-49854690D01*
X30298049Y-49561951D01*
X30224156Y-49512577D01*
X29677425Y-48965847D01*
X29628049Y-48891951D01*
X29335310Y-48696348D01*
X29077165Y-48645000D01*
X29077161Y-48645000D01*
X28990000Y-48627663D01*
X28902839Y-48645000D01*
X25968007Y-48645000D01*
X25605874Y-48495000D01*
X25194126Y-48495000D01*
X24813720Y-48652569D01*
X24522569Y-48943720D01*
X24365000Y-49324126D01*
X24365000Y-49735874D01*
X24522569Y-50116280D01*
X24813720Y-50407431D01*
X25194126Y-50565000D01*
X25605874Y-50565000D01*
X25968007Y-50415000D01*
X28623422Y-50415000D01*
X28631395Y-50422973D01*
X28611843Y-50452235D01*
X28562560Y-50700000D01*
X28562560Y-51188684D01*
X28357765Y-51051843D01*
X28110000Y-51002560D01*
X27210000Y-51002560D01*
X26962235Y-51051843D01*
X26792885Y-51165000D01*
X25697946Y-51165000D01*
X25564586Y-50965414D01*
X25273436Y-50770873D01*
X24930001Y-50702560D01*
X24279999Y-50702560D01*
X23936564Y-50770873D01*
X23645414Y-50965414D01*
X23644623Y-50966597D01*
X23489698Y-50811673D01*
X23256309Y-50715000D01*
X22840750Y-50715000D01*
X22682000Y-50873750D01*
X22682000Y-51923000D01*
X22702000Y-51923000D01*
X22702000Y-52177000D01*
X22682000Y-52177000D01*
X22682000Y-53226250D01*
X22840750Y-53385000D01*
X23256309Y-53385000D01*
X23489698Y-53288327D01*
X23644623Y-53133403D01*
X23645414Y-53134586D01*
X23936564Y-53329127D01*
X24279999Y-53397440D01*
X24930001Y-53397440D01*
X25273436Y-53329127D01*
X25564586Y-53134586D01*
X25697946Y-52935000D01*
X26792885Y-52935000D01*
X26962235Y-53048157D01*
X27210000Y-53097440D01*
X28110000Y-53097440D01*
X28357765Y-53048157D01*
X28562560Y-52911316D01*
X28562560Y-53400000D01*
X28611843Y-53647765D01*
X28752191Y-53857809D01*
X28962235Y-53998157D01*
X29210000Y-54047440D01*
X30110000Y-54047440D01*
X30357765Y-53998157D01*
X30527115Y-53885000D01*
X31515435Y-53885000D01*
X31560873Y-54113436D01*
X31755414Y-54404586D01*
X32046564Y-54599127D01*
X32389999Y-54667440D01*
X33040001Y-54667440D01*
X33383436Y-54599127D01*
X33674586Y-54404586D01*
X33740000Y-54306687D01*
X33805414Y-54404586D01*
X33880001Y-54454423D01*
X33880000Y-56015577D01*
X33805414Y-56065414D01*
X33740000Y-56163313D01*
X33674586Y-56065414D01*
X33383436Y-55870873D01*
X33040001Y-55802560D01*
X32389999Y-55802560D01*
X32046564Y-55870873D01*
X31755414Y-56065414D01*
X31560873Y-56356564D01*
X31492560Y-56699999D01*
X31492560Y-57600001D01*
X31560873Y-57943436D01*
X31580545Y-57972877D01*
X31525852Y-58027569D01*
X31163720Y-58177569D01*
X30876289Y-58465000D01*
X30527115Y-58465000D01*
X30429836Y-58400000D01*
X30567809Y-58307809D01*
X30708157Y-58097765D01*
X30757440Y-57850000D01*
X30757440Y-57050000D01*
X30708157Y-56802235D01*
X30567809Y-56592191D01*
X30555571Y-56584014D01*
X30562337Y-56549999D01*
X30545000Y-56462839D01*
X30545000Y-56462835D01*
X30493652Y-56204690D01*
X30298049Y-55911951D01*
X30224156Y-55862577D01*
X29677425Y-55315847D01*
X29628049Y-55241951D01*
X29335310Y-55046348D01*
X29077165Y-54995000D01*
X29077161Y-54995000D01*
X28990000Y-54977663D01*
X28902839Y-54995000D01*
X25968007Y-54995000D01*
X25605874Y-54845000D01*
X25194126Y-54845000D01*
X24813720Y-55002569D01*
X24522569Y-55293720D01*
X24365000Y-55674126D01*
X24365000Y-56085874D01*
X24522569Y-56466280D01*
X24813720Y-56757431D01*
X25194126Y-56915000D01*
X25605874Y-56915000D01*
X25968007Y-56765000D01*
X28623422Y-56765000D01*
X28631395Y-56772973D01*
X28611843Y-56802235D01*
X28562560Y-57050000D01*
X28562560Y-57538684D01*
X28357765Y-57401843D01*
X28110000Y-57352560D01*
X27210000Y-57352560D01*
X26962235Y-57401843D01*
X26762953Y-57535000D01*
X25968007Y-57535000D01*
X25605874Y-57385000D01*
X25194126Y-57385000D01*
X24813720Y-57542569D01*
X24522569Y-57833720D01*
X24365000Y-58214126D01*
X24365000Y-58625874D01*
X24522569Y-59006280D01*
X24813720Y-59297431D01*
X25194126Y-59455000D01*
X25605874Y-59455000D01*
X25968007Y-59305000D01*
X26822817Y-59305000D01*
X26962235Y-59398157D01*
X27210000Y-59447440D01*
X28110000Y-59447440D01*
X28357765Y-59398157D01*
X28562560Y-59261316D01*
X28562560Y-59750000D01*
X28611843Y-59997765D01*
X28752191Y-60207809D01*
X28962235Y-60348157D01*
X29210000Y-60397440D01*
X30110000Y-60397440D01*
X30357765Y-60348157D01*
X30527115Y-60235000D01*
X31367839Y-60235000D01*
X31455000Y-60252337D01*
X31542161Y-60235000D01*
X31542165Y-60235000D01*
X31547470Y-60233945D01*
X31492560Y-60509999D01*
X31492560Y-60916499D01*
X31461952Y-60936951D01*
X31412578Y-61010844D01*
X31412576Y-61010846D01*
X31266348Y-61229691D01*
X31197663Y-61575000D01*
X31215001Y-61662165D01*
X31215000Y-63782054D01*
X31015414Y-63915414D01*
X30965577Y-63990000D01*
X29634423Y-63990000D01*
X29584586Y-63915414D01*
X29293436Y-63720873D01*
X28950001Y-63652560D01*
X28049999Y-63652560D01*
X27706564Y-63720873D01*
X27415414Y-63915414D01*
X27365577Y-63990000D01*
X26034423Y-63990000D01*
X25984586Y-63915414D01*
X25693436Y-63720873D01*
X25350001Y-63652560D01*
X24449999Y-63652560D01*
X24106564Y-63720873D01*
X23815414Y-63915414D01*
X23758939Y-63999934D01*
X22435256Y-63999934D01*
X22385419Y-63925348D01*
X22094269Y-63730807D01*
X21750834Y-63662494D01*
X20850832Y-63662494D01*
X20507397Y-63730807D01*
X20216247Y-63925348D01*
X20021706Y-64216498D01*
X19953393Y-64559933D01*
X19953393Y-65209935D01*
X20021706Y-65553370D01*
X20216247Y-65844520D01*
X20314146Y-65909934D01*
X20216247Y-65975348D01*
X20021706Y-66266498D01*
X19953393Y-66609933D01*
X19953393Y-67259935D01*
X20021706Y-67603370D01*
X20216247Y-67894520D01*
X20415834Y-68027880D01*
X20415834Y-68229981D01*
X20265000Y-68594126D01*
X20265000Y-69005874D01*
X20422569Y-69386280D01*
X20713720Y-69677431D01*
X21094126Y-69835000D01*
X21505874Y-69835000D01*
X21886280Y-69677431D01*
X22177431Y-69386280D01*
X22335000Y-69005874D01*
X22335000Y-68594126D01*
X22185833Y-68234004D01*
X22185833Y-68027880D01*
X22385419Y-67894520D01*
X22579960Y-67603370D01*
X22648273Y-67259935D01*
X22648273Y-66609933D01*
X22579960Y-66266498D01*
X22385419Y-65975348D01*
X22287520Y-65909934D01*
X22385419Y-65844520D01*
X22435256Y-65769934D01*
X23772215Y-65769934D01*
X23815414Y-65834586D01*
X23913313Y-65900000D01*
X23815414Y-65965414D01*
X23620873Y-66256564D01*
X23552560Y-66599999D01*
X23552560Y-67250001D01*
X23620873Y-67593436D01*
X23815414Y-67884586D01*
X24015001Y-68017946D01*
X24015001Y-68231992D01*
X23865000Y-68594126D01*
X23865000Y-69005874D01*
X24022569Y-69386280D01*
X24313720Y-69677431D01*
X24694126Y-69835000D01*
X25105874Y-69835000D01*
X25486280Y-69677431D01*
X25777431Y-69386280D01*
X25935000Y-69005874D01*
X25935000Y-68594126D01*
X25785000Y-68231993D01*
X25785000Y-68017946D01*
X25984586Y-67884586D01*
X26179127Y-67593436D01*
X26247440Y-67250001D01*
X26247440Y-66599999D01*
X26179127Y-66256564D01*
X25984586Y-65965414D01*
X25886687Y-65900000D01*
X25984586Y-65834586D01*
X26034423Y-65760000D01*
X27365577Y-65760000D01*
X27415414Y-65834586D01*
X27513313Y-65900000D01*
X27415414Y-65965414D01*
X27220873Y-66256564D01*
X27152560Y-66599999D01*
X27152560Y-67250001D01*
X27220873Y-67593436D01*
X27415414Y-67884586D01*
X27615001Y-68017946D01*
X27615001Y-68231992D01*
X27465000Y-68594126D01*
X27465000Y-69005874D01*
X27622569Y-69386280D01*
X27913720Y-69677431D01*
X28294126Y-69835000D01*
X28705874Y-69835000D01*
X29086280Y-69677431D01*
X29377431Y-69386280D01*
X29535000Y-69005874D01*
X29535000Y-68594126D01*
X29385000Y-68231993D01*
X29385000Y-68017946D01*
X29584586Y-67884586D01*
X29779127Y-67593436D01*
X29847440Y-67250001D01*
X29847440Y-66599999D01*
X29779127Y-66256564D01*
X29584586Y-65965414D01*
X29486687Y-65900000D01*
X29584586Y-65834586D01*
X29634423Y-65760000D01*
X30965577Y-65760000D01*
X31015414Y-65834586D01*
X31113313Y-65900000D01*
X31015414Y-65965414D01*
X30820873Y-66256564D01*
X30752560Y-66599999D01*
X30752560Y-67250001D01*
X30820873Y-67593436D01*
X31015414Y-67884586D01*
X31215001Y-68017946D01*
X31215001Y-68231992D01*
X31065000Y-68594126D01*
X31065000Y-69005874D01*
X31222569Y-69386280D01*
X31513720Y-69677431D01*
X31894126Y-69835000D01*
X32305874Y-69835000D01*
X32686280Y-69677431D01*
X32977431Y-69386280D01*
X33135000Y-69005874D01*
X33135000Y-68594126D01*
X32985000Y-68231993D01*
X32985000Y-68017946D01*
X33184586Y-67884586D01*
X33379127Y-67593436D01*
X33447440Y-67250001D01*
X33447440Y-66599999D01*
X33379127Y-66256564D01*
X33184586Y-65965414D01*
X33086687Y-65900000D01*
X33184586Y-65834586D01*
X33234423Y-65760000D01*
X34565577Y-65760000D01*
X34615414Y-65834586D01*
X34713313Y-65900000D01*
X34615414Y-65965414D01*
X34420873Y-66256564D01*
X34352560Y-66599999D01*
X34352560Y-67250001D01*
X34420873Y-67593436D01*
X34615414Y-67884586D01*
X34815000Y-68017946D01*
X34815000Y-68231992D01*
X34665000Y-68594126D01*
X34665000Y-69005874D01*
X34822569Y-69386280D01*
X35113720Y-69677431D01*
X35494126Y-69835000D01*
X35905874Y-69835000D01*
X36286280Y-69677431D01*
X36577431Y-69386280D01*
X36735000Y-69005874D01*
X36735000Y-68594126D01*
X36585000Y-68231993D01*
X36585000Y-68017946D01*
X36784586Y-67884586D01*
X36979127Y-67593436D01*
X37039561Y-67289611D01*
X38966340Y-67289611D01*
X38966340Y-68178749D01*
X39306599Y-69000206D01*
X39935314Y-69628921D01*
X40756771Y-69969180D01*
X41645909Y-69969180D01*
X42467366Y-69628921D01*
X43096081Y-69000206D01*
X43436340Y-68178749D01*
X43436340Y-67289611D01*
X43096081Y-66468154D01*
X42467366Y-65839439D01*
X41645909Y-65499180D01*
X40756771Y-65499180D01*
X39935314Y-65839439D01*
X39306599Y-66468154D01*
X38966340Y-67289611D01*
X37039561Y-67289611D01*
X37047440Y-67250001D01*
X37047440Y-66599999D01*
X36979127Y-66256564D01*
X36784586Y-65965414D01*
X36686687Y-65900000D01*
X36784586Y-65834586D01*
X36979127Y-65543436D01*
X37047440Y-65200001D01*
X37047440Y-64549999D01*
X36979127Y-64206564D01*
X36784586Y-63915414D01*
X36493436Y-63720873D01*
X36150001Y-63652560D01*
X35249999Y-63652560D01*
X34906564Y-63720873D01*
X34615414Y-63915414D01*
X34565577Y-63990000D01*
X33234423Y-63990000D01*
X33184586Y-63915414D01*
X32985000Y-63782054D01*
X32985000Y-62307440D01*
X33040001Y-62307440D01*
X33383436Y-62239127D01*
X33674586Y-62044586D01*
X33740000Y-61946687D01*
X33805414Y-62044586D01*
X34096564Y-62239127D01*
X34439999Y-62307440D01*
X35090001Y-62307440D01*
X35433436Y-62239127D01*
X35724586Y-62044586D01*
X35857946Y-61845000D01*
X40262839Y-61845000D01*
X40350000Y-61862337D01*
X40437161Y-61845000D01*
X40437165Y-61845000D01*
X40695310Y-61793652D01*
X40988049Y-61598049D01*
X41037425Y-61524153D01*
X42324579Y-60237000D01*
X42747881Y-60237000D01*
X43261337Y-60024320D01*
X43654320Y-59631337D01*
X43765001Y-59364129D01*
X43765001Y-70435000D01*
X13385000Y-70435000D01*
X13385000Y-67289611D01*
X13573960Y-67289611D01*
X13573960Y-68178749D01*
X13914219Y-69000206D01*
X14542934Y-69628921D01*
X15364391Y-69969180D01*
X16253529Y-69969180D01*
X17074986Y-69628921D01*
X17703701Y-69000206D01*
X18043960Y-68178749D01*
X18043960Y-67289611D01*
X17703701Y-66468154D01*
X17074986Y-65839439D01*
X16253529Y-65499180D01*
X15364391Y-65499180D01*
X14542934Y-65839439D01*
X13914219Y-66468154D01*
X13573960Y-67289611D01*
X13385000Y-67289611D01*
X13385000Y-59670657D01*
X13738663Y-60024320D01*
X14252119Y-60237000D01*
X14807881Y-60237000D01*
X15321337Y-60024320D01*
X15714320Y-59631337D01*
X15927000Y-59117881D01*
X15927000Y-58562119D01*
X15714320Y-58048663D01*
X15321337Y-57655680D01*
X15130353Y-57576572D01*
X15261143Y-57522397D01*
X15330608Y-57280213D01*
X14530000Y-56479605D01*
X13729392Y-57280213D01*
X13798857Y-57522397D01*
X13939393Y-57572535D01*
X13738663Y-57655680D01*
X13385000Y-58009343D01*
X13385000Y-57053343D01*
X13549787Y-57100608D01*
X14350395Y-56300000D01*
X14709605Y-56300000D01*
X15510213Y-57100608D01*
X15752397Y-57031143D01*
X15939144Y-56507698D01*
X15911362Y-55952632D01*
X15752397Y-55568857D01*
X15510213Y-55499392D01*
X14709605Y-56300000D01*
X14350395Y-56300000D01*
X13549787Y-55499392D01*
X13385000Y-55546657D01*
X13385000Y-54590657D01*
X13738663Y-54944320D01*
X13929647Y-55023428D01*
X13798857Y-55077603D01*
X13729392Y-55319787D01*
X14530000Y-56120395D01*
X15330608Y-55319787D01*
X15261143Y-55077603D01*
X15120607Y-55027465D01*
X15321337Y-54944320D01*
X15714320Y-54551337D01*
X15927000Y-54037881D01*
X15927000Y-53482119D01*
X15714320Y-52968663D01*
X15321337Y-52575680D01*
X15114487Y-52490000D01*
X15321337Y-52404320D01*
X15389907Y-52335750D01*
X21345000Y-52335750D01*
X21345000Y-52876310D01*
X21441673Y-53109699D01*
X21620302Y-53288327D01*
X21853691Y-53385000D01*
X22269250Y-53385000D01*
X22428000Y-53226250D01*
X22428000Y-52177000D01*
X21503750Y-52177000D01*
X21345000Y-52335750D01*
X15389907Y-52335750D01*
X15714320Y-52011337D01*
X15927000Y-51497881D01*
X15927000Y-51223690D01*
X21345000Y-51223690D01*
X21345000Y-51764250D01*
X21503750Y-51923000D01*
X22428000Y-51923000D01*
X22428000Y-50873750D01*
X22269250Y-50715000D01*
X21853691Y-50715000D01*
X21620302Y-50811673D01*
X21441673Y-50990301D01*
X21345000Y-51223690D01*
X15927000Y-51223690D01*
X15927000Y-50942119D01*
X15714320Y-50428663D01*
X15321337Y-50035680D01*
X15114487Y-49950000D01*
X15321337Y-49864320D01*
X15714320Y-49471337D01*
X15927000Y-48957881D01*
X15927000Y-48402119D01*
X15714320Y-47888663D01*
X15321337Y-47495680D01*
X15130353Y-47416572D01*
X15261143Y-47362397D01*
X15330608Y-47120213D01*
X14530000Y-46319605D01*
X13729392Y-47120213D01*
X13798857Y-47362397D01*
X13939393Y-47412535D01*
X13738663Y-47495680D01*
X13385000Y-47849343D01*
X13385000Y-46893343D01*
X13549787Y-46940608D01*
X14350395Y-46140000D01*
X14709605Y-46140000D01*
X15510213Y-46940608D01*
X15752397Y-46871143D01*
X15939144Y-46347698D01*
X15921028Y-45985750D01*
X21345000Y-45985750D01*
X21345000Y-46526310D01*
X21441673Y-46759699D01*
X21620302Y-46938327D01*
X21853691Y-47035000D01*
X22269250Y-47035000D01*
X22428000Y-46876250D01*
X22428000Y-45827000D01*
X21503750Y-45827000D01*
X21345000Y-45985750D01*
X15921028Y-45985750D01*
X15911362Y-45792632D01*
X15752397Y-45408857D01*
X15510213Y-45339392D01*
X14709605Y-46140000D01*
X14350395Y-46140000D01*
X13549787Y-45339392D01*
X13385000Y-45386657D01*
X13385000Y-44430657D01*
X13738663Y-44784320D01*
X13929647Y-44863428D01*
X13798857Y-44917603D01*
X13729392Y-45159787D01*
X14530000Y-45960395D01*
X15330608Y-45159787D01*
X15261143Y-44917603D01*
X15138056Y-44873690D01*
X21345000Y-44873690D01*
X21345000Y-45414250D01*
X21503750Y-45573000D01*
X22428000Y-45573000D01*
X22428000Y-44523750D01*
X22269250Y-44365000D01*
X21853691Y-44365000D01*
X21620302Y-44461673D01*
X21441673Y-44640301D01*
X21345000Y-44873690D01*
X15138056Y-44873690D01*
X15120607Y-44867465D01*
X15321337Y-44784320D01*
X15714320Y-44391337D01*
X15927000Y-43877881D01*
X15927000Y-43322119D01*
X15714320Y-42808663D01*
X15321337Y-42415680D01*
X15114487Y-42330000D01*
X15321337Y-42244320D01*
X15714320Y-41851337D01*
X15927000Y-41337881D01*
X15927000Y-40782119D01*
X15714320Y-40268663D01*
X15321337Y-39875680D01*
X15114487Y-39790000D01*
X15321337Y-39704320D01*
X15389907Y-39635750D01*
X21345000Y-39635750D01*
X21345000Y-40176310D01*
X21441673Y-40409699D01*
X21620302Y-40588327D01*
X21853691Y-40685000D01*
X22269250Y-40685000D01*
X22428000Y-40526250D01*
X22428000Y-39477000D01*
X21503750Y-39477000D01*
X21345000Y-39635750D01*
X15389907Y-39635750D01*
X15714320Y-39311337D01*
X15927000Y-38797881D01*
X15927000Y-38523690D01*
X21345000Y-38523690D01*
X21345000Y-39064250D01*
X21503750Y-39223000D01*
X22428000Y-39223000D01*
X22428000Y-38173750D01*
X22269250Y-38015000D01*
X21853691Y-38015000D01*
X21620302Y-38111673D01*
X21441673Y-38290301D01*
X21345000Y-38523690D01*
X15927000Y-38523690D01*
X15927000Y-38242119D01*
X15714320Y-37728663D01*
X15321337Y-37335680D01*
X15114487Y-37250000D01*
X15321337Y-37164320D01*
X15714320Y-36771337D01*
X15927000Y-36257881D01*
X15927000Y-35702119D01*
X15714320Y-35188663D01*
X15321337Y-34795680D01*
X15114487Y-34710000D01*
X15321337Y-34624320D01*
X15714320Y-34231337D01*
X15927000Y-33717881D01*
X15927000Y-33285750D01*
X21345000Y-33285750D01*
X21345000Y-33826310D01*
X21441673Y-34059699D01*
X21620302Y-34238327D01*
X21853691Y-34335000D01*
X22269250Y-34335000D01*
X22428000Y-34176250D01*
X22428000Y-33127000D01*
X21503750Y-33127000D01*
X21345000Y-33285750D01*
X15927000Y-33285750D01*
X15927000Y-33162119D01*
X15714320Y-32648663D01*
X15321337Y-32255680D01*
X15123396Y-32173690D01*
X21345000Y-32173690D01*
X21345000Y-32714250D01*
X21503750Y-32873000D01*
X22428000Y-32873000D01*
X22428000Y-31823750D01*
X22269250Y-31665000D01*
X21853691Y-31665000D01*
X21620302Y-31761673D01*
X21441673Y-31940301D01*
X21345000Y-32173690D01*
X15123396Y-32173690D01*
X15114487Y-32170000D01*
X15321337Y-32084320D01*
X15714320Y-31691337D01*
X15927000Y-31177881D01*
X15927000Y-30622119D01*
X15714320Y-30108663D01*
X15321337Y-29715680D01*
X15114487Y-29630000D01*
X15321337Y-29544320D01*
X15714320Y-29151337D01*
X15927000Y-28637881D01*
X15927000Y-28082119D01*
X15714320Y-27568663D01*
X15321337Y-27175680D01*
X15130353Y-27096572D01*
X15261143Y-27042397D01*
X15330608Y-26800213D01*
X14530000Y-25999605D01*
X13729392Y-26800213D01*
X13798857Y-27042397D01*
X13939393Y-27092535D01*
X13738663Y-27175680D01*
X13385000Y-27529343D01*
X13385000Y-26573343D01*
X13549787Y-26620608D01*
X14350395Y-25820000D01*
X14709605Y-25820000D01*
X15510213Y-26620608D01*
X15752397Y-26551143D01*
X15939144Y-26027698D01*
X15911362Y-25472632D01*
X15752397Y-25088857D01*
X15510213Y-25019392D01*
X14709605Y-25820000D01*
X14350395Y-25820000D01*
X13549787Y-25019392D01*
X13385000Y-25066657D01*
X13385000Y-24110657D01*
X13738663Y-24464320D01*
G36*
X23645414Y-25194586D02*
X23936564Y-25389127D01*
X24279999Y-25457440D01*
X24700861Y-25457440D01*
X25187577Y-25944156D01*
X25236951Y-26018049D01*
X25310844Y-26067423D01*
X25310845Y-26067424D01*
X25356427Y-26097881D01*
X25529690Y-26213652D01*
X25787835Y-26265000D01*
X25787839Y-26265000D01*
X25874999Y-26282337D01*
X25962159Y-26265000D01*
X26792885Y-26265000D01*
X26962235Y-26378157D01*
X27210000Y-26427440D01*
X28110000Y-26427440D01*
X28357765Y-26378157D01*
X28562560Y-26241316D01*
X28562560Y-26730000D01*
X28611843Y-26977765D01*
X28752191Y-27187809D01*
X28962235Y-27328157D01*
X29210000Y-27377440D01*
X30110000Y-27377440D01*
X30357765Y-27328157D01*
X30527115Y-27215000D01*
X31515435Y-27215000D01*
X31560873Y-27443436D01*
X31755414Y-27734586D01*
X31909623Y-27837626D01*
X32027576Y-28014154D01*
X32027578Y-28014156D01*
X32076952Y-28088049D01*
X32150845Y-28137423D01*
X37215000Y-33201579D01*
X37215001Y-39142835D01*
X37197663Y-39230000D01*
X37266348Y-39575309D01*
X37412576Y-39794154D01*
X37412578Y-39794156D01*
X37461952Y-39868049D01*
X37535845Y-39917423D01*
X41073000Y-43454579D01*
X41073000Y-43877881D01*
X41285680Y-44391337D01*
X41678663Y-44784320D01*
X41885513Y-44870000D01*
X41678663Y-44955680D01*
X41285680Y-45348663D01*
X41073000Y-45862119D01*
X41073000Y-46417881D01*
X41285680Y-46931337D01*
X41678663Y-47324320D01*
X41885513Y-47410000D01*
X41678663Y-47495680D01*
X41285680Y-47888663D01*
X41073000Y-48402119D01*
X41073000Y-48957881D01*
X41285680Y-49471337D01*
X41678663Y-49864320D01*
X41885513Y-49950000D01*
X41678663Y-50035680D01*
X41285680Y-50428663D01*
X41073000Y-50942119D01*
X41073000Y-51497881D01*
X41285680Y-52011337D01*
X41678663Y-52404320D01*
X41885513Y-52490000D01*
X41678663Y-52575680D01*
X41285680Y-52968663D01*
X41073000Y-53482119D01*
X41073000Y-54037881D01*
X41285680Y-54551337D01*
X41678663Y-54944320D01*
X41869647Y-55023428D01*
X41738857Y-55077603D01*
X41669392Y-55319787D01*
X42470000Y-56120395D01*
X43270608Y-55319787D01*
X43201143Y-55077603D01*
X43060607Y-55027465D01*
X43261337Y-54944320D01*
X43654320Y-54551337D01*
X43765001Y-54284130D01*
X43765001Y-55744138D01*
X43692397Y-55568857D01*
X43450213Y-55499392D01*
X42649605Y-56300000D01*
X43450213Y-57100608D01*
X43692397Y-57031143D01*
X43765001Y-56827637D01*
X43765001Y-58315871D01*
X43654320Y-58048663D01*
X43261337Y-57655680D01*
X43070353Y-57576572D01*
X43201143Y-57522397D01*
X43270608Y-57280213D01*
X42470000Y-56479605D01*
X41669392Y-57280213D01*
X41738857Y-57522397D01*
X41879393Y-57572535D01*
X41678663Y-57655680D01*
X41285680Y-58048663D01*
X41073000Y-58562119D01*
X41073000Y-58985421D01*
X39983422Y-60075000D01*
X35857946Y-60075000D01*
X35724586Y-59875414D01*
X35650000Y-59825577D01*
X35650000Y-58284423D01*
X35724586Y-58234586D01*
X35919127Y-57943436D01*
X35987440Y-57600001D01*
X35987440Y-56699999D01*
X35919127Y-56356564D01*
X35742553Y-56092302D01*
X41060856Y-56092302D01*
X41088638Y-56647368D01*
X41247603Y-57031143D01*
X41489787Y-57100608D01*
X42290395Y-56300000D01*
X41489787Y-55499392D01*
X41247603Y-55568857D01*
X41060856Y-56092302D01*
X35742553Y-56092302D01*
X35724586Y-56065414D01*
X35650000Y-56015577D01*
X35650000Y-54454423D01*
X35724586Y-54404586D01*
X35919127Y-54113436D01*
X35987440Y-53770001D01*
X35987440Y-52869999D01*
X35919127Y-52526564D01*
X35724586Y-52235414D01*
X35650000Y-52185577D01*
X35650000Y-48104423D01*
X35724586Y-48054586D01*
X35919127Y-47763436D01*
X35987440Y-47420001D01*
X35987440Y-46519999D01*
X35919127Y-46176564D01*
X35724586Y-45885414D01*
X35650000Y-45835577D01*
X35650000Y-41754423D01*
X35724586Y-41704586D01*
X35919127Y-41413436D01*
X35987440Y-41070001D01*
X35987440Y-40169999D01*
X35919127Y-39826564D01*
X35724586Y-39535414D01*
X35650000Y-39485577D01*
X35650000Y-35404423D01*
X35724586Y-35354586D01*
X35919127Y-35063436D01*
X35987440Y-34720001D01*
X35987440Y-33819999D01*
X35919127Y-33476564D01*
X35724586Y-33185414D01*
X35433436Y-32990873D01*
X35090001Y-32922560D01*
X34439999Y-32922560D01*
X34096564Y-32990873D01*
X33805414Y-33185414D01*
X33743179Y-33278555D01*
X33765000Y-33225874D01*
X33765000Y-32814126D01*
X33607431Y-32433720D01*
X33316280Y-32142569D01*
X32935874Y-31985000D01*
X32524126Y-31985000D01*
X32143720Y-32142569D01*
X31852569Y-32433720D01*
X31695000Y-32814126D01*
X31695000Y-33065000D01*
X30527115Y-33065000D01*
X30429836Y-33000000D01*
X30567809Y-32907809D01*
X30708157Y-32697765D01*
X30757440Y-32450000D01*
X30757440Y-31650000D01*
X30708157Y-31402235D01*
X30567809Y-31192191D01*
X30555571Y-31184014D01*
X30562337Y-31149999D01*
X30545000Y-31062839D01*
X30545000Y-31062835D01*
X30493652Y-30804690D01*
X30414261Y-30685874D01*
X30347424Y-30585845D01*
X30347423Y-30585844D01*
X30298049Y-30511951D01*
X30224156Y-30462577D01*
X29677425Y-29915847D01*
X29628049Y-29841951D01*
X29554156Y-29792577D01*
X27137425Y-27375847D01*
X27088049Y-27301951D01*
X26795310Y-27106348D01*
X26537165Y-27055000D01*
X26537161Y-27055000D01*
X26450000Y-27037663D01*
X26362839Y-27055000D01*
X25697946Y-27055000D01*
X25564586Y-26855414D01*
X25273436Y-26660873D01*
X24930001Y-26592560D01*
X24279999Y-26592560D01*
X23936564Y-26660873D01*
X23645414Y-26855414D01*
X23580000Y-26953313D01*
X23514586Y-26855414D01*
X23440000Y-26805577D01*
X23440000Y-25244423D01*
X23514586Y-25194586D01*
X23580000Y-25096687D01*
X23645414Y-25194586D01*
X23645414Y-25194586D01*
G37*
X23645414Y-25194586D02*
X23936564Y-25389127D01*
X24279999Y-25457440D01*
X24700861Y-25457440D01*
X25187577Y-25944156D01*
X25236951Y-26018049D01*
X25310844Y-26067423D01*
X25310845Y-26067424D01*
X25356427Y-26097881D01*
X25529690Y-26213652D01*
X25787835Y-26265000D01*
X25787839Y-26265000D01*
X25874999Y-26282337D01*
X25962159Y-26265000D01*
X26792885Y-26265000D01*
X26962235Y-26378157D01*
X27210000Y-26427440D01*
X28110000Y-26427440D01*
X28357765Y-26378157D01*
X28562560Y-26241316D01*
X28562560Y-26730000D01*
X28611843Y-26977765D01*
X28752191Y-27187809D01*
X28962235Y-27328157D01*
X29210000Y-27377440D01*
X30110000Y-27377440D01*
X30357765Y-27328157D01*
X30527115Y-27215000D01*
X31515435Y-27215000D01*
X31560873Y-27443436D01*
X31755414Y-27734586D01*
X31909623Y-27837626D01*
X32027576Y-28014154D01*
X32027578Y-28014156D01*
X32076952Y-28088049D01*
X32150845Y-28137423D01*
X37215000Y-33201579D01*
X37215001Y-39142835D01*
X37197663Y-39230000D01*
X37266348Y-39575309D01*
X37412576Y-39794154D01*
X37412578Y-39794156D01*
X37461952Y-39868049D01*
X37535845Y-39917423D01*
X41073000Y-43454579D01*
X41073000Y-43877881D01*
X41285680Y-44391337D01*
X41678663Y-44784320D01*
X41885513Y-44870000D01*
X41678663Y-44955680D01*
X41285680Y-45348663D01*
X41073000Y-45862119D01*
X41073000Y-46417881D01*
X41285680Y-46931337D01*
X41678663Y-47324320D01*
X41885513Y-47410000D01*
X41678663Y-47495680D01*
X41285680Y-47888663D01*
X41073000Y-48402119D01*
X41073000Y-48957881D01*
X41285680Y-49471337D01*
X41678663Y-49864320D01*
X41885513Y-49950000D01*
X41678663Y-50035680D01*
X41285680Y-50428663D01*
X41073000Y-50942119D01*
X41073000Y-51497881D01*
X41285680Y-52011337D01*
X41678663Y-52404320D01*
X41885513Y-52490000D01*
X41678663Y-52575680D01*
X41285680Y-52968663D01*
X41073000Y-53482119D01*
X41073000Y-54037881D01*
X41285680Y-54551337D01*
X41678663Y-54944320D01*
X41869647Y-55023428D01*
X41738857Y-55077603D01*
X41669392Y-55319787D01*
X42470000Y-56120395D01*
X43270608Y-55319787D01*
X43201143Y-55077603D01*
X43060607Y-55027465D01*
X43261337Y-54944320D01*
X43654320Y-54551337D01*
X43765001Y-54284130D01*
X43765001Y-55744138D01*
X43692397Y-55568857D01*
X43450213Y-55499392D01*
X42649605Y-56300000D01*
X43450213Y-57100608D01*
X43692397Y-57031143D01*
X43765001Y-56827637D01*
X43765001Y-58315871D01*
X43654320Y-58048663D01*
X43261337Y-57655680D01*
X43070353Y-57576572D01*
X43201143Y-57522397D01*
X43270608Y-57280213D01*
X42470000Y-56479605D01*
X41669392Y-57280213D01*
X41738857Y-57522397D01*
X41879393Y-57572535D01*
X41678663Y-57655680D01*
X41285680Y-58048663D01*
X41073000Y-58562119D01*
X41073000Y-58985421D01*
X39983422Y-60075000D01*
X35857946Y-60075000D01*
X35724586Y-59875414D01*
X35650000Y-59825577D01*
X35650000Y-58284423D01*
X35724586Y-58234586D01*
X35919127Y-57943436D01*
X35987440Y-57600001D01*
X35987440Y-56699999D01*
X35919127Y-56356564D01*
X35742553Y-56092302D01*
X41060856Y-56092302D01*
X41088638Y-56647368D01*
X41247603Y-57031143D01*
X41489787Y-57100608D01*
X42290395Y-56300000D01*
X41489787Y-55499392D01*
X41247603Y-55568857D01*
X41060856Y-56092302D01*
X35742553Y-56092302D01*
X35724586Y-56065414D01*
X35650000Y-56015577D01*
X35650000Y-54454423D01*
X35724586Y-54404586D01*
X35919127Y-54113436D01*
X35987440Y-53770001D01*
X35987440Y-52869999D01*
X35919127Y-52526564D01*
X35724586Y-52235414D01*
X35650000Y-52185577D01*
X35650000Y-48104423D01*
X35724586Y-48054586D01*
X35919127Y-47763436D01*
X35987440Y-47420001D01*
X35987440Y-46519999D01*
X35919127Y-46176564D01*
X35724586Y-45885414D01*
X35650000Y-45835577D01*
X35650000Y-41754423D01*
X35724586Y-41704586D01*
X35919127Y-41413436D01*
X35987440Y-41070001D01*
X35987440Y-40169999D01*
X35919127Y-39826564D01*
X35724586Y-39535414D01*
X35650000Y-39485577D01*
X35650000Y-35404423D01*
X35724586Y-35354586D01*
X35919127Y-35063436D01*
X35987440Y-34720001D01*
X35987440Y-33819999D01*
X35919127Y-33476564D01*
X35724586Y-33185414D01*
X35433436Y-32990873D01*
X35090001Y-32922560D01*
X34439999Y-32922560D01*
X34096564Y-32990873D01*
X33805414Y-33185414D01*
X33743179Y-33278555D01*
X33765000Y-33225874D01*
X33765000Y-32814126D01*
X33607431Y-32433720D01*
X33316280Y-32142569D01*
X32935874Y-31985000D01*
X32524126Y-31985000D01*
X32143720Y-32142569D01*
X31852569Y-32433720D01*
X31695000Y-32814126D01*
X31695000Y-33065000D01*
X30527115Y-33065000D01*
X30429836Y-33000000D01*
X30567809Y-32907809D01*
X30708157Y-32697765D01*
X30757440Y-32450000D01*
X30757440Y-31650000D01*
X30708157Y-31402235D01*
X30567809Y-31192191D01*
X30555571Y-31184014D01*
X30562337Y-31149999D01*
X30545000Y-31062839D01*
X30545000Y-31062835D01*
X30493652Y-30804690D01*
X30414261Y-30685874D01*
X30347424Y-30585845D01*
X30347423Y-30585844D01*
X30298049Y-30511951D01*
X30224156Y-30462577D01*
X29677425Y-29915847D01*
X29628049Y-29841951D01*
X29554156Y-29792577D01*
X27137425Y-27375847D01*
X27088049Y-27301951D01*
X26795310Y-27106348D01*
X26537165Y-27055000D01*
X26537161Y-27055000D01*
X26450000Y-27037663D01*
X26362839Y-27055000D01*
X25697946Y-27055000D01*
X25564586Y-26855414D01*
X25273436Y-26660873D01*
X24930001Y-26592560D01*
X24279999Y-26592560D01*
X23936564Y-26660873D01*
X23645414Y-26855414D01*
X23580000Y-26953313D01*
X23514586Y-26855414D01*
X23440000Y-26805577D01*
X23440000Y-25244423D01*
X23514586Y-25194586D01*
X23580000Y-25096687D01*
X23645414Y-25194586D01*
G36*
X43765000Y-22755869D02*
X43654320Y-22488663D01*
X43261337Y-22095680D01*
X42747881Y-21883000D01*
X42192119Y-21883000D01*
X41678663Y-22095680D01*
X41285680Y-22488663D01*
X41073000Y-23002119D01*
X41073000Y-23425422D01*
X41020577Y-23477845D01*
X40874349Y-23696690D01*
X40805664Y-24041999D01*
X40874349Y-24387308D01*
X41069952Y-24680048D01*
X41362692Y-24875651D01*
X41426083Y-24888260D01*
X41285680Y-25028663D01*
X41073000Y-25542119D01*
X41073000Y-26097881D01*
X41285680Y-26611337D01*
X41678663Y-27004320D01*
X41885513Y-27090000D01*
X41678663Y-27175680D01*
X41285680Y-27568663D01*
X41073000Y-28082119D01*
X41073000Y-28637881D01*
X41285680Y-29151337D01*
X41678663Y-29544320D01*
X41885513Y-29630000D01*
X41678663Y-29715680D01*
X41285680Y-30108663D01*
X41073000Y-30622119D01*
X41073000Y-31177881D01*
X41285680Y-31691337D01*
X41678663Y-32084320D01*
X41885513Y-32170000D01*
X41678663Y-32255680D01*
X41285680Y-32648663D01*
X41073000Y-33162119D01*
X41073000Y-33717881D01*
X41285680Y-34231337D01*
X41678663Y-34624320D01*
X41885513Y-34710000D01*
X41678663Y-34795680D01*
X41285680Y-35188663D01*
X41073000Y-35702119D01*
X41073000Y-36257881D01*
X41285680Y-36771337D01*
X41678663Y-37164320D01*
X41869647Y-37243428D01*
X41738857Y-37297603D01*
X41669392Y-37539787D01*
X42470000Y-38340395D01*
X43270608Y-37539787D01*
X43201143Y-37297603D01*
X43060607Y-37247465D01*
X43261337Y-37164320D01*
X43654320Y-36771337D01*
X43765000Y-36504130D01*
X43765000Y-37964137D01*
X43692397Y-37788857D01*
X43450213Y-37719392D01*
X42649605Y-38520000D01*
X43450213Y-39320608D01*
X43692397Y-39251143D01*
X43765000Y-39047638D01*
X43765000Y-40535870D01*
X43654320Y-40268663D01*
X43261337Y-39875680D01*
X43070353Y-39796572D01*
X43201143Y-39742397D01*
X43270608Y-39500213D01*
X42470000Y-38699605D01*
X41669392Y-39500213D01*
X41738857Y-39742397D01*
X41879393Y-39792535D01*
X41678663Y-39875680D01*
X41285680Y-40268663D01*
X41073000Y-40782119D01*
X41073000Y-40951421D01*
X38985000Y-38863422D01*
X38985000Y-38312302D01*
X41060856Y-38312302D01*
X41088638Y-38867368D01*
X41247603Y-39251143D01*
X41489787Y-39320608D01*
X42290395Y-38520000D01*
X41489787Y-37719392D01*
X41247603Y-37788857D01*
X41060856Y-38312302D01*
X38985000Y-38312302D01*
X38985000Y-32922160D01*
X39002337Y-32834999D01*
X38985000Y-32747836D01*
X38985000Y-32747835D01*
X38933652Y-32489690D01*
X38896254Y-32433720D01*
X38787424Y-32270845D01*
X38787423Y-32270844D01*
X38738049Y-32196951D01*
X38664156Y-32147577D01*
X34490414Y-27973836D01*
X34638000Y-27826250D01*
X34638000Y-26777000D01*
X34892000Y-26777000D01*
X34892000Y-27826250D01*
X35050750Y-27985000D01*
X35466309Y-27985000D01*
X35699698Y-27888327D01*
X35878327Y-27709699D01*
X35975000Y-27476310D01*
X35975000Y-26935750D01*
X35816250Y-26777000D01*
X34892000Y-26777000D01*
X34638000Y-26777000D01*
X34618000Y-26777000D01*
X34618000Y-26523000D01*
X34638000Y-26523000D01*
X34638000Y-25473750D01*
X34892000Y-25473750D01*
X34892000Y-26523000D01*
X35816250Y-26523000D01*
X35975000Y-26364250D01*
X35975000Y-25823690D01*
X35878327Y-25590301D01*
X35699698Y-25411673D01*
X35466309Y-25315000D01*
X35050750Y-25315000D01*
X34892000Y-25473750D01*
X34638000Y-25473750D01*
X34479250Y-25315000D01*
X34063691Y-25315000D01*
X33830302Y-25411673D01*
X33675377Y-25566597D01*
X33674586Y-25565414D01*
X33383436Y-25370873D01*
X33040001Y-25302560D01*
X32389999Y-25302560D01*
X32046564Y-25370873D01*
X31935626Y-25445000D01*
X30527115Y-25445000D01*
X30434306Y-25382987D01*
X30469698Y-25368327D01*
X30648327Y-25189699D01*
X30745000Y-24956310D01*
X30745000Y-24715750D01*
X30586250Y-24557000D01*
X29787000Y-24557000D01*
X29787000Y-24577000D01*
X29533000Y-24577000D01*
X29533000Y-24557000D01*
X28733750Y-24557000D01*
X28648219Y-24642531D01*
X28567809Y-24522191D01*
X28357765Y-24381843D01*
X28110000Y-24332560D01*
X27210000Y-24332560D01*
X26962235Y-24381843D01*
X26792885Y-24495000D01*
X26241579Y-24495000D01*
X25827440Y-24080862D01*
X25827440Y-23903690D01*
X28575000Y-23903690D01*
X28575000Y-24144250D01*
X28733750Y-24303000D01*
X29533000Y-24303000D01*
X29533000Y-23553750D01*
X29787000Y-23553750D01*
X29787000Y-24303000D01*
X30586250Y-24303000D01*
X30745000Y-24144250D01*
X30745000Y-23903690D01*
X30648327Y-23670301D01*
X30469698Y-23491673D01*
X30236309Y-23395000D01*
X29945750Y-23395000D01*
X29787000Y-23553750D01*
X29533000Y-23553750D01*
X29374250Y-23395000D01*
X29083691Y-23395000D01*
X28850302Y-23491673D01*
X28671673Y-23670301D01*
X28575000Y-23903690D01*
X25827440Y-23903690D01*
X25827440Y-23659999D01*
X25759127Y-23316564D01*
X25564586Y-23025414D01*
X25273436Y-22830873D01*
X24930001Y-22762560D01*
X24279999Y-22762560D01*
X23936564Y-22830873D01*
X23645414Y-23025414D01*
X23580000Y-23123313D01*
X23514586Y-23025414D01*
X23223436Y-22830873D01*
X22880001Y-22762560D01*
X22459138Y-22762560D01*
X22412425Y-22715847D01*
X22363049Y-22641951D01*
X22070310Y-22446348D01*
X21812165Y-22395000D01*
X21812161Y-22395000D01*
X21725000Y-22377663D01*
X21637839Y-22395000D01*
X15620657Y-22395000D01*
X15321337Y-22095680D01*
X14807881Y-21883000D01*
X14252119Y-21883000D01*
X13738663Y-22095680D01*
X13385000Y-22449343D01*
X13385000Y-19335750D01*
X20105000Y-19335750D01*
X20105000Y-20026309D01*
X20201673Y-20259698D01*
X20380301Y-20438327D01*
X20613690Y-20535000D01*
X21304250Y-20535000D01*
X21463000Y-20376250D01*
X21463000Y-19177000D01*
X20263750Y-19177000D01*
X20105000Y-19335750D01*
X13385000Y-19335750D01*
X13385000Y-18073691D01*
X20105000Y-18073691D01*
X20105000Y-18764250D01*
X20263750Y-18923000D01*
X21463000Y-18923000D01*
X21463000Y-17723750D01*
X21717000Y-17723750D01*
X21717000Y-18923000D01*
X21737000Y-18923000D01*
X21737000Y-19177000D01*
X21717000Y-19177000D01*
X21717000Y-20376250D01*
X21875750Y-20535000D01*
X22566310Y-20535000D01*
X22799699Y-20438327D01*
X22978327Y-20259698D01*
X23044904Y-20098967D01*
X23059375Y-20120625D01*
X23550582Y-20448839D01*
X23983744Y-20535000D01*
X24276256Y-20535000D01*
X24709418Y-20448839D01*
X25200625Y-20120625D01*
X25528839Y-19629418D01*
X25587252Y-19335750D01*
X31535000Y-19335750D01*
X31535000Y-20026309D01*
X31631673Y-20259698D01*
X31810301Y-20438327D01*
X32043690Y-20535000D01*
X32734250Y-20535000D01*
X32893000Y-20376250D01*
X32893000Y-19177000D01*
X31693750Y-19177000D01*
X31535000Y-19335750D01*
X25587252Y-19335750D01*
X25644092Y-19050000D01*
X25528839Y-18470582D01*
X25263645Y-18073691D01*
X31535000Y-18073691D01*
X31535000Y-18764250D01*
X31693750Y-18923000D01*
X32893000Y-18923000D01*
X32893000Y-17723750D01*
X33147000Y-17723750D01*
X33147000Y-18923000D01*
X33167000Y-18923000D01*
X33167000Y-19177000D01*
X33147000Y-19177000D01*
X33147000Y-20376250D01*
X33305750Y-20535000D01*
X33996310Y-20535000D01*
X34229699Y-20438327D01*
X34408327Y-20259698D01*
X34474904Y-20098967D01*
X34489375Y-20120625D01*
X34980582Y-20448839D01*
X35413744Y-20535000D01*
X35706256Y-20535000D01*
X36139418Y-20448839D01*
X36630625Y-20120625D01*
X36958839Y-19629418D01*
X37074092Y-19050000D01*
X36958839Y-18470582D01*
X36630625Y-17979375D01*
X36139418Y-17651161D01*
X35706256Y-17565000D01*
X35413744Y-17565000D01*
X34980582Y-17651161D01*
X34489375Y-17979375D01*
X34474904Y-18001033D01*
X34408327Y-17840302D01*
X34229699Y-17661673D01*
X33996310Y-17565000D01*
X33305750Y-17565000D01*
X33147000Y-17723750D01*
X32893000Y-17723750D01*
X32734250Y-17565000D01*
X32043690Y-17565000D01*
X31810301Y-17661673D01*
X31631673Y-17840302D01*
X31535000Y-18073691D01*
X25263645Y-18073691D01*
X25200625Y-17979375D01*
X24709418Y-17651161D01*
X24276256Y-17565000D01*
X23983744Y-17565000D01*
X23550582Y-17651161D01*
X23059375Y-17979375D01*
X23044904Y-18001033D01*
X22978327Y-17840302D01*
X22799699Y-17661673D01*
X22566310Y-17565000D01*
X21875750Y-17565000D01*
X21717000Y-17723750D01*
X21463000Y-17723750D01*
X21304250Y-17565000D01*
X20613690Y-17565000D01*
X20380301Y-17661673D01*
X20201673Y-17840302D01*
X20105000Y-18073691D01*
X13385000Y-18073691D01*
X13385000Y-15209451D01*
X13584120Y-15209451D01*
X13584120Y-16098589D01*
X13924379Y-16920046D01*
X14553094Y-17548761D01*
X15374551Y-17889020D01*
X16263689Y-17889020D01*
X17085146Y-17548761D01*
X17713861Y-16920046D01*
X18054120Y-16098589D01*
X18054120Y-15229771D01*
X38989200Y-15229771D01*
X38989200Y-16118909D01*
X39329459Y-16940366D01*
X39958174Y-17569081D01*
X40779631Y-17909340D01*
X41668769Y-17909340D01*
X42490226Y-17569081D01*
X43118941Y-16940366D01*
X43459200Y-16118909D01*
X43459200Y-15229771D01*
X43118941Y-14408314D01*
X42490226Y-13779599D01*
X41668769Y-13439340D01*
X40779631Y-13439340D01*
X39958174Y-13779599D01*
X39329459Y-14408314D01*
X38989200Y-15229771D01*
X18054120Y-15229771D01*
X18054120Y-15209451D01*
X17713861Y-14387994D01*
X17085146Y-13759279D01*
X16263689Y-13419020D01*
X15374551Y-13419020D01*
X14553094Y-13759279D01*
X13924379Y-14387994D01*
X13584120Y-15209451D01*
X13385000Y-15209451D01*
X13385000Y-13385000D01*
X43765000Y-13385000D01*
X43765000Y-22755869D01*
X43765000Y-22755869D01*
G37*
X43765000Y-22755869D02*
X43654320Y-22488663D01*
X43261337Y-22095680D01*
X42747881Y-21883000D01*
X42192119Y-21883000D01*
X41678663Y-22095680D01*
X41285680Y-22488663D01*
X41073000Y-23002119D01*
X41073000Y-23425422D01*
X41020577Y-23477845D01*
X40874349Y-23696690D01*
X40805664Y-24041999D01*
X40874349Y-24387308D01*
X41069952Y-24680048D01*
X41362692Y-24875651D01*
X41426083Y-24888260D01*
X41285680Y-25028663D01*
X41073000Y-25542119D01*
X41073000Y-26097881D01*
X41285680Y-26611337D01*
X41678663Y-27004320D01*
X41885513Y-27090000D01*
X41678663Y-27175680D01*
X41285680Y-27568663D01*
X41073000Y-28082119D01*
X41073000Y-28637881D01*
X41285680Y-29151337D01*
X41678663Y-29544320D01*
X41885513Y-29630000D01*
X41678663Y-29715680D01*
X41285680Y-30108663D01*
X41073000Y-30622119D01*
X41073000Y-31177881D01*
X41285680Y-31691337D01*
X41678663Y-32084320D01*
X41885513Y-32170000D01*
X41678663Y-32255680D01*
X41285680Y-32648663D01*
X41073000Y-33162119D01*
X41073000Y-33717881D01*
X41285680Y-34231337D01*
X41678663Y-34624320D01*
X41885513Y-34710000D01*
X41678663Y-34795680D01*
X41285680Y-35188663D01*
X41073000Y-35702119D01*
X41073000Y-36257881D01*
X41285680Y-36771337D01*
X41678663Y-37164320D01*
X41869647Y-37243428D01*
X41738857Y-37297603D01*
X41669392Y-37539787D01*
X42470000Y-38340395D01*
X43270608Y-37539787D01*
X43201143Y-37297603D01*
X43060607Y-37247465D01*
X43261337Y-37164320D01*
X43654320Y-36771337D01*
X43765000Y-36504130D01*
X43765000Y-37964137D01*
X43692397Y-37788857D01*
X43450213Y-37719392D01*
X42649605Y-38520000D01*
X43450213Y-39320608D01*
X43692397Y-39251143D01*
X43765000Y-39047638D01*
X43765000Y-40535870D01*
X43654320Y-40268663D01*
X43261337Y-39875680D01*
X43070353Y-39796572D01*
X43201143Y-39742397D01*
X43270608Y-39500213D01*
X42470000Y-38699605D01*
X41669392Y-39500213D01*
X41738857Y-39742397D01*
X41879393Y-39792535D01*
X41678663Y-39875680D01*
X41285680Y-40268663D01*
X41073000Y-40782119D01*
X41073000Y-40951421D01*
X38985000Y-38863422D01*
X38985000Y-38312302D01*
X41060856Y-38312302D01*
X41088638Y-38867368D01*
X41247603Y-39251143D01*
X41489787Y-39320608D01*
X42290395Y-38520000D01*
X41489787Y-37719392D01*
X41247603Y-37788857D01*
X41060856Y-38312302D01*
X38985000Y-38312302D01*
X38985000Y-32922160D01*
X39002337Y-32834999D01*
X38985000Y-32747836D01*
X38985000Y-32747835D01*
X38933652Y-32489690D01*
X38896254Y-32433720D01*
X38787424Y-32270845D01*
X38787423Y-32270844D01*
X38738049Y-32196951D01*
X38664156Y-32147577D01*
X34490414Y-27973836D01*
X34638000Y-27826250D01*
X34638000Y-26777000D01*
X34892000Y-26777000D01*
X34892000Y-27826250D01*
X35050750Y-27985000D01*
X35466309Y-27985000D01*
X35699698Y-27888327D01*
X35878327Y-27709699D01*
X35975000Y-27476310D01*
X35975000Y-26935750D01*
X35816250Y-26777000D01*
X34892000Y-26777000D01*
X34638000Y-26777000D01*
X34618000Y-26777000D01*
X34618000Y-26523000D01*
X34638000Y-26523000D01*
X34638000Y-25473750D01*
X34892000Y-25473750D01*
X34892000Y-26523000D01*
X35816250Y-26523000D01*
X35975000Y-26364250D01*
X35975000Y-25823690D01*
X35878327Y-25590301D01*
X35699698Y-25411673D01*
X35466309Y-25315000D01*
X35050750Y-25315000D01*
X34892000Y-25473750D01*
X34638000Y-25473750D01*
X34479250Y-25315000D01*
X34063691Y-25315000D01*
X33830302Y-25411673D01*
X33675377Y-25566597D01*
X33674586Y-25565414D01*
X33383436Y-25370873D01*
X33040001Y-25302560D01*
X32389999Y-25302560D01*
X32046564Y-25370873D01*
X31935626Y-25445000D01*
X30527115Y-25445000D01*
X30434306Y-25382987D01*
X30469698Y-25368327D01*
X30648327Y-25189699D01*
X30745000Y-24956310D01*
X30745000Y-24715750D01*
X30586250Y-24557000D01*
X29787000Y-24557000D01*
X29787000Y-24577000D01*
X29533000Y-24577000D01*
X29533000Y-24557000D01*
X28733750Y-24557000D01*
X28648219Y-24642531D01*
X28567809Y-24522191D01*
X28357765Y-24381843D01*
X28110000Y-24332560D01*
X27210000Y-24332560D01*
X26962235Y-24381843D01*
X26792885Y-24495000D01*
X26241579Y-24495000D01*
X25827440Y-24080862D01*
X25827440Y-23903690D01*
X28575000Y-23903690D01*
X28575000Y-24144250D01*
X28733750Y-24303000D01*
X29533000Y-24303000D01*
X29533000Y-23553750D01*
X29787000Y-23553750D01*
X29787000Y-24303000D01*
X30586250Y-24303000D01*
X30745000Y-24144250D01*
X30745000Y-23903690D01*
X30648327Y-23670301D01*
X30469698Y-23491673D01*
X30236309Y-23395000D01*
X29945750Y-23395000D01*
X29787000Y-23553750D01*
X29533000Y-23553750D01*
X29374250Y-23395000D01*
X29083691Y-23395000D01*
X28850302Y-23491673D01*
X28671673Y-23670301D01*
X28575000Y-23903690D01*
X25827440Y-23903690D01*
X25827440Y-23659999D01*
X25759127Y-23316564D01*
X25564586Y-23025414D01*
X25273436Y-22830873D01*
X24930001Y-22762560D01*
X24279999Y-22762560D01*
X23936564Y-22830873D01*
X23645414Y-23025414D01*
X23580000Y-23123313D01*
X23514586Y-23025414D01*
X23223436Y-22830873D01*
X22880001Y-22762560D01*
X22459138Y-22762560D01*
X22412425Y-22715847D01*
X22363049Y-22641951D01*
X22070310Y-22446348D01*
X21812165Y-22395000D01*
X21812161Y-22395000D01*
X21725000Y-22377663D01*
X21637839Y-22395000D01*
X15620657Y-22395000D01*
X15321337Y-22095680D01*
X14807881Y-21883000D01*
X14252119Y-21883000D01*
X13738663Y-22095680D01*
X13385000Y-22449343D01*
X13385000Y-19335750D01*
X20105000Y-19335750D01*
X20105000Y-20026309D01*
X20201673Y-20259698D01*
X20380301Y-20438327D01*
X20613690Y-20535000D01*
X21304250Y-20535000D01*
X21463000Y-20376250D01*
X21463000Y-19177000D01*
X20263750Y-19177000D01*
X20105000Y-19335750D01*
X13385000Y-19335750D01*
X13385000Y-18073691D01*
X20105000Y-18073691D01*
X20105000Y-18764250D01*
X20263750Y-18923000D01*
X21463000Y-18923000D01*
X21463000Y-17723750D01*
X21717000Y-17723750D01*
X21717000Y-18923000D01*
X21737000Y-18923000D01*
X21737000Y-19177000D01*
X21717000Y-19177000D01*
X21717000Y-20376250D01*
X21875750Y-20535000D01*
X22566310Y-20535000D01*
X22799699Y-20438327D01*
X22978327Y-20259698D01*
X23044904Y-20098967D01*
X23059375Y-20120625D01*
X23550582Y-20448839D01*
X23983744Y-20535000D01*
X24276256Y-20535000D01*
X24709418Y-20448839D01*
X25200625Y-20120625D01*
X25528839Y-19629418D01*
X25587252Y-19335750D01*
X31535000Y-19335750D01*
X31535000Y-20026309D01*
X31631673Y-20259698D01*
X31810301Y-20438327D01*
X32043690Y-20535000D01*
X32734250Y-20535000D01*
X32893000Y-20376250D01*
X32893000Y-19177000D01*
X31693750Y-19177000D01*
X31535000Y-19335750D01*
X25587252Y-19335750D01*
X25644092Y-19050000D01*
X25528839Y-18470582D01*
X25263645Y-18073691D01*
X31535000Y-18073691D01*
X31535000Y-18764250D01*
X31693750Y-18923000D01*
X32893000Y-18923000D01*
X32893000Y-17723750D01*
X33147000Y-17723750D01*
X33147000Y-18923000D01*
X33167000Y-18923000D01*
X33167000Y-19177000D01*
X33147000Y-19177000D01*
X33147000Y-20376250D01*
X33305750Y-20535000D01*
X33996310Y-20535000D01*
X34229699Y-20438327D01*
X34408327Y-20259698D01*
X34474904Y-20098967D01*
X34489375Y-20120625D01*
X34980582Y-20448839D01*
X35413744Y-20535000D01*
X35706256Y-20535000D01*
X36139418Y-20448839D01*
X36630625Y-20120625D01*
X36958839Y-19629418D01*
X37074092Y-19050000D01*
X36958839Y-18470582D01*
X36630625Y-17979375D01*
X36139418Y-17651161D01*
X35706256Y-17565000D01*
X35413744Y-17565000D01*
X34980582Y-17651161D01*
X34489375Y-17979375D01*
X34474904Y-18001033D01*
X34408327Y-17840302D01*
X34229699Y-17661673D01*
X33996310Y-17565000D01*
X33305750Y-17565000D01*
X33147000Y-17723750D01*
X32893000Y-17723750D01*
X32734250Y-17565000D01*
X32043690Y-17565000D01*
X31810301Y-17661673D01*
X31631673Y-17840302D01*
X31535000Y-18073691D01*
X25263645Y-18073691D01*
X25200625Y-17979375D01*
X24709418Y-17651161D01*
X24276256Y-17565000D01*
X23983744Y-17565000D01*
X23550582Y-17651161D01*
X23059375Y-17979375D01*
X23044904Y-18001033D01*
X22978327Y-17840302D01*
X22799699Y-17661673D01*
X22566310Y-17565000D01*
X21875750Y-17565000D01*
X21717000Y-17723750D01*
X21463000Y-17723750D01*
X21304250Y-17565000D01*
X20613690Y-17565000D01*
X20380301Y-17661673D01*
X20201673Y-17840302D01*
X20105000Y-18073691D01*
X13385000Y-18073691D01*
X13385000Y-15209451D01*
X13584120Y-15209451D01*
X13584120Y-16098589D01*
X13924379Y-16920046D01*
X14553094Y-17548761D01*
X15374551Y-17889020D01*
X16263689Y-17889020D01*
X17085146Y-17548761D01*
X17713861Y-16920046D01*
X18054120Y-16098589D01*
X18054120Y-15229771D01*
X38989200Y-15229771D01*
X38989200Y-16118909D01*
X39329459Y-16940366D01*
X39958174Y-17569081D01*
X40779631Y-17909340D01*
X41668769Y-17909340D01*
X42490226Y-17569081D01*
X43118941Y-16940366D01*
X43459200Y-16118909D01*
X43459200Y-15229771D01*
X43118941Y-14408314D01*
X42490226Y-13779599D01*
X41668769Y-13439340D01*
X40779631Y-13439340D01*
X39958174Y-13779599D01*
X39329459Y-14408314D01*
X38989200Y-15229771D01*
X18054120Y-15229771D01*
X18054120Y-15209451D01*
X17713861Y-14387994D01*
X17085146Y-13759279D01*
X16263689Y-13419020D01*
X15374551Y-13419020D01*
X14553094Y-13759279D01*
X13924379Y-14387994D01*
X13584120Y-15209451D01*
X13385000Y-15209451D01*
X13385000Y-13385000D01*
X43765000Y-13385000D01*
X43765000Y-22755869D01*
G04 #@! TD*
M02*
