G04 #@! TF.GenerationSoftware,KiCad,Pcbnew,(5.0.2)-1*
G04 #@! TF.CreationDate,2019-06-21T14:02:06+05:30*
G04 #@! TF.ProjectId,CapacityOfBattery,43617061-6369-4747-994f-664261747465,rev?*
G04 #@! TF.SameCoordinates,Original*
G04 #@! TF.FileFunction,Legend,Top*
G04 #@! TF.FilePolarity,Positive*
%FSLAX46Y46*%
G04 Gerber Fmt 4.6, Leading zero omitted, Abs format (unit mm)*
G04 Created by KiCad (PCBNEW (5.0.2)-1) date 06/21/19 14:02:06*
%MOMM*%
%LPD*%
G01*
G04 APERTURE LIST*
%ADD10C,0.120000*%
%ADD11C,0.150000*%
%ADD12C,0.010000*%
G04 APERTURE END LIST*
D10*
G04 #@! TO.C,RL4*
X24591252Y-44250000D02*
X24068748Y-44250000D01*
X24591252Y-45670000D02*
X24068748Y-45670000D01*
G04 #@! TO.C,RL5*
X24581252Y-43300000D02*
X24058748Y-43300000D01*
X24581252Y-41880000D02*
X24058748Y-41880000D01*
D11*
G04 #@! TO.C,*
X44090000Y-69680000D02*
X44090000Y-12680000D01*
X13590000Y-69680000D02*
X44090000Y-69680000D01*
X13590000Y-12680000D02*
X13590000Y-69680000D01*
X14090000Y-12680000D02*
X13590000Y-12680000D01*
X44090000Y-12680000D02*
X14090000Y-12680000D01*
X43336051Y-15240000D02*
G75*
G03X43336051Y-15240000I-1796051J0D01*
G01*
X17936051Y-15240000D02*
G75*
G03X17936051Y-15240000I-1796051J0D01*
G01*
X17936051Y-67310000D02*
G75*
G03X17936051Y-67310000I-1796051J0D01*
G01*
X43336051Y-67310000D02*
G75*
G03X43336051Y-67310000I-1796051J0D01*
G01*
D10*
G04 #@! TO.C,Q3*
X28590000Y-40330000D02*
X28590000Y-41260000D01*
X28590000Y-43490000D02*
X28590000Y-42560000D01*
X28590000Y-43490000D02*
X30750000Y-43490000D01*
X28590000Y-40330000D02*
X30050000Y-40330000D01*
G04 #@! TO.C,R6*
X34971252Y-33730000D02*
X34448748Y-33730000D01*
X34971252Y-32310000D02*
X34448748Y-32310000D01*
G04 #@! TO.C,J2*
X37350000Y-21010000D02*
X37350000Y-19680000D01*
X38680000Y-21010000D02*
X37350000Y-21010000D01*
X39950000Y-21010000D02*
X39950000Y-18350000D01*
X39950000Y-18350000D02*
X42550000Y-18350000D01*
X39950000Y-21010000D02*
X42550000Y-21010000D01*
X42550000Y-21010000D02*
X42550000Y-18350000D01*
G04 #@! TO.C,J1*
X34620000Y-20980000D02*
X34620000Y-18320000D01*
X32020000Y-20980000D02*
X34620000Y-20980000D01*
X32020000Y-18320000D02*
X34620000Y-18320000D01*
X32020000Y-20980000D02*
X32020000Y-18320000D01*
X30750000Y-20980000D02*
X29420000Y-20980000D01*
X29420000Y-20980000D02*
X29420000Y-19650000D01*
G04 #@! TO.C,Q1*
X28590000Y-50490000D02*
X28590000Y-51420000D01*
X28590000Y-53650000D02*
X28590000Y-52720000D01*
X28590000Y-53650000D02*
X30750000Y-53650000D01*
X28590000Y-50490000D02*
X30050000Y-50490000D01*
G04 #@! TO.C,Q2*
X28590000Y-45410000D02*
X30050000Y-45410000D01*
X28590000Y-48570000D02*
X30750000Y-48570000D01*
X28590000Y-48570000D02*
X28590000Y-47640000D01*
X28590000Y-45410000D02*
X28590000Y-46340000D01*
G04 #@! TO.C,Q4*
X28870000Y-35250000D02*
X30330000Y-35250000D01*
X28870000Y-38410000D02*
X31030000Y-38410000D01*
X28870000Y-38410000D02*
X28870000Y-37480000D01*
X28870000Y-35250000D02*
X28870000Y-36180000D01*
G04 #@! TO.C,R1*
X34961252Y-45510000D02*
X34438748Y-45510000D01*
X34961252Y-44090000D02*
X34438748Y-44090000D01*
G04 #@! TO.C,R3*
X34971252Y-41750000D02*
X34448748Y-41750000D01*
X34971252Y-43170000D02*
X34448748Y-43170000D01*
G04 #@! TO.C,R4*
X34971252Y-40810000D02*
X34448748Y-40810000D01*
X34971252Y-39390000D02*
X34448748Y-39390000D01*
G04 #@! TO.C,R5*
X34971252Y-37030000D02*
X34448748Y-37030000D01*
X34971252Y-38450000D02*
X34448748Y-38450000D01*
G04 #@! TO.C,RL1*
X24581252Y-52710000D02*
X24058748Y-52710000D01*
X24581252Y-51290000D02*
X24058748Y-51290000D01*
G04 #@! TO.C,RL2*
X24581252Y-48990000D02*
X24058748Y-48990000D01*
X24581252Y-50410000D02*
X24058748Y-50410000D01*
G04 #@! TO.C,RL3*
X24591252Y-48040000D02*
X24068748Y-48040000D01*
X24591252Y-46620000D02*
X24068748Y-46620000D01*
G04 #@! TO.C,R2*
X34971252Y-36090000D02*
X34448748Y-36090000D01*
X34971252Y-34670000D02*
X34448748Y-34670000D01*
G04 #@! TO.C,R9*
X23748733Y-27900000D02*
X24091267Y-27900000D01*
X23748733Y-26880000D02*
X24091267Y-26880000D01*
G04 #@! TO.C,R8*
X24091267Y-28770000D02*
X23748733Y-28770000D01*
X24091267Y-29790000D02*
X23748733Y-29790000D01*
G04 #@! TO.C,R7*
X24091267Y-30670000D02*
X23748733Y-30670000D01*
X24091267Y-31690000D02*
X23748733Y-31690000D01*
G04 #@! TO.C,R10*
X23648748Y-34050000D02*
X24171252Y-34050000D01*
X23648748Y-32630000D02*
X24171252Y-32630000D01*
G04 #@! TO.C,Q5*
X28870000Y-30180000D02*
X30330000Y-30180000D01*
X28870000Y-33340000D02*
X31030000Y-33340000D01*
X28870000Y-33340000D02*
X28870000Y-32410000D01*
X28870000Y-30180000D02*
X28870000Y-31110000D01*
D12*
G04 #@! TO.C,REF\002A\002A*
G36*
X29038014Y-56555998D02*
X29196006Y-56556863D01*
X29310347Y-56559205D01*
X29388407Y-56563762D01*
X29437554Y-56571270D01*
X29465159Y-56582466D01*
X29478592Y-56598088D01*
X29485221Y-56618873D01*
X29485865Y-56621563D01*
X29495935Y-56670113D01*
X29514575Y-56765905D01*
X29539845Y-56898743D01*
X29569807Y-57058431D01*
X29602522Y-57234774D01*
X29603664Y-57240967D01*
X29636433Y-57413782D01*
X29667093Y-57566469D01*
X29693664Y-57689871D01*
X29714167Y-57774831D01*
X29726626Y-57812190D01*
X29727220Y-57812852D01*
X29763919Y-57831095D01*
X29839586Y-57861497D01*
X29937878Y-57897493D01*
X29938425Y-57897685D01*
X30062233Y-57944222D01*
X30208196Y-58003504D01*
X30345781Y-58063109D01*
X30352293Y-58066056D01*
X30576390Y-58167765D01*
X31072619Y-57828897D01*
X31224846Y-57725592D01*
X31362741Y-57633237D01*
X31478315Y-57557084D01*
X31563579Y-57502385D01*
X31610544Y-57474393D01*
X31615004Y-57472317D01*
X31649134Y-57481560D01*
X31712881Y-57526156D01*
X31808731Y-57608209D01*
X31939169Y-57729821D01*
X32072328Y-57859205D01*
X32200694Y-57986702D01*
X32315581Y-58103046D01*
X32410073Y-58201052D01*
X32477253Y-58273536D01*
X32510206Y-58313313D01*
X32511432Y-58315361D01*
X32515074Y-58342656D01*
X32501350Y-58387234D01*
X32466869Y-58455112D01*
X32408239Y-58552311D01*
X32322070Y-58684851D01*
X32207200Y-58855476D01*
X32105254Y-59005655D01*
X32014123Y-59140350D01*
X31939073Y-59251740D01*
X31885369Y-59332005D01*
X31858280Y-59373325D01*
X31856574Y-59376130D01*
X31859882Y-59415721D01*
X31884953Y-59492669D01*
X31926798Y-59592432D01*
X31941712Y-59624291D01*
X32006786Y-59766226D01*
X32076212Y-59927273D01*
X32132609Y-60066621D01*
X32173247Y-60170044D01*
X32205526Y-60248642D01*
X32224178Y-60289720D01*
X32226497Y-60292885D01*
X32260803Y-60298128D01*
X32341669Y-60312494D01*
X32458343Y-60333937D01*
X32600075Y-60360413D01*
X32756110Y-60389877D01*
X32915698Y-60420283D01*
X33068085Y-60449588D01*
X33202521Y-60475745D01*
X33308252Y-60496710D01*
X33374526Y-60510439D01*
X33390782Y-60514320D01*
X33407573Y-60523900D01*
X33420249Y-60545536D01*
X33429378Y-60586531D01*
X33435531Y-60654189D01*
X33439280Y-60755812D01*
X33441192Y-60898703D01*
X33441840Y-61090165D01*
X33441874Y-61168645D01*
X33441874Y-61806906D01*
X33288598Y-61837160D01*
X33203322Y-61853564D01*
X33076070Y-61877509D01*
X32922315Y-61906107D01*
X32757534Y-61936467D01*
X32711989Y-61944806D01*
X32559932Y-61974370D01*
X32427468Y-62003442D01*
X32325714Y-62029329D01*
X32265788Y-62049337D01*
X32255805Y-62055301D01*
X32231293Y-62097534D01*
X32196148Y-62179370D01*
X32157173Y-62284683D01*
X32149442Y-62307368D01*
X32098360Y-62448018D01*
X32034954Y-62606714D01*
X31972904Y-62749225D01*
X31972598Y-62749886D01*
X31869267Y-62973440D01*
X32548961Y-63973232D01*
X32112621Y-64410300D01*
X31980649Y-64540381D01*
X31860279Y-64655048D01*
X31758273Y-64748181D01*
X31681391Y-64813658D01*
X31636393Y-64845357D01*
X31629938Y-64847368D01*
X31592040Y-64831529D01*
X31514708Y-64787496D01*
X31406389Y-64720490D01*
X31275532Y-64635734D01*
X31134052Y-64540816D01*
X30990461Y-64443998D01*
X30862435Y-64359751D01*
X30758105Y-64293258D01*
X30685600Y-64249702D01*
X30653158Y-64234264D01*
X30613576Y-64247328D01*
X30538519Y-64281750D01*
X30443468Y-64330380D01*
X30433392Y-64335785D01*
X30305391Y-64399980D01*
X30217618Y-64431463D01*
X30163028Y-64431798D01*
X30134575Y-64402548D01*
X30134410Y-64402138D01*
X30120188Y-64367498D01*
X30086269Y-64285269D01*
X30035284Y-64161814D01*
X29969862Y-64003498D01*
X29892634Y-63816686D01*
X29806229Y-63607742D01*
X29722551Y-63405446D01*
X29630588Y-63182200D01*
X29546150Y-62975392D01*
X29471769Y-62791362D01*
X29409974Y-62636451D01*
X29363297Y-62516996D01*
X29334268Y-62439339D01*
X29325322Y-62410356D01*
X29347756Y-62377110D01*
X29406439Y-62324123D01*
X29484689Y-62265704D01*
X29707534Y-62080952D01*
X29881718Y-61869182D01*
X30005154Y-61634856D01*
X30075754Y-61382434D01*
X30091431Y-61116377D01*
X30080036Y-60993575D01*
X30017950Y-60738793D01*
X29911023Y-60513801D01*
X29765889Y-60320817D01*
X29589178Y-60162061D01*
X29387522Y-60039750D01*
X29167554Y-59956105D01*
X28935906Y-59913344D01*
X28699209Y-59913687D01*
X28464095Y-59959352D01*
X28237196Y-60052559D01*
X28025144Y-60195527D01*
X27936636Y-60276383D01*
X27766889Y-60484007D01*
X27648699Y-60710895D01*
X27581278Y-60950433D01*
X27563840Y-61196007D01*
X27595598Y-61441003D01*
X27675765Y-61678808D01*
X27803555Y-61902807D01*
X27978180Y-62106387D01*
X28173312Y-62265704D01*
X28254591Y-62326602D01*
X28312009Y-62379015D01*
X28332678Y-62410406D01*
X28321856Y-62444639D01*
X28291077Y-62526419D01*
X28242874Y-62649407D01*
X28179778Y-62807263D01*
X28104322Y-62993649D01*
X28019038Y-63202226D01*
X27935219Y-63405496D01*
X27842745Y-63628933D01*
X27757089Y-63835984D01*
X27680882Y-64020286D01*
X27616753Y-64175475D01*
X27567332Y-64295188D01*
X27535248Y-64373061D01*
X27523359Y-64402138D01*
X27495274Y-64431677D01*
X27440949Y-64431591D01*
X27353395Y-64400326D01*
X27225619Y-64336329D01*
X27224608Y-64335785D01*
X27128402Y-64286121D01*
X27050631Y-64249945D01*
X27006777Y-64234408D01*
X27004842Y-64234264D01*
X26971829Y-64250024D01*
X26898946Y-64293850D01*
X26794322Y-64360557D01*
X26666090Y-64444964D01*
X26523948Y-64540816D01*
X26379233Y-64637867D01*
X26248804Y-64722270D01*
X26141110Y-64788801D01*
X26064598Y-64832238D01*
X26028062Y-64847368D01*
X25994418Y-64827482D01*
X25926776Y-64771903D01*
X25831893Y-64686754D01*
X25716530Y-64578153D01*
X25587445Y-64452221D01*
X25545229Y-64410149D01*
X25108739Y-63972931D01*
X25440977Y-63485340D01*
X25541946Y-63335605D01*
X25630562Y-63201220D01*
X25701854Y-63089969D01*
X25750850Y-63009639D01*
X25772578Y-62968014D01*
X25773215Y-62965053D01*
X25761760Y-62925818D01*
X25730949Y-62846895D01*
X25686116Y-62741509D01*
X25654647Y-62670954D01*
X25595808Y-62535876D01*
X25540396Y-62399409D01*
X25497436Y-62284103D01*
X25485766Y-62248977D01*
X25452611Y-62155174D01*
X25420201Y-62082694D01*
X25402399Y-62055301D01*
X25363114Y-62038536D01*
X25277374Y-62014770D01*
X25156303Y-61986697D01*
X25011027Y-61957009D01*
X24946012Y-61944806D01*
X24780913Y-61914468D01*
X24622552Y-61885093D01*
X24486404Y-61859569D01*
X24387943Y-61840785D01*
X24369402Y-61837160D01*
X24216127Y-61806906D01*
X24216127Y-61168645D01*
X24216471Y-60958770D01*
X24217884Y-60799980D01*
X24220936Y-60684973D01*
X24226197Y-60606446D01*
X24234237Y-60557096D01*
X24245627Y-60529619D01*
X24260937Y-60516713D01*
X24267218Y-60514320D01*
X24305104Y-60505833D01*
X24388805Y-60488900D01*
X24507567Y-60465566D01*
X24650639Y-60437875D01*
X24807268Y-60407873D01*
X24966703Y-60377604D01*
X25118191Y-60349115D01*
X25250981Y-60324449D01*
X25354319Y-60305651D01*
X25417455Y-60294767D01*
X25431503Y-60292885D01*
X25444230Y-60267704D01*
X25472400Y-60200622D01*
X25510748Y-60104333D01*
X25525391Y-60066621D01*
X25584452Y-59920921D01*
X25654000Y-59759951D01*
X25716288Y-59624291D01*
X25762121Y-59520561D01*
X25792613Y-59435326D01*
X25802792Y-59383126D01*
X25801169Y-59376130D01*
X25779657Y-59343102D01*
X25730535Y-59269643D01*
X25659077Y-59163577D01*
X25570555Y-59032726D01*
X25470241Y-58884912D01*
X25450406Y-58855734D01*
X25334012Y-58682863D01*
X25248452Y-58551226D01*
X25190316Y-58454761D01*
X25156192Y-58387408D01*
X25142669Y-58343106D01*
X25146336Y-58315794D01*
X25146430Y-58315620D01*
X25175293Y-58279746D01*
X25239133Y-58210391D01*
X25331031Y-58114745D01*
X25444067Y-57999999D01*
X25571321Y-57873341D01*
X25585672Y-57859205D01*
X25746043Y-57703903D01*
X25869805Y-57589870D01*
X25959445Y-57515002D01*
X26017448Y-57477196D01*
X26042996Y-57472317D01*
X26080282Y-57493603D01*
X26157657Y-57542773D01*
X26267133Y-57614575D01*
X26400720Y-57703755D01*
X26550430Y-57805063D01*
X26585382Y-57828897D01*
X27081610Y-58167765D01*
X27305707Y-58066056D01*
X27441989Y-58006783D01*
X27588276Y-57947170D01*
X27714035Y-57899640D01*
X27719575Y-57897685D01*
X27817943Y-57861677D01*
X27893771Y-57831229D01*
X27930718Y-57812905D01*
X27930780Y-57812852D01*
X27942504Y-57779729D01*
X27962432Y-57698267D01*
X27988587Y-57577625D01*
X28018990Y-57426959D01*
X28051663Y-57255428D01*
X28054336Y-57240967D01*
X28087110Y-57064235D01*
X28117198Y-56903810D01*
X28142661Y-56769888D01*
X28161559Y-56672663D01*
X28171953Y-56622332D01*
X28172135Y-56621563D01*
X28178461Y-56600153D01*
X28190761Y-56583988D01*
X28216406Y-56572331D01*
X28262765Y-56564445D01*
X28337208Y-56559593D01*
X28447105Y-56557039D01*
X28599825Y-56556045D01*
X28802738Y-56555874D01*
X28829000Y-56555874D01*
X29038014Y-56555998D01*
X29038014Y-56555998D01*
G37*
X29038014Y-56555998D02*
X29196006Y-56556863D01*
X29310347Y-56559205D01*
X29388407Y-56563762D01*
X29437554Y-56571270D01*
X29465159Y-56582466D01*
X29478592Y-56598088D01*
X29485221Y-56618873D01*
X29485865Y-56621563D01*
X29495935Y-56670113D01*
X29514575Y-56765905D01*
X29539845Y-56898743D01*
X29569807Y-57058431D01*
X29602522Y-57234774D01*
X29603664Y-57240967D01*
X29636433Y-57413782D01*
X29667093Y-57566469D01*
X29693664Y-57689871D01*
X29714167Y-57774831D01*
X29726626Y-57812190D01*
X29727220Y-57812852D01*
X29763919Y-57831095D01*
X29839586Y-57861497D01*
X29937878Y-57897493D01*
X29938425Y-57897685D01*
X30062233Y-57944222D01*
X30208196Y-58003504D01*
X30345781Y-58063109D01*
X30352293Y-58066056D01*
X30576390Y-58167765D01*
X31072619Y-57828897D01*
X31224846Y-57725592D01*
X31362741Y-57633237D01*
X31478315Y-57557084D01*
X31563579Y-57502385D01*
X31610544Y-57474393D01*
X31615004Y-57472317D01*
X31649134Y-57481560D01*
X31712881Y-57526156D01*
X31808731Y-57608209D01*
X31939169Y-57729821D01*
X32072328Y-57859205D01*
X32200694Y-57986702D01*
X32315581Y-58103046D01*
X32410073Y-58201052D01*
X32477253Y-58273536D01*
X32510206Y-58313313D01*
X32511432Y-58315361D01*
X32515074Y-58342656D01*
X32501350Y-58387234D01*
X32466869Y-58455112D01*
X32408239Y-58552311D01*
X32322070Y-58684851D01*
X32207200Y-58855476D01*
X32105254Y-59005655D01*
X32014123Y-59140350D01*
X31939073Y-59251740D01*
X31885369Y-59332005D01*
X31858280Y-59373325D01*
X31856574Y-59376130D01*
X31859882Y-59415721D01*
X31884953Y-59492669D01*
X31926798Y-59592432D01*
X31941712Y-59624291D01*
X32006786Y-59766226D01*
X32076212Y-59927273D01*
X32132609Y-60066621D01*
X32173247Y-60170044D01*
X32205526Y-60248642D01*
X32224178Y-60289720D01*
X32226497Y-60292885D01*
X32260803Y-60298128D01*
X32341669Y-60312494D01*
X32458343Y-60333937D01*
X32600075Y-60360413D01*
X32756110Y-60389877D01*
X32915698Y-60420283D01*
X33068085Y-60449588D01*
X33202521Y-60475745D01*
X33308252Y-60496710D01*
X33374526Y-60510439D01*
X33390782Y-60514320D01*
X33407573Y-60523900D01*
X33420249Y-60545536D01*
X33429378Y-60586531D01*
X33435531Y-60654189D01*
X33439280Y-60755812D01*
X33441192Y-60898703D01*
X33441840Y-61090165D01*
X33441874Y-61168645D01*
X33441874Y-61806906D01*
X33288598Y-61837160D01*
X33203322Y-61853564D01*
X33076070Y-61877509D01*
X32922315Y-61906107D01*
X32757534Y-61936467D01*
X32711989Y-61944806D01*
X32559932Y-61974370D01*
X32427468Y-62003442D01*
X32325714Y-62029329D01*
X32265788Y-62049337D01*
X32255805Y-62055301D01*
X32231293Y-62097534D01*
X32196148Y-62179370D01*
X32157173Y-62284683D01*
X32149442Y-62307368D01*
X32098360Y-62448018D01*
X32034954Y-62606714D01*
X31972904Y-62749225D01*
X31972598Y-62749886D01*
X31869267Y-62973440D01*
X32548961Y-63973232D01*
X32112621Y-64410300D01*
X31980649Y-64540381D01*
X31860279Y-64655048D01*
X31758273Y-64748181D01*
X31681391Y-64813658D01*
X31636393Y-64845357D01*
X31629938Y-64847368D01*
X31592040Y-64831529D01*
X31514708Y-64787496D01*
X31406389Y-64720490D01*
X31275532Y-64635734D01*
X31134052Y-64540816D01*
X30990461Y-64443998D01*
X30862435Y-64359751D01*
X30758105Y-64293258D01*
X30685600Y-64249702D01*
X30653158Y-64234264D01*
X30613576Y-64247328D01*
X30538519Y-64281750D01*
X30443468Y-64330380D01*
X30433392Y-64335785D01*
X30305391Y-64399980D01*
X30217618Y-64431463D01*
X30163028Y-64431798D01*
X30134575Y-64402548D01*
X30134410Y-64402138D01*
X30120188Y-64367498D01*
X30086269Y-64285269D01*
X30035284Y-64161814D01*
X29969862Y-64003498D01*
X29892634Y-63816686D01*
X29806229Y-63607742D01*
X29722551Y-63405446D01*
X29630588Y-63182200D01*
X29546150Y-62975392D01*
X29471769Y-62791362D01*
X29409974Y-62636451D01*
X29363297Y-62516996D01*
X29334268Y-62439339D01*
X29325322Y-62410356D01*
X29347756Y-62377110D01*
X29406439Y-62324123D01*
X29484689Y-62265704D01*
X29707534Y-62080952D01*
X29881718Y-61869182D01*
X30005154Y-61634856D01*
X30075754Y-61382434D01*
X30091431Y-61116377D01*
X30080036Y-60993575D01*
X30017950Y-60738793D01*
X29911023Y-60513801D01*
X29765889Y-60320817D01*
X29589178Y-60162061D01*
X29387522Y-60039750D01*
X29167554Y-59956105D01*
X28935906Y-59913344D01*
X28699209Y-59913687D01*
X28464095Y-59959352D01*
X28237196Y-60052559D01*
X28025144Y-60195527D01*
X27936636Y-60276383D01*
X27766889Y-60484007D01*
X27648699Y-60710895D01*
X27581278Y-60950433D01*
X27563840Y-61196007D01*
X27595598Y-61441003D01*
X27675765Y-61678808D01*
X27803555Y-61902807D01*
X27978180Y-62106387D01*
X28173312Y-62265704D01*
X28254591Y-62326602D01*
X28312009Y-62379015D01*
X28332678Y-62410406D01*
X28321856Y-62444639D01*
X28291077Y-62526419D01*
X28242874Y-62649407D01*
X28179778Y-62807263D01*
X28104322Y-62993649D01*
X28019038Y-63202226D01*
X27935219Y-63405496D01*
X27842745Y-63628933D01*
X27757089Y-63835984D01*
X27680882Y-64020286D01*
X27616753Y-64175475D01*
X27567332Y-64295188D01*
X27535248Y-64373061D01*
X27523359Y-64402138D01*
X27495274Y-64431677D01*
X27440949Y-64431591D01*
X27353395Y-64400326D01*
X27225619Y-64336329D01*
X27224608Y-64335785D01*
X27128402Y-64286121D01*
X27050631Y-64249945D01*
X27006777Y-64234408D01*
X27004842Y-64234264D01*
X26971829Y-64250024D01*
X26898946Y-64293850D01*
X26794322Y-64360557D01*
X26666090Y-64444964D01*
X26523948Y-64540816D01*
X26379233Y-64637867D01*
X26248804Y-64722270D01*
X26141110Y-64788801D01*
X26064598Y-64832238D01*
X26028062Y-64847368D01*
X25994418Y-64827482D01*
X25926776Y-64771903D01*
X25831893Y-64686754D01*
X25716530Y-64578153D01*
X25587445Y-64452221D01*
X25545229Y-64410149D01*
X25108739Y-63972931D01*
X25440977Y-63485340D01*
X25541946Y-63335605D01*
X25630562Y-63201220D01*
X25701854Y-63089969D01*
X25750850Y-63009639D01*
X25772578Y-62968014D01*
X25773215Y-62965053D01*
X25761760Y-62925818D01*
X25730949Y-62846895D01*
X25686116Y-62741509D01*
X25654647Y-62670954D01*
X25595808Y-62535876D01*
X25540396Y-62399409D01*
X25497436Y-62284103D01*
X25485766Y-62248977D01*
X25452611Y-62155174D01*
X25420201Y-62082694D01*
X25402399Y-62055301D01*
X25363114Y-62038536D01*
X25277374Y-62014770D01*
X25156303Y-61986697D01*
X25011027Y-61957009D01*
X24946012Y-61944806D01*
X24780913Y-61914468D01*
X24622552Y-61885093D01*
X24486404Y-61859569D01*
X24387943Y-61840785D01*
X24369402Y-61837160D01*
X24216127Y-61806906D01*
X24216127Y-61168645D01*
X24216471Y-60958770D01*
X24217884Y-60799980D01*
X24220936Y-60684973D01*
X24226197Y-60606446D01*
X24234237Y-60557096D01*
X24245627Y-60529619D01*
X24260937Y-60516713D01*
X24267218Y-60514320D01*
X24305104Y-60505833D01*
X24388805Y-60488900D01*
X24507567Y-60465566D01*
X24650639Y-60437875D01*
X24807268Y-60407873D01*
X24966703Y-60377604D01*
X25118191Y-60349115D01*
X25250981Y-60324449D01*
X25354319Y-60305651D01*
X25417455Y-60294767D01*
X25431503Y-60292885D01*
X25444230Y-60267704D01*
X25472400Y-60200622D01*
X25510748Y-60104333D01*
X25525391Y-60066621D01*
X25584452Y-59920921D01*
X25654000Y-59759951D01*
X25716288Y-59624291D01*
X25762121Y-59520561D01*
X25792613Y-59435326D01*
X25802792Y-59383126D01*
X25801169Y-59376130D01*
X25779657Y-59343102D01*
X25730535Y-59269643D01*
X25659077Y-59163577D01*
X25570555Y-59032726D01*
X25470241Y-58884912D01*
X25450406Y-58855734D01*
X25334012Y-58682863D01*
X25248452Y-58551226D01*
X25190316Y-58454761D01*
X25156192Y-58387408D01*
X25142669Y-58343106D01*
X25146336Y-58315794D01*
X25146430Y-58315620D01*
X25175293Y-58279746D01*
X25239133Y-58210391D01*
X25331031Y-58114745D01*
X25444067Y-57999999D01*
X25571321Y-57873341D01*
X25585672Y-57859205D01*
X25746043Y-57703903D01*
X25869805Y-57589870D01*
X25959445Y-57515002D01*
X26017448Y-57477196D01*
X26042996Y-57472317D01*
X26080282Y-57493603D01*
X26157657Y-57542773D01*
X26267133Y-57614575D01*
X26400720Y-57703755D01*
X26550430Y-57805063D01*
X26585382Y-57828897D01*
X27081610Y-58167765D01*
X27305707Y-58066056D01*
X27441989Y-58006783D01*
X27588276Y-57947170D01*
X27714035Y-57899640D01*
X27719575Y-57897685D01*
X27817943Y-57861677D01*
X27893771Y-57831229D01*
X27930718Y-57812905D01*
X27930780Y-57812852D01*
X27942504Y-57779729D01*
X27962432Y-57698267D01*
X27988587Y-57577625D01*
X28018990Y-57426959D01*
X28051663Y-57255428D01*
X28054336Y-57240967D01*
X28087110Y-57064235D01*
X28117198Y-56903810D01*
X28142661Y-56769888D01*
X28161559Y-56672663D01*
X28171953Y-56622332D01*
X28172135Y-56621563D01*
X28178461Y-56600153D01*
X28190761Y-56583988D01*
X28216406Y-56572331D01*
X28262765Y-56564445D01*
X28337208Y-56559593D01*
X28447105Y-56557039D01*
X28599825Y-56556045D01*
X28802738Y-56555874D01*
X28829000Y-56555874D01*
X29038014Y-56555998D01*
G36*
X35172439Y-66059540D02*
X35287950Y-66135034D01*
X35343664Y-66202617D01*
X35387804Y-66325255D01*
X35391309Y-66422298D01*
X35383368Y-66552056D01*
X35084115Y-66683039D01*
X34938611Y-66749958D01*
X34843537Y-66803790D01*
X34794101Y-66850416D01*
X34785511Y-66895720D01*
X34812972Y-66945582D01*
X34843253Y-66978632D01*
X34931363Y-67031633D01*
X35027196Y-67035347D01*
X35115212Y-66994041D01*
X35179869Y-66911983D01*
X35191433Y-66883008D01*
X35246825Y-66792509D01*
X35310553Y-66753940D01*
X35397966Y-66720946D01*
X35397966Y-66846034D01*
X35390238Y-66931156D01*
X35359966Y-67002938D01*
X35296518Y-67085356D01*
X35287088Y-67096066D01*
X35216513Y-67169391D01*
X35155847Y-67208742D01*
X35079950Y-67226845D01*
X35017030Y-67232774D01*
X34904487Y-67234251D01*
X34824370Y-67215535D01*
X34774390Y-67187747D01*
X34695838Y-67126641D01*
X34641463Y-67060554D01*
X34607052Y-66977441D01*
X34588388Y-66865254D01*
X34581256Y-66711946D01*
X34580687Y-66634136D01*
X34582622Y-66540853D01*
X34758899Y-66540853D01*
X34760944Y-66590896D01*
X34766039Y-66599092D01*
X34799666Y-66587958D01*
X34872030Y-66558493D01*
X34968747Y-66516601D01*
X34988973Y-66507597D01*
X35111203Y-66445442D01*
X35178547Y-66390815D01*
X35193348Y-66339649D01*
X35157947Y-66287876D01*
X35128711Y-66265000D01*
X35023216Y-66219250D01*
X34924476Y-66226808D01*
X34841812Y-66282651D01*
X34784548Y-66381753D01*
X34766188Y-66460414D01*
X34758899Y-66540853D01*
X34582622Y-66540853D01*
X34584459Y-66452351D01*
X34598359Y-66317853D01*
X34625894Y-66219916D01*
X34670572Y-66147811D01*
X34735901Y-66090813D01*
X34764383Y-66072393D01*
X34893763Y-66024422D01*
X35035412Y-66021403D01*
X35172439Y-66059540D01*
X35172439Y-66059540D01*
G37*
X35172439Y-66059540D02*
X35287950Y-66135034D01*
X35343664Y-66202617D01*
X35387804Y-66325255D01*
X35391309Y-66422298D01*
X35383368Y-66552056D01*
X35084115Y-66683039D01*
X34938611Y-66749958D01*
X34843537Y-66803790D01*
X34794101Y-66850416D01*
X34785511Y-66895720D01*
X34812972Y-66945582D01*
X34843253Y-66978632D01*
X34931363Y-67031633D01*
X35027196Y-67035347D01*
X35115212Y-66994041D01*
X35179869Y-66911983D01*
X35191433Y-66883008D01*
X35246825Y-66792509D01*
X35310553Y-66753940D01*
X35397966Y-66720946D01*
X35397966Y-66846034D01*
X35390238Y-66931156D01*
X35359966Y-67002938D01*
X35296518Y-67085356D01*
X35287088Y-67096066D01*
X35216513Y-67169391D01*
X35155847Y-67208742D01*
X35079950Y-67226845D01*
X35017030Y-67232774D01*
X34904487Y-67234251D01*
X34824370Y-67215535D01*
X34774390Y-67187747D01*
X34695838Y-67126641D01*
X34641463Y-67060554D01*
X34607052Y-66977441D01*
X34588388Y-66865254D01*
X34581256Y-66711946D01*
X34580687Y-66634136D01*
X34582622Y-66540853D01*
X34758899Y-66540853D01*
X34760944Y-66590896D01*
X34766039Y-66599092D01*
X34799666Y-66587958D01*
X34872030Y-66558493D01*
X34968747Y-66516601D01*
X34988973Y-66507597D01*
X35111203Y-66445442D01*
X35178547Y-66390815D01*
X35193348Y-66339649D01*
X35157947Y-66287876D01*
X35128711Y-66265000D01*
X35023216Y-66219250D01*
X34924476Y-66226808D01*
X34841812Y-66282651D01*
X34784548Y-66381753D01*
X34766188Y-66460414D01*
X34758899Y-66540853D01*
X34582622Y-66540853D01*
X34584459Y-66452351D01*
X34598359Y-66317853D01*
X34625894Y-66219916D01*
X34670572Y-66147811D01*
X34735901Y-66090813D01*
X34764383Y-66072393D01*
X34893763Y-66024422D01*
X35035412Y-66021403D01*
X35172439Y-66059540D01*
G36*
X34164690Y-66043018D02*
X34199585Y-66058269D01*
X34282877Y-66124235D01*
X34354103Y-66219618D01*
X34398153Y-66321406D01*
X34405322Y-66371587D01*
X34381285Y-66441647D01*
X34328561Y-66478717D01*
X34272031Y-66501164D01*
X34246146Y-66505300D01*
X34233542Y-66475283D01*
X34208654Y-66409961D01*
X34197735Y-66380445D01*
X34136508Y-66278348D01*
X34047861Y-66227423D01*
X33934193Y-66228989D01*
X33925774Y-66230994D01*
X33865088Y-66259767D01*
X33820474Y-66315859D01*
X33790002Y-66406163D01*
X33771744Y-66537571D01*
X33763771Y-66716974D01*
X33763023Y-66812433D01*
X33762652Y-66962913D01*
X33760223Y-67065495D01*
X33753760Y-67130672D01*
X33741288Y-67168938D01*
X33720833Y-67190785D01*
X33690419Y-67206707D01*
X33688661Y-67207509D01*
X33630091Y-67232272D01*
X33601075Y-67241391D01*
X33596616Y-67213822D01*
X33592799Y-67137620D01*
X33589899Y-67022541D01*
X33588191Y-66878341D01*
X33587851Y-66772814D01*
X33589588Y-66568613D01*
X33596382Y-66413697D01*
X33610607Y-66299024D01*
X33634638Y-66215551D01*
X33670848Y-66154236D01*
X33721612Y-66106034D01*
X33771739Y-66072393D01*
X33892275Y-66027619D01*
X34032557Y-66017521D01*
X34164690Y-66043018D01*
X34164690Y-66043018D01*
G37*
X34164690Y-66043018D02*
X34199585Y-66058269D01*
X34282877Y-66124235D01*
X34354103Y-66219618D01*
X34398153Y-66321406D01*
X34405322Y-66371587D01*
X34381285Y-66441647D01*
X34328561Y-66478717D01*
X34272031Y-66501164D01*
X34246146Y-66505300D01*
X34233542Y-66475283D01*
X34208654Y-66409961D01*
X34197735Y-66380445D01*
X34136508Y-66278348D01*
X34047861Y-66227423D01*
X33934193Y-66228989D01*
X33925774Y-66230994D01*
X33865088Y-66259767D01*
X33820474Y-66315859D01*
X33790002Y-66406163D01*
X33771744Y-66537571D01*
X33763771Y-66716974D01*
X33763023Y-66812433D01*
X33762652Y-66962913D01*
X33760223Y-67065495D01*
X33753760Y-67130672D01*
X33741288Y-67168938D01*
X33720833Y-67190785D01*
X33690419Y-67206707D01*
X33688661Y-67207509D01*
X33630091Y-67232272D01*
X33601075Y-67241391D01*
X33596616Y-67213822D01*
X33592799Y-67137620D01*
X33589899Y-67022541D01*
X33588191Y-66878341D01*
X33587851Y-66772814D01*
X33589588Y-66568613D01*
X33596382Y-66413697D01*
X33610607Y-66299024D01*
X33634638Y-66215551D01*
X33670848Y-66154236D01*
X33721612Y-66106034D01*
X33771739Y-66072393D01*
X33892275Y-66027619D01*
X34032557Y-66017521D01*
X34164690Y-66043018D01*
G36*
X33143406Y-66038156D02*
X33227469Y-66076393D01*
X33293450Y-66122726D01*
X33341794Y-66174532D01*
X33375172Y-66241363D01*
X33396253Y-66332769D01*
X33407707Y-66458301D01*
X33412203Y-66627508D01*
X33412678Y-66738933D01*
X33412678Y-67173627D01*
X33338316Y-67207509D01*
X33279746Y-67232272D01*
X33250730Y-67241391D01*
X33245179Y-67214257D01*
X33240775Y-67141094D01*
X33238078Y-67034263D01*
X33237506Y-66949437D01*
X33235046Y-66826887D01*
X33228412Y-66729668D01*
X33218726Y-66670134D01*
X33211032Y-66657483D01*
X33159311Y-66670402D01*
X33078117Y-66703539D01*
X32984102Y-66748461D01*
X32893917Y-66796735D01*
X32824215Y-66839928D01*
X32791648Y-66869608D01*
X32791519Y-66869929D01*
X32794320Y-66924857D01*
X32819439Y-66977292D01*
X32863541Y-67019881D01*
X32927909Y-67034126D01*
X32982921Y-67032466D01*
X33060835Y-67031245D01*
X33101732Y-67049498D01*
X33126295Y-67097726D01*
X33129392Y-67106820D01*
X33140040Y-67175598D01*
X33111565Y-67217360D01*
X33037344Y-67237263D01*
X32957168Y-67240944D01*
X32812890Y-67213658D01*
X32738203Y-67174690D01*
X32645963Y-67083148D01*
X32597043Y-66970782D01*
X32592654Y-66852051D01*
X32634001Y-66741411D01*
X32696197Y-66672080D01*
X32758294Y-66633265D01*
X32855895Y-66584125D01*
X32969632Y-66534292D01*
X32988590Y-66526677D01*
X33113521Y-66471545D01*
X33185539Y-66422954D01*
X33208700Y-66374647D01*
X33187064Y-66320370D01*
X33149920Y-66277943D01*
X33062127Y-66225702D01*
X32965530Y-66221784D01*
X32876944Y-66262041D01*
X32813186Y-66342326D01*
X32804817Y-66363040D01*
X32756096Y-66439225D01*
X32684965Y-66495785D01*
X32595207Y-66542201D01*
X32595207Y-66410584D01*
X32600490Y-66330168D01*
X32623142Y-66266786D01*
X32673367Y-66199163D01*
X32721582Y-66147076D01*
X32796554Y-66073322D01*
X32854806Y-66033702D01*
X32917372Y-66017810D01*
X32988193Y-66015184D01*
X33143406Y-66038156D01*
X33143406Y-66038156D01*
G37*
X33143406Y-66038156D02*
X33227469Y-66076393D01*
X33293450Y-66122726D01*
X33341794Y-66174532D01*
X33375172Y-66241363D01*
X33396253Y-66332769D01*
X33407707Y-66458301D01*
X33412203Y-66627508D01*
X33412678Y-66738933D01*
X33412678Y-67173627D01*
X33338316Y-67207509D01*
X33279746Y-67232272D01*
X33250730Y-67241391D01*
X33245179Y-67214257D01*
X33240775Y-67141094D01*
X33238078Y-67034263D01*
X33237506Y-66949437D01*
X33235046Y-66826887D01*
X33228412Y-66729668D01*
X33218726Y-66670134D01*
X33211032Y-66657483D01*
X33159311Y-66670402D01*
X33078117Y-66703539D01*
X32984102Y-66748461D01*
X32893917Y-66796735D01*
X32824215Y-66839928D01*
X32791648Y-66869608D01*
X32791519Y-66869929D01*
X32794320Y-66924857D01*
X32819439Y-66977292D01*
X32863541Y-67019881D01*
X32927909Y-67034126D01*
X32982921Y-67032466D01*
X33060835Y-67031245D01*
X33101732Y-67049498D01*
X33126295Y-67097726D01*
X33129392Y-67106820D01*
X33140040Y-67175598D01*
X33111565Y-67217360D01*
X33037344Y-67237263D01*
X32957168Y-67240944D01*
X32812890Y-67213658D01*
X32738203Y-67174690D01*
X32645963Y-67083148D01*
X32597043Y-66970782D01*
X32592654Y-66852051D01*
X32634001Y-66741411D01*
X32696197Y-66672080D01*
X32758294Y-66633265D01*
X32855895Y-66584125D01*
X32969632Y-66534292D01*
X32988590Y-66526677D01*
X33113521Y-66471545D01*
X33185539Y-66422954D01*
X33208700Y-66374647D01*
X33187064Y-66320370D01*
X33149920Y-66277943D01*
X33062127Y-66225702D01*
X32965530Y-66221784D01*
X32876944Y-66262041D01*
X32813186Y-66342326D01*
X32804817Y-66363040D01*
X32756096Y-66439225D01*
X32684965Y-66495785D01*
X32595207Y-66542201D01*
X32595207Y-66410584D01*
X32600490Y-66330168D01*
X32623142Y-66266786D01*
X32673367Y-66199163D01*
X32721582Y-66147076D01*
X32796554Y-66073322D01*
X32854806Y-66033702D01*
X32917372Y-66017810D01*
X32988193Y-66015184D01*
X33143406Y-66038156D01*
G36*
X32409124Y-66042840D02*
X32413579Y-66119653D01*
X32417071Y-66236391D01*
X32419315Y-66383821D01*
X32420035Y-66538455D01*
X32420035Y-67061727D01*
X32327645Y-67154117D01*
X32263978Y-67211047D01*
X32208089Y-67234107D01*
X32131702Y-67232647D01*
X32101380Y-67228934D01*
X32006610Y-67218126D01*
X31928222Y-67211933D01*
X31909115Y-67211361D01*
X31844699Y-67215102D01*
X31752571Y-67224494D01*
X31716850Y-67228934D01*
X31629114Y-67235801D01*
X31570153Y-67220885D01*
X31511690Y-67174835D01*
X31490585Y-67154117D01*
X31398195Y-67061727D01*
X31398195Y-66082947D01*
X31472558Y-66049066D01*
X31536590Y-66023970D01*
X31574052Y-66015184D01*
X31583657Y-66042950D01*
X31592635Y-66120530D01*
X31600386Y-66239348D01*
X31606314Y-66390828D01*
X31609173Y-66518805D01*
X31617161Y-67022425D01*
X31686848Y-67032278D01*
X31750229Y-67025389D01*
X31781286Y-67003083D01*
X31789967Y-66961379D01*
X31797378Y-66872544D01*
X31802931Y-66747834D01*
X31806036Y-66598507D01*
X31806484Y-66521661D01*
X31806931Y-66079287D01*
X31898874Y-66047235D01*
X31963949Y-66025443D01*
X31999347Y-66015281D01*
X32000368Y-66015184D01*
X32003920Y-66042809D01*
X32007823Y-66119411D01*
X32011751Y-66235579D01*
X32015376Y-66381904D01*
X32017908Y-66518805D01*
X32025897Y-67022425D01*
X32201069Y-67022425D01*
X32209107Y-66562965D01*
X32217146Y-66103505D01*
X32302543Y-66059344D01*
X32365593Y-66029019D01*
X32402910Y-66015258D01*
X32403987Y-66015184D01*
X32409124Y-66042840D01*
X32409124Y-66042840D01*
G37*
X32409124Y-66042840D02*
X32413579Y-66119653D01*
X32417071Y-66236391D01*
X32419315Y-66383821D01*
X32420035Y-66538455D01*
X32420035Y-67061727D01*
X32327645Y-67154117D01*
X32263978Y-67211047D01*
X32208089Y-67234107D01*
X32131702Y-67232647D01*
X32101380Y-67228934D01*
X32006610Y-67218126D01*
X31928222Y-67211933D01*
X31909115Y-67211361D01*
X31844699Y-67215102D01*
X31752571Y-67224494D01*
X31716850Y-67228934D01*
X31629114Y-67235801D01*
X31570153Y-67220885D01*
X31511690Y-67174835D01*
X31490585Y-67154117D01*
X31398195Y-67061727D01*
X31398195Y-66082947D01*
X31472558Y-66049066D01*
X31536590Y-66023970D01*
X31574052Y-66015184D01*
X31583657Y-66042950D01*
X31592635Y-66120530D01*
X31600386Y-66239348D01*
X31606314Y-66390828D01*
X31609173Y-66518805D01*
X31617161Y-67022425D01*
X31686848Y-67032278D01*
X31750229Y-67025389D01*
X31781286Y-67003083D01*
X31789967Y-66961379D01*
X31797378Y-66872544D01*
X31802931Y-66747834D01*
X31806036Y-66598507D01*
X31806484Y-66521661D01*
X31806931Y-66079287D01*
X31898874Y-66047235D01*
X31963949Y-66025443D01*
X31999347Y-66015281D01*
X32000368Y-66015184D01*
X32003920Y-66042809D01*
X32007823Y-66119411D01*
X32011751Y-66235579D01*
X32015376Y-66381904D01*
X32017908Y-66518805D01*
X32025897Y-67022425D01*
X32201069Y-67022425D01*
X32209107Y-66562965D01*
X32217146Y-66103505D01*
X32302543Y-66059344D01*
X32365593Y-66029019D01*
X32402910Y-66015258D01*
X32403987Y-66015184D01*
X32409124Y-66042840D01*
G36*
X31222914Y-66257455D02*
X31222543Y-66475661D01*
X31221108Y-66643519D01*
X31218002Y-66769070D01*
X31212622Y-66860355D01*
X31204362Y-66925415D01*
X31192616Y-66972291D01*
X31176781Y-67009024D01*
X31164790Y-67029991D01*
X31065490Y-67143694D01*
X30939588Y-67214965D01*
X30800291Y-67240538D01*
X30660805Y-67217150D01*
X30577743Y-67175119D01*
X30490545Y-67102411D01*
X30431117Y-67013612D01*
X30395261Y-66897320D01*
X30378781Y-66742135D01*
X30376447Y-66628287D01*
X30376761Y-66620106D01*
X30580724Y-66620106D01*
X30581970Y-66750657D01*
X30587678Y-66837080D01*
X30600804Y-66893618D01*
X30624306Y-66934514D01*
X30652386Y-66965362D01*
X30746688Y-67024905D01*
X30847940Y-67029992D01*
X30943636Y-66980279D01*
X30951084Y-66973543D01*
X30982874Y-66938502D01*
X31002808Y-66896811D01*
X31013600Y-66834762D01*
X31017965Y-66738644D01*
X31018655Y-66632379D01*
X31017159Y-66498880D01*
X31010964Y-66409822D01*
X30997514Y-66351293D01*
X30974251Y-66309382D01*
X30955175Y-66287123D01*
X30866563Y-66230985D01*
X30764508Y-66224235D01*
X30667095Y-66267114D01*
X30648296Y-66283032D01*
X30616293Y-66318382D01*
X30596318Y-66360502D01*
X30585593Y-66423251D01*
X30581339Y-66520487D01*
X30580724Y-66620106D01*
X30376761Y-66620106D01*
X30383504Y-66444947D01*
X30407472Y-66307195D01*
X30452548Y-66203632D01*
X30522928Y-66122856D01*
X30577743Y-66081455D01*
X30677376Y-66036728D01*
X30792855Y-66015967D01*
X30900199Y-66021525D01*
X30960264Y-66043943D01*
X30983835Y-66050323D01*
X30999477Y-66026535D01*
X31010395Y-65962788D01*
X31018655Y-65865687D01*
X31027699Y-65757541D01*
X31040261Y-65692475D01*
X31063119Y-65655268D01*
X31103051Y-65630699D01*
X31128138Y-65619819D01*
X31223023Y-65580072D01*
X31222914Y-66257455D01*
X31222914Y-66257455D01*
G37*
X31222914Y-66257455D02*
X31222543Y-66475661D01*
X31221108Y-66643519D01*
X31218002Y-66769070D01*
X31212622Y-66860355D01*
X31204362Y-66925415D01*
X31192616Y-66972291D01*
X31176781Y-67009024D01*
X31164790Y-67029991D01*
X31065490Y-67143694D01*
X30939588Y-67214965D01*
X30800291Y-67240538D01*
X30660805Y-67217150D01*
X30577743Y-67175119D01*
X30490545Y-67102411D01*
X30431117Y-67013612D01*
X30395261Y-66897320D01*
X30378781Y-66742135D01*
X30376447Y-66628287D01*
X30376761Y-66620106D01*
X30580724Y-66620106D01*
X30581970Y-66750657D01*
X30587678Y-66837080D01*
X30600804Y-66893618D01*
X30624306Y-66934514D01*
X30652386Y-66965362D01*
X30746688Y-67024905D01*
X30847940Y-67029992D01*
X30943636Y-66980279D01*
X30951084Y-66973543D01*
X30982874Y-66938502D01*
X31002808Y-66896811D01*
X31013600Y-66834762D01*
X31017965Y-66738644D01*
X31018655Y-66632379D01*
X31017159Y-66498880D01*
X31010964Y-66409822D01*
X30997514Y-66351293D01*
X30974251Y-66309382D01*
X30955175Y-66287123D01*
X30866563Y-66230985D01*
X30764508Y-66224235D01*
X30667095Y-66267114D01*
X30648296Y-66283032D01*
X30616293Y-66318382D01*
X30596318Y-66360502D01*
X30585593Y-66423251D01*
X30581339Y-66520487D01*
X30580724Y-66620106D01*
X30376761Y-66620106D01*
X30383504Y-66444947D01*
X30407472Y-66307195D01*
X30452548Y-66203632D01*
X30522928Y-66122856D01*
X30577743Y-66081455D01*
X30677376Y-66036728D01*
X30792855Y-66015967D01*
X30900199Y-66021525D01*
X30960264Y-66043943D01*
X30983835Y-66050323D01*
X30999477Y-66026535D01*
X31010395Y-65962788D01*
X31018655Y-65865687D01*
X31027699Y-65757541D01*
X31040261Y-65692475D01*
X31063119Y-65655268D01*
X31103051Y-65630699D01*
X31128138Y-65619819D01*
X31223023Y-65580072D01*
X31222914Y-66257455D01*
G36*
X29894943Y-66024920D02*
X30027565Y-66073859D01*
X30135010Y-66160419D01*
X30177032Y-66221352D01*
X30222843Y-66333161D01*
X30221891Y-66414006D01*
X30173808Y-66468378D01*
X30156017Y-66477624D01*
X30079204Y-66506450D01*
X30039976Y-66499065D01*
X30026689Y-66450658D01*
X30026012Y-66423920D01*
X30001686Y-66325548D01*
X29938281Y-66256734D01*
X29850154Y-66223498D01*
X29751663Y-66231861D01*
X29671602Y-66275296D01*
X29644561Y-66300072D01*
X29625394Y-66330129D01*
X29612446Y-66375565D01*
X29604064Y-66446476D01*
X29598593Y-66552960D01*
X29594378Y-66705112D01*
X29593287Y-66753287D01*
X29589307Y-66918095D01*
X29584781Y-67034088D01*
X29577995Y-67110833D01*
X29567231Y-67157893D01*
X29550773Y-67184835D01*
X29526906Y-67201223D01*
X29511626Y-67208463D01*
X29446733Y-67233220D01*
X29408534Y-67241391D01*
X29395912Y-67214103D01*
X29388208Y-67131603D01*
X29385380Y-66992941D01*
X29387386Y-66797162D01*
X29388011Y-66766965D01*
X29392421Y-66588349D01*
X29397635Y-66457923D01*
X29405055Y-66365492D01*
X29416082Y-66300858D01*
X29432117Y-66253825D01*
X29454561Y-66214196D01*
X29466302Y-66197215D01*
X29533619Y-66122080D01*
X29608910Y-66063638D01*
X29618128Y-66058536D01*
X29753133Y-66018260D01*
X29894943Y-66024920D01*
X29894943Y-66024920D01*
G37*
X29894943Y-66024920D02*
X30027565Y-66073859D01*
X30135010Y-66160419D01*
X30177032Y-66221352D01*
X30222843Y-66333161D01*
X30221891Y-66414006D01*
X30173808Y-66468378D01*
X30156017Y-66477624D01*
X30079204Y-66506450D01*
X30039976Y-66499065D01*
X30026689Y-66450658D01*
X30026012Y-66423920D01*
X30001686Y-66325548D01*
X29938281Y-66256734D01*
X29850154Y-66223498D01*
X29751663Y-66231861D01*
X29671602Y-66275296D01*
X29644561Y-66300072D01*
X29625394Y-66330129D01*
X29612446Y-66375565D01*
X29604064Y-66446476D01*
X29598593Y-66552960D01*
X29594378Y-66705112D01*
X29593287Y-66753287D01*
X29589307Y-66918095D01*
X29584781Y-67034088D01*
X29577995Y-67110833D01*
X29567231Y-67157893D01*
X29550773Y-67184835D01*
X29526906Y-67201223D01*
X29511626Y-67208463D01*
X29446733Y-67233220D01*
X29408534Y-67241391D01*
X29395912Y-67214103D01*
X29388208Y-67131603D01*
X29385380Y-66992941D01*
X29387386Y-66797162D01*
X29388011Y-66766965D01*
X29392421Y-66588349D01*
X29397635Y-66457923D01*
X29405055Y-66365492D01*
X29416082Y-66300858D01*
X29432117Y-66253825D01*
X29454561Y-66214196D01*
X29466302Y-66197215D01*
X29533619Y-66122080D01*
X29608910Y-66063638D01*
X29618128Y-66058536D01*
X29753133Y-66018260D01*
X29894943Y-66024920D01*
G36*
X28908944Y-66027360D02*
X29023343Y-66069842D01*
X29024652Y-66070658D01*
X29095403Y-66122730D01*
X29147636Y-66183584D01*
X29184371Y-66262887D01*
X29208634Y-66370309D01*
X29223445Y-66515517D01*
X29231829Y-66708179D01*
X29232564Y-66735628D01*
X29243120Y-67149521D01*
X29154291Y-67195456D01*
X29090018Y-67226498D01*
X29051210Y-67241206D01*
X29049415Y-67241391D01*
X29042700Y-67214250D01*
X29037365Y-67141041D01*
X29034083Y-67034081D01*
X29033368Y-66947469D01*
X29033351Y-66807162D01*
X29026937Y-66719051D01*
X29004580Y-66677025D01*
X28956732Y-66674975D01*
X28873849Y-66706790D01*
X28748713Y-66765272D01*
X28656697Y-66813845D01*
X28609371Y-66855986D01*
X28595458Y-66901916D01*
X28595437Y-66904189D01*
X28618395Y-66983311D01*
X28686370Y-67026055D01*
X28790398Y-67032246D01*
X28865330Y-67031172D01*
X28904839Y-67052753D01*
X28929478Y-67104591D01*
X28943659Y-67170632D01*
X28923223Y-67208104D01*
X28915528Y-67213467D01*
X28843083Y-67235006D01*
X28741633Y-67238055D01*
X28637157Y-67223778D01*
X28563125Y-67197688D01*
X28460772Y-67110785D01*
X28402591Y-66989816D01*
X28391069Y-66895308D01*
X28399862Y-66810062D01*
X28431680Y-66740476D01*
X28494684Y-66678672D01*
X28597031Y-66616772D01*
X28746882Y-66546897D01*
X28756012Y-66542948D01*
X28890997Y-66480588D01*
X28974294Y-66429446D01*
X29009997Y-66383488D01*
X29002203Y-66336683D01*
X28955007Y-66282998D01*
X28940894Y-66270644D01*
X28846359Y-66222741D01*
X28748406Y-66224758D01*
X28663097Y-66271724D01*
X28606496Y-66358669D01*
X28601237Y-66375734D01*
X28550023Y-66458504D01*
X28485037Y-66498372D01*
X28391069Y-66537882D01*
X28391069Y-66435658D01*
X28419653Y-66287072D01*
X28504495Y-66150784D01*
X28548645Y-66105191D01*
X28649005Y-66046674D01*
X28776635Y-66020184D01*
X28908944Y-66027360D01*
X28908944Y-66027360D01*
G37*
X28908944Y-66027360D02*
X29023343Y-66069842D01*
X29024652Y-66070658D01*
X29095403Y-66122730D01*
X29147636Y-66183584D01*
X29184371Y-66262887D01*
X29208634Y-66370309D01*
X29223445Y-66515517D01*
X29231829Y-66708179D01*
X29232564Y-66735628D01*
X29243120Y-67149521D01*
X29154291Y-67195456D01*
X29090018Y-67226498D01*
X29051210Y-67241206D01*
X29049415Y-67241391D01*
X29042700Y-67214250D01*
X29037365Y-67141041D01*
X29034083Y-67034081D01*
X29033368Y-66947469D01*
X29033351Y-66807162D01*
X29026937Y-66719051D01*
X29004580Y-66677025D01*
X28956732Y-66674975D01*
X28873849Y-66706790D01*
X28748713Y-66765272D01*
X28656697Y-66813845D01*
X28609371Y-66855986D01*
X28595458Y-66901916D01*
X28595437Y-66904189D01*
X28618395Y-66983311D01*
X28686370Y-67026055D01*
X28790398Y-67032246D01*
X28865330Y-67031172D01*
X28904839Y-67052753D01*
X28929478Y-67104591D01*
X28943659Y-67170632D01*
X28923223Y-67208104D01*
X28915528Y-67213467D01*
X28843083Y-67235006D01*
X28741633Y-67238055D01*
X28637157Y-67223778D01*
X28563125Y-67197688D01*
X28460772Y-67110785D01*
X28402591Y-66989816D01*
X28391069Y-66895308D01*
X28399862Y-66810062D01*
X28431680Y-66740476D01*
X28494684Y-66678672D01*
X28597031Y-66616772D01*
X28746882Y-66546897D01*
X28756012Y-66542948D01*
X28890997Y-66480588D01*
X28974294Y-66429446D01*
X29009997Y-66383488D01*
X29002203Y-66336683D01*
X28955007Y-66282998D01*
X28940894Y-66270644D01*
X28846359Y-66222741D01*
X28748406Y-66224758D01*
X28663097Y-66271724D01*
X28606496Y-66358669D01*
X28601237Y-66375734D01*
X28550023Y-66458504D01*
X28485037Y-66498372D01*
X28391069Y-66537882D01*
X28391069Y-66435658D01*
X28419653Y-66287072D01*
X28504495Y-66150784D01*
X28548645Y-66105191D01*
X28649005Y-66046674D01*
X28776635Y-66020184D01*
X28908944Y-66027360D01*
G36*
X27573598Y-65826857D02*
X27582154Y-65946188D01*
X27591981Y-66016506D01*
X27605599Y-66047179D01*
X27625527Y-66047571D01*
X27631989Y-66043910D01*
X27717940Y-66017398D01*
X27829745Y-66018946D01*
X27943414Y-66046199D01*
X28014510Y-66081455D01*
X28087405Y-66137778D01*
X28140693Y-66201519D01*
X28177275Y-66282510D01*
X28200050Y-66390586D01*
X28211919Y-66535580D01*
X28215782Y-66727326D01*
X28215851Y-66764109D01*
X28215897Y-67177288D01*
X28123954Y-67209339D01*
X28058652Y-67231144D01*
X28022824Y-67241297D01*
X28021770Y-67241391D01*
X28018242Y-67213860D01*
X28015239Y-67137923D01*
X28012990Y-67023565D01*
X28011724Y-66880769D01*
X28011529Y-66793951D01*
X28011123Y-66622773D01*
X28009032Y-66500088D01*
X28003947Y-66416000D01*
X27994560Y-66360614D01*
X27979561Y-66324032D01*
X27957642Y-66296359D01*
X27943957Y-66283032D01*
X27849949Y-66229328D01*
X27747364Y-66225307D01*
X27654290Y-66270725D01*
X27637078Y-66287123D01*
X27611832Y-66317957D01*
X27594320Y-66354531D01*
X27583142Y-66407415D01*
X27576896Y-66487177D01*
X27574182Y-66604385D01*
X27573598Y-66765991D01*
X27573598Y-67177288D01*
X27481655Y-67209339D01*
X27416353Y-67231144D01*
X27380525Y-67241297D01*
X27379471Y-67241391D01*
X27376775Y-67213448D01*
X27374345Y-67134630D01*
X27372278Y-67012453D01*
X27370671Y-66854432D01*
X27369623Y-66668083D01*
X27369231Y-66460920D01*
X27369230Y-66451706D01*
X27369230Y-65662020D01*
X27464115Y-65621997D01*
X27559000Y-65581973D01*
X27573598Y-65826857D01*
X27573598Y-65826857D01*
G37*
X27573598Y-65826857D02*
X27582154Y-65946188D01*
X27591981Y-66016506D01*
X27605599Y-66047179D01*
X27625527Y-66047571D01*
X27631989Y-66043910D01*
X27717940Y-66017398D01*
X27829745Y-66018946D01*
X27943414Y-66046199D01*
X28014510Y-66081455D01*
X28087405Y-66137778D01*
X28140693Y-66201519D01*
X28177275Y-66282510D01*
X28200050Y-66390586D01*
X28211919Y-66535580D01*
X28215782Y-66727326D01*
X28215851Y-66764109D01*
X28215897Y-67177288D01*
X28123954Y-67209339D01*
X28058652Y-67231144D01*
X28022824Y-67241297D01*
X28021770Y-67241391D01*
X28018242Y-67213860D01*
X28015239Y-67137923D01*
X28012990Y-67023565D01*
X28011724Y-66880769D01*
X28011529Y-66793951D01*
X28011123Y-66622773D01*
X28009032Y-66500088D01*
X28003947Y-66416000D01*
X27994560Y-66360614D01*
X27979561Y-66324032D01*
X27957642Y-66296359D01*
X27943957Y-66283032D01*
X27849949Y-66229328D01*
X27747364Y-66225307D01*
X27654290Y-66270725D01*
X27637078Y-66287123D01*
X27611832Y-66317957D01*
X27594320Y-66354531D01*
X27583142Y-66407415D01*
X27576896Y-66487177D01*
X27574182Y-66604385D01*
X27573598Y-66765991D01*
X27573598Y-67177288D01*
X27481655Y-67209339D01*
X27416353Y-67231144D01*
X27380525Y-67241297D01*
X27379471Y-67241391D01*
X27376775Y-67213448D01*
X27374345Y-67134630D01*
X27372278Y-67012453D01*
X27370671Y-66854432D01*
X27369623Y-66668083D01*
X27369231Y-66460920D01*
X27369230Y-66451706D01*
X27369230Y-65662020D01*
X27464115Y-65621997D01*
X27559000Y-65581973D01*
X27573598Y-65826857D01*
G36*
X25144552Y-65987676D02*
X25259658Y-66065111D01*
X25348611Y-66176949D01*
X25401749Y-66319265D01*
X25412497Y-66424015D01*
X25411276Y-66467726D01*
X25401056Y-66501194D01*
X25372961Y-66531179D01*
X25318116Y-66564440D01*
X25227645Y-66607738D01*
X25092672Y-66667833D01*
X25091989Y-66668134D01*
X24967751Y-66725037D01*
X24865873Y-66775565D01*
X24796767Y-66814280D01*
X24770846Y-66835740D01*
X24770839Y-66835913D01*
X24793685Y-66882644D01*
X24847109Y-66934154D01*
X24908442Y-66971261D01*
X24939515Y-66978632D01*
X25024289Y-66953138D01*
X25097293Y-66889291D01*
X25132913Y-66819094D01*
X25167180Y-66767343D01*
X25234303Y-66708409D01*
X25313208Y-66657496D01*
X25382821Y-66629809D01*
X25397377Y-66628287D01*
X25413763Y-66653321D01*
X25414750Y-66717311D01*
X25402708Y-66803593D01*
X25380007Y-66895501D01*
X25349014Y-66976369D01*
X25347448Y-66979509D01*
X25254181Y-67109734D01*
X25133304Y-67198311D01*
X24996027Y-67241786D01*
X24853560Y-67236706D01*
X24717112Y-67179616D01*
X24711045Y-67175602D01*
X24603710Y-67078326D01*
X24533132Y-66951409D01*
X24494074Y-66784526D01*
X24488832Y-66737639D01*
X24479548Y-66516329D01*
X24490678Y-66413124D01*
X24770839Y-66413124D01*
X24774479Y-66477503D01*
X24794389Y-66496291D01*
X24844026Y-66482235D01*
X24922267Y-66449009D01*
X25009726Y-66407359D01*
X25011899Y-66406256D01*
X25086030Y-66367265D01*
X25115781Y-66341244D01*
X25108445Y-66313965D01*
X25077553Y-66278121D01*
X24998960Y-66226251D01*
X24914323Y-66222439D01*
X24838403Y-66260189D01*
X24785965Y-66333001D01*
X24770839Y-66413124D01*
X24490678Y-66413124D01*
X24498644Y-66339261D01*
X24547634Y-66198829D01*
X24615836Y-66100447D01*
X24738935Y-66001030D01*
X24874528Y-65951711D01*
X25012955Y-65948568D01*
X25144552Y-65987676D01*
X25144552Y-65987676D01*
G37*
X25144552Y-65987676D02*
X25259658Y-66065111D01*
X25348611Y-66176949D01*
X25401749Y-66319265D01*
X25412497Y-66424015D01*
X25411276Y-66467726D01*
X25401056Y-66501194D01*
X25372961Y-66531179D01*
X25318116Y-66564440D01*
X25227645Y-66607738D01*
X25092672Y-66667833D01*
X25091989Y-66668134D01*
X24967751Y-66725037D01*
X24865873Y-66775565D01*
X24796767Y-66814280D01*
X24770846Y-66835740D01*
X24770839Y-66835913D01*
X24793685Y-66882644D01*
X24847109Y-66934154D01*
X24908442Y-66971261D01*
X24939515Y-66978632D01*
X25024289Y-66953138D01*
X25097293Y-66889291D01*
X25132913Y-66819094D01*
X25167180Y-66767343D01*
X25234303Y-66708409D01*
X25313208Y-66657496D01*
X25382821Y-66629809D01*
X25397377Y-66628287D01*
X25413763Y-66653321D01*
X25414750Y-66717311D01*
X25402708Y-66803593D01*
X25380007Y-66895501D01*
X25349014Y-66976369D01*
X25347448Y-66979509D01*
X25254181Y-67109734D01*
X25133304Y-67198311D01*
X24996027Y-67241786D01*
X24853560Y-67236706D01*
X24717112Y-67179616D01*
X24711045Y-67175602D01*
X24603710Y-67078326D01*
X24533132Y-66951409D01*
X24494074Y-66784526D01*
X24488832Y-66737639D01*
X24479548Y-66516329D01*
X24490678Y-66413124D01*
X24770839Y-66413124D01*
X24774479Y-66477503D01*
X24794389Y-66496291D01*
X24844026Y-66482235D01*
X24922267Y-66449009D01*
X25009726Y-66407359D01*
X25011899Y-66406256D01*
X25086030Y-66367265D01*
X25115781Y-66341244D01*
X25108445Y-66313965D01*
X25077553Y-66278121D01*
X24998960Y-66226251D01*
X24914323Y-66222439D01*
X24838403Y-66260189D01*
X24785965Y-66333001D01*
X24770839Y-66413124D01*
X24490678Y-66413124D01*
X24498644Y-66339261D01*
X24547634Y-66198829D01*
X24615836Y-66100447D01*
X24738935Y-66001030D01*
X24874528Y-65951711D01*
X25012955Y-65948568D01*
X25144552Y-65987676D01*
G36*
X22877221Y-65969015D02*
X23014061Y-66040968D01*
X23115051Y-66156766D01*
X23150925Y-66231213D01*
X23178839Y-66342992D01*
X23193129Y-66484227D01*
X23194484Y-66638371D01*
X23183595Y-66788879D01*
X23161153Y-66919205D01*
X23127850Y-67012803D01*
X23117615Y-67028922D01*
X22996382Y-67149249D01*
X22852387Y-67221317D01*
X22696139Y-67242408D01*
X22538148Y-67209802D01*
X22494180Y-67190253D01*
X22408556Y-67130012D01*
X22333408Y-67050135D01*
X22326306Y-67040004D01*
X22297439Y-66991181D01*
X22278357Y-66938990D01*
X22267084Y-66870285D01*
X22261645Y-66771918D01*
X22260062Y-66630744D01*
X22260035Y-66599092D01*
X22260107Y-66589019D01*
X22551989Y-66589019D01*
X22553687Y-66722256D01*
X22560372Y-66810674D01*
X22574425Y-66867785D01*
X22598229Y-66907102D01*
X22610379Y-66920241D01*
X22680236Y-66970172D01*
X22748059Y-66967895D01*
X22816635Y-66924584D01*
X22857535Y-66878346D01*
X22881758Y-66810857D01*
X22895361Y-66704433D01*
X22896294Y-66692020D01*
X22898616Y-66499147D01*
X22874350Y-66355900D01*
X22823824Y-66263160D01*
X22747368Y-66221807D01*
X22720076Y-66219552D01*
X22648411Y-66230893D01*
X22599390Y-66270184D01*
X22569418Y-66345326D01*
X22554899Y-66464222D01*
X22551989Y-66589019D01*
X22260107Y-66589019D01*
X22261122Y-66448659D01*
X22265688Y-66343549D01*
X22275688Y-66270714D01*
X22293079Y-66217108D01*
X22319816Y-66169681D01*
X22325724Y-66160864D01*
X22425032Y-66042007D01*
X22533242Y-65973008D01*
X22664981Y-65945619D01*
X22709717Y-65944281D01*
X22877221Y-65969015D01*
X22877221Y-65969015D01*
G37*
X22877221Y-65969015D02*
X23014061Y-66040968D01*
X23115051Y-66156766D01*
X23150925Y-66231213D01*
X23178839Y-66342992D01*
X23193129Y-66484227D01*
X23194484Y-66638371D01*
X23183595Y-66788879D01*
X23161153Y-66919205D01*
X23127850Y-67012803D01*
X23117615Y-67028922D01*
X22996382Y-67149249D01*
X22852387Y-67221317D01*
X22696139Y-67242408D01*
X22538148Y-67209802D01*
X22494180Y-67190253D01*
X22408556Y-67130012D01*
X22333408Y-67050135D01*
X22326306Y-67040004D01*
X22297439Y-66991181D01*
X22278357Y-66938990D01*
X22267084Y-66870285D01*
X22261645Y-66771918D01*
X22260062Y-66630744D01*
X22260035Y-66599092D01*
X22260107Y-66589019D01*
X22551989Y-66589019D01*
X22553687Y-66722256D01*
X22560372Y-66810674D01*
X22574425Y-66867785D01*
X22598229Y-66907102D01*
X22610379Y-66920241D01*
X22680236Y-66970172D01*
X22748059Y-66967895D01*
X22816635Y-66924584D01*
X22857535Y-66878346D01*
X22881758Y-66810857D01*
X22895361Y-66704433D01*
X22896294Y-66692020D01*
X22898616Y-66499147D01*
X22874350Y-66355900D01*
X22823824Y-66263160D01*
X22747368Y-66221807D01*
X22720076Y-66219552D01*
X22648411Y-66230893D01*
X22599390Y-66270184D01*
X22569418Y-66345326D01*
X22554899Y-66464222D01*
X22551989Y-66589019D01*
X22260107Y-66589019D01*
X22261122Y-66448659D01*
X22265688Y-66343549D01*
X22275688Y-66270714D01*
X22293079Y-66217108D01*
X22319816Y-66169681D01*
X22325724Y-66160864D01*
X22425032Y-66042007D01*
X22533242Y-65973008D01*
X22664981Y-65945619D01*
X22709717Y-65944281D01*
X22877221Y-65969015D01*
G36*
X26246429Y-65980719D02*
X26340123Y-66034914D01*
X26405264Y-66088707D01*
X26452907Y-66145066D01*
X26485728Y-66213987D01*
X26506406Y-66305468D01*
X26517620Y-66429506D01*
X26522049Y-66596098D01*
X26522563Y-66715851D01*
X26522563Y-67156659D01*
X26398483Y-67212283D01*
X26274402Y-67267907D01*
X26259805Y-66785095D01*
X26253773Y-66604779D01*
X26247445Y-66473901D01*
X26239606Y-66383511D01*
X26229037Y-66324664D01*
X26214523Y-66288413D01*
X26194848Y-66265810D01*
X26188535Y-66260917D01*
X26092888Y-66222706D01*
X25996207Y-66237827D01*
X25938655Y-66277943D01*
X25915245Y-66306370D01*
X25899039Y-66343672D01*
X25888741Y-66400223D01*
X25883049Y-66486394D01*
X25880664Y-66612558D01*
X25880264Y-66744042D01*
X25880186Y-66908999D01*
X25877361Y-67025761D01*
X25867907Y-67104510D01*
X25847940Y-67155431D01*
X25813576Y-67188706D01*
X25760932Y-67214520D01*
X25690617Y-67241344D01*
X25613820Y-67270542D01*
X25622962Y-66752346D01*
X25626643Y-66565539D01*
X25630950Y-66427490D01*
X25637123Y-66328568D01*
X25646402Y-66259145D01*
X25660027Y-66209590D01*
X25679239Y-66170273D01*
X25702402Y-66135584D01*
X25814152Y-66024770D01*
X25950513Y-65960689D01*
X26098825Y-65945339D01*
X26246429Y-65980719D01*
X26246429Y-65980719D01*
G37*
X26246429Y-65980719D02*
X26340123Y-66034914D01*
X26405264Y-66088707D01*
X26452907Y-66145066D01*
X26485728Y-66213987D01*
X26506406Y-66305468D01*
X26517620Y-66429506D01*
X26522049Y-66596098D01*
X26522563Y-66715851D01*
X26522563Y-67156659D01*
X26398483Y-67212283D01*
X26274402Y-67267907D01*
X26259805Y-66785095D01*
X26253773Y-66604779D01*
X26247445Y-66473901D01*
X26239606Y-66383511D01*
X26229037Y-66324664D01*
X26214523Y-66288413D01*
X26194848Y-66265810D01*
X26188535Y-66260917D01*
X26092888Y-66222706D01*
X25996207Y-66237827D01*
X25938655Y-66277943D01*
X25915245Y-66306370D01*
X25899039Y-66343672D01*
X25888741Y-66400223D01*
X25883049Y-66486394D01*
X25880664Y-66612558D01*
X25880264Y-66744042D01*
X25880186Y-66908999D01*
X25877361Y-67025761D01*
X25867907Y-67104510D01*
X25847940Y-67155431D01*
X25813576Y-67188706D01*
X25760932Y-67214520D01*
X25690617Y-67241344D01*
X25613820Y-67270542D01*
X25622962Y-66752346D01*
X25626643Y-66565539D01*
X25630950Y-66427490D01*
X25637123Y-66328568D01*
X25646402Y-66259145D01*
X25660027Y-66209590D01*
X25679239Y-66170273D01*
X25702402Y-66135584D01*
X25814152Y-66024770D01*
X25950513Y-65960689D01*
X26098825Y-65945339D01*
X26246429Y-65980719D01*
G36*
X24000900Y-65964903D02*
X24112450Y-66020522D01*
X24210908Y-66122931D01*
X24238023Y-66160864D01*
X24267562Y-66210500D01*
X24286728Y-66264412D01*
X24297693Y-66336364D01*
X24302629Y-66440122D01*
X24303713Y-66577101D01*
X24298818Y-66764815D01*
X24281804Y-66905758D01*
X24249177Y-67010908D01*
X24197442Y-67091243D01*
X24123104Y-67157741D01*
X24117642Y-67161678D01*
X24044380Y-67201953D01*
X23956160Y-67221880D01*
X23843962Y-67226793D01*
X23661567Y-67226793D01*
X23661491Y-67403857D01*
X23659793Y-67502470D01*
X23649450Y-67560314D01*
X23622422Y-67595006D01*
X23570668Y-67624164D01*
X23558239Y-67630121D01*
X23500077Y-67658039D01*
X23455044Y-67675672D01*
X23421559Y-67677194D01*
X23398038Y-67656781D01*
X23382900Y-67608607D01*
X23374563Y-67526846D01*
X23371444Y-67405672D01*
X23371960Y-67239260D01*
X23374529Y-67021785D01*
X23375332Y-66956736D01*
X23378222Y-66732502D01*
X23380812Y-66585821D01*
X23661414Y-66585821D01*
X23662991Y-66710326D01*
X23670000Y-66791787D01*
X23685858Y-66845515D01*
X23713981Y-66886823D01*
X23733075Y-66906971D01*
X23811135Y-66965921D01*
X23880247Y-66970720D01*
X23951560Y-66922038D01*
X23953368Y-66920241D01*
X23982383Y-66882618D01*
X24000033Y-66831484D01*
X24008936Y-66752738D01*
X24011709Y-66632276D01*
X24011759Y-66605588D01*
X24005058Y-66439583D01*
X23983248Y-66324505D01*
X23943765Y-66254254D01*
X23884044Y-66222729D01*
X23849528Y-66219552D01*
X23767611Y-66234460D01*
X23711421Y-66283548D01*
X23677598Y-66373362D01*
X23662780Y-66510445D01*
X23661414Y-66585821D01*
X23380812Y-66585821D01*
X23381287Y-66558952D01*
X23385247Y-66428382D01*
X23390826Y-66333087D01*
X23398746Y-66265364D01*
X23409731Y-66217507D01*
X23424501Y-66181813D01*
X23443782Y-66150578D01*
X23452049Y-66138824D01*
X23561712Y-66027797D01*
X23700365Y-65964847D01*
X23860754Y-65947297D01*
X24000900Y-65964903D01*
X24000900Y-65964903D01*
G37*
X24000900Y-65964903D02*
X24112450Y-66020522D01*
X24210908Y-66122931D01*
X24238023Y-66160864D01*
X24267562Y-66210500D01*
X24286728Y-66264412D01*
X24297693Y-66336364D01*
X24302629Y-66440122D01*
X24303713Y-66577101D01*
X24298818Y-66764815D01*
X24281804Y-66905758D01*
X24249177Y-67010908D01*
X24197442Y-67091243D01*
X24123104Y-67157741D01*
X24117642Y-67161678D01*
X24044380Y-67201953D01*
X23956160Y-67221880D01*
X23843962Y-67226793D01*
X23661567Y-67226793D01*
X23661491Y-67403857D01*
X23659793Y-67502470D01*
X23649450Y-67560314D01*
X23622422Y-67595006D01*
X23570668Y-67624164D01*
X23558239Y-67630121D01*
X23500077Y-67658039D01*
X23455044Y-67675672D01*
X23421559Y-67677194D01*
X23398038Y-67656781D01*
X23382900Y-67608607D01*
X23374563Y-67526846D01*
X23371444Y-67405672D01*
X23371960Y-67239260D01*
X23374529Y-67021785D01*
X23375332Y-66956736D01*
X23378222Y-66732502D01*
X23380812Y-66585821D01*
X23661414Y-66585821D01*
X23662991Y-66710326D01*
X23670000Y-66791787D01*
X23685858Y-66845515D01*
X23713981Y-66886823D01*
X23733075Y-66906971D01*
X23811135Y-66965921D01*
X23880247Y-66970720D01*
X23951560Y-66922038D01*
X23953368Y-66920241D01*
X23982383Y-66882618D01*
X24000033Y-66831484D01*
X24008936Y-66752738D01*
X24011709Y-66632276D01*
X24011759Y-66605588D01*
X24005058Y-66439583D01*
X23983248Y-66324505D01*
X23943765Y-66254254D01*
X23884044Y-66222729D01*
X23849528Y-66219552D01*
X23767611Y-66234460D01*
X23711421Y-66283548D01*
X23677598Y-66373362D01*
X23662780Y-66510445D01*
X23661414Y-66585821D01*
X23380812Y-66585821D01*
X23381287Y-66558952D01*
X23385247Y-66428382D01*
X23390826Y-66333087D01*
X23398746Y-66265364D01*
X23409731Y-66217507D01*
X23424501Y-66181813D01*
X23443782Y-66150578D01*
X23452049Y-66138824D01*
X23561712Y-66027797D01*
X23700365Y-65964847D01*
X23860754Y-65947297D01*
X24000900Y-65964903D01*
G04 #@! TO.C,*
D11*
G04 #@! TO.C,RL4*
X20148571Y-45412380D02*
X19815238Y-44936190D01*
X19577142Y-45412380D02*
X19577142Y-44412380D01*
X19958095Y-44412380D01*
X20053333Y-44460000D01*
X20100952Y-44507619D01*
X20148571Y-44602857D01*
X20148571Y-44745714D01*
X20100952Y-44840952D01*
X20053333Y-44888571D01*
X19958095Y-44936190D01*
X19577142Y-44936190D01*
X21053333Y-45412380D02*
X20577142Y-45412380D01*
X20577142Y-44412380D01*
X21815238Y-44745714D02*
X21815238Y-45412380D01*
X21577142Y-44364761D02*
X21339047Y-45079047D01*
X21958095Y-45079047D01*
G04 #@! TO.C,RL5*
X20158571Y-43032380D02*
X19825238Y-42556190D01*
X19587142Y-43032380D02*
X19587142Y-42032380D01*
X19968095Y-42032380D01*
X20063333Y-42080000D01*
X20110952Y-42127619D01*
X20158571Y-42222857D01*
X20158571Y-42365714D01*
X20110952Y-42460952D01*
X20063333Y-42508571D01*
X19968095Y-42556190D01*
X19587142Y-42556190D01*
X21063333Y-43032380D02*
X20587142Y-43032380D01*
X20587142Y-42032380D01*
X21872857Y-42032380D02*
X21396666Y-42032380D01*
X21349047Y-42508571D01*
X21396666Y-42460952D01*
X21491904Y-42413333D01*
X21730000Y-42413333D01*
X21825238Y-42460952D01*
X21872857Y-42508571D01*
X21920476Y-42603809D01*
X21920476Y-42841904D01*
X21872857Y-42937142D01*
X21825238Y-42984761D01*
X21730000Y-43032380D01*
X21491904Y-43032380D01*
X21396666Y-42984761D01*
X21349047Y-42937142D01*
G04 #@! TO.C,*
X39531904Y-23312380D02*
X39531904Y-22312380D01*
X39770000Y-22312380D01*
X39912857Y-22360000D01*
X40008095Y-22455238D01*
X40055714Y-22550476D01*
X40103333Y-22740952D01*
X40103333Y-22883809D01*
X40055714Y-23074285D01*
X40008095Y-23169523D01*
X39912857Y-23264761D01*
X39770000Y-23312380D01*
X39531904Y-23312380D01*
X40722380Y-22312380D02*
X40817619Y-22312380D01*
X40912857Y-22360000D01*
X40960476Y-22407619D01*
X41008095Y-22502857D01*
X41055714Y-22693333D01*
X41055714Y-22931428D01*
X41008095Y-23121904D01*
X40960476Y-23217142D01*
X40912857Y-23264761D01*
X40817619Y-23312380D01*
X40722380Y-23312380D01*
X40627142Y-23264761D01*
X40579523Y-23217142D01*
X40531904Y-23121904D01*
X40484285Y-22931428D01*
X40484285Y-22693333D01*
X40531904Y-22502857D01*
X40579523Y-22407619D01*
X40627142Y-22360000D01*
X40722380Y-22312380D01*
X39531904Y-25852380D02*
X39531904Y-24852380D01*
X39770000Y-24852380D01*
X39912857Y-24900000D01*
X40008095Y-24995238D01*
X40055714Y-25090476D01*
X40103333Y-25280952D01*
X40103333Y-25423809D01*
X40055714Y-25614285D01*
X40008095Y-25709523D01*
X39912857Y-25804761D01*
X39770000Y-25852380D01*
X39531904Y-25852380D01*
X41055714Y-25852380D02*
X40484285Y-25852380D01*
X40770000Y-25852380D02*
X40770000Y-24852380D01*
X40674761Y-24995238D01*
X40579523Y-25090476D01*
X40484285Y-25138095D01*
X39531904Y-28392380D02*
X39531904Y-27392380D01*
X39770000Y-27392380D01*
X39912857Y-27440000D01*
X40008095Y-27535238D01*
X40055714Y-27630476D01*
X40103333Y-27820952D01*
X40103333Y-27963809D01*
X40055714Y-28154285D01*
X40008095Y-28249523D01*
X39912857Y-28344761D01*
X39770000Y-28392380D01*
X39531904Y-28392380D01*
X40484285Y-27487619D02*
X40531904Y-27440000D01*
X40627142Y-27392380D01*
X40865238Y-27392380D01*
X40960476Y-27440000D01*
X41008095Y-27487619D01*
X41055714Y-27582857D01*
X41055714Y-27678095D01*
X41008095Y-27820952D01*
X40436666Y-28392380D01*
X41055714Y-28392380D01*
X39531904Y-30932380D02*
X39531904Y-29932380D01*
X39770000Y-29932380D01*
X39912857Y-29980000D01*
X40008095Y-30075238D01*
X40055714Y-30170476D01*
X40103333Y-30360952D01*
X40103333Y-30503809D01*
X40055714Y-30694285D01*
X40008095Y-30789523D01*
X39912857Y-30884761D01*
X39770000Y-30932380D01*
X39531904Y-30932380D01*
X40436666Y-29932380D02*
X41055714Y-29932380D01*
X40722380Y-30313333D01*
X40865238Y-30313333D01*
X40960476Y-30360952D01*
X41008095Y-30408571D01*
X41055714Y-30503809D01*
X41055714Y-30741904D01*
X41008095Y-30837142D01*
X40960476Y-30884761D01*
X40865238Y-30932380D01*
X40579523Y-30932380D01*
X40484285Y-30884761D01*
X40436666Y-30837142D01*
X39531904Y-33472380D02*
X39531904Y-32472380D01*
X39770000Y-32472380D01*
X39912857Y-32520000D01*
X40008095Y-32615238D01*
X40055714Y-32710476D01*
X40103333Y-32900952D01*
X40103333Y-33043809D01*
X40055714Y-33234285D01*
X40008095Y-33329523D01*
X39912857Y-33424761D01*
X39770000Y-33472380D01*
X39531904Y-33472380D01*
X40960476Y-32805714D02*
X40960476Y-33472380D01*
X40722380Y-32424761D02*
X40484285Y-33139047D01*
X41103333Y-33139047D01*
X39508095Y-35012380D02*
X40127142Y-35012380D01*
X39793809Y-35393333D01*
X39936666Y-35393333D01*
X40031904Y-35440952D01*
X40079523Y-35488571D01*
X40127142Y-35583809D01*
X40127142Y-35821904D01*
X40079523Y-35917142D01*
X40031904Y-35964761D01*
X39936666Y-36012380D01*
X39650952Y-36012380D01*
X39555714Y-35964761D01*
X39508095Y-35917142D01*
X40412857Y-35012380D02*
X40746190Y-36012380D01*
X41079523Y-35012380D01*
X40531904Y-37600000D02*
X40436666Y-37552380D01*
X40293809Y-37552380D01*
X40150952Y-37600000D01*
X40055714Y-37695238D01*
X40008095Y-37790476D01*
X39960476Y-37980952D01*
X39960476Y-38123809D01*
X40008095Y-38314285D01*
X40055714Y-38409523D01*
X40150952Y-38504761D01*
X40293809Y-38552380D01*
X40389047Y-38552380D01*
X40531904Y-38504761D01*
X40579523Y-38457142D01*
X40579523Y-38123809D01*
X40389047Y-38123809D01*
X39531904Y-41092380D02*
X39531904Y-40092380D01*
X39770000Y-40092380D01*
X39912857Y-40140000D01*
X40008095Y-40235238D01*
X40055714Y-40330476D01*
X40103333Y-40520952D01*
X40103333Y-40663809D01*
X40055714Y-40854285D01*
X40008095Y-40949523D01*
X39912857Y-41044761D01*
X39770000Y-41092380D01*
X39531904Y-41092380D01*
X41008095Y-40092380D02*
X40531904Y-40092380D01*
X40484285Y-40568571D01*
X40531904Y-40520952D01*
X40627142Y-40473333D01*
X40865238Y-40473333D01*
X40960476Y-40520952D01*
X41008095Y-40568571D01*
X41055714Y-40663809D01*
X41055714Y-40901904D01*
X41008095Y-40997142D01*
X40960476Y-41044761D01*
X40865238Y-41092380D01*
X40627142Y-41092380D01*
X40531904Y-41044761D01*
X40484285Y-40997142D01*
X39531904Y-43632380D02*
X39531904Y-42632380D01*
X39770000Y-42632380D01*
X39912857Y-42680000D01*
X40008095Y-42775238D01*
X40055714Y-42870476D01*
X40103333Y-43060952D01*
X40103333Y-43203809D01*
X40055714Y-43394285D01*
X40008095Y-43489523D01*
X39912857Y-43584761D01*
X39770000Y-43632380D01*
X39531904Y-43632380D01*
X40960476Y-42632380D02*
X40770000Y-42632380D01*
X40674761Y-42680000D01*
X40627142Y-42727619D01*
X40531904Y-42870476D01*
X40484285Y-43060952D01*
X40484285Y-43441904D01*
X40531904Y-43537142D01*
X40579523Y-43584761D01*
X40674761Y-43632380D01*
X40865238Y-43632380D01*
X40960476Y-43584761D01*
X41008095Y-43537142D01*
X41055714Y-43441904D01*
X41055714Y-43203809D01*
X41008095Y-43108571D01*
X40960476Y-43060952D01*
X40865238Y-43013333D01*
X40674761Y-43013333D01*
X40579523Y-43060952D01*
X40531904Y-43108571D01*
X40484285Y-43203809D01*
X39531904Y-46172380D02*
X39531904Y-45172380D01*
X39770000Y-45172380D01*
X39912857Y-45220000D01*
X40008095Y-45315238D01*
X40055714Y-45410476D01*
X40103333Y-45600952D01*
X40103333Y-45743809D01*
X40055714Y-45934285D01*
X40008095Y-46029523D01*
X39912857Y-46124761D01*
X39770000Y-46172380D01*
X39531904Y-46172380D01*
X40436666Y-45172380D02*
X41103333Y-45172380D01*
X40674761Y-46172380D01*
X39531904Y-48712380D02*
X39531904Y-47712380D01*
X39770000Y-47712380D01*
X39912857Y-47760000D01*
X40008095Y-47855238D01*
X40055714Y-47950476D01*
X40103333Y-48140952D01*
X40103333Y-48283809D01*
X40055714Y-48474285D01*
X40008095Y-48569523D01*
X39912857Y-48664761D01*
X39770000Y-48712380D01*
X39531904Y-48712380D01*
X40674761Y-48140952D02*
X40579523Y-48093333D01*
X40531904Y-48045714D01*
X40484285Y-47950476D01*
X40484285Y-47902857D01*
X40531904Y-47807619D01*
X40579523Y-47760000D01*
X40674761Y-47712380D01*
X40865238Y-47712380D01*
X40960476Y-47760000D01*
X41008095Y-47807619D01*
X41055714Y-47902857D01*
X41055714Y-47950476D01*
X41008095Y-48045714D01*
X40960476Y-48093333D01*
X40865238Y-48140952D01*
X40674761Y-48140952D01*
X40579523Y-48188571D01*
X40531904Y-48236190D01*
X40484285Y-48331428D01*
X40484285Y-48521904D01*
X40531904Y-48617142D01*
X40579523Y-48664761D01*
X40674761Y-48712380D01*
X40865238Y-48712380D01*
X40960476Y-48664761D01*
X41008095Y-48617142D01*
X41055714Y-48521904D01*
X41055714Y-48331428D01*
X41008095Y-48236190D01*
X40960476Y-48188571D01*
X40865238Y-48140952D01*
X40103333Y-51252380D02*
X39770000Y-50776190D01*
X39531904Y-51252380D02*
X39531904Y-50252380D01*
X39912857Y-50252380D01*
X40008095Y-50300000D01*
X40055714Y-50347619D01*
X40103333Y-50442857D01*
X40103333Y-50585714D01*
X40055714Y-50680952D01*
X40008095Y-50728571D01*
X39912857Y-50776190D01*
X39531904Y-50776190D01*
X40436666Y-50252380D02*
X41103333Y-51252380D01*
X41103333Y-50252380D02*
X40436666Y-51252380D01*
X39508095Y-52792380D02*
X40079523Y-52792380D01*
X39793809Y-53792380D02*
X39793809Y-52792380D01*
X40317619Y-52792380D02*
X40984285Y-53792380D01*
X40984285Y-52792380D02*
X40317619Y-53792380D01*
X40531904Y-55380000D02*
X40436666Y-55332380D01*
X40293809Y-55332380D01*
X40150952Y-55380000D01*
X40055714Y-55475238D01*
X40008095Y-55570476D01*
X39960476Y-55760952D01*
X39960476Y-55903809D01*
X40008095Y-56094285D01*
X40055714Y-56189523D01*
X40150952Y-56284761D01*
X40293809Y-56332380D01*
X40389047Y-56332380D01*
X40531904Y-56284761D01*
X40579523Y-56237142D01*
X40579523Y-55903809D01*
X40389047Y-55903809D01*
X39508095Y-57872380D02*
X40127142Y-57872380D01*
X39793809Y-58253333D01*
X39936666Y-58253333D01*
X40031904Y-58300952D01*
X40079523Y-58348571D01*
X40127142Y-58443809D01*
X40127142Y-58681904D01*
X40079523Y-58777142D01*
X40031904Y-58824761D01*
X39936666Y-58872380D01*
X39650952Y-58872380D01*
X39555714Y-58824761D01*
X39508095Y-58777142D01*
X40412857Y-57872380D02*
X40746190Y-58872380D01*
X41079523Y-57872380D01*
X16695714Y-23026666D02*
X17171904Y-23026666D01*
X16600476Y-23312380D02*
X16933809Y-22312380D01*
X17267142Y-23312380D01*
X17790952Y-22312380D02*
X17886190Y-22312380D01*
X17981428Y-22360000D01*
X18029047Y-22407619D01*
X18076666Y-22502857D01*
X18124285Y-22693333D01*
X18124285Y-22931428D01*
X18076666Y-23121904D01*
X18029047Y-23217142D01*
X17981428Y-23264761D01*
X17886190Y-23312380D01*
X17790952Y-23312380D01*
X17695714Y-23264761D01*
X17648095Y-23217142D01*
X17600476Y-23121904D01*
X17552857Y-22931428D01*
X17552857Y-22693333D01*
X17600476Y-22502857D01*
X17648095Y-22407619D01*
X17695714Y-22360000D01*
X17790952Y-22312380D01*
X17671904Y-24900000D02*
X17576666Y-24852380D01*
X17433809Y-24852380D01*
X17290952Y-24900000D01*
X17195714Y-24995238D01*
X17148095Y-25090476D01*
X17100476Y-25280952D01*
X17100476Y-25423809D01*
X17148095Y-25614285D01*
X17195714Y-25709523D01*
X17290952Y-25804761D01*
X17433809Y-25852380D01*
X17529047Y-25852380D01*
X17671904Y-25804761D01*
X17719523Y-25757142D01*
X17719523Y-25423809D01*
X17529047Y-25423809D01*
X16552857Y-27392380D02*
X16886190Y-28392380D01*
X17219523Y-27392380D01*
X17552857Y-27392380D02*
X17552857Y-28201904D01*
X17600476Y-28297142D01*
X17648095Y-28344761D01*
X17743333Y-28392380D01*
X17933809Y-28392380D01*
X18029047Y-28344761D01*
X18076666Y-28297142D01*
X18124285Y-28201904D01*
X18124285Y-27392380D01*
X16648095Y-30884761D02*
X16790952Y-30932380D01*
X17029047Y-30932380D01*
X17124285Y-30884761D01*
X17171904Y-30837142D01*
X17219523Y-30741904D01*
X17219523Y-30646666D01*
X17171904Y-30551428D01*
X17124285Y-30503809D01*
X17029047Y-30456190D01*
X16838571Y-30408571D01*
X16743333Y-30360952D01*
X16695714Y-30313333D01*
X16648095Y-30218095D01*
X16648095Y-30122857D01*
X16695714Y-30027619D01*
X16743333Y-29980000D01*
X16838571Y-29932380D01*
X17076666Y-29932380D01*
X17219523Y-29980000D01*
X17552857Y-29932380D02*
X18171904Y-29932380D01*
X17838571Y-30313333D01*
X17981428Y-30313333D01*
X18076666Y-30360952D01*
X18124285Y-30408571D01*
X18171904Y-30503809D01*
X18171904Y-30741904D01*
X18124285Y-30837142D01*
X18076666Y-30884761D01*
X17981428Y-30932380D01*
X17695714Y-30932380D01*
X17600476Y-30884761D01*
X17552857Y-30837142D01*
X16648095Y-33424761D02*
X16790952Y-33472380D01*
X17029047Y-33472380D01*
X17124285Y-33424761D01*
X17171904Y-33377142D01*
X17219523Y-33281904D01*
X17219523Y-33186666D01*
X17171904Y-33091428D01*
X17124285Y-33043809D01*
X17029047Y-32996190D01*
X16838571Y-32948571D01*
X16743333Y-32900952D01*
X16695714Y-32853333D01*
X16648095Y-32758095D01*
X16648095Y-32662857D01*
X16695714Y-32567619D01*
X16743333Y-32520000D01*
X16838571Y-32472380D01*
X17076666Y-32472380D01*
X17219523Y-32520000D01*
X17600476Y-32567619D02*
X17648095Y-32520000D01*
X17743333Y-32472380D01*
X17981428Y-32472380D01*
X18076666Y-32520000D01*
X18124285Y-32567619D01*
X18171904Y-32662857D01*
X18171904Y-32758095D01*
X18124285Y-32900952D01*
X17552857Y-33472380D01*
X18171904Y-33472380D01*
X16648095Y-35964761D02*
X16790952Y-36012380D01*
X17029047Y-36012380D01*
X17124285Y-35964761D01*
X17171904Y-35917142D01*
X17219523Y-35821904D01*
X17219523Y-35726666D01*
X17171904Y-35631428D01*
X17124285Y-35583809D01*
X17029047Y-35536190D01*
X16838571Y-35488571D01*
X16743333Y-35440952D01*
X16695714Y-35393333D01*
X16648095Y-35298095D01*
X16648095Y-35202857D01*
X16695714Y-35107619D01*
X16743333Y-35060000D01*
X16838571Y-35012380D01*
X17076666Y-35012380D01*
X17219523Y-35060000D01*
X18171904Y-36012380D02*
X17600476Y-36012380D01*
X17886190Y-36012380D02*
X17886190Y-35012380D01*
X17790952Y-35155238D01*
X17695714Y-35250476D01*
X17600476Y-35298095D01*
X16624285Y-38504761D02*
X16767142Y-38552380D01*
X17005238Y-38552380D01*
X17100476Y-38504761D01*
X17148095Y-38457142D01*
X17195714Y-38361904D01*
X17195714Y-38266666D01*
X17148095Y-38171428D01*
X17100476Y-38123809D01*
X17005238Y-38076190D01*
X16814761Y-38028571D01*
X16719523Y-37980952D01*
X16671904Y-37933333D01*
X16624285Y-37838095D01*
X16624285Y-37742857D01*
X16671904Y-37647619D01*
X16719523Y-37600000D01*
X16814761Y-37552380D01*
X17052857Y-37552380D01*
X17195714Y-37600000D01*
X18195714Y-38457142D02*
X18148095Y-38504761D01*
X18005238Y-38552380D01*
X17910000Y-38552380D01*
X17767142Y-38504761D01*
X17671904Y-38409523D01*
X17624285Y-38314285D01*
X17576666Y-38123809D01*
X17576666Y-37980952D01*
X17624285Y-37790476D01*
X17671904Y-37695238D01*
X17767142Y-37600000D01*
X17910000Y-37552380D01*
X18005238Y-37552380D01*
X18148095Y-37600000D01*
X18195714Y-37647619D01*
X16600476Y-41044761D02*
X16743333Y-41092380D01*
X16981428Y-41092380D01*
X17076666Y-41044761D01*
X17124285Y-40997142D01*
X17171904Y-40901904D01*
X17171904Y-40806666D01*
X17124285Y-40711428D01*
X17076666Y-40663809D01*
X16981428Y-40616190D01*
X16790952Y-40568571D01*
X16695714Y-40520952D01*
X16648095Y-40473333D01*
X16600476Y-40378095D01*
X16600476Y-40282857D01*
X16648095Y-40187619D01*
X16695714Y-40140000D01*
X16790952Y-40092380D01*
X17029047Y-40092380D01*
X17171904Y-40140000D01*
X17790952Y-40092380D02*
X17981428Y-40092380D01*
X18076666Y-40140000D01*
X18171904Y-40235238D01*
X18219523Y-40425714D01*
X18219523Y-40759047D01*
X18171904Y-40949523D01*
X18076666Y-41044761D01*
X17981428Y-41092380D01*
X17790952Y-41092380D01*
X17695714Y-41044761D01*
X17600476Y-40949523D01*
X17552857Y-40759047D01*
X17552857Y-40425714D01*
X17600476Y-40235238D01*
X17695714Y-40140000D01*
X17790952Y-40092380D01*
X16624285Y-43584761D02*
X16767142Y-43632380D01*
X17005238Y-43632380D01*
X17100476Y-43584761D01*
X17148095Y-43537142D01*
X17195714Y-43441904D01*
X17195714Y-43346666D01*
X17148095Y-43251428D01*
X17100476Y-43203809D01*
X17005238Y-43156190D01*
X16814761Y-43108571D01*
X16719523Y-43060952D01*
X16671904Y-43013333D01*
X16624285Y-42918095D01*
X16624285Y-42822857D01*
X16671904Y-42727619D01*
X16719523Y-42680000D01*
X16814761Y-42632380D01*
X17052857Y-42632380D01*
X17195714Y-42680000D01*
X17624285Y-43632380D02*
X17624285Y-42632380D01*
X18195714Y-43632380D02*
X17767142Y-43060952D01*
X18195714Y-42632380D02*
X17624285Y-43203809D01*
X17671904Y-45220000D02*
X17576666Y-45172380D01*
X17433809Y-45172380D01*
X17290952Y-45220000D01*
X17195714Y-45315238D01*
X17148095Y-45410476D01*
X17100476Y-45600952D01*
X17100476Y-45743809D01*
X17148095Y-45934285D01*
X17195714Y-46029523D01*
X17290952Y-46124761D01*
X17433809Y-46172380D01*
X17529047Y-46172380D01*
X17671904Y-46124761D01*
X17719523Y-46077142D01*
X17719523Y-45743809D01*
X17529047Y-45743809D01*
X16648095Y-47712380D02*
X17267142Y-47712380D01*
X16933809Y-48093333D01*
X17076666Y-48093333D01*
X17171904Y-48140952D01*
X17219523Y-48188571D01*
X17267142Y-48283809D01*
X17267142Y-48521904D01*
X17219523Y-48617142D01*
X17171904Y-48664761D01*
X17076666Y-48712380D01*
X16790952Y-48712380D01*
X16695714Y-48664761D01*
X16648095Y-48617142D01*
X17552857Y-47712380D02*
X17886190Y-48712380D01*
X18219523Y-47712380D01*
X16671904Y-50728571D02*
X17005238Y-50728571D01*
X17148095Y-51252380D02*
X16671904Y-51252380D01*
X16671904Y-50252380D01*
X17148095Y-50252380D01*
X17576666Y-51252380D02*
X17576666Y-50252380D01*
X18148095Y-51252380D01*
X18148095Y-50252380D01*
X16862380Y-53792380D02*
X16529047Y-53316190D01*
X16290952Y-53792380D02*
X16290952Y-52792380D01*
X16671904Y-52792380D01*
X16767142Y-52840000D01*
X16814761Y-52887619D01*
X16862380Y-52982857D01*
X16862380Y-53125714D01*
X16814761Y-53220952D01*
X16767142Y-53268571D01*
X16671904Y-53316190D01*
X16290952Y-53316190D01*
X17243333Y-53744761D02*
X17386190Y-53792380D01*
X17624285Y-53792380D01*
X17719523Y-53744761D01*
X17767142Y-53697142D01*
X17814761Y-53601904D01*
X17814761Y-53506666D01*
X17767142Y-53411428D01*
X17719523Y-53363809D01*
X17624285Y-53316190D01*
X17433809Y-53268571D01*
X17338571Y-53220952D01*
X17290952Y-53173333D01*
X17243333Y-53078095D01*
X17243333Y-52982857D01*
X17290952Y-52887619D01*
X17338571Y-52840000D01*
X17433809Y-52792380D01*
X17671904Y-52792380D01*
X17814761Y-52840000D01*
X18100476Y-52792380D02*
X18671904Y-52792380D01*
X18386190Y-53792380D02*
X18386190Y-52792380D01*
X17671904Y-55380000D02*
X17576666Y-55332380D01*
X17433809Y-55332380D01*
X17290952Y-55380000D01*
X17195714Y-55475238D01*
X17148095Y-55570476D01*
X17100476Y-55760952D01*
X17100476Y-55903809D01*
X17148095Y-56094285D01*
X17195714Y-56189523D01*
X17290952Y-56284761D01*
X17433809Y-56332380D01*
X17529047Y-56332380D01*
X17671904Y-56284761D01*
X17719523Y-56237142D01*
X17719523Y-55903809D01*
X17529047Y-55903809D01*
X16314761Y-57872380D02*
X16648095Y-58872380D01*
X16981428Y-57872380D01*
X17314761Y-58872380D02*
X17314761Y-57872380D01*
X17790952Y-58872380D02*
X17790952Y-57872380D01*
X18362380Y-58872380D01*
X18362380Y-57872380D01*
G04 #@! TO.C,Q3*
X29254761Y-44957619D02*
X29159523Y-44910000D01*
X29064285Y-44814761D01*
X28921428Y-44671904D01*
X28826190Y-44624285D01*
X28730952Y-44624285D01*
X28778571Y-44862380D02*
X28683333Y-44814761D01*
X28588095Y-44719523D01*
X28540476Y-44529047D01*
X28540476Y-44195714D01*
X28588095Y-44005238D01*
X28683333Y-43910000D01*
X28778571Y-43862380D01*
X28969047Y-43862380D01*
X29064285Y-43910000D01*
X29159523Y-44005238D01*
X29207142Y-44195714D01*
X29207142Y-44529047D01*
X29159523Y-44719523D01*
X29064285Y-44814761D01*
X28969047Y-44862380D01*
X28778571Y-44862380D01*
X29540476Y-43862380D02*
X30159523Y-43862380D01*
X29826190Y-44243333D01*
X29969047Y-44243333D01*
X30064285Y-44290952D01*
X30111904Y-44338571D01*
X30159523Y-44433809D01*
X30159523Y-44671904D01*
X30111904Y-44767142D01*
X30064285Y-44814761D01*
X29969047Y-44862380D01*
X29683333Y-44862380D01*
X29588095Y-44814761D01*
X29540476Y-44767142D01*
G04 #@! TO.C,R6*
X37633333Y-33472380D02*
X37300000Y-32996190D01*
X37061904Y-33472380D02*
X37061904Y-32472380D01*
X37442857Y-32472380D01*
X37538095Y-32520000D01*
X37585714Y-32567619D01*
X37633333Y-32662857D01*
X37633333Y-32805714D01*
X37585714Y-32900952D01*
X37538095Y-32948571D01*
X37442857Y-32996190D01*
X37061904Y-32996190D01*
X38490476Y-32472380D02*
X38300000Y-32472380D01*
X38204761Y-32520000D01*
X38157142Y-32567619D01*
X38061904Y-32710476D01*
X38014285Y-32900952D01*
X38014285Y-33281904D01*
X38061904Y-33377142D01*
X38109523Y-33424761D01*
X38204761Y-33472380D01*
X38395238Y-33472380D01*
X38490476Y-33424761D01*
X38538095Y-33377142D01*
X38585714Y-33281904D01*
X38585714Y-33043809D01*
X38538095Y-32948571D01*
X38490476Y-32900952D01*
X38395238Y-32853333D01*
X38204761Y-32853333D01*
X38109523Y-32900952D01*
X38061904Y-32948571D01*
X38014285Y-33043809D01*
G04 #@! TO.C,J2*
X35636666Y-19142380D02*
X35636666Y-19856666D01*
X35589047Y-19999523D01*
X35493809Y-20094761D01*
X35350952Y-20142380D01*
X35255714Y-20142380D01*
X36065238Y-19237619D02*
X36112857Y-19190000D01*
X36208095Y-19142380D01*
X36446190Y-19142380D01*
X36541428Y-19190000D01*
X36589047Y-19237619D01*
X36636666Y-19332857D01*
X36636666Y-19428095D01*
X36589047Y-19570952D01*
X36017619Y-20142380D01*
X36636666Y-20142380D01*
G04 #@! TO.C,J1*
X27876666Y-19102380D02*
X27876666Y-19816666D01*
X27829047Y-19959523D01*
X27733809Y-20054761D01*
X27590952Y-20102380D01*
X27495714Y-20102380D01*
X28876666Y-20102380D02*
X28305238Y-20102380D01*
X28590952Y-20102380D02*
X28590952Y-19102380D01*
X28495714Y-19245238D01*
X28400476Y-19340476D01*
X28305238Y-19388095D01*
G04 #@! TO.C,Q1*
X29254761Y-55117619D02*
X29159523Y-55070000D01*
X29064285Y-54974761D01*
X28921428Y-54831904D01*
X28826190Y-54784285D01*
X28730952Y-54784285D01*
X28778571Y-55022380D02*
X28683333Y-54974761D01*
X28588095Y-54879523D01*
X28540476Y-54689047D01*
X28540476Y-54355714D01*
X28588095Y-54165238D01*
X28683333Y-54070000D01*
X28778571Y-54022380D01*
X28969047Y-54022380D01*
X29064285Y-54070000D01*
X29159523Y-54165238D01*
X29207142Y-54355714D01*
X29207142Y-54689047D01*
X29159523Y-54879523D01*
X29064285Y-54974761D01*
X28969047Y-55022380D01*
X28778571Y-55022380D01*
X30159523Y-55022380D02*
X29588095Y-55022380D01*
X29873809Y-55022380D02*
X29873809Y-54022380D01*
X29778571Y-54165238D01*
X29683333Y-54260476D01*
X29588095Y-54308095D01*
G04 #@! TO.C,Q2*
X29254761Y-50037619D02*
X29159523Y-49990000D01*
X29064285Y-49894761D01*
X28921428Y-49751904D01*
X28826190Y-49704285D01*
X28730952Y-49704285D01*
X28778571Y-49942380D02*
X28683333Y-49894761D01*
X28588095Y-49799523D01*
X28540476Y-49609047D01*
X28540476Y-49275714D01*
X28588095Y-49085238D01*
X28683333Y-48990000D01*
X28778571Y-48942380D01*
X28969047Y-48942380D01*
X29064285Y-48990000D01*
X29159523Y-49085238D01*
X29207142Y-49275714D01*
X29207142Y-49609047D01*
X29159523Y-49799523D01*
X29064285Y-49894761D01*
X28969047Y-49942380D01*
X28778571Y-49942380D01*
X29588095Y-49037619D02*
X29635714Y-48990000D01*
X29730952Y-48942380D01*
X29969047Y-48942380D01*
X30064285Y-48990000D01*
X30111904Y-49037619D01*
X30159523Y-49132857D01*
X30159523Y-49228095D01*
X30111904Y-49370952D01*
X29540476Y-49942380D01*
X30159523Y-49942380D01*
G04 #@! TO.C,Q4*
X29534761Y-39877619D02*
X29439523Y-39830000D01*
X29344285Y-39734761D01*
X29201428Y-39591904D01*
X29106190Y-39544285D01*
X29010952Y-39544285D01*
X29058571Y-39782380D02*
X28963333Y-39734761D01*
X28868095Y-39639523D01*
X28820476Y-39449047D01*
X28820476Y-39115714D01*
X28868095Y-38925238D01*
X28963333Y-38830000D01*
X29058571Y-38782380D01*
X29249047Y-38782380D01*
X29344285Y-38830000D01*
X29439523Y-38925238D01*
X29487142Y-39115714D01*
X29487142Y-39449047D01*
X29439523Y-39639523D01*
X29344285Y-39734761D01*
X29249047Y-39782380D01*
X29058571Y-39782380D01*
X30344285Y-39115714D02*
X30344285Y-39782380D01*
X30106190Y-38734761D02*
X29868095Y-39449047D01*
X30487142Y-39449047D01*
G04 #@! TO.C,R1*
X37623333Y-45272380D02*
X37290000Y-44796190D01*
X37051904Y-45272380D02*
X37051904Y-44272380D01*
X37432857Y-44272380D01*
X37528095Y-44320000D01*
X37575714Y-44367619D01*
X37623333Y-44462857D01*
X37623333Y-44605714D01*
X37575714Y-44700952D01*
X37528095Y-44748571D01*
X37432857Y-44796190D01*
X37051904Y-44796190D01*
X38575714Y-45272380D02*
X38004285Y-45272380D01*
X38290000Y-45272380D02*
X38290000Y-44272380D01*
X38194761Y-44415238D01*
X38099523Y-44510476D01*
X38004285Y-44558095D01*
G04 #@! TO.C,R3*
X37633333Y-42932380D02*
X37300000Y-42456190D01*
X37061904Y-42932380D02*
X37061904Y-41932380D01*
X37442857Y-41932380D01*
X37538095Y-41980000D01*
X37585714Y-42027619D01*
X37633333Y-42122857D01*
X37633333Y-42265714D01*
X37585714Y-42360952D01*
X37538095Y-42408571D01*
X37442857Y-42456190D01*
X37061904Y-42456190D01*
X37966666Y-41932380D02*
X38585714Y-41932380D01*
X38252380Y-42313333D01*
X38395238Y-42313333D01*
X38490476Y-42360952D01*
X38538095Y-42408571D01*
X38585714Y-42503809D01*
X38585714Y-42741904D01*
X38538095Y-42837142D01*
X38490476Y-42884761D01*
X38395238Y-42932380D01*
X38109523Y-42932380D01*
X38014285Y-42884761D01*
X37966666Y-42837142D01*
G04 #@! TO.C,R4*
X37633333Y-40572380D02*
X37300000Y-40096190D01*
X37061904Y-40572380D02*
X37061904Y-39572380D01*
X37442857Y-39572380D01*
X37538095Y-39620000D01*
X37585714Y-39667619D01*
X37633333Y-39762857D01*
X37633333Y-39905714D01*
X37585714Y-40000952D01*
X37538095Y-40048571D01*
X37442857Y-40096190D01*
X37061904Y-40096190D01*
X38490476Y-39905714D02*
X38490476Y-40572380D01*
X38252380Y-39524761D02*
X38014285Y-40239047D01*
X38633333Y-40239047D01*
G04 #@! TO.C,R5*
X37633333Y-38192380D02*
X37300000Y-37716190D01*
X37061904Y-38192380D02*
X37061904Y-37192380D01*
X37442857Y-37192380D01*
X37538095Y-37240000D01*
X37585714Y-37287619D01*
X37633333Y-37382857D01*
X37633333Y-37525714D01*
X37585714Y-37620952D01*
X37538095Y-37668571D01*
X37442857Y-37716190D01*
X37061904Y-37716190D01*
X38538095Y-37192380D02*
X38061904Y-37192380D01*
X38014285Y-37668571D01*
X38061904Y-37620952D01*
X38157142Y-37573333D01*
X38395238Y-37573333D01*
X38490476Y-37620952D01*
X38538095Y-37668571D01*
X38585714Y-37763809D01*
X38585714Y-38001904D01*
X38538095Y-38097142D01*
X38490476Y-38144761D01*
X38395238Y-38192380D01*
X38157142Y-38192380D01*
X38061904Y-38144761D01*
X38014285Y-38097142D01*
G04 #@! TO.C,RL1*
X20168571Y-52452380D02*
X19835238Y-51976190D01*
X19597142Y-52452380D02*
X19597142Y-51452380D01*
X19978095Y-51452380D01*
X20073333Y-51500000D01*
X20120952Y-51547619D01*
X20168571Y-51642857D01*
X20168571Y-51785714D01*
X20120952Y-51880952D01*
X20073333Y-51928571D01*
X19978095Y-51976190D01*
X19597142Y-51976190D01*
X21073333Y-52452380D02*
X20597142Y-52452380D01*
X20597142Y-51452380D01*
X21930476Y-52452380D02*
X21359047Y-52452380D01*
X21644761Y-52452380D02*
X21644761Y-51452380D01*
X21549523Y-51595238D01*
X21454285Y-51690476D01*
X21359047Y-51738095D01*
G04 #@! TO.C,RL2*
X20168571Y-50162380D02*
X19835238Y-49686190D01*
X19597142Y-50162380D02*
X19597142Y-49162380D01*
X19978095Y-49162380D01*
X20073333Y-49210000D01*
X20120952Y-49257619D01*
X20168571Y-49352857D01*
X20168571Y-49495714D01*
X20120952Y-49590952D01*
X20073333Y-49638571D01*
X19978095Y-49686190D01*
X19597142Y-49686190D01*
X21073333Y-50162380D02*
X20597142Y-50162380D01*
X20597142Y-49162380D01*
X21359047Y-49257619D02*
X21406666Y-49210000D01*
X21501904Y-49162380D01*
X21740000Y-49162380D01*
X21835238Y-49210000D01*
X21882857Y-49257619D01*
X21930476Y-49352857D01*
X21930476Y-49448095D01*
X21882857Y-49590952D01*
X21311428Y-50162380D01*
X21930476Y-50162380D01*
G04 #@! TO.C,RL3*
X20158571Y-47772380D02*
X19825238Y-47296190D01*
X19587142Y-47772380D02*
X19587142Y-46772380D01*
X19968095Y-46772380D01*
X20063333Y-46820000D01*
X20110952Y-46867619D01*
X20158571Y-46962857D01*
X20158571Y-47105714D01*
X20110952Y-47200952D01*
X20063333Y-47248571D01*
X19968095Y-47296190D01*
X19587142Y-47296190D01*
X21063333Y-47772380D02*
X20587142Y-47772380D01*
X20587142Y-46772380D01*
X21301428Y-46772380D02*
X21920476Y-46772380D01*
X21587142Y-47153333D01*
X21730000Y-47153333D01*
X21825238Y-47200952D01*
X21872857Y-47248571D01*
X21920476Y-47343809D01*
X21920476Y-47581904D01*
X21872857Y-47677142D01*
X21825238Y-47724761D01*
X21730000Y-47772380D01*
X21444285Y-47772380D01*
X21349047Y-47724761D01*
X21301428Y-47677142D01*
G04 #@! TO.C,R2*
X37633333Y-35852380D02*
X37300000Y-35376190D01*
X37061904Y-35852380D02*
X37061904Y-34852380D01*
X37442857Y-34852380D01*
X37538095Y-34900000D01*
X37585714Y-34947619D01*
X37633333Y-35042857D01*
X37633333Y-35185714D01*
X37585714Y-35280952D01*
X37538095Y-35328571D01*
X37442857Y-35376190D01*
X37061904Y-35376190D01*
X38014285Y-34947619D02*
X38061904Y-34900000D01*
X38157142Y-34852380D01*
X38395238Y-34852380D01*
X38490476Y-34900000D01*
X38538095Y-34947619D01*
X38585714Y-35042857D01*
X38585714Y-35138095D01*
X38538095Y-35280952D01*
X37966666Y-35852380D01*
X38585714Y-35852380D01*
G04 #@! TO.C,R9*
X20973333Y-27852380D02*
X20640000Y-27376190D01*
X20401904Y-27852380D02*
X20401904Y-26852380D01*
X20782857Y-26852380D01*
X20878095Y-26900000D01*
X20925714Y-26947619D01*
X20973333Y-27042857D01*
X20973333Y-27185714D01*
X20925714Y-27280952D01*
X20878095Y-27328571D01*
X20782857Y-27376190D01*
X20401904Y-27376190D01*
X21449523Y-27852380D02*
X21640000Y-27852380D01*
X21735238Y-27804761D01*
X21782857Y-27757142D01*
X21878095Y-27614285D01*
X21925714Y-27423809D01*
X21925714Y-27042857D01*
X21878095Y-26947619D01*
X21830476Y-26900000D01*
X21735238Y-26852380D01*
X21544761Y-26852380D01*
X21449523Y-26900000D01*
X21401904Y-26947619D01*
X21354285Y-27042857D01*
X21354285Y-27280952D01*
X21401904Y-27376190D01*
X21449523Y-27423809D01*
X21544761Y-27471428D01*
X21735238Y-27471428D01*
X21830476Y-27423809D01*
X21878095Y-27376190D01*
X21925714Y-27280952D01*
G04 #@! TO.C,R8*
X20983333Y-29722380D02*
X20650000Y-29246190D01*
X20411904Y-29722380D02*
X20411904Y-28722380D01*
X20792857Y-28722380D01*
X20888095Y-28770000D01*
X20935714Y-28817619D01*
X20983333Y-28912857D01*
X20983333Y-29055714D01*
X20935714Y-29150952D01*
X20888095Y-29198571D01*
X20792857Y-29246190D01*
X20411904Y-29246190D01*
X21554761Y-29150952D02*
X21459523Y-29103333D01*
X21411904Y-29055714D01*
X21364285Y-28960476D01*
X21364285Y-28912857D01*
X21411904Y-28817619D01*
X21459523Y-28770000D01*
X21554761Y-28722380D01*
X21745238Y-28722380D01*
X21840476Y-28770000D01*
X21888095Y-28817619D01*
X21935714Y-28912857D01*
X21935714Y-28960476D01*
X21888095Y-29055714D01*
X21840476Y-29103333D01*
X21745238Y-29150952D01*
X21554761Y-29150952D01*
X21459523Y-29198571D01*
X21411904Y-29246190D01*
X21364285Y-29341428D01*
X21364285Y-29531904D01*
X21411904Y-29627142D01*
X21459523Y-29674761D01*
X21554761Y-29722380D01*
X21745238Y-29722380D01*
X21840476Y-29674761D01*
X21888095Y-29627142D01*
X21935714Y-29531904D01*
X21935714Y-29341428D01*
X21888095Y-29246190D01*
X21840476Y-29198571D01*
X21745238Y-29150952D01*
G04 #@! TO.C,R7*
X20923333Y-31632380D02*
X20590000Y-31156190D01*
X20351904Y-31632380D02*
X20351904Y-30632380D01*
X20732857Y-30632380D01*
X20828095Y-30680000D01*
X20875714Y-30727619D01*
X20923333Y-30822857D01*
X20923333Y-30965714D01*
X20875714Y-31060952D01*
X20828095Y-31108571D01*
X20732857Y-31156190D01*
X20351904Y-31156190D01*
X21256666Y-30632380D02*
X21923333Y-30632380D01*
X21494761Y-31632380D01*
G04 #@! TO.C,R10*
X19807142Y-33812380D02*
X19473809Y-33336190D01*
X19235714Y-33812380D02*
X19235714Y-32812380D01*
X19616666Y-32812380D01*
X19711904Y-32860000D01*
X19759523Y-32907619D01*
X19807142Y-33002857D01*
X19807142Y-33145714D01*
X19759523Y-33240952D01*
X19711904Y-33288571D01*
X19616666Y-33336190D01*
X19235714Y-33336190D01*
X20759523Y-33812380D02*
X20188095Y-33812380D01*
X20473809Y-33812380D02*
X20473809Y-32812380D01*
X20378571Y-32955238D01*
X20283333Y-33050476D01*
X20188095Y-33098095D01*
X21378571Y-32812380D02*
X21473809Y-32812380D01*
X21569047Y-32860000D01*
X21616666Y-32907619D01*
X21664285Y-33002857D01*
X21711904Y-33193333D01*
X21711904Y-33431428D01*
X21664285Y-33621904D01*
X21616666Y-33717142D01*
X21569047Y-33764761D01*
X21473809Y-33812380D01*
X21378571Y-33812380D01*
X21283333Y-33764761D01*
X21235714Y-33717142D01*
X21188095Y-33621904D01*
X21140476Y-33431428D01*
X21140476Y-33193333D01*
X21188095Y-33002857D01*
X21235714Y-32907619D01*
X21283333Y-32860000D01*
X21378571Y-32812380D01*
G04 #@! TO.C,Q5*
X29534761Y-34807619D02*
X29439523Y-34760000D01*
X29344285Y-34664761D01*
X29201428Y-34521904D01*
X29106190Y-34474285D01*
X29010952Y-34474285D01*
X29058571Y-34712380D02*
X28963333Y-34664761D01*
X28868095Y-34569523D01*
X28820476Y-34379047D01*
X28820476Y-34045714D01*
X28868095Y-33855238D01*
X28963333Y-33760000D01*
X29058571Y-33712380D01*
X29249047Y-33712380D01*
X29344285Y-33760000D01*
X29439523Y-33855238D01*
X29487142Y-34045714D01*
X29487142Y-34379047D01*
X29439523Y-34569523D01*
X29344285Y-34664761D01*
X29249047Y-34712380D01*
X29058571Y-34712380D01*
X30391904Y-33712380D02*
X29915714Y-33712380D01*
X29868095Y-34188571D01*
X29915714Y-34140952D01*
X30010952Y-34093333D01*
X30249047Y-34093333D01*
X30344285Y-34140952D01*
X30391904Y-34188571D01*
X30439523Y-34283809D01*
X30439523Y-34521904D01*
X30391904Y-34617142D01*
X30344285Y-34664761D01*
X30249047Y-34712380D01*
X30010952Y-34712380D01*
X29915714Y-34664761D01*
X29868095Y-34617142D01*
G04 #@! TD*
M02*
