G04 #@! TF.GenerationSoftware,KiCad,Pcbnew,(5.0.2)-1*
G04 #@! TF.CreationDate,2019-06-21T14:31:00+05:30*
G04 #@! TF.ProjectId,CapacityOfBattery,43617061-6369-4747-994f-664261747465,rev?*
G04 #@! TF.SameCoordinates,Original*
G04 #@! TF.FileFunction,Other,Fab,Top*
%FSLAX46Y46*%
G04 Gerber Fmt 4.6, Leading zero omitted, Abs format (unit mm)*
G04 Created by KiCad (PCBNEW (5.0.2)-1) date 06/21/19 14:31:00*
%MOMM*%
%LPD*%
G01*
G04 APERTURE LIST*
%ADD10C,0.100000*%
%ADD11C,0.150000*%
%ADD12C,0.080000*%
%ADD13C,0.075000*%
%ADD14C,0.060000*%
G04 APERTURE END LIST*
D10*
G04 #@! TO.C,RL4*
X23330000Y-44360000D02*
X25330000Y-44360000D01*
X23330000Y-45560000D02*
X23330000Y-44360000D01*
X25330000Y-45560000D02*
X23330000Y-45560000D01*
X25330000Y-44360000D02*
X25330000Y-45560000D01*
G04 #@! TO.C,RL5*
X25320000Y-41990000D02*
X25320000Y-43190000D01*
X25320000Y-43190000D02*
X23320000Y-43190000D01*
X23320000Y-43190000D02*
X23320000Y-41990000D01*
X23320000Y-41990000D02*
X25320000Y-41990000D01*
G04 #@! TO.C,Q3*
X30050000Y-42860000D02*
X30050000Y-40410000D01*
X29500000Y-43430000D02*
X28650000Y-43430000D01*
X30050000Y-42860000D02*
X29500000Y-43430000D01*
X28650000Y-43430000D02*
X28650000Y-40390000D01*
X30050000Y-40390000D02*
X28650000Y-40390000D01*
G04 #@! TO.C,R6*
X35710000Y-32420000D02*
X35710000Y-33620000D01*
X35710000Y-33620000D02*
X33710000Y-33620000D01*
X33710000Y-33620000D02*
X33710000Y-32420000D01*
X33710000Y-32420000D02*
X35710000Y-32420000D01*
G04 #@! TO.C,J2*
X38045000Y-20950000D02*
X37410000Y-20315000D01*
X42490000Y-20950000D02*
X38045000Y-20950000D01*
X42490000Y-18410000D02*
X42490000Y-20950000D01*
X37410000Y-18410000D02*
X42490000Y-18410000D01*
X37410000Y-20315000D02*
X37410000Y-18410000D01*
G04 #@! TO.C,J1*
X29480000Y-20285000D02*
X29480000Y-18380000D01*
X29480000Y-18380000D02*
X34560000Y-18380000D01*
X34560000Y-18380000D02*
X34560000Y-20920000D01*
X34560000Y-20920000D02*
X30115000Y-20920000D01*
X30115000Y-20920000D02*
X29480000Y-20285000D01*
G04 #@! TO.C,Q1*
X30050000Y-53020000D02*
X30050000Y-50570000D01*
X29500000Y-53590000D02*
X28650000Y-53590000D01*
X30050000Y-53020000D02*
X29500000Y-53590000D01*
X28650000Y-53590000D02*
X28650000Y-50550000D01*
X30050000Y-50550000D02*
X28650000Y-50550000D01*
G04 #@! TO.C,Q2*
X30050000Y-45470000D02*
X28650000Y-45470000D01*
X28650000Y-48510000D02*
X28650000Y-45470000D01*
X30050000Y-47940000D02*
X29500000Y-48510000D01*
X29500000Y-48510000D02*
X28650000Y-48510000D01*
X30050000Y-47940000D02*
X30050000Y-45490000D01*
G04 #@! TO.C,Q4*
X30330000Y-35310000D02*
X28930000Y-35310000D01*
X28930000Y-38350000D02*
X28930000Y-35310000D01*
X30330000Y-37780000D02*
X29780000Y-38350000D01*
X29780000Y-38350000D02*
X28930000Y-38350000D01*
X30330000Y-37780000D02*
X30330000Y-35330000D01*
G04 #@! TO.C,R1*
X35700000Y-44200000D02*
X35700000Y-45400000D01*
X35700000Y-45400000D02*
X33700000Y-45400000D01*
X33700000Y-45400000D02*
X33700000Y-44200000D01*
X33700000Y-44200000D02*
X35700000Y-44200000D01*
G04 #@! TO.C,R3*
X33710000Y-41860000D02*
X35710000Y-41860000D01*
X33710000Y-43060000D02*
X33710000Y-41860000D01*
X35710000Y-43060000D02*
X33710000Y-43060000D01*
X35710000Y-41860000D02*
X35710000Y-43060000D01*
G04 #@! TO.C,R4*
X35710000Y-39500000D02*
X35710000Y-40700000D01*
X35710000Y-40700000D02*
X33710000Y-40700000D01*
X33710000Y-40700000D02*
X33710000Y-39500000D01*
X33710000Y-39500000D02*
X35710000Y-39500000D01*
G04 #@! TO.C,R5*
X33710000Y-37140000D02*
X35710000Y-37140000D01*
X33710000Y-38340000D02*
X33710000Y-37140000D01*
X35710000Y-38340000D02*
X33710000Y-38340000D01*
X35710000Y-37140000D02*
X35710000Y-38340000D01*
G04 #@! TO.C,RL1*
X25320000Y-51400000D02*
X25320000Y-52600000D01*
X25320000Y-52600000D02*
X23320000Y-52600000D01*
X23320000Y-52600000D02*
X23320000Y-51400000D01*
X23320000Y-51400000D02*
X25320000Y-51400000D01*
G04 #@! TO.C,RL2*
X23320000Y-49100000D02*
X25320000Y-49100000D01*
X23320000Y-50300000D02*
X23320000Y-49100000D01*
X25320000Y-50300000D02*
X23320000Y-50300000D01*
X25320000Y-49100000D02*
X25320000Y-50300000D01*
G04 #@! TO.C,RL3*
X25330000Y-46730000D02*
X25330000Y-47930000D01*
X25330000Y-47930000D02*
X23330000Y-47930000D01*
X23330000Y-47930000D02*
X23330000Y-46730000D01*
X23330000Y-46730000D02*
X25330000Y-46730000D01*
G04 #@! TO.C,R2*
X35710000Y-34780000D02*
X35710000Y-35980000D01*
X35710000Y-35980000D02*
X33710000Y-35980000D01*
X33710000Y-35980000D02*
X33710000Y-34780000D01*
X33710000Y-34780000D02*
X35710000Y-34780000D01*
G04 #@! TO.C,R9*
X24720000Y-27790000D02*
X23120000Y-27790000D01*
X24720000Y-26990000D02*
X24720000Y-27790000D01*
X23120000Y-26990000D02*
X24720000Y-26990000D01*
X23120000Y-27790000D02*
X23120000Y-26990000D01*
G04 #@! TO.C,R8*
X23120000Y-28880000D02*
X24720000Y-28880000D01*
X23120000Y-29680000D02*
X23120000Y-28880000D01*
X24720000Y-29680000D02*
X23120000Y-29680000D01*
X24720000Y-28880000D02*
X24720000Y-29680000D01*
G04 #@! TO.C,R7*
X23120000Y-30780000D02*
X24720000Y-30780000D01*
X23120000Y-31580000D02*
X23120000Y-30780000D01*
X24720000Y-31580000D02*
X23120000Y-31580000D01*
X24720000Y-30780000D02*
X24720000Y-31580000D01*
G04 #@! TO.C,R10*
X24910000Y-33940000D02*
X22910000Y-33940000D01*
X24910000Y-32740000D02*
X24910000Y-33940000D01*
X22910000Y-32740000D02*
X24910000Y-32740000D01*
X22910000Y-33940000D02*
X22910000Y-32740000D01*
G04 #@! TO.C,Q5*
X30330000Y-30240000D02*
X28930000Y-30240000D01*
X28930000Y-33280000D02*
X28930000Y-30240000D01*
X30330000Y-32710000D02*
X29780000Y-33280000D01*
X29780000Y-33280000D02*
X28930000Y-33280000D01*
X30330000Y-32710000D02*
X30330000Y-30260000D01*
G04 #@! TD*
G04 #@! TO.C,*
D11*
X11354285Y-19542380D02*
X11354285Y-18542380D01*
X11687619Y-19256666D01*
X12020952Y-18542380D01*
X12020952Y-19542380D01*
X12640000Y-19542380D02*
X12544761Y-19494761D01*
X12497142Y-19447142D01*
X12449523Y-19351904D01*
X12449523Y-19066190D01*
X12497142Y-18970952D01*
X12544761Y-18923333D01*
X12640000Y-18875714D01*
X12782857Y-18875714D01*
X12878095Y-18923333D01*
X12925714Y-18970952D01*
X12973333Y-19066190D01*
X12973333Y-19351904D01*
X12925714Y-19447142D01*
X12878095Y-19494761D01*
X12782857Y-19542380D01*
X12640000Y-19542380D01*
X13830476Y-18875714D02*
X13830476Y-19542380D01*
X13401904Y-18875714D02*
X13401904Y-19399523D01*
X13449523Y-19494761D01*
X13544761Y-19542380D01*
X13687619Y-19542380D01*
X13782857Y-19494761D01*
X13830476Y-19447142D01*
X14306666Y-18875714D02*
X14306666Y-19542380D01*
X14306666Y-18970952D02*
X14354285Y-18923333D01*
X14449523Y-18875714D01*
X14592380Y-18875714D01*
X14687619Y-18923333D01*
X14735238Y-19018571D01*
X14735238Y-19542380D01*
X15068571Y-18875714D02*
X15449523Y-18875714D01*
X15211428Y-18542380D02*
X15211428Y-19399523D01*
X15259047Y-19494761D01*
X15354285Y-19542380D01*
X15449523Y-19542380D01*
X15782857Y-19542380D02*
X15782857Y-18875714D01*
X15782857Y-18542380D02*
X15735238Y-18590000D01*
X15782857Y-18637619D01*
X15830476Y-18590000D01*
X15782857Y-18542380D01*
X15782857Y-18637619D01*
X16259047Y-18875714D02*
X16259047Y-19542380D01*
X16259047Y-18970952D02*
X16306666Y-18923333D01*
X16401904Y-18875714D01*
X16544761Y-18875714D01*
X16640000Y-18923333D01*
X16687619Y-19018571D01*
X16687619Y-19542380D01*
X17592380Y-18875714D02*
X17592380Y-19685238D01*
X17544761Y-19780476D01*
X17497142Y-19828095D01*
X17401904Y-19875714D01*
X17259047Y-19875714D01*
X17163809Y-19828095D01*
X17592380Y-19494761D02*
X17497142Y-19542380D01*
X17306666Y-19542380D01*
X17211428Y-19494761D01*
X17163809Y-19447142D01*
X17116190Y-19351904D01*
X17116190Y-19066190D01*
X17163809Y-18970952D01*
X17211428Y-18923333D01*
X17306666Y-18875714D01*
X17497142Y-18875714D01*
X17592380Y-18923333D01*
X18068571Y-19542380D02*
X18068571Y-18542380D01*
X18068571Y-19018571D02*
X18640000Y-19018571D01*
X18640000Y-19542380D02*
X18640000Y-18542380D01*
X19259047Y-19542380D02*
X19163809Y-19494761D01*
X19116190Y-19447142D01*
X19068571Y-19351904D01*
X19068571Y-19066190D01*
X19116190Y-18970952D01*
X19163809Y-18923333D01*
X19259047Y-18875714D01*
X19401904Y-18875714D01*
X19497142Y-18923333D01*
X19544761Y-18970952D01*
X19592380Y-19066190D01*
X19592380Y-19351904D01*
X19544761Y-19447142D01*
X19497142Y-19494761D01*
X19401904Y-19542380D01*
X19259047Y-19542380D01*
X20163809Y-19542380D02*
X20068571Y-19494761D01*
X20020952Y-19399523D01*
X20020952Y-18542380D01*
X20925714Y-19494761D02*
X20830476Y-19542380D01*
X20640000Y-19542380D01*
X20544761Y-19494761D01*
X20497142Y-19399523D01*
X20497142Y-19018571D01*
X20544761Y-18923333D01*
X20640000Y-18875714D01*
X20830476Y-18875714D01*
X20925714Y-18923333D01*
X20973333Y-19018571D01*
X20973333Y-19113809D01*
X20497142Y-19209047D01*
X36754285Y-19542380D02*
X36754285Y-18542380D01*
X37087619Y-19256666D01*
X37420952Y-18542380D01*
X37420952Y-19542380D01*
X38040000Y-19542380D02*
X37944761Y-19494761D01*
X37897142Y-19447142D01*
X37849523Y-19351904D01*
X37849523Y-19066190D01*
X37897142Y-18970952D01*
X37944761Y-18923333D01*
X38040000Y-18875714D01*
X38182857Y-18875714D01*
X38278095Y-18923333D01*
X38325714Y-18970952D01*
X38373333Y-19066190D01*
X38373333Y-19351904D01*
X38325714Y-19447142D01*
X38278095Y-19494761D01*
X38182857Y-19542380D01*
X38040000Y-19542380D01*
X39230476Y-18875714D02*
X39230476Y-19542380D01*
X38801904Y-18875714D02*
X38801904Y-19399523D01*
X38849523Y-19494761D01*
X38944761Y-19542380D01*
X39087619Y-19542380D01*
X39182857Y-19494761D01*
X39230476Y-19447142D01*
X39706666Y-18875714D02*
X39706666Y-19542380D01*
X39706666Y-18970952D02*
X39754285Y-18923333D01*
X39849523Y-18875714D01*
X39992380Y-18875714D01*
X40087619Y-18923333D01*
X40135238Y-19018571D01*
X40135238Y-19542380D01*
X40468571Y-18875714D02*
X40849523Y-18875714D01*
X40611428Y-18542380D02*
X40611428Y-19399523D01*
X40659047Y-19494761D01*
X40754285Y-19542380D01*
X40849523Y-19542380D01*
X41182857Y-19542380D02*
X41182857Y-18875714D01*
X41182857Y-18542380D02*
X41135238Y-18590000D01*
X41182857Y-18637619D01*
X41230476Y-18590000D01*
X41182857Y-18542380D01*
X41182857Y-18637619D01*
X41659047Y-18875714D02*
X41659047Y-19542380D01*
X41659047Y-18970952D02*
X41706666Y-18923333D01*
X41801904Y-18875714D01*
X41944761Y-18875714D01*
X42040000Y-18923333D01*
X42087619Y-19018571D01*
X42087619Y-19542380D01*
X42992380Y-18875714D02*
X42992380Y-19685238D01*
X42944761Y-19780476D01*
X42897142Y-19828095D01*
X42801904Y-19875714D01*
X42659047Y-19875714D01*
X42563809Y-19828095D01*
X42992380Y-19494761D02*
X42897142Y-19542380D01*
X42706666Y-19542380D01*
X42611428Y-19494761D01*
X42563809Y-19447142D01*
X42516190Y-19351904D01*
X42516190Y-19066190D01*
X42563809Y-18970952D01*
X42611428Y-18923333D01*
X42706666Y-18875714D01*
X42897142Y-18875714D01*
X42992380Y-18923333D01*
X43468571Y-19542380D02*
X43468571Y-18542380D01*
X43468571Y-19018571D02*
X44040000Y-19018571D01*
X44040000Y-19542380D02*
X44040000Y-18542380D01*
X44659047Y-19542380D02*
X44563809Y-19494761D01*
X44516190Y-19447142D01*
X44468571Y-19351904D01*
X44468571Y-19066190D01*
X44516190Y-18970952D01*
X44563809Y-18923333D01*
X44659047Y-18875714D01*
X44801904Y-18875714D01*
X44897142Y-18923333D01*
X44944761Y-18970952D01*
X44992380Y-19066190D01*
X44992380Y-19351904D01*
X44944761Y-19447142D01*
X44897142Y-19494761D01*
X44801904Y-19542380D01*
X44659047Y-19542380D01*
X45563809Y-19542380D02*
X45468571Y-19494761D01*
X45420952Y-19399523D01*
X45420952Y-18542380D01*
X46325714Y-19494761D02*
X46230476Y-19542380D01*
X46040000Y-19542380D01*
X45944761Y-19494761D01*
X45897142Y-19399523D01*
X45897142Y-19018571D01*
X45944761Y-18923333D01*
X46040000Y-18875714D01*
X46230476Y-18875714D01*
X46325714Y-18923333D01*
X46373333Y-19018571D01*
X46373333Y-19113809D01*
X45897142Y-19209047D01*
X11354285Y-71612380D02*
X11354285Y-70612380D01*
X11687619Y-71326666D01*
X12020952Y-70612380D01*
X12020952Y-71612380D01*
X12640000Y-71612380D02*
X12544761Y-71564761D01*
X12497142Y-71517142D01*
X12449523Y-71421904D01*
X12449523Y-71136190D01*
X12497142Y-71040952D01*
X12544761Y-70993333D01*
X12640000Y-70945714D01*
X12782857Y-70945714D01*
X12878095Y-70993333D01*
X12925714Y-71040952D01*
X12973333Y-71136190D01*
X12973333Y-71421904D01*
X12925714Y-71517142D01*
X12878095Y-71564761D01*
X12782857Y-71612380D01*
X12640000Y-71612380D01*
X13830476Y-70945714D02*
X13830476Y-71612380D01*
X13401904Y-70945714D02*
X13401904Y-71469523D01*
X13449523Y-71564761D01*
X13544761Y-71612380D01*
X13687619Y-71612380D01*
X13782857Y-71564761D01*
X13830476Y-71517142D01*
X14306666Y-70945714D02*
X14306666Y-71612380D01*
X14306666Y-71040952D02*
X14354285Y-70993333D01*
X14449523Y-70945714D01*
X14592380Y-70945714D01*
X14687619Y-70993333D01*
X14735238Y-71088571D01*
X14735238Y-71612380D01*
X15068571Y-70945714D02*
X15449523Y-70945714D01*
X15211428Y-70612380D02*
X15211428Y-71469523D01*
X15259047Y-71564761D01*
X15354285Y-71612380D01*
X15449523Y-71612380D01*
X15782857Y-71612380D02*
X15782857Y-70945714D01*
X15782857Y-70612380D02*
X15735238Y-70660000D01*
X15782857Y-70707619D01*
X15830476Y-70660000D01*
X15782857Y-70612380D01*
X15782857Y-70707619D01*
X16259047Y-70945714D02*
X16259047Y-71612380D01*
X16259047Y-71040952D02*
X16306666Y-70993333D01*
X16401904Y-70945714D01*
X16544761Y-70945714D01*
X16640000Y-70993333D01*
X16687619Y-71088571D01*
X16687619Y-71612380D01*
X17592380Y-70945714D02*
X17592380Y-71755238D01*
X17544761Y-71850476D01*
X17497142Y-71898095D01*
X17401904Y-71945714D01*
X17259047Y-71945714D01*
X17163809Y-71898095D01*
X17592380Y-71564761D02*
X17497142Y-71612380D01*
X17306666Y-71612380D01*
X17211428Y-71564761D01*
X17163809Y-71517142D01*
X17116190Y-71421904D01*
X17116190Y-71136190D01*
X17163809Y-71040952D01*
X17211428Y-70993333D01*
X17306666Y-70945714D01*
X17497142Y-70945714D01*
X17592380Y-70993333D01*
X18068571Y-71612380D02*
X18068571Y-70612380D01*
X18068571Y-71088571D02*
X18640000Y-71088571D01*
X18640000Y-71612380D02*
X18640000Y-70612380D01*
X19259047Y-71612380D02*
X19163809Y-71564761D01*
X19116190Y-71517142D01*
X19068571Y-71421904D01*
X19068571Y-71136190D01*
X19116190Y-71040952D01*
X19163809Y-70993333D01*
X19259047Y-70945714D01*
X19401904Y-70945714D01*
X19497142Y-70993333D01*
X19544761Y-71040952D01*
X19592380Y-71136190D01*
X19592380Y-71421904D01*
X19544761Y-71517142D01*
X19497142Y-71564761D01*
X19401904Y-71612380D01*
X19259047Y-71612380D01*
X20163809Y-71612380D02*
X20068571Y-71564761D01*
X20020952Y-71469523D01*
X20020952Y-70612380D01*
X20925714Y-71564761D02*
X20830476Y-71612380D01*
X20640000Y-71612380D01*
X20544761Y-71564761D01*
X20497142Y-71469523D01*
X20497142Y-71088571D01*
X20544761Y-70993333D01*
X20640000Y-70945714D01*
X20830476Y-70945714D01*
X20925714Y-70993333D01*
X20973333Y-71088571D01*
X20973333Y-71183809D01*
X20497142Y-71279047D01*
X36754285Y-71612380D02*
X36754285Y-70612380D01*
X37087619Y-71326666D01*
X37420952Y-70612380D01*
X37420952Y-71612380D01*
X38040000Y-71612380D02*
X37944761Y-71564761D01*
X37897142Y-71517142D01*
X37849523Y-71421904D01*
X37849523Y-71136190D01*
X37897142Y-71040952D01*
X37944761Y-70993333D01*
X38040000Y-70945714D01*
X38182857Y-70945714D01*
X38278095Y-70993333D01*
X38325714Y-71040952D01*
X38373333Y-71136190D01*
X38373333Y-71421904D01*
X38325714Y-71517142D01*
X38278095Y-71564761D01*
X38182857Y-71612380D01*
X38040000Y-71612380D01*
X39230476Y-70945714D02*
X39230476Y-71612380D01*
X38801904Y-70945714D02*
X38801904Y-71469523D01*
X38849523Y-71564761D01*
X38944761Y-71612380D01*
X39087619Y-71612380D01*
X39182857Y-71564761D01*
X39230476Y-71517142D01*
X39706666Y-70945714D02*
X39706666Y-71612380D01*
X39706666Y-71040952D02*
X39754285Y-70993333D01*
X39849523Y-70945714D01*
X39992380Y-70945714D01*
X40087619Y-70993333D01*
X40135238Y-71088571D01*
X40135238Y-71612380D01*
X40468571Y-70945714D02*
X40849523Y-70945714D01*
X40611428Y-70612380D02*
X40611428Y-71469523D01*
X40659047Y-71564761D01*
X40754285Y-71612380D01*
X40849523Y-71612380D01*
X41182857Y-71612380D02*
X41182857Y-70945714D01*
X41182857Y-70612380D02*
X41135238Y-70660000D01*
X41182857Y-70707619D01*
X41230476Y-70660000D01*
X41182857Y-70612380D01*
X41182857Y-70707619D01*
X41659047Y-70945714D02*
X41659047Y-71612380D01*
X41659047Y-71040952D02*
X41706666Y-70993333D01*
X41801904Y-70945714D01*
X41944761Y-70945714D01*
X42040000Y-70993333D01*
X42087619Y-71088571D01*
X42087619Y-71612380D01*
X42992380Y-70945714D02*
X42992380Y-71755238D01*
X42944761Y-71850476D01*
X42897142Y-71898095D01*
X42801904Y-71945714D01*
X42659047Y-71945714D01*
X42563809Y-71898095D01*
X42992380Y-71564761D02*
X42897142Y-71612380D01*
X42706666Y-71612380D01*
X42611428Y-71564761D01*
X42563809Y-71517142D01*
X42516190Y-71421904D01*
X42516190Y-71136190D01*
X42563809Y-71040952D01*
X42611428Y-70993333D01*
X42706666Y-70945714D01*
X42897142Y-70945714D01*
X42992380Y-70993333D01*
X43468571Y-71612380D02*
X43468571Y-70612380D01*
X43468571Y-71088571D02*
X44040000Y-71088571D01*
X44040000Y-71612380D02*
X44040000Y-70612380D01*
X44659047Y-71612380D02*
X44563809Y-71564761D01*
X44516190Y-71517142D01*
X44468571Y-71421904D01*
X44468571Y-71136190D01*
X44516190Y-71040952D01*
X44563809Y-70993333D01*
X44659047Y-70945714D01*
X44801904Y-70945714D01*
X44897142Y-70993333D01*
X44944761Y-71040952D01*
X44992380Y-71136190D01*
X44992380Y-71421904D01*
X44944761Y-71517142D01*
X44897142Y-71564761D01*
X44801904Y-71612380D01*
X44659047Y-71612380D01*
X45563809Y-71612380D02*
X45468571Y-71564761D01*
X45420952Y-71469523D01*
X45420952Y-70612380D01*
X46325714Y-71564761D02*
X46230476Y-71612380D01*
X46040000Y-71612380D01*
X45944761Y-71564761D01*
X45897142Y-71469523D01*
X45897142Y-71088571D01*
X45944761Y-70993333D01*
X46040000Y-70945714D01*
X46230476Y-70945714D01*
X46325714Y-70993333D01*
X46373333Y-71088571D01*
X46373333Y-71183809D01*
X45897142Y-71279047D01*
G04 #@! TO.C,RL4*
X23091904Y-42857619D02*
X23139523Y-42810000D01*
X23234761Y-42762380D01*
X23472857Y-42762380D01*
X23568095Y-42810000D01*
X23615714Y-42857619D01*
X23663333Y-42952857D01*
X23663333Y-43048095D01*
X23615714Y-43190952D01*
X23044285Y-43762380D01*
X23663333Y-43762380D01*
X23996666Y-42762380D02*
X24615714Y-42762380D01*
X24282380Y-43143333D01*
X24425238Y-43143333D01*
X24520476Y-43190952D01*
X24568095Y-43238571D01*
X24615714Y-43333809D01*
X24615714Y-43571904D01*
X24568095Y-43667142D01*
X24520476Y-43714761D01*
X24425238Y-43762380D01*
X24139523Y-43762380D01*
X24044285Y-43714761D01*
X23996666Y-43667142D01*
X24996666Y-42857619D02*
X25044285Y-42810000D01*
X25139523Y-42762380D01*
X25377619Y-42762380D01*
X25472857Y-42810000D01*
X25520476Y-42857619D01*
X25568095Y-42952857D01*
X25568095Y-43048095D01*
X25520476Y-43190952D01*
X24949047Y-43762380D01*
X25568095Y-43762380D01*
D12*
X24044285Y-45186190D02*
X23877619Y-44948095D01*
X23758571Y-45186190D02*
X23758571Y-44686190D01*
X23949047Y-44686190D01*
X23996666Y-44710000D01*
X24020476Y-44733809D01*
X24044285Y-44781428D01*
X24044285Y-44852857D01*
X24020476Y-44900476D01*
X23996666Y-44924285D01*
X23949047Y-44948095D01*
X23758571Y-44948095D01*
X24496666Y-45186190D02*
X24258571Y-45186190D01*
X24258571Y-44686190D01*
X24877619Y-44852857D02*
X24877619Y-45186190D01*
X24758571Y-44662380D02*
X24639523Y-45019523D01*
X24949047Y-45019523D01*
G04 #@! TO.C,RL5*
D11*
X23081904Y-40487619D02*
X23129523Y-40440000D01*
X23224761Y-40392380D01*
X23462857Y-40392380D01*
X23558095Y-40440000D01*
X23605714Y-40487619D01*
X23653333Y-40582857D01*
X23653333Y-40678095D01*
X23605714Y-40820952D01*
X23034285Y-41392380D01*
X23653333Y-41392380D01*
X23986666Y-40392380D02*
X24605714Y-40392380D01*
X24272380Y-40773333D01*
X24415238Y-40773333D01*
X24510476Y-40820952D01*
X24558095Y-40868571D01*
X24605714Y-40963809D01*
X24605714Y-41201904D01*
X24558095Y-41297142D01*
X24510476Y-41344761D01*
X24415238Y-41392380D01*
X24129523Y-41392380D01*
X24034285Y-41344761D01*
X23986666Y-41297142D01*
X24986666Y-40487619D02*
X25034285Y-40440000D01*
X25129523Y-40392380D01*
X25367619Y-40392380D01*
X25462857Y-40440000D01*
X25510476Y-40487619D01*
X25558095Y-40582857D01*
X25558095Y-40678095D01*
X25510476Y-40820952D01*
X24939047Y-41392380D01*
X25558095Y-41392380D01*
D12*
X24034285Y-42816190D02*
X23867619Y-42578095D01*
X23748571Y-42816190D02*
X23748571Y-42316190D01*
X23939047Y-42316190D01*
X23986666Y-42340000D01*
X24010476Y-42363809D01*
X24034285Y-42411428D01*
X24034285Y-42482857D01*
X24010476Y-42530476D01*
X23986666Y-42554285D01*
X23939047Y-42578095D01*
X23748571Y-42578095D01*
X24486666Y-42816190D02*
X24248571Y-42816190D01*
X24248571Y-42316190D01*
X24891428Y-42316190D02*
X24653333Y-42316190D01*
X24629523Y-42554285D01*
X24653333Y-42530476D01*
X24700952Y-42506666D01*
X24820000Y-42506666D01*
X24867619Y-42530476D01*
X24891428Y-42554285D01*
X24915238Y-42601904D01*
X24915238Y-42720952D01*
X24891428Y-42768571D01*
X24867619Y-42792380D01*
X24820000Y-42816190D01*
X24700952Y-42816190D01*
X24653333Y-42792380D01*
X24629523Y-42768571D01*
G04 #@! TO.C,*
D11*
X20316190Y-14422380D02*
X20316190Y-13422380D01*
X20887619Y-14422380D01*
X20887619Y-13422380D01*
X21506666Y-14422380D02*
X21411428Y-14374761D01*
X21363809Y-14327142D01*
X21316190Y-14231904D01*
X21316190Y-13946190D01*
X21363809Y-13850952D01*
X21411428Y-13803333D01*
X21506666Y-13755714D01*
X21649523Y-13755714D01*
X21744761Y-13803333D01*
X21792380Y-13850952D01*
X21840000Y-13946190D01*
X21840000Y-14231904D01*
X21792380Y-14327142D01*
X21744761Y-14374761D01*
X21649523Y-14422380D01*
X21506666Y-14422380D01*
X22697142Y-14422380D02*
X22697142Y-13422380D01*
X22697142Y-14374761D02*
X22601904Y-14422380D01*
X22411428Y-14422380D01*
X22316190Y-14374761D01*
X22268571Y-14327142D01*
X22220952Y-14231904D01*
X22220952Y-13946190D01*
X22268571Y-13850952D01*
X22316190Y-13803333D01*
X22411428Y-13755714D01*
X22601904Y-13755714D01*
X22697142Y-13803333D01*
X23554285Y-14374761D02*
X23459047Y-14422380D01*
X23268571Y-14422380D01*
X23173333Y-14374761D01*
X23125714Y-14279523D01*
X23125714Y-13898571D01*
X23173333Y-13803333D01*
X23268571Y-13755714D01*
X23459047Y-13755714D01*
X23554285Y-13803333D01*
X23601904Y-13898571D01*
X23601904Y-13993809D01*
X23125714Y-14089047D01*
X24030476Y-14422380D02*
X24030476Y-13422380D01*
X24363809Y-14136666D01*
X24697142Y-13422380D01*
X24697142Y-14422380D01*
X25744761Y-14327142D02*
X25697142Y-14374761D01*
X25554285Y-14422380D01*
X25459047Y-14422380D01*
X25316190Y-14374761D01*
X25220952Y-14279523D01*
X25173333Y-14184285D01*
X25125714Y-13993809D01*
X25125714Y-13850952D01*
X25173333Y-13660476D01*
X25220952Y-13565238D01*
X25316190Y-13470000D01*
X25459047Y-13422380D01*
X25554285Y-13422380D01*
X25697142Y-13470000D01*
X25744761Y-13517619D01*
X26173333Y-13422380D02*
X26173333Y-14231904D01*
X26220952Y-14327142D01*
X26268571Y-14374761D01*
X26363809Y-14422380D01*
X26554285Y-14422380D01*
X26649523Y-14374761D01*
X26697142Y-14327142D01*
X26744761Y-14231904D01*
X26744761Y-13422380D01*
X27744761Y-14422380D02*
X27173333Y-14422380D01*
X27459047Y-14422380D02*
X27459047Y-13422380D01*
X27363809Y-13565238D01*
X27268571Y-13660476D01*
X27173333Y-13708095D01*
X28173333Y-14327142D02*
X28220952Y-14374761D01*
X28173333Y-14422380D01*
X28125714Y-14374761D01*
X28173333Y-14327142D01*
X28173333Y-14422380D01*
X28840000Y-13422380D02*
X28935238Y-13422380D01*
X29030476Y-13470000D01*
X29078095Y-13517619D01*
X29125714Y-13612857D01*
X29173333Y-13803333D01*
X29173333Y-14041428D01*
X29125714Y-14231904D01*
X29078095Y-14327142D01*
X29030476Y-14374761D01*
X28935238Y-14422380D01*
X28840000Y-14422380D01*
X28744761Y-14374761D01*
X28697142Y-14327142D01*
X28649523Y-14231904D01*
X28601904Y-14041428D01*
X28601904Y-13803333D01*
X28649523Y-13612857D01*
X28697142Y-13517619D01*
X28744761Y-13470000D01*
X28840000Y-13422380D01*
X29887619Y-14803333D02*
X29840000Y-14755714D01*
X29744761Y-14612857D01*
X29697142Y-14517619D01*
X29649523Y-14374761D01*
X29601904Y-14136666D01*
X29601904Y-13946190D01*
X29649523Y-13708095D01*
X29697142Y-13565238D01*
X29744761Y-13470000D01*
X29840000Y-13327142D01*
X29887619Y-13279523D01*
X30268571Y-13898571D02*
X30601904Y-13898571D01*
X30744761Y-14422380D02*
X30268571Y-14422380D01*
X30268571Y-13422380D01*
X30744761Y-13422380D01*
X31125714Y-14374761D02*
X31268571Y-14422380D01*
X31506666Y-14422380D01*
X31601904Y-14374761D01*
X31649523Y-14327142D01*
X31697142Y-14231904D01*
X31697142Y-14136666D01*
X31649523Y-14041428D01*
X31601904Y-13993809D01*
X31506666Y-13946190D01*
X31316190Y-13898571D01*
X31220952Y-13850952D01*
X31173333Y-13803333D01*
X31125714Y-13708095D01*
X31125714Y-13612857D01*
X31173333Y-13517619D01*
X31220952Y-13470000D01*
X31316190Y-13422380D01*
X31554285Y-13422380D01*
X31697142Y-13470000D01*
X32125714Y-14422380D02*
X32125714Y-13422380D01*
X32506666Y-13422380D01*
X32601904Y-13470000D01*
X32649523Y-13517619D01*
X32697142Y-13612857D01*
X32697142Y-13755714D01*
X32649523Y-13850952D01*
X32601904Y-13898571D01*
X32506666Y-13946190D01*
X32125714Y-13946190D01*
X33125714Y-14041428D02*
X33887619Y-14041428D01*
X34887619Y-14422380D02*
X34316190Y-14422380D01*
X34601904Y-14422380D02*
X34601904Y-13422380D01*
X34506666Y-13565238D01*
X34411428Y-13660476D01*
X34316190Y-13708095D01*
X35268571Y-13517619D02*
X35316190Y-13470000D01*
X35411428Y-13422380D01*
X35649523Y-13422380D01*
X35744761Y-13470000D01*
X35792380Y-13517619D01*
X35840000Y-13612857D01*
X35840000Y-13708095D01*
X35792380Y-13850952D01*
X35220952Y-14422380D01*
X35840000Y-14422380D01*
X36268571Y-13898571D02*
X36601904Y-13898571D01*
X36744761Y-14422380D02*
X36268571Y-14422380D01*
X36268571Y-13422380D01*
X36744761Y-13422380D01*
X37078095Y-14803333D02*
X37125714Y-14755714D01*
X37220952Y-14612857D01*
X37268571Y-14517619D01*
X37316190Y-14374761D01*
X37363809Y-14136666D01*
X37363809Y-13946190D01*
X37316190Y-13708095D01*
X37268571Y-13565238D01*
X37220952Y-13470000D01*
X37125714Y-13327142D01*
X37078095Y-13279523D01*
G04 #@! TO.C,Q3*
X23254761Y-39862380D02*
X23254761Y-38862380D01*
X24302380Y-39862380D02*
X23969047Y-39386190D01*
X23730952Y-39862380D02*
X23730952Y-38862380D01*
X24111904Y-38862380D01*
X24207142Y-38910000D01*
X24254761Y-38957619D01*
X24302380Y-39052857D01*
X24302380Y-39195714D01*
X24254761Y-39290952D01*
X24207142Y-39338571D01*
X24111904Y-39386190D01*
X23730952Y-39386190D01*
X25207142Y-39862380D02*
X24730952Y-39862380D01*
X24730952Y-38862380D01*
X25540476Y-39862380D02*
X25540476Y-38862380D01*
X25873809Y-39576666D01*
X26207142Y-38862380D01*
X26207142Y-39862380D01*
X27159523Y-39862380D02*
X26683333Y-39862380D01*
X26683333Y-38862380D01*
X27921428Y-38862380D02*
X27730952Y-38862380D01*
X27635714Y-38910000D01*
X27588095Y-38957619D01*
X27492857Y-39100476D01*
X27445238Y-39290952D01*
X27445238Y-39671904D01*
X27492857Y-39767142D01*
X27540476Y-39814761D01*
X27635714Y-39862380D01*
X27826190Y-39862380D01*
X27921428Y-39814761D01*
X27969047Y-39767142D01*
X28016666Y-39671904D01*
X28016666Y-39433809D01*
X27969047Y-39338571D01*
X27921428Y-39290952D01*
X27826190Y-39243333D01*
X27635714Y-39243333D01*
X27540476Y-39290952D01*
X27492857Y-39338571D01*
X27445238Y-39433809D01*
X28873809Y-39195714D02*
X28873809Y-39862380D01*
X28635714Y-38814761D02*
X28397619Y-39529047D01*
X29016666Y-39529047D01*
X29588095Y-38862380D02*
X29683333Y-38862380D01*
X29778571Y-38910000D01*
X29826190Y-38957619D01*
X29873809Y-39052857D01*
X29921428Y-39243333D01*
X29921428Y-39481428D01*
X29873809Y-39671904D01*
X29826190Y-39767142D01*
X29778571Y-39814761D01*
X29683333Y-39862380D01*
X29588095Y-39862380D01*
X29492857Y-39814761D01*
X29445238Y-39767142D01*
X29397619Y-39671904D01*
X29349999Y-39481428D01*
X29349999Y-39243333D01*
X29397619Y-39052857D01*
X29445238Y-38957619D01*
X29492857Y-38910000D01*
X29588095Y-38862380D01*
X30873809Y-39862380D02*
X30302380Y-39862380D01*
X30588095Y-39862380D02*
X30588095Y-38862380D01*
X30492857Y-39005238D01*
X30397619Y-39100476D01*
X30302380Y-39148095D01*
X31159523Y-38862380D02*
X31730952Y-38862380D01*
X31445238Y-39862380D02*
X31445238Y-38862380D01*
X32635714Y-39862380D02*
X32302380Y-39386190D01*
X32064285Y-39862380D02*
X32064285Y-38862380D01*
X32445238Y-38862380D01*
X32540476Y-38910000D01*
X32588095Y-38957619D01*
X32635714Y-39052857D01*
X32635714Y-39195714D01*
X32588095Y-39290952D01*
X32540476Y-39338571D01*
X32445238Y-39386190D01*
X32064285Y-39386190D01*
X33064285Y-39862380D02*
X33064285Y-38862380D01*
X33445238Y-38862380D01*
X33540476Y-38910000D01*
X33588095Y-38957619D01*
X33635714Y-39052857D01*
X33635714Y-39195714D01*
X33588095Y-39290952D01*
X33540476Y-39338571D01*
X33445238Y-39386190D01*
X33064285Y-39386190D01*
X34397619Y-39338571D02*
X34540476Y-39386190D01*
X34588095Y-39433809D01*
X34635714Y-39529047D01*
X34635714Y-39671904D01*
X34588095Y-39767142D01*
X34540476Y-39814761D01*
X34445238Y-39862380D01*
X34064285Y-39862380D01*
X34064285Y-38862380D01*
X34397619Y-38862380D01*
X34492857Y-38910000D01*
X34540476Y-38957619D01*
X34588095Y-39052857D01*
X34588095Y-39148095D01*
X34540476Y-39243333D01*
X34492857Y-39290952D01*
X34397619Y-39338571D01*
X34064285Y-39338571D01*
X35397619Y-39338571D02*
X35064285Y-39338571D01*
X35064285Y-39862380D02*
X35064285Y-38862380D01*
X35540476Y-38862380D01*
D13*
X29623809Y-41957619D02*
X29600000Y-42005238D01*
X29552380Y-42052857D01*
X29480952Y-42124285D01*
X29457142Y-42171904D01*
X29457142Y-42219523D01*
X29576190Y-42195714D02*
X29552380Y-42243333D01*
X29504761Y-42290952D01*
X29409523Y-42314761D01*
X29242857Y-42314761D01*
X29147619Y-42290952D01*
X29100000Y-42243333D01*
X29076190Y-42195714D01*
X29076190Y-42100476D01*
X29100000Y-42052857D01*
X29147619Y-42005238D01*
X29242857Y-41981428D01*
X29409523Y-41981428D01*
X29504761Y-42005238D01*
X29552380Y-42052857D01*
X29576190Y-42100476D01*
X29576190Y-42195714D01*
X29076190Y-41814761D02*
X29076190Y-41505238D01*
X29266666Y-41671904D01*
X29266666Y-41600476D01*
X29290476Y-41552857D01*
X29314285Y-41529047D01*
X29361904Y-41505238D01*
X29480952Y-41505238D01*
X29528571Y-41529047D01*
X29552380Y-41552857D01*
X29576190Y-41600476D01*
X29576190Y-41743333D01*
X29552380Y-41790952D01*
X29528571Y-41814761D01*
G04 #@! TO.C,R6*
D11*
X34114761Y-34742380D02*
X33543333Y-34742380D01*
X33829047Y-34742380D02*
X33829047Y-33742380D01*
X33733809Y-33885238D01*
X33638571Y-33980476D01*
X33543333Y-34028095D01*
X34733809Y-33742380D02*
X34829047Y-33742380D01*
X34924285Y-33790000D01*
X34971904Y-33837619D01*
X35019523Y-33932857D01*
X35067142Y-34123333D01*
X35067142Y-34361428D01*
X35019523Y-34551904D01*
X34971904Y-34647142D01*
X34924285Y-34694761D01*
X34829047Y-34742380D01*
X34733809Y-34742380D01*
X34638571Y-34694761D01*
X34590952Y-34647142D01*
X34543333Y-34551904D01*
X34495714Y-34361428D01*
X34495714Y-34123333D01*
X34543333Y-33932857D01*
X34590952Y-33837619D01*
X34638571Y-33790000D01*
X34733809Y-33742380D01*
X35495714Y-34742380D02*
X35495714Y-33742380D01*
X35590952Y-34361428D02*
X35876666Y-34742380D01*
X35876666Y-34075714D02*
X35495714Y-34456666D01*
D12*
X34626666Y-33246190D02*
X34460000Y-33008095D01*
X34340952Y-33246190D02*
X34340952Y-32746190D01*
X34531428Y-32746190D01*
X34579047Y-32770000D01*
X34602857Y-32793809D01*
X34626666Y-32841428D01*
X34626666Y-32912857D01*
X34602857Y-32960476D01*
X34579047Y-32984285D01*
X34531428Y-33008095D01*
X34340952Y-33008095D01*
X35055238Y-32746190D02*
X34960000Y-32746190D01*
X34912380Y-32770000D01*
X34888571Y-32793809D01*
X34840952Y-32865238D01*
X34817142Y-32960476D01*
X34817142Y-33150952D01*
X34840952Y-33198571D01*
X34864761Y-33222380D01*
X34912380Y-33246190D01*
X35007619Y-33246190D01*
X35055238Y-33222380D01*
X35079047Y-33198571D01*
X35102857Y-33150952D01*
X35102857Y-33031904D01*
X35079047Y-32984285D01*
X35055238Y-32960476D01*
X35007619Y-32936666D01*
X34912380Y-32936666D01*
X34864761Y-32960476D01*
X34840952Y-32984285D01*
X34817142Y-33031904D01*
G04 #@! TO.C,J2*
D11*
X38783333Y-17572380D02*
X38783333Y-16572380D01*
X39021428Y-16572380D01*
X39164285Y-16620000D01*
X39259523Y-16715238D01*
X39307142Y-16810476D01*
X39354761Y-17000952D01*
X39354761Y-17143809D01*
X39307142Y-17334285D01*
X39259523Y-17429523D01*
X39164285Y-17524761D01*
X39021428Y-17572380D01*
X38783333Y-17572380D01*
X39783333Y-16572380D02*
X39783333Y-17381904D01*
X39830952Y-17477142D01*
X39878571Y-17524761D01*
X39973809Y-17572380D01*
X40164285Y-17572380D01*
X40259523Y-17524761D01*
X40307142Y-17477142D01*
X40354761Y-17381904D01*
X40354761Y-16572380D01*
X40688095Y-16572380D02*
X41259523Y-16572380D01*
X40973809Y-17572380D02*
X40973809Y-16572380D01*
X39616666Y-19132380D02*
X39616666Y-19846666D01*
X39569047Y-19989523D01*
X39473809Y-20084761D01*
X39330952Y-20132380D01*
X39235714Y-20132380D01*
X40045238Y-19227619D02*
X40092857Y-19180000D01*
X40188095Y-19132380D01*
X40426190Y-19132380D01*
X40521428Y-19180000D01*
X40569047Y-19227619D01*
X40616666Y-19322857D01*
X40616666Y-19418095D01*
X40569047Y-19560952D01*
X39997619Y-20132380D01*
X40616666Y-20132380D01*
G04 #@! TO.C,J1*
X29520000Y-17018571D02*
X29662857Y-17066190D01*
X29710476Y-17113809D01*
X29758095Y-17209047D01*
X29758095Y-17351904D01*
X29710476Y-17447142D01*
X29662857Y-17494761D01*
X29567619Y-17542380D01*
X29186666Y-17542380D01*
X29186666Y-16542380D01*
X29520000Y-16542380D01*
X29615238Y-16590000D01*
X29662857Y-16637619D01*
X29710476Y-16732857D01*
X29710476Y-16828095D01*
X29662857Y-16923333D01*
X29615238Y-16970952D01*
X29520000Y-17018571D01*
X29186666Y-17018571D01*
X30139047Y-17256666D02*
X30615238Y-17256666D01*
X30043809Y-17542380D02*
X30377142Y-16542380D01*
X30710476Y-17542380D01*
X30900952Y-16542380D02*
X31472380Y-16542380D01*
X31186666Y-17542380D02*
X31186666Y-16542380D01*
X31662857Y-16542380D02*
X32234285Y-16542380D01*
X31948571Y-17542380D02*
X31948571Y-16542380D01*
X32567619Y-17018571D02*
X32900952Y-17018571D01*
X33043809Y-17542380D02*
X32567619Y-17542380D01*
X32567619Y-16542380D01*
X33043809Y-16542380D01*
X34043809Y-17542380D02*
X33710476Y-17066190D01*
X33472380Y-17542380D02*
X33472380Y-16542380D01*
X33853333Y-16542380D01*
X33948571Y-16590000D01*
X33996190Y-16637619D01*
X34043809Y-16732857D01*
X34043809Y-16875714D01*
X33996190Y-16970952D01*
X33948571Y-17018571D01*
X33853333Y-17066190D01*
X33472380Y-17066190D01*
X34662857Y-17066190D02*
X34662857Y-17542380D01*
X34329523Y-16542380D02*
X34662857Y-17066190D01*
X34996190Y-16542380D01*
X31686666Y-19102380D02*
X31686666Y-19816666D01*
X31639047Y-19959523D01*
X31543809Y-20054761D01*
X31400952Y-20102380D01*
X31305714Y-20102380D01*
X32686666Y-20102380D02*
X32115238Y-20102380D01*
X32400952Y-20102380D02*
X32400952Y-19102380D01*
X32305714Y-19245238D01*
X32210476Y-19340476D01*
X32115238Y-19388095D01*
G04 #@! TO.C,Q1*
X23254761Y-50022380D02*
X23254761Y-49022380D01*
X24302380Y-50022380D02*
X23969047Y-49546190D01*
X23730952Y-50022380D02*
X23730952Y-49022380D01*
X24111904Y-49022380D01*
X24207142Y-49070000D01*
X24254761Y-49117619D01*
X24302380Y-49212857D01*
X24302380Y-49355714D01*
X24254761Y-49450952D01*
X24207142Y-49498571D01*
X24111904Y-49546190D01*
X23730952Y-49546190D01*
X25207142Y-50022380D02*
X24730952Y-50022380D01*
X24730952Y-49022380D01*
X25540476Y-50022380D02*
X25540476Y-49022380D01*
X25873809Y-49736666D01*
X26207142Y-49022380D01*
X26207142Y-50022380D01*
X27159523Y-50022380D02*
X26683333Y-50022380D01*
X26683333Y-49022380D01*
X27921428Y-49022380D02*
X27730952Y-49022380D01*
X27635714Y-49070000D01*
X27588095Y-49117619D01*
X27492857Y-49260476D01*
X27445238Y-49450952D01*
X27445238Y-49831904D01*
X27492857Y-49927142D01*
X27540476Y-49974761D01*
X27635714Y-50022380D01*
X27826190Y-50022380D01*
X27921428Y-49974761D01*
X27969047Y-49927142D01*
X28016666Y-49831904D01*
X28016666Y-49593809D01*
X27969047Y-49498571D01*
X27921428Y-49450952D01*
X27826190Y-49403333D01*
X27635714Y-49403333D01*
X27540476Y-49450952D01*
X27492857Y-49498571D01*
X27445238Y-49593809D01*
X28873809Y-49355714D02*
X28873809Y-50022380D01*
X28635714Y-48974761D02*
X28397619Y-49689047D01*
X29016666Y-49689047D01*
X29588095Y-49022380D02*
X29683333Y-49022380D01*
X29778571Y-49070000D01*
X29826190Y-49117619D01*
X29873809Y-49212857D01*
X29921428Y-49403333D01*
X29921428Y-49641428D01*
X29873809Y-49831904D01*
X29826190Y-49927142D01*
X29778571Y-49974761D01*
X29683333Y-50022380D01*
X29588095Y-50022380D01*
X29492857Y-49974761D01*
X29445238Y-49927142D01*
X29397619Y-49831904D01*
X29349999Y-49641428D01*
X29349999Y-49403333D01*
X29397619Y-49212857D01*
X29445238Y-49117619D01*
X29492857Y-49070000D01*
X29588095Y-49022380D01*
X30873809Y-50022380D02*
X30302380Y-50022380D01*
X30588095Y-50022380D02*
X30588095Y-49022380D01*
X30492857Y-49165238D01*
X30397619Y-49260476D01*
X30302380Y-49308095D01*
X31159523Y-49022380D02*
X31730952Y-49022380D01*
X31445238Y-50022380D02*
X31445238Y-49022380D01*
X32635714Y-50022380D02*
X32302380Y-49546190D01*
X32064285Y-50022380D02*
X32064285Y-49022380D01*
X32445238Y-49022380D01*
X32540476Y-49070000D01*
X32588095Y-49117619D01*
X32635714Y-49212857D01*
X32635714Y-49355714D01*
X32588095Y-49450952D01*
X32540476Y-49498571D01*
X32445238Y-49546190D01*
X32064285Y-49546190D01*
X33064285Y-50022380D02*
X33064285Y-49022380D01*
X33445238Y-49022380D01*
X33540476Y-49070000D01*
X33588095Y-49117619D01*
X33635714Y-49212857D01*
X33635714Y-49355714D01*
X33588095Y-49450952D01*
X33540476Y-49498571D01*
X33445238Y-49546190D01*
X33064285Y-49546190D01*
X34397619Y-49498571D02*
X34540476Y-49546190D01*
X34588095Y-49593809D01*
X34635714Y-49689047D01*
X34635714Y-49831904D01*
X34588095Y-49927142D01*
X34540476Y-49974761D01*
X34445238Y-50022380D01*
X34064285Y-50022380D01*
X34064285Y-49022380D01*
X34397619Y-49022380D01*
X34492857Y-49070000D01*
X34540476Y-49117619D01*
X34588095Y-49212857D01*
X34588095Y-49308095D01*
X34540476Y-49403333D01*
X34492857Y-49450952D01*
X34397619Y-49498571D01*
X34064285Y-49498571D01*
X35397619Y-49498571D02*
X35064285Y-49498571D01*
X35064285Y-50022380D02*
X35064285Y-49022380D01*
X35540476Y-49022380D01*
D13*
X29623809Y-52117619D02*
X29600000Y-52165238D01*
X29552380Y-52212857D01*
X29480952Y-52284285D01*
X29457142Y-52331904D01*
X29457142Y-52379523D01*
X29576190Y-52355714D02*
X29552380Y-52403333D01*
X29504761Y-52450952D01*
X29409523Y-52474761D01*
X29242857Y-52474761D01*
X29147619Y-52450952D01*
X29100000Y-52403333D01*
X29076190Y-52355714D01*
X29076190Y-52260476D01*
X29100000Y-52212857D01*
X29147619Y-52165238D01*
X29242857Y-52141428D01*
X29409523Y-52141428D01*
X29504761Y-52165238D01*
X29552380Y-52212857D01*
X29576190Y-52260476D01*
X29576190Y-52355714D01*
X29576190Y-51665238D02*
X29576190Y-51950952D01*
X29576190Y-51808095D02*
X29076190Y-51808095D01*
X29147619Y-51855714D01*
X29195238Y-51903333D01*
X29219047Y-51950952D01*
G04 #@! TO.C,Q2*
D11*
X23254761Y-44942380D02*
X23254761Y-43942380D01*
X24302380Y-44942380D02*
X23969047Y-44466190D01*
X23730952Y-44942380D02*
X23730952Y-43942380D01*
X24111904Y-43942380D01*
X24207142Y-43990000D01*
X24254761Y-44037619D01*
X24302380Y-44132857D01*
X24302380Y-44275714D01*
X24254761Y-44370952D01*
X24207142Y-44418571D01*
X24111904Y-44466190D01*
X23730952Y-44466190D01*
X25207142Y-44942380D02*
X24730952Y-44942380D01*
X24730952Y-43942380D01*
X25540476Y-44942380D02*
X25540476Y-43942380D01*
X25873809Y-44656666D01*
X26207142Y-43942380D01*
X26207142Y-44942380D01*
X27159523Y-44942380D02*
X26683333Y-44942380D01*
X26683333Y-43942380D01*
X27921428Y-43942380D02*
X27730952Y-43942380D01*
X27635714Y-43990000D01*
X27588095Y-44037619D01*
X27492857Y-44180476D01*
X27445238Y-44370952D01*
X27445238Y-44751904D01*
X27492857Y-44847142D01*
X27540476Y-44894761D01*
X27635714Y-44942380D01*
X27826190Y-44942380D01*
X27921428Y-44894761D01*
X27969047Y-44847142D01*
X28016666Y-44751904D01*
X28016666Y-44513809D01*
X27969047Y-44418571D01*
X27921428Y-44370952D01*
X27826190Y-44323333D01*
X27635714Y-44323333D01*
X27540476Y-44370952D01*
X27492857Y-44418571D01*
X27445238Y-44513809D01*
X28873809Y-44275714D02*
X28873809Y-44942380D01*
X28635714Y-43894761D02*
X28397619Y-44609047D01*
X29016666Y-44609047D01*
X29588095Y-43942380D02*
X29683333Y-43942380D01*
X29778571Y-43990000D01*
X29826190Y-44037619D01*
X29873809Y-44132857D01*
X29921428Y-44323333D01*
X29921428Y-44561428D01*
X29873809Y-44751904D01*
X29826190Y-44847142D01*
X29778571Y-44894761D01*
X29683333Y-44942380D01*
X29588095Y-44942380D01*
X29492857Y-44894761D01*
X29445238Y-44847142D01*
X29397619Y-44751904D01*
X29349999Y-44561428D01*
X29349999Y-44323333D01*
X29397619Y-44132857D01*
X29445238Y-44037619D01*
X29492857Y-43990000D01*
X29588095Y-43942380D01*
X30873809Y-44942380D02*
X30302380Y-44942380D01*
X30588095Y-44942380D02*
X30588095Y-43942380D01*
X30492857Y-44085238D01*
X30397619Y-44180476D01*
X30302380Y-44228095D01*
X31159523Y-43942380D02*
X31730952Y-43942380D01*
X31445238Y-44942380D02*
X31445238Y-43942380D01*
X32635714Y-44942380D02*
X32302380Y-44466190D01*
X32064285Y-44942380D02*
X32064285Y-43942380D01*
X32445238Y-43942380D01*
X32540476Y-43990000D01*
X32588095Y-44037619D01*
X32635714Y-44132857D01*
X32635714Y-44275714D01*
X32588095Y-44370952D01*
X32540476Y-44418571D01*
X32445238Y-44466190D01*
X32064285Y-44466190D01*
X33064285Y-44942380D02*
X33064285Y-43942380D01*
X33445238Y-43942380D01*
X33540476Y-43990000D01*
X33588095Y-44037619D01*
X33635714Y-44132857D01*
X33635714Y-44275714D01*
X33588095Y-44370952D01*
X33540476Y-44418571D01*
X33445238Y-44466190D01*
X33064285Y-44466190D01*
X34397619Y-44418571D02*
X34540476Y-44466190D01*
X34588095Y-44513809D01*
X34635714Y-44609047D01*
X34635714Y-44751904D01*
X34588095Y-44847142D01*
X34540476Y-44894761D01*
X34445238Y-44942380D01*
X34064285Y-44942380D01*
X34064285Y-43942380D01*
X34397619Y-43942380D01*
X34492857Y-43990000D01*
X34540476Y-44037619D01*
X34588095Y-44132857D01*
X34588095Y-44228095D01*
X34540476Y-44323333D01*
X34492857Y-44370952D01*
X34397619Y-44418571D01*
X34064285Y-44418571D01*
X35397619Y-44418571D02*
X35064285Y-44418571D01*
X35064285Y-44942380D02*
X35064285Y-43942380D01*
X35540476Y-43942380D01*
D13*
X29623809Y-47037619D02*
X29600000Y-47085238D01*
X29552380Y-47132857D01*
X29480952Y-47204285D01*
X29457142Y-47251904D01*
X29457142Y-47299523D01*
X29576190Y-47275714D02*
X29552380Y-47323333D01*
X29504761Y-47370952D01*
X29409523Y-47394761D01*
X29242857Y-47394761D01*
X29147619Y-47370952D01*
X29100000Y-47323333D01*
X29076190Y-47275714D01*
X29076190Y-47180476D01*
X29100000Y-47132857D01*
X29147619Y-47085238D01*
X29242857Y-47061428D01*
X29409523Y-47061428D01*
X29504761Y-47085238D01*
X29552380Y-47132857D01*
X29576190Y-47180476D01*
X29576190Y-47275714D01*
X29123809Y-46870952D02*
X29100000Y-46847142D01*
X29076190Y-46799523D01*
X29076190Y-46680476D01*
X29100000Y-46632857D01*
X29123809Y-46609047D01*
X29171428Y-46585238D01*
X29219047Y-46585238D01*
X29290476Y-46609047D01*
X29576190Y-46894761D01*
X29576190Y-46585238D01*
G04 #@! TO.C,Q4*
D11*
X24084761Y-34762380D02*
X24084761Y-33762380D01*
X25132380Y-34762380D02*
X24799047Y-34286190D01*
X24560952Y-34762380D02*
X24560952Y-33762380D01*
X24941904Y-33762380D01*
X25037142Y-33810000D01*
X25084761Y-33857619D01*
X25132380Y-33952857D01*
X25132380Y-34095714D01*
X25084761Y-34190952D01*
X25037142Y-34238571D01*
X24941904Y-34286190D01*
X24560952Y-34286190D01*
X26037142Y-34762380D02*
X25560952Y-34762380D01*
X25560952Y-33762380D01*
X26370476Y-34762380D02*
X26370476Y-33762380D01*
X26703809Y-34476666D01*
X27037142Y-33762380D01*
X27037142Y-34762380D01*
X27989523Y-34762380D02*
X27513333Y-34762380D01*
X27513333Y-33762380D01*
X28751428Y-33762380D02*
X28560952Y-33762380D01*
X28465714Y-33810000D01*
X28418095Y-33857619D01*
X28322857Y-34000476D01*
X28275238Y-34190952D01*
X28275238Y-34571904D01*
X28322857Y-34667142D01*
X28370476Y-34714761D01*
X28465714Y-34762380D01*
X28656190Y-34762380D01*
X28751428Y-34714761D01*
X28799047Y-34667142D01*
X28846666Y-34571904D01*
X28846666Y-34333809D01*
X28799047Y-34238571D01*
X28751428Y-34190952D01*
X28656190Y-34143333D01*
X28465714Y-34143333D01*
X28370476Y-34190952D01*
X28322857Y-34238571D01*
X28275238Y-34333809D01*
X29703809Y-34095714D02*
X29703809Y-34762380D01*
X29465714Y-33714761D02*
X29227619Y-34429047D01*
X29846666Y-34429047D01*
X30418095Y-33762380D02*
X30513333Y-33762380D01*
X30608571Y-33810000D01*
X30656190Y-33857619D01*
X30703809Y-33952857D01*
X30751428Y-34143333D01*
X30751428Y-34381428D01*
X30703809Y-34571904D01*
X30656190Y-34667142D01*
X30608571Y-34714761D01*
X30513333Y-34762380D01*
X30418095Y-34762380D01*
X30322857Y-34714761D01*
X30275238Y-34667142D01*
X30227619Y-34571904D01*
X30179999Y-34381428D01*
X30179999Y-34143333D01*
X30227619Y-33952857D01*
X30275238Y-33857619D01*
X30322857Y-33810000D01*
X30418095Y-33762380D01*
X31703809Y-34762380D02*
X31132380Y-34762380D01*
X31418095Y-34762380D02*
X31418095Y-33762380D01*
X31322857Y-33905238D01*
X31227619Y-34000476D01*
X31132380Y-34048095D01*
X31989523Y-33762380D02*
X32560952Y-33762380D01*
X32275238Y-34762380D02*
X32275238Y-33762380D01*
X33465714Y-34762380D02*
X33132380Y-34286190D01*
X32894285Y-34762380D02*
X32894285Y-33762380D01*
X33275238Y-33762380D01*
X33370476Y-33810000D01*
X33418095Y-33857619D01*
X33465714Y-33952857D01*
X33465714Y-34095714D01*
X33418095Y-34190952D01*
X33370476Y-34238571D01*
X33275238Y-34286190D01*
X32894285Y-34286190D01*
X33894285Y-34762380D02*
X33894285Y-33762380D01*
X34275238Y-33762380D01*
X34370476Y-33810000D01*
X34418095Y-33857619D01*
X34465714Y-33952857D01*
X34465714Y-34095714D01*
X34418095Y-34190952D01*
X34370476Y-34238571D01*
X34275238Y-34286190D01*
X33894285Y-34286190D01*
X35227619Y-34238571D02*
X35370476Y-34286190D01*
X35418095Y-34333809D01*
X35465714Y-34429047D01*
X35465714Y-34571904D01*
X35418095Y-34667142D01*
X35370476Y-34714761D01*
X35275238Y-34762380D01*
X34894285Y-34762380D01*
X34894285Y-33762380D01*
X35227619Y-33762380D01*
X35322857Y-33810000D01*
X35370476Y-33857619D01*
X35418095Y-33952857D01*
X35418095Y-34048095D01*
X35370476Y-34143333D01*
X35322857Y-34190952D01*
X35227619Y-34238571D01*
X34894285Y-34238571D01*
X36227619Y-34238571D02*
X35894285Y-34238571D01*
X35894285Y-34762380D02*
X35894285Y-33762380D01*
X36370476Y-33762380D01*
D13*
X29903809Y-36877619D02*
X29880000Y-36925238D01*
X29832380Y-36972857D01*
X29760952Y-37044285D01*
X29737142Y-37091904D01*
X29737142Y-37139523D01*
X29856190Y-37115714D02*
X29832380Y-37163333D01*
X29784761Y-37210952D01*
X29689523Y-37234761D01*
X29522857Y-37234761D01*
X29427619Y-37210952D01*
X29380000Y-37163333D01*
X29356190Y-37115714D01*
X29356190Y-37020476D01*
X29380000Y-36972857D01*
X29427619Y-36925238D01*
X29522857Y-36901428D01*
X29689523Y-36901428D01*
X29784761Y-36925238D01*
X29832380Y-36972857D01*
X29856190Y-37020476D01*
X29856190Y-37115714D01*
X29522857Y-36472857D02*
X29856190Y-36472857D01*
X29332380Y-36591904D02*
X29689523Y-36710952D01*
X29689523Y-36401428D01*
G04 #@! TO.C,R1*
D11*
X33628571Y-43602380D02*
X33057142Y-43602380D01*
X33342857Y-43602380D02*
X33342857Y-42602380D01*
X33247619Y-42745238D01*
X33152380Y-42840476D01*
X33057142Y-42888095D01*
X34247619Y-42602380D02*
X34342857Y-42602380D01*
X34438095Y-42650000D01*
X34485714Y-42697619D01*
X34533333Y-42792857D01*
X34580952Y-42983333D01*
X34580952Y-43221428D01*
X34533333Y-43411904D01*
X34485714Y-43507142D01*
X34438095Y-43554761D01*
X34342857Y-43602380D01*
X34247619Y-43602380D01*
X34152380Y-43554761D01*
X34104761Y-43507142D01*
X34057142Y-43411904D01*
X34009523Y-43221428D01*
X34009523Y-42983333D01*
X34057142Y-42792857D01*
X34104761Y-42697619D01*
X34152380Y-42650000D01*
X34247619Y-42602380D01*
X35200000Y-42602380D02*
X35295238Y-42602380D01*
X35390476Y-42650000D01*
X35438095Y-42697619D01*
X35485714Y-42792857D01*
X35533333Y-42983333D01*
X35533333Y-43221428D01*
X35485714Y-43411904D01*
X35438095Y-43507142D01*
X35390476Y-43554761D01*
X35295238Y-43602380D01*
X35200000Y-43602380D01*
X35104761Y-43554761D01*
X35057142Y-43507142D01*
X35009523Y-43411904D01*
X34961904Y-43221428D01*
X34961904Y-42983333D01*
X35009523Y-42792857D01*
X35057142Y-42697619D01*
X35104761Y-42650000D01*
X35200000Y-42602380D01*
X35961904Y-43602380D02*
X35961904Y-42602380D01*
X36057142Y-43221428D02*
X36342857Y-43602380D01*
X36342857Y-42935714D02*
X35961904Y-43316666D01*
D12*
X34616666Y-45026190D02*
X34450000Y-44788095D01*
X34330952Y-45026190D02*
X34330952Y-44526190D01*
X34521428Y-44526190D01*
X34569047Y-44550000D01*
X34592857Y-44573809D01*
X34616666Y-44621428D01*
X34616666Y-44692857D01*
X34592857Y-44740476D01*
X34569047Y-44764285D01*
X34521428Y-44788095D01*
X34330952Y-44788095D01*
X35092857Y-45026190D02*
X34807142Y-45026190D01*
X34950000Y-45026190D02*
X34950000Y-44526190D01*
X34902380Y-44597619D01*
X34854761Y-44645238D01*
X34807142Y-44669047D01*
G04 #@! TO.C,R3*
D11*
X33638571Y-41262380D02*
X33067142Y-41262380D01*
X33352857Y-41262380D02*
X33352857Y-40262380D01*
X33257619Y-40405238D01*
X33162380Y-40500476D01*
X33067142Y-40548095D01*
X34257619Y-40262380D02*
X34352857Y-40262380D01*
X34448095Y-40310000D01*
X34495714Y-40357619D01*
X34543333Y-40452857D01*
X34590952Y-40643333D01*
X34590952Y-40881428D01*
X34543333Y-41071904D01*
X34495714Y-41167142D01*
X34448095Y-41214761D01*
X34352857Y-41262380D01*
X34257619Y-41262380D01*
X34162380Y-41214761D01*
X34114761Y-41167142D01*
X34067142Y-41071904D01*
X34019523Y-40881428D01*
X34019523Y-40643333D01*
X34067142Y-40452857D01*
X34114761Y-40357619D01*
X34162380Y-40310000D01*
X34257619Y-40262380D01*
X35210000Y-40262380D02*
X35305238Y-40262380D01*
X35400476Y-40310000D01*
X35448095Y-40357619D01*
X35495714Y-40452857D01*
X35543333Y-40643333D01*
X35543333Y-40881428D01*
X35495714Y-41071904D01*
X35448095Y-41167142D01*
X35400476Y-41214761D01*
X35305238Y-41262380D01*
X35210000Y-41262380D01*
X35114761Y-41214761D01*
X35067142Y-41167142D01*
X35019523Y-41071904D01*
X34971904Y-40881428D01*
X34971904Y-40643333D01*
X35019523Y-40452857D01*
X35067142Y-40357619D01*
X35114761Y-40310000D01*
X35210000Y-40262380D01*
X35971904Y-41262380D02*
X35971904Y-40262380D01*
X36067142Y-40881428D02*
X36352857Y-41262380D01*
X36352857Y-40595714D02*
X35971904Y-40976666D01*
D12*
X34626666Y-42686190D02*
X34460000Y-42448095D01*
X34340952Y-42686190D02*
X34340952Y-42186190D01*
X34531428Y-42186190D01*
X34579047Y-42210000D01*
X34602857Y-42233809D01*
X34626666Y-42281428D01*
X34626666Y-42352857D01*
X34602857Y-42400476D01*
X34579047Y-42424285D01*
X34531428Y-42448095D01*
X34340952Y-42448095D01*
X34793333Y-42186190D02*
X35102857Y-42186190D01*
X34936190Y-42376666D01*
X35007619Y-42376666D01*
X35055238Y-42400476D01*
X35079047Y-42424285D01*
X35102857Y-42471904D01*
X35102857Y-42590952D01*
X35079047Y-42638571D01*
X35055238Y-42662380D01*
X35007619Y-42686190D01*
X34864761Y-42686190D01*
X34817142Y-42662380D01*
X34793333Y-42638571D01*
G04 #@! TO.C,R4*
D11*
X33638571Y-38902380D02*
X33067142Y-38902380D01*
X33352857Y-38902380D02*
X33352857Y-37902380D01*
X33257619Y-38045238D01*
X33162380Y-38140476D01*
X33067142Y-38188095D01*
X34257619Y-37902380D02*
X34352857Y-37902380D01*
X34448095Y-37950000D01*
X34495714Y-37997619D01*
X34543333Y-38092857D01*
X34590952Y-38283333D01*
X34590952Y-38521428D01*
X34543333Y-38711904D01*
X34495714Y-38807142D01*
X34448095Y-38854761D01*
X34352857Y-38902380D01*
X34257619Y-38902380D01*
X34162380Y-38854761D01*
X34114761Y-38807142D01*
X34067142Y-38711904D01*
X34019523Y-38521428D01*
X34019523Y-38283333D01*
X34067142Y-38092857D01*
X34114761Y-37997619D01*
X34162380Y-37950000D01*
X34257619Y-37902380D01*
X35210000Y-37902380D02*
X35305238Y-37902380D01*
X35400476Y-37950000D01*
X35448095Y-37997619D01*
X35495714Y-38092857D01*
X35543333Y-38283333D01*
X35543333Y-38521428D01*
X35495714Y-38711904D01*
X35448095Y-38807142D01*
X35400476Y-38854761D01*
X35305238Y-38902380D01*
X35210000Y-38902380D01*
X35114761Y-38854761D01*
X35067142Y-38807142D01*
X35019523Y-38711904D01*
X34971904Y-38521428D01*
X34971904Y-38283333D01*
X35019523Y-38092857D01*
X35067142Y-37997619D01*
X35114761Y-37950000D01*
X35210000Y-37902380D01*
X35971904Y-38902380D02*
X35971904Y-37902380D01*
X36067142Y-38521428D02*
X36352857Y-38902380D01*
X36352857Y-38235714D02*
X35971904Y-38616666D01*
D12*
X34626666Y-40326190D02*
X34460000Y-40088095D01*
X34340952Y-40326190D02*
X34340952Y-39826190D01*
X34531428Y-39826190D01*
X34579047Y-39850000D01*
X34602857Y-39873809D01*
X34626666Y-39921428D01*
X34626666Y-39992857D01*
X34602857Y-40040476D01*
X34579047Y-40064285D01*
X34531428Y-40088095D01*
X34340952Y-40088095D01*
X35055238Y-39992857D02*
X35055238Y-40326190D01*
X34936190Y-39802380D02*
X34817142Y-40159523D01*
X35126666Y-40159523D01*
G04 #@! TO.C,R5*
D11*
X33638571Y-39462380D02*
X33067142Y-39462380D01*
X33352857Y-39462380D02*
X33352857Y-38462380D01*
X33257619Y-38605238D01*
X33162380Y-38700476D01*
X33067142Y-38748095D01*
X34257619Y-38462380D02*
X34352857Y-38462380D01*
X34448095Y-38510000D01*
X34495714Y-38557619D01*
X34543333Y-38652857D01*
X34590952Y-38843333D01*
X34590952Y-39081428D01*
X34543333Y-39271904D01*
X34495714Y-39367142D01*
X34448095Y-39414761D01*
X34352857Y-39462380D01*
X34257619Y-39462380D01*
X34162380Y-39414761D01*
X34114761Y-39367142D01*
X34067142Y-39271904D01*
X34019523Y-39081428D01*
X34019523Y-38843333D01*
X34067142Y-38652857D01*
X34114761Y-38557619D01*
X34162380Y-38510000D01*
X34257619Y-38462380D01*
X35210000Y-38462380D02*
X35305238Y-38462380D01*
X35400476Y-38510000D01*
X35448095Y-38557619D01*
X35495714Y-38652857D01*
X35543333Y-38843333D01*
X35543333Y-39081428D01*
X35495714Y-39271904D01*
X35448095Y-39367142D01*
X35400476Y-39414761D01*
X35305238Y-39462380D01*
X35210000Y-39462380D01*
X35114761Y-39414761D01*
X35067142Y-39367142D01*
X35019523Y-39271904D01*
X34971904Y-39081428D01*
X34971904Y-38843333D01*
X35019523Y-38652857D01*
X35067142Y-38557619D01*
X35114761Y-38510000D01*
X35210000Y-38462380D01*
X35971904Y-39462380D02*
X35971904Y-38462380D01*
X36067142Y-39081428D02*
X36352857Y-39462380D01*
X36352857Y-38795714D02*
X35971904Y-39176666D01*
D12*
X34626666Y-37966190D02*
X34460000Y-37728095D01*
X34340952Y-37966190D02*
X34340952Y-37466190D01*
X34531428Y-37466190D01*
X34579047Y-37490000D01*
X34602857Y-37513809D01*
X34626666Y-37561428D01*
X34626666Y-37632857D01*
X34602857Y-37680476D01*
X34579047Y-37704285D01*
X34531428Y-37728095D01*
X34340952Y-37728095D01*
X35079047Y-37466190D02*
X34840952Y-37466190D01*
X34817142Y-37704285D01*
X34840952Y-37680476D01*
X34888571Y-37656666D01*
X35007619Y-37656666D01*
X35055238Y-37680476D01*
X35079047Y-37704285D01*
X35102857Y-37751904D01*
X35102857Y-37870952D01*
X35079047Y-37918571D01*
X35055238Y-37942380D01*
X35007619Y-37966190D01*
X34888571Y-37966190D01*
X34840952Y-37942380D01*
X34817142Y-37918571D01*
G04 #@! TO.C,RL1*
D11*
X23081904Y-49897619D02*
X23129523Y-49850000D01*
X23224761Y-49802380D01*
X23462857Y-49802380D01*
X23558095Y-49850000D01*
X23605714Y-49897619D01*
X23653333Y-49992857D01*
X23653333Y-50088095D01*
X23605714Y-50230952D01*
X23034285Y-50802380D01*
X23653333Y-50802380D01*
X23986666Y-49802380D02*
X24605714Y-49802380D01*
X24272380Y-50183333D01*
X24415238Y-50183333D01*
X24510476Y-50230952D01*
X24558095Y-50278571D01*
X24605714Y-50373809D01*
X24605714Y-50611904D01*
X24558095Y-50707142D01*
X24510476Y-50754761D01*
X24415238Y-50802380D01*
X24129523Y-50802380D01*
X24034285Y-50754761D01*
X23986666Y-50707142D01*
X24986666Y-49897619D02*
X25034285Y-49850000D01*
X25129523Y-49802380D01*
X25367619Y-49802380D01*
X25462857Y-49850000D01*
X25510476Y-49897619D01*
X25558095Y-49992857D01*
X25558095Y-50088095D01*
X25510476Y-50230952D01*
X24939047Y-50802380D01*
X25558095Y-50802380D01*
D12*
X24034285Y-52226190D02*
X23867619Y-51988095D01*
X23748571Y-52226190D02*
X23748571Y-51726190D01*
X23939047Y-51726190D01*
X23986666Y-51750000D01*
X24010476Y-51773809D01*
X24034285Y-51821428D01*
X24034285Y-51892857D01*
X24010476Y-51940476D01*
X23986666Y-51964285D01*
X23939047Y-51988095D01*
X23748571Y-51988095D01*
X24486666Y-52226190D02*
X24248571Y-52226190D01*
X24248571Y-51726190D01*
X24915238Y-52226190D02*
X24629523Y-52226190D01*
X24772380Y-52226190D02*
X24772380Y-51726190D01*
X24724761Y-51797619D01*
X24677142Y-51845238D01*
X24629523Y-51869047D01*
G04 #@! TO.C,RL2*
D11*
X23081904Y-47597619D02*
X23129523Y-47550000D01*
X23224761Y-47502380D01*
X23462857Y-47502380D01*
X23558095Y-47550000D01*
X23605714Y-47597619D01*
X23653333Y-47692857D01*
X23653333Y-47788095D01*
X23605714Y-47930952D01*
X23034285Y-48502380D01*
X23653333Y-48502380D01*
X23986666Y-47502380D02*
X24605714Y-47502380D01*
X24272380Y-47883333D01*
X24415238Y-47883333D01*
X24510476Y-47930952D01*
X24558095Y-47978571D01*
X24605714Y-48073809D01*
X24605714Y-48311904D01*
X24558095Y-48407142D01*
X24510476Y-48454761D01*
X24415238Y-48502380D01*
X24129523Y-48502380D01*
X24034285Y-48454761D01*
X23986666Y-48407142D01*
X24986666Y-47597619D02*
X25034285Y-47550000D01*
X25129523Y-47502380D01*
X25367619Y-47502380D01*
X25462857Y-47550000D01*
X25510476Y-47597619D01*
X25558095Y-47692857D01*
X25558095Y-47788095D01*
X25510476Y-47930952D01*
X24939047Y-48502380D01*
X25558095Y-48502380D01*
D12*
X24034285Y-49926190D02*
X23867619Y-49688095D01*
X23748571Y-49926190D02*
X23748571Y-49426190D01*
X23939047Y-49426190D01*
X23986666Y-49450000D01*
X24010476Y-49473809D01*
X24034285Y-49521428D01*
X24034285Y-49592857D01*
X24010476Y-49640476D01*
X23986666Y-49664285D01*
X23939047Y-49688095D01*
X23748571Y-49688095D01*
X24486666Y-49926190D02*
X24248571Y-49926190D01*
X24248571Y-49426190D01*
X24629523Y-49473809D02*
X24653333Y-49450000D01*
X24700952Y-49426190D01*
X24820000Y-49426190D01*
X24867619Y-49450000D01*
X24891428Y-49473809D01*
X24915238Y-49521428D01*
X24915238Y-49569047D01*
X24891428Y-49640476D01*
X24605714Y-49926190D01*
X24915238Y-49926190D01*
G04 #@! TO.C,RL3*
D11*
X23091904Y-45227619D02*
X23139523Y-45180000D01*
X23234761Y-45132380D01*
X23472857Y-45132380D01*
X23568095Y-45180000D01*
X23615714Y-45227619D01*
X23663333Y-45322857D01*
X23663333Y-45418095D01*
X23615714Y-45560952D01*
X23044285Y-46132380D01*
X23663333Y-46132380D01*
X23996666Y-45132380D02*
X24615714Y-45132380D01*
X24282380Y-45513333D01*
X24425238Y-45513333D01*
X24520476Y-45560952D01*
X24568095Y-45608571D01*
X24615714Y-45703809D01*
X24615714Y-45941904D01*
X24568095Y-46037142D01*
X24520476Y-46084761D01*
X24425238Y-46132380D01*
X24139523Y-46132380D01*
X24044285Y-46084761D01*
X23996666Y-46037142D01*
X24996666Y-45227619D02*
X25044285Y-45180000D01*
X25139523Y-45132380D01*
X25377619Y-45132380D01*
X25472857Y-45180000D01*
X25520476Y-45227619D01*
X25568095Y-45322857D01*
X25568095Y-45418095D01*
X25520476Y-45560952D01*
X24949047Y-46132380D01*
X25568095Y-46132380D01*
D12*
X24044285Y-47556190D02*
X23877619Y-47318095D01*
X23758571Y-47556190D02*
X23758571Y-47056190D01*
X23949047Y-47056190D01*
X23996666Y-47080000D01*
X24020476Y-47103809D01*
X24044285Y-47151428D01*
X24044285Y-47222857D01*
X24020476Y-47270476D01*
X23996666Y-47294285D01*
X23949047Y-47318095D01*
X23758571Y-47318095D01*
X24496666Y-47556190D02*
X24258571Y-47556190D01*
X24258571Y-47056190D01*
X24615714Y-47056190D02*
X24925238Y-47056190D01*
X24758571Y-47246666D01*
X24830000Y-47246666D01*
X24877619Y-47270476D01*
X24901428Y-47294285D01*
X24925238Y-47341904D01*
X24925238Y-47460952D01*
X24901428Y-47508571D01*
X24877619Y-47532380D01*
X24830000Y-47556190D01*
X24687142Y-47556190D01*
X24639523Y-47532380D01*
X24615714Y-47508571D01*
G04 #@! TO.C,R2*
D11*
X33995714Y-36102380D02*
X33519523Y-36102380D01*
X33471904Y-36578571D01*
X33519523Y-36530952D01*
X33614761Y-36483333D01*
X33852857Y-36483333D01*
X33948095Y-36530952D01*
X33995714Y-36578571D01*
X34043333Y-36673809D01*
X34043333Y-36911904D01*
X33995714Y-37007142D01*
X33948095Y-37054761D01*
X33852857Y-37102380D01*
X33614761Y-37102380D01*
X33519523Y-37054761D01*
X33471904Y-37007142D01*
X34900476Y-36102380D02*
X34710000Y-36102380D01*
X34614761Y-36150000D01*
X34567142Y-36197619D01*
X34471904Y-36340476D01*
X34424285Y-36530952D01*
X34424285Y-36911904D01*
X34471904Y-37007142D01*
X34519523Y-37054761D01*
X34614761Y-37102380D01*
X34805238Y-37102380D01*
X34900476Y-37054761D01*
X34948095Y-37007142D01*
X34995714Y-36911904D01*
X34995714Y-36673809D01*
X34948095Y-36578571D01*
X34900476Y-36530952D01*
X34805238Y-36483333D01*
X34614761Y-36483333D01*
X34519523Y-36530952D01*
X34471904Y-36578571D01*
X34424285Y-36673809D01*
X35614761Y-36102380D02*
X35710000Y-36102380D01*
X35805238Y-36150000D01*
X35852857Y-36197619D01*
X35900476Y-36292857D01*
X35948095Y-36483333D01*
X35948095Y-36721428D01*
X35900476Y-36911904D01*
X35852857Y-37007142D01*
X35805238Y-37054761D01*
X35710000Y-37102380D01*
X35614761Y-37102380D01*
X35519523Y-37054761D01*
X35471904Y-37007142D01*
X35424285Y-36911904D01*
X35376666Y-36721428D01*
X35376666Y-36483333D01*
X35424285Y-36292857D01*
X35471904Y-36197619D01*
X35519523Y-36150000D01*
X35614761Y-36102380D01*
D12*
X34626666Y-35606190D02*
X34460000Y-35368095D01*
X34340952Y-35606190D02*
X34340952Y-35106190D01*
X34531428Y-35106190D01*
X34579047Y-35130000D01*
X34602857Y-35153809D01*
X34626666Y-35201428D01*
X34626666Y-35272857D01*
X34602857Y-35320476D01*
X34579047Y-35344285D01*
X34531428Y-35368095D01*
X34340952Y-35368095D01*
X34817142Y-35153809D02*
X34840952Y-35130000D01*
X34888571Y-35106190D01*
X35007619Y-35106190D01*
X35055238Y-35130000D01*
X35079047Y-35153809D01*
X35102857Y-35201428D01*
X35102857Y-35249047D01*
X35079047Y-35320476D01*
X34793333Y-35606190D01*
X35102857Y-35606190D01*
G04 #@! TO.C,R9*
D11*
X22705714Y-28272380D02*
X23324761Y-28272380D01*
X22991428Y-28653333D01*
X23134285Y-28653333D01*
X23229523Y-28700952D01*
X23277142Y-28748571D01*
X23324761Y-28843809D01*
X23324761Y-29081904D01*
X23277142Y-29177142D01*
X23229523Y-29224761D01*
X23134285Y-29272380D01*
X22848571Y-29272380D01*
X22753333Y-29224761D01*
X22705714Y-29177142D01*
X23943809Y-28272380D02*
X24039047Y-28272380D01*
X24134285Y-28320000D01*
X24181904Y-28367619D01*
X24229523Y-28462857D01*
X24277142Y-28653333D01*
X24277142Y-28891428D01*
X24229523Y-29081904D01*
X24181904Y-29177142D01*
X24134285Y-29224761D01*
X24039047Y-29272380D01*
X23943809Y-29272380D01*
X23848571Y-29224761D01*
X23800952Y-29177142D01*
X23753333Y-29081904D01*
X23705714Y-28891428D01*
X23705714Y-28653333D01*
X23753333Y-28462857D01*
X23800952Y-28367619D01*
X23848571Y-28320000D01*
X23943809Y-28272380D01*
X24705714Y-29272380D02*
X24705714Y-28272380D01*
X24800952Y-28891428D02*
X25086666Y-29272380D01*
X25086666Y-28605714D02*
X24705714Y-28986666D01*
D14*
X23853333Y-27570952D02*
X23720000Y-27380476D01*
X23624761Y-27570952D02*
X23624761Y-27170952D01*
X23777142Y-27170952D01*
X23815238Y-27190000D01*
X23834285Y-27209047D01*
X23853333Y-27247142D01*
X23853333Y-27304285D01*
X23834285Y-27342380D01*
X23815238Y-27361428D01*
X23777142Y-27380476D01*
X23624761Y-27380476D01*
X24043809Y-27570952D02*
X24120000Y-27570952D01*
X24158095Y-27551904D01*
X24177142Y-27532857D01*
X24215238Y-27475714D01*
X24234285Y-27399523D01*
X24234285Y-27247142D01*
X24215238Y-27209047D01*
X24196190Y-27190000D01*
X24158095Y-27170952D01*
X24081904Y-27170952D01*
X24043809Y-27190000D01*
X24024761Y-27209047D01*
X24005714Y-27247142D01*
X24005714Y-27342380D01*
X24024761Y-27380476D01*
X24043809Y-27399523D01*
X24081904Y-27418571D01*
X24158095Y-27418571D01*
X24196190Y-27399523D01*
X24215238Y-27380476D01*
X24234285Y-27342380D01*
G04 #@! TO.C,R8*
D11*
X22705714Y-27302380D02*
X23324761Y-27302380D01*
X22991428Y-27683333D01*
X23134285Y-27683333D01*
X23229523Y-27730952D01*
X23277142Y-27778571D01*
X23324761Y-27873809D01*
X23324761Y-28111904D01*
X23277142Y-28207142D01*
X23229523Y-28254761D01*
X23134285Y-28302380D01*
X22848571Y-28302380D01*
X22753333Y-28254761D01*
X22705714Y-28207142D01*
X23943809Y-27302380D02*
X24039047Y-27302380D01*
X24134285Y-27350000D01*
X24181904Y-27397619D01*
X24229523Y-27492857D01*
X24277142Y-27683333D01*
X24277142Y-27921428D01*
X24229523Y-28111904D01*
X24181904Y-28207142D01*
X24134285Y-28254761D01*
X24039047Y-28302380D01*
X23943809Y-28302380D01*
X23848571Y-28254761D01*
X23800952Y-28207142D01*
X23753333Y-28111904D01*
X23705714Y-27921428D01*
X23705714Y-27683333D01*
X23753333Y-27492857D01*
X23800952Y-27397619D01*
X23848571Y-27350000D01*
X23943809Y-27302380D01*
X24705714Y-28302380D02*
X24705714Y-27302380D01*
X24800952Y-27921428D02*
X25086666Y-28302380D01*
X25086666Y-27635714D02*
X24705714Y-28016666D01*
D14*
X23853333Y-29460952D02*
X23720000Y-29270476D01*
X23624761Y-29460952D02*
X23624761Y-29060952D01*
X23777142Y-29060952D01*
X23815238Y-29080000D01*
X23834285Y-29099047D01*
X23853333Y-29137142D01*
X23853333Y-29194285D01*
X23834285Y-29232380D01*
X23815238Y-29251428D01*
X23777142Y-29270476D01*
X23624761Y-29270476D01*
X24081904Y-29232380D02*
X24043809Y-29213333D01*
X24024761Y-29194285D01*
X24005714Y-29156190D01*
X24005714Y-29137142D01*
X24024761Y-29099047D01*
X24043809Y-29080000D01*
X24081904Y-29060952D01*
X24158095Y-29060952D01*
X24196190Y-29080000D01*
X24215238Y-29099047D01*
X24234285Y-29137142D01*
X24234285Y-29156190D01*
X24215238Y-29194285D01*
X24196190Y-29213333D01*
X24158095Y-29232380D01*
X24081904Y-29232380D01*
X24043809Y-29251428D01*
X24024761Y-29270476D01*
X24005714Y-29308571D01*
X24005714Y-29384761D01*
X24024761Y-29422857D01*
X24043809Y-29441904D01*
X24081904Y-29460952D01*
X24158095Y-29460952D01*
X24196190Y-29441904D01*
X24215238Y-29422857D01*
X24234285Y-29384761D01*
X24234285Y-29308571D01*
X24215238Y-29270476D01*
X24196190Y-29251428D01*
X24158095Y-29232380D01*
G04 #@! TO.C,R7*
D11*
X22705714Y-29202380D02*
X23324761Y-29202380D01*
X22991428Y-29583333D01*
X23134285Y-29583333D01*
X23229523Y-29630952D01*
X23277142Y-29678571D01*
X23324761Y-29773809D01*
X23324761Y-30011904D01*
X23277142Y-30107142D01*
X23229523Y-30154761D01*
X23134285Y-30202380D01*
X22848571Y-30202380D01*
X22753333Y-30154761D01*
X22705714Y-30107142D01*
X23943809Y-29202380D02*
X24039047Y-29202380D01*
X24134285Y-29250000D01*
X24181904Y-29297619D01*
X24229523Y-29392857D01*
X24277142Y-29583333D01*
X24277142Y-29821428D01*
X24229523Y-30011904D01*
X24181904Y-30107142D01*
X24134285Y-30154761D01*
X24039047Y-30202380D01*
X23943809Y-30202380D01*
X23848571Y-30154761D01*
X23800952Y-30107142D01*
X23753333Y-30011904D01*
X23705714Y-29821428D01*
X23705714Y-29583333D01*
X23753333Y-29392857D01*
X23800952Y-29297619D01*
X23848571Y-29250000D01*
X23943809Y-29202380D01*
X24705714Y-30202380D02*
X24705714Y-29202380D01*
X24800952Y-29821428D02*
X25086666Y-30202380D01*
X25086666Y-29535714D02*
X24705714Y-29916666D01*
D14*
X23853333Y-31360952D02*
X23720000Y-31170476D01*
X23624761Y-31360952D02*
X23624761Y-30960952D01*
X23777142Y-30960952D01*
X23815238Y-30980000D01*
X23834285Y-30999047D01*
X23853333Y-31037142D01*
X23853333Y-31094285D01*
X23834285Y-31132380D01*
X23815238Y-31151428D01*
X23777142Y-31170476D01*
X23624761Y-31170476D01*
X23986666Y-30960952D02*
X24253333Y-30960952D01*
X24081904Y-31360952D01*
G04 #@! TO.C,R10*
D11*
X23790952Y-35442380D02*
X23219523Y-35442380D01*
X23505238Y-35442380D02*
X23505238Y-34442380D01*
X23410000Y-34585238D01*
X23314761Y-34680476D01*
X23219523Y-34728095D01*
X24219523Y-35442380D02*
X24219523Y-34442380D01*
X24314761Y-35061428D02*
X24600476Y-35442380D01*
X24600476Y-34775714D02*
X24219523Y-35156666D01*
D12*
X23588571Y-33566190D02*
X23421904Y-33328095D01*
X23302857Y-33566190D02*
X23302857Y-33066190D01*
X23493333Y-33066190D01*
X23540952Y-33090000D01*
X23564761Y-33113809D01*
X23588571Y-33161428D01*
X23588571Y-33232857D01*
X23564761Y-33280476D01*
X23540952Y-33304285D01*
X23493333Y-33328095D01*
X23302857Y-33328095D01*
X24064761Y-33566190D02*
X23779047Y-33566190D01*
X23921904Y-33566190D02*
X23921904Y-33066190D01*
X23874285Y-33137619D01*
X23826666Y-33185238D01*
X23779047Y-33209047D01*
X24374285Y-33066190D02*
X24421904Y-33066190D01*
X24469523Y-33090000D01*
X24493333Y-33113809D01*
X24517142Y-33161428D01*
X24540952Y-33256666D01*
X24540952Y-33375714D01*
X24517142Y-33470952D01*
X24493333Y-33518571D01*
X24469523Y-33542380D01*
X24421904Y-33566190D01*
X24374285Y-33566190D01*
X24326666Y-33542380D01*
X24302857Y-33518571D01*
X24279047Y-33470952D01*
X24255238Y-33375714D01*
X24255238Y-33256666D01*
X24279047Y-33161428D01*
X24302857Y-33113809D01*
X24326666Y-33090000D01*
X24374285Y-33066190D01*
G04 #@! TO.C,Q5*
D11*
X27201428Y-29664761D02*
X27344285Y-29712380D01*
X27582380Y-29712380D01*
X27677619Y-29664761D01*
X27725238Y-29617142D01*
X27772857Y-29521904D01*
X27772857Y-29426666D01*
X27725238Y-29331428D01*
X27677619Y-29283809D01*
X27582380Y-29236190D01*
X27391904Y-29188571D01*
X27296666Y-29140952D01*
X27249047Y-29093333D01*
X27201428Y-28998095D01*
X27201428Y-28902857D01*
X27249047Y-28807619D01*
X27296666Y-28760000D01*
X27391904Y-28712380D01*
X27630000Y-28712380D01*
X27772857Y-28760000D01*
X28201428Y-29712380D02*
X28201428Y-28712380D01*
X28630000Y-28807619D02*
X28677619Y-28760000D01*
X28772857Y-28712380D01*
X29010952Y-28712380D01*
X29106190Y-28760000D01*
X29153809Y-28807619D01*
X29201428Y-28902857D01*
X29201428Y-28998095D01*
X29153809Y-29140952D01*
X28582380Y-29712380D01*
X29201428Y-29712380D01*
X29534761Y-28712380D02*
X30153809Y-28712380D01*
X29820476Y-29093333D01*
X29963333Y-29093333D01*
X30058571Y-29140952D01*
X30106190Y-29188571D01*
X30153809Y-29283809D01*
X30153809Y-29521904D01*
X30106190Y-29617142D01*
X30058571Y-29664761D01*
X29963333Y-29712380D01*
X29677619Y-29712380D01*
X29582380Y-29664761D01*
X29534761Y-29617142D01*
X30772857Y-28712380D02*
X30868095Y-28712380D01*
X30963333Y-28760000D01*
X31010952Y-28807619D01*
X31058571Y-28902857D01*
X31106190Y-29093333D01*
X31106190Y-29331428D01*
X31058571Y-29521904D01*
X31010952Y-29617142D01*
X30963333Y-29664761D01*
X30868095Y-29712380D01*
X30772857Y-29712380D01*
X30677619Y-29664761D01*
X30630000Y-29617142D01*
X30582380Y-29521904D01*
X30534761Y-29331428D01*
X30534761Y-29093333D01*
X30582380Y-28902857D01*
X30630000Y-28807619D01*
X30677619Y-28760000D01*
X30772857Y-28712380D01*
X31487142Y-28807619D02*
X31534761Y-28760000D01*
X31630000Y-28712380D01*
X31868095Y-28712380D01*
X31963333Y-28760000D01*
X32010952Y-28807619D01*
X32058571Y-28902857D01*
X32058571Y-28998095D01*
X32010952Y-29140952D01*
X31439523Y-29712380D01*
X32058571Y-29712380D01*
D13*
X29903809Y-31807619D02*
X29880000Y-31855238D01*
X29832380Y-31902857D01*
X29760952Y-31974285D01*
X29737142Y-32021904D01*
X29737142Y-32069523D01*
X29856190Y-32045714D02*
X29832380Y-32093333D01*
X29784761Y-32140952D01*
X29689523Y-32164761D01*
X29522857Y-32164761D01*
X29427619Y-32140952D01*
X29380000Y-32093333D01*
X29356190Y-32045714D01*
X29356190Y-31950476D01*
X29380000Y-31902857D01*
X29427619Y-31855238D01*
X29522857Y-31831428D01*
X29689523Y-31831428D01*
X29784761Y-31855238D01*
X29832380Y-31902857D01*
X29856190Y-31950476D01*
X29856190Y-32045714D01*
X29356190Y-31379047D02*
X29356190Y-31617142D01*
X29594285Y-31640952D01*
X29570476Y-31617142D01*
X29546666Y-31569523D01*
X29546666Y-31450476D01*
X29570476Y-31402857D01*
X29594285Y-31379047D01*
X29641904Y-31355238D01*
X29760952Y-31355238D01*
X29808571Y-31379047D01*
X29832380Y-31402857D01*
X29856190Y-31450476D01*
X29856190Y-31569523D01*
X29832380Y-31617142D01*
X29808571Y-31640952D01*
G04 #@! TD*
M02*
