G04 #@! TF.GenerationSoftware,KiCad,Pcbnew,(5.0.2)-1*
G04 #@! TF.CreationDate,2019-06-21T14:02:06+05:30*
G04 #@! TF.ProjectId,CapacityOfBattery,43617061-6369-4747-994f-664261747465,rev?*
G04 #@! TF.SameCoordinates,Original*
G04 #@! TF.FileFunction,Other,User*
%FSLAX46Y46*%
G04 Gerber Fmt 4.6, Leading zero omitted, Abs format (unit mm)*
G04 Created by KiCad (PCBNEW (5.0.2)-1) date 06/21/19 14:02:06*
%MOMM*%
%LPD*%
G01*
G04 APERTURE LIST*
%ADD10C,0.050000*%
G04 APERTURE END LIST*
D10*
G04 #@! TO.C,*
X19240000Y-15240000D02*
G75*
G03X19240000Y-15240000I-3100000J0D01*
G01*
X44640000Y-15240000D02*
G75*
G03X44640000Y-15240000I-3100000J0D01*
G01*
X19240000Y-67310000D02*
G75*
G03X19240000Y-67310000I-3100000J0D01*
G01*
X44640000Y-67310000D02*
G75*
G03X44640000Y-67310000I-3100000J0D01*
G01*
G04 #@! TO.C,RL4*
X22480000Y-44010000D02*
X26180000Y-44010000D01*
X22480000Y-45910000D02*
X22480000Y-44010000D01*
X26180000Y-45910000D02*
X22480000Y-45910000D01*
X26180000Y-44010000D02*
X26180000Y-45910000D01*
G04 #@! TO.C,RL5*
X26170000Y-41640000D02*
X26170000Y-43540000D01*
X26170000Y-43540000D02*
X22470000Y-43540000D01*
X22470000Y-43540000D02*
X22470000Y-41640000D01*
X22470000Y-41640000D02*
X26170000Y-41640000D01*
G04 #@! TO.C,Q3*
X31050000Y-43660000D02*
X27650000Y-43660000D01*
X27650000Y-43660000D02*
X27650000Y-40160000D01*
X27650000Y-40160000D02*
X31050000Y-40160000D01*
X31050000Y-40160000D02*
X31050000Y-43660000D01*
G04 #@! TO.C,R6*
X36560000Y-32070000D02*
X36560000Y-33970000D01*
X36560000Y-33970000D02*
X32860000Y-33970000D01*
X32860000Y-33970000D02*
X32860000Y-32070000D01*
X32860000Y-32070000D02*
X36560000Y-32070000D01*
G04 #@! TO.C,J2*
X36880000Y-17880000D02*
X36880000Y-21480000D01*
X43030000Y-17880000D02*
X36880000Y-17880000D01*
X43030000Y-21480000D02*
X43030000Y-17880000D01*
X36880000Y-21480000D02*
X43030000Y-21480000D01*
G04 #@! TO.C,J1*
X28950000Y-21450000D02*
X35100000Y-21450000D01*
X35100000Y-21450000D02*
X35100000Y-17850000D01*
X35100000Y-17850000D02*
X28950000Y-17850000D01*
X28950000Y-17850000D02*
X28950000Y-21450000D01*
G04 #@! TO.C,Q1*
X31050000Y-53820000D02*
X27650000Y-53820000D01*
X27650000Y-53820000D02*
X27650000Y-50320000D01*
X27650000Y-50320000D02*
X31050000Y-50320000D01*
X31050000Y-50320000D02*
X31050000Y-53820000D01*
G04 #@! TO.C,Q2*
X31050000Y-45240000D02*
X31050000Y-48740000D01*
X27650000Y-45240000D02*
X31050000Y-45240000D01*
X27650000Y-48740000D02*
X27650000Y-45240000D01*
X31050000Y-48740000D02*
X27650000Y-48740000D01*
G04 #@! TO.C,Q4*
X31330000Y-35080000D02*
X31330000Y-38580000D01*
X27930000Y-35080000D02*
X31330000Y-35080000D01*
X27930000Y-38580000D02*
X27930000Y-35080000D01*
X31330000Y-38580000D02*
X27930000Y-38580000D01*
G04 #@! TO.C,R1*
X36550000Y-43850000D02*
X36550000Y-45750000D01*
X36550000Y-45750000D02*
X32850000Y-45750000D01*
X32850000Y-45750000D02*
X32850000Y-43850000D01*
X32850000Y-43850000D02*
X36550000Y-43850000D01*
G04 #@! TO.C,R3*
X32860000Y-41510000D02*
X36560000Y-41510000D01*
X32860000Y-43410000D02*
X32860000Y-41510000D01*
X36560000Y-43410000D02*
X32860000Y-43410000D01*
X36560000Y-41510000D02*
X36560000Y-43410000D01*
G04 #@! TO.C,R4*
X36560000Y-39150000D02*
X36560000Y-41050000D01*
X36560000Y-41050000D02*
X32860000Y-41050000D01*
X32860000Y-41050000D02*
X32860000Y-39150000D01*
X32860000Y-39150000D02*
X36560000Y-39150000D01*
G04 #@! TO.C,R5*
X32860000Y-36790000D02*
X36560000Y-36790000D01*
X32860000Y-38690000D02*
X32860000Y-36790000D01*
X36560000Y-38690000D02*
X32860000Y-38690000D01*
X36560000Y-36790000D02*
X36560000Y-38690000D01*
G04 #@! TO.C,RL1*
X26170000Y-51050000D02*
X26170000Y-52950000D01*
X26170000Y-52950000D02*
X22470000Y-52950000D01*
X22470000Y-52950000D02*
X22470000Y-51050000D01*
X22470000Y-51050000D02*
X26170000Y-51050000D01*
G04 #@! TO.C,RL2*
X22470000Y-48750000D02*
X26170000Y-48750000D01*
X22470000Y-50650000D02*
X22470000Y-48750000D01*
X26170000Y-50650000D02*
X22470000Y-50650000D01*
X26170000Y-48750000D02*
X26170000Y-50650000D01*
G04 #@! TO.C,RL3*
X26180000Y-46380000D02*
X26180000Y-48280000D01*
X26180000Y-48280000D02*
X22480000Y-48280000D01*
X22480000Y-48280000D02*
X22480000Y-46380000D01*
X22480000Y-46380000D02*
X26180000Y-46380000D01*
G04 #@! TO.C,R2*
X36560000Y-34430000D02*
X36560000Y-36330000D01*
X36560000Y-36330000D02*
X32860000Y-36330000D01*
X32860000Y-36330000D02*
X32860000Y-34430000D01*
X32860000Y-34430000D02*
X36560000Y-34430000D01*
G04 #@! TO.C,R9*
X25570000Y-28120000D02*
X22270000Y-28120000D01*
X25570000Y-26660000D02*
X25570000Y-28120000D01*
X22270000Y-26660000D02*
X25570000Y-26660000D01*
X22270000Y-28120000D02*
X22270000Y-26660000D01*
G04 #@! TO.C,R8*
X22270000Y-28550000D02*
X25570000Y-28550000D01*
X22270000Y-30010000D02*
X22270000Y-28550000D01*
X25570000Y-30010000D02*
X22270000Y-30010000D01*
X25570000Y-28550000D02*
X25570000Y-30010000D01*
G04 #@! TO.C,R7*
X22270000Y-30450000D02*
X25570000Y-30450000D01*
X22270000Y-31910000D02*
X22270000Y-30450000D01*
X25570000Y-31910000D02*
X22270000Y-31910000D01*
X25570000Y-30450000D02*
X25570000Y-31910000D01*
G04 #@! TO.C,R10*
X25760000Y-34290000D02*
X22060000Y-34290000D01*
X25760000Y-32390000D02*
X25760000Y-34290000D01*
X22060000Y-32390000D02*
X25760000Y-32390000D01*
X22060000Y-34290000D02*
X22060000Y-32390000D01*
G04 #@! TO.C,Q5*
X31330000Y-30010000D02*
X31330000Y-33510000D01*
X27930000Y-30010000D02*
X31330000Y-30010000D01*
X27930000Y-33510000D02*
X27930000Y-30010000D01*
X31330000Y-33510000D02*
X27930000Y-33510000D01*
G04 #@! TD*
M02*
