G04 #@! TF.GenerationSoftware,KiCad,Pcbnew,(5.0.2)-1*
G04 #@! TF.CreationDate,2019-06-21T14:31:00+05:30*
G04 #@! TF.ProjectId,CapacityOfBattery,43617061-6369-4747-994f-664261747465,rev?*
G04 #@! TF.SameCoordinates,Original*
G04 #@! TF.FileFunction,Paste,Bot*
G04 #@! TF.FilePolarity,Positive*
%FSLAX46Y46*%
G04 Gerber Fmt 4.6, Leading zero omitted, Abs format (unit mm)*
G04 Created by KiCad (PCBNEW (5.0.2)-1) date 06/21/19 14:31:00*
%MOMM*%
%LPD*%
G01*
G04 APERTURE LIST*
%ADD10C,0.100000*%
%ADD11C,1.150000*%
G04 APERTURE END LIST*
D10*
G04 #@! TO.C,D2*
G36*
X40734505Y-26352204D02*
X40758773Y-26355804D01*
X40782572Y-26361765D01*
X40805671Y-26370030D01*
X40827850Y-26380520D01*
X40848893Y-26393132D01*
X40868599Y-26407747D01*
X40886777Y-26424223D01*
X40903253Y-26442401D01*
X40917868Y-26462107D01*
X40930480Y-26483150D01*
X40940970Y-26505329D01*
X40949235Y-26528428D01*
X40955196Y-26552227D01*
X40958796Y-26576495D01*
X40960000Y-26600999D01*
X40960000Y-27501001D01*
X40958796Y-27525505D01*
X40955196Y-27549773D01*
X40949235Y-27573572D01*
X40940970Y-27596671D01*
X40930480Y-27618850D01*
X40917868Y-27639893D01*
X40903253Y-27659599D01*
X40886777Y-27677777D01*
X40868599Y-27694253D01*
X40848893Y-27708868D01*
X40827850Y-27721480D01*
X40805671Y-27731970D01*
X40782572Y-27740235D01*
X40758773Y-27746196D01*
X40734505Y-27749796D01*
X40710001Y-27751000D01*
X40059999Y-27751000D01*
X40035495Y-27749796D01*
X40011227Y-27746196D01*
X39987428Y-27740235D01*
X39964329Y-27731970D01*
X39942150Y-27721480D01*
X39921107Y-27708868D01*
X39901401Y-27694253D01*
X39883223Y-27677777D01*
X39866747Y-27659599D01*
X39852132Y-27639893D01*
X39839520Y-27618850D01*
X39829030Y-27596671D01*
X39820765Y-27573572D01*
X39814804Y-27549773D01*
X39811204Y-27525505D01*
X39810000Y-27501001D01*
X39810000Y-26600999D01*
X39811204Y-26576495D01*
X39814804Y-26552227D01*
X39820765Y-26528428D01*
X39829030Y-26505329D01*
X39839520Y-26483150D01*
X39852132Y-26462107D01*
X39866747Y-26442401D01*
X39883223Y-26424223D01*
X39901401Y-26407747D01*
X39921107Y-26393132D01*
X39942150Y-26380520D01*
X39964329Y-26370030D01*
X39987428Y-26361765D01*
X40011227Y-26355804D01*
X40035495Y-26352204D01*
X40059999Y-26351000D01*
X40710001Y-26351000D01*
X40734505Y-26352204D01*
X40734505Y-26352204D01*
G37*
D11*
X40385000Y-27051000D03*
D10*
G36*
X38684505Y-26352204D02*
X38708773Y-26355804D01*
X38732572Y-26361765D01*
X38755671Y-26370030D01*
X38777850Y-26380520D01*
X38798893Y-26393132D01*
X38818599Y-26407747D01*
X38836777Y-26424223D01*
X38853253Y-26442401D01*
X38867868Y-26462107D01*
X38880480Y-26483150D01*
X38890970Y-26505329D01*
X38899235Y-26528428D01*
X38905196Y-26552227D01*
X38908796Y-26576495D01*
X38910000Y-26600999D01*
X38910000Y-27501001D01*
X38908796Y-27525505D01*
X38905196Y-27549773D01*
X38899235Y-27573572D01*
X38890970Y-27596671D01*
X38880480Y-27618850D01*
X38867868Y-27639893D01*
X38853253Y-27659599D01*
X38836777Y-27677777D01*
X38818599Y-27694253D01*
X38798893Y-27708868D01*
X38777850Y-27721480D01*
X38755671Y-27731970D01*
X38732572Y-27740235D01*
X38708773Y-27746196D01*
X38684505Y-27749796D01*
X38660001Y-27751000D01*
X38009999Y-27751000D01*
X37985495Y-27749796D01*
X37961227Y-27746196D01*
X37937428Y-27740235D01*
X37914329Y-27731970D01*
X37892150Y-27721480D01*
X37871107Y-27708868D01*
X37851401Y-27694253D01*
X37833223Y-27677777D01*
X37816747Y-27659599D01*
X37802132Y-27639893D01*
X37789520Y-27618850D01*
X37779030Y-27596671D01*
X37770765Y-27573572D01*
X37764804Y-27549773D01*
X37761204Y-27525505D01*
X37760000Y-27501001D01*
X37760000Y-26600999D01*
X37761204Y-26576495D01*
X37764804Y-26552227D01*
X37770765Y-26528428D01*
X37779030Y-26505329D01*
X37789520Y-26483150D01*
X37802132Y-26462107D01*
X37816747Y-26442401D01*
X37833223Y-26424223D01*
X37851401Y-26407747D01*
X37871107Y-26393132D01*
X37892150Y-26380520D01*
X37914329Y-26370030D01*
X37937428Y-26361765D01*
X37961227Y-26355804D01*
X37985495Y-26352204D01*
X38009999Y-26351000D01*
X38660001Y-26351000D01*
X38684505Y-26352204D01*
X38684505Y-26352204D01*
G37*
D11*
X38335000Y-27051000D03*
G04 #@! TD*
D10*
G04 #@! TO.C,D3*
G36*
X38684505Y-29283204D02*
X38708773Y-29286804D01*
X38732572Y-29292765D01*
X38755671Y-29301030D01*
X38777850Y-29311520D01*
X38798893Y-29324132D01*
X38818599Y-29338747D01*
X38836777Y-29355223D01*
X38853253Y-29373401D01*
X38867868Y-29393107D01*
X38880480Y-29414150D01*
X38890970Y-29436329D01*
X38899235Y-29459428D01*
X38905196Y-29483227D01*
X38908796Y-29507495D01*
X38910000Y-29531999D01*
X38910000Y-30432001D01*
X38908796Y-30456505D01*
X38905196Y-30480773D01*
X38899235Y-30504572D01*
X38890970Y-30527671D01*
X38880480Y-30549850D01*
X38867868Y-30570893D01*
X38853253Y-30590599D01*
X38836777Y-30608777D01*
X38818599Y-30625253D01*
X38798893Y-30639868D01*
X38777850Y-30652480D01*
X38755671Y-30662970D01*
X38732572Y-30671235D01*
X38708773Y-30677196D01*
X38684505Y-30680796D01*
X38660001Y-30682000D01*
X38009999Y-30682000D01*
X37985495Y-30680796D01*
X37961227Y-30677196D01*
X37937428Y-30671235D01*
X37914329Y-30662970D01*
X37892150Y-30652480D01*
X37871107Y-30639868D01*
X37851401Y-30625253D01*
X37833223Y-30608777D01*
X37816747Y-30590599D01*
X37802132Y-30570893D01*
X37789520Y-30549850D01*
X37779030Y-30527671D01*
X37770765Y-30504572D01*
X37764804Y-30480773D01*
X37761204Y-30456505D01*
X37760000Y-30432001D01*
X37760000Y-29531999D01*
X37761204Y-29507495D01*
X37764804Y-29483227D01*
X37770765Y-29459428D01*
X37779030Y-29436329D01*
X37789520Y-29414150D01*
X37802132Y-29393107D01*
X37816747Y-29373401D01*
X37833223Y-29355223D01*
X37851401Y-29338747D01*
X37871107Y-29324132D01*
X37892150Y-29311520D01*
X37914329Y-29301030D01*
X37937428Y-29292765D01*
X37961227Y-29286804D01*
X37985495Y-29283204D01*
X38009999Y-29282000D01*
X38660001Y-29282000D01*
X38684505Y-29283204D01*
X38684505Y-29283204D01*
G37*
D11*
X38335000Y-29982000D03*
D10*
G36*
X40734505Y-29283204D02*
X40758773Y-29286804D01*
X40782572Y-29292765D01*
X40805671Y-29301030D01*
X40827850Y-29311520D01*
X40848893Y-29324132D01*
X40868599Y-29338747D01*
X40886777Y-29355223D01*
X40903253Y-29373401D01*
X40917868Y-29393107D01*
X40930480Y-29414150D01*
X40940970Y-29436329D01*
X40949235Y-29459428D01*
X40955196Y-29483227D01*
X40958796Y-29507495D01*
X40960000Y-29531999D01*
X40960000Y-30432001D01*
X40958796Y-30456505D01*
X40955196Y-30480773D01*
X40949235Y-30504572D01*
X40940970Y-30527671D01*
X40930480Y-30549850D01*
X40917868Y-30570893D01*
X40903253Y-30590599D01*
X40886777Y-30608777D01*
X40868599Y-30625253D01*
X40848893Y-30639868D01*
X40827850Y-30652480D01*
X40805671Y-30662970D01*
X40782572Y-30671235D01*
X40758773Y-30677196D01*
X40734505Y-30680796D01*
X40710001Y-30682000D01*
X40059999Y-30682000D01*
X40035495Y-30680796D01*
X40011227Y-30677196D01*
X39987428Y-30671235D01*
X39964329Y-30662970D01*
X39942150Y-30652480D01*
X39921107Y-30639868D01*
X39901401Y-30625253D01*
X39883223Y-30608777D01*
X39866747Y-30590599D01*
X39852132Y-30570893D01*
X39839520Y-30549850D01*
X39829030Y-30527671D01*
X39820765Y-30504572D01*
X39814804Y-30480773D01*
X39811204Y-30456505D01*
X39810000Y-30432001D01*
X39810000Y-29531999D01*
X39811204Y-29507495D01*
X39814804Y-29483227D01*
X39820765Y-29459428D01*
X39829030Y-29436329D01*
X39839520Y-29414150D01*
X39852132Y-29393107D01*
X39866747Y-29373401D01*
X39883223Y-29355223D01*
X39901401Y-29338747D01*
X39921107Y-29324132D01*
X39942150Y-29311520D01*
X39964329Y-29301030D01*
X39987428Y-29292765D01*
X40011227Y-29286804D01*
X40035495Y-29283204D01*
X40059999Y-29282000D01*
X40710001Y-29282000D01*
X40734505Y-29283204D01*
X40734505Y-29283204D01*
G37*
D11*
X40385000Y-29982000D03*
G04 #@! TD*
D10*
G04 #@! TO.C,D4*
G36*
X40734505Y-32321204D02*
X40758773Y-32324804D01*
X40782572Y-32330765D01*
X40805671Y-32339030D01*
X40827850Y-32349520D01*
X40848893Y-32362132D01*
X40868599Y-32376747D01*
X40886777Y-32393223D01*
X40903253Y-32411401D01*
X40917868Y-32431107D01*
X40930480Y-32452150D01*
X40940970Y-32474329D01*
X40949235Y-32497428D01*
X40955196Y-32521227D01*
X40958796Y-32545495D01*
X40960000Y-32569999D01*
X40960000Y-33470001D01*
X40958796Y-33494505D01*
X40955196Y-33518773D01*
X40949235Y-33542572D01*
X40940970Y-33565671D01*
X40930480Y-33587850D01*
X40917868Y-33608893D01*
X40903253Y-33628599D01*
X40886777Y-33646777D01*
X40868599Y-33663253D01*
X40848893Y-33677868D01*
X40827850Y-33690480D01*
X40805671Y-33700970D01*
X40782572Y-33709235D01*
X40758773Y-33715196D01*
X40734505Y-33718796D01*
X40710001Y-33720000D01*
X40059999Y-33720000D01*
X40035495Y-33718796D01*
X40011227Y-33715196D01*
X39987428Y-33709235D01*
X39964329Y-33700970D01*
X39942150Y-33690480D01*
X39921107Y-33677868D01*
X39901401Y-33663253D01*
X39883223Y-33646777D01*
X39866747Y-33628599D01*
X39852132Y-33608893D01*
X39839520Y-33587850D01*
X39829030Y-33565671D01*
X39820765Y-33542572D01*
X39814804Y-33518773D01*
X39811204Y-33494505D01*
X39810000Y-33470001D01*
X39810000Y-32569999D01*
X39811204Y-32545495D01*
X39814804Y-32521227D01*
X39820765Y-32497428D01*
X39829030Y-32474329D01*
X39839520Y-32452150D01*
X39852132Y-32431107D01*
X39866747Y-32411401D01*
X39883223Y-32393223D01*
X39901401Y-32376747D01*
X39921107Y-32362132D01*
X39942150Y-32349520D01*
X39964329Y-32339030D01*
X39987428Y-32330765D01*
X40011227Y-32324804D01*
X40035495Y-32321204D01*
X40059999Y-32320000D01*
X40710001Y-32320000D01*
X40734505Y-32321204D01*
X40734505Y-32321204D01*
G37*
D11*
X40385000Y-33020000D03*
D10*
G36*
X38684505Y-32321204D02*
X38708773Y-32324804D01*
X38732572Y-32330765D01*
X38755671Y-32339030D01*
X38777850Y-32349520D01*
X38798893Y-32362132D01*
X38818599Y-32376747D01*
X38836777Y-32393223D01*
X38853253Y-32411401D01*
X38867868Y-32431107D01*
X38880480Y-32452150D01*
X38890970Y-32474329D01*
X38899235Y-32497428D01*
X38905196Y-32521227D01*
X38908796Y-32545495D01*
X38910000Y-32569999D01*
X38910000Y-33470001D01*
X38908796Y-33494505D01*
X38905196Y-33518773D01*
X38899235Y-33542572D01*
X38890970Y-33565671D01*
X38880480Y-33587850D01*
X38867868Y-33608893D01*
X38853253Y-33628599D01*
X38836777Y-33646777D01*
X38818599Y-33663253D01*
X38798893Y-33677868D01*
X38777850Y-33690480D01*
X38755671Y-33700970D01*
X38732572Y-33709235D01*
X38708773Y-33715196D01*
X38684505Y-33718796D01*
X38660001Y-33720000D01*
X38009999Y-33720000D01*
X37985495Y-33718796D01*
X37961227Y-33715196D01*
X37937428Y-33709235D01*
X37914329Y-33700970D01*
X37892150Y-33690480D01*
X37871107Y-33677868D01*
X37851401Y-33663253D01*
X37833223Y-33646777D01*
X37816747Y-33628599D01*
X37802132Y-33608893D01*
X37789520Y-33587850D01*
X37779030Y-33565671D01*
X37770765Y-33542572D01*
X37764804Y-33518773D01*
X37761204Y-33494505D01*
X37760000Y-33470001D01*
X37760000Y-32569999D01*
X37761204Y-32545495D01*
X37764804Y-32521227D01*
X37770765Y-32497428D01*
X37779030Y-32474329D01*
X37789520Y-32452150D01*
X37802132Y-32431107D01*
X37816747Y-32411401D01*
X37833223Y-32393223D01*
X37851401Y-32376747D01*
X37871107Y-32362132D01*
X37892150Y-32349520D01*
X37914329Y-32339030D01*
X37937428Y-32330765D01*
X37961227Y-32324804D01*
X37985495Y-32321204D01*
X38009999Y-32320000D01*
X38660001Y-32320000D01*
X38684505Y-32321204D01*
X38684505Y-32321204D01*
G37*
D11*
X38335000Y-33020000D03*
G04 #@! TD*
D10*
G04 #@! TO.C,D1*
G36*
X40734505Y-23431204D02*
X40758773Y-23434804D01*
X40782572Y-23440765D01*
X40805671Y-23449030D01*
X40827850Y-23459520D01*
X40848893Y-23472132D01*
X40868599Y-23486747D01*
X40886777Y-23503223D01*
X40903253Y-23521401D01*
X40917868Y-23541107D01*
X40930480Y-23562150D01*
X40940970Y-23584329D01*
X40949235Y-23607428D01*
X40955196Y-23631227D01*
X40958796Y-23655495D01*
X40960000Y-23679999D01*
X40960000Y-24580001D01*
X40958796Y-24604505D01*
X40955196Y-24628773D01*
X40949235Y-24652572D01*
X40940970Y-24675671D01*
X40930480Y-24697850D01*
X40917868Y-24718893D01*
X40903253Y-24738599D01*
X40886777Y-24756777D01*
X40868599Y-24773253D01*
X40848893Y-24787868D01*
X40827850Y-24800480D01*
X40805671Y-24810970D01*
X40782572Y-24819235D01*
X40758773Y-24825196D01*
X40734505Y-24828796D01*
X40710001Y-24830000D01*
X40059999Y-24830000D01*
X40035495Y-24828796D01*
X40011227Y-24825196D01*
X39987428Y-24819235D01*
X39964329Y-24810970D01*
X39942150Y-24800480D01*
X39921107Y-24787868D01*
X39901401Y-24773253D01*
X39883223Y-24756777D01*
X39866747Y-24738599D01*
X39852132Y-24718893D01*
X39839520Y-24697850D01*
X39829030Y-24675671D01*
X39820765Y-24652572D01*
X39814804Y-24628773D01*
X39811204Y-24604505D01*
X39810000Y-24580001D01*
X39810000Y-23679999D01*
X39811204Y-23655495D01*
X39814804Y-23631227D01*
X39820765Y-23607428D01*
X39829030Y-23584329D01*
X39839520Y-23562150D01*
X39852132Y-23541107D01*
X39866747Y-23521401D01*
X39883223Y-23503223D01*
X39901401Y-23486747D01*
X39921107Y-23472132D01*
X39942150Y-23459520D01*
X39964329Y-23449030D01*
X39987428Y-23440765D01*
X40011227Y-23434804D01*
X40035495Y-23431204D01*
X40059999Y-23430000D01*
X40710001Y-23430000D01*
X40734505Y-23431204D01*
X40734505Y-23431204D01*
G37*
D11*
X40385000Y-24130000D03*
D10*
G36*
X38684505Y-23431204D02*
X38708773Y-23434804D01*
X38732572Y-23440765D01*
X38755671Y-23449030D01*
X38777850Y-23459520D01*
X38798893Y-23472132D01*
X38818599Y-23486747D01*
X38836777Y-23503223D01*
X38853253Y-23521401D01*
X38867868Y-23541107D01*
X38880480Y-23562150D01*
X38890970Y-23584329D01*
X38899235Y-23607428D01*
X38905196Y-23631227D01*
X38908796Y-23655495D01*
X38910000Y-23679999D01*
X38910000Y-24580001D01*
X38908796Y-24604505D01*
X38905196Y-24628773D01*
X38899235Y-24652572D01*
X38890970Y-24675671D01*
X38880480Y-24697850D01*
X38867868Y-24718893D01*
X38853253Y-24738599D01*
X38836777Y-24756777D01*
X38818599Y-24773253D01*
X38798893Y-24787868D01*
X38777850Y-24800480D01*
X38755671Y-24810970D01*
X38732572Y-24819235D01*
X38708773Y-24825196D01*
X38684505Y-24828796D01*
X38660001Y-24830000D01*
X38009999Y-24830000D01*
X37985495Y-24828796D01*
X37961227Y-24825196D01*
X37937428Y-24819235D01*
X37914329Y-24810970D01*
X37892150Y-24800480D01*
X37871107Y-24787868D01*
X37851401Y-24773253D01*
X37833223Y-24756777D01*
X37816747Y-24738599D01*
X37802132Y-24718893D01*
X37789520Y-24697850D01*
X37779030Y-24675671D01*
X37770765Y-24652572D01*
X37764804Y-24628773D01*
X37761204Y-24604505D01*
X37760000Y-24580001D01*
X37760000Y-23679999D01*
X37761204Y-23655495D01*
X37764804Y-23631227D01*
X37770765Y-23607428D01*
X37779030Y-23584329D01*
X37789520Y-23562150D01*
X37802132Y-23541107D01*
X37816747Y-23521401D01*
X37833223Y-23503223D01*
X37851401Y-23486747D01*
X37871107Y-23472132D01*
X37892150Y-23459520D01*
X37914329Y-23449030D01*
X37937428Y-23440765D01*
X37961227Y-23434804D01*
X37985495Y-23431204D01*
X38009999Y-23430000D01*
X38660001Y-23430000D01*
X38684505Y-23431204D01*
X38684505Y-23431204D01*
G37*
D11*
X38335000Y-24130000D03*
G04 #@! TD*
M02*
