G04 #@! TF.GenerationSoftware,KiCad,Pcbnew,(5.0.2)-1*
G04 #@! TF.CreationDate,2019-06-21T14:31:00+05:30*
G04 #@! TF.ProjectId,CapacityOfBattery,43617061-6369-4747-994f-664261747465,rev?*
G04 #@! TF.SameCoordinates,Original*
G04 #@! TF.FileFunction,Soldermask,Bot*
G04 #@! TF.FilePolarity,Negative*
%FSLAX46Y46*%
G04 Gerber Fmt 4.6, Leading zero omitted, Abs format (unit mm)*
G04 Created by KiCad (PCBNEW (5.0.2)-1) date 06/21/19 14:31:00*
%MOMM*%
%LPD*%
G01*
G04 APERTURE LIST*
%ADD10C,0.100000*%
G04 APERTURE END LIST*
D10*
G36*
X42006703Y-65771486D02*
X42297883Y-65892097D01*
X42559944Y-66067201D01*
X42782799Y-66290056D01*
X42957903Y-66552117D01*
X43078514Y-66843297D01*
X43140000Y-67152412D01*
X43140000Y-67467588D01*
X43078514Y-67776703D01*
X42957903Y-68067883D01*
X42782799Y-68329944D01*
X42559944Y-68552799D01*
X42297883Y-68727903D01*
X42006703Y-68848514D01*
X41697588Y-68910000D01*
X41382412Y-68910000D01*
X41073297Y-68848514D01*
X40782117Y-68727903D01*
X40520056Y-68552799D01*
X40297201Y-68329944D01*
X40122097Y-68067883D01*
X40001486Y-67776703D01*
X39940000Y-67467588D01*
X39940000Y-67152412D01*
X40001486Y-66843297D01*
X40122097Y-66552117D01*
X40297201Y-66290056D01*
X40520056Y-66067201D01*
X40782117Y-65892097D01*
X41073297Y-65771486D01*
X41382412Y-65710000D01*
X41697588Y-65710000D01*
X42006703Y-65771486D01*
X42006703Y-65771486D01*
G37*
G36*
X16606703Y-65771486D02*
X16897883Y-65892097D01*
X17159944Y-66067201D01*
X17382799Y-66290056D01*
X17557903Y-66552117D01*
X17678514Y-66843297D01*
X17740000Y-67152412D01*
X17740000Y-67467588D01*
X17678514Y-67776703D01*
X17557903Y-68067883D01*
X17382799Y-68329944D01*
X17159944Y-68552799D01*
X16897883Y-68727903D01*
X16606703Y-68848514D01*
X16297588Y-68910000D01*
X15982412Y-68910000D01*
X15673297Y-68848514D01*
X15382117Y-68727903D01*
X15120056Y-68552799D01*
X14897201Y-68329944D01*
X14722097Y-68067883D01*
X14601486Y-67776703D01*
X14540000Y-67467588D01*
X14540000Y-67152412D01*
X14601486Y-66843297D01*
X14722097Y-66552117D01*
X14897201Y-66290056D01*
X15120056Y-66067201D01*
X15382117Y-65892097D01*
X15673297Y-65771486D01*
X15982412Y-65710000D01*
X16297588Y-65710000D01*
X16606703Y-65771486D01*
X16606703Y-65771486D01*
G37*
G36*
X42983195Y-57677522D02*
X43032267Y-57687283D01*
X43170942Y-57744724D01*
X43295750Y-57828118D01*
X43401882Y-57934250D01*
X43485276Y-58059058D01*
X43542717Y-58197734D01*
X43572000Y-58344948D01*
X43572000Y-58495052D01*
X43542717Y-58642266D01*
X43485276Y-58780942D01*
X43401882Y-58905750D01*
X43295750Y-59011882D01*
X43295747Y-59011884D01*
X43170942Y-59095276D01*
X43032267Y-59152717D01*
X42983195Y-59162478D01*
X42885052Y-59182000D01*
X42734948Y-59182000D01*
X42636805Y-59162478D01*
X42587733Y-59152717D01*
X42449058Y-59095276D01*
X42324253Y-59011884D01*
X42324250Y-59011882D01*
X42218118Y-58905750D01*
X42134724Y-58780942D01*
X42077283Y-58642266D01*
X42048000Y-58495052D01*
X42048000Y-58344948D01*
X42077283Y-58197734D01*
X42134724Y-58059058D01*
X42218118Y-57934250D01*
X42324250Y-57828118D01*
X42449058Y-57744724D01*
X42587733Y-57687283D01*
X42636805Y-57677522D01*
X42734948Y-57658000D01*
X42885052Y-57658000D01*
X42983195Y-57677522D01*
X42983195Y-57677522D01*
G37*
G36*
X15043195Y-57677522D02*
X15092267Y-57687283D01*
X15230942Y-57744724D01*
X15355750Y-57828118D01*
X15461882Y-57934250D01*
X15545276Y-58059058D01*
X15602717Y-58197734D01*
X15632000Y-58344948D01*
X15632000Y-58495052D01*
X15602717Y-58642266D01*
X15545276Y-58780942D01*
X15461882Y-58905750D01*
X15355750Y-59011882D01*
X15355747Y-59011884D01*
X15230942Y-59095276D01*
X15092267Y-59152717D01*
X15043195Y-59162478D01*
X14945052Y-59182000D01*
X14794948Y-59182000D01*
X14696805Y-59162478D01*
X14647733Y-59152717D01*
X14509058Y-59095276D01*
X14384253Y-59011884D01*
X14384250Y-59011882D01*
X14278118Y-58905750D01*
X14194724Y-58780942D01*
X14137283Y-58642266D01*
X14108000Y-58495052D01*
X14108000Y-58344948D01*
X14137283Y-58197734D01*
X14194724Y-58059058D01*
X14278118Y-57934250D01*
X14384250Y-57828118D01*
X14509058Y-57744724D01*
X14647733Y-57687283D01*
X14696805Y-57677522D01*
X14794948Y-57658000D01*
X14945052Y-57658000D01*
X15043195Y-57677522D01*
X15043195Y-57677522D01*
G37*
G36*
X42983195Y-55137522D02*
X43032267Y-55147283D01*
X43170942Y-55204724D01*
X43295750Y-55288118D01*
X43401882Y-55394250D01*
X43485276Y-55519058D01*
X43542717Y-55657734D01*
X43572000Y-55804948D01*
X43572000Y-55955052D01*
X43542717Y-56102266D01*
X43485276Y-56240942D01*
X43401882Y-56365750D01*
X43295750Y-56471882D01*
X43295747Y-56471884D01*
X43170942Y-56555276D01*
X43032267Y-56612717D01*
X42983195Y-56622478D01*
X42885052Y-56642000D01*
X42734948Y-56642000D01*
X42636805Y-56622478D01*
X42587733Y-56612717D01*
X42449058Y-56555276D01*
X42324253Y-56471884D01*
X42324250Y-56471882D01*
X42218118Y-56365750D01*
X42134724Y-56240942D01*
X42077283Y-56102266D01*
X42048000Y-55955052D01*
X42048000Y-55804948D01*
X42077283Y-55657734D01*
X42134724Y-55519058D01*
X42218118Y-55394250D01*
X42324250Y-55288118D01*
X42449058Y-55204724D01*
X42587733Y-55147283D01*
X42636805Y-55137522D01*
X42734948Y-55118000D01*
X42885052Y-55118000D01*
X42983195Y-55137522D01*
X42983195Y-55137522D01*
G37*
G36*
X15043195Y-55137522D02*
X15092267Y-55147283D01*
X15230942Y-55204724D01*
X15355750Y-55288118D01*
X15461882Y-55394250D01*
X15545276Y-55519058D01*
X15602717Y-55657734D01*
X15632000Y-55804948D01*
X15632000Y-55955052D01*
X15602717Y-56102266D01*
X15545276Y-56240942D01*
X15461882Y-56365750D01*
X15355750Y-56471882D01*
X15355747Y-56471884D01*
X15230942Y-56555276D01*
X15092267Y-56612717D01*
X15043195Y-56622478D01*
X14945052Y-56642000D01*
X14794948Y-56642000D01*
X14696805Y-56622478D01*
X14647733Y-56612717D01*
X14509058Y-56555276D01*
X14384253Y-56471884D01*
X14384250Y-56471882D01*
X14278118Y-56365750D01*
X14194724Y-56240942D01*
X14137283Y-56102266D01*
X14108000Y-55955052D01*
X14108000Y-55804948D01*
X14137283Y-55657734D01*
X14194724Y-55519058D01*
X14278118Y-55394250D01*
X14384250Y-55288118D01*
X14509058Y-55204724D01*
X14647733Y-55147283D01*
X14696805Y-55137522D01*
X14794948Y-55118000D01*
X14945052Y-55118000D01*
X15043195Y-55137522D01*
X15043195Y-55137522D01*
G37*
G36*
X42983195Y-52597522D02*
X43032267Y-52607283D01*
X43170942Y-52664724D01*
X43295750Y-52748118D01*
X43401882Y-52854250D01*
X43485276Y-52979058D01*
X43542717Y-53117734D01*
X43572000Y-53264948D01*
X43572000Y-53415052D01*
X43542717Y-53562266D01*
X43485276Y-53700942D01*
X43401882Y-53825750D01*
X43295750Y-53931882D01*
X43295747Y-53931884D01*
X43170942Y-54015276D01*
X43032267Y-54072717D01*
X42983195Y-54082478D01*
X42885052Y-54102000D01*
X42734948Y-54102000D01*
X42636805Y-54082478D01*
X42587733Y-54072717D01*
X42449058Y-54015276D01*
X42324253Y-53931884D01*
X42324250Y-53931882D01*
X42218118Y-53825750D01*
X42134724Y-53700942D01*
X42077283Y-53562266D01*
X42048000Y-53415052D01*
X42048000Y-53264948D01*
X42077283Y-53117734D01*
X42134724Y-52979058D01*
X42218118Y-52854250D01*
X42324250Y-52748118D01*
X42449058Y-52664724D01*
X42587733Y-52607283D01*
X42636805Y-52597522D01*
X42734948Y-52578000D01*
X42885052Y-52578000D01*
X42983195Y-52597522D01*
X42983195Y-52597522D01*
G37*
G36*
X15043195Y-52597522D02*
X15092267Y-52607283D01*
X15230942Y-52664724D01*
X15355750Y-52748118D01*
X15461882Y-52854250D01*
X15545276Y-52979058D01*
X15602717Y-53117734D01*
X15632000Y-53264948D01*
X15632000Y-53415052D01*
X15602717Y-53562266D01*
X15545276Y-53700942D01*
X15461882Y-53825750D01*
X15355750Y-53931882D01*
X15355747Y-53931884D01*
X15230942Y-54015276D01*
X15092267Y-54072717D01*
X15043195Y-54082478D01*
X14945052Y-54102000D01*
X14794948Y-54102000D01*
X14696805Y-54082478D01*
X14647733Y-54072717D01*
X14509058Y-54015276D01*
X14384253Y-53931884D01*
X14384250Y-53931882D01*
X14278118Y-53825750D01*
X14194724Y-53700942D01*
X14137283Y-53562266D01*
X14108000Y-53415052D01*
X14108000Y-53264948D01*
X14137283Y-53117734D01*
X14194724Y-52979058D01*
X14278118Y-52854250D01*
X14384250Y-52748118D01*
X14509058Y-52664724D01*
X14647733Y-52607283D01*
X14696805Y-52597522D01*
X14794948Y-52578000D01*
X14945052Y-52578000D01*
X15043195Y-52597522D01*
X15043195Y-52597522D01*
G37*
G36*
X15043195Y-50057522D02*
X15092267Y-50067283D01*
X15230942Y-50124724D01*
X15355750Y-50208118D01*
X15461882Y-50314250D01*
X15545276Y-50439058D01*
X15602717Y-50577734D01*
X15632000Y-50724948D01*
X15632000Y-50875052D01*
X15602717Y-51022266D01*
X15545276Y-51160942D01*
X15461882Y-51285750D01*
X15355750Y-51391882D01*
X15355747Y-51391884D01*
X15230942Y-51475276D01*
X15092267Y-51532717D01*
X15043195Y-51542478D01*
X14945052Y-51562000D01*
X14794948Y-51562000D01*
X14696805Y-51542478D01*
X14647733Y-51532717D01*
X14509058Y-51475276D01*
X14384253Y-51391884D01*
X14384250Y-51391882D01*
X14278118Y-51285750D01*
X14194724Y-51160942D01*
X14137283Y-51022266D01*
X14108000Y-50875052D01*
X14108000Y-50724948D01*
X14137283Y-50577734D01*
X14194724Y-50439058D01*
X14278118Y-50314250D01*
X14384250Y-50208118D01*
X14509058Y-50124724D01*
X14647733Y-50067283D01*
X14696805Y-50057522D01*
X14794948Y-50038000D01*
X14945052Y-50038000D01*
X15043195Y-50057522D01*
X15043195Y-50057522D01*
G37*
G36*
X42983195Y-50057522D02*
X43032267Y-50067283D01*
X43170942Y-50124724D01*
X43295750Y-50208118D01*
X43401882Y-50314250D01*
X43485276Y-50439058D01*
X43542717Y-50577734D01*
X43572000Y-50724948D01*
X43572000Y-50875052D01*
X43542717Y-51022266D01*
X43485276Y-51160942D01*
X43401882Y-51285750D01*
X43295750Y-51391882D01*
X43295747Y-51391884D01*
X43170942Y-51475276D01*
X43032267Y-51532717D01*
X42983195Y-51542478D01*
X42885052Y-51562000D01*
X42734948Y-51562000D01*
X42636805Y-51542478D01*
X42587733Y-51532717D01*
X42449058Y-51475276D01*
X42324253Y-51391884D01*
X42324250Y-51391882D01*
X42218118Y-51285750D01*
X42134724Y-51160942D01*
X42077283Y-51022266D01*
X42048000Y-50875052D01*
X42048000Y-50724948D01*
X42077283Y-50577734D01*
X42134724Y-50439058D01*
X42218118Y-50314250D01*
X42324250Y-50208118D01*
X42449058Y-50124724D01*
X42587733Y-50067283D01*
X42636805Y-50057522D01*
X42734948Y-50038000D01*
X42885052Y-50038000D01*
X42983195Y-50057522D01*
X42983195Y-50057522D01*
G37*
G36*
X42983195Y-47517522D02*
X43032267Y-47527283D01*
X43170942Y-47584724D01*
X43295750Y-47668118D01*
X43401882Y-47774250D01*
X43485276Y-47899058D01*
X43542717Y-48037734D01*
X43572000Y-48184948D01*
X43572000Y-48335052D01*
X43542717Y-48482266D01*
X43485276Y-48620942D01*
X43401882Y-48745750D01*
X43295750Y-48851882D01*
X43295747Y-48851884D01*
X43170942Y-48935276D01*
X43032267Y-48992717D01*
X42983195Y-49002478D01*
X42885052Y-49022000D01*
X42734948Y-49022000D01*
X42636805Y-49002478D01*
X42587733Y-48992717D01*
X42449058Y-48935276D01*
X42324253Y-48851884D01*
X42324250Y-48851882D01*
X42218118Y-48745750D01*
X42134724Y-48620942D01*
X42077283Y-48482266D01*
X42048000Y-48335052D01*
X42048000Y-48184948D01*
X42077283Y-48037734D01*
X42134724Y-47899058D01*
X42218118Y-47774250D01*
X42324250Y-47668118D01*
X42449058Y-47584724D01*
X42587733Y-47527283D01*
X42636805Y-47517522D01*
X42734948Y-47498000D01*
X42885052Y-47498000D01*
X42983195Y-47517522D01*
X42983195Y-47517522D01*
G37*
G36*
X15043195Y-47517522D02*
X15092267Y-47527283D01*
X15230942Y-47584724D01*
X15355750Y-47668118D01*
X15461882Y-47774250D01*
X15545276Y-47899058D01*
X15602717Y-48037734D01*
X15632000Y-48184948D01*
X15632000Y-48335052D01*
X15602717Y-48482266D01*
X15545276Y-48620942D01*
X15461882Y-48745750D01*
X15355750Y-48851882D01*
X15355747Y-48851884D01*
X15230942Y-48935276D01*
X15092267Y-48992717D01*
X15043195Y-49002478D01*
X14945052Y-49022000D01*
X14794948Y-49022000D01*
X14696805Y-49002478D01*
X14647733Y-48992717D01*
X14509058Y-48935276D01*
X14384253Y-48851884D01*
X14384250Y-48851882D01*
X14278118Y-48745750D01*
X14194724Y-48620942D01*
X14137283Y-48482266D01*
X14108000Y-48335052D01*
X14108000Y-48184948D01*
X14137283Y-48037734D01*
X14194724Y-47899058D01*
X14278118Y-47774250D01*
X14384250Y-47668118D01*
X14509058Y-47584724D01*
X14647733Y-47527283D01*
X14696805Y-47517522D01*
X14794948Y-47498000D01*
X14945052Y-47498000D01*
X15043195Y-47517522D01*
X15043195Y-47517522D01*
G37*
G36*
X15043195Y-44977522D02*
X15092267Y-44987283D01*
X15230942Y-45044724D01*
X15355750Y-45128118D01*
X15461882Y-45234250D01*
X15545276Y-45359058D01*
X15602717Y-45497734D01*
X15632000Y-45644948D01*
X15632000Y-45795052D01*
X15602717Y-45942266D01*
X15545276Y-46080942D01*
X15461882Y-46205750D01*
X15355750Y-46311882D01*
X15355747Y-46311884D01*
X15230942Y-46395276D01*
X15092267Y-46452717D01*
X15043195Y-46462478D01*
X14945052Y-46482000D01*
X14794948Y-46482000D01*
X14696805Y-46462478D01*
X14647733Y-46452717D01*
X14509058Y-46395276D01*
X14384253Y-46311884D01*
X14384250Y-46311882D01*
X14278118Y-46205750D01*
X14194724Y-46080942D01*
X14137283Y-45942266D01*
X14108000Y-45795052D01*
X14108000Y-45644948D01*
X14137283Y-45497734D01*
X14194724Y-45359058D01*
X14278118Y-45234250D01*
X14384250Y-45128118D01*
X14509058Y-45044724D01*
X14647733Y-44987283D01*
X14696805Y-44977522D01*
X14794948Y-44958000D01*
X14945052Y-44958000D01*
X15043195Y-44977522D01*
X15043195Y-44977522D01*
G37*
G36*
X42983195Y-44977522D02*
X43032267Y-44987283D01*
X43170942Y-45044724D01*
X43295750Y-45128118D01*
X43401882Y-45234250D01*
X43485276Y-45359058D01*
X43542717Y-45497734D01*
X43572000Y-45644948D01*
X43572000Y-45795052D01*
X43542717Y-45942266D01*
X43485276Y-46080942D01*
X43401882Y-46205750D01*
X43295750Y-46311882D01*
X43295747Y-46311884D01*
X43170942Y-46395276D01*
X43032267Y-46452717D01*
X42983195Y-46462478D01*
X42885052Y-46482000D01*
X42734948Y-46482000D01*
X42636805Y-46462478D01*
X42587733Y-46452717D01*
X42449058Y-46395276D01*
X42324253Y-46311884D01*
X42324250Y-46311882D01*
X42218118Y-46205750D01*
X42134724Y-46080942D01*
X42077283Y-45942266D01*
X42048000Y-45795052D01*
X42048000Y-45644948D01*
X42077283Y-45497734D01*
X42134724Y-45359058D01*
X42218118Y-45234250D01*
X42324250Y-45128118D01*
X42449058Y-45044724D01*
X42587733Y-44987283D01*
X42636805Y-44977522D01*
X42734948Y-44958000D01*
X42885052Y-44958000D01*
X42983195Y-44977522D01*
X42983195Y-44977522D01*
G37*
G36*
X42983195Y-42437522D02*
X43032267Y-42447283D01*
X43170942Y-42504724D01*
X43295750Y-42588118D01*
X43401882Y-42694250D01*
X43485276Y-42819058D01*
X43542717Y-42957734D01*
X43572000Y-43104948D01*
X43572000Y-43255052D01*
X43542717Y-43402266D01*
X43485276Y-43540942D01*
X43401882Y-43665750D01*
X43295750Y-43771882D01*
X43295747Y-43771884D01*
X43170942Y-43855276D01*
X43032267Y-43912717D01*
X42983195Y-43922478D01*
X42885052Y-43942000D01*
X42734948Y-43942000D01*
X42636805Y-43922478D01*
X42587733Y-43912717D01*
X42449058Y-43855276D01*
X42324253Y-43771884D01*
X42324250Y-43771882D01*
X42218118Y-43665750D01*
X42134724Y-43540942D01*
X42077283Y-43402266D01*
X42048000Y-43255052D01*
X42048000Y-43104948D01*
X42077283Y-42957734D01*
X42134724Y-42819058D01*
X42218118Y-42694250D01*
X42324250Y-42588118D01*
X42449058Y-42504724D01*
X42587733Y-42447283D01*
X42636805Y-42437522D01*
X42734948Y-42418000D01*
X42885052Y-42418000D01*
X42983195Y-42437522D01*
X42983195Y-42437522D01*
G37*
G36*
X15043195Y-42437522D02*
X15092267Y-42447283D01*
X15230942Y-42504724D01*
X15355750Y-42588118D01*
X15461882Y-42694250D01*
X15545276Y-42819058D01*
X15602717Y-42957734D01*
X15632000Y-43104948D01*
X15632000Y-43255052D01*
X15602717Y-43402266D01*
X15545276Y-43540942D01*
X15461882Y-43665750D01*
X15355750Y-43771882D01*
X15355747Y-43771884D01*
X15230942Y-43855276D01*
X15092267Y-43912717D01*
X15043195Y-43922478D01*
X14945052Y-43942000D01*
X14794948Y-43942000D01*
X14696805Y-43922478D01*
X14647733Y-43912717D01*
X14509058Y-43855276D01*
X14384253Y-43771884D01*
X14384250Y-43771882D01*
X14278118Y-43665750D01*
X14194724Y-43540942D01*
X14137283Y-43402266D01*
X14108000Y-43255052D01*
X14108000Y-43104948D01*
X14137283Y-42957734D01*
X14194724Y-42819058D01*
X14278118Y-42694250D01*
X14384250Y-42588118D01*
X14509058Y-42504724D01*
X14647733Y-42447283D01*
X14696805Y-42437522D01*
X14794948Y-42418000D01*
X14945052Y-42418000D01*
X15043195Y-42437522D01*
X15043195Y-42437522D01*
G37*
G36*
X42983195Y-39897522D02*
X43032267Y-39907283D01*
X43170942Y-39964724D01*
X43295750Y-40048118D01*
X43401882Y-40154250D01*
X43485276Y-40279058D01*
X43542717Y-40417734D01*
X43572000Y-40564948D01*
X43572000Y-40715052D01*
X43542717Y-40862266D01*
X43485276Y-41000942D01*
X43401882Y-41125750D01*
X43295750Y-41231882D01*
X43295747Y-41231884D01*
X43170942Y-41315276D01*
X43032267Y-41372717D01*
X42983195Y-41382478D01*
X42885052Y-41402000D01*
X42734948Y-41402000D01*
X42636805Y-41382478D01*
X42587733Y-41372717D01*
X42449058Y-41315276D01*
X42324253Y-41231884D01*
X42324250Y-41231882D01*
X42218118Y-41125750D01*
X42134724Y-41000942D01*
X42077283Y-40862266D01*
X42048000Y-40715052D01*
X42048000Y-40564948D01*
X42077283Y-40417734D01*
X42134724Y-40279058D01*
X42218118Y-40154250D01*
X42324250Y-40048118D01*
X42449058Y-39964724D01*
X42587733Y-39907283D01*
X42636805Y-39897522D01*
X42734948Y-39878000D01*
X42885052Y-39878000D01*
X42983195Y-39897522D01*
X42983195Y-39897522D01*
G37*
G36*
X15043195Y-39897522D02*
X15092267Y-39907283D01*
X15230942Y-39964724D01*
X15355750Y-40048118D01*
X15461882Y-40154250D01*
X15545276Y-40279058D01*
X15602717Y-40417734D01*
X15632000Y-40564948D01*
X15632000Y-40715052D01*
X15602717Y-40862266D01*
X15545276Y-41000942D01*
X15461882Y-41125750D01*
X15355750Y-41231882D01*
X15355747Y-41231884D01*
X15230942Y-41315276D01*
X15092267Y-41372717D01*
X15043195Y-41382478D01*
X14945052Y-41402000D01*
X14794948Y-41402000D01*
X14696805Y-41382478D01*
X14647733Y-41372717D01*
X14509058Y-41315276D01*
X14384253Y-41231884D01*
X14384250Y-41231882D01*
X14278118Y-41125750D01*
X14194724Y-41000942D01*
X14137283Y-40862266D01*
X14108000Y-40715052D01*
X14108000Y-40564948D01*
X14137283Y-40417734D01*
X14194724Y-40279058D01*
X14278118Y-40154250D01*
X14384250Y-40048118D01*
X14509058Y-39964724D01*
X14647733Y-39907283D01*
X14696805Y-39897522D01*
X14794948Y-39878000D01*
X14945052Y-39878000D01*
X15043195Y-39897522D01*
X15043195Y-39897522D01*
G37*
G36*
X42983195Y-37357522D02*
X43032267Y-37367283D01*
X43170942Y-37424724D01*
X43295750Y-37508118D01*
X43401882Y-37614250D01*
X43485276Y-37739058D01*
X43542717Y-37877734D01*
X43572000Y-38024948D01*
X43572000Y-38175052D01*
X43542717Y-38322266D01*
X43485276Y-38460942D01*
X43401882Y-38585750D01*
X43295750Y-38691882D01*
X43295747Y-38691884D01*
X43170942Y-38775276D01*
X43032267Y-38832717D01*
X42983195Y-38842478D01*
X42885052Y-38862000D01*
X42734948Y-38862000D01*
X42636805Y-38842478D01*
X42587733Y-38832717D01*
X42449058Y-38775276D01*
X42324253Y-38691884D01*
X42324250Y-38691882D01*
X42218118Y-38585750D01*
X42134724Y-38460942D01*
X42077283Y-38322266D01*
X42048000Y-38175052D01*
X42048000Y-38024948D01*
X42077283Y-37877734D01*
X42134724Y-37739058D01*
X42218118Y-37614250D01*
X42324250Y-37508118D01*
X42449058Y-37424724D01*
X42587733Y-37367283D01*
X42636805Y-37357522D01*
X42734948Y-37338000D01*
X42885052Y-37338000D01*
X42983195Y-37357522D01*
X42983195Y-37357522D01*
G37*
G36*
X15043195Y-37357522D02*
X15092267Y-37367283D01*
X15230942Y-37424724D01*
X15355750Y-37508118D01*
X15461882Y-37614250D01*
X15545276Y-37739058D01*
X15602717Y-37877734D01*
X15632000Y-38024948D01*
X15632000Y-38175052D01*
X15602717Y-38322266D01*
X15545276Y-38460942D01*
X15461882Y-38585750D01*
X15355750Y-38691882D01*
X15355747Y-38691884D01*
X15230942Y-38775276D01*
X15092267Y-38832717D01*
X15043195Y-38842478D01*
X14945052Y-38862000D01*
X14794948Y-38862000D01*
X14696805Y-38842478D01*
X14647733Y-38832717D01*
X14509058Y-38775276D01*
X14384253Y-38691884D01*
X14384250Y-38691882D01*
X14278118Y-38585750D01*
X14194724Y-38460942D01*
X14137283Y-38322266D01*
X14108000Y-38175052D01*
X14108000Y-38024948D01*
X14137283Y-37877734D01*
X14194724Y-37739058D01*
X14278118Y-37614250D01*
X14384250Y-37508118D01*
X14509058Y-37424724D01*
X14647733Y-37367283D01*
X14696805Y-37357522D01*
X14794948Y-37338000D01*
X14945052Y-37338000D01*
X15043195Y-37357522D01*
X15043195Y-37357522D01*
G37*
G36*
X42983195Y-34817522D02*
X43032267Y-34827283D01*
X43170942Y-34884724D01*
X43295750Y-34968118D01*
X43401882Y-35074250D01*
X43485276Y-35199058D01*
X43542717Y-35337734D01*
X43572000Y-35484948D01*
X43572000Y-35635052D01*
X43542717Y-35782266D01*
X43485276Y-35920942D01*
X43401882Y-36045750D01*
X43295750Y-36151882D01*
X43295747Y-36151884D01*
X43170942Y-36235276D01*
X43032267Y-36292717D01*
X42983195Y-36302478D01*
X42885052Y-36322000D01*
X42734948Y-36322000D01*
X42636805Y-36302478D01*
X42587733Y-36292717D01*
X42449058Y-36235276D01*
X42324253Y-36151884D01*
X42324250Y-36151882D01*
X42218118Y-36045750D01*
X42134724Y-35920942D01*
X42077283Y-35782266D01*
X42048000Y-35635052D01*
X42048000Y-35484948D01*
X42077283Y-35337734D01*
X42134724Y-35199058D01*
X42218118Y-35074250D01*
X42324250Y-34968118D01*
X42449058Y-34884724D01*
X42587733Y-34827283D01*
X42636805Y-34817522D01*
X42734948Y-34798000D01*
X42885052Y-34798000D01*
X42983195Y-34817522D01*
X42983195Y-34817522D01*
G37*
G36*
X15043195Y-34817522D02*
X15092267Y-34827283D01*
X15230942Y-34884724D01*
X15355750Y-34968118D01*
X15461882Y-35074250D01*
X15545276Y-35199058D01*
X15602717Y-35337734D01*
X15632000Y-35484948D01*
X15632000Y-35635052D01*
X15602717Y-35782266D01*
X15545276Y-35920942D01*
X15461882Y-36045750D01*
X15355750Y-36151882D01*
X15355747Y-36151884D01*
X15230942Y-36235276D01*
X15092267Y-36292717D01*
X15043195Y-36302478D01*
X14945052Y-36322000D01*
X14794948Y-36322000D01*
X14696805Y-36302478D01*
X14647733Y-36292717D01*
X14509058Y-36235276D01*
X14384253Y-36151884D01*
X14384250Y-36151882D01*
X14278118Y-36045750D01*
X14194724Y-35920942D01*
X14137283Y-35782266D01*
X14108000Y-35635052D01*
X14108000Y-35484948D01*
X14137283Y-35337734D01*
X14194724Y-35199058D01*
X14278118Y-35074250D01*
X14384250Y-34968118D01*
X14509058Y-34884724D01*
X14647733Y-34827283D01*
X14696805Y-34817522D01*
X14794948Y-34798000D01*
X14945052Y-34798000D01*
X15043195Y-34817522D01*
X15043195Y-34817522D01*
G37*
G36*
X15043195Y-32277522D02*
X15092267Y-32287283D01*
X15205561Y-32334211D01*
X15230942Y-32344724D01*
X15355750Y-32428118D01*
X15461882Y-32534250D01*
X15545276Y-32659058D01*
X15602717Y-32797734D01*
X15632000Y-32944948D01*
X15632000Y-33095052D01*
X15602717Y-33242266D01*
X15545276Y-33380942D01*
X15461882Y-33505750D01*
X15355750Y-33611882D01*
X15355747Y-33611884D01*
X15230942Y-33695276D01*
X15092267Y-33752717D01*
X15043195Y-33762478D01*
X14945052Y-33782000D01*
X14794948Y-33782000D01*
X14696805Y-33762478D01*
X14647733Y-33752717D01*
X14509058Y-33695276D01*
X14384253Y-33611884D01*
X14384250Y-33611882D01*
X14278118Y-33505750D01*
X14194724Y-33380942D01*
X14137283Y-33242266D01*
X14108000Y-33095052D01*
X14108000Y-32944948D01*
X14137283Y-32797734D01*
X14194724Y-32659058D01*
X14278118Y-32534250D01*
X14384250Y-32428118D01*
X14509058Y-32344724D01*
X14534439Y-32334211D01*
X14647733Y-32287283D01*
X14696805Y-32277522D01*
X14794948Y-32258000D01*
X14945052Y-32258000D01*
X15043195Y-32277522D01*
X15043195Y-32277522D01*
G37*
G36*
X42983195Y-32277522D02*
X43032267Y-32287283D01*
X43145561Y-32334211D01*
X43170942Y-32344724D01*
X43295750Y-32428118D01*
X43401882Y-32534250D01*
X43485276Y-32659058D01*
X43542717Y-32797734D01*
X43572000Y-32944948D01*
X43572000Y-33095052D01*
X43542717Y-33242266D01*
X43485276Y-33380942D01*
X43401882Y-33505750D01*
X43295750Y-33611882D01*
X43295747Y-33611884D01*
X43170942Y-33695276D01*
X43032267Y-33752717D01*
X42983195Y-33762478D01*
X42885052Y-33782000D01*
X42734948Y-33782000D01*
X42636805Y-33762478D01*
X42587733Y-33752717D01*
X42449058Y-33695276D01*
X42324253Y-33611884D01*
X42324250Y-33611882D01*
X42218118Y-33505750D01*
X42134724Y-33380942D01*
X42077283Y-33242266D01*
X42048000Y-33095052D01*
X42048000Y-32944948D01*
X42077283Y-32797734D01*
X42134724Y-32659058D01*
X42218118Y-32534250D01*
X42324250Y-32428118D01*
X42449058Y-32344724D01*
X42474439Y-32334211D01*
X42587733Y-32287283D01*
X42636805Y-32277522D01*
X42734948Y-32258000D01*
X42885052Y-32258000D01*
X42983195Y-32277522D01*
X42983195Y-32277522D01*
G37*
G36*
X38765522Y-32324039D02*
X38799053Y-32334211D01*
X38829960Y-32350731D01*
X38857043Y-32372957D01*
X38879269Y-32400040D01*
X38895789Y-32430947D01*
X38905961Y-32464478D01*
X38910000Y-32505487D01*
X38910000Y-33534513D01*
X38905961Y-33575522D01*
X38895789Y-33609053D01*
X38879269Y-33639960D01*
X38857043Y-33667043D01*
X38829960Y-33689269D01*
X38799053Y-33705789D01*
X38765522Y-33715961D01*
X38724513Y-33720000D01*
X37945487Y-33720000D01*
X37904478Y-33715961D01*
X37870947Y-33705789D01*
X37840040Y-33689269D01*
X37812957Y-33667043D01*
X37790731Y-33639960D01*
X37774211Y-33609053D01*
X37764039Y-33575522D01*
X37760000Y-33534513D01*
X37760000Y-32505487D01*
X37764039Y-32464478D01*
X37774211Y-32430947D01*
X37790731Y-32400040D01*
X37812957Y-32372957D01*
X37840040Y-32350731D01*
X37870947Y-32334211D01*
X37904478Y-32324039D01*
X37945487Y-32320000D01*
X38724513Y-32320000D01*
X38765522Y-32324039D01*
X38765522Y-32324039D01*
G37*
G36*
X40815522Y-32324039D02*
X40849053Y-32334211D01*
X40879960Y-32350731D01*
X40907043Y-32372957D01*
X40929269Y-32400040D01*
X40945789Y-32430947D01*
X40955961Y-32464478D01*
X40960000Y-32505487D01*
X40960000Y-33534513D01*
X40955961Y-33575522D01*
X40945789Y-33609053D01*
X40929269Y-33639960D01*
X40907043Y-33667043D01*
X40879960Y-33689269D01*
X40849053Y-33705789D01*
X40815522Y-33715961D01*
X40774513Y-33720000D01*
X39995487Y-33720000D01*
X39954478Y-33715961D01*
X39920947Y-33705789D01*
X39890040Y-33689269D01*
X39862957Y-33667043D01*
X39840731Y-33639960D01*
X39824211Y-33609053D01*
X39814039Y-33575522D01*
X39810000Y-33534513D01*
X39810000Y-32505487D01*
X39814039Y-32464478D01*
X39824211Y-32430947D01*
X39840731Y-32400040D01*
X39862957Y-32372957D01*
X39890040Y-32350731D01*
X39920947Y-32334211D01*
X39954478Y-32324039D01*
X39995487Y-32320000D01*
X40774513Y-32320000D01*
X40815522Y-32324039D01*
X40815522Y-32324039D01*
G37*
G36*
X15043195Y-29737522D02*
X15092267Y-29747283D01*
X15230942Y-29804724D01*
X15355750Y-29888118D01*
X15461882Y-29994250D01*
X15545276Y-30119058D01*
X15602717Y-30257734D01*
X15632000Y-30404948D01*
X15632000Y-30555052D01*
X15602717Y-30702266D01*
X15545276Y-30840942D01*
X15461882Y-30965750D01*
X15355750Y-31071882D01*
X15355747Y-31071884D01*
X15230942Y-31155276D01*
X15092267Y-31212717D01*
X15043195Y-31222478D01*
X14945052Y-31242000D01*
X14794948Y-31242000D01*
X14696805Y-31222478D01*
X14647733Y-31212717D01*
X14509058Y-31155276D01*
X14384253Y-31071884D01*
X14384250Y-31071882D01*
X14278118Y-30965750D01*
X14194724Y-30840942D01*
X14137283Y-30702266D01*
X14108000Y-30555052D01*
X14108000Y-30404948D01*
X14137283Y-30257734D01*
X14194724Y-30119058D01*
X14278118Y-29994250D01*
X14384250Y-29888118D01*
X14509058Y-29804724D01*
X14647733Y-29747283D01*
X14696805Y-29737522D01*
X14794948Y-29718000D01*
X14945052Y-29718000D01*
X15043195Y-29737522D01*
X15043195Y-29737522D01*
G37*
G36*
X42983195Y-29737522D02*
X43032267Y-29747283D01*
X43170942Y-29804724D01*
X43295750Y-29888118D01*
X43401882Y-29994250D01*
X43485276Y-30119058D01*
X43542717Y-30257734D01*
X43572000Y-30404948D01*
X43572000Y-30555052D01*
X43542717Y-30702266D01*
X43485276Y-30840942D01*
X43401882Y-30965750D01*
X43295750Y-31071882D01*
X43295747Y-31071884D01*
X43170942Y-31155276D01*
X43032267Y-31212717D01*
X42983195Y-31222478D01*
X42885052Y-31242000D01*
X42734948Y-31242000D01*
X42636805Y-31222478D01*
X42587733Y-31212717D01*
X42449058Y-31155276D01*
X42324253Y-31071884D01*
X42324250Y-31071882D01*
X42218118Y-30965750D01*
X42134724Y-30840942D01*
X42077283Y-30702266D01*
X42048000Y-30555052D01*
X42048000Y-30404948D01*
X42077283Y-30257734D01*
X42134724Y-30119058D01*
X42218118Y-29994250D01*
X42324250Y-29888118D01*
X42449058Y-29804724D01*
X42587733Y-29747283D01*
X42636805Y-29737522D01*
X42734948Y-29718000D01*
X42885052Y-29718000D01*
X42983195Y-29737522D01*
X42983195Y-29737522D01*
G37*
G36*
X40815522Y-29286039D02*
X40849053Y-29296211D01*
X40879960Y-29312731D01*
X40907043Y-29334957D01*
X40929269Y-29362040D01*
X40945789Y-29392947D01*
X40955961Y-29426478D01*
X40960000Y-29467487D01*
X40960000Y-30496513D01*
X40955961Y-30537522D01*
X40945789Y-30571053D01*
X40929269Y-30601960D01*
X40907043Y-30629043D01*
X40879960Y-30651269D01*
X40849053Y-30667789D01*
X40815522Y-30677961D01*
X40774513Y-30682000D01*
X39995487Y-30682000D01*
X39954478Y-30677961D01*
X39920947Y-30667789D01*
X39890040Y-30651269D01*
X39862957Y-30629043D01*
X39840731Y-30601960D01*
X39824211Y-30571053D01*
X39814039Y-30537522D01*
X39810000Y-30496513D01*
X39810000Y-29467487D01*
X39814039Y-29426478D01*
X39824211Y-29392947D01*
X39840731Y-29362040D01*
X39862957Y-29334957D01*
X39890040Y-29312731D01*
X39920947Y-29296211D01*
X39954478Y-29286039D01*
X39995487Y-29282000D01*
X40774513Y-29282000D01*
X40815522Y-29286039D01*
X40815522Y-29286039D01*
G37*
G36*
X38765522Y-29286039D02*
X38799053Y-29296211D01*
X38829960Y-29312731D01*
X38857043Y-29334957D01*
X38879269Y-29362040D01*
X38895789Y-29392947D01*
X38905961Y-29426478D01*
X38910000Y-29467487D01*
X38910000Y-30496513D01*
X38905961Y-30537522D01*
X38895789Y-30571053D01*
X38879269Y-30601960D01*
X38857043Y-30629043D01*
X38829960Y-30651269D01*
X38799053Y-30667789D01*
X38765522Y-30677961D01*
X38724513Y-30682000D01*
X37945487Y-30682000D01*
X37904478Y-30677961D01*
X37870947Y-30667789D01*
X37840040Y-30651269D01*
X37812957Y-30629043D01*
X37790731Y-30601960D01*
X37774211Y-30571053D01*
X37764039Y-30537522D01*
X37760000Y-30496513D01*
X37760000Y-29467487D01*
X37764039Y-29426478D01*
X37774211Y-29392947D01*
X37790731Y-29362040D01*
X37812957Y-29334957D01*
X37840040Y-29312731D01*
X37870947Y-29296211D01*
X37904478Y-29286039D01*
X37945487Y-29282000D01*
X38724513Y-29282000D01*
X38765522Y-29286039D01*
X38765522Y-29286039D01*
G37*
G36*
X42983195Y-27197522D02*
X43032267Y-27207283D01*
X43170942Y-27264724D01*
X43295750Y-27348118D01*
X43401882Y-27454250D01*
X43401884Y-27454253D01*
X43485276Y-27579058D01*
X43526167Y-27677777D01*
X43542717Y-27717734D01*
X43572000Y-27864948D01*
X43572000Y-28015052D01*
X43542717Y-28162266D01*
X43485276Y-28300942D01*
X43401882Y-28425750D01*
X43295750Y-28531882D01*
X43295747Y-28531884D01*
X43170942Y-28615276D01*
X43032267Y-28672717D01*
X42983195Y-28682478D01*
X42885052Y-28702000D01*
X42734948Y-28702000D01*
X42636805Y-28682478D01*
X42587733Y-28672717D01*
X42449058Y-28615276D01*
X42324253Y-28531884D01*
X42324250Y-28531882D01*
X42218118Y-28425750D01*
X42134724Y-28300942D01*
X42077283Y-28162266D01*
X42048000Y-28015052D01*
X42048000Y-27864948D01*
X42077283Y-27717734D01*
X42093834Y-27677777D01*
X42134724Y-27579058D01*
X42218116Y-27454253D01*
X42218118Y-27454250D01*
X42324250Y-27348118D01*
X42449058Y-27264724D01*
X42587733Y-27207283D01*
X42636805Y-27197522D01*
X42734948Y-27178000D01*
X42885052Y-27178000D01*
X42983195Y-27197522D01*
X42983195Y-27197522D01*
G37*
G36*
X15043195Y-27197522D02*
X15092267Y-27207283D01*
X15230942Y-27264724D01*
X15355750Y-27348118D01*
X15461882Y-27454250D01*
X15461884Y-27454253D01*
X15545276Y-27579058D01*
X15586167Y-27677777D01*
X15602717Y-27717734D01*
X15632000Y-27864948D01*
X15632000Y-28015052D01*
X15602717Y-28162266D01*
X15545276Y-28300942D01*
X15461882Y-28425750D01*
X15355750Y-28531882D01*
X15355747Y-28531884D01*
X15230942Y-28615276D01*
X15092267Y-28672717D01*
X15043195Y-28682478D01*
X14945052Y-28702000D01*
X14794948Y-28702000D01*
X14696805Y-28682478D01*
X14647733Y-28672717D01*
X14509058Y-28615276D01*
X14384253Y-28531884D01*
X14384250Y-28531882D01*
X14278118Y-28425750D01*
X14194724Y-28300942D01*
X14137283Y-28162266D01*
X14108000Y-28015052D01*
X14108000Y-27864948D01*
X14137283Y-27717734D01*
X14153834Y-27677777D01*
X14194724Y-27579058D01*
X14278116Y-27454253D01*
X14278118Y-27454250D01*
X14384250Y-27348118D01*
X14509058Y-27264724D01*
X14647733Y-27207283D01*
X14696805Y-27197522D01*
X14794948Y-27178000D01*
X14945052Y-27178000D01*
X15043195Y-27197522D01*
X15043195Y-27197522D01*
G37*
G36*
X40815522Y-26355039D02*
X40849053Y-26365211D01*
X40879960Y-26381731D01*
X40907043Y-26403957D01*
X40929269Y-26431040D01*
X40945789Y-26461947D01*
X40955961Y-26495478D01*
X40960000Y-26536487D01*
X40960000Y-27565513D01*
X40955961Y-27606522D01*
X40945789Y-27640053D01*
X40929269Y-27670960D01*
X40907043Y-27698043D01*
X40879960Y-27720269D01*
X40849053Y-27736789D01*
X40815522Y-27746961D01*
X40774513Y-27751000D01*
X39995487Y-27751000D01*
X39954478Y-27746961D01*
X39920947Y-27736789D01*
X39890040Y-27720269D01*
X39862957Y-27698043D01*
X39840731Y-27670960D01*
X39824211Y-27640053D01*
X39814039Y-27606522D01*
X39810000Y-27565513D01*
X39810000Y-26536487D01*
X39814039Y-26495478D01*
X39824211Y-26461947D01*
X39840731Y-26431040D01*
X39862957Y-26403957D01*
X39890040Y-26381731D01*
X39920947Y-26365211D01*
X39954478Y-26355039D01*
X39995487Y-26351000D01*
X40774513Y-26351000D01*
X40815522Y-26355039D01*
X40815522Y-26355039D01*
G37*
G36*
X38765522Y-26355039D02*
X38799053Y-26365211D01*
X38829960Y-26381731D01*
X38857043Y-26403957D01*
X38879269Y-26431040D01*
X38895789Y-26461947D01*
X38905961Y-26495478D01*
X38910000Y-26536487D01*
X38910000Y-27565513D01*
X38905961Y-27606522D01*
X38895789Y-27640053D01*
X38879269Y-27670960D01*
X38857043Y-27698043D01*
X38829960Y-27720269D01*
X38799053Y-27736789D01*
X38765522Y-27746961D01*
X38724513Y-27751000D01*
X37945487Y-27751000D01*
X37904478Y-27746961D01*
X37870947Y-27736789D01*
X37840040Y-27720269D01*
X37812957Y-27698043D01*
X37790731Y-27670960D01*
X37774211Y-27640053D01*
X37764039Y-27606522D01*
X37760000Y-27565513D01*
X37760000Y-26536487D01*
X37764039Y-26495478D01*
X37774211Y-26461947D01*
X37790731Y-26431040D01*
X37812957Y-26403957D01*
X37840040Y-26381731D01*
X37870947Y-26365211D01*
X37904478Y-26355039D01*
X37945487Y-26351000D01*
X38724513Y-26351000D01*
X38765522Y-26355039D01*
X38765522Y-26355039D01*
G37*
G36*
X42983195Y-24657522D02*
X43032267Y-24667283D01*
X43156865Y-24718893D01*
X43170942Y-24724724D01*
X43295750Y-24808118D01*
X43401882Y-24914250D01*
X43485276Y-25039058D01*
X43542717Y-25177734D01*
X43572000Y-25324948D01*
X43572000Y-25475052D01*
X43542717Y-25622266D01*
X43485276Y-25760942D01*
X43401882Y-25885750D01*
X43295750Y-25991882D01*
X43295747Y-25991884D01*
X43170942Y-26075276D01*
X43032267Y-26132717D01*
X42983195Y-26142478D01*
X42885052Y-26162000D01*
X42734948Y-26162000D01*
X42636805Y-26142478D01*
X42587733Y-26132717D01*
X42449058Y-26075276D01*
X42324253Y-25991884D01*
X42324250Y-25991882D01*
X42218118Y-25885750D01*
X42134724Y-25760942D01*
X42077283Y-25622266D01*
X42048000Y-25475052D01*
X42048000Y-25324948D01*
X42077283Y-25177734D01*
X42134724Y-25039058D01*
X42218118Y-24914250D01*
X42324250Y-24808118D01*
X42449058Y-24724724D01*
X42463135Y-24718893D01*
X42587733Y-24667283D01*
X42636805Y-24657522D01*
X42734948Y-24638000D01*
X42885052Y-24638000D01*
X42983195Y-24657522D01*
X42983195Y-24657522D01*
G37*
G36*
X15043195Y-24657522D02*
X15092267Y-24667283D01*
X15216865Y-24718893D01*
X15230942Y-24724724D01*
X15355750Y-24808118D01*
X15461882Y-24914250D01*
X15545276Y-25039058D01*
X15602717Y-25177734D01*
X15632000Y-25324948D01*
X15632000Y-25475052D01*
X15602717Y-25622266D01*
X15545276Y-25760942D01*
X15461882Y-25885750D01*
X15355750Y-25991882D01*
X15355747Y-25991884D01*
X15230942Y-26075276D01*
X15092267Y-26132717D01*
X15043195Y-26142478D01*
X14945052Y-26162000D01*
X14794948Y-26162000D01*
X14696805Y-26142478D01*
X14647733Y-26132717D01*
X14509058Y-26075276D01*
X14384253Y-25991884D01*
X14384250Y-25991882D01*
X14278118Y-25885750D01*
X14194724Y-25760942D01*
X14137283Y-25622266D01*
X14108000Y-25475052D01*
X14108000Y-25324948D01*
X14137283Y-25177734D01*
X14194724Y-25039058D01*
X14278118Y-24914250D01*
X14384250Y-24808118D01*
X14509058Y-24724724D01*
X14523135Y-24718893D01*
X14647733Y-24667283D01*
X14696805Y-24657522D01*
X14794948Y-24638000D01*
X14945052Y-24638000D01*
X15043195Y-24657522D01*
X15043195Y-24657522D01*
G37*
G36*
X38765522Y-23434039D02*
X38799053Y-23444211D01*
X38829960Y-23460731D01*
X38857043Y-23482957D01*
X38879269Y-23510040D01*
X38895789Y-23540947D01*
X38905961Y-23574478D01*
X38910000Y-23615487D01*
X38910000Y-24644513D01*
X38905961Y-24685522D01*
X38895789Y-24719053D01*
X38879269Y-24749960D01*
X38857043Y-24777043D01*
X38829960Y-24799269D01*
X38799053Y-24815789D01*
X38765522Y-24825961D01*
X38724513Y-24830000D01*
X37945487Y-24830000D01*
X37904478Y-24825961D01*
X37870947Y-24815789D01*
X37840040Y-24799269D01*
X37812957Y-24777043D01*
X37790731Y-24749960D01*
X37774211Y-24719053D01*
X37764039Y-24685522D01*
X37760000Y-24644513D01*
X37760000Y-23615487D01*
X37764039Y-23574478D01*
X37774211Y-23540947D01*
X37790731Y-23510040D01*
X37812957Y-23482957D01*
X37840040Y-23460731D01*
X37870947Y-23444211D01*
X37904478Y-23434039D01*
X37945487Y-23430000D01*
X38724513Y-23430000D01*
X38765522Y-23434039D01*
X38765522Y-23434039D01*
G37*
G36*
X40815522Y-23434039D02*
X40849053Y-23444211D01*
X40879960Y-23460731D01*
X40907043Y-23482957D01*
X40929269Y-23510040D01*
X40945789Y-23540947D01*
X40955961Y-23574478D01*
X40960000Y-23615487D01*
X40960000Y-24644513D01*
X40955961Y-24685522D01*
X40945789Y-24719053D01*
X40929269Y-24749960D01*
X40907043Y-24777043D01*
X40879960Y-24799269D01*
X40849053Y-24815789D01*
X40815522Y-24825961D01*
X40774513Y-24830000D01*
X39995487Y-24830000D01*
X39954478Y-24825961D01*
X39920947Y-24815789D01*
X39890040Y-24799269D01*
X39862957Y-24777043D01*
X39840731Y-24749960D01*
X39824211Y-24719053D01*
X39814039Y-24685522D01*
X39810000Y-24644513D01*
X39810000Y-23615487D01*
X39814039Y-23574478D01*
X39824211Y-23540947D01*
X39840731Y-23510040D01*
X39862957Y-23482957D01*
X39890040Y-23460731D01*
X39920947Y-23444211D01*
X39954478Y-23434039D01*
X39995487Y-23430000D01*
X40774513Y-23430000D01*
X40815522Y-23434039D01*
X40815522Y-23434039D01*
G37*
G36*
X42983195Y-22117522D02*
X43032267Y-22127283D01*
X43170942Y-22184724D01*
X43295750Y-22268118D01*
X43401882Y-22374250D01*
X43485276Y-22499058D01*
X43542717Y-22637734D01*
X43572000Y-22784948D01*
X43572000Y-22935052D01*
X43542717Y-23082266D01*
X43485276Y-23220942D01*
X43401882Y-23345750D01*
X43295750Y-23451882D01*
X43295747Y-23451884D01*
X43170942Y-23535276D01*
X43032267Y-23592717D01*
X42983195Y-23602478D01*
X42885052Y-23622000D01*
X42734948Y-23622000D01*
X42636805Y-23602478D01*
X42587733Y-23592717D01*
X42449058Y-23535276D01*
X42324253Y-23451884D01*
X42324250Y-23451882D01*
X42218118Y-23345750D01*
X42134724Y-23220942D01*
X42077283Y-23082266D01*
X42048000Y-22935052D01*
X42048000Y-22784948D01*
X42077283Y-22637734D01*
X42134724Y-22499058D01*
X42218118Y-22374250D01*
X42324250Y-22268118D01*
X42449058Y-22184724D01*
X42587733Y-22127283D01*
X42636805Y-22117522D01*
X42734948Y-22098000D01*
X42885052Y-22098000D01*
X42983195Y-22117522D01*
X42983195Y-22117522D01*
G37*
G36*
X15043195Y-22117522D02*
X15092267Y-22127283D01*
X15230942Y-22184724D01*
X15355750Y-22268118D01*
X15461882Y-22374250D01*
X15545276Y-22499058D01*
X15602717Y-22637734D01*
X15632000Y-22784948D01*
X15632000Y-22935052D01*
X15602717Y-23082266D01*
X15545276Y-23220942D01*
X15461882Y-23345750D01*
X15355750Y-23451882D01*
X15355747Y-23451884D01*
X15230942Y-23535276D01*
X15092267Y-23592717D01*
X15043195Y-23602478D01*
X14945052Y-23622000D01*
X14794948Y-23622000D01*
X14696805Y-23602478D01*
X14647733Y-23592717D01*
X14509058Y-23535276D01*
X14384253Y-23451884D01*
X14384250Y-23451882D01*
X14278118Y-23345750D01*
X14194724Y-23220942D01*
X14137283Y-23082266D01*
X14108000Y-22935052D01*
X14108000Y-22784948D01*
X14137283Y-22637734D01*
X14194724Y-22499058D01*
X14278118Y-22374250D01*
X14384250Y-22268118D01*
X14509058Y-22184724D01*
X14647733Y-22127283D01*
X14696805Y-22117522D01*
X14794948Y-22098000D01*
X14945052Y-22098000D01*
X15043195Y-22117522D01*
X15043195Y-22117522D01*
G37*
G36*
X25515770Y-20115372D02*
X25631689Y-20138429D01*
X25813678Y-20213811D01*
X25977463Y-20323249D01*
X26116751Y-20462537D01*
X26226189Y-20626322D01*
X26301571Y-20808311D01*
X26340000Y-21001509D01*
X26340000Y-21198491D01*
X26301571Y-21391689D01*
X26226189Y-21573678D01*
X26116751Y-21737463D01*
X25977463Y-21876751D01*
X25813678Y-21986189D01*
X25631689Y-22061571D01*
X25515770Y-22084628D01*
X25438493Y-22100000D01*
X25241507Y-22100000D01*
X25164230Y-22084628D01*
X25048311Y-22061571D01*
X24866322Y-21986189D01*
X24702537Y-21876751D01*
X24563249Y-21737463D01*
X24453811Y-21573678D01*
X24378429Y-21391689D01*
X24340000Y-21198491D01*
X24340000Y-21001509D01*
X24378429Y-20808311D01*
X24453811Y-20626322D01*
X24563249Y-20462537D01*
X24702537Y-20323249D01*
X24866322Y-20213811D01*
X25048311Y-20138429D01*
X25164230Y-20115372D01*
X25241507Y-20100000D01*
X25438493Y-20100000D01*
X25515770Y-20115372D01*
X25515770Y-20115372D01*
G37*
G36*
X21015770Y-20115372D02*
X21131689Y-20138429D01*
X21313678Y-20213811D01*
X21477463Y-20323249D01*
X21616751Y-20462537D01*
X21726189Y-20626322D01*
X21801571Y-20808311D01*
X21840000Y-21001509D01*
X21840000Y-21198491D01*
X21801571Y-21391689D01*
X21726189Y-21573678D01*
X21616751Y-21737463D01*
X21477463Y-21876751D01*
X21313678Y-21986189D01*
X21131689Y-22061571D01*
X21015770Y-22084628D01*
X20938493Y-22100000D01*
X20741507Y-22100000D01*
X20664230Y-22084628D01*
X20548311Y-22061571D01*
X20366322Y-21986189D01*
X20202537Y-21876751D01*
X20063249Y-21737463D01*
X19953811Y-21573678D01*
X19878429Y-21391689D01*
X19840000Y-21198491D01*
X19840000Y-21001509D01*
X19878429Y-20808311D01*
X19953811Y-20626322D01*
X20063249Y-20462537D01*
X20202537Y-20323249D01*
X20366322Y-20213811D01*
X20548311Y-20138429D01*
X20664230Y-20115372D01*
X20741507Y-20100000D01*
X20938493Y-20100000D01*
X21015770Y-20115372D01*
X21015770Y-20115372D01*
G37*
G36*
X41386630Y-18842299D02*
X41546855Y-18890903D01*
X41694520Y-18969831D01*
X41823949Y-19076051D01*
X41930169Y-19205480D01*
X42009097Y-19353145D01*
X42057701Y-19513370D01*
X42074112Y-19680000D01*
X42057701Y-19846630D01*
X42009097Y-20006855D01*
X41930169Y-20154520D01*
X41823949Y-20283949D01*
X41694520Y-20390169D01*
X41546855Y-20469097D01*
X41386630Y-20517701D01*
X41261752Y-20530000D01*
X41178248Y-20530000D01*
X41053370Y-20517701D01*
X40893145Y-20469097D01*
X40745480Y-20390169D01*
X40616051Y-20283949D01*
X40509831Y-20154520D01*
X40430903Y-20006855D01*
X40382299Y-19846630D01*
X40365888Y-19680000D01*
X40382299Y-19513370D01*
X40430903Y-19353145D01*
X40509831Y-19205480D01*
X40616051Y-19076051D01*
X40745480Y-18969831D01*
X40893145Y-18890903D01*
X41053370Y-18842299D01*
X41178248Y-18830000D01*
X41261752Y-18830000D01*
X41386630Y-18842299D01*
X41386630Y-18842299D01*
G37*
G36*
X39530000Y-20530000D02*
X37830000Y-20530000D01*
X37830000Y-18830000D01*
X39530000Y-18830000D01*
X39530000Y-20530000D01*
X39530000Y-20530000D01*
G37*
G36*
X31600000Y-20500000D02*
X29900000Y-20500000D01*
X29900000Y-18800000D01*
X31600000Y-18800000D01*
X31600000Y-20500000D01*
X31600000Y-20500000D01*
G37*
G36*
X33456630Y-18812299D02*
X33616855Y-18860903D01*
X33764520Y-18939831D01*
X33893949Y-19046051D01*
X34000169Y-19175480D01*
X34079097Y-19323145D01*
X34127701Y-19483370D01*
X34144112Y-19650000D01*
X34127701Y-19816630D01*
X34079097Y-19976855D01*
X34000169Y-20124520D01*
X33893949Y-20253949D01*
X33764520Y-20360169D01*
X33616855Y-20439097D01*
X33456630Y-20487701D01*
X33331752Y-20500000D01*
X33248248Y-20500000D01*
X33123370Y-20487701D01*
X32963145Y-20439097D01*
X32815480Y-20360169D01*
X32686051Y-20253949D01*
X32579831Y-20124520D01*
X32500903Y-19976855D01*
X32452299Y-19816630D01*
X32435888Y-19650000D01*
X32452299Y-19483370D01*
X32500903Y-19323145D01*
X32579831Y-19175480D01*
X32686051Y-19046051D01*
X32815480Y-18939831D01*
X32963145Y-18860903D01*
X33123370Y-18812299D01*
X33248248Y-18800000D01*
X33331752Y-18800000D01*
X33456630Y-18812299D01*
X33456630Y-18812299D01*
G37*
G36*
X42006703Y-13701486D02*
X42297883Y-13822097D01*
X42559944Y-13997201D01*
X42782799Y-14220056D01*
X42957903Y-14482117D01*
X43078514Y-14773297D01*
X43140000Y-15082412D01*
X43140000Y-15397588D01*
X43078514Y-15706703D01*
X42957903Y-15997883D01*
X42782799Y-16259944D01*
X42559944Y-16482799D01*
X42297883Y-16657903D01*
X42006703Y-16778514D01*
X41697588Y-16840000D01*
X41382412Y-16840000D01*
X41073297Y-16778514D01*
X40782117Y-16657903D01*
X40520056Y-16482799D01*
X40297201Y-16259944D01*
X40122097Y-15997883D01*
X40001486Y-15706703D01*
X39940000Y-15397588D01*
X39940000Y-15082412D01*
X40001486Y-14773297D01*
X40122097Y-14482117D01*
X40297201Y-14220056D01*
X40520056Y-13997201D01*
X40782117Y-13822097D01*
X41073297Y-13701486D01*
X41382412Y-13640000D01*
X41697588Y-13640000D01*
X42006703Y-13701486D01*
X42006703Y-13701486D01*
G37*
G36*
X16606703Y-13701486D02*
X16897883Y-13822097D01*
X17159944Y-13997201D01*
X17382799Y-14220056D01*
X17557903Y-14482117D01*
X17678514Y-14773297D01*
X17740000Y-15082412D01*
X17740000Y-15397588D01*
X17678514Y-15706703D01*
X17557903Y-15997883D01*
X17382799Y-16259944D01*
X17159944Y-16482799D01*
X16897883Y-16657903D01*
X16606703Y-16778514D01*
X16297588Y-16840000D01*
X15982412Y-16840000D01*
X15673297Y-16778514D01*
X15382117Y-16657903D01*
X15120056Y-16482799D01*
X14897201Y-16259944D01*
X14722097Y-15997883D01*
X14601486Y-15706703D01*
X14540000Y-15397588D01*
X14540000Y-15082412D01*
X14601486Y-14773297D01*
X14722097Y-14482117D01*
X14897201Y-14220056D01*
X15120056Y-13997201D01*
X15382117Y-13822097D01*
X15673297Y-13701486D01*
X15982412Y-13640000D01*
X16297588Y-13640000D01*
X16606703Y-13701486D01*
X16606703Y-13701486D01*
G37*
G36*
X25515770Y-13615372D02*
X25631689Y-13638429D01*
X25813678Y-13713811D01*
X25977463Y-13823249D01*
X26116751Y-13962537D01*
X26226189Y-14126322D01*
X26301571Y-14308311D01*
X26340000Y-14501509D01*
X26340000Y-14698491D01*
X26301571Y-14891689D01*
X26226189Y-15073678D01*
X26116751Y-15237463D01*
X25977463Y-15376751D01*
X25813678Y-15486189D01*
X25631689Y-15561571D01*
X25515770Y-15584628D01*
X25438493Y-15600000D01*
X25241507Y-15600000D01*
X25164230Y-15584628D01*
X25048311Y-15561571D01*
X24866322Y-15486189D01*
X24702537Y-15376751D01*
X24563249Y-15237463D01*
X24453811Y-15073678D01*
X24378429Y-14891689D01*
X24340000Y-14698491D01*
X24340000Y-14501509D01*
X24378429Y-14308311D01*
X24453811Y-14126322D01*
X24563249Y-13962537D01*
X24702537Y-13823249D01*
X24866322Y-13713811D01*
X25048311Y-13638429D01*
X25164230Y-13615372D01*
X25241507Y-13600000D01*
X25438493Y-13600000D01*
X25515770Y-13615372D01*
X25515770Y-13615372D01*
G37*
G36*
X21015770Y-13615372D02*
X21131689Y-13638429D01*
X21313678Y-13713811D01*
X21477463Y-13823249D01*
X21616751Y-13962537D01*
X21726189Y-14126322D01*
X21801571Y-14308311D01*
X21840000Y-14501509D01*
X21840000Y-14698491D01*
X21801571Y-14891689D01*
X21726189Y-15073678D01*
X21616751Y-15237463D01*
X21477463Y-15376751D01*
X21313678Y-15486189D01*
X21131689Y-15561571D01*
X21015770Y-15584628D01*
X20938493Y-15600000D01*
X20741507Y-15600000D01*
X20664230Y-15584628D01*
X20548311Y-15561571D01*
X20366322Y-15486189D01*
X20202537Y-15376751D01*
X20063249Y-15237463D01*
X19953811Y-15073678D01*
X19878429Y-14891689D01*
X19840000Y-14698491D01*
X19840000Y-14501509D01*
X19878429Y-14308311D01*
X19953811Y-14126322D01*
X20063249Y-13962537D01*
X20202537Y-13823249D01*
X20366322Y-13713811D01*
X20548311Y-13638429D01*
X20664230Y-13615372D01*
X20741507Y-13600000D01*
X20938493Y-13600000D01*
X21015770Y-13615372D01*
X21015770Y-13615372D01*
G37*
M02*
