G04 #@! TF.GenerationSoftware,KiCad,Pcbnew,(5.0.2)-1*
G04 #@! TF.CreationDate,2019-06-21T14:31:00+05:30*
G04 #@! TF.ProjectId,CapacityOfBattery,43617061-6369-4747-994f-664261747465,rev?*
G04 #@! TF.SameCoordinates,Original*
G04 #@! TF.FileFunction,Copper,L1,Top*
G04 #@! TF.FilePolarity,Positive*
%FSLAX46Y46*%
G04 Gerber Fmt 4.6, Leading zero omitted, Abs format (unit mm)*
G04 Created by KiCad (PCBNEW (5.0.2)-1) date 06/21/19 14:31:00*
%MOMM*%
%LPD*%
G01*
G04 APERTURE LIST*
G04 #@! TA.AperFunction,Conductor*
%ADD10C,0.100000*%
G04 #@! TD*
G04 #@! TA.AperFunction,SMDPad,CuDef*
%ADD11C,1.150000*%
G04 #@! TD*
G04 #@! TA.AperFunction,ComponentPad*
%ADD12C,1.524000*%
G04 #@! TD*
G04 #@! TA.AperFunction,ComponentPad*
%ADD13C,2.000000*%
G04 #@! TD*
G04 #@! TA.AperFunction,SMDPad,CuDef*
%ADD14R,0.900000X0.800000*%
G04 #@! TD*
G04 #@! TA.AperFunction,ComponentPad*
%ADD15O,1.700000X1.700000*%
G04 #@! TD*
G04 #@! TA.AperFunction,ComponentPad*
%ADD16R,1.700000X1.700000*%
G04 #@! TD*
G04 #@! TA.AperFunction,SMDPad,CuDef*
%ADD17C,0.950000*%
G04 #@! TD*
G04 #@! TA.AperFunction,ViaPad*
%ADD18C,0.800000*%
G04 #@! TD*
G04 #@! TA.AperFunction,Conductor*
%ADD19C,0.250000*%
G04 #@! TD*
G04 #@! TA.AperFunction,Conductor*
%ADD20C,0.254000*%
G04 #@! TD*
G04 APERTURE END LIST*
D10*
G04 #@! TO.N,GND*
G04 #@! TO.C,RL4*
G36*
X23654505Y-44261204D02*
X23678773Y-44264804D01*
X23702572Y-44270765D01*
X23725671Y-44279030D01*
X23747850Y-44289520D01*
X23768893Y-44302132D01*
X23788599Y-44316747D01*
X23806777Y-44333223D01*
X23823253Y-44351401D01*
X23837868Y-44371107D01*
X23850480Y-44392150D01*
X23860970Y-44414329D01*
X23869235Y-44437428D01*
X23875196Y-44461227D01*
X23878796Y-44485495D01*
X23880000Y-44509999D01*
X23880000Y-45410001D01*
X23878796Y-45434505D01*
X23875196Y-45458773D01*
X23869235Y-45482572D01*
X23860970Y-45505671D01*
X23850480Y-45527850D01*
X23837868Y-45548893D01*
X23823253Y-45568599D01*
X23806777Y-45586777D01*
X23788599Y-45603253D01*
X23768893Y-45617868D01*
X23747850Y-45630480D01*
X23725671Y-45640970D01*
X23702572Y-45649235D01*
X23678773Y-45655196D01*
X23654505Y-45658796D01*
X23630001Y-45660000D01*
X22979999Y-45660000D01*
X22955495Y-45658796D01*
X22931227Y-45655196D01*
X22907428Y-45649235D01*
X22884329Y-45640970D01*
X22862150Y-45630480D01*
X22841107Y-45617868D01*
X22821401Y-45603253D01*
X22803223Y-45586777D01*
X22786747Y-45568599D01*
X22772132Y-45548893D01*
X22759520Y-45527850D01*
X22749030Y-45505671D01*
X22740765Y-45482572D01*
X22734804Y-45458773D01*
X22731204Y-45434505D01*
X22730000Y-45410001D01*
X22730000Y-44509999D01*
X22731204Y-44485495D01*
X22734804Y-44461227D01*
X22740765Y-44437428D01*
X22749030Y-44414329D01*
X22759520Y-44392150D01*
X22772132Y-44371107D01*
X22786747Y-44351401D01*
X22803223Y-44333223D01*
X22821401Y-44316747D01*
X22841107Y-44302132D01*
X22862150Y-44289520D01*
X22884329Y-44279030D01*
X22907428Y-44270765D01*
X22931227Y-44264804D01*
X22955495Y-44261204D01*
X22979999Y-44260000D01*
X23630001Y-44260000D01*
X23654505Y-44261204D01*
X23654505Y-44261204D01*
G37*
D11*
G04 #@! TD*
G04 #@! TO.P,RL4,2*
G04 #@! TO.N,GND*
X23305000Y-44960000D03*
D10*
G04 #@! TO.N,Net-(Q3-Pad3)*
G04 #@! TO.C,RL4*
G36*
X25704505Y-44261204D02*
X25728773Y-44264804D01*
X25752572Y-44270765D01*
X25775671Y-44279030D01*
X25797850Y-44289520D01*
X25818893Y-44302132D01*
X25838599Y-44316747D01*
X25856777Y-44333223D01*
X25873253Y-44351401D01*
X25887868Y-44371107D01*
X25900480Y-44392150D01*
X25910970Y-44414329D01*
X25919235Y-44437428D01*
X25925196Y-44461227D01*
X25928796Y-44485495D01*
X25930000Y-44509999D01*
X25930000Y-45410001D01*
X25928796Y-45434505D01*
X25925196Y-45458773D01*
X25919235Y-45482572D01*
X25910970Y-45505671D01*
X25900480Y-45527850D01*
X25887868Y-45548893D01*
X25873253Y-45568599D01*
X25856777Y-45586777D01*
X25838599Y-45603253D01*
X25818893Y-45617868D01*
X25797850Y-45630480D01*
X25775671Y-45640970D01*
X25752572Y-45649235D01*
X25728773Y-45655196D01*
X25704505Y-45658796D01*
X25680001Y-45660000D01*
X25029999Y-45660000D01*
X25005495Y-45658796D01*
X24981227Y-45655196D01*
X24957428Y-45649235D01*
X24934329Y-45640970D01*
X24912150Y-45630480D01*
X24891107Y-45617868D01*
X24871401Y-45603253D01*
X24853223Y-45586777D01*
X24836747Y-45568599D01*
X24822132Y-45548893D01*
X24809520Y-45527850D01*
X24799030Y-45505671D01*
X24790765Y-45482572D01*
X24784804Y-45458773D01*
X24781204Y-45434505D01*
X24780000Y-45410001D01*
X24780000Y-44509999D01*
X24781204Y-44485495D01*
X24784804Y-44461227D01*
X24790765Y-44437428D01*
X24799030Y-44414329D01*
X24809520Y-44392150D01*
X24822132Y-44371107D01*
X24836747Y-44351401D01*
X24853223Y-44333223D01*
X24871401Y-44316747D01*
X24891107Y-44302132D01*
X24912150Y-44289520D01*
X24934329Y-44279030D01*
X24957428Y-44270765D01*
X24981227Y-44264804D01*
X25005495Y-44261204D01*
X25029999Y-44260000D01*
X25680001Y-44260000D01*
X25704505Y-44261204D01*
X25704505Y-44261204D01*
G37*
D11*
G04 #@! TD*
G04 #@! TO.P,RL4,1*
G04 #@! TO.N,Net-(Q3-Pad3)*
X25355000Y-44960000D03*
D10*
G04 #@! TO.N,Net-(Q3-Pad3)*
G04 #@! TO.C,RL5*
G36*
X25694505Y-41891204D02*
X25718773Y-41894804D01*
X25742572Y-41900765D01*
X25765671Y-41909030D01*
X25787850Y-41919520D01*
X25808893Y-41932132D01*
X25828599Y-41946747D01*
X25846777Y-41963223D01*
X25863253Y-41981401D01*
X25877868Y-42001107D01*
X25890480Y-42022150D01*
X25900970Y-42044329D01*
X25909235Y-42067428D01*
X25915196Y-42091227D01*
X25918796Y-42115495D01*
X25920000Y-42139999D01*
X25920000Y-43040001D01*
X25918796Y-43064505D01*
X25915196Y-43088773D01*
X25909235Y-43112572D01*
X25900970Y-43135671D01*
X25890480Y-43157850D01*
X25877868Y-43178893D01*
X25863253Y-43198599D01*
X25846777Y-43216777D01*
X25828599Y-43233253D01*
X25808893Y-43247868D01*
X25787850Y-43260480D01*
X25765671Y-43270970D01*
X25742572Y-43279235D01*
X25718773Y-43285196D01*
X25694505Y-43288796D01*
X25670001Y-43290000D01*
X25019999Y-43290000D01*
X24995495Y-43288796D01*
X24971227Y-43285196D01*
X24947428Y-43279235D01*
X24924329Y-43270970D01*
X24902150Y-43260480D01*
X24881107Y-43247868D01*
X24861401Y-43233253D01*
X24843223Y-43216777D01*
X24826747Y-43198599D01*
X24812132Y-43178893D01*
X24799520Y-43157850D01*
X24789030Y-43135671D01*
X24780765Y-43112572D01*
X24774804Y-43088773D01*
X24771204Y-43064505D01*
X24770000Y-43040001D01*
X24770000Y-42139999D01*
X24771204Y-42115495D01*
X24774804Y-42091227D01*
X24780765Y-42067428D01*
X24789030Y-42044329D01*
X24799520Y-42022150D01*
X24812132Y-42001107D01*
X24826747Y-41981401D01*
X24843223Y-41963223D01*
X24861401Y-41946747D01*
X24881107Y-41932132D01*
X24902150Y-41919520D01*
X24924329Y-41909030D01*
X24947428Y-41900765D01*
X24971227Y-41894804D01*
X24995495Y-41891204D01*
X25019999Y-41890000D01*
X25670001Y-41890000D01*
X25694505Y-41891204D01*
X25694505Y-41891204D01*
G37*
D11*
G04 #@! TD*
G04 #@! TO.P,RL5,1*
G04 #@! TO.N,Net-(Q3-Pad3)*
X25345000Y-42590000D03*
D10*
G04 #@! TO.N,GND*
G04 #@! TO.C,RL5*
G36*
X23644505Y-41891204D02*
X23668773Y-41894804D01*
X23692572Y-41900765D01*
X23715671Y-41909030D01*
X23737850Y-41919520D01*
X23758893Y-41932132D01*
X23778599Y-41946747D01*
X23796777Y-41963223D01*
X23813253Y-41981401D01*
X23827868Y-42001107D01*
X23840480Y-42022150D01*
X23850970Y-42044329D01*
X23859235Y-42067428D01*
X23865196Y-42091227D01*
X23868796Y-42115495D01*
X23870000Y-42139999D01*
X23870000Y-43040001D01*
X23868796Y-43064505D01*
X23865196Y-43088773D01*
X23859235Y-43112572D01*
X23850970Y-43135671D01*
X23840480Y-43157850D01*
X23827868Y-43178893D01*
X23813253Y-43198599D01*
X23796777Y-43216777D01*
X23778599Y-43233253D01*
X23758893Y-43247868D01*
X23737850Y-43260480D01*
X23715671Y-43270970D01*
X23692572Y-43279235D01*
X23668773Y-43285196D01*
X23644505Y-43288796D01*
X23620001Y-43290000D01*
X22969999Y-43290000D01*
X22945495Y-43288796D01*
X22921227Y-43285196D01*
X22897428Y-43279235D01*
X22874329Y-43270970D01*
X22852150Y-43260480D01*
X22831107Y-43247868D01*
X22811401Y-43233253D01*
X22793223Y-43216777D01*
X22776747Y-43198599D01*
X22762132Y-43178893D01*
X22749520Y-43157850D01*
X22739030Y-43135671D01*
X22730765Y-43112572D01*
X22724804Y-43088773D01*
X22721204Y-43064505D01*
X22720000Y-43040001D01*
X22720000Y-42139999D01*
X22721204Y-42115495D01*
X22724804Y-42091227D01*
X22730765Y-42067428D01*
X22739030Y-42044329D01*
X22749520Y-42022150D01*
X22762132Y-42001107D01*
X22776747Y-41981401D01*
X22793223Y-41963223D01*
X22811401Y-41946747D01*
X22831107Y-41932132D01*
X22852150Y-41919520D01*
X22874329Y-41909030D01*
X22897428Y-41900765D01*
X22921227Y-41894804D01*
X22945495Y-41891204D01*
X22969999Y-41890000D01*
X23620001Y-41890000D01*
X23644505Y-41891204D01*
X23644505Y-41891204D01*
G37*
D11*
G04 #@! TD*
G04 #@! TO.P,RL5,2*
G04 #@! TO.N,GND*
X23295000Y-42590000D03*
D12*
G04 #@! TO.P,,30*
G04 #@! TO.N,/LED1*
X42810000Y-22860000D03*
G04 #@! TO.P,,29*
G04 #@! TO.N,/LED2*
X42810000Y-25400000D03*
G04 #@! TO.P,,28*
G04 #@! TO.N,/LED3*
X42810000Y-27940000D03*
G04 #@! TO.P,,27*
G04 #@! TO.N,Net-(U1-Pad27)*
X42810000Y-30480000D03*
G04 #@! TO.P,,26*
G04 #@! TO.N,Net-(U1-Pad26)*
X42810000Y-33020000D03*
G04 #@! TO.P,,25*
G04 #@! TO.N,/Vcc*
X42810000Y-35560000D03*
G04 #@! TO.P,,24*
G04 #@! TO.N,GND*
X42810000Y-38100000D03*
G04 #@! TO.P,,23*
G04 #@! TO.N,/LED4*
X42810000Y-40640000D03*
G04 #@! TO.P,,22*
G04 #@! TO.N,/En_VD*
X42810000Y-43180000D03*
G04 #@! TO.P,,21*
G04 #@! TO.N,/Ctrl4*
X42810000Y-45720000D03*
G04 #@! TO.P,,20*
G04 #@! TO.N,/Ctrl3*
X42810000Y-48260000D03*
G04 #@! TO.P,,19*
G04 #@! TO.N,/Ctrl2*
X42810000Y-50800000D03*
G04 #@! TO.P,,18*
G04 #@! TO.N,/Ctrl1*
X42810000Y-53340000D03*
G04 #@! TO.P,,17*
G04 #@! TO.N,GND*
X42810000Y-55880000D03*
G04 #@! TO.P,,16*
G04 #@! TO.N,/Vcc*
X42810000Y-58420000D03*
G04 #@! TO.P,,15*
G04 #@! TO.N,Net-(U1-Pad15)*
X14870000Y-58420000D03*
G04 #@! TO.P,,14*
G04 #@! TO.N,GND*
X14870000Y-55880000D03*
G04 #@! TO.P,,13*
G04 #@! TO.N,Net-(U1-Pad13)*
X14870000Y-53340000D03*
G04 #@! TO.P,,12*
G04 #@! TO.N,Net-(U1-Pad12)*
X14870000Y-50800000D03*
G04 #@! TO.P,,11*
G04 #@! TO.N,/Vcc*
X14870000Y-48260000D03*
G04 #@! TO.P,,10*
G04 #@! TO.N,GND*
X14870000Y-45720000D03*
G04 #@! TO.P,,9*
G04 #@! TO.N,Net-(U1-Pad9)*
X14870000Y-43180000D03*
G04 #@! TO.P,,8*
G04 #@! TO.N,Net-(U1-Pad8)*
X14870000Y-40640000D03*
G04 #@! TO.P,,7*
G04 #@! TO.N,Net-(U1-Pad7)*
X14870000Y-38100000D03*
G04 #@! TO.P,,6*
G04 #@! TO.N,Net-(U1-Pad6)*
X14870000Y-35560000D03*
G04 #@! TO.P,,5*
G04 #@! TO.N,Net-(U1-Pad5)*
X14870000Y-33020000D03*
G04 #@! TO.P,,4*
G04 #@! TO.N,/SW*
X14870000Y-30480000D03*
G04 #@! TO.P,,3*
G04 #@! TO.N,Net-(U1-Pad3)*
X14870000Y-27940000D03*
G04 #@! TO.P,,2*
G04 #@! TO.N,GND*
X14870000Y-25400000D03*
G04 #@! TO.P,,1*
G04 #@! TO.N,/Vin*
X14870000Y-22860000D03*
G04 #@! TD*
D13*
G04 #@! TO.P,SW1,2*
G04 #@! TO.N,/SW*
X20840000Y-21100000D03*
G04 #@! TO.P,SW1,1*
G04 #@! TO.N,/Vcc*
X25340000Y-21100000D03*
G04 #@! TO.P,SW1,2*
G04 #@! TO.N,/SW*
X20840000Y-14600000D03*
G04 #@! TO.P,SW1,1*
G04 #@! TO.N,/Vcc*
X25340000Y-14600000D03*
G04 #@! TD*
D14*
G04 #@! TO.P,Q3,1*
G04 #@! TO.N,/Ctrl3*
X30350000Y-42860000D03*
G04 #@! TO.P,Q3,2*
G04 #@! TO.N,/Vbat*
X30350000Y-40960000D03*
G04 #@! TO.P,Q3,3*
G04 #@! TO.N,Net-(Q3-Pad3)*
X28350000Y-41910000D03*
G04 #@! TD*
D10*
G04 #@! TO.N,GND*
G04 #@! TO.C,R6*
G36*
X36084505Y-32321204D02*
X36108773Y-32324804D01*
X36132572Y-32330765D01*
X36155671Y-32339030D01*
X36177850Y-32349520D01*
X36198893Y-32362132D01*
X36218599Y-32376747D01*
X36236777Y-32393223D01*
X36253253Y-32411401D01*
X36267868Y-32431107D01*
X36280480Y-32452150D01*
X36290970Y-32474329D01*
X36299235Y-32497428D01*
X36305196Y-32521227D01*
X36308796Y-32545495D01*
X36310000Y-32569999D01*
X36310000Y-33470001D01*
X36308796Y-33494505D01*
X36305196Y-33518773D01*
X36299235Y-33542572D01*
X36290970Y-33565671D01*
X36280480Y-33587850D01*
X36267868Y-33608893D01*
X36253253Y-33628599D01*
X36236777Y-33646777D01*
X36218599Y-33663253D01*
X36198893Y-33677868D01*
X36177850Y-33690480D01*
X36155671Y-33700970D01*
X36132572Y-33709235D01*
X36108773Y-33715196D01*
X36084505Y-33718796D01*
X36060001Y-33720000D01*
X35409999Y-33720000D01*
X35385495Y-33718796D01*
X35361227Y-33715196D01*
X35337428Y-33709235D01*
X35314329Y-33700970D01*
X35292150Y-33690480D01*
X35271107Y-33677868D01*
X35251401Y-33663253D01*
X35233223Y-33646777D01*
X35216747Y-33628599D01*
X35202132Y-33608893D01*
X35189520Y-33587850D01*
X35179030Y-33565671D01*
X35170765Y-33542572D01*
X35164804Y-33518773D01*
X35161204Y-33494505D01*
X35160000Y-33470001D01*
X35160000Y-32569999D01*
X35161204Y-32545495D01*
X35164804Y-32521227D01*
X35170765Y-32497428D01*
X35179030Y-32474329D01*
X35189520Y-32452150D01*
X35202132Y-32431107D01*
X35216747Y-32411401D01*
X35233223Y-32393223D01*
X35251401Y-32376747D01*
X35271107Y-32362132D01*
X35292150Y-32349520D01*
X35314329Y-32339030D01*
X35337428Y-32330765D01*
X35361227Y-32324804D01*
X35385495Y-32321204D01*
X35409999Y-32320000D01*
X36060001Y-32320000D01*
X36084505Y-32321204D01*
X36084505Y-32321204D01*
G37*
D11*
G04 #@! TD*
G04 #@! TO.P,R6,1*
G04 #@! TO.N,GND*
X35735000Y-33020000D03*
D10*
G04 #@! TO.N,/En_VD*
G04 #@! TO.C,R6*
G36*
X34034505Y-32321204D02*
X34058773Y-32324804D01*
X34082572Y-32330765D01*
X34105671Y-32339030D01*
X34127850Y-32349520D01*
X34148893Y-32362132D01*
X34168599Y-32376747D01*
X34186777Y-32393223D01*
X34203253Y-32411401D01*
X34217868Y-32431107D01*
X34230480Y-32452150D01*
X34240970Y-32474329D01*
X34249235Y-32497428D01*
X34255196Y-32521227D01*
X34258796Y-32545495D01*
X34260000Y-32569999D01*
X34260000Y-33470001D01*
X34258796Y-33494505D01*
X34255196Y-33518773D01*
X34249235Y-33542572D01*
X34240970Y-33565671D01*
X34230480Y-33587850D01*
X34217868Y-33608893D01*
X34203253Y-33628599D01*
X34186777Y-33646777D01*
X34168599Y-33663253D01*
X34148893Y-33677868D01*
X34127850Y-33690480D01*
X34105671Y-33700970D01*
X34082572Y-33709235D01*
X34058773Y-33715196D01*
X34034505Y-33718796D01*
X34010001Y-33720000D01*
X33359999Y-33720000D01*
X33335495Y-33718796D01*
X33311227Y-33715196D01*
X33287428Y-33709235D01*
X33264329Y-33700970D01*
X33242150Y-33690480D01*
X33221107Y-33677868D01*
X33201401Y-33663253D01*
X33183223Y-33646777D01*
X33166747Y-33628599D01*
X33152132Y-33608893D01*
X33139520Y-33587850D01*
X33129030Y-33565671D01*
X33120765Y-33542572D01*
X33114804Y-33518773D01*
X33111204Y-33494505D01*
X33110000Y-33470001D01*
X33110000Y-32569999D01*
X33111204Y-32545495D01*
X33114804Y-32521227D01*
X33120765Y-32497428D01*
X33129030Y-32474329D01*
X33139520Y-32452150D01*
X33152132Y-32431107D01*
X33166747Y-32411401D01*
X33183223Y-32393223D01*
X33201401Y-32376747D01*
X33221107Y-32362132D01*
X33242150Y-32349520D01*
X33264329Y-32339030D01*
X33287428Y-32330765D01*
X33311227Y-32324804D01*
X33335495Y-32321204D01*
X33359999Y-32320000D01*
X34010001Y-32320000D01*
X34034505Y-32321204D01*
X34034505Y-32321204D01*
G37*
D11*
G04 #@! TD*
G04 #@! TO.P,R6,2*
G04 #@! TO.N,/En_VD*
X33685000Y-33020000D03*
D15*
G04 #@! TO.P,J2,2*
G04 #@! TO.N,/dut*
X41220000Y-19680000D03*
D16*
G04 #@! TO.P,J2,1*
G04 #@! TO.N,GND*
X38680000Y-19680000D03*
G04 #@! TD*
G04 #@! TO.P,J1,1*
G04 #@! TO.N,GND*
X30750000Y-19650000D03*
D15*
G04 #@! TO.P,J1,2*
G04 #@! TO.N,/Vbat*
X33290000Y-19650000D03*
G04 #@! TD*
D14*
G04 #@! TO.P,Q1,1*
G04 #@! TO.N,/Ctrl1*
X30350000Y-53020000D03*
G04 #@! TO.P,Q1,2*
G04 #@! TO.N,/Vbat*
X30350000Y-51120000D03*
G04 #@! TO.P,Q1,3*
G04 #@! TO.N,Net-(Q1-Pad3)*
X28350000Y-52070000D03*
G04 #@! TD*
G04 #@! TO.P,Q2,3*
G04 #@! TO.N,Net-(Q2-Pad3)*
X28350000Y-46990000D03*
G04 #@! TO.P,Q2,2*
G04 #@! TO.N,/Vbat*
X30350000Y-46040000D03*
G04 #@! TO.P,Q2,1*
G04 #@! TO.N,/Ctrl2*
X30350000Y-47940000D03*
G04 #@! TD*
G04 #@! TO.P,Q4,3*
G04 #@! TO.N,/dut*
X28630000Y-36830000D03*
G04 #@! TO.P,Q4,2*
G04 #@! TO.N,/Vbat*
X30630000Y-35880000D03*
G04 #@! TO.P,Q4,1*
G04 #@! TO.N,/Ctrl4*
X30630000Y-37780000D03*
G04 #@! TD*
D10*
G04 #@! TO.N,/Vcc*
G04 #@! TO.C,R1*
G36*
X36074505Y-44101204D02*
X36098773Y-44104804D01*
X36122572Y-44110765D01*
X36145671Y-44119030D01*
X36167850Y-44129520D01*
X36188893Y-44142132D01*
X36208599Y-44156747D01*
X36226777Y-44173223D01*
X36243253Y-44191401D01*
X36257868Y-44211107D01*
X36270480Y-44232150D01*
X36280970Y-44254329D01*
X36289235Y-44277428D01*
X36295196Y-44301227D01*
X36298796Y-44325495D01*
X36300000Y-44349999D01*
X36300000Y-45250001D01*
X36298796Y-45274505D01*
X36295196Y-45298773D01*
X36289235Y-45322572D01*
X36280970Y-45345671D01*
X36270480Y-45367850D01*
X36257868Y-45388893D01*
X36243253Y-45408599D01*
X36226777Y-45426777D01*
X36208599Y-45443253D01*
X36188893Y-45457868D01*
X36167850Y-45470480D01*
X36145671Y-45480970D01*
X36122572Y-45489235D01*
X36098773Y-45495196D01*
X36074505Y-45498796D01*
X36050001Y-45500000D01*
X35399999Y-45500000D01*
X35375495Y-45498796D01*
X35351227Y-45495196D01*
X35327428Y-45489235D01*
X35304329Y-45480970D01*
X35282150Y-45470480D01*
X35261107Y-45457868D01*
X35241401Y-45443253D01*
X35223223Y-45426777D01*
X35206747Y-45408599D01*
X35192132Y-45388893D01*
X35179520Y-45367850D01*
X35169030Y-45345671D01*
X35160765Y-45322572D01*
X35154804Y-45298773D01*
X35151204Y-45274505D01*
X35150000Y-45250001D01*
X35150000Y-44349999D01*
X35151204Y-44325495D01*
X35154804Y-44301227D01*
X35160765Y-44277428D01*
X35169030Y-44254329D01*
X35179520Y-44232150D01*
X35192132Y-44211107D01*
X35206747Y-44191401D01*
X35223223Y-44173223D01*
X35241401Y-44156747D01*
X35261107Y-44142132D01*
X35282150Y-44129520D01*
X35304329Y-44119030D01*
X35327428Y-44110765D01*
X35351227Y-44104804D01*
X35375495Y-44101204D01*
X35399999Y-44100000D01*
X36050001Y-44100000D01*
X36074505Y-44101204D01*
X36074505Y-44101204D01*
G37*
D11*
G04 #@! TD*
G04 #@! TO.P,R1,1*
G04 #@! TO.N,/Vcc*
X35725000Y-44800000D03*
D10*
G04 #@! TO.N,/Ctrl1*
G04 #@! TO.C,R1*
G36*
X34024505Y-44101204D02*
X34048773Y-44104804D01*
X34072572Y-44110765D01*
X34095671Y-44119030D01*
X34117850Y-44129520D01*
X34138893Y-44142132D01*
X34158599Y-44156747D01*
X34176777Y-44173223D01*
X34193253Y-44191401D01*
X34207868Y-44211107D01*
X34220480Y-44232150D01*
X34230970Y-44254329D01*
X34239235Y-44277428D01*
X34245196Y-44301227D01*
X34248796Y-44325495D01*
X34250000Y-44349999D01*
X34250000Y-45250001D01*
X34248796Y-45274505D01*
X34245196Y-45298773D01*
X34239235Y-45322572D01*
X34230970Y-45345671D01*
X34220480Y-45367850D01*
X34207868Y-45388893D01*
X34193253Y-45408599D01*
X34176777Y-45426777D01*
X34158599Y-45443253D01*
X34138893Y-45457868D01*
X34117850Y-45470480D01*
X34095671Y-45480970D01*
X34072572Y-45489235D01*
X34048773Y-45495196D01*
X34024505Y-45498796D01*
X34000001Y-45500000D01*
X33349999Y-45500000D01*
X33325495Y-45498796D01*
X33301227Y-45495196D01*
X33277428Y-45489235D01*
X33254329Y-45480970D01*
X33232150Y-45470480D01*
X33211107Y-45457868D01*
X33191401Y-45443253D01*
X33173223Y-45426777D01*
X33156747Y-45408599D01*
X33142132Y-45388893D01*
X33129520Y-45367850D01*
X33119030Y-45345671D01*
X33110765Y-45322572D01*
X33104804Y-45298773D01*
X33101204Y-45274505D01*
X33100000Y-45250001D01*
X33100000Y-44349999D01*
X33101204Y-44325495D01*
X33104804Y-44301227D01*
X33110765Y-44277428D01*
X33119030Y-44254329D01*
X33129520Y-44232150D01*
X33142132Y-44211107D01*
X33156747Y-44191401D01*
X33173223Y-44173223D01*
X33191401Y-44156747D01*
X33211107Y-44142132D01*
X33232150Y-44129520D01*
X33254329Y-44119030D01*
X33277428Y-44110765D01*
X33301227Y-44104804D01*
X33325495Y-44101204D01*
X33349999Y-44100000D01*
X34000001Y-44100000D01*
X34024505Y-44101204D01*
X34024505Y-44101204D01*
G37*
D11*
G04 #@! TD*
G04 #@! TO.P,R1,2*
G04 #@! TO.N,/Ctrl1*
X33675000Y-44800000D03*
D10*
G04 #@! TO.N,/Ctrl2*
G04 #@! TO.C,R3*
G36*
X34034505Y-41761204D02*
X34058773Y-41764804D01*
X34082572Y-41770765D01*
X34105671Y-41779030D01*
X34127850Y-41789520D01*
X34148893Y-41802132D01*
X34168599Y-41816747D01*
X34186777Y-41833223D01*
X34203253Y-41851401D01*
X34217868Y-41871107D01*
X34230480Y-41892150D01*
X34240970Y-41914329D01*
X34249235Y-41937428D01*
X34255196Y-41961227D01*
X34258796Y-41985495D01*
X34260000Y-42009999D01*
X34260000Y-42910001D01*
X34258796Y-42934505D01*
X34255196Y-42958773D01*
X34249235Y-42982572D01*
X34240970Y-43005671D01*
X34230480Y-43027850D01*
X34217868Y-43048893D01*
X34203253Y-43068599D01*
X34186777Y-43086777D01*
X34168599Y-43103253D01*
X34148893Y-43117868D01*
X34127850Y-43130480D01*
X34105671Y-43140970D01*
X34082572Y-43149235D01*
X34058773Y-43155196D01*
X34034505Y-43158796D01*
X34010001Y-43160000D01*
X33359999Y-43160000D01*
X33335495Y-43158796D01*
X33311227Y-43155196D01*
X33287428Y-43149235D01*
X33264329Y-43140970D01*
X33242150Y-43130480D01*
X33221107Y-43117868D01*
X33201401Y-43103253D01*
X33183223Y-43086777D01*
X33166747Y-43068599D01*
X33152132Y-43048893D01*
X33139520Y-43027850D01*
X33129030Y-43005671D01*
X33120765Y-42982572D01*
X33114804Y-42958773D01*
X33111204Y-42934505D01*
X33110000Y-42910001D01*
X33110000Y-42009999D01*
X33111204Y-41985495D01*
X33114804Y-41961227D01*
X33120765Y-41937428D01*
X33129030Y-41914329D01*
X33139520Y-41892150D01*
X33152132Y-41871107D01*
X33166747Y-41851401D01*
X33183223Y-41833223D01*
X33201401Y-41816747D01*
X33221107Y-41802132D01*
X33242150Y-41789520D01*
X33264329Y-41779030D01*
X33287428Y-41770765D01*
X33311227Y-41764804D01*
X33335495Y-41761204D01*
X33359999Y-41760000D01*
X34010001Y-41760000D01*
X34034505Y-41761204D01*
X34034505Y-41761204D01*
G37*
D11*
G04 #@! TD*
G04 #@! TO.P,R3,2*
G04 #@! TO.N,/Ctrl2*
X33685000Y-42460000D03*
D10*
G04 #@! TO.N,/Vcc*
G04 #@! TO.C,R3*
G36*
X36084505Y-41761204D02*
X36108773Y-41764804D01*
X36132572Y-41770765D01*
X36155671Y-41779030D01*
X36177850Y-41789520D01*
X36198893Y-41802132D01*
X36218599Y-41816747D01*
X36236777Y-41833223D01*
X36253253Y-41851401D01*
X36267868Y-41871107D01*
X36280480Y-41892150D01*
X36290970Y-41914329D01*
X36299235Y-41937428D01*
X36305196Y-41961227D01*
X36308796Y-41985495D01*
X36310000Y-42009999D01*
X36310000Y-42910001D01*
X36308796Y-42934505D01*
X36305196Y-42958773D01*
X36299235Y-42982572D01*
X36290970Y-43005671D01*
X36280480Y-43027850D01*
X36267868Y-43048893D01*
X36253253Y-43068599D01*
X36236777Y-43086777D01*
X36218599Y-43103253D01*
X36198893Y-43117868D01*
X36177850Y-43130480D01*
X36155671Y-43140970D01*
X36132572Y-43149235D01*
X36108773Y-43155196D01*
X36084505Y-43158796D01*
X36060001Y-43160000D01*
X35409999Y-43160000D01*
X35385495Y-43158796D01*
X35361227Y-43155196D01*
X35337428Y-43149235D01*
X35314329Y-43140970D01*
X35292150Y-43130480D01*
X35271107Y-43117868D01*
X35251401Y-43103253D01*
X35233223Y-43086777D01*
X35216747Y-43068599D01*
X35202132Y-43048893D01*
X35189520Y-43027850D01*
X35179030Y-43005671D01*
X35170765Y-42982572D01*
X35164804Y-42958773D01*
X35161204Y-42934505D01*
X35160000Y-42910001D01*
X35160000Y-42009999D01*
X35161204Y-41985495D01*
X35164804Y-41961227D01*
X35170765Y-41937428D01*
X35179030Y-41914329D01*
X35189520Y-41892150D01*
X35202132Y-41871107D01*
X35216747Y-41851401D01*
X35233223Y-41833223D01*
X35251401Y-41816747D01*
X35271107Y-41802132D01*
X35292150Y-41789520D01*
X35314329Y-41779030D01*
X35337428Y-41770765D01*
X35361227Y-41764804D01*
X35385495Y-41761204D01*
X35409999Y-41760000D01*
X36060001Y-41760000D01*
X36084505Y-41761204D01*
X36084505Y-41761204D01*
G37*
D11*
G04 #@! TD*
G04 #@! TO.P,R3,1*
G04 #@! TO.N,/Vcc*
X35735000Y-42460000D03*
D10*
G04 #@! TO.N,/Vcc*
G04 #@! TO.C,R4*
G36*
X36084505Y-39401204D02*
X36108773Y-39404804D01*
X36132572Y-39410765D01*
X36155671Y-39419030D01*
X36177850Y-39429520D01*
X36198893Y-39442132D01*
X36218599Y-39456747D01*
X36236777Y-39473223D01*
X36253253Y-39491401D01*
X36267868Y-39511107D01*
X36280480Y-39532150D01*
X36290970Y-39554329D01*
X36299235Y-39577428D01*
X36305196Y-39601227D01*
X36308796Y-39625495D01*
X36310000Y-39649999D01*
X36310000Y-40550001D01*
X36308796Y-40574505D01*
X36305196Y-40598773D01*
X36299235Y-40622572D01*
X36290970Y-40645671D01*
X36280480Y-40667850D01*
X36267868Y-40688893D01*
X36253253Y-40708599D01*
X36236777Y-40726777D01*
X36218599Y-40743253D01*
X36198893Y-40757868D01*
X36177850Y-40770480D01*
X36155671Y-40780970D01*
X36132572Y-40789235D01*
X36108773Y-40795196D01*
X36084505Y-40798796D01*
X36060001Y-40800000D01*
X35409999Y-40800000D01*
X35385495Y-40798796D01*
X35361227Y-40795196D01*
X35337428Y-40789235D01*
X35314329Y-40780970D01*
X35292150Y-40770480D01*
X35271107Y-40757868D01*
X35251401Y-40743253D01*
X35233223Y-40726777D01*
X35216747Y-40708599D01*
X35202132Y-40688893D01*
X35189520Y-40667850D01*
X35179030Y-40645671D01*
X35170765Y-40622572D01*
X35164804Y-40598773D01*
X35161204Y-40574505D01*
X35160000Y-40550001D01*
X35160000Y-39649999D01*
X35161204Y-39625495D01*
X35164804Y-39601227D01*
X35170765Y-39577428D01*
X35179030Y-39554329D01*
X35189520Y-39532150D01*
X35202132Y-39511107D01*
X35216747Y-39491401D01*
X35233223Y-39473223D01*
X35251401Y-39456747D01*
X35271107Y-39442132D01*
X35292150Y-39429520D01*
X35314329Y-39419030D01*
X35337428Y-39410765D01*
X35361227Y-39404804D01*
X35385495Y-39401204D01*
X35409999Y-39400000D01*
X36060001Y-39400000D01*
X36084505Y-39401204D01*
X36084505Y-39401204D01*
G37*
D11*
G04 #@! TD*
G04 #@! TO.P,R4,1*
G04 #@! TO.N,/Vcc*
X35735000Y-40100000D03*
D10*
G04 #@! TO.N,/Ctrl3*
G04 #@! TO.C,R4*
G36*
X34034505Y-39401204D02*
X34058773Y-39404804D01*
X34082572Y-39410765D01*
X34105671Y-39419030D01*
X34127850Y-39429520D01*
X34148893Y-39442132D01*
X34168599Y-39456747D01*
X34186777Y-39473223D01*
X34203253Y-39491401D01*
X34217868Y-39511107D01*
X34230480Y-39532150D01*
X34240970Y-39554329D01*
X34249235Y-39577428D01*
X34255196Y-39601227D01*
X34258796Y-39625495D01*
X34260000Y-39649999D01*
X34260000Y-40550001D01*
X34258796Y-40574505D01*
X34255196Y-40598773D01*
X34249235Y-40622572D01*
X34240970Y-40645671D01*
X34230480Y-40667850D01*
X34217868Y-40688893D01*
X34203253Y-40708599D01*
X34186777Y-40726777D01*
X34168599Y-40743253D01*
X34148893Y-40757868D01*
X34127850Y-40770480D01*
X34105671Y-40780970D01*
X34082572Y-40789235D01*
X34058773Y-40795196D01*
X34034505Y-40798796D01*
X34010001Y-40800000D01*
X33359999Y-40800000D01*
X33335495Y-40798796D01*
X33311227Y-40795196D01*
X33287428Y-40789235D01*
X33264329Y-40780970D01*
X33242150Y-40770480D01*
X33221107Y-40757868D01*
X33201401Y-40743253D01*
X33183223Y-40726777D01*
X33166747Y-40708599D01*
X33152132Y-40688893D01*
X33139520Y-40667850D01*
X33129030Y-40645671D01*
X33120765Y-40622572D01*
X33114804Y-40598773D01*
X33111204Y-40574505D01*
X33110000Y-40550001D01*
X33110000Y-39649999D01*
X33111204Y-39625495D01*
X33114804Y-39601227D01*
X33120765Y-39577428D01*
X33129030Y-39554329D01*
X33139520Y-39532150D01*
X33152132Y-39511107D01*
X33166747Y-39491401D01*
X33183223Y-39473223D01*
X33201401Y-39456747D01*
X33221107Y-39442132D01*
X33242150Y-39429520D01*
X33264329Y-39419030D01*
X33287428Y-39410765D01*
X33311227Y-39404804D01*
X33335495Y-39401204D01*
X33359999Y-39400000D01*
X34010001Y-39400000D01*
X34034505Y-39401204D01*
X34034505Y-39401204D01*
G37*
D11*
G04 #@! TD*
G04 #@! TO.P,R4,2*
G04 #@! TO.N,/Ctrl3*
X33685000Y-40100000D03*
D10*
G04 #@! TO.N,/Ctrl4*
G04 #@! TO.C,R5*
G36*
X34034505Y-37041204D02*
X34058773Y-37044804D01*
X34082572Y-37050765D01*
X34105671Y-37059030D01*
X34127850Y-37069520D01*
X34148893Y-37082132D01*
X34168599Y-37096747D01*
X34186777Y-37113223D01*
X34203253Y-37131401D01*
X34217868Y-37151107D01*
X34230480Y-37172150D01*
X34240970Y-37194329D01*
X34249235Y-37217428D01*
X34255196Y-37241227D01*
X34258796Y-37265495D01*
X34260000Y-37289999D01*
X34260000Y-38190001D01*
X34258796Y-38214505D01*
X34255196Y-38238773D01*
X34249235Y-38262572D01*
X34240970Y-38285671D01*
X34230480Y-38307850D01*
X34217868Y-38328893D01*
X34203253Y-38348599D01*
X34186777Y-38366777D01*
X34168599Y-38383253D01*
X34148893Y-38397868D01*
X34127850Y-38410480D01*
X34105671Y-38420970D01*
X34082572Y-38429235D01*
X34058773Y-38435196D01*
X34034505Y-38438796D01*
X34010001Y-38440000D01*
X33359999Y-38440000D01*
X33335495Y-38438796D01*
X33311227Y-38435196D01*
X33287428Y-38429235D01*
X33264329Y-38420970D01*
X33242150Y-38410480D01*
X33221107Y-38397868D01*
X33201401Y-38383253D01*
X33183223Y-38366777D01*
X33166747Y-38348599D01*
X33152132Y-38328893D01*
X33139520Y-38307850D01*
X33129030Y-38285671D01*
X33120765Y-38262572D01*
X33114804Y-38238773D01*
X33111204Y-38214505D01*
X33110000Y-38190001D01*
X33110000Y-37289999D01*
X33111204Y-37265495D01*
X33114804Y-37241227D01*
X33120765Y-37217428D01*
X33129030Y-37194329D01*
X33139520Y-37172150D01*
X33152132Y-37151107D01*
X33166747Y-37131401D01*
X33183223Y-37113223D01*
X33201401Y-37096747D01*
X33221107Y-37082132D01*
X33242150Y-37069520D01*
X33264329Y-37059030D01*
X33287428Y-37050765D01*
X33311227Y-37044804D01*
X33335495Y-37041204D01*
X33359999Y-37040000D01*
X34010001Y-37040000D01*
X34034505Y-37041204D01*
X34034505Y-37041204D01*
G37*
D11*
G04 #@! TD*
G04 #@! TO.P,R5,2*
G04 #@! TO.N,/Ctrl4*
X33685000Y-37740000D03*
D10*
G04 #@! TO.N,/Vcc*
G04 #@! TO.C,R5*
G36*
X36084505Y-37041204D02*
X36108773Y-37044804D01*
X36132572Y-37050765D01*
X36155671Y-37059030D01*
X36177850Y-37069520D01*
X36198893Y-37082132D01*
X36218599Y-37096747D01*
X36236777Y-37113223D01*
X36253253Y-37131401D01*
X36267868Y-37151107D01*
X36280480Y-37172150D01*
X36290970Y-37194329D01*
X36299235Y-37217428D01*
X36305196Y-37241227D01*
X36308796Y-37265495D01*
X36310000Y-37289999D01*
X36310000Y-38190001D01*
X36308796Y-38214505D01*
X36305196Y-38238773D01*
X36299235Y-38262572D01*
X36290970Y-38285671D01*
X36280480Y-38307850D01*
X36267868Y-38328893D01*
X36253253Y-38348599D01*
X36236777Y-38366777D01*
X36218599Y-38383253D01*
X36198893Y-38397868D01*
X36177850Y-38410480D01*
X36155671Y-38420970D01*
X36132572Y-38429235D01*
X36108773Y-38435196D01*
X36084505Y-38438796D01*
X36060001Y-38440000D01*
X35409999Y-38440000D01*
X35385495Y-38438796D01*
X35361227Y-38435196D01*
X35337428Y-38429235D01*
X35314329Y-38420970D01*
X35292150Y-38410480D01*
X35271107Y-38397868D01*
X35251401Y-38383253D01*
X35233223Y-38366777D01*
X35216747Y-38348599D01*
X35202132Y-38328893D01*
X35189520Y-38307850D01*
X35179030Y-38285671D01*
X35170765Y-38262572D01*
X35164804Y-38238773D01*
X35161204Y-38214505D01*
X35160000Y-38190001D01*
X35160000Y-37289999D01*
X35161204Y-37265495D01*
X35164804Y-37241227D01*
X35170765Y-37217428D01*
X35179030Y-37194329D01*
X35189520Y-37172150D01*
X35202132Y-37151107D01*
X35216747Y-37131401D01*
X35233223Y-37113223D01*
X35251401Y-37096747D01*
X35271107Y-37082132D01*
X35292150Y-37069520D01*
X35314329Y-37059030D01*
X35337428Y-37050765D01*
X35361227Y-37044804D01*
X35385495Y-37041204D01*
X35409999Y-37040000D01*
X36060001Y-37040000D01*
X36084505Y-37041204D01*
X36084505Y-37041204D01*
G37*
D11*
G04 #@! TD*
G04 #@! TO.P,R5,1*
G04 #@! TO.N,/Vcc*
X35735000Y-37740000D03*
D10*
G04 #@! TO.N,Net-(Q1-Pad3)*
G04 #@! TO.C,RL1*
G36*
X25694505Y-51301204D02*
X25718773Y-51304804D01*
X25742572Y-51310765D01*
X25765671Y-51319030D01*
X25787850Y-51329520D01*
X25808893Y-51342132D01*
X25828599Y-51356747D01*
X25846777Y-51373223D01*
X25863253Y-51391401D01*
X25877868Y-51411107D01*
X25890480Y-51432150D01*
X25900970Y-51454329D01*
X25909235Y-51477428D01*
X25915196Y-51501227D01*
X25918796Y-51525495D01*
X25920000Y-51549999D01*
X25920000Y-52450001D01*
X25918796Y-52474505D01*
X25915196Y-52498773D01*
X25909235Y-52522572D01*
X25900970Y-52545671D01*
X25890480Y-52567850D01*
X25877868Y-52588893D01*
X25863253Y-52608599D01*
X25846777Y-52626777D01*
X25828599Y-52643253D01*
X25808893Y-52657868D01*
X25787850Y-52670480D01*
X25765671Y-52680970D01*
X25742572Y-52689235D01*
X25718773Y-52695196D01*
X25694505Y-52698796D01*
X25670001Y-52700000D01*
X25019999Y-52700000D01*
X24995495Y-52698796D01*
X24971227Y-52695196D01*
X24947428Y-52689235D01*
X24924329Y-52680970D01*
X24902150Y-52670480D01*
X24881107Y-52657868D01*
X24861401Y-52643253D01*
X24843223Y-52626777D01*
X24826747Y-52608599D01*
X24812132Y-52588893D01*
X24799520Y-52567850D01*
X24789030Y-52545671D01*
X24780765Y-52522572D01*
X24774804Y-52498773D01*
X24771204Y-52474505D01*
X24770000Y-52450001D01*
X24770000Y-51549999D01*
X24771204Y-51525495D01*
X24774804Y-51501227D01*
X24780765Y-51477428D01*
X24789030Y-51454329D01*
X24799520Y-51432150D01*
X24812132Y-51411107D01*
X24826747Y-51391401D01*
X24843223Y-51373223D01*
X24861401Y-51356747D01*
X24881107Y-51342132D01*
X24902150Y-51329520D01*
X24924329Y-51319030D01*
X24947428Y-51310765D01*
X24971227Y-51304804D01*
X24995495Y-51301204D01*
X25019999Y-51300000D01*
X25670001Y-51300000D01*
X25694505Y-51301204D01*
X25694505Y-51301204D01*
G37*
D11*
G04 #@! TD*
G04 #@! TO.P,RL1,1*
G04 #@! TO.N,Net-(Q1-Pad3)*
X25345000Y-52000000D03*
D10*
G04 #@! TO.N,Net-(RL1-Pad2)*
G04 #@! TO.C,RL1*
G36*
X23644505Y-51301204D02*
X23668773Y-51304804D01*
X23692572Y-51310765D01*
X23715671Y-51319030D01*
X23737850Y-51329520D01*
X23758893Y-51342132D01*
X23778599Y-51356747D01*
X23796777Y-51373223D01*
X23813253Y-51391401D01*
X23827868Y-51411107D01*
X23840480Y-51432150D01*
X23850970Y-51454329D01*
X23859235Y-51477428D01*
X23865196Y-51501227D01*
X23868796Y-51525495D01*
X23870000Y-51549999D01*
X23870000Y-52450001D01*
X23868796Y-52474505D01*
X23865196Y-52498773D01*
X23859235Y-52522572D01*
X23850970Y-52545671D01*
X23840480Y-52567850D01*
X23827868Y-52588893D01*
X23813253Y-52608599D01*
X23796777Y-52626777D01*
X23778599Y-52643253D01*
X23758893Y-52657868D01*
X23737850Y-52670480D01*
X23715671Y-52680970D01*
X23692572Y-52689235D01*
X23668773Y-52695196D01*
X23644505Y-52698796D01*
X23620001Y-52700000D01*
X22969999Y-52700000D01*
X22945495Y-52698796D01*
X22921227Y-52695196D01*
X22897428Y-52689235D01*
X22874329Y-52680970D01*
X22852150Y-52670480D01*
X22831107Y-52657868D01*
X22811401Y-52643253D01*
X22793223Y-52626777D01*
X22776747Y-52608599D01*
X22762132Y-52588893D01*
X22749520Y-52567850D01*
X22739030Y-52545671D01*
X22730765Y-52522572D01*
X22724804Y-52498773D01*
X22721204Y-52474505D01*
X22720000Y-52450001D01*
X22720000Y-51549999D01*
X22721204Y-51525495D01*
X22724804Y-51501227D01*
X22730765Y-51477428D01*
X22739030Y-51454329D01*
X22749520Y-51432150D01*
X22762132Y-51411107D01*
X22776747Y-51391401D01*
X22793223Y-51373223D01*
X22811401Y-51356747D01*
X22831107Y-51342132D01*
X22852150Y-51329520D01*
X22874329Y-51319030D01*
X22897428Y-51310765D01*
X22921227Y-51304804D01*
X22945495Y-51301204D01*
X22969999Y-51300000D01*
X23620001Y-51300000D01*
X23644505Y-51301204D01*
X23644505Y-51301204D01*
G37*
D11*
G04 #@! TD*
G04 #@! TO.P,RL1,2*
G04 #@! TO.N,Net-(RL1-Pad2)*
X23295000Y-52000000D03*
D10*
G04 #@! TO.N,GND*
G04 #@! TO.C,RL2*
G36*
X23644505Y-49001204D02*
X23668773Y-49004804D01*
X23692572Y-49010765D01*
X23715671Y-49019030D01*
X23737850Y-49029520D01*
X23758893Y-49042132D01*
X23778599Y-49056747D01*
X23796777Y-49073223D01*
X23813253Y-49091401D01*
X23827868Y-49111107D01*
X23840480Y-49132150D01*
X23850970Y-49154329D01*
X23859235Y-49177428D01*
X23865196Y-49201227D01*
X23868796Y-49225495D01*
X23870000Y-49249999D01*
X23870000Y-50150001D01*
X23868796Y-50174505D01*
X23865196Y-50198773D01*
X23859235Y-50222572D01*
X23850970Y-50245671D01*
X23840480Y-50267850D01*
X23827868Y-50288893D01*
X23813253Y-50308599D01*
X23796777Y-50326777D01*
X23778599Y-50343253D01*
X23758893Y-50357868D01*
X23737850Y-50370480D01*
X23715671Y-50380970D01*
X23692572Y-50389235D01*
X23668773Y-50395196D01*
X23644505Y-50398796D01*
X23620001Y-50400000D01*
X22969999Y-50400000D01*
X22945495Y-50398796D01*
X22921227Y-50395196D01*
X22897428Y-50389235D01*
X22874329Y-50380970D01*
X22852150Y-50370480D01*
X22831107Y-50357868D01*
X22811401Y-50343253D01*
X22793223Y-50326777D01*
X22776747Y-50308599D01*
X22762132Y-50288893D01*
X22749520Y-50267850D01*
X22739030Y-50245671D01*
X22730765Y-50222572D01*
X22724804Y-50198773D01*
X22721204Y-50174505D01*
X22720000Y-50150001D01*
X22720000Y-49249999D01*
X22721204Y-49225495D01*
X22724804Y-49201227D01*
X22730765Y-49177428D01*
X22739030Y-49154329D01*
X22749520Y-49132150D01*
X22762132Y-49111107D01*
X22776747Y-49091401D01*
X22793223Y-49073223D01*
X22811401Y-49056747D01*
X22831107Y-49042132D01*
X22852150Y-49029520D01*
X22874329Y-49019030D01*
X22897428Y-49010765D01*
X22921227Y-49004804D01*
X22945495Y-49001204D01*
X22969999Y-49000000D01*
X23620001Y-49000000D01*
X23644505Y-49001204D01*
X23644505Y-49001204D01*
G37*
D11*
G04 #@! TD*
G04 #@! TO.P,RL2,2*
G04 #@! TO.N,GND*
X23295000Y-49700000D03*
D10*
G04 #@! TO.N,Net-(RL1-Pad2)*
G04 #@! TO.C,RL2*
G36*
X25694505Y-49001204D02*
X25718773Y-49004804D01*
X25742572Y-49010765D01*
X25765671Y-49019030D01*
X25787850Y-49029520D01*
X25808893Y-49042132D01*
X25828599Y-49056747D01*
X25846777Y-49073223D01*
X25863253Y-49091401D01*
X25877868Y-49111107D01*
X25890480Y-49132150D01*
X25900970Y-49154329D01*
X25909235Y-49177428D01*
X25915196Y-49201227D01*
X25918796Y-49225495D01*
X25920000Y-49249999D01*
X25920000Y-50150001D01*
X25918796Y-50174505D01*
X25915196Y-50198773D01*
X25909235Y-50222572D01*
X25900970Y-50245671D01*
X25890480Y-50267850D01*
X25877868Y-50288893D01*
X25863253Y-50308599D01*
X25846777Y-50326777D01*
X25828599Y-50343253D01*
X25808893Y-50357868D01*
X25787850Y-50370480D01*
X25765671Y-50380970D01*
X25742572Y-50389235D01*
X25718773Y-50395196D01*
X25694505Y-50398796D01*
X25670001Y-50400000D01*
X25019999Y-50400000D01*
X24995495Y-50398796D01*
X24971227Y-50395196D01*
X24947428Y-50389235D01*
X24924329Y-50380970D01*
X24902150Y-50370480D01*
X24881107Y-50357868D01*
X24861401Y-50343253D01*
X24843223Y-50326777D01*
X24826747Y-50308599D01*
X24812132Y-50288893D01*
X24799520Y-50267850D01*
X24789030Y-50245671D01*
X24780765Y-50222572D01*
X24774804Y-50198773D01*
X24771204Y-50174505D01*
X24770000Y-50150001D01*
X24770000Y-49249999D01*
X24771204Y-49225495D01*
X24774804Y-49201227D01*
X24780765Y-49177428D01*
X24789030Y-49154329D01*
X24799520Y-49132150D01*
X24812132Y-49111107D01*
X24826747Y-49091401D01*
X24843223Y-49073223D01*
X24861401Y-49056747D01*
X24881107Y-49042132D01*
X24902150Y-49029520D01*
X24924329Y-49019030D01*
X24947428Y-49010765D01*
X24971227Y-49004804D01*
X24995495Y-49001204D01*
X25019999Y-49000000D01*
X25670001Y-49000000D01*
X25694505Y-49001204D01*
X25694505Y-49001204D01*
G37*
D11*
G04 #@! TD*
G04 #@! TO.P,RL2,1*
G04 #@! TO.N,Net-(RL1-Pad2)*
X25345000Y-49700000D03*
D10*
G04 #@! TO.N,Net-(Q2-Pad3)*
G04 #@! TO.C,RL3*
G36*
X25704505Y-46631204D02*
X25728773Y-46634804D01*
X25752572Y-46640765D01*
X25775671Y-46649030D01*
X25797850Y-46659520D01*
X25818893Y-46672132D01*
X25838599Y-46686747D01*
X25856777Y-46703223D01*
X25873253Y-46721401D01*
X25887868Y-46741107D01*
X25900480Y-46762150D01*
X25910970Y-46784329D01*
X25919235Y-46807428D01*
X25925196Y-46831227D01*
X25928796Y-46855495D01*
X25930000Y-46879999D01*
X25930000Y-47780001D01*
X25928796Y-47804505D01*
X25925196Y-47828773D01*
X25919235Y-47852572D01*
X25910970Y-47875671D01*
X25900480Y-47897850D01*
X25887868Y-47918893D01*
X25873253Y-47938599D01*
X25856777Y-47956777D01*
X25838599Y-47973253D01*
X25818893Y-47987868D01*
X25797850Y-48000480D01*
X25775671Y-48010970D01*
X25752572Y-48019235D01*
X25728773Y-48025196D01*
X25704505Y-48028796D01*
X25680001Y-48030000D01*
X25029999Y-48030000D01*
X25005495Y-48028796D01*
X24981227Y-48025196D01*
X24957428Y-48019235D01*
X24934329Y-48010970D01*
X24912150Y-48000480D01*
X24891107Y-47987868D01*
X24871401Y-47973253D01*
X24853223Y-47956777D01*
X24836747Y-47938599D01*
X24822132Y-47918893D01*
X24809520Y-47897850D01*
X24799030Y-47875671D01*
X24790765Y-47852572D01*
X24784804Y-47828773D01*
X24781204Y-47804505D01*
X24780000Y-47780001D01*
X24780000Y-46879999D01*
X24781204Y-46855495D01*
X24784804Y-46831227D01*
X24790765Y-46807428D01*
X24799030Y-46784329D01*
X24809520Y-46762150D01*
X24822132Y-46741107D01*
X24836747Y-46721401D01*
X24853223Y-46703223D01*
X24871401Y-46686747D01*
X24891107Y-46672132D01*
X24912150Y-46659520D01*
X24934329Y-46649030D01*
X24957428Y-46640765D01*
X24981227Y-46634804D01*
X25005495Y-46631204D01*
X25029999Y-46630000D01*
X25680001Y-46630000D01*
X25704505Y-46631204D01*
X25704505Y-46631204D01*
G37*
D11*
G04 #@! TD*
G04 #@! TO.P,RL3,1*
G04 #@! TO.N,Net-(Q2-Pad3)*
X25355000Y-47330000D03*
D10*
G04 #@! TO.N,GND*
G04 #@! TO.C,RL3*
G36*
X23654505Y-46631204D02*
X23678773Y-46634804D01*
X23702572Y-46640765D01*
X23725671Y-46649030D01*
X23747850Y-46659520D01*
X23768893Y-46672132D01*
X23788599Y-46686747D01*
X23806777Y-46703223D01*
X23823253Y-46721401D01*
X23837868Y-46741107D01*
X23850480Y-46762150D01*
X23860970Y-46784329D01*
X23869235Y-46807428D01*
X23875196Y-46831227D01*
X23878796Y-46855495D01*
X23880000Y-46879999D01*
X23880000Y-47780001D01*
X23878796Y-47804505D01*
X23875196Y-47828773D01*
X23869235Y-47852572D01*
X23860970Y-47875671D01*
X23850480Y-47897850D01*
X23837868Y-47918893D01*
X23823253Y-47938599D01*
X23806777Y-47956777D01*
X23788599Y-47973253D01*
X23768893Y-47987868D01*
X23747850Y-48000480D01*
X23725671Y-48010970D01*
X23702572Y-48019235D01*
X23678773Y-48025196D01*
X23654505Y-48028796D01*
X23630001Y-48030000D01*
X22979999Y-48030000D01*
X22955495Y-48028796D01*
X22931227Y-48025196D01*
X22907428Y-48019235D01*
X22884329Y-48010970D01*
X22862150Y-48000480D01*
X22841107Y-47987868D01*
X22821401Y-47973253D01*
X22803223Y-47956777D01*
X22786747Y-47938599D01*
X22772132Y-47918893D01*
X22759520Y-47897850D01*
X22749030Y-47875671D01*
X22740765Y-47852572D01*
X22734804Y-47828773D01*
X22731204Y-47804505D01*
X22730000Y-47780001D01*
X22730000Y-46879999D01*
X22731204Y-46855495D01*
X22734804Y-46831227D01*
X22740765Y-46807428D01*
X22749030Y-46784329D01*
X22759520Y-46762150D01*
X22772132Y-46741107D01*
X22786747Y-46721401D01*
X22803223Y-46703223D01*
X22821401Y-46686747D01*
X22841107Y-46672132D01*
X22862150Y-46659520D01*
X22884329Y-46649030D01*
X22907428Y-46640765D01*
X22931227Y-46634804D01*
X22955495Y-46631204D01*
X22979999Y-46630000D01*
X23630001Y-46630000D01*
X23654505Y-46631204D01*
X23654505Y-46631204D01*
G37*
D11*
G04 #@! TD*
G04 #@! TO.P,RL3,2*
G04 #@! TO.N,GND*
X23305000Y-47330000D03*
D10*
G04 #@! TO.N,/Vcc*
G04 #@! TO.C,R2*
G36*
X36084505Y-34681204D02*
X36108773Y-34684804D01*
X36132572Y-34690765D01*
X36155671Y-34699030D01*
X36177850Y-34709520D01*
X36198893Y-34722132D01*
X36218599Y-34736747D01*
X36236777Y-34753223D01*
X36253253Y-34771401D01*
X36267868Y-34791107D01*
X36280480Y-34812150D01*
X36290970Y-34834329D01*
X36299235Y-34857428D01*
X36305196Y-34881227D01*
X36308796Y-34905495D01*
X36310000Y-34929999D01*
X36310000Y-35830001D01*
X36308796Y-35854505D01*
X36305196Y-35878773D01*
X36299235Y-35902572D01*
X36290970Y-35925671D01*
X36280480Y-35947850D01*
X36267868Y-35968893D01*
X36253253Y-35988599D01*
X36236777Y-36006777D01*
X36218599Y-36023253D01*
X36198893Y-36037868D01*
X36177850Y-36050480D01*
X36155671Y-36060970D01*
X36132572Y-36069235D01*
X36108773Y-36075196D01*
X36084505Y-36078796D01*
X36060001Y-36080000D01*
X35409999Y-36080000D01*
X35385495Y-36078796D01*
X35361227Y-36075196D01*
X35337428Y-36069235D01*
X35314329Y-36060970D01*
X35292150Y-36050480D01*
X35271107Y-36037868D01*
X35251401Y-36023253D01*
X35233223Y-36006777D01*
X35216747Y-35988599D01*
X35202132Y-35968893D01*
X35189520Y-35947850D01*
X35179030Y-35925671D01*
X35170765Y-35902572D01*
X35164804Y-35878773D01*
X35161204Y-35854505D01*
X35160000Y-35830001D01*
X35160000Y-34929999D01*
X35161204Y-34905495D01*
X35164804Y-34881227D01*
X35170765Y-34857428D01*
X35179030Y-34834329D01*
X35189520Y-34812150D01*
X35202132Y-34791107D01*
X35216747Y-34771401D01*
X35233223Y-34753223D01*
X35251401Y-34736747D01*
X35271107Y-34722132D01*
X35292150Y-34709520D01*
X35314329Y-34699030D01*
X35337428Y-34690765D01*
X35361227Y-34684804D01*
X35385495Y-34681204D01*
X35409999Y-34680000D01*
X36060001Y-34680000D01*
X36084505Y-34681204D01*
X36084505Y-34681204D01*
G37*
D11*
G04 #@! TD*
G04 #@! TO.P,R2,1*
G04 #@! TO.N,/Vcc*
X35735000Y-35380000D03*
D10*
G04 #@! TO.N,Net-(D1-Pad2)*
G04 #@! TO.C,R2*
G36*
X34034505Y-34681204D02*
X34058773Y-34684804D01*
X34082572Y-34690765D01*
X34105671Y-34699030D01*
X34127850Y-34709520D01*
X34148893Y-34722132D01*
X34168599Y-34736747D01*
X34186777Y-34753223D01*
X34203253Y-34771401D01*
X34217868Y-34791107D01*
X34230480Y-34812150D01*
X34240970Y-34834329D01*
X34249235Y-34857428D01*
X34255196Y-34881227D01*
X34258796Y-34905495D01*
X34260000Y-34929999D01*
X34260000Y-35830001D01*
X34258796Y-35854505D01*
X34255196Y-35878773D01*
X34249235Y-35902572D01*
X34240970Y-35925671D01*
X34230480Y-35947850D01*
X34217868Y-35968893D01*
X34203253Y-35988599D01*
X34186777Y-36006777D01*
X34168599Y-36023253D01*
X34148893Y-36037868D01*
X34127850Y-36050480D01*
X34105671Y-36060970D01*
X34082572Y-36069235D01*
X34058773Y-36075196D01*
X34034505Y-36078796D01*
X34010001Y-36080000D01*
X33359999Y-36080000D01*
X33335495Y-36078796D01*
X33311227Y-36075196D01*
X33287428Y-36069235D01*
X33264329Y-36060970D01*
X33242150Y-36050480D01*
X33221107Y-36037868D01*
X33201401Y-36023253D01*
X33183223Y-36006777D01*
X33166747Y-35988599D01*
X33152132Y-35968893D01*
X33139520Y-35947850D01*
X33129030Y-35925671D01*
X33120765Y-35902572D01*
X33114804Y-35878773D01*
X33111204Y-35854505D01*
X33110000Y-35830001D01*
X33110000Y-34929999D01*
X33111204Y-34905495D01*
X33114804Y-34881227D01*
X33120765Y-34857428D01*
X33129030Y-34834329D01*
X33139520Y-34812150D01*
X33152132Y-34791107D01*
X33166747Y-34771401D01*
X33183223Y-34753223D01*
X33201401Y-34736747D01*
X33221107Y-34722132D01*
X33242150Y-34709520D01*
X33264329Y-34699030D01*
X33287428Y-34690765D01*
X33311227Y-34684804D01*
X33335495Y-34681204D01*
X33359999Y-34680000D01*
X34010001Y-34680000D01*
X34034505Y-34681204D01*
X34034505Y-34681204D01*
G37*
D11*
G04 #@! TD*
G04 #@! TO.P,R2,2*
G04 #@! TO.N,Net-(D1-Pad2)*
X33685000Y-35380000D03*
D10*
G04 #@! TO.N,Net-(Q5-Pad3)*
G04 #@! TO.C,R9*
G36*
X25105779Y-26916144D02*
X25128834Y-26919563D01*
X25151443Y-26925227D01*
X25173387Y-26933079D01*
X25194457Y-26943044D01*
X25214448Y-26955026D01*
X25233168Y-26968910D01*
X25250438Y-26984562D01*
X25266090Y-27001832D01*
X25279974Y-27020552D01*
X25291956Y-27040543D01*
X25301921Y-27061613D01*
X25309773Y-27083557D01*
X25315437Y-27106166D01*
X25318856Y-27129221D01*
X25320000Y-27152500D01*
X25320000Y-27627500D01*
X25318856Y-27650779D01*
X25315437Y-27673834D01*
X25309773Y-27696443D01*
X25301921Y-27718387D01*
X25291956Y-27739457D01*
X25279974Y-27759448D01*
X25266090Y-27778168D01*
X25250438Y-27795438D01*
X25233168Y-27811090D01*
X25214448Y-27824974D01*
X25194457Y-27836956D01*
X25173387Y-27846921D01*
X25151443Y-27854773D01*
X25128834Y-27860437D01*
X25105779Y-27863856D01*
X25082500Y-27865000D01*
X24507500Y-27865000D01*
X24484221Y-27863856D01*
X24461166Y-27860437D01*
X24438557Y-27854773D01*
X24416613Y-27846921D01*
X24395543Y-27836956D01*
X24375552Y-27824974D01*
X24356832Y-27811090D01*
X24339562Y-27795438D01*
X24323910Y-27778168D01*
X24310026Y-27759448D01*
X24298044Y-27739457D01*
X24288079Y-27718387D01*
X24280227Y-27696443D01*
X24274563Y-27673834D01*
X24271144Y-27650779D01*
X24270000Y-27627500D01*
X24270000Y-27152500D01*
X24271144Y-27129221D01*
X24274563Y-27106166D01*
X24280227Y-27083557D01*
X24288079Y-27061613D01*
X24298044Y-27040543D01*
X24310026Y-27020552D01*
X24323910Y-27001832D01*
X24339562Y-26984562D01*
X24356832Y-26968910D01*
X24375552Y-26955026D01*
X24395543Y-26943044D01*
X24416613Y-26933079D01*
X24438557Y-26925227D01*
X24461166Y-26919563D01*
X24484221Y-26916144D01*
X24507500Y-26915000D01*
X25082500Y-26915000D01*
X25105779Y-26916144D01*
X25105779Y-26916144D01*
G37*
D17*
G04 #@! TD*
G04 #@! TO.P,R9,2*
G04 #@! TO.N,Net-(Q5-Pad3)*
X24795000Y-27390000D03*
D10*
G04 #@! TO.N,/Vin*
G04 #@! TO.C,R9*
G36*
X23355779Y-26916144D02*
X23378834Y-26919563D01*
X23401443Y-26925227D01*
X23423387Y-26933079D01*
X23444457Y-26943044D01*
X23464448Y-26955026D01*
X23483168Y-26968910D01*
X23500438Y-26984562D01*
X23516090Y-27001832D01*
X23529974Y-27020552D01*
X23541956Y-27040543D01*
X23551921Y-27061613D01*
X23559773Y-27083557D01*
X23565437Y-27106166D01*
X23568856Y-27129221D01*
X23570000Y-27152500D01*
X23570000Y-27627500D01*
X23568856Y-27650779D01*
X23565437Y-27673834D01*
X23559773Y-27696443D01*
X23551921Y-27718387D01*
X23541956Y-27739457D01*
X23529974Y-27759448D01*
X23516090Y-27778168D01*
X23500438Y-27795438D01*
X23483168Y-27811090D01*
X23464448Y-27824974D01*
X23444457Y-27836956D01*
X23423387Y-27846921D01*
X23401443Y-27854773D01*
X23378834Y-27860437D01*
X23355779Y-27863856D01*
X23332500Y-27865000D01*
X22757500Y-27865000D01*
X22734221Y-27863856D01*
X22711166Y-27860437D01*
X22688557Y-27854773D01*
X22666613Y-27846921D01*
X22645543Y-27836956D01*
X22625552Y-27824974D01*
X22606832Y-27811090D01*
X22589562Y-27795438D01*
X22573910Y-27778168D01*
X22560026Y-27759448D01*
X22548044Y-27739457D01*
X22538079Y-27718387D01*
X22530227Y-27696443D01*
X22524563Y-27673834D01*
X22521144Y-27650779D01*
X22520000Y-27627500D01*
X22520000Y-27152500D01*
X22521144Y-27129221D01*
X22524563Y-27106166D01*
X22530227Y-27083557D01*
X22538079Y-27061613D01*
X22548044Y-27040543D01*
X22560026Y-27020552D01*
X22573910Y-27001832D01*
X22589562Y-26984562D01*
X22606832Y-26968910D01*
X22625552Y-26955026D01*
X22645543Y-26943044D01*
X22666613Y-26933079D01*
X22688557Y-26925227D01*
X22711166Y-26919563D01*
X22734221Y-26916144D01*
X22757500Y-26915000D01*
X23332500Y-26915000D01*
X23355779Y-26916144D01*
X23355779Y-26916144D01*
G37*
D17*
G04 #@! TD*
G04 #@! TO.P,R9,1*
G04 #@! TO.N,/Vin*
X23045000Y-27390000D03*
D10*
G04 #@! TO.N,/Vin*
G04 #@! TO.C,R8*
G36*
X23355779Y-28806144D02*
X23378834Y-28809563D01*
X23401443Y-28815227D01*
X23423387Y-28823079D01*
X23444457Y-28833044D01*
X23464448Y-28845026D01*
X23483168Y-28858910D01*
X23500438Y-28874562D01*
X23516090Y-28891832D01*
X23529974Y-28910552D01*
X23541956Y-28930543D01*
X23551921Y-28951613D01*
X23559773Y-28973557D01*
X23565437Y-28996166D01*
X23568856Y-29019221D01*
X23570000Y-29042500D01*
X23570000Y-29517500D01*
X23568856Y-29540779D01*
X23565437Y-29563834D01*
X23559773Y-29586443D01*
X23551921Y-29608387D01*
X23541956Y-29629457D01*
X23529974Y-29649448D01*
X23516090Y-29668168D01*
X23500438Y-29685438D01*
X23483168Y-29701090D01*
X23464448Y-29714974D01*
X23444457Y-29726956D01*
X23423387Y-29736921D01*
X23401443Y-29744773D01*
X23378834Y-29750437D01*
X23355779Y-29753856D01*
X23332500Y-29755000D01*
X22757500Y-29755000D01*
X22734221Y-29753856D01*
X22711166Y-29750437D01*
X22688557Y-29744773D01*
X22666613Y-29736921D01*
X22645543Y-29726956D01*
X22625552Y-29714974D01*
X22606832Y-29701090D01*
X22589562Y-29685438D01*
X22573910Y-29668168D01*
X22560026Y-29649448D01*
X22548044Y-29629457D01*
X22538079Y-29608387D01*
X22530227Y-29586443D01*
X22524563Y-29563834D01*
X22521144Y-29540779D01*
X22520000Y-29517500D01*
X22520000Y-29042500D01*
X22521144Y-29019221D01*
X22524563Y-28996166D01*
X22530227Y-28973557D01*
X22538079Y-28951613D01*
X22548044Y-28930543D01*
X22560026Y-28910552D01*
X22573910Y-28891832D01*
X22589562Y-28874562D01*
X22606832Y-28858910D01*
X22625552Y-28845026D01*
X22645543Y-28833044D01*
X22666613Y-28823079D01*
X22688557Y-28815227D01*
X22711166Y-28809563D01*
X22734221Y-28806144D01*
X22757500Y-28805000D01*
X23332500Y-28805000D01*
X23355779Y-28806144D01*
X23355779Y-28806144D01*
G37*
D17*
G04 #@! TD*
G04 #@! TO.P,R8,2*
G04 #@! TO.N,/Vin*
X23045000Y-29280000D03*
D10*
G04 #@! TO.N,Net-(R7-Pad2)*
G04 #@! TO.C,R8*
G36*
X25105779Y-28806144D02*
X25128834Y-28809563D01*
X25151443Y-28815227D01*
X25173387Y-28823079D01*
X25194457Y-28833044D01*
X25214448Y-28845026D01*
X25233168Y-28858910D01*
X25250438Y-28874562D01*
X25266090Y-28891832D01*
X25279974Y-28910552D01*
X25291956Y-28930543D01*
X25301921Y-28951613D01*
X25309773Y-28973557D01*
X25315437Y-28996166D01*
X25318856Y-29019221D01*
X25320000Y-29042500D01*
X25320000Y-29517500D01*
X25318856Y-29540779D01*
X25315437Y-29563834D01*
X25309773Y-29586443D01*
X25301921Y-29608387D01*
X25291956Y-29629457D01*
X25279974Y-29649448D01*
X25266090Y-29668168D01*
X25250438Y-29685438D01*
X25233168Y-29701090D01*
X25214448Y-29714974D01*
X25194457Y-29726956D01*
X25173387Y-29736921D01*
X25151443Y-29744773D01*
X25128834Y-29750437D01*
X25105779Y-29753856D01*
X25082500Y-29755000D01*
X24507500Y-29755000D01*
X24484221Y-29753856D01*
X24461166Y-29750437D01*
X24438557Y-29744773D01*
X24416613Y-29736921D01*
X24395543Y-29726956D01*
X24375552Y-29714974D01*
X24356832Y-29701090D01*
X24339562Y-29685438D01*
X24323910Y-29668168D01*
X24310026Y-29649448D01*
X24298044Y-29629457D01*
X24288079Y-29608387D01*
X24280227Y-29586443D01*
X24274563Y-29563834D01*
X24271144Y-29540779D01*
X24270000Y-29517500D01*
X24270000Y-29042500D01*
X24271144Y-29019221D01*
X24274563Y-28996166D01*
X24280227Y-28973557D01*
X24288079Y-28951613D01*
X24298044Y-28930543D01*
X24310026Y-28910552D01*
X24323910Y-28891832D01*
X24339562Y-28874562D01*
X24356832Y-28858910D01*
X24375552Y-28845026D01*
X24395543Y-28833044D01*
X24416613Y-28823079D01*
X24438557Y-28815227D01*
X24461166Y-28809563D01*
X24484221Y-28806144D01*
X24507500Y-28805000D01*
X25082500Y-28805000D01*
X25105779Y-28806144D01*
X25105779Y-28806144D01*
G37*
D17*
G04 #@! TD*
G04 #@! TO.P,R8,1*
G04 #@! TO.N,Net-(R7-Pad2)*
X24795000Y-29280000D03*
D10*
G04 #@! TO.N,Net-(R7-Pad2)*
G04 #@! TO.C,R7*
G36*
X23355779Y-30706144D02*
X23378834Y-30709563D01*
X23401443Y-30715227D01*
X23423387Y-30723079D01*
X23444457Y-30733044D01*
X23464448Y-30745026D01*
X23483168Y-30758910D01*
X23500438Y-30774562D01*
X23516090Y-30791832D01*
X23529974Y-30810552D01*
X23541956Y-30830543D01*
X23551921Y-30851613D01*
X23559773Y-30873557D01*
X23565437Y-30896166D01*
X23568856Y-30919221D01*
X23570000Y-30942500D01*
X23570000Y-31417500D01*
X23568856Y-31440779D01*
X23565437Y-31463834D01*
X23559773Y-31486443D01*
X23551921Y-31508387D01*
X23541956Y-31529457D01*
X23529974Y-31549448D01*
X23516090Y-31568168D01*
X23500438Y-31585438D01*
X23483168Y-31601090D01*
X23464448Y-31614974D01*
X23444457Y-31626956D01*
X23423387Y-31636921D01*
X23401443Y-31644773D01*
X23378834Y-31650437D01*
X23355779Y-31653856D01*
X23332500Y-31655000D01*
X22757500Y-31655000D01*
X22734221Y-31653856D01*
X22711166Y-31650437D01*
X22688557Y-31644773D01*
X22666613Y-31636921D01*
X22645543Y-31626956D01*
X22625552Y-31614974D01*
X22606832Y-31601090D01*
X22589562Y-31585438D01*
X22573910Y-31568168D01*
X22560026Y-31549448D01*
X22548044Y-31529457D01*
X22538079Y-31508387D01*
X22530227Y-31486443D01*
X22524563Y-31463834D01*
X22521144Y-31440779D01*
X22520000Y-31417500D01*
X22520000Y-30942500D01*
X22521144Y-30919221D01*
X22524563Y-30896166D01*
X22530227Y-30873557D01*
X22538079Y-30851613D01*
X22548044Y-30830543D01*
X22560026Y-30810552D01*
X22573910Y-30791832D01*
X22589562Y-30774562D01*
X22606832Y-30758910D01*
X22625552Y-30745026D01*
X22645543Y-30733044D01*
X22666613Y-30723079D01*
X22688557Y-30715227D01*
X22711166Y-30709563D01*
X22734221Y-30706144D01*
X22757500Y-30705000D01*
X23332500Y-30705000D01*
X23355779Y-30706144D01*
X23355779Y-30706144D01*
G37*
D17*
G04 #@! TD*
G04 #@! TO.P,R7,2*
G04 #@! TO.N,Net-(R7-Pad2)*
X23045000Y-31180000D03*
D10*
G04 #@! TO.N,/Vbat*
G04 #@! TO.C,R7*
G36*
X25105779Y-30706144D02*
X25128834Y-30709563D01*
X25151443Y-30715227D01*
X25173387Y-30723079D01*
X25194457Y-30733044D01*
X25214448Y-30745026D01*
X25233168Y-30758910D01*
X25250438Y-30774562D01*
X25266090Y-30791832D01*
X25279974Y-30810552D01*
X25291956Y-30830543D01*
X25301921Y-30851613D01*
X25309773Y-30873557D01*
X25315437Y-30896166D01*
X25318856Y-30919221D01*
X25320000Y-30942500D01*
X25320000Y-31417500D01*
X25318856Y-31440779D01*
X25315437Y-31463834D01*
X25309773Y-31486443D01*
X25301921Y-31508387D01*
X25291956Y-31529457D01*
X25279974Y-31549448D01*
X25266090Y-31568168D01*
X25250438Y-31585438D01*
X25233168Y-31601090D01*
X25214448Y-31614974D01*
X25194457Y-31626956D01*
X25173387Y-31636921D01*
X25151443Y-31644773D01*
X25128834Y-31650437D01*
X25105779Y-31653856D01*
X25082500Y-31655000D01*
X24507500Y-31655000D01*
X24484221Y-31653856D01*
X24461166Y-31650437D01*
X24438557Y-31644773D01*
X24416613Y-31636921D01*
X24395543Y-31626956D01*
X24375552Y-31614974D01*
X24356832Y-31601090D01*
X24339562Y-31585438D01*
X24323910Y-31568168D01*
X24310026Y-31549448D01*
X24298044Y-31529457D01*
X24288079Y-31508387D01*
X24280227Y-31486443D01*
X24274563Y-31463834D01*
X24271144Y-31440779D01*
X24270000Y-31417500D01*
X24270000Y-30942500D01*
X24271144Y-30919221D01*
X24274563Y-30896166D01*
X24280227Y-30873557D01*
X24288079Y-30851613D01*
X24298044Y-30830543D01*
X24310026Y-30810552D01*
X24323910Y-30791832D01*
X24339562Y-30774562D01*
X24356832Y-30758910D01*
X24375552Y-30745026D01*
X24395543Y-30733044D01*
X24416613Y-30723079D01*
X24438557Y-30715227D01*
X24461166Y-30709563D01*
X24484221Y-30706144D01*
X24507500Y-30705000D01*
X25082500Y-30705000D01*
X25105779Y-30706144D01*
X25105779Y-30706144D01*
G37*
D17*
G04 #@! TD*
G04 #@! TO.P,R7,1*
G04 #@! TO.N,/Vbat*
X24795000Y-31180000D03*
D10*
G04 #@! TO.N,GND*
G04 #@! TO.C,R10*
G36*
X25284910Y-32641202D02*
X25309135Y-32644795D01*
X25332891Y-32650746D01*
X25355949Y-32658996D01*
X25378087Y-32669467D01*
X25399093Y-32682057D01*
X25418763Y-32696645D01*
X25436908Y-32713092D01*
X25453355Y-32731237D01*
X25467943Y-32750907D01*
X25480533Y-32771913D01*
X25491004Y-32794051D01*
X25499254Y-32817109D01*
X25505205Y-32840865D01*
X25508798Y-32865090D01*
X25510000Y-32889550D01*
X25510000Y-33790450D01*
X25508798Y-33814910D01*
X25505205Y-33839135D01*
X25499254Y-33862891D01*
X25491004Y-33885949D01*
X25480533Y-33908087D01*
X25467943Y-33929093D01*
X25453355Y-33948763D01*
X25436908Y-33966908D01*
X25418763Y-33983355D01*
X25399093Y-33997943D01*
X25378087Y-34010533D01*
X25355949Y-34021004D01*
X25332891Y-34029254D01*
X25309135Y-34035205D01*
X25284910Y-34038798D01*
X25260450Y-34040000D01*
X24609550Y-34040000D01*
X24585090Y-34038798D01*
X24560865Y-34035205D01*
X24537109Y-34029254D01*
X24514051Y-34021004D01*
X24491913Y-34010533D01*
X24470907Y-33997943D01*
X24451237Y-33983355D01*
X24433092Y-33966908D01*
X24416645Y-33948763D01*
X24402057Y-33929093D01*
X24389467Y-33908087D01*
X24378996Y-33885949D01*
X24370746Y-33862891D01*
X24364795Y-33839135D01*
X24361202Y-33814910D01*
X24360000Y-33790450D01*
X24360000Y-32889550D01*
X24361202Y-32865090D01*
X24364795Y-32840865D01*
X24370746Y-32817109D01*
X24378996Y-32794051D01*
X24389467Y-32771913D01*
X24402057Y-32750907D01*
X24416645Y-32731237D01*
X24433092Y-32713092D01*
X24451237Y-32696645D01*
X24470907Y-32682057D01*
X24491913Y-32669467D01*
X24514051Y-32658996D01*
X24537109Y-32650746D01*
X24560865Y-32644795D01*
X24585090Y-32641202D01*
X24609550Y-32640000D01*
X25260450Y-32640000D01*
X25284910Y-32641202D01*
X25284910Y-32641202D01*
G37*
D11*
G04 #@! TD*
G04 #@! TO.P,R10,2*
G04 #@! TO.N,GND*
X24935000Y-33340000D03*
D10*
G04 #@! TO.N,/SW*
G04 #@! TO.C,R10*
G36*
X23234910Y-32641202D02*
X23259135Y-32644795D01*
X23282891Y-32650746D01*
X23305949Y-32658996D01*
X23328087Y-32669467D01*
X23349093Y-32682057D01*
X23368763Y-32696645D01*
X23386908Y-32713092D01*
X23403355Y-32731237D01*
X23417943Y-32750907D01*
X23430533Y-32771913D01*
X23441004Y-32794051D01*
X23449254Y-32817109D01*
X23455205Y-32840865D01*
X23458798Y-32865090D01*
X23460000Y-32889550D01*
X23460000Y-33790450D01*
X23458798Y-33814910D01*
X23455205Y-33839135D01*
X23449254Y-33862891D01*
X23441004Y-33885949D01*
X23430533Y-33908087D01*
X23417943Y-33929093D01*
X23403355Y-33948763D01*
X23386908Y-33966908D01*
X23368763Y-33983355D01*
X23349093Y-33997943D01*
X23328087Y-34010533D01*
X23305949Y-34021004D01*
X23282891Y-34029254D01*
X23259135Y-34035205D01*
X23234910Y-34038798D01*
X23210450Y-34040000D01*
X22559550Y-34040000D01*
X22535090Y-34038798D01*
X22510865Y-34035205D01*
X22487109Y-34029254D01*
X22464051Y-34021004D01*
X22441913Y-34010533D01*
X22420907Y-33997943D01*
X22401237Y-33983355D01*
X22383092Y-33966908D01*
X22366645Y-33948763D01*
X22352057Y-33929093D01*
X22339467Y-33908087D01*
X22328996Y-33885949D01*
X22320746Y-33862891D01*
X22314795Y-33839135D01*
X22311202Y-33814910D01*
X22310000Y-33790450D01*
X22310000Y-32889550D01*
X22311202Y-32865090D01*
X22314795Y-32840865D01*
X22320746Y-32817109D01*
X22328996Y-32794051D01*
X22339467Y-32771913D01*
X22352057Y-32750907D01*
X22366645Y-32731237D01*
X22383092Y-32713092D01*
X22401237Y-32696645D01*
X22420907Y-32682057D01*
X22441913Y-32669467D01*
X22464051Y-32658996D01*
X22487109Y-32650746D01*
X22510865Y-32644795D01*
X22535090Y-32641202D01*
X22559550Y-32640000D01*
X23210450Y-32640000D01*
X23234910Y-32641202D01*
X23234910Y-32641202D01*
G37*
D11*
G04 #@! TD*
G04 #@! TO.P,R10,1*
G04 #@! TO.N,/SW*
X22885000Y-33340000D03*
D14*
G04 #@! TO.P,Q5,3*
G04 #@! TO.N,Net-(Q5-Pad3)*
X28630000Y-31760000D03*
G04 #@! TO.P,Q5,2*
G04 #@! TO.N,GND*
X30630000Y-30810000D03*
G04 #@! TO.P,Q5,1*
G04 #@! TO.N,/En_VD*
X30630000Y-32710000D03*
G04 #@! TD*
D18*
G04 #@! TO.N,/Ctrl2*
X31900000Y-47090000D03*
G04 #@! TO.N,/Ctrl3*
X32100000Y-41200000D03*
G04 #@! TO.N,/Ctrl4*
X32100000Y-38930000D03*
G04 #@! TO.N,/Vbat*
X26900000Y-40170000D03*
X26900000Y-45270000D03*
X26900000Y-50310000D03*
X26890000Y-35120000D03*
G04 #@! TO.N,/Vin*
X21600000Y-26100000D03*
G04 #@! TO.N,Net-(D1-Pad2)*
X32130000Y-35410000D03*
G04 #@! TO.N,/En_VD*
X30700000Y-34300000D03*
G04 #@! TO.N,/dut*
X27940000Y-38590000D03*
G04 #@! TD*
D19*
G04 #@! TO.N,/Ctrl1*
X42490000Y-53020000D02*
X42810000Y-53340000D01*
X30350000Y-53020000D02*
X42490000Y-53020000D01*
X30400000Y-53020000D02*
X30350000Y-53020000D01*
X33675000Y-49745000D02*
X30400000Y-53020000D01*
X33675000Y-44800000D02*
X33675000Y-49745000D01*
G04 #@! TO.N,/Ctrl2*
X31050000Y-47940000D02*
X31900000Y-47090000D01*
X30350000Y-47940000D02*
X31050000Y-47940000D01*
X31900000Y-44245000D02*
X33685000Y-42460000D01*
X31900000Y-47090000D02*
X31900000Y-44245000D01*
X31900000Y-47090000D02*
X31900000Y-47090000D01*
G04 #@! TO.N,/Ctrl3*
X33160000Y-40100000D02*
X33685000Y-40100000D01*
X30400000Y-42860000D02*
X33160000Y-40100000D01*
X30350000Y-42860000D02*
X30400000Y-42860000D01*
G04 #@! TO.N,/Ctrl4*
X33645000Y-37780000D02*
X33685000Y-37740000D01*
X30630000Y-37780000D02*
X33645000Y-37780000D01*
X31790000Y-38930000D02*
X31780000Y-38930000D01*
X31780000Y-38930000D02*
X30630000Y-37780000D01*
X32100000Y-38930000D02*
X31780000Y-38930000D01*
G04 #@! TO.N,/Vcc*
X35735000Y-35380000D02*
X35735000Y-37740000D01*
X35735000Y-37740000D02*
X35735000Y-40100000D01*
X35735000Y-40100000D02*
X35735000Y-42460000D01*
X35735000Y-44790000D02*
X35725000Y-44800000D01*
X35735000Y-42460000D02*
X35735000Y-44790000D01*
X42630000Y-35380000D02*
X42810000Y-35560000D01*
X35735000Y-35380000D02*
X42630000Y-35380000D01*
G04 #@! TO.N,/Vbat*
X29280000Y-35880000D02*
X30630000Y-35880000D01*
X29530000Y-45270000D02*
X26900000Y-45270000D01*
X30350000Y-46040000D02*
X30300000Y-46040000D01*
X30300000Y-46040000D02*
X29530000Y-45270000D01*
X30300000Y-40960000D02*
X29510000Y-40170000D01*
X30350000Y-40960000D02*
X30300000Y-40960000D01*
X29510000Y-40170000D02*
X26900000Y-40170000D01*
X27650000Y-35880000D02*
X29280000Y-35880000D01*
X26890000Y-35120000D02*
X27650000Y-35880000D01*
X30300000Y-51120000D02*
X29490000Y-50310000D01*
X30350000Y-51120000D02*
X30300000Y-51120000D01*
X29490000Y-50310000D02*
X26900000Y-50310000D01*
X26890000Y-34554315D02*
X26890000Y-35120000D01*
X25420000Y-31210000D02*
X26890000Y-32680000D01*
X26890000Y-32680000D02*
X26890000Y-34554315D01*
X24795000Y-31210000D02*
X25420000Y-31210000D01*
G04 #@! TO.N,Net-(Q3-Pad3)*
X25345000Y-44950000D02*
X25355000Y-44960000D01*
X25345000Y-42590000D02*
X25345000Y-44950000D01*
X28300000Y-41910000D02*
X28350000Y-41910000D01*
X27620000Y-42590000D02*
X28300000Y-41910000D01*
X25345000Y-42590000D02*
X27620000Y-42590000D01*
G04 #@! TO.N,Net-(Q2-Pad3)*
X28010000Y-47330000D02*
X28350000Y-46990000D01*
X25565000Y-47330000D02*
X28010000Y-47330000D01*
G04 #@! TO.N,Net-(Q1-Pad3)*
X28280000Y-52000000D02*
X28350000Y-52070000D01*
X25555000Y-52000000D02*
X28280000Y-52000000D01*
G04 #@! TO.N,/Vin*
X22890000Y-27390000D02*
X21600000Y-26100000D01*
X23045000Y-27390000D02*
X22890000Y-27390000D01*
X23045000Y-27390000D02*
X23045000Y-29280000D01*
G04 #@! TO.N,Net-(D1-Pad2)*
X32130000Y-35410000D02*
X33655000Y-35410000D01*
X33655000Y-35410000D02*
X33685000Y-35380000D01*
G04 #@! TO.N,/SW*
X14870000Y-30480000D02*
X17750000Y-33360000D01*
X22905000Y-33360000D02*
X17750000Y-33360000D01*
X20840000Y-24510000D02*
X14870000Y-30480000D01*
X20840000Y-21100000D02*
X20840000Y-24510000D01*
G04 #@! TO.N,/En_VD*
X30950000Y-33020000D02*
X30630000Y-32700000D01*
X30700000Y-34300000D02*
X30700000Y-32770000D01*
X30700000Y-32770000D02*
X30630000Y-32700000D01*
X33685000Y-33020000D02*
X30950000Y-33020000D01*
G04 #@! TO.N,Net-(Q5-Pad3)*
X28630000Y-29630000D02*
X28630000Y-31750000D01*
X24805000Y-27400000D02*
X26400000Y-27400000D01*
X26400000Y-27400000D02*
X28630000Y-29630000D01*
G04 #@! TO.N,/dut*
X27940000Y-37520000D02*
X28630000Y-36830000D01*
X27940000Y-38590000D02*
X27940000Y-37520000D01*
G04 #@! TO.N,Net-(RL1-Pad2)*
X25345000Y-49950000D02*
X25345000Y-49700000D01*
X23295000Y-52000000D02*
X25345000Y-49950000D01*
G04 #@! TO.N,Net-(R7-Pad2)*
X23045000Y-31030000D02*
X23045000Y-31180000D01*
X24795000Y-29280000D02*
X23045000Y-31030000D01*
G04 #@! TD*
D20*
G04 #@! TO.N,GND*
G36*
X17159671Y-33844473D02*
X17202071Y-33907929D01*
X17453463Y-34075904D01*
X17675148Y-34120000D01*
X17675152Y-34120000D01*
X17749999Y-34134888D01*
X17824846Y-34120000D01*
X21728111Y-34120000D01*
X21730839Y-34133713D01*
X21925282Y-34424718D01*
X22216287Y-34619161D01*
X22559550Y-34687440D01*
X23210450Y-34687440D01*
X23553713Y-34619161D01*
X23844718Y-34424718D01*
X23845509Y-34423535D01*
X24000302Y-34578327D01*
X24233691Y-34675000D01*
X24649250Y-34675000D01*
X24808000Y-34516250D01*
X24808000Y-33467000D01*
X24788000Y-33467000D01*
X24788000Y-33213000D01*
X24808000Y-33213000D01*
X24808000Y-33193000D01*
X25062000Y-33193000D01*
X25062000Y-33213000D01*
X25082000Y-33213000D01*
X25082000Y-33467000D01*
X25062000Y-33467000D01*
X25062000Y-34516250D01*
X25220750Y-34675000D01*
X25636309Y-34675000D01*
X25869698Y-34578327D01*
X26048327Y-34399699D01*
X26130001Y-34202521D01*
X26130001Y-34416288D01*
X26012569Y-34533720D01*
X25855000Y-34914126D01*
X25855000Y-35325874D01*
X26012569Y-35706280D01*
X26303720Y-35997431D01*
X26684126Y-36155000D01*
X26850198Y-36155000D01*
X27059673Y-36364475D01*
X27102071Y-36427929D01*
X27165524Y-36470327D01*
X27165526Y-36470329D01*
X27251486Y-36527765D01*
X27353463Y-36595904D01*
X27532560Y-36631529D01*
X27532560Y-36852639D01*
X27455527Y-36929672D01*
X27392072Y-36972071D01*
X27349672Y-37035527D01*
X27349671Y-37035528D01*
X27224097Y-37223463D01*
X27165112Y-37520000D01*
X27180001Y-37594851D01*
X27180001Y-37886288D01*
X27062569Y-38003720D01*
X26905000Y-38384126D01*
X26905000Y-38795874D01*
X27045470Y-39135000D01*
X26694126Y-39135000D01*
X26313720Y-39292569D01*
X26022569Y-39583720D01*
X25865000Y-39964126D01*
X25865000Y-40375874D01*
X26022569Y-40756280D01*
X26313720Y-41047431D01*
X26694126Y-41205000D01*
X27105874Y-41205000D01*
X27429716Y-41070860D01*
X27301843Y-41262235D01*
X27252560Y-41510000D01*
X27252560Y-41830000D01*
X26505778Y-41830000D01*
X26499127Y-41796564D01*
X26304586Y-41505414D01*
X26013436Y-41310873D01*
X25670001Y-41242560D01*
X25019999Y-41242560D01*
X24676564Y-41310873D01*
X24385414Y-41505414D01*
X24384623Y-41506597D01*
X24229698Y-41351673D01*
X23996309Y-41255000D01*
X23580750Y-41255000D01*
X23422000Y-41413750D01*
X23422000Y-42463000D01*
X23442000Y-42463000D01*
X23442000Y-42717000D01*
X23422000Y-42717000D01*
X23422000Y-43766250D01*
X23435750Y-43780000D01*
X23432000Y-43783750D01*
X23432000Y-44833000D01*
X23452000Y-44833000D01*
X23452000Y-45087000D01*
X23432000Y-45087000D01*
X23432000Y-46136250D01*
X23440750Y-46145000D01*
X23432000Y-46153750D01*
X23432000Y-47203000D01*
X23452000Y-47203000D01*
X23452000Y-47457000D01*
X23432000Y-47457000D01*
X23432000Y-48506250D01*
X23435750Y-48510000D01*
X23422000Y-48523750D01*
X23422000Y-49573000D01*
X23442000Y-49573000D01*
X23442000Y-49827000D01*
X23422000Y-49827000D01*
X23422000Y-49847000D01*
X23168000Y-49847000D01*
X23168000Y-49827000D01*
X22243750Y-49827000D01*
X22085000Y-49985750D01*
X22085000Y-50526310D01*
X22181673Y-50759699D01*
X22336598Y-50914623D01*
X22335414Y-50915414D01*
X22140873Y-51206564D01*
X22072560Y-51549999D01*
X22072560Y-52450001D01*
X22140873Y-52793436D01*
X22335414Y-53084586D01*
X22626564Y-53279127D01*
X22969999Y-53347440D01*
X23620001Y-53347440D01*
X23963436Y-53279127D01*
X24254586Y-53084586D01*
X24320000Y-52986687D01*
X24385414Y-53084586D01*
X24676564Y-53279127D01*
X25019999Y-53347440D01*
X25670001Y-53347440D01*
X26013436Y-53279127D01*
X26304586Y-53084586D01*
X26499127Y-52793436D01*
X26505778Y-52760000D01*
X27330064Y-52760000D01*
X27442191Y-52927809D01*
X27652235Y-53068157D01*
X27900000Y-53117440D01*
X28800000Y-53117440D01*
X29047765Y-53068157D01*
X29252560Y-52931316D01*
X29252560Y-53420000D01*
X29301843Y-53667765D01*
X29442191Y-53877809D01*
X29652235Y-54018157D01*
X29900000Y-54067440D01*
X30800000Y-54067440D01*
X31047765Y-54018157D01*
X31257809Y-53877809D01*
X31323163Y-53780000D01*
X41480152Y-53780000D01*
X41625680Y-54131337D01*
X42018663Y-54524320D01*
X42209647Y-54603428D01*
X42078857Y-54657603D01*
X42009392Y-54899787D01*
X42810000Y-55700395D01*
X42824143Y-55686253D01*
X43003748Y-55865858D01*
X42989605Y-55880000D01*
X43003748Y-55894143D01*
X42824143Y-56073748D01*
X42810000Y-56059605D01*
X42009392Y-56860213D01*
X42078857Y-57102397D01*
X42219393Y-57152535D01*
X42018663Y-57235680D01*
X41625680Y-57628663D01*
X41413000Y-58142119D01*
X41413000Y-58697881D01*
X41625680Y-59211337D01*
X42018663Y-59604320D01*
X42532119Y-59817000D01*
X43087881Y-59817000D01*
X43601337Y-59604320D01*
X43715001Y-59490656D01*
X43715001Y-66720581D01*
X43434741Y-66043974D01*
X42806026Y-65415259D01*
X41984569Y-65075000D01*
X41095431Y-65075000D01*
X40273974Y-65415259D01*
X39645259Y-66043974D01*
X39305000Y-66865431D01*
X39305000Y-67754569D01*
X39645259Y-68576026D01*
X40273974Y-69204741D01*
X40540162Y-69315000D01*
X17139838Y-69315000D01*
X17406026Y-69204741D01*
X18034741Y-68576026D01*
X18375000Y-67754569D01*
X18375000Y-66865431D01*
X18034741Y-66043974D01*
X17406026Y-65415259D01*
X16584569Y-65075000D01*
X15695431Y-65075000D01*
X14873974Y-65415259D01*
X14245259Y-66043974D01*
X13985000Y-66672294D01*
X13985000Y-59510657D01*
X14078663Y-59604320D01*
X14592119Y-59817000D01*
X15147881Y-59817000D01*
X15661337Y-59604320D01*
X16054320Y-59211337D01*
X16267000Y-58697881D01*
X16267000Y-58142119D01*
X16054320Y-57628663D01*
X15661337Y-57235680D01*
X15470353Y-57156572D01*
X15601143Y-57102397D01*
X15670608Y-56860213D01*
X14870000Y-56059605D01*
X14855858Y-56073748D01*
X14676253Y-55894143D01*
X14690395Y-55880000D01*
X15049605Y-55880000D01*
X15850213Y-56680608D01*
X16092397Y-56611143D01*
X16279144Y-56087698D01*
X16258353Y-55672302D01*
X41400856Y-55672302D01*
X41428638Y-56227368D01*
X41587603Y-56611143D01*
X41829787Y-56680608D01*
X42630395Y-55880000D01*
X41829787Y-55079392D01*
X41587603Y-55148857D01*
X41400856Y-55672302D01*
X16258353Y-55672302D01*
X16251362Y-55532632D01*
X16092397Y-55148857D01*
X15850213Y-55079392D01*
X15049605Y-55880000D01*
X14690395Y-55880000D01*
X14676253Y-55865858D01*
X14855858Y-55686253D01*
X14870000Y-55700395D01*
X15670608Y-54899787D01*
X15601143Y-54657603D01*
X15460607Y-54607465D01*
X15661337Y-54524320D01*
X16054320Y-54131337D01*
X16267000Y-53617881D01*
X16267000Y-53062119D01*
X16054320Y-52548663D01*
X15661337Y-52155680D01*
X15454487Y-52070000D01*
X15661337Y-51984320D01*
X16054320Y-51591337D01*
X16267000Y-51077881D01*
X16267000Y-50522119D01*
X16054320Y-50008663D01*
X15661337Y-49615680D01*
X15454487Y-49530000D01*
X15661337Y-49444320D01*
X16054320Y-49051337D01*
X16127903Y-48873690D01*
X22085000Y-48873690D01*
X22085000Y-49414250D01*
X22243750Y-49573000D01*
X23168000Y-49573000D01*
X23168000Y-48523750D01*
X23164250Y-48520000D01*
X23178000Y-48506250D01*
X23178000Y-47457000D01*
X22253750Y-47457000D01*
X22095000Y-47615750D01*
X22095000Y-48156310D01*
X22191673Y-48389699D01*
X22311975Y-48510000D01*
X22181673Y-48640301D01*
X22085000Y-48873690D01*
X16127903Y-48873690D01*
X16267000Y-48537881D01*
X16267000Y-47982119D01*
X16054320Y-47468663D01*
X15661337Y-47075680D01*
X15470353Y-46996572D01*
X15601143Y-46942397D01*
X15670608Y-46700213D01*
X14870000Y-45899605D01*
X14855858Y-45913748D01*
X14676253Y-45734143D01*
X14690395Y-45720000D01*
X15049605Y-45720000D01*
X15850213Y-46520608D01*
X16092397Y-46451143D01*
X16279144Y-45927698D01*
X16251362Y-45372632D01*
X16198806Y-45245750D01*
X22095000Y-45245750D01*
X22095000Y-45786310D01*
X22191673Y-46019699D01*
X22316975Y-46145000D01*
X22191673Y-46270301D01*
X22095000Y-46503690D01*
X22095000Y-47044250D01*
X22253750Y-47203000D01*
X23178000Y-47203000D01*
X23178000Y-46153750D01*
X23169250Y-46145000D01*
X23178000Y-46136250D01*
X23178000Y-45087000D01*
X22253750Y-45087000D01*
X22095000Y-45245750D01*
X16198806Y-45245750D01*
X16092397Y-44988857D01*
X15850213Y-44919392D01*
X15049605Y-45720000D01*
X14690395Y-45720000D01*
X14676253Y-45705858D01*
X14855858Y-45526253D01*
X14870000Y-45540395D01*
X15670608Y-44739787D01*
X15601143Y-44497603D01*
X15460607Y-44447465D01*
X15661337Y-44364320D01*
X16054320Y-43971337D01*
X16267000Y-43457881D01*
X16267000Y-42902119D01*
X16256078Y-42875750D01*
X22085000Y-42875750D01*
X22085000Y-43416310D01*
X22181673Y-43649699D01*
X22311975Y-43780000D01*
X22191673Y-43900301D01*
X22095000Y-44133690D01*
X22095000Y-44674250D01*
X22253750Y-44833000D01*
X23178000Y-44833000D01*
X23178000Y-43783750D01*
X23164250Y-43770000D01*
X23168000Y-43766250D01*
X23168000Y-42717000D01*
X22243750Y-42717000D01*
X22085000Y-42875750D01*
X16256078Y-42875750D01*
X16054320Y-42388663D01*
X15661337Y-41995680D01*
X15454487Y-41910000D01*
X15661337Y-41824320D01*
X15721967Y-41763690D01*
X22085000Y-41763690D01*
X22085000Y-42304250D01*
X22243750Y-42463000D01*
X23168000Y-42463000D01*
X23168000Y-41413750D01*
X23009250Y-41255000D01*
X22593691Y-41255000D01*
X22360302Y-41351673D01*
X22181673Y-41530301D01*
X22085000Y-41763690D01*
X15721967Y-41763690D01*
X16054320Y-41431337D01*
X16267000Y-40917881D01*
X16267000Y-40362119D01*
X16054320Y-39848663D01*
X15661337Y-39455680D01*
X15454487Y-39370000D01*
X15661337Y-39284320D01*
X16054320Y-38891337D01*
X16267000Y-38377881D01*
X16267000Y-37822119D01*
X16054320Y-37308663D01*
X15661337Y-36915680D01*
X15454487Y-36830000D01*
X15661337Y-36744320D01*
X16054320Y-36351337D01*
X16267000Y-35837881D01*
X16267000Y-35282119D01*
X16054320Y-34768663D01*
X15661337Y-34375680D01*
X15454487Y-34290000D01*
X15661337Y-34204320D01*
X16054320Y-33811337D01*
X16267000Y-33297881D01*
X16267000Y-32951802D01*
X17159671Y-33844473D01*
X17159671Y-33844473D01*
G37*
X17159671Y-33844473D02*
X17202071Y-33907929D01*
X17453463Y-34075904D01*
X17675148Y-34120000D01*
X17675152Y-34120000D01*
X17749999Y-34134888D01*
X17824846Y-34120000D01*
X21728111Y-34120000D01*
X21730839Y-34133713D01*
X21925282Y-34424718D01*
X22216287Y-34619161D01*
X22559550Y-34687440D01*
X23210450Y-34687440D01*
X23553713Y-34619161D01*
X23844718Y-34424718D01*
X23845509Y-34423535D01*
X24000302Y-34578327D01*
X24233691Y-34675000D01*
X24649250Y-34675000D01*
X24808000Y-34516250D01*
X24808000Y-33467000D01*
X24788000Y-33467000D01*
X24788000Y-33213000D01*
X24808000Y-33213000D01*
X24808000Y-33193000D01*
X25062000Y-33193000D01*
X25062000Y-33213000D01*
X25082000Y-33213000D01*
X25082000Y-33467000D01*
X25062000Y-33467000D01*
X25062000Y-34516250D01*
X25220750Y-34675000D01*
X25636309Y-34675000D01*
X25869698Y-34578327D01*
X26048327Y-34399699D01*
X26130001Y-34202521D01*
X26130001Y-34416288D01*
X26012569Y-34533720D01*
X25855000Y-34914126D01*
X25855000Y-35325874D01*
X26012569Y-35706280D01*
X26303720Y-35997431D01*
X26684126Y-36155000D01*
X26850198Y-36155000D01*
X27059673Y-36364475D01*
X27102071Y-36427929D01*
X27165524Y-36470327D01*
X27165526Y-36470329D01*
X27251486Y-36527765D01*
X27353463Y-36595904D01*
X27532560Y-36631529D01*
X27532560Y-36852639D01*
X27455527Y-36929672D01*
X27392072Y-36972071D01*
X27349672Y-37035527D01*
X27349671Y-37035528D01*
X27224097Y-37223463D01*
X27165112Y-37520000D01*
X27180001Y-37594851D01*
X27180001Y-37886288D01*
X27062569Y-38003720D01*
X26905000Y-38384126D01*
X26905000Y-38795874D01*
X27045470Y-39135000D01*
X26694126Y-39135000D01*
X26313720Y-39292569D01*
X26022569Y-39583720D01*
X25865000Y-39964126D01*
X25865000Y-40375874D01*
X26022569Y-40756280D01*
X26313720Y-41047431D01*
X26694126Y-41205000D01*
X27105874Y-41205000D01*
X27429716Y-41070860D01*
X27301843Y-41262235D01*
X27252560Y-41510000D01*
X27252560Y-41830000D01*
X26505778Y-41830000D01*
X26499127Y-41796564D01*
X26304586Y-41505414D01*
X26013436Y-41310873D01*
X25670001Y-41242560D01*
X25019999Y-41242560D01*
X24676564Y-41310873D01*
X24385414Y-41505414D01*
X24384623Y-41506597D01*
X24229698Y-41351673D01*
X23996309Y-41255000D01*
X23580750Y-41255000D01*
X23422000Y-41413750D01*
X23422000Y-42463000D01*
X23442000Y-42463000D01*
X23442000Y-42717000D01*
X23422000Y-42717000D01*
X23422000Y-43766250D01*
X23435750Y-43780000D01*
X23432000Y-43783750D01*
X23432000Y-44833000D01*
X23452000Y-44833000D01*
X23452000Y-45087000D01*
X23432000Y-45087000D01*
X23432000Y-46136250D01*
X23440750Y-46145000D01*
X23432000Y-46153750D01*
X23432000Y-47203000D01*
X23452000Y-47203000D01*
X23452000Y-47457000D01*
X23432000Y-47457000D01*
X23432000Y-48506250D01*
X23435750Y-48510000D01*
X23422000Y-48523750D01*
X23422000Y-49573000D01*
X23442000Y-49573000D01*
X23442000Y-49827000D01*
X23422000Y-49827000D01*
X23422000Y-49847000D01*
X23168000Y-49847000D01*
X23168000Y-49827000D01*
X22243750Y-49827000D01*
X22085000Y-49985750D01*
X22085000Y-50526310D01*
X22181673Y-50759699D01*
X22336598Y-50914623D01*
X22335414Y-50915414D01*
X22140873Y-51206564D01*
X22072560Y-51549999D01*
X22072560Y-52450001D01*
X22140873Y-52793436D01*
X22335414Y-53084586D01*
X22626564Y-53279127D01*
X22969999Y-53347440D01*
X23620001Y-53347440D01*
X23963436Y-53279127D01*
X24254586Y-53084586D01*
X24320000Y-52986687D01*
X24385414Y-53084586D01*
X24676564Y-53279127D01*
X25019999Y-53347440D01*
X25670001Y-53347440D01*
X26013436Y-53279127D01*
X26304586Y-53084586D01*
X26499127Y-52793436D01*
X26505778Y-52760000D01*
X27330064Y-52760000D01*
X27442191Y-52927809D01*
X27652235Y-53068157D01*
X27900000Y-53117440D01*
X28800000Y-53117440D01*
X29047765Y-53068157D01*
X29252560Y-52931316D01*
X29252560Y-53420000D01*
X29301843Y-53667765D01*
X29442191Y-53877809D01*
X29652235Y-54018157D01*
X29900000Y-54067440D01*
X30800000Y-54067440D01*
X31047765Y-54018157D01*
X31257809Y-53877809D01*
X31323163Y-53780000D01*
X41480152Y-53780000D01*
X41625680Y-54131337D01*
X42018663Y-54524320D01*
X42209647Y-54603428D01*
X42078857Y-54657603D01*
X42009392Y-54899787D01*
X42810000Y-55700395D01*
X42824143Y-55686253D01*
X43003748Y-55865858D01*
X42989605Y-55880000D01*
X43003748Y-55894143D01*
X42824143Y-56073748D01*
X42810000Y-56059605D01*
X42009392Y-56860213D01*
X42078857Y-57102397D01*
X42219393Y-57152535D01*
X42018663Y-57235680D01*
X41625680Y-57628663D01*
X41413000Y-58142119D01*
X41413000Y-58697881D01*
X41625680Y-59211337D01*
X42018663Y-59604320D01*
X42532119Y-59817000D01*
X43087881Y-59817000D01*
X43601337Y-59604320D01*
X43715001Y-59490656D01*
X43715001Y-66720581D01*
X43434741Y-66043974D01*
X42806026Y-65415259D01*
X41984569Y-65075000D01*
X41095431Y-65075000D01*
X40273974Y-65415259D01*
X39645259Y-66043974D01*
X39305000Y-66865431D01*
X39305000Y-67754569D01*
X39645259Y-68576026D01*
X40273974Y-69204741D01*
X40540162Y-69315000D01*
X17139838Y-69315000D01*
X17406026Y-69204741D01*
X18034741Y-68576026D01*
X18375000Y-67754569D01*
X18375000Y-66865431D01*
X18034741Y-66043974D01*
X17406026Y-65415259D01*
X16584569Y-65075000D01*
X15695431Y-65075000D01*
X14873974Y-65415259D01*
X14245259Y-66043974D01*
X13985000Y-66672294D01*
X13985000Y-59510657D01*
X14078663Y-59604320D01*
X14592119Y-59817000D01*
X15147881Y-59817000D01*
X15661337Y-59604320D01*
X16054320Y-59211337D01*
X16267000Y-58697881D01*
X16267000Y-58142119D01*
X16054320Y-57628663D01*
X15661337Y-57235680D01*
X15470353Y-57156572D01*
X15601143Y-57102397D01*
X15670608Y-56860213D01*
X14870000Y-56059605D01*
X14855858Y-56073748D01*
X14676253Y-55894143D01*
X14690395Y-55880000D01*
X15049605Y-55880000D01*
X15850213Y-56680608D01*
X16092397Y-56611143D01*
X16279144Y-56087698D01*
X16258353Y-55672302D01*
X41400856Y-55672302D01*
X41428638Y-56227368D01*
X41587603Y-56611143D01*
X41829787Y-56680608D01*
X42630395Y-55880000D01*
X41829787Y-55079392D01*
X41587603Y-55148857D01*
X41400856Y-55672302D01*
X16258353Y-55672302D01*
X16251362Y-55532632D01*
X16092397Y-55148857D01*
X15850213Y-55079392D01*
X15049605Y-55880000D01*
X14690395Y-55880000D01*
X14676253Y-55865858D01*
X14855858Y-55686253D01*
X14870000Y-55700395D01*
X15670608Y-54899787D01*
X15601143Y-54657603D01*
X15460607Y-54607465D01*
X15661337Y-54524320D01*
X16054320Y-54131337D01*
X16267000Y-53617881D01*
X16267000Y-53062119D01*
X16054320Y-52548663D01*
X15661337Y-52155680D01*
X15454487Y-52070000D01*
X15661337Y-51984320D01*
X16054320Y-51591337D01*
X16267000Y-51077881D01*
X16267000Y-50522119D01*
X16054320Y-50008663D01*
X15661337Y-49615680D01*
X15454487Y-49530000D01*
X15661337Y-49444320D01*
X16054320Y-49051337D01*
X16127903Y-48873690D01*
X22085000Y-48873690D01*
X22085000Y-49414250D01*
X22243750Y-49573000D01*
X23168000Y-49573000D01*
X23168000Y-48523750D01*
X23164250Y-48520000D01*
X23178000Y-48506250D01*
X23178000Y-47457000D01*
X22253750Y-47457000D01*
X22095000Y-47615750D01*
X22095000Y-48156310D01*
X22191673Y-48389699D01*
X22311975Y-48510000D01*
X22181673Y-48640301D01*
X22085000Y-48873690D01*
X16127903Y-48873690D01*
X16267000Y-48537881D01*
X16267000Y-47982119D01*
X16054320Y-47468663D01*
X15661337Y-47075680D01*
X15470353Y-46996572D01*
X15601143Y-46942397D01*
X15670608Y-46700213D01*
X14870000Y-45899605D01*
X14855858Y-45913748D01*
X14676253Y-45734143D01*
X14690395Y-45720000D01*
X15049605Y-45720000D01*
X15850213Y-46520608D01*
X16092397Y-46451143D01*
X16279144Y-45927698D01*
X16251362Y-45372632D01*
X16198806Y-45245750D01*
X22095000Y-45245750D01*
X22095000Y-45786310D01*
X22191673Y-46019699D01*
X22316975Y-46145000D01*
X22191673Y-46270301D01*
X22095000Y-46503690D01*
X22095000Y-47044250D01*
X22253750Y-47203000D01*
X23178000Y-47203000D01*
X23178000Y-46153750D01*
X23169250Y-46145000D01*
X23178000Y-46136250D01*
X23178000Y-45087000D01*
X22253750Y-45087000D01*
X22095000Y-45245750D01*
X16198806Y-45245750D01*
X16092397Y-44988857D01*
X15850213Y-44919392D01*
X15049605Y-45720000D01*
X14690395Y-45720000D01*
X14676253Y-45705858D01*
X14855858Y-45526253D01*
X14870000Y-45540395D01*
X15670608Y-44739787D01*
X15601143Y-44497603D01*
X15460607Y-44447465D01*
X15661337Y-44364320D01*
X16054320Y-43971337D01*
X16267000Y-43457881D01*
X16267000Y-42902119D01*
X16256078Y-42875750D01*
X22085000Y-42875750D01*
X22085000Y-43416310D01*
X22181673Y-43649699D01*
X22311975Y-43780000D01*
X22191673Y-43900301D01*
X22095000Y-44133690D01*
X22095000Y-44674250D01*
X22253750Y-44833000D01*
X23178000Y-44833000D01*
X23178000Y-43783750D01*
X23164250Y-43770000D01*
X23168000Y-43766250D01*
X23168000Y-42717000D01*
X22243750Y-42717000D01*
X22085000Y-42875750D01*
X16256078Y-42875750D01*
X16054320Y-42388663D01*
X15661337Y-41995680D01*
X15454487Y-41910000D01*
X15661337Y-41824320D01*
X15721967Y-41763690D01*
X22085000Y-41763690D01*
X22085000Y-42304250D01*
X22243750Y-42463000D01*
X23168000Y-42463000D01*
X23168000Y-41413750D01*
X23009250Y-41255000D01*
X22593691Y-41255000D01*
X22360302Y-41351673D01*
X22181673Y-41530301D01*
X22085000Y-41763690D01*
X15721967Y-41763690D01*
X16054320Y-41431337D01*
X16267000Y-40917881D01*
X16267000Y-40362119D01*
X16054320Y-39848663D01*
X15661337Y-39455680D01*
X15454487Y-39370000D01*
X15661337Y-39284320D01*
X16054320Y-38891337D01*
X16267000Y-38377881D01*
X16267000Y-37822119D01*
X16054320Y-37308663D01*
X15661337Y-36915680D01*
X15454487Y-36830000D01*
X15661337Y-36744320D01*
X16054320Y-36351337D01*
X16267000Y-35837881D01*
X16267000Y-35282119D01*
X16054320Y-34768663D01*
X15661337Y-34375680D01*
X15454487Y-34290000D01*
X15661337Y-34204320D01*
X16054320Y-33811337D01*
X16267000Y-33297881D01*
X16267000Y-32951802D01*
X17159671Y-33844473D01*
G36*
X41625680Y-36351337D02*
X42018663Y-36744320D01*
X42209647Y-36823428D01*
X42078857Y-36877603D01*
X42009392Y-37119787D01*
X42810000Y-37920395D01*
X42824143Y-37906253D01*
X43003748Y-38085858D01*
X42989605Y-38100000D01*
X43003748Y-38114143D01*
X42824143Y-38293748D01*
X42810000Y-38279605D01*
X42009392Y-39080213D01*
X42078857Y-39322397D01*
X42219393Y-39372535D01*
X42018663Y-39455680D01*
X41625680Y-39848663D01*
X41413000Y-40362119D01*
X41413000Y-40917881D01*
X41625680Y-41431337D01*
X42018663Y-41824320D01*
X42225513Y-41910000D01*
X42018663Y-41995680D01*
X41625680Y-42388663D01*
X41413000Y-42902119D01*
X41413000Y-43457881D01*
X41625680Y-43971337D01*
X42018663Y-44364320D01*
X42225513Y-44450000D01*
X42018663Y-44535680D01*
X41625680Y-44928663D01*
X41413000Y-45442119D01*
X41413000Y-45997881D01*
X41625680Y-46511337D01*
X42018663Y-46904320D01*
X42225513Y-46990000D01*
X42018663Y-47075680D01*
X41625680Y-47468663D01*
X41413000Y-47982119D01*
X41413000Y-48537881D01*
X41625680Y-49051337D01*
X42018663Y-49444320D01*
X42225513Y-49530000D01*
X42018663Y-49615680D01*
X41625680Y-50008663D01*
X41413000Y-50522119D01*
X41413000Y-51077881D01*
X41625680Y-51591337D01*
X42018663Y-51984320D01*
X42225513Y-52070000D01*
X42018663Y-52155680D01*
X41914343Y-52260000D01*
X32234802Y-52260000D01*
X34159476Y-50335327D01*
X34222929Y-50292929D01*
X34265327Y-50229476D01*
X34265329Y-50229474D01*
X34390903Y-50041538D01*
X34390904Y-50041537D01*
X34435000Y-49819852D01*
X34435000Y-49819848D01*
X34449888Y-49745001D01*
X34435000Y-49670154D01*
X34435000Y-46017946D01*
X34634586Y-45884586D01*
X34700000Y-45786687D01*
X34765414Y-45884586D01*
X35056564Y-46079127D01*
X35399999Y-46147440D01*
X36050001Y-46147440D01*
X36393436Y-46079127D01*
X36684586Y-45884586D01*
X36879127Y-45593436D01*
X36947440Y-45250001D01*
X36947440Y-44349999D01*
X36879127Y-44006564D01*
X36684586Y-43715414D01*
X36561755Y-43633341D01*
X36694586Y-43544586D01*
X36889127Y-43253436D01*
X36957440Y-42910001D01*
X36957440Y-42009999D01*
X36889127Y-41666564D01*
X36694586Y-41375414D01*
X36551789Y-41280000D01*
X36694586Y-41184586D01*
X36889127Y-40893436D01*
X36957440Y-40550001D01*
X36957440Y-39649999D01*
X36889127Y-39306564D01*
X36694586Y-39015414D01*
X36551789Y-38920000D01*
X36694586Y-38824586D01*
X36889127Y-38533436D01*
X36957440Y-38190001D01*
X36957440Y-37892302D01*
X41400856Y-37892302D01*
X41428638Y-38447368D01*
X41587603Y-38831143D01*
X41829787Y-38900608D01*
X42630395Y-38100000D01*
X41829787Y-37299392D01*
X41587603Y-37368857D01*
X41400856Y-37892302D01*
X36957440Y-37892302D01*
X36957440Y-37289999D01*
X36889127Y-36946564D01*
X36694586Y-36655414D01*
X36551789Y-36560000D01*
X36694586Y-36464586D01*
X36889127Y-36173436D01*
X36895778Y-36140000D01*
X41538142Y-36140000D01*
X41625680Y-36351337D01*
X41625680Y-36351337D01*
G37*
X41625680Y-36351337D02*
X42018663Y-36744320D01*
X42209647Y-36823428D01*
X42078857Y-36877603D01*
X42009392Y-37119787D01*
X42810000Y-37920395D01*
X42824143Y-37906253D01*
X43003748Y-38085858D01*
X42989605Y-38100000D01*
X43003748Y-38114143D01*
X42824143Y-38293748D01*
X42810000Y-38279605D01*
X42009392Y-39080213D01*
X42078857Y-39322397D01*
X42219393Y-39372535D01*
X42018663Y-39455680D01*
X41625680Y-39848663D01*
X41413000Y-40362119D01*
X41413000Y-40917881D01*
X41625680Y-41431337D01*
X42018663Y-41824320D01*
X42225513Y-41910000D01*
X42018663Y-41995680D01*
X41625680Y-42388663D01*
X41413000Y-42902119D01*
X41413000Y-43457881D01*
X41625680Y-43971337D01*
X42018663Y-44364320D01*
X42225513Y-44450000D01*
X42018663Y-44535680D01*
X41625680Y-44928663D01*
X41413000Y-45442119D01*
X41413000Y-45997881D01*
X41625680Y-46511337D01*
X42018663Y-46904320D01*
X42225513Y-46990000D01*
X42018663Y-47075680D01*
X41625680Y-47468663D01*
X41413000Y-47982119D01*
X41413000Y-48537881D01*
X41625680Y-49051337D01*
X42018663Y-49444320D01*
X42225513Y-49530000D01*
X42018663Y-49615680D01*
X41625680Y-50008663D01*
X41413000Y-50522119D01*
X41413000Y-51077881D01*
X41625680Y-51591337D01*
X42018663Y-51984320D01*
X42225513Y-52070000D01*
X42018663Y-52155680D01*
X41914343Y-52260000D01*
X32234802Y-52260000D01*
X34159476Y-50335327D01*
X34222929Y-50292929D01*
X34265327Y-50229476D01*
X34265329Y-50229474D01*
X34390903Y-50041538D01*
X34390904Y-50041537D01*
X34435000Y-49819852D01*
X34435000Y-49819848D01*
X34449888Y-49745001D01*
X34435000Y-49670154D01*
X34435000Y-46017946D01*
X34634586Y-45884586D01*
X34700000Y-45786687D01*
X34765414Y-45884586D01*
X35056564Y-46079127D01*
X35399999Y-46147440D01*
X36050001Y-46147440D01*
X36393436Y-46079127D01*
X36684586Y-45884586D01*
X36879127Y-45593436D01*
X36947440Y-45250001D01*
X36947440Y-44349999D01*
X36879127Y-44006564D01*
X36684586Y-43715414D01*
X36561755Y-43633341D01*
X36694586Y-43544586D01*
X36889127Y-43253436D01*
X36957440Y-42910001D01*
X36957440Y-42009999D01*
X36889127Y-41666564D01*
X36694586Y-41375414D01*
X36551789Y-41280000D01*
X36694586Y-41184586D01*
X36889127Y-40893436D01*
X36957440Y-40550001D01*
X36957440Y-39649999D01*
X36889127Y-39306564D01*
X36694586Y-39015414D01*
X36551789Y-38920000D01*
X36694586Y-38824586D01*
X36889127Y-38533436D01*
X36957440Y-38190001D01*
X36957440Y-37892302D01*
X41400856Y-37892302D01*
X41428638Y-38447368D01*
X41587603Y-38831143D01*
X41829787Y-38900608D01*
X42630395Y-38100000D01*
X41829787Y-37299392D01*
X41587603Y-37368857D01*
X41400856Y-37892302D01*
X36957440Y-37892302D01*
X36957440Y-37289999D01*
X36889127Y-36946564D01*
X36694586Y-36655414D01*
X36551789Y-36560000D01*
X36694586Y-36464586D01*
X36889127Y-36173436D01*
X36895778Y-36140000D01*
X41538142Y-36140000D01*
X41625680Y-36351337D01*
G36*
X19913847Y-13213914D02*
X19453914Y-13673847D01*
X19205000Y-14274778D01*
X19205000Y-14925222D01*
X19453914Y-15526153D01*
X19913847Y-15986086D01*
X20514778Y-16235000D01*
X21165222Y-16235000D01*
X21766153Y-15986086D01*
X22226086Y-15526153D01*
X22475000Y-14925222D01*
X22475000Y-14274778D01*
X22226086Y-13673847D01*
X21766153Y-13213914D01*
X21454927Y-13085000D01*
X24725073Y-13085000D01*
X24413847Y-13213914D01*
X23953914Y-13673847D01*
X23705000Y-14274778D01*
X23705000Y-14925222D01*
X23953914Y-15526153D01*
X24413847Y-15986086D01*
X25014778Y-16235000D01*
X25665222Y-16235000D01*
X26266153Y-15986086D01*
X26726086Y-15526153D01*
X26975000Y-14925222D01*
X26975000Y-14274778D01*
X26726086Y-13673847D01*
X26266153Y-13213914D01*
X25954927Y-13085000D01*
X40902294Y-13085000D01*
X40273974Y-13345259D01*
X39645259Y-13973974D01*
X39305000Y-14795431D01*
X39305000Y-15684569D01*
X39645259Y-16506026D01*
X40273974Y-17134741D01*
X41095431Y-17475000D01*
X41984569Y-17475000D01*
X42806026Y-17134741D01*
X43434741Y-16506026D01*
X43715000Y-15829422D01*
X43715000Y-21789343D01*
X43601337Y-21675680D01*
X43087881Y-21463000D01*
X42532119Y-21463000D01*
X42018663Y-21675680D01*
X41625680Y-22068663D01*
X41413000Y-22582119D01*
X41413000Y-23137881D01*
X41625680Y-23651337D01*
X42018663Y-24044320D01*
X42225513Y-24130000D01*
X42018663Y-24215680D01*
X41625680Y-24608663D01*
X41413000Y-25122119D01*
X41413000Y-25677881D01*
X41625680Y-26191337D01*
X42018663Y-26584320D01*
X42225513Y-26670000D01*
X42018663Y-26755680D01*
X41625680Y-27148663D01*
X41413000Y-27662119D01*
X41413000Y-28217881D01*
X41625680Y-28731337D01*
X42018663Y-29124320D01*
X42225513Y-29210000D01*
X42018663Y-29295680D01*
X41625680Y-29688663D01*
X41413000Y-30202119D01*
X41413000Y-30757881D01*
X41625680Y-31271337D01*
X42018663Y-31664320D01*
X42225513Y-31750000D01*
X42018663Y-31835680D01*
X41625680Y-32228663D01*
X41413000Y-32742119D01*
X41413000Y-33297881D01*
X41625680Y-33811337D01*
X42018663Y-34204320D01*
X42225513Y-34290000D01*
X42018663Y-34375680D01*
X41774343Y-34620000D01*
X36895778Y-34620000D01*
X36889127Y-34586564D01*
X36694586Y-34295414D01*
X36650798Y-34266156D01*
X36669698Y-34258327D01*
X36848327Y-34079699D01*
X36945000Y-33846310D01*
X36945000Y-33305750D01*
X36786250Y-33147000D01*
X35862000Y-33147000D01*
X35862000Y-33167000D01*
X35608000Y-33167000D01*
X35608000Y-33147000D01*
X35588000Y-33147000D01*
X35588000Y-32893000D01*
X35608000Y-32893000D01*
X35608000Y-31843750D01*
X35862000Y-31843750D01*
X35862000Y-32893000D01*
X36786250Y-32893000D01*
X36945000Y-32734250D01*
X36945000Y-32193690D01*
X36848327Y-31960301D01*
X36669698Y-31781673D01*
X36436309Y-31685000D01*
X36020750Y-31685000D01*
X35862000Y-31843750D01*
X35608000Y-31843750D01*
X35449250Y-31685000D01*
X35033691Y-31685000D01*
X34800302Y-31781673D01*
X34645377Y-31936597D01*
X34644586Y-31935414D01*
X34353436Y-31740873D01*
X34010001Y-31672560D01*
X33359999Y-31672560D01*
X33016564Y-31740873D01*
X32725414Y-31935414D01*
X32530873Y-32226564D01*
X32524222Y-32260000D01*
X31717494Y-32260000D01*
X31678157Y-32062235D01*
X31537809Y-31852191D01*
X31404306Y-31762987D01*
X31439698Y-31748327D01*
X31618327Y-31569699D01*
X31715000Y-31336310D01*
X31715000Y-31095750D01*
X31556250Y-30937000D01*
X30757000Y-30937000D01*
X30757000Y-30957000D01*
X30503000Y-30957000D01*
X30503000Y-30937000D01*
X29703750Y-30937000D01*
X29618219Y-31022531D01*
X29537809Y-30902191D01*
X29390000Y-30803427D01*
X29390000Y-30283690D01*
X29545000Y-30283690D01*
X29545000Y-30524250D01*
X29703750Y-30683000D01*
X30503000Y-30683000D01*
X30503000Y-29933750D01*
X30757000Y-29933750D01*
X30757000Y-30683000D01*
X31556250Y-30683000D01*
X31715000Y-30524250D01*
X31715000Y-30283690D01*
X31618327Y-30050301D01*
X31439698Y-29871673D01*
X31206309Y-29775000D01*
X30915750Y-29775000D01*
X30757000Y-29933750D01*
X30503000Y-29933750D01*
X30344250Y-29775000D01*
X30053691Y-29775000D01*
X29820302Y-29871673D01*
X29641673Y-30050301D01*
X29545000Y-30283690D01*
X29390000Y-30283690D01*
X29390000Y-29704846D01*
X29404888Y-29629999D01*
X29390000Y-29555152D01*
X29390000Y-29555148D01*
X29345904Y-29333463D01*
X29177929Y-29082071D01*
X29114473Y-29039671D01*
X26990331Y-26915530D01*
X26947929Y-26852071D01*
X26696537Y-26684096D01*
X26474852Y-26640000D01*
X26474847Y-26640000D01*
X26400000Y-26625112D01*
X26325153Y-26640000D01*
X25783916Y-26640000D01*
X25708247Y-26526753D01*
X25421152Y-26334922D01*
X25082500Y-26267560D01*
X24507500Y-26267560D01*
X24168848Y-26334922D01*
X23920000Y-26501197D01*
X23671152Y-26334922D01*
X23332500Y-26267560D01*
X22842362Y-26267560D01*
X22635000Y-26060198D01*
X22635000Y-25894126D01*
X22477431Y-25513720D01*
X22186280Y-25222569D01*
X21805874Y-25065000D01*
X21394126Y-25065000D01*
X21349980Y-25083286D01*
X21387929Y-25057929D01*
X21555904Y-24806537D01*
X21600000Y-24584852D01*
X21600000Y-24584847D01*
X21614888Y-24510000D01*
X21600000Y-24435153D01*
X21600000Y-22554909D01*
X21766153Y-22486086D01*
X22226086Y-22026153D01*
X22475000Y-21425222D01*
X22475000Y-20774778D01*
X23705000Y-20774778D01*
X23705000Y-21425222D01*
X23953914Y-22026153D01*
X24413847Y-22486086D01*
X25014778Y-22735000D01*
X25665222Y-22735000D01*
X26266153Y-22486086D01*
X26726086Y-22026153D01*
X26975000Y-21425222D01*
X26975000Y-20774778D01*
X26726086Y-20173847D01*
X26487989Y-19935750D01*
X29265000Y-19935750D01*
X29265000Y-20626309D01*
X29361673Y-20859698D01*
X29540301Y-21038327D01*
X29773690Y-21135000D01*
X30464250Y-21135000D01*
X30623000Y-20976250D01*
X30623000Y-19777000D01*
X29423750Y-19777000D01*
X29265000Y-19935750D01*
X26487989Y-19935750D01*
X26266153Y-19713914D01*
X25665222Y-19465000D01*
X25014778Y-19465000D01*
X24413847Y-19713914D01*
X23953914Y-20173847D01*
X23705000Y-20774778D01*
X22475000Y-20774778D01*
X22226086Y-20173847D01*
X21766153Y-19713914D01*
X21165222Y-19465000D01*
X20514778Y-19465000D01*
X19913847Y-19713914D01*
X19453914Y-20173847D01*
X19205000Y-20774778D01*
X19205000Y-21425222D01*
X19453914Y-22026153D01*
X19913847Y-22486086D01*
X20080000Y-22554909D01*
X20080001Y-24195197D01*
X16267000Y-28008199D01*
X16267000Y-27662119D01*
X16054320Y-27148663D01*
X15661337Y-26755680D01*
X15470353Y-26676572D01*
X15601143Y-26622397D01*
X15670608Y-26380213D01*
X14870000Y-25579605D01*
X14855858Y-25593748D01*
X14676253Y-25414143D01*
X14690395Y-25400000D01*
X15049605Y-25400000D01*
X15850213Y-26200608D01*
X16092397Y-26131143D01*
X16279144Y-25607698D01*
X16251362Y-25052632D01*
X16092397Y-24668857D01*
X15850213Y-24599392D01*
X15049605Y-25400000D01*
X14690395Y-25400000D01*
X14676253Y-25385858D01*
X14855858Y-25206253D01*
X14870000Y-25220395D01*
X15670608Y-24419787D01*
X15601143Y-24177603D01*
X15460607Y-24127465D01*
X15661337Y-24044320D01*
X16054320Y-23651337D01*
X16267000Y-23137881D01*
X16267000Y-22582119D01*
X16054320Y-22068663D01*
X15661337Y-21675680D01*
X15147881Y-21463000D01*
X14592119Y-21463000D01*
X14078663Y-21675680D01*
X13985000Y-21769343D01*
X13985000Y-18673691D01*
X29265000Y-18673691D01*
X29265000Y-19364250D01*
X29423750Y-19523000D01*
X30623000Y-19523000D01*
X30623000Y-18323750D01*
X30877000Y-18323750D01*
X30877000Y-19523000D01*
X30897000Y-19523000D01*
X30897000Y-19777000D01*
X30877000Y-19777000D01*
X30877000Y-20976250D01*
X31035750Y-21135000D01*
X31726310Y-21135000D01*
X31959699Y-21038327D01*
X32138327Y-20859698D01*
X32204904Y-20698967D01*
X32219375Y-20720625D01*
X32710582Y-21048839D01*
X33143744Y-21135000D01*
X33436256Y-21135000D01*
X33869418Y-21048839D01*
X34360625Y-20720625D01*
X34688839Y-20229418D01*
X34741285Y-19965750D01*
X37195000Y-19965750D01*
X37195000Y-20656309D01*
X37291673Y-20889698D01*
X37470301Y-21068327D01*
X37703690Y-21165000D01*
X38394250Y-21165000D01*
X38553000Y-21006250D01*
X38553000Y-19807000D01*
X37353750Y-19807000D01*
X37195000Y-19965750D01*
X34741285Y-19965750D01*
X34804092Y-19650000D01*
X34688839Y-19070582D01*
X34443691Y-18703691D01*
X37195000Y-18703691D01*
X37195000Y-19394250D01*
X37353750Y-19553000D01*
X38553000Y-19553000D01*
X38553000Y-18353750D01*
X38807000Y-18353750D01*
X38807000Y-19553000D01*
X38827000Y-19553000D01*
X38827000Y-19807000D01*
X38807000Y-19807000D01*
X38807000Y-21006250D01*
X38965750Y-21165000D01*
X39656310Y-21165000D01*
X39889699Y-21068327D01*
X40068327Y-20889698D01*
X40134904Y-20728967D01*
X40149375Y-20750625D01*
X40640582Y-21078839D01*
X41073744Y-21165000D01*
X41366256Y-21165000D01*
X41799418Y-21078839D01*
X42290625Y-20750625D01*
X42618839Y-20259418D01*
X42734092Y-19680000D01*
X42618839Y-19100582D01*
X42290625Y-18609375D01*
X41799418Y-18281161D01*
X41366256Y-18195000D01*
X41073744Y-18195000D01*
X40640582Y-18281161D01*
X40149375Y-18609375D01*
X40134904Y-18631033D01*
X40068327Y-18470302D01*
X39889699Y-18291673D01*
X39656310Y-18195000D01*
X38965750Y-18195000D01*
X38807000Y-18353750D01*
X38553000Y-18353750D01*
X38394250Y-18195000D01*
X37703690Y-18195000D01*
X37470301Y-18291673D01*
X37291673Y-18470302D01*
X37195000Y-18703691D01*
X34443691Y-18703691D01*
X34360625Y-18579375D01*
X33869418Y-18251161D01*
X33436256Y-18165000D01*
X33143744Y-18165000D01*
X32710582Y-18251161D01*
X32219375Y-18579375D01*
X32204904Y-18601033D01*
X32138327Y-18440302D01*
X31959699Y-18261673D01*
X31726310Y-18165000D01*
X31035750Y-18165000D01*
X30877000Y-18323750D01*
X30623000Y-18323750D01*
X30464250Y-18165000D01*
X29773690Y-18165000D01*
X29540301Y-18261673D01*
X29361673Y-18440302D01*
X29265000Y-18673691D01*
X13985000Y-18673691D01*
X13985000Y-15877706D01*
X14245259Y-16506026D01*
X14873974Y-17134741D01*
X15695431Y-17475000D01*
X16584569Y-17475000D01*
X17406026Y-17134741D01*
X18034741Y-16506026D01*
X18375000Y-15684569D01*
X18375000Y-14795431D01*
X18034741Y-13973974D01*
X17406026Y-13345259D01*
X16777706Y-13085000D01*
X20225073Y-13085000D01*
X19913847Y-13213914D01*
X19913847Y-13213914D01*
G37*
X19913847Y-13213914D02*
X19453914Y-13673847D01*
X19205000Y-14274778D01*
X19205000Y-14925222D01*
X19453914Y-15526153D01*
X19913847Y-15986086D01*
X20514778Y-16235000D01*
X21165222Y-16235000D01*
X21766153Y-15986086D01*
X22226086Y-15526153D01*
X22475000Y-14925222D01*
X22475000Y-14274778D01*
X22226086Y-13673847D01*
X21766153Y-13213914D01*
X21454927Y-13085000D01*
X24725073Y-13085000D01*
X24413847Y-13213914D01*
X23953914Y-13673847D01*
X23705000Y-14274778D01*
X23705000Y-14925222D01*
X23953914Y-15526153D01*
X24413847Y-15986086D01*
X25014778Y-16235000D01*
X25665222Y-16235000D01*
X26266153Y-15986086D01*
X26726086Y-15526153D01*
X26975000Y-14925222D01*
X26975000Y-14274778D01*
X26726086Y-13673847D01*
X26266153Y-13213914D01*
X25954927Y-13085000D01*
X40902294Y-13085000D01*
X40273974Y-13345259D01*
X39645259Y-13973974D01*
X39305000Y-14795431D01*
X39305000Y-15684569D01*
X39645259Y-16506026D01*
X40273974Y-17134741D01*
X41095431Y-17475000D01*
X41984569Y-17475000D01*
X42806026Y-17134741D01*
X43434741Y-16506026D01*
X43715000Y-15829422D01*
X43715000Y-21789343D01*
X43601337Y-21675680D01*
X43087881Y-21463000D01*
X42532119Y-21463000D01*
X42018663Y-21675680D01*
X41625680Y-22068663D01*
X41413000Y-22582119D01*
X41413000Y-23137881D01*
X41625680Y-23651337D01*
X42018663Y-24044320D01*
X42225513Y-24130000D01*
X42018663Y-24215680D01*
X41625680Y-24608663D01*
X41413000Y-25122119D01*
X41413000Y-25677881D01*
X41625680Y-26191337D01*
X42018663Y-26584320D01*
X42225513Y-26670000D01*
X42018663Y-26755680D01*
X41625680Y-27148663D01*
X41413000Y-27662119D01*
X41413000Y-28217881D01*
X41625680Y-28731337D01*
X42018663Y-29124320D01*
X42225513Y-29210000D01*
X42018663Y-29295680D01*
X41625680Y-29688663D01*
X41413000Y-30202119D01*
X41413000Y-30757881D01*
X41625680Y-31271337D01*
X42018663Y-31664320D01*
X42225513Y-31750000D01*
X42018663Y-31835680D01*
X41625680Y-32228663D01*
X41413000Y-32742119D01*
X41413000Y-33297881D01*
X41625680Y-33811337D01*
X42018663Y-34204320D01*
X42225513Y-34290000D01*
X42018663Y-34375680D01*
X41774343Y-34620000D01*
X36895778Y-34620000D01*
X36889127Y-34586564D01*
X36694586Y-34295414D01*
X36650798Y-34266156D01*
X36669698Y-34258327D01*
X36848327Y-34079699D01*
X36945000Y-33846310D01*
X36945000Y-33305750D01*
X36786250Y-33147000D01*
X35862000Y-33147000D01*
X35862000Y-33167000D01*
X35608000Y-33167000D01*
X35608000Y-33147000D01*
X35588000Y-33147000D01*
X35588000Y-32893000D01*
X35608000Y-32893000D01*
X35608000Y-31843750D01*
X35862000Y-31843750D01*
X35862000Y-32893000D01*
X36786250Y-32893000D01*
X36945000Y-32734250D01*
X36945000Y-32193690D01*
X36848327Y-31960301D01*
X36669698Y-31781673D01*
X36436309Y-31685000D01*
X36020750Y-31685000D01*
X35862000Y-31843750D01*
X35608000Y-31843750D01*
X35449250Y-31685000D01*
X35033691Y-31685000D01*
X34800302Y-31781673D01*
X34645377Y-31936597D01*
X34644586Y-31935414D01*
X34353436Y-31740873D01*
X34010001Y-31672560D01*
X33359999Y-31672560D01*
X33016564Y-31740873D01*
X32725414Y-31935414D01*
X32530873Y-32226564D01*
X32524222Y-32260000D01*
X31717494Y-32260000D01*
X31678157Y-32062235D01*
X31537809Y-31852191D01*
X31404306Y-31762987D01*
X31439698Y-31748327D01*
X31618327Y-31569699D01*
X31715000Y-31336310D01*
X31715000Y-31095750D01*
X31556250Y-30937000D01*
X30757000Y-30937000D01*
X30757000Y-30957000D01*
X30503000Y-30957000D01*
X30503000Y-30937000D01*
X29703750Y-30937000D01*
X29618219Y-31022531D01*
X29537809Y-30902191D01*
X29390000Y-30803427D01*
X29390000Y-30283690D01*
X29545000Y-30283690D01*
X29545000Y-30524250D01*
X29703750Y-30683000D01*
X30503000Y-30683000D01*
X30503000Y-29933750D01*
X30757000Y-29933750D01*
X30757000Y-30683000D01*
X31556250Y-30683000D01*
X31715000Y-30524250D01*
X31715000Y-30283690D01*
X31618327Y-30050301D01*
X31439698Y-29871673D01*
X31206309Y-29775000D01*
X30915750Y-29775000D01*
X30757000Y-29933750D01*
X30503000Y-29933750D01*
X30344250Y-29775000D01*
X30053691Y-29775000D01*
X29820302Y-29871673D01*
X29641673Y-30050301D01*
X29545000Y-30283690D01*
X29390000Y-30283690D01*
X29390000Y-29704846D01*
X29404888Y-29629999D01*
X29390000Y-29555152D01*
X29390000Y-29555148D01*
X29345904Y-29333463D01*
X29177929Y-29082071D01*
X29114473Y-29039671D01*
X26990331Y-26915530D01*
X26947929Y-26852071D01*
X26696537Y-26684096D01*
X26474852Y-26640000D01*
X26474847Y-26640000D01*
X26400000Y-26625112D01*
X26325153Y-26640000D01*
X25783916Y-26640000D01*
X25708247Y-26526753D01*
X25421152Y-26334922D01*
X25082500Y-26267560D01*
X24507500Y-26267560D01*
X24168848Y-26334922D01*
X23920000Y-26501197D01*
X23671152Y-26334922D01*
X23332500Y-26267560D01*
X22842362Y-26267560D01*
X22635000Y-26060198D01*
X22635000Y-25894126D01*
X22477431Y-25513720D01*
X22186280Y-25222569D01*
X21805874Y-25065000D01*
X21394126Y-25065000D01*
X21349980Y-25083286D01*
X21387929Y-25057929D01*
X21555904Y-24806537D01*
X21600000Y-24584852D01*
X21600000Y-24584847D01*
X21614888Y-24510000D01*
X21600000Y-24435153D01*
X21600000Y-22554909D01*
X21766153Y-22486086D01*
X22226086Y-22026153D01*
X22475000Y-21425222D01*
X22475000Y-20774778D01*
X23705000Y-20774778D01*
X23705000Y-21425222D01*
X23953914Y-22026153D01*
X24413847Y-22486086D01*
X25014778Y-22735000D01*
X25665222Y-22735000D01*
X26266153Y-22486086D01*
X26726086Y-22026153D01*
X26975000Y-21425222D01*
X26975000Y-20774778D01*
X26726086Y-20173847D01*
X26487989Y-19935750D01*
X29265000Y-19935750D01*
X29265000Y-20626309D01*
X29361673Y-20859698D01*
X29540301Y-21038327D01*
X29773690Y-21135000D01*
X30464250Y-21135000D01*
X30623000Y-20976250D01*
X30623000Y-19777000D01*
X29423750Y-19777000D01*
X29265000Y-19935750D01*
X26487989Y-19935750D01*
X26266153Y-19713914D01*
X25665222Y-19465000D01*
X25014778Y-19465000D01*
X24413847Y-19713914D01*
X23953914Y-20173847D01*
X23705000Y-20774778D01*
X22475000Y-20774778D01*
X22226086Y-20173847D01*
X21766153Y-19713914D01*
X21165222Y-19465000D01*
X20514778Y-19465000D01*
X19913847Y-19713914D01*
X19453914Y-20173847D01*
X19205000Y-20774778D01*
X19205000Y-21425222D01*
X19453914Y-22026153D01*
X19913847Y-22486086D01*
X20080000Y-22554909D01*
X20080001Y-24195197D01*
X16267000Y-28008199D01*
X16267000Y-27662119D01*
X16054320Y-27148663D01*
X15661337Y-26755680D01*
X15470353Y-26676572D01*
X15601143Y-26622397D01*
X15670608Y-26380213D01*
X14870000Y-25579605D01*
X14855858Y-25593748D01*
X14676253Y-25414143D01*
X14690395Y-25400000D01*
X15049605Y-25400000D01*
X15850213Y-26200608D01*
X16092397Y-26131143D01*
X16279144Y-25607698D01*
X16251362Y-25052632D01*
X16092397Y-24668857D01*
X15850213Y-24599392D01*
X15049605Y-25400000D01*
X14690395Y-25400000D01*
X14676253Y-25385858D01*
X14855858Y-25206253D01*
X14870000Y-25220395D01*
X15670608Y-24419787D01*
X15601143Y-24177603D01*
X15460607Y-24127465D01*
X15661337Y-24044320D01*
X16054320Y-23651337D01*
X16267000Y-23137881D01*
X16267000Y-22582119D01*
X16054320Y-22068663D01*
X15661337Y-21675680D01*
X15147881Y-21463000D01*
X14592119Y-21463000D01*
X14078663Y-21675680D01*
X13985000Y-21769343D01*
X13985000Y-18673691D01*
X29265000Y-18673691D01*
X29265000Y-19364250D01*
X29423750Y-19523000D01*
X30623000Y-19523000D01*
X30623000Y-18323750D01*
X30877000Y-18323750D01*
X30877000Y-19523000D01*
X30897000Y-19523000D01*
X30897000Y-19777000D01*
X30877000Y-19777000D01*
X30877000Y-20976250D01*
X31035750Y-21135000D01*
X31726310Y-21135000D01*
X31959699Y-21038327D01*
X32138327Y-20859698D01*
X32204904Y-20698967D01*
X32219375Y-20720625D01*
X32710582Y-21048839D01*
X33143744Y-21135000D01*
X33436256Y-21135000D01*
X33869418Y-21048839D01*
X34360625Y-20720625D01*
X34688839Y-20229418D01*
X34741285Y-19965750D01*
X37195000Y-19965750D01*
X37195000Y-20656309D01*
X37291673Y-20889698D01*
X37470301Y-21068327D01*
X37703690Y-21165000D01*
X38394250Y-21165000D01*
X38553000Y-21006250D01*
X38553000Y-19807000D01*
X37353750Y-19807000D01*
X37195000Y-19965750D01*
X34741285Y-19965750D01*
X34804092Y-19650000D01*
X34688839Y-19070582D01*
X34443691Y-18703691D01*
X37195000Y-18703691D01*
X37195000Y-19394250D01*
X37353750Y-19553000D01*
X38553000Y-19553000D01*
X38553000Y-18353750D01*
X38807000Y-18353750D01*
X38807000Y-19553000D01*
X38827000Y-19553000D01*
X38827000Y-19807000D01*
X38807000Y-19807000D01*
X38807000Y-21006250D01*
X38965750Y-21165000D01*
X39656310Y-21165000D01*
X39889699Y-21068327D01*
X40068327Y-20889698D01*
X40134904Y-20728967D01*
X40149375Y-20750625D01*
X40640582Y-21078839D01*
X41073744Y-21165000D01*
X41366256Y-21165000D01*
X41799418Y-21078839D01*
X42290625Y-20750625D01*
X42618839Y-20259418D01*
X42734092Y-19680000D01*
X42618839Y-19100582D01*
X42290625Y-18609375D01*
X41799418Y-18281161D01*
X41366256Y-18195000D01*
X41073744Y-18195000D01*
X40640582Y-18281161D01*
X40149375Y-18609375D01*
X40134904Y-18631033D01*
X40068327Y-18470302D01*
X39889699Y-18291673D01*
X39656310Y-18195000D01*
X38965750Y-18195000D01*
X38807000Y-18353750D01*
X38553000Y-18353750D01*
X38394250Y-18195000D01*
X37703690Y-18195000D01*
X37470301Y-18291673D01*
X37291673Y-18470302D01*
X37195000Y-18703691D01*
X34443691Y-18703691D01*
X34360625Y-18579375D01*
X33869418Y-18251161D01*
X33436256Y-18165000D01*
X33143744Y-18165000D01*
X32710582Y-18251161D01*
X32219375Y-18579375D01*
X32204904Y-18601033D01*
X32138327Y-18440302D01*
X31959699Y-18261673D01*
X31726310Y-18165000D01*
X31035750Y-18165000D01*
X30877000Y-18323750D01*
X30623000Y-18323750D01*
X30464250Y-18165000D01*
X29773690Y-18165000D01*
X29540301Y-18261673D01*
X29361673Y-18440302D01*
X29265000Y-18673691D01*
X13985000Y-18673691D01*
X13985000Y-15877706D01*
X14245259Y-16506026D01*
X14873974Y-17134741D01*
X15695431Y-17475000D01*
X16584569Y-17475000D01*
X17406026Y-17134741D01*
X18034741Y-16506026D01*
X18375000Y-15684569D01*
X18375000Y-14795431D01*
X18034741Y-13973974D01*
X17406026Y-13345259D01*
X16777706Y-13085000D01*
X20225073Y-13085000D01*
X19913847Y-13213914D01*
G04 #@! TD*
M02*
