G04 #@! TF.GenerationSoftware,KiCad,Pcbnew,(5.0.2)-1*
G04 #@! TF.CreationDate,2019-06-21T14:02:06+05:30*
G04 #@! TF.ProjectId,CapacityOfBattery,43617061-6369-4747-994f-664261747465,rev?*
G04 #@! TF.SameCoordinates,Original*
G04 #@! TF.FileFunction,Soldermask,Top*
G04 #@! TF.FilePolarity,Negative*
%FSLAX46Y46*%
G04 Gerber Fmt 4.6, Leading zero omitted, Abs format (unit mm)*
G04 Created by KiCad (PCBNEW (5.0.2)-1) date 06/21/19 14:02:06*
%MOMM*%
%LPD*%
G01*
G04 APERTURE LIST*
%ADD10C,0.100000*%
G04 APERTURE END LIST*
D10*
G36*
X42006703Y-65771486D02*
X42297883Y-65892097D01*
X42559944Y-66067201D01*
X42782799Y-66290056D01*
X42957903Y-66552117D01*
X43078514Y-66843297D01*
X43140000Y-67152412D01*
X43140000Y-67467588D01*
X43078514Y-67776703D01*
X42957903Y-68067883D01*
X42782799Y-68329944D01*
X42559944Y-68552799D01*
X42297883Y-68727903D01*
X42006703Y-68848514D01*
X41697588Y-68910000D01*
X41382412Y-68910000D01*
X41073297Y-68848514D01*
X40782117Y-68727903D01*
X40520056Y-68552799D01*
X40297201Y-68329944D01*
X40122097Y-68067883D01*
X40001486Y-67776703D01*
X39940000Y-67467588D01*
X39940000Y-67152412D01*
X40001486Y-66843297D01*
X40122097Y-66552117D01*
X40297201Y-66290056D01*
X40520056Y-66067201D01*
X40782117Y-65892097D01*
X41073297Y-65771486D01*
X41382412Y-65710000D01*
X41697588Y-65710000D01*
X42006703Y-65771486D01*
X42006703Y-65771486D01*
G37*
G36*
X16606703Y-65771486D02*
X16897883Y-65892097D01*
X17159944Y-66067201D01*
X17382799Y-66290056D01*
X17557903Y-66552117D01*
X17678514Y-66843297D01*
X17740000Y-67152412D01*
X17740000Y-67467588D01*
X17678514Y-67776703D01*
X17557903Y-68067883D01*
X17382799Y-68329944D01*
X17159944Y-68552799D01*
X16897883Y-68727903D01*
X16606703Y-68848514D01*
X16297588Y-68910000D01*
X15982412Y-68910000D01*
X15673297Y-68848514D01*
X15382117Y-68727903D01*
X15120056Y-68552799D01*
X14897201Y-68329944D01*
X14722097Y-68067883D01*
X14601486Y-67776703D01*
X14540000Y-67467588D01*
X14540000Y-67152412D01*
X14601486Y-66843297D01*
X14722097Y-66552117D01*
X14897201Y-66290056D01*
X15120056Y-66067201D01*
X15382117Y-65892097D01*
X15673297Y-65771486D01*
X15982412Y-65710000D01*
X16297588Y-65710000D01*
X16606703Y-65771486D01*
X16606703Y-65771486D01*
G37*
G36*
X15043195Y-57677522D02*
X15092267Y-57687283D01*
X15230942Y-57744724D01*
X15355750Y-57828118D01*
X15461882Y-57934250D01*
X15545276Y-58059058D01*
X15602717Y-58197734D01*
X15632000Y-58344948D01*
X15632000Y-58495052D01*
X15602717Y-58642266D01*
X15545276Y-58780942D01*
X15461882Y-58905750D01*
X15355750Y-59011882D01*
X15355747Y-59011884D01*
X15230942Y-59095276D01*
X15092267Y-59152717D01*
X15043195Y-59162478D01*
X14945052Y-59182000D01*
X14794948Y-59182000D01*
X14696805Y-59162478D01*
X14647733Y-59152717D01*
X14509058Y-59095276D01*
X14384253Y-59011884D01*
X14384250Y-59011882D01*
X14278118Y-58905750D01*
X14194724Y-58780942D01*
X14137283Y-58642266D01*
X14108000Y-58495052D01*
X14108000Y-58344948D01*
X14137283Y-58197734D01*
X14194724Y-58059058D01*
X14278118Y-57934250D01*
X14384250Y-57828118D01*
X14509058Y-57744724D01*
X14647733Y-57687283D01*
X14696805Y-57677522D01*
X14794948Y-57658000D01*
X14945052Y-57658000D01*
X15043195Y-57677522D01*
X15043195Y-57677522D01*
G37*
G36*
X42983195Y-57677522D02*
X43032267Y-57687283D01*
X43170942Y-57744724D01*
X43295750Y-57828118D01*
X43401882Y-57934250D01*
X43485276Y-58059058D01*
X43542717Y-58197734D01*
X43572000Y-58344948D01*
X43572000Y-58495052D01*
X43542717Y-58642266D01*
X43485276Y-58780942D01*
X43401882Y-58905750D01*
X43295750Y-59011882D01*
X43295747Y-59011884D01*
X43170942Y-59095276D01*
X43032267Y-59152717D01*
X42983195Y-59162478D01*
X42885052Y-59182000D01*
X42734948Y-59182000D01*
X42636805Y-59162478D01*
X42587733Y-59152717D01*
X42449058Y-59095276D01*
X42324253Y-59011884D01*
X42324250Y-59011882D01*
X42218118Y-58905750D01*
X42134724Y-58780942D01*
X42077283Y-58642266D01*
X42048000Y-58495052D01*
X42048000Y-58344948D01*
X42077283Y-58197734D01*
X42134724Y-58059058D01*
X42218118Y-57934250D01*
X42324250Y-57828118D01*
X42449058Y-57744724D01*
X42587733Y-57687283D01*
X42636805Y-57677522D01*
X42734948Y-57658000D01*
X42885052Y-57658000D01*
X42983195Y-57677522D01*
X42983195Y-57677522D01*
G37*
G36*
X42983195Y-55137522D02*
X43032267Y-55147283D01*
X43170942Y-55204724D01*
X43295750Y-55288118D01*
X43401882Y-55394250D01*
X43485276Y-55519058D01*
X43542717Y-55657734D01*
X43572000Y-55804948D01*
X43572000Y-55955052D01*
X43542717Y-56102266D01*
X43485276Y-56240942D01*
X43401882Y-56365750D01*
X43295750Y-56471882D01*
X43295747Y-56471884D01*
X43170942Y-56555276D01*
X43032267Y-56612717D01*
X42983195Y-56622478D01*
X42885052Y-56642000D01*
X42734948Y-56642000D01*
X42636805Y-56622478D01*
X42587733Y-56612717D01*
X42449058Y-56555276D01*
X42324253Y-56471884D01*
X42324250Y-56471882D01*
X42218118Y-56365750D01*
X42134724Y-56240942D01*
X42077283Y-56102266D01*
X42048000Y-55955052D01*
X42048000Y-55804948D01*
X42077283Y-55657734D01*
X42134724Y-55519058D01*
X42218118Y-55394250D01*
X42324250Y-55288118D01*
X42449058Y-55204724D01*
X42587733Y-55147283D01*
X42636805Y-55137522D01*
X42734948Y-55118000D01*
X42885052Y-55118000D01*
X42983195Y-55137522D01*
X42983195Y-55137522D01*
G37*
G36*
X15043195Y-55137522D02*
X15092267Y-55147283D01*
X15230942Y-55204724D01*
X15355750Y-55288118D01*
X15461882Y-55394250D01*
X15545276Y-55519058D01*
X15602717Y-55657734D01*
X15632000Y-55804948D01*
X15632000Y-55955052D01*
X15602717Y-56102266D01*
X15545276Y-56240942D01*
X15461882Y-56365750D01*
X15355750Y-56471882D01*
X15355747Y-56471884D01*
X15230942Y-56555276D01*
X15092267Y-56612717D01*
X15043195Y-56622478D01*
X14945052Y-56642000D01*
X14794948Y-56642000D01*
X14696805Y-56622478D01*
X14647733Y-56612717D01*
X14509058Y-56555276D01*
X14384253Y-56471884D01*
X14384250Y-56471882D01*
X14278118Y-56365750D01*
X14194724Y-56240942D01*
X14137283Y-56102266D01*
X14108000Y-55955052D01*
X14108000Y-55804948D01*
X14137283Y-55657734D01*
X14194724Y-55519058D01*
X14278118Y-55394250D01*
X14384250Y-55288118D01*
X14509058Y-55204724D01*
X14647733Y-55147283D01*
X14696805Y-55137522D01*
X14794948Y-55118000D01*
X14945052Y-55118000D01*
X15043195Y-55137522D01*
X15043195Y-55137522D01*
G37*
G36*
X42983195Y-52597522D02*
X43032267Y-52607283D01*
X43128256Y-52647043D01*
X43170942Y-52664724D01*
X43295750Y-52748118D01*
X43401882Y-52854250D01*
X43485276Y-52979058D01*
X43542717Y-53117734D01*
X43572000Y-53264948D01*
X43572000Y-53415052D01*
X43542717Y-53562266D01*
X43485276Y-53700942D01*
X43401882Y-53825750D01*
X43295750Y-53931882D01*
X43295747Y-53931884D01*
X43170942Y-54015276D01*
X43032267Y-54072717D01*
X42983195Y-54082478D01*
X42885052Y-54102000D01*
X42734948Y-54102000D01*
X42636805Y-54082478D01*
X42587733Y-54072717D01*
X42449058Y-54015276D01*
X42324253Y-53931884D01*
X42324250Y-53931882D01*
X42218118Y-53825750D01*
X42134724Y-53700942D01*
X42077283Y-53562266D01*
X42048000Y-53415052D01*
X42048000Y-53264948D01*
X42077283Y-53117734D01*
X42134724Y-52979058D01*
X42218118Y-52854250D01*
X42324250Y-52748118D01*
X42449058Y-52664724D01*
X42491744Y-52647043D01*
X42587733Y-52607283D01*
X42636805Y-52597522D01*
X42734948Y-52578000D01*
X42885052Y-52578000D01*
X42983195Y-52597522D01*
X42983195Y-52597522D01*
G37*
G36*
X15043195Y-52597522D02*
X15092267Y-52607283D01*
X15188256Y-52647043D01*
X15230942Y-52664724D01*
X15355750Y-52748118D01*
X15461882Y-52854250D01*
X15545276Y-52979058D01*
X15602717Y-53117734D01*
X15632000Y-53264948D01*
X15632000Y-53415052D01*
X15602717Y-53562266D01*
X15545276Y-53700942D01*
X15461882Y-53825750D01*
X15355750Y-53931882D01*
X15355747Y-53931884D01*
X15230942Y-54015276D01*
X15092267Y-54072717D01*
X15043195Y-54082478D01*
X14945052Y-54102000D01*
X14794948Y-54102000D01*
X14696805Y-54082478D01*
X14647733Y-54072717D01*
X14509058Y-54015276D01*
X14384253Y-53931884D01*
X14384250Y-53931882D01*
X14278118Y-53825750D01*
X14194724Y-53700942D01*
X14137283Y-53562266D01*
X14108000Y-53415052D01*
X14108000Y-53264948D01*
X14137283Y-53117734D01*
X14194724Y-52979058D01*
X14278118Y-52854250D01*
X14384250Y-52748118D01*
X14509058Y-52664724D01*
X14551744Y-52647043D01*
X14647733Y-52607283D01*
X14696805Y-52597522D01*
X14794948Y-52578000D01*
X14945052Y-52578000D01*
X15043195Y-52597522D01*
X15043195Y-52597522D01*
G37*
G36*
X30800000Y-53420000D02*
X29900000Y-53420000D01*
X29900000Y-52620000D01*
X30800000Y-52620000D01*
X30800000Y-53420000D01*
X30800000Y-53420000D01*
G37*
G36*
X25775522Y-51304039D02*
X25809053Y-51314211D01*
X25839960Y-51330731D01*
X25867043Y-51352957D01*
X25889269Y-51380040D01*
X25905789Y-51410947D01*
X25915961Y-51444478D01*
X25920000Y-51485487D01*
X25920000Y-52514513D01*
X25915961Y-52555522D01*
X25905789Y-52589053D01*
X25889269Y-52619960D01*
X25867043Y-52647043D01*
X25839960Y-52669269D01*
X25809053Y-52685789D01*
X25775522Y-52695961D01*
X25734513Y-52700000D01*
X24955487Y-52700000D01*
X24914478Y-52695961D01*
X24880947Y-52685789D01*
X24850040Y-52669269D01*
X24822957Y-52647043D01*
X24800731Y-52619960D01*
X24784211Y-52589053D01*
X24774039Y-52555522D01*
X24770000Y-52514513D01*
X24770000Y-51485487D01*
X24774039Y-51444478D01*
X24784211Y-51410947D01*
X24800731Y-51380040D01*
X24822957Y-51352957D01*
X24850040Y-51330731D01*
X24880947Y-51314211D01*
X24914478Y-51304039D01*
X24955487Y-51300000D01*
X25734513Y-51300000D01*
X25775522Y-51304039D01*
X25775522Y-51304039D01*
G37*
G36*
X23725522Y-51304039D02*
X23759053Y-51314211D01*
X23789960Y-51330731D01*
X23817043Y-51352957D01*
X23839269Y-51380040D01*
X23855789Y-51410947D01*
X23865961Y-51444478D01*
X23870000Y-51485487D01*
X23870000Y-52514513D01*
X23865961Y-52555522D01*
X23855789Y-52589053D01*
X23839269Y-52619960D01*
X23817043Y-52647043D01*
X23789960Y-52669269D01*
X23759053Y-52685789D01*
X23725522Y-52695961D01*
X23684513Y-52700000D01*
X22905487Y-52700000D01*
X22864478Y-52695961D01*
X22830947Y-52685789D01*
X22800040Y-52669269D01*
X22772957Y-52647043D01*
X22750731Y-52619960D01*
X22734211Y-52589053D01*
X22724039Y-52555522D01*
X22720000Y-52514513D01*
X22720000Y-51485487D01*
X22724039Y-51444478D01*
X22734211Y-51410947D01*
X22750731Y-51380040D01*
X22772957Y-51352957D01*
X22800040Y-51330731D01*
X22830947Y-51314211D01*
X22864478Y-51304039D01*
X22905487Y-51300000D01*
X23684513Y-51300000D01*
X23725522Y-51304039D01*
X23725522Y-51304039D01*
G37*
G36*
X28800000Y-52470000D02*
X27900000Y-52470000D01*
X27900000Y-51670000D01*
X28800000Y-51670000D01*
X28800000Y-52470000D01*
X28800000Y-52470000D01*
G37*
G36*
X15043195Y-50057522D02*
X15092267Y-50067283D01*
X15230942Y-50124724D01*
X15355750Y-50208118D01*
X15461882Y-50314250D01*
X15545276Y-50439058D01*
X15602717Y-50577734D01*
X15632000Y-50724948D01*
X15632000Y-50875052D01*
X15602717Y-51022266D01*
X15545276Y-51160942D01*
X15461882Y-51285750D01*
X15355750Y-51391882D01*
X15355747Y-51391884D01*
X15230942Y-51475276D01*
X15092267Y-51532717D01*
X15043195Y-51542478D01*
X14945052Y-51562000D01*
X14794948Y-51562000D01*
X14696805Y-51542478D01*
X14647733Y-51532717D01*
X14509058Y-51475276D01*
X14384253Y-51391884D01*
X14384250Y-51391882D01*
X14278118Y-51285750D01*
X14194724Y-51160942D01*
X14137283Y-51022266D01*
X14108000Y-50875052D01*
X14108000Y-50724948D01*
X14137283Y-50577734D01*
X14194724Y-50439058D01*
X14278118Y-50314250D01*
X14384250Y-50208118D01*
X14509058Y-50124724D01*
X14647733Y-50067283D01*
X14696805Y-50057522D01*
X14794948Y-50038000D01*
X14945052Y-50038000D01*
X15043195Y-50057522D01*
X15043195Y-50057522D01*
G37*
G36*
X42983195Y-50057522D02*
X43032267Y-50067283D01*
X43170942Y-50124724D01*
X43295750Y-50208118D01*
X43401882Y-50314250D01*
X43485276Y-50439058D01*
X43542717Y-50577734D01*
X43572000Y-50724948D01*
X43572000Y-50875052D01*
X43542717Y-51022266D01*
X43485276Y-51160942D01*
X43401882Y-51285750D01*
X43295750Y-51391882D01*
X43295747Y-51391884D01*
X43170942Y-51475276D01*
X43032267Y-51532717D01*
X42983195Y-51542478D01*
X42885052Y-51562000D01*
X42734948Y-51562000D01*
X42636805Y-51542478D01*
X42587733Y-51532717D01*
X42449058Y-51475276D01*
X42324253Y-51391884D01*
X42324250Y-51391882D01*
X42218118Y-51285750D01*
X42134724Y-51160942D01*
X42077283Y-51022266D01*
X42048000Y-50875052D01*
X42048000Y-50724948D01*
X42077283Y-50577734D01*
X42134724Y-50439058D01*
X42218118Y-50314250D01*
X42324250Y-50208118D01*
X42449058Y-50124724D01*
X42587733Y-50067283D01*
X42636805Y-50057522D01*
X42734948Y-50038000D01*
X42885052Y-50038000D01*
X42983195Y-50057522D01*
X42983195Y-50057522D01*
G37*
G36*
X30800000Y-51520000D02*
X29900000Y-51520000D01*
X29900000Y-50720000D01*
X30800000Y-50720000D01*
X30800000Y-51520000D01*
X30800000Y-51520000D01*
G37*
G36*
X23725522Y-49004039D02*
X23759053Y-49014211D01*
X23789960Y-49030731D01*
X23817043Y-49052957D01*
X23839269Y-49080040D01*
X23855789Y-49110947D01*
X23865961Y-49144478D01*
X23870000Y-49185487D01*
X23870000Y-50214513D01*
X23865961Y-50255522D01*
X23855789Y-50289053D01*
X23839269Y-50319960D01*
X23817043Y-50347043D01*
X23789960Y-50369269D01*
X23759053Y-50385789D01*
X23725522Y-50395961D01*
X23684513Y-50400000D01*
X22905487Y-50400000D01*
X22864478Y-50395961D01*
X22830947Y-50385789D01*
X22800040Y-50369269D01*
X22772957Y-50347043D01*
X22750731Y-50319960D01*
X22734211Y-50289053D01*
X22724039Y-50255522D01*
X22720000Y-50214513D01*
X22720000Y-49185487D01*
X22724039Y-49144478D01*
X22734211Y-49110947D01*
X22750731Y-49080040D01*
X22772957Y-49052957D01*
X22800040Y-49030731D01*
X22830947Y-49014211D01*
X22864478Y-49004039D01*
X22905487Y-49000000D01*
X23684513Y-49000000D01*
X23725522Y-49004039D01*
X23725522Y-49004039D01*
G37*
G36*
X25775522Y-49004039D02*
X25809053Y-49014211D01*
X25839960Y-49030731D01*
X25867043Y-49052957D01*
X25889269Y-49080040D01*
X25905789Y-49110947D01*
X25915961Y-49144478D01*
X25920000Y-49185487D01*
X25920000Y-50214513D01*
X25915961Y-50255522D01*
X25905789Y-50289053D01*
X25889269Y-50319960D01*
X25867043Y-50347043D01*
X25839960Y-50369269D01*
X25809053Y-50385789D01*
X25775522Y-50395961D01*
X25734513Y-50400000D01*
X24955487Y-50400000D01*
X24914478Y-50395961D01*
X24880947Y-50385789D01*
X24850040Y-50369269D01*
X24822957Y-50347043D01*
X24800731Y-50319960D01*
X24784211Y-50289053D01*
X24774039Y-50255522D01*
X24770000Y-50214513D01*
X24770000Y-49185487D01*
X24774039Y-49144478D01*
X24784211Y-49110947D01*
X24800731Y-49080040D01*
X24822957Y-49052957D01*
X24850040Y-49030731D01*
X24880947Y-49014211D01*
X24914478Y-49004039D01*
X24955487Y-49000000D01*
X25734513Y-49000000D01*
X25775522Y-49004039D01*
X25775522Y-49004039D01*
G37*
G36*
X15043195Y-47517522D02*
X15092267Y-47527283D01*
X15230942Y-47584724D01*
X15355750Y-47668118D01*
X15461882Y-47774250D01*
X15461884Y-47774253D01*
X15545276Y-47899058D01*
X15599514Y-48030000D01*
X15602717Y-48037734D01*
X15632000Y-48184948D01*
X15632000Y-48335052D01*
X15602717Y-48482266D01*
X15545276Y-48620942D01*
X15461882Y-48745750D01*
X15355750Y-48851882D01*
X15355747Y-48851884D01*
X15230942Y-48935276D01*
X15092267Y-48992717D01*
X15043195Y-49002478D01*
X14945052Y-49022000D01*
X14794948Y-49022000D01*
X14696805Y-49002478D01*
X14647733Y-48992717D01*
X14509058Y-48935276D01*
X14384253Y-48851884D01*
X14384250Y-48851882D01*
X14278118Y-48745750D01*
X14194724Y-48620942D01*
X14137283Y-48482266D01*
X14108000Y-48335052D01*
X14108000Y-48184948D01*
X14137283Y-48037734D01*
X14140487Y-48030000D01*
X14194724Y-47899058D01*
X14278116Y-47774253D01*
X14278118Y-47774250D01*
X14384250Y-47668118D01*
X14509058Y-47584724D01*
X14647733Y-47527283D01*
X14696805Y-47517522D01*
X14794948Y-47498000D01*
X14945052Y-47498000D01*
X15043195Y-47517522D01*
X15043195Y-47517522D01*
G37*
G36*
X42983195Y-47517522D02*
X43032267Y-47527283D01*
X43170942Y-47584724D01*
X43295750Y-47668118D01*
X43401882Y-47774250D01*
X43401884Y-47774253D01*
X43485276Y-47899058D01*
X43539514Y-48030000D01*
X43542717Y-48037734D01*
X43572000Y-48184948D01*
X43572000Y-48335052D01*
X43542717Y-48482266D01*
X43485276Y-48620942D01*
X43401882Y-48745750D01*
X43295750Y-48851882D01*
X43295747Y-48851884D01*
X43170942Y-48935276D01*
X43032267Y-48992717D01*
X42983195Y-49002478D01*
X42885052Y-49022000D01*
X42734948Y-49022000D01*
X42636805Y-49002478D01*
X42587733Y-48992717D01*
X42449058Y-48935276D01*
X42324253Y-48851884D01*
X42324250Y-48851882D01*
X42218118Y-48745750D01*
X42134724Y-48620942D01*
X42077283Y-48482266D01*
X42048000Y-48335052D01*
X42048000Y-48184948D01*
X42077283Y-48037734D01*
X42080487Y-48030000D01*
X42134724Y-47899058D01*
X42218116Y-47774253D01*
X42218118Y-47774250D01*
X42324250Y-47668118D01*
X42449058Y-47584724D01*
X42587733Y-47527283D01*
X42636805Y-47517522D01*
X42734948Y-47498000D01*
X42885052Y-47498000D01*
X42983195Y-47517522D01*
X42983195Y-47517522D01*
G37*
G36*
X30800000Y-48340000D02*
X29900000Y-48340000D01*
X29900000Y-47540000D01*
X30800000Y-47540000D01*
X30800000Y-48340000D01*
X30800000Y-48340000D01*
G37*
G36*
X25785522Y-46634039D02*
X25819053Y-46644211D01*
X25849960Y-46660731D01*
X25877043Y-46682957D01*
X25899269Y-46710040D01*
X25915789Y-46740947D01*
X25925961Y-46774478D01*
X25930000Y-46815487D01*
X25930000Y-47844513D01*
X25925961Y-47885522D01*
X25915789Y-47919053D01*
X25899269Y-47949960D01*
X25877043Y-47977043D01*
X25849960Y-47999269D01*
X25819053Y-48015789D01*
X25785522Y-48025961D01*
X25744513Y-48030000D01*
X24965487Y-48030000D01*
X24924478Y-48025961D01*
X24890947Y-48015789D01*
X24860040Y-47999269D01*
X24832957Y-47977043D01*
X24810731Y-47949960D01*
X24794211Y-47919053D01*
X24784039Y-47885522D01*
X24780000Y-47844513D01*
X24780000Y-46815487D01*
X24784039Y-46774478D01*
X24794211Y-46740947D01*
X24810731Y-46710040D01*
X24832957Y-46682957D01*
X24860040Y-46660731D01*
X24890947Y-46644211D01*
X24924478Y-46634039D01*
X24965487Y-46630000D01*
X25744513Y-46630000D01*
X25785522Y-46634039D01*
X25785522Y-46634039D01*
G37*
G36*
X23735522Y-46634039D02*
X23769053Y-46644211D01*
X23799960Y-46660731D01*
X23827043Y-46682957D01*
X23849269Y-46710040D01*
X23865789Y-46740947D01*
X23875961Y-46774478D01*
X23880000Y-46815487D01*
X23880000Y-47844513D01*
X23875961Y-47885522D01*
X23865789Y-47919053D01*
X23849269Y-47949960D01*
X23827043Y-47977043D01*
X23799960Y-47999269D01*
X23769053Y-48015789D01*
X23735522Y-48025961D01*
X23694513Y-48030000D01*
X22915487Y-48030000D01*
X22874478Y-48025961D01*
X22840947Y-48015789D01*
X22810040Y-47999269D01*
X22782957Y-47977043D01*
X22760731Y-47949960D01*
X22744211Y-47919053D01*
X22734039Y-47885522D01*
X22730000Y-47844513D01*
X22730000Y-46815487D01*
X22734039Y-46774478D01*
X22744211Y-46740947D01*
X22760731Y-46710040D01*
X22782957Y-46682957D01*
X22810040Y-46660731D01*
X22840947Y-46644211D01*
X22874478Y-46634039D01*
X22915487Y-46630000D01*
X23694513Y-46630000D01*
X23735522Y-46634039D01*
X23735522Y-46634039D01*
G37*
G36*
X28800000Y-47390000D02*
X27900000Y-47390000D01*
X27900000Y-46590000D01*
X28800000Y-46590000D01*
X28800000Y-47390000D01*
X28800000Y-47390000D01*
G37*
G36*
X15043195Y-44977522D02*
X15092267Y-44987283D01*
X15230942Y-45044724D01*
X15355750Y-45128118D01*
X15461882Y-45234250D01*
X15461884Y-45234253D01*
X15545276Y-45359058D01*
X15597770Y-45485789D01*
X15602717Y-45497734D01*
X15632000Y-45644948D01*
X15632000Y-45795052D01*
X15602717Y-45942266D01*
X15545276Y-46080942D01*
X15461882Y-46205750D01*
X15355750Y-46311882D01*
X15355747Y-46311884D01*
X15230942Y-46395276D01*
X15092267Y-46452717D01*
X15043195Y-46462478D01*
X14945052Y-46482000D01*
X14794948Y-46482000D01*
X14696805Y-46462478D01*
X14647733Y-46452717D01*
X14509058Y-46395276D01*
X14384253Y-46311884D01*
X14384250Y-46311882D01*
X14278118Y-46205750D01*
X14194724Y-46080942D01*
X14137283Y-45942266D01*
X14108000Y-45795052D01*
X14108000Y-45644948D01*
X14137283Y-45497734D01*
X14142231Y-45485789D01*
X14194724Y-45359058D01*
X14278116Y-45234253D01*
X14278118Y-45234250D01*
X14384250Y-45128118D01*
X14509058Y-45044724D01*
X14647733Y-44987283D01*
X14696805Y-44977522D01*
X14794948Y-44958000D01*
X14945052Y-44958000D01*
X15043195Y-44977522D01*
X15043195Y-44977522D01*
G37*
G36*
X42983195Y-44977522D02*
X43032267Y-44987283D01*
X43170942Y-45044724D01*
X43295750Y-45128118D01*
X43401882Y-45234250D01*
X43401884Y-45234253D01*
X43485276Y-45359058D01*
X43537770Y-45485789D01*
X43542717Y-45497734D01*
X43572000Y-45644948D01*
X43572000Y-45795052D01*
X43542717Y-45942266D01*
X43485276Y-46080942D01*
X43401882Y-46205750D01*
X43295750Y-46311882D01*
X43295747Y-46311884D01*
X43170942Y-46395276D01*
X43032267Y-46452717D01*
X42983195Y-46462478D01*
X42885052Y-46482000D01*
X42734948Y-46482000D01*
X42636805Y-46462478D01*
X42587733Y-46452717D01*
X42449058Y-46395276D01*
X42324253Y-46311884D01*
X42324250Y-46311882D01*
X42218118Y-46205750D01*
X42134724Y-46080942D01*
X42077283Y-45942266D01*
X42048000Y-45795052D01*
X42048000Y-45644948D01*
X42077283Y-45497734D01*
X42082231Y-45485789D01*
X42134724Y-45359058D01*
X42218116Y-45234253D01*
X42218118Y-45234250D01*
X42324250Y-45128118D01*
X42449058Y-45044724D01*
X42587733Y-44987283D01*
X42636805Y-44977522D01*
X42734948Y-44958000D01*
X42885052Y-44958000D01*
X42983195Y-44977522D01*
X42983195Y-44977522D01*
G37*
G36*
X30800000Y-46440000D02*
X29900000Y-46440000D01*
X29900000Y-45640000D01*
X30800000Y-45640000D01*
X30800000Y-46440000D01*
X30800000Y-46440000D01*
G37*
G36*
X23735522Y-44264039D02*
X23769053Y-44274211D01*
X23799960Y-44290731D01*
X23827043Y-44312957D01*
X23849269Y-44340040D01*
X23865789Y-44370947D01*
X23875961Y-44404478D01*
X23880000Y-44445487D01*
X23880000Y-45474513D01*
X23875961Y-45515522D01*
X23865789Y-45549053D01*
X23849269Y-45579960D01*
X23827043Y-45607043D01*
X23799960Y-45629269D01*
X23769053Y-45645789D01*
X23735522Y-45655961D01*
X23694513Y-45660000D01*
X22915487Y-45660000D01*
X22874478Y-45655961D01*
X22840947Y-45645789D01*
X22810040Y-45629269D01*
X22782957Y-45607043D01*
X22760731Y-45579960D01*
X22744211Y-45549053D01*
X22734039Y-45515522D01*
X22730000Y-45474513D01*
X22730000Y-44445487D01*
X22734039Y-44404478D01*
X22744211Y-44370947D01*
X22760731Y-44340040D01*
X22782957Y-44312957D01*
X22810040Y-44290731D01*
X22840947Y-44274211D01*
X22874478Y-44264039D01*
X22915487Y-44260000D01*
X23694513Y-44260000D01*
X23735522Y-44264039D01*
X23735522Y-44264039D01*
G37*
G36*
X25785522Y-44264039D02*
X25819053Y-44274211D01*
X25849960Y-44290731D01*
X25877043Y-44312957D01*
X25899269Y-44340040D01*
X25915789Y-44370947D01*
X25925961Y-44404478D01*
X25930000Y-44445487D01*
X25930000Y-45474513D01*
X25925961Y-45515522D01*
X25915789Y-45549053D01*
X25899269Y-45579960D01*
X25877043Y-45607043D01*
X25849960Y-45629269D01*
X25819053Y-45645789D01*
X25785522Y-45655961D01*
X25744513Y-45660000D01*
X24965487Y-45660000D01*
X24924478Y-45655961D01*
X24890947Y-45645789D01*
X24860040Y-45629269D01*
X24832957Y-45607043D01*
X24810731Y-45579960D01*
X24794211Y-45549053D01*
X24784039Y-45515522D01*
X24780000Y-45474513D01*
X24780000Y-44445487D01*
X24784039Y-44404478D01*
X24794211Y-44370947D01*
X24810731Y-44340040D01*
X24832957Y-44312957D01*
X24860040Y-44290731D01*
X24890947Y-44274211D01*
X24924478Y-44264039D01*
X24965487Y-44260000D01*
X25744513Y-44260000D01*
X25785522Y-44264039D01*
X25785522Y-44264039D01*
G37*
G36*
X34105522Y-44104039D02*
X34139053Y-44114211D01*
X34169960Y-44130731D01*
X34197043Y-44152957D01*
X34219269Y-44180040D01*
X34235789Y-44210947D01*
X34245961Y-44244478D01*
X34250000Y-44285487D01*
X34250000Y-45314513D01*
X34245961Y-45355522D01*
X34235789Y-45389053D01*
X34219269Y-45419960D01*
X34197043Y-45447043D01*
X34169960Y-45469269D01*
X34139053Y-45485789D01*
X34105522Y-45495961D01*
X34064513Y-45500000D01*
X33285487Y-45500000D01*
X33244478Y-45495961D01*
X33210947Y-45485789D01*
X33180040Y-45469269D01*
X33152957Y-45447043D01*
X33130731Y-45419960D01*
X33114211Y-45389053D01*
X33104039Y-45355522D01*
X33100000Y-45314513D01*
X33100000Y-44285487D01*
X33104039Y-44244478D01*
X33114211Y-44210947D01*
X33130731Y-44180040D01*
X33152957Y-44152957D01*
X33180040Y-44130731D01*
X33210947Y-44114211D01*
X33244478Y-44104039D01*
X33285487Y-44100000D01*
X34064513Y-44100000D01*
X34105522Y-44104039D01*
X34105522Y-44104039D01*
G37*
G36*
X36155522Y-44104039D02*
X36189053Y-44114211D01*
X36219960Y-44130731D01*
X36247043Y-44152957D01*
X36269269Y-44180040D01*
X36285789Y-44210947D01*
X36295961Y-44244478D01*
X36300000Y-44285487D01*
X36300000Y-45314513D01*
X36295961Y-45355522D01*
X36285789Y-45389053D01*
X36269269Y-45419960D01*
X36247043Y-45447043D01*
X36219960Y-45469269D01*
X36189053Y-45485789D01*
X36155522Y-45495961D01*
X36114513Y-45500000D01*
X35335487Y-45500000D01*
X35294478Y-45495961D01*
X35260947Y-45485789D01*
X35230040Y-45469269D01*
X35202957Y-45447043D01*
X35180731Y-45419960D01*
X35164211Y-45389053D01*
X35154039Y-45355522D01*
X35150000Y-45314513D01*
X35150000Y-44285487D01*
X35154039Y-44244478D01*
X35164211Y-44210947D01*
X35180731Y-44180040D01*
X35202957Y-44152957D01*
X35230040Y-44130731D01*
X35260947Y-44114211D01*
X35294478Y-44104039D01*
X35335487Y-44100000D01*
X36114513Y-44100000D01*
X36155522Y-44104039D01*
X36155522Y-44104039D01*
G37*
G36*
X42983195Y-42437522D02*
X43032267Y-42447283D01*
X43170942Y-42504724D01*
X43295750Y-42588118D01*
X43401882Y-42694250D01*
X43485276Y-42819058D01*
X43542717Y-42957734D01*
X43572000Y-43104948D01*
X43572000Y-43255052D01*
X43542717Y-43402266D01*
X43485276Y-43540942D01*
X43401882Y-43665750D01*
X43295750Y-43771882D01*
X43295747Y-43771884D01*
X43170942Y-43855276D01*
X43032267Y-43912717D01*
X42983195Y-43922478D01*
X42885052Y-43942000D01*
X42734948Y-43942000D01*
X42636805Y-43922478D01*
X42587733Y-43912717D01*
X42449058Y-43855276D01*
X42324253Y-43771884D01*
X42324250Y-43771882D01*
X42218118Y-43665750D01*
X42134724Y-43540942D01*
X42077283Y-43402266D01*
X42048000Y-43255052D01*
X42048000Y-43104948D01*
X42077283Y-42957734D01*
X42134724Y-42819058D01*
X42218118Y-42694250D01*
X42324250Y-42588118D01*
X42449058Y-42504724D01*
X42587733Y-42447283D01*
X42636805Y-42437522D01*
X42734948Y-42418000D01*
X42885052Y-42418000D01*
X42983195Y-42437522D01*
X42983195Y-42437522D01*
G37*
G36*
X15043195Y-42437522D02*
X15092267Y-42447283D01*
X15230942Y-42504724D01*
X15355750Y-42588118D01*
X15461882Y-42694250D01*
X15545276Y-42819058D01*
X15602717Y-42957734D01*
X15632000Y-43104948D01*
X15632000Y-43255052D01*
X15602717Y-43402266D01*
X15545276Y-43540942D01*
X15461882Y-43665750D01*
X15355750Y-43771882D01*
X15355747Y-43771884D01*
X15230942Y-43855276D01*
X15092267Y-43912717D01*
X15043195Y-43922478D01*
X14945052Y-43942000D01*
X14794948Y-43942000D01*
X14696805Y-43922478D01*
X14647733Y-43912717D01*
X14509058Y-43855276D01*
X14384253Y-43771884D01*
X14384250Y-43771882D01*
X14278118Y-43665750D01*
X14194724Y-43540942D01*
X14137283Y-43402266D01*
X14108000Y-43255052D01*
X14108000Y-43104948D01*
X14137283Y-42957734D01*
X14194724Y-42819058D01*
X14278118Y-42694250D01*
X14384250Y-42588118D01*
X14509058Y-42504724D01*
X14647733Y-42447283D01*
X14696805Y-42437522D01*
X14794948Y-42418000D01*
X14945052Y-42418000D01*
X15043195Y-42437522D01*
X15043195Y-42437522D01*
G37*
G36*
X25775522Y-41894039D02*
X25809053Y-41904211D01*
X25839960Y-41920731D01*
X25867043Y-41942957D01*
X25889269Y-41970040D01*
X25905789Y-42000947D01*
X25915961Y-42034478D01*
X25920000Y-42075487D01*
X25920000Y-43104513D01*
X25915961Y-43145522D01*
X25905789Y-43179053D01*
X25889269Y-43209960D01*
X25867043Y-43237043D01*
X25839960Y-43259269D01*
X25809053Y-43275789D01*
X25775522Y-43285961D01*
X25734513Y-43290000D01*
X24955487Y-43290000D01*
X24914478Y-43285961D01*
X24880947Y-43275789D01*
X24850040Y-43259269D01*
X24822957Y-43237043D01*
X24800731Y-43209960D01*
X24784211Y-43179053D01*
X24774039Y-43145522D01*
X24770000Y-43104513D01*
X24770000Y-42075487D01*
X24774039Y-42034478D01*
X24784211Y-42000947D01*
X24800731Y-41970040D01*
X24822957Y-41942957D01*
X24850040Y-41920731D01*
X24880947Y-41904211D01*
X24914478Y-41894039D01*
X24955487Y-41890000D01*
X25734513Y-41890000D01*
X25775522Y-41894039D01*
X25775522Y-41894039D01*
G37*
G36*
X23725522Y-41894039D02*
X23759053Y-41904211D01*
X23789960Y-41920731D01*
X23817043Y-41942957D01*
X23839269Y-41970040D01*
X23855789Y-42000947D01*
X23865961Y-42034478D01*
X23870000Y-42075487D01*
X23870000Y-43104513D01*
X23865961Y-43145522D01*
X23855789Y-43179053D01*
X23839269Y-43209960D01*
X23817043Y-43237043D01*
X23789960Y-43259269D01*
X23759053Y-43275789D01*
X23725522Y-43285961D01*
X23684513Y-43290000D01*
X22905487Y-43290000D01*
X22864478Y-43285961D01*
X22830947Y-43275789D01*
X22800040Y-43259269D01*
X22772957Y-43237043D01*
X22750731Y-43209960D01*
X22734211Y-43179053D01*
X22724039Y-43145522D01*
X22720000Y-43104513D01*
X22720000Y-42075487D01*
X22724039Y-42034478D01*
X22734211Y-42000947D01*
X22750731Y-41970040D01*
X22772957Y-41942957D01*
X22800040Y-41920731D01*
X22830947Y-41904211D01*
X22864478Y-41894039D01*
X22905487Y-41890000D01*
X23684513Y-41890000D01*
X23725522Y-41894039D01*
X23725522Y-41894039D01*
G37*
G36*
X30800000Y-43260000D02*
X29900000Y-43260000D01*
X29900000Y-42460000D01*
X30800000Y-42460000D01*
X30800000Y-43260000D01*
X30800000Y-43260000D01*
G37*
G36*
X34115522Y-41764039D02*
X34149053Y-41774211D01*
X34179960Y-41790731D01*
X34207043Y-41812957D01*
X34229269Y-41840040D01*
X34245789Y-41870947D01*
X34255961Y-41904478D01*
X34260000Y-41945487D01*
X34260000Y-42974513D01*
X34255961Y-43015522D01*
X34245789Y-43049053D01*
X34229269Y-43079960D01*
X34207043Y-43107043D01*
X34179960Y-43129269D01*
X34149053Y-43145789D01*
X34115522Y-43155961D01*
X34074513Y-43160000D01*
X33295487Y-43160000D01*
X33254478Y-43155961D01*
X33220947Y-43145789D01*
X33190040Y-43129269D01*
X33162957Y-43107043D01*
X33140731Y-43079960D01*
X33124211Y-43049053D01*
X33114039Y-43015522D01*
X33110000Y-42974513D01*
X33110000Y-41945487D01*
X33114039Y-41904478D01*
X33124211Y-41870947D01*
X33140731Y-41840040D01*
X33162957Y-41812957D01*
X33190040Y-41790731D01*
X33220947Y-41774211D01*
X33254478Y-41764039D01*
X33295487Y-41760000D01*
X34074513Y-41760000D01*
X34115522Y-41764039D01*
X34115522Y-41764039D01*
G37*
G36*
X36165522Y-41764039D02*
X36199053Y-41774211D01*
X36229960Y-41790731D01*
X36257043Y-41812957D01*
X36279269Y-41840040D01*
X36295789Y-41870947D01*
X36305961Y-41904478D01*
X36310000Y-41945487D01*
X36310000Y-42974513D01*
X36305961Y-43015522D01*
X36295789Y-43049053D01*
X36279269Y-43079960D01*
X36257043Y-43107043D01*
X36229960Y-43129269D01*
X36199053Y-43145789D01*
X36165522Y-43155961D01*
X36124513Y-43160000D01*
X35345487Y-43160000D01*
X35304478Y-43155961D01*
X35270947Y-43145789D01*
X35240040Y-43129269D01*
X35212957Y-43107043D01*
X35190731Y-43079960D01*
X35174211Y-43049053D01*
X35164039Y-43015522D01*
X35160000Y-42974513D01*
X35160000Y-41945487D01*
X35164039Y-41904478D01*
X35174211Y-41870947D01*
X35190731Y-41840040D01*
X35212957Y-41812957D01*
X35240040Y-41790731D01*
X35270947Y-41774211D01*
X35304478Y-41764039D01*
X35345487Y-41760000D01*
X36124513Y-41760000D01*
X36165522Y-41764039D01*
X36165522Y-41764039D01*
G37*
G36*
X28800000Y-42310000D02*
X27900000Y-42310000D01*
X27900000Y-41510000D01*
X28800000Y-41510000D01*
X28800000Y-42310000D01*
X28800000Y-42310000D01*
G37*
G36*
X15043195Y-39897522D02*
X15092267Y-39907283D01*
X15230942Y-39964724D01*
X15355750Y-40048118D01*
X15461882Y-40154250D01*
X15545276Y-40279058D01*
X15602717Y-40417734D01*
X15632000Y-40564948D01*
X15632000Y-40715052D01*
X15602717Y-40862266D01*
X15545276Y-41000942D01*
X15461882Y-41125750D01*
X15355750Y-41231882D01*
X15355747Y-41231884D01*
X15230942Y-41315276D01*
X15092267Y-41372717D01*
X15043195Y-41382478D01*
X14945052Y-41402000D01*
X14794948Y-41402000D01*
X14696805Y-41382478D01*
X14647733Y-41372717D01*
X14509058Y-41315276D01*
X14384253Y-41231884D01*
X14384250Y-41231882D01*
X14278118Y-41125750D01*
X14194724Y-41000942D01*
X14137283Y-40862266D01*
X14108000Y-40715052D01*
X14108000Y-40564948D01*
X14137283Y-40417734D01*
X14194724Y-40279058D01*
X14278118Y-40154250D01*
X14384250Y-40048118D01*
X14509058Y-39964724D01*
X14647733Y-39907283D01*
X14696805Y-39897522D01*
X14794948Y-39878000D01*
X14945052Y-39878000D01*
X15043195Y-39897522D01*
X15043195Y-39897522D01*
G37*
G36*
X42983195Y-39897522D02*
X43032267Y-39907283D01*
X43170942Y-39964724D01*
X43295750Y-40048118D01*
X43401882Y-40154250D01*
X43485276Y-40279058D01*
X43542717Y-40417734D01*
X43572000Y-40564948D01*
X43572000Y-40715052D01*
X43542717Y-40862266D01*
X43485276Y-41000942D01*
X43401882Y-41125750D01*
X43295750Y-41231882D01*
X43295747Y-41231884D01*
X43170942Y-41315276D01*
X43032267Y-41372717D01*
X42983195Y-41382478D01*
X42885052Y-41402000D01*
X42734948Y-41402000D01*
X42636805Y-41382478D01*
X42587733Y-41372717D01*
X42449058Y-41315276D01*
X42324253Y-41231884D01*
X42324250Y-41231882D01*
X42218118Y-41125750D01*
X42134724Y-41000942D01*
X42077283Y-40862266D01*
X42048000Y-40715052D01*
X42048000Y-40564948D01*
X42077283Y-40417734D01*
X42134724Y-40279058D01*
X42218118Y-40154250D01*
X42324250Y-40048118D01*
X42449058Y-39964724D01*
X42587733Y-39907283D01*
X42636805Y-39897522D01*
X42734948Y-39878000D01*
X42885052Y-39878000D01*
X42983195Y-39897522D01*
X42983195Y-39897522D01*
G37*
G36*
X30800000Y-41360000D02*
X29900000Y-41360000D01*
X29900000Y-40560000D01*
X30800000Y-40560000D01*
X30800000Y-41360000D01*
X30800000Y-41360000D01*
G37*
G36*
X36165522Y-39404039D02*
X36199053Y-39414211D01*
X36229960Y-39430731D01*
X36257043Y-39452957D01*
X36279269Y-39480040D01*
X36295789Y-39510947D01*
X36305961Y-39544478D01*
X36310000Y-39585487D01*
X36310000Y-40614513D01*
X36305961Y-40655522D01*
X36295789Y-40689053D01*
X36279269Y-40719960D01*
X36257043Y-40747043D01*
X36229960Y-40769269D01*
X36199053Y-40785789D01*
X36165522Y-40795961D01*
X36124513Y-40800000D01*
X35345487Y-40800000D01*
X35304478Y-40795961D01*
X35270947Y-40785789D01*
X35240040Y-40769269D01*
X35212957Y-40747043D01*
X35190731Y-40719960D01*
X35174211Y-40689053D01*
X35164039Y-40655522D01*
X35160000Y-40614513D01*
X35160000Y-39585487D01*
X35164039Y-39544478D01*
X35174211Y-39510947D01*
X35190731Y-39480040D01*
X35212957Y-39452957D01*
X35240040Y-39430731D01*
X35270947Y-39414211D01*
X35304478Y-39404039D01*
X35345487Y-39400000D01*
X36124513Y-39400000D01*
X36165522Y-39404039D01*
X36165522Y-39404039D01*
G37*
G36*
X34115522Y-39404039D02*
X34149053Y-39414211D01*
X34179960Y-39430731D01*
X34207043Y-39452957D01*
X34229269Y-39480040D01*
X34245789Y-39510947D01*
X34255961Y-39544478D01*
X34260000Y-39585487D01*
X34260000Y-40614513D01*
X34255961Y-40655522D01*
X34245789Y-40689053D01*
X34229269Y-40719960D01*
X34207043Y-40747043D01*
X34179960Y-40769269D01*
X34149053Y-40785789D01*
X34115522Y-40795961D01*
X34074513Y-40800000D01*
X33295487Y-40800000D01*
X33254478Y-40795961D01*
X33220947Y-40785789D01*
X33190040Y-40769269D01*
X33162957Y-40747043D01*
X33140731Y-40719960D01*
X33124211Y-40689053D01*
X33114039Y-40655522D01*
X33110000Y-40614513D01*
X33110000Y-39585487D01*
X33114039Y-39544478D01*
X33124211Y-39510947D01*
X33140731Y-39480040D01*
X33162957Y-39452957D01*
X33190040Y-39430731D01*
X33220947Y-39414211D01*
X33254478Y-39404039D01*
X33295487Y-39400000D01*
X34074513Y-39400000D01*
X34115522Y-39404039D01*
X34115522Y-39404039D01*
G37*
G36*
X42983195Y-37357522D02*
X43032267Y-37367283D01*
X43170942Y-37424724D01*
X43295750Y-37508118D01*
X43401882Y-37614250D01*
X43485276Y-37739058D01*
X43542717Y-37877734D01*
X43572000Y-38024948D01*
X43572000Y-38175052D01*
X43569026Y-38190001D01*
X43542717Y-38322267D01*
X43501833Y-38420970D01*
X43485276Y-38460942D01*
X43401882Y-38585750D01*
X43295750Y-38691882D01*
X43295747Y-38691884D01*
X43170942Y-38775276D01*
X43032267Y-38832717D01*
X42983195Y-38842478D01*
X42885052Y-38862000D01*
X42734948Y-38862000D01*
X42636805Y-38842478D01*
X42587733Y-38832717D01*
X42449058Y-38775276D01*
X42324253Y-38691884D01*
X42324250Y-38691882D01*
X42218118Y-38585750D01*
X42134724Y-38460942D01*
X42118167Y-38420970D01*
X42077283Y-38322267D01*
X42050974Y-38190001D01*
X42048000Y-38175052D01*
X42048000Y-38024948D01*
X42077283Y-37877734D01*
X42134724Y-37739058D01*
X42218118Y-37614250D01*
X42324250Y-37508118D01*
X42449058Y-37424724D01*
X42587733Y-37367283D01*
X42636805Y-37357522D01*
X42734948Y-37338000D01*
X42885052Y-37338000D01*
X42983195Y-37357522D01*
X42983195Y-37357522D01*
G37*
G36*
X15043195Y-37357522D02*
X15092267Y-37367283D01*
X15230942Y-37424724D01*
X15355750Y-37508118D01*
X15461882Y-37614250D01*
X15545276Y-37739058D01*
X15602717Y-37877734D01*
X15632000Y-38024948D01*
X15632000Y-38175052D01*
X15629026Y-38190001D01*
X15602717Y-38322267D01*
X15561833Y-38420970D01*
X15545276Y-38460942D01*
X15461882Y-38585750D01*
X15355750Y-38691882D01*
X15355747Y-38691884D01*
X15230942Y-38775276D01*
X15092267Y-38832717D01*
X15043195Y-38842478D01*
X14945052Y-38862000D01*
X14794948Y-38862000D01*
X14696805Y-38842478D01*
X14647733Y-38832717D01*
X14509058Y-38775276D01*
X14384253Y-38691884D01*
X14384250Y-38691882D01*
X14278118Y-38585750D01*
X14194724Y-38460942D01*
X14178167Y-38420970D01*
X14137283Y-38322267D01*
X14110974Y-38190001D01*
X14108000Y-38175052D01*
X14108000Y-38024948D01*
X14137283Y-37877734D01*
X14194724Y-37739058D01*
X14278118Y-37614250D01*
X14384250Y-37508118D01*
X14509058Y-37424724D01*
X14647733Y-37367283D01*
X14696805Y-37357522D01*
X14794948Y-37338000D01*
X14945052Y-37338000D01*
X15043195Y-37357522D01*
X15043195Y-37357522D01*
G37*
G36*
X36165522Y-37044039D02*
X36199053Y-37054211D01*
X36229960Y-37070731D01*
X36257043Y-37092957D01*
X36279269Y-37120040D01*
X36295789Y-37150947D01*
X36305961Y-37184478D01*
X36310000Y-37225487D01*
X36310000Y-38254513D01*
X36305961Y-38295522D01*
X36295789Y-38329053D01*
X36279269Y-38359960D01*
X36257043Y-38387043D01*
X36229960Y-38409269D01*
X36199053Y-38425789D01*
X36165522Y-38435961D01*
X36124513Y-38440000D01*
X35345487Y-38440000D01*
X35304478Y-38435961D01*
X35270947Y-38425789D01*
X35240040Y-38409269D01*
X35212957Y-38387043D01*
X35190731Y-38359960D01*
X35174211Y-38329053D01*
X35164039Y-38295522D01*
X35160000Y-38254513D01*
X35160000Y-37225487D01*
X35164039Y-37184478D01*
X35174211Y-37150947D01*
X35190731Y-37120040D01*
X35212957Y-37092957D01*
X35240040Y-37070731D01*
X35270947Y-37054211D01*
X35304478Y-37044039D01*
X35345487Y-37040000D01*
X36124513Y-37040000D01*
X36165522Y-37044039D01*
X36165522Y-37044039D01*
G37*
G36*
X34115522Y-37044039D02*
X34149053Y-37054211D01*
X34179960Y-37070731D01*
X34207043Y-37092957D01*
X34229269Y-37120040D01*
X34245789Y-37150947D01*
X34255961Y-37184478D01*
X34260000Y-37225487D01*
X34260000Y-38254513D01*
X34255961Y-38295522D01*
X34245789Y-38329053D01*
X34229269Y-38359960D01*
X34207043Y-38387043D01*
X34179960Y-38409269D01*
X34149053Y-38425789D01*
X34115522Y-38435961D01*
X34074513Y-38440000D01*
X33295487Y-38440000D01*
X33254478Y-38435961D01*
X33220947Y-38425789D01*
X33190040Y-38409269D01*
X33162957Y-38387043D01*
X33140731Y-38359960D01*
X33124211Y-38329053D01*
X33114039Y-38295522D01*
X33110000Y-38254513D01*
X33110000Y-37225487D01*
X33114039Y-37184478D01*
X33124211Y-37150947D01*
X33140731Y-37120040D01*
X33162957Y-37092957D01*
X33190040Y-37070731D01*
X33220947Y-37054211D01*
X33254478Y-37044039D01*
X33295487Y-37040000D01*
X34074513Y-37040000D01*
X34115522Y-37044039D01*
X34115522Y-37044039D01*
G37*
G36*
X31080000Y-38180000D02*
X30180000Y-38180000D01*
X30180000Y-37380000D01*
X31080000Y-37380000D01*
X31080000Y-38180000D01*
X31080000Y-38180000D01*
G37*
G36*
X29080000Y-37230000D02*
X28180000Y-37230000D01*
X28180000Y-36430000D01*
X29080000Y-36430000D01*
X29080000Y-37230000D01*
X29080000Y-37230000D01*
G37*
G36*
X42983195Y-34817522D02*
X43032267Y-34827283D01*
X43162499Y-34881227D01*
X43170942Y-34884724D01*
X43295750Y-34968118D01*
X43401882Y-35074250D01*
X43485276Y-35199058D01*
X43542717Y-35337734D01*
X43572000Y-35484948D01*
X43572000Y-35635052D01*
X43542717Y-35782266D01*
X43485276Y-35920942D01*
X43401882Y-36045750D01*
X43295750Y-36151882D01*
X43295747Y-36151884D01*
X43170942Y-36235276D01*
X43032267Y-36292717D01*
X42983195Y-36302478D01*
X42885052Y-36322000D01*
X42734948Y-36322000D01*
X42636805Y-36302478D01*
X42587733Y-36292717D01*
X42449058Y-36235276D01*
X42324253Y-36151884D01*
X42324250Y-36151882D01*
X42218118Y-36045750D01*
X42134724Y-35920942D01*
X42077283Y-35782266D01*
X42048000Y-35635052D01*
X42048000Y-35484948D01*
X42077283Y-35337734D01*
X42134724Y-35199058D01*
X42218118Y-35074250D01*
X42324250Y-34968118D01*
X42449058Y-34884724D01*
X42457501Y-34881227D01*
X42587733Y-34827283D01*
X42636805Y-34817522D01*
X42734948Y-34798000D01*
X42885052Y-34798000D01*
X42983195Y-34817522D01*
X42983195Y-34817522D01*
G37*
G36*
X15043195Y-34817522D02*
X15092267Y-34827283D01*
X15222499Y-34881227D01*
X15230942Y-34884724D01*
X15355750Y-34968118D01*
X15461882Y-35074250D01*
X15545276Y-35199058D01*
X15602717Y-35337734D01*
X15632000Y-35484948D01*
X15632000Y-35635052D01*
X15602717Y-35782266D01*
X15545276Y-35920942D01*
X15461882Y-36045750D01*
X15355750Y-36151882D01*
X15355747Y-36151884D01*
X15230942Y-36235276D01*
X15092267Y-36292717D01*
X15043195Y-36302478D01*
X14945052Y-36322000D01*
X14794948Y-36322000D01*
X14696805Y-36302478D01*
X14647733Y-36292717D01*
X14509058Y-36235276D01*
X14384253Y-36151884D01*
X14384250Y-36151882D01*
X14278118Y-36045750D01*
X14194724Y-35920942D01*
X14137283Y-35782266D01*
X14108000Y-35635052D01*
X14108000Y-35484948D01*
X14137283Y-35337734D01*
X14194724Y-35199058D01*
X14278118Y-35074250D01*
X14384250Y-34968118D01*
X14509058Y-34884724D01*
X14517501Y-34881227D01*
X14647733Y-34827283D01*
X14696805Y-34817522D01*
X14794948Y-34798000D01*
X14945052Y-34798000D01*
X15043195Y-34817522D01*
X15043195Y-34817522D01*
G37*
G36*
X31080000Y-36280000D02*
X30180000Y-36280000D01*
X30180000Y-35480000D01*
X31080000Y-35480000D01*
X31080000Y-36280000D01*
X31080000Y-36280000D01*
G37*
G36*
X36165522Y-34684039D02*
X36199053Y-34694211D01*
X36229960Y-34710731D01*
X36257043Y-34732957D01*
X36279269Y-34760040D01*
X36295789Y-34790947D01*
X36305961Y-34824478D01*
X36310000Y-34865487D01*
X36310000Y-35894513D01*
X36305961Y-35935522D01*
X36295789Y-35969053D01*
X36279269Y-35999960D01*
X36257043Y-36027043D01*
X36229960Y-36049269D01*
X36199053Y-36065789D01*
X36165522Y-36075961D01*
X36124513Y-36080000D01*
X35345487Y-36080000D01*
X35304478Y-36075961D01*
X35270947Y-36065789D01*
X35240040Y-36049269D01*
X35212957Y-36027043D01*
X35190731Y-35999960D01*
X35174211Y-35969053D01*
X35164039Y-35935522D01*
X35160000Y-35894513D01*
X35160000Y-34865487D01*
X35164039Y-34824478D01*
X35174211Y-34790947D01*
X35190731Y-34760040D01*
X35212957Y-34732957D01*
X35240040Y-34710731D01*
X35270947Y-34694211D01*
X35304478Y-34684039D01*
X35345487Y-34680000D01*
X36124513Y-34680000D01*
X36165522Y-34684039D01*
X36165522Y-34684039D01*
G37*
G36*
X34115522Y-34684039D02*
X34149053Y-34694211D01*
X34179960Y-34710731D01*
X34207043Y-34732957D01*
X34229269Y-34760040D01*
X34245789Y-34790947D01*
X34255961Y-34824478D01*
X34260000Y-34865487D01*
X34260000Y-35894513D01*
X34255961Y-35935522D01*
X34245789Y-35969053D01*
X34229269Y-35999960D01*
X34207043Y-36027043D01*
X34179960Y-36049269D01*
X34149053Y-36065789D01*
X34115522Y-36075961D01*
X34074513Y-36080000D01*
X33295487Y-36080000D01*
X33254478Y-36075961D01*
X33220947Y-36065789D01*
X33190040Y-36049269D01*
X33162957Y-36027043D01*
X33140731Y-35999960D01*
X33124211Y-35969053D01*
X33114039Y-35935522D01*
X33110000Y-35894513D01*
X33110000Y-34865487D01*
X33114039Y-34824478D01*
X33124211Y-34790947D01*
X33140731Y-34760040D01*
X33162957Y-34732957D01*
X33190040Y-34710731D01*
X33220947Y-34694211D01*
X33254478Y-34684039D01*
X33295487Y-34680000D01*
X34074513Y-34680000D01*
X34115522Y-34684039D01*
X34115522Y-34684039D01*
G37*
G36*
X23315960Y-32644028D02*
X23349396Y-32654170D01*
X23380199Y-32670636D01*
X23407203Y-32692797D01*
X23429364Y-32719801D01*
X23445830Y-32750604D01*
X23455972Y-32784040D01*
X23460000Y-32824938D01*
X23460000Y-33855062D01*
X23455972Y-33895960D01*
X23445830Y-33929396D01*
X23429364Y-33960199D01*
X23407203Y-33987203D01*
X23380199Y-34009364D01*
X23349396Y-34025830D01*
X23315960Y-34035972D01*
X23275062Y-34040000D01*
X22494938Y-34040000D01*
X22454040Y-34035972D01*
X22420604Y-34025830D01*
X22389801Y-34009364D01*
X22362797Y-33987203D01*
X22340636Y-33960199D01*
X22324170Y-33929396D01*
X22314028Y-33895960D01*
X22310000Y-33855062D01*
X22310000Y-32824938D01*
X22314028Y-32784040D01*
X22324170Y-32750604D01*
X22340636Y-32719801D01*
X22362797Y-32692797D01*
X22389801Y-32670636D01*
X22420604Y-32654170D01*
X22454040Y-32644028D01*
X22494938Y-32640000D01*
X23275062Y-32640000D01*
X23315960Y-32644028D01*
X23315960Y-32644028D01*
G37*
G36*
X25365960Y-32644028D02*
X25399396Y-32654170D01*
X25430199Y-32670636D01*
X25457203Y-32692797D01*
X25479364Y-32719801D01*
X25495830Y-32750604D01*
X25505972Y-32784040D01*
X25510000Y-32824938D01*
X25510000Y-33855062D01*
X25505972Y-33895960D01*
X25495830Y-33929396D01*
X25479364Y-33960199D01*
X25457203Y-33987203D01*
X25430199Y-34009364D01*
X25399396Y-34025830D01*
X25365960Y-34035972D01*
X25325062Y-34040000D01*
X24544938Y-34040000D01*
X24504040Y-34035972D01*
X24470604Y-34025830D01*
X24439801Y-34009364D01*
X24412797Y-33987203D01*
X24390636Y-33960199D01*
X24374170Y-33929396D01*
X24364028Y-33895960D01*
X24360000Y-33855062D01*
X24360000Y-32824938D01*
X24364028Y-32784040D01*
X24374170Y-32750604D01*
X24390636Y-32719801D01*
X24412797Y-32692797D01*
X24439801Y-32670636D01*
X24470604Y-32654170D01*
X24504040Y-32644028D01*
X24544938Y-32640000D01*
X25325062Y-32640000D01*
X25365960Y-32644028D01*
X25365960Y-32644028D01*
G37*
G36*
X42983195Y-32277522D02*
X43032267Y-32287283D01*
X43145561Y-32334211D01*
X43170942Y-32344724D01*
X43295750Y-32428118D01*
X43401882Y-32534250D01*
X43401884Y-32534253D01*
X43485276Y-32659058D01*
X43541192Y-32794051D01*
X43542717Y-32797734D01*
X43572000Y-32944948D01*
X43572000Y-33095052D01*
X43542717Y-33242266D01*
X43485276Y-33380942D01*
X43401882Y-33505750D01*
X43295750Y-33611882D01*
X43295747Y-33611884D01*
X43170942Y-33695276D01*
X43032267Y-33752717D01*
X42983195Y-33762478D01*
X42885052Y-33782000D01*
X42734948Y-33782000D01*
X42636805Y-33762478D01*
X42587733Y-33752717D01*
X42449058Y-33695276D01*
X42324253Y-33611884D01*
X42324250Y-33611882D01*
X42218118Y-33505750D01*
X42134724Y-33380942D01*
X42077283Y-33242266D01*
X42048000Y-33095052D01*
X42048000Y-32944948D01*
X42077283Y-32797734D01*
X42078809Y-32794051D01*
X42134724Y-32659058D01*
X42218116Y-32534253D01*
X42218118Y-32534250D01*
X42324250Y-32428118D01*
X42449058Y-32344724D01*
X42474439Y-32334211D01*
X42587733Y-32287283D01*
X42636805Y-32277522D01*
X42734948Y-32258000D01*
X42885052Y-32258000D01*
X42983195Y-32277522D01*
X42983195Y-32277522D01*
G37*
G36*
X15043195Y-32277522D02*
X15092267Y-32287283D01*
X15205561Y-32334211D01*
X15230942Y-32344724D01*
X15355750Y-32428118D01*
X15461882Y-32534250D01*
X15461884Y-32534253D01*
X15545276Y-32659058D01*
X15601192Y-32794051D01*
X15602717Y-32797734D01*
X15632000Y-32944948D01*
X15632000Y-33095052D01*
X15602717Y-33242266D01*
X15545276Y-33380942D01*
X15461882Y-33505750D01*
X15355750Y-33611882D01*
X15355747Y-33611884D01*
X15230942Y-33695276D01*
X15092267Y-33752717D01*
X15043195Y-33762478D01*
X14945052Y-33782000D01*
X14794948Y-33782000D01*
X14696805Y-33762478D01*
X14647733Y-33752717D01*
X14509058Y-33695276D01*
X14384253Y-33611884D01*
X14384250Y-33611882D01*
X14278118Y-33505750D01*
X14194724Y-33380942D01*
X14137283Y-33242266D01*
X14108000Y-33095052D01*
X14108000Y-32944948D01*
X14137283Y-32797734D01*
X14138809Y-32794051D01*
X14194724Y-32659058D01*
X14278116Y-32534253D01*
X14278118Y-32534250D01*
X14384250Y-32428118D01*
X14509058Y-32344724D01*
X14534439Y-32334211D01*
X14647733Y-32287283D01*
X14696805Y-32277522D01*
X14794948Y-32258000D01*
X14945052Y-32258000D01*
X15043195Y-32277522D01*
X15043195Y-32277522D01*
G37*
G36*
X36165522Y-32324039D02*
X36199053Y-32334211D01*
X36229960Y-32350731D01*
X36257043Y-32372957D01*
X36279269Y-32400040D01*
X36295789Y-32430947D01*
X36305961Y-32464478D01*
X36310000Y-32505487D01*
X36310000Y-33534513D01*
X36305961Y-33575522D01*
X36295789Y-33609053D01*
X36279269Y-33639960D01*
X36257043Y-33667043D01*
X36229960Y-33689269D01*
X36199053Y-33705789D01*
X36165522Y-33715961D01*
X36124513Y-33720000D01*
X35345487Y-33720000D01*
X35304478Y-33715961D01*
X35270947Y-33705789D01*
X35240040Y-33689269D01*
X35212957Y-33667043D01*
X35190731Y-33639960D01*
X35174211Y-33609053D01*
X35164039Y-33575522D01*
X35160000Y-33534513D01*
X35160000Y-32505487D01*
X35164039Y-32464478D01*
X35174211Y-32430947D01*
X35190731Y-32400040D01*
X35212957Y-32372957D01*
X35240040Y-32350731D01*
X35270947Y-32334211D01*
X35304478Y-32324039D01*
X35345487Y-32320000D01*
X36124513Y-32320000D01*
X36165522Y-32324039D01*
X36165522Y-32324039D01*
G37*
G36*
X34115522Y-32324039D02*
X34149053Y-32334211D01*
X34179960Y-32350731D01*
X34207043Y-32372957D01*
X34229269Y-32400040D01*
X34245789Y-32430947D01*
X34255961Y-32464478D01*
X34260000Y-32505487D01*
X34260000Y-33534513D01*
X34255961Y-33575522D01*
X34245789Y-33609053D01*
X34229269Y-33639960D01*
X34207043Y-33667043D01*
X34179960Y-33689269D01*
X34149053Y-33705789D01*
X34115522Y-33715961D01*
X34074513Y-33720000D01*
X33295487Y-33720000D01*
X33254478Y-33715961D01*
X33220947Y-33705789D01*
X33190040Y-33689269D01*
X33162957Y-33667043D01*
X33140731Y-33639960D01*
X33124211Y-33609053D01*
X33114039Y-33575522D01*
X33110000Y-33534513D01*
X33110000Y-32505487D01*
X33114039Y-32464478D01*
X33124211Y-32430947D01*
X33140731Y-32400040D01*
X33162957Y-32372957D01*
X33190040Y-32350731D01*
X33220947Y-32334211D01*
X33254478Y-32324039D01*
X33295487Y-32320000D01*
X34074513Y-32320000D01*
X34115522Y-32324039D01*
X34115522Y-32324039D01*
G37*
G36*
X31080000Y-33110000D02*
X30180000Y-33110000D01*
X30180000Y-32310000D01*
X31080000Y-32310000D01*
X31080000Y-33110000D01*
X31080000Y-33110000D01*
G37*
G36*
X29080000Y-32160000D02*
X28180000Y-32160000D01*
X28180000Y-31360000D01*
X29080000Y-31360000D01*
X29080000Y-32160000D01*
X29080000Y-32160000D01*
G37*
G36*
X25179024Y-30708955D02*
X25211736Y-30718879D01*
X25241890Y-30734997D01*
X25268316Y-30756684D01*
X25290003Y-30783110D01*
X25306121Y-30813264D01*
X25316045Y-30845976D01*
X25320000Y-30886138D01*
X25320000Y-31473862D01*
X25316045Y-31514024D01*
X25306121Y-31546736D01*
X25290003Y-31576890D01*
X25268316Y-31603316D01*
X25241890Y-31625003D01*
X25211736Y-31641121D01*
X25179024Y-31651045D01*
X25138862Y-31655000D01*
X24451138Y-31655000D01*
X24410976Y-31651045D01*
X24378264Y-31641121D01*
X24348110Y-31625003D01*
X24321684Y-31603316D01*
X24299997Y-31576890D01*
X24283879Y-31546736D01*
X24273955Y-31514024D01*
X24270000Y-31473862D01*
X24270000Y-30886138D01*
X24273955Y-30845976D01*
X24283879Y-30813264D01*
X24299997Y-30783110D01*
X24321684Y-30756684D01*
X24348110Y-30734997D01*
X24378264Y-30718879D01*
X24410976Y-30708955D01*
X24451138Y-30705000D01*
X25138862Y-30705000D01*
X25179024Y-30708955D01*
X25179024Y-30708955D01*
G37*
G36*
X23429024Y-30708955D02*
X23461736Y-30718879D01*
X23491890Y-30734997D01*
X23518316Y-30756684D01*
X23540003Y-30783110D01*
X23556121Y-30813264D01*
X23566045Y-30845976D01*
X23570000Y-30886138D01*
X23570000Y-31473862D01*
X23566045Y-31514024D01*
X23556121Y-31546736D01*
X23540003Y-31576890D01*
X23518316Y-31603316D01*
X23491890Y-31625003D01*
X23461736Y-31641121D01*
X23429024Y-31651045D01*
X23388862Y-31655000D01*
X22701138Y-31655000D01*
X22660976Y-31651045D01*
X22628264Y-31641121D01*
X22598110Y-31625003D01*
X22571684Y-31603316D01*
X22549997Y-31576890D01*
X22533879Y-31546736D01*
X22523955Y-31514024D01*
X22520000Y-31473862D01*
X22520000Y-30886138D01*
X22523955Y-30845976D01*
X22533879Y-30813264D01*
X22549997Y-30783110D01*
X22571684Y-30756684D01*
X22598110Y-30734997D01*
X22628264Y-30718879D01*
X22660976Y-30708955D01*
X22701138Y-30705000D01*
X23388862Y-30705000D01*
X23429024Y-30708955D01*
X23429024Y-30708955D01*
G37*
G36*
X42980173Y-29736921D02*
X43032267Y-29747283D01*
X43170942Y-29804724D01*
X43295750Y-29888118D01*
X43401882Y-29994250D01*
X43401884Y-29994253D01*
X43485276Y-30119058D01*
X43542717Y-30257733D01*
X43572000Y-30404950D01*
X43572000Y-30555050D01*
X43542717Y-30702267D01*
X43520177Y-30756684D01*
X43485276Y-30840942D01*
X43401882Y-30965750D01*
X43295750Y-31071882D01*
X43295747Y-31071884D01*
X43170942Y-31155276D01*
X43032267Y-31212717D01*
X42983195Y-31222478D01*
X42885052Y-31242000D01*
X42734948Y-31242000D01*
X42636805Y-31222478D01*
X42587733Y-31212717D01*
X42449058Y-31155276D01*
X42324253Y-31071884D01*
X42324250Y-31071882D01*
X42218118Y-30965750D01*
X42134724Y-30840942D01*
X42099823Y-30756684D01*
X42077283Y-30702267D01*
X42048000Y-30555050D01*
X42048000Y-30404950D01*
X42077283Y-30257733D01*
X42134724Y-30119058D01*
X42218116Y-29994253D01*
X42218118Y-29994250D01*
X42324250Y-29888118D01*
X42449058Y-29804724D01*
X42587733Y-29747283D01*
X42639827Y-29736921D01*
X42734948Y-29718000D01*
X42885052Y-29718000D01*
X42980173Y-29736921D01*
X42980173Y-29736921D01*
G37*
G36*
X15040173Y-29736921D02*
X15092267Y-29747283D01*
X15230942Y-29804724D01*
X15355750Y-29888118D01*
X15461882Y-29994250D01*
X15461884Y-29994253D01*
X15545276Y-30119058D01*
X15602717Y-30257733D01*
X15632000Y-30404950D01*
X15632000Y-30555050D01*
X15602717Y-30702267D01*
X15580177Y-30756684D01*
X15545276Y-30840942D01*
X15461882Y-30965750D01*
X15355750Y-31071882D01*
X15355747Y-31071884D01*
X15230942Y-31155276D01*
X15092267Y-31212717D01*
X15043195Y-31222478D01*
X14945052Y-31242000D01*
X14794948Y-31242000D01*
X14696805Y-31222478D01*
X14647733Y-31212717D01*
X14509058Y-31155276D01*
X14384253Y-31071884D01*
X14384250Y-31071882D01*
X14278118Y-30965750D01*
X14194724Y-30840942D01*
X14159823Y-30756684D01*
X14137283Y-30702267D01*
X14108000Y-30555050D01*
X14108000Y-30404950D01*
X14137283Y-30257733D01*
X14194724Y-30119058D01*
X14278116Y-29994253D01*
X14278118Y-29994250D01*
X14384250Y-29888118D01*
X14509058Y-29804724D01*
X14647733Y-29747283D01*
X14699827Y-29736921D01*
X14794948Y-29718000D01*
X14945052Y-29718000D01*
X15040173Y-29736921D01*
X15040173Y-29736921D01*
G37*
G36*
X31080000Y-31210000D02*
X30180000Y-31210000D01*
X30180000Y-30410000D01*
X31080000Y-30410000D01*
X31080000Y-31210000D01*
X31080000Y-31210000D01*
G37*
G36*
X25179024Y-28808955D02*
X25211736Y-28818879D01*
X25241890Y-28834997D01*
X25268316Y-28856684D01*
X25290003Y-28883110D01*
X25306121Y-28913264D01*
X25316045Y-28945976D01*
X25320000Y-28986138D01*
X25320000Y-29573862D01*
X25316045Y-29614024D01*
X25306121Y-29646736D01*
X25290003Y-29676890D01*
X25268316Y-29703316D01*
X25241890Y-29725003D01*
X25211736Y-29741121D01*
X25179024Y-29751045D01*
X25138862Y-29755000D01*
X24451138Y-29755000D01*
X24410976Y-29751045D01*
X24378264Y-29741121D01*
X24348110Y-29725003D01*
X24321684Y-29703316D01*
X24299997Y-29676890D01*
X24283879Y-29646736D01*
X24273955Y-29614024D01*
X24270000Y-29573862D01*
X24270000Y-28986138D01*
X24273955Y-28945976D01*
X24283879Y-28913264D01*
X24299997Y-28883110D01*
X24321684Y-28856684D01*
X24348110Y-28834997D01*
X24378264Y-28818879D01*
X24410976Y-28808955D01*
X24451138Y-28805000D01*
X25138862Y-28805000D01*
X25179024Y-28808955D01*
X25179024Y-28808955D01*
G37*
G36*
X23429024Y-28808955D02*
X23461736Y-28818879D01*
X23491890Y-28834997D01*
X23518316Y-28856684D01*
X23540003Y-28883110D01*
X23556121Y-28913264D01*
X23566045Y-28945976D01*
X23570000Y-28986138D01*
X23570000Y-29573862D01*
X23566045Y-29614024D01*
X23556121Y-29646736D01*
X23540003Y-29676890D01*
X23518316Y-29703316D01*
X23491890Y-29725003D01*
X23461736Y-29741121D01*
X23429024Y-29751045D01*
X23388862Y-29755000D01*
X22701138Y-29755000D01*
X22660976Y-29751045D01*
X22628264Y-29741121D01*
X22598110Y-29725003D01*
X22571684Y-29703316D01*
X22549997Y-29676890D01*
X22533879Y-29646736D01*
X22523955Y-29614024D01*
X22520000Y-29573862D01*
X22520000Y-28986138D01*
X22523955Y-28945976D01*
X22533879Y-28913264D01*
X22549997Y-28883110D01*
X22571684Y-28856684D01*
X22598110Y-28834997D01*
X22628264Y-28818879D01*
X22660976Y-28808955D01*
X22701138Y-28805000D01*
X23388862Y-28805000D01*
X23429024Y-28808955D01*
X23429024Y-28808955D01*
G37*
G36*
X15043195Y-27197522D02*
X15092267Y-27207283D01*
X15230942Y-27264724D01*
X15355750Y-27348118D01*
X15461882Y-27454250D01*
X15545276Y-27579058D01*
X15602717Y-27717734D01*
X15632000Y-27864948D01*
X15632000Y-28015052D01*
X15602717Y-28162266D01*
X15545276Y-28300942D01*
X15461882Y-28425750D01*
X15355750Y-28531882D01*
X15355747Y-28531884D01*
X15230942Y-28615276D01*
X15092267Y-28672717D01*
X15043195Y-28682478D01*
X14945052Y-28702000D01*
X14794948Y-28702000D01*
X14696805Y-28682478D01*
X14647733Y-28672717D01*
X14509058Y-28615276D01*
X14384253Y-28531884D01*
X14384250Y-28531882D01*
X14278118Y-28425750D01*
X14194724Y-28300942D01*
X14137283Y-28162266D01*
X14108000Y-28015052D01*
X14108000Y-27864948D01*
X14137283Y-27717734D01*
X14194724Y-27579058D01*
X14278118Y-27454250D01*
X14384250Y-27348118D01*
X14509058Y-27264724D01*
X14647733Y-27207283D01*
X14696805Y-27197522D01*
X14794948Y-27178000D01*
X14945052Y-27178000D01*
X15043195Y-27197522D01*
X15043195Y-27197522D01*
G37*
G36*
X42983195Y-27197522D02*
X43032267Y-27207283D01*
X43170942Y-27264724D01*
X43295750Y-27348118D01*
X43401882Y-27454250D01*
X43485276Y-27579058D01*
X43542717Y-27717734D01*
X43572000Y-27864948D01*
X43572000Y-28015052D01*
X43542717Y-28162266D01*
X43485276Y-28300942D01*
X43401882Y-28425750D01*
X43295750Y-28531882D01*
X43295747Y-28531884D01*
X43170942Y-28615276D01*
X43032267Y-28672717D01*
X42983195Y-28682478D01*
X42885052Y-28702000D01*
X42734948Y-28702000D01*
X42636805Y-28682478D01*
X42587733Y-28672717D01*
X42449058Y-28615276D01*
X42324253Y-28531884D01*
X42324250Y-28531882D01*
X42218118Y-28425750D01*
X42134724Y-28300942D01*
X42077283Y-28162266D01*
X42048000Y-28015052D01*
X42048000Y-27864948D01*
X42077283Y-27717734D01*
X42134724Y-27579058D01*
X42218118Y-27454250D01*
X42324250Y-27348118D01*
X42449058Y-27264724D01*
X42587733Y-27207283D01*
X42636805Y-27197522D01*
X42734948Y-27178000D01*
X42885052Y-27178000D01*
X42983195Y-27197522D01*
X42983195Y-27197522D01*
G37*
G36*
X23429024Y-26918955D02*
X23461736Y-26928879D01*
X23491890Y-26944997D01*
X23518316Y-26966684D01*
X23540003Y-26993110D01*
X23556121Y-27023264D01*
X23566045Y-27055976D01*
X23570000Y-27096138D01*
X23570000Y-27683862D01*
X23566045Y-27724024D01*
X23556121Y-27756736D01*
X23540003Y-27786890D01*
X23518316Y-27813316D01*
X23491890Y-27835003D01*
X23461736Y-27851121D01*
X23429024Y-27861045D01*
X23388862Y-27865000D01*
X22701138Y-27865000D01*
X22660976Y-27861045D01*
X22628264Y-27851121D01*
X22598110Y-27835003D01*
X22571684Y-27813316D01*
X22549997Y-27786890D01*
X22533879Y-27756736D01*
X22523955Y-27724024D01*
X22520000Y-27683862D01*
X22520000Y-27096138D01*
X22523955Y-27055976D01*
X22533879Y-27023264D01*
X22549997Y-26993110D01*
X22571684Y-26966684D01*
X22598110Y-26944997D01*
X22628264Y-26928879D01*
X22660976Y-26918955D01*
X22701138Y-26915000D01*
X23388862Y-26915000D01*
X23429024Y-26918955D01*
X23429024Y-26918955D01*
G37*
G36*
X25179024Y-26918955D02*
X25211736Y-26928879D01*
X25241890Y-26944997D01*
X25268316Y-26966684D01*
X25290003Y-26993110D01*
X25306121Y-27023264D01*
X25316045Y-27055976D01*
X25320000Y-27096138D01*
X25320000Y-27683862D01*
X25316045Y-27724024D01*
X25306121Y-27756736D01*
X25290003Y-27786890D01*
X25268316Y-27813316D01*
X25241890Y-27835003D01*
X25211736Y-27851121D01*
X25179024Y-27861045D01*
X25138862Y-27865000D01*
X24451138Y-27865000D01*
X24410976Y-27861045D01*
X24378264Y-27851121D01*
X24348110Y-27835003D01*
X24321684Y-27813316D01*
X24299997Y-27786890D01*
X24283879Y-27756736D01*
X24273955Y-27724024D01*
X24270000Y-27683862D01*
X24270000Y-27096138D01*
X24273955Y-27055976D01*
X24283879Y-27023264D01*
X24299997Y-26993110D01*
X24321684Y-26966684D01*
X24348110Y-26944997D01*
X24378264Y-26928879D01*
X24410976Y-26918955D01*
X24451138Y-26915000D01*
X25138862Y-26915000D01*
X25179024Y-26918955D01*
X25179024Y-26918955D01*
G37*
G36*
X42983195Y-24657522D02*
X43032267Y-24667283D01*
X43170942Y-24724724D01*
X43295750Y-24808118D01*
X43401882Y-24914250D01*
X43485276Y-25039058D01*
X43542717Y-25177734D01*
X43572000Y-25324948D01*
X43572000Y-25475052D01*
X43542717Y-25622266D01*
X43485276Y-25760942D01*
X43401882Y-25885750D01*
X43295750Y-25991882D01*
X43295747Y-25991884D01*
X43170942Y-26075276D01*
X43032267Y-26132717D01*
X42983195Y-26142478D01*
X42885052Y-26162000D01*
X42734948Y-26162000D01*
X42636805Y-26142478D01*
X42587733Y-26132717D01*
X42449058Y-26075276D01*
X42324253Y-25991884D01*
X42324250Y-25991882D01*
X42218118Y-25885750D01*
X42134724Y-25760942D01*
X42077283Y-25622266D01*
X42048000Y-25475052D01*
X42048000Y-25324948D01*
X42077283Y-25177734D01*
X42134724Y-25039058D01*
X42218118Y-24914250D01*
X42324250Y-24808118D01*
X42449058Y-24724724D01*
X42587733Y-24667283D01*
X42636805Y-24657522D01*
X42734948Y-24638000D01*
X42885052Y-24638000D01*
X42983195Y-24657522D01*
X42983195Y-24657522D01*
G37*
G36*
X15043195Y-24657522D02*
X15092267Y-24667283D01*
X15230942Y-24724724D01*
X15355750Y-24808118D01*
X15461882Y-24914250D01*
X15545276Y-25039058D01*
X15602717Y-25177734D01*
X15632000Y-25324948D01*
X15632000Y-25475052D01*
X15602717Y-25622266D01*
X15545276Y-25760942D01*
X15461882Y-25885750D01*
X15355750Y-25991882D01*
X15355747Y-25991884D01*
X15230942Y-26075276D01*
X15092267Y-26132717D01*
X15043195Y-26142478D01*
X14945052Y-26162000D01*
X14794948Y-26162000D01*
X14696805Y-26142478D01*
X14647733Y-26132717D01*
X14509058Y-26075276D01*
X14384253Y-25991884D01*
X14384250Y-25991882D01*
X14278118Y-25885750D01*
X14194724Y-25760942D01*
X14137283Y-25622266D01*
X14108000Y-25475052D01*
X14108000Y-25324948D01*
X14137283Y-25177734D01*
X14194724Y-25039058D01*
X14278118Y-24914250D01*
X14384250Y-24808118D01*
X14509058Y-24724724D01*
X14647733Y-24667283D01*
X14696805Y-24657522D01*
X14794948Y-24638000D01*
X14945052Y-24638000D01*
X15043195Y-24657522D01*
X15043195Y-24657522D01*
G37*
G36*
X15043195Y-22117522D02*
X15092267Y-22127283D01*
X15230942Y-22184724D01*
X15355750Y-22268118D01*
X15461882Y-22374250D01*
X15545276Y-22499058D01*
X15602717Y-22637734D01*
X15632000Y-22784948D01*
X15632000Y-22935052D01*
X15602717Y-23082266D01*
X15545276Y-23220942D01*
X15461882Y-23345750D01*
X15355750Y-23451882D01*
X15355747Y-23451884D01*
X15230942Y-23535276D01*
X15092267Y-23592717D01*
X15043195Y-23602478D01*
X14945052Y-23622000D01*
X14794948Y-23622000D01*
X14696805Y-23602478D01*
X14647733Y-23592717D01*
X14509058Y-23535276D01*
X14384253Y-23451884D01*
X14384250Y-23451882D01*
X14278118Y-23345750D01*
X14194724Y-23220942D01*
X14137283Y-23082266D01*
X14108000Y-22935052D01*
X14108000Y-22784948D01*
X14137283Y-22637734D01*
X14194724Y-22499058D01*
X14278118Y-22374250D01*
X14384250Y-22268118D01*
X14509058Y-22184724D01*
X14647733Y-22127283D01*
X14696805Y-22117522D01*
X14794948Y-22098000D01*
X14945052Y-22098000D01*
X15043195Y-22117522D01*
X15043195Y-22117522D01*
G37*
G36*
X42983195Y-22117522D02*
X43032267Y-22127283D01*
X43170942Y-22184724D01*
X43295750Y-22268118D01*
X43401882Y-22374250D01*
X43485276Y-22499058D01*
X43542717Y-22637734D01*
X43572000Y-22784948D01*
X43572000Y-22935052D01*
X43542717Y-23082266D01*
X43485276Y-23220942D01*
X43401882Y-23345750D01*
X43295750Y-23451882D01*
X43295747Y-23451884D01*
X43170942Y-23535276D01*
X43032267Y-23592717D01*
X42983195Y-23602478D01*
X42885052Y-23622000D01*
X42734948Y-23622000D01*
X42636805Y-23602478D01*
X42587733Y-23592717D01*
X42449058Y-23535276D01*
X42324253Y-23451884D01*
X42324250Y-23451882D01*
X42218118Y-23345750D01*
X42134724Y-23220942D01*
X42077283Y-23082266D01*
X42048000Y-22935052D01*
X42048000Y-22784948D01*
X42077283Y-22637734D01*
X42134724Y-22499058D01*
X42218118Y-22374250D01*
X42324250Y-22268118D01*
X42449058Y-22184724D01*
X42587733Y-22127283D01*
X42636805Y-22117522D01*
X42734948Y-22098000D01*
X42885052Y-22098000D01*
X42983195Y-22117522D01*
X42983195Y-22117522D01*
G37*
G36*
X25515770Y-20115372D02*
X25631689Y-20138429D01*
X25813678Y-20213811D01*
X25977463Y-20323249D01*
X26116751Y-20462537D01*
X26226189Y-20626322D01*
X26301571Y-20808311D01*
X26340000Y-21001509D01*
X26340000Y-21198491D01*
X26301571Y-21391689D01*
X26226189Y-21573678D01*
X26116751Y-21737463D01*
X25977463Y-21876751D01*
X25813678Y-21986189D01*
X25631689Y-22061571D01*
X25515770Y-22084628D01*
X25438493Y-22100000D01*
X25241507Y-22100000D01*
X25164230Y-22084628D01*
X25048311Y-22061571D01*
X24866322Y-21986189D01*
X24702537Y-21876751D01*
X24563249Y-21737463D01*
X24453811Y-21573678D01*
X24378429Y-21391689D01*
X24340000Y-21198491D01*
X24340000Y-21001509D01*
X24378429Y-20808311D01*
X24453811Y-20626322D01*
X24563249Y-20462537D01*
X24702537Y-20323249D01*
X24866322Y-20213811D01*
X25048311Y-20138429D01*
X25164230Y-20115372D01*
X25241507Y-20100000D01*
X25438493Y-20100000D01*
X25515770Y-20115372D01*
X25515770Y-20115372D01*
G37*
G36*
X21015770Y-20115372D02*
X21131689Y-20138429D01*
X21313678Y-20213811D01*
X21477463Y-20323249D01*
X21616751Y-20462537D01*
X21726189Y-20626322D01*
X21801571Y-20808311D01*
X21840000Y-21001509D01*
X21840000Y-21198491D01*
X21801571Y-21391689D01*
X21726189Y-21573678D01*
X21616751Y-21737463D01*
X21477463Y-21876751D01*
X21313678Y-21986189D01*
X21131689Y-22061571D01*
X21015770Y-22084628D01*
X20938493Y-22100000D01*
X20741507Y-22100000D01*
X20664230Y-22084628D01*
X20548311Y-22061571D01*
X20366322Y-21986189D01*
X20202537Y-21876751D01*
X20063249Y-21737463D01*
X19953811Y-21573678D01*
X19878429Y-21391689D01*
X19840000Y-21198491D01*
X19840000Y-21001509D01*
X19878429Y-20808311D01*
X19953811Y-20626322D01*
X20063249Y-20462537D01*
X20202537Y-20323249D01*
X20366322Y-20213811D01*
X20548311Y-20138429D01*
X20664230Y-20115372D01*
X20741507Y-20100000D01*
X20938493Y-20100000D01*
X21015770Y-20115372D01*
X21015770Y-20115372D01*
G37*
G36*
X41386630Y-18842299D02*
X41546855Y-18890903D01*
X41694520Y-18969831D01*
X41823949Y-19076051D01*
X41930169Y-19205480D01*
X42009097Y-19353145D01*
X42057701Y-19513370D01*
X42074112Y-19680000D01*
X42057701Y-19846630D01*
X42009097Y-20006855D01*
X41930169Y-20154520D01*
X41823949Y-20283949D01*
X41694520Y-20390169D01*
X41546855Y-20469097D01*
X41386630Y-20517701D01*
X41261752Y-20530000D01*
X41178248Y-20530000D01*
X41053370Y-20517701D01*
X40893145Y-20469097D01*
X40745480Y-20390169D01*
X40616051Y-20283949D01*
X40509831Y-20154520D01*
X40430903Y-20006855D01*
X40382299Y-19846630D01*
X40365888Y-19680000D01*
X40382299Y-19513370D01*
X40430903Y-19353145D01*
X40509831Y-19205480D01*
X40616051Y-19076051D01*
X40745480Y-18969831D01*
X40893145Y-18890903D01*
X41053370Y-18842299D01*
X41178248Y-18830000D01*
X41261752Y-18830000D01*
X41386630Y-18842299D01*
X41386630Y-18842299D01*
G37*
G36*
X39530000Y-20530000D02*
X37830000Y-20530000D01*
X37830000Y-18830000D01*
X39530000Y-18830000D01*
X39530000Y-20530000D01*
X39530000Y-20530000D01*
G37*
G36*
X33456630Y-18812299D02*
X33616855Y-18860903D01*
X33764520Y-18939831D01*
X33893949Y-19046051D01*
X34000169Y-19175480D01*
X34079097Y-19323145D01*
X34127701Y-19483370D01*
X34144112Y-19650000D01*
X34127701Y-19816630D01*
X34079097Y-19976855D01*
X34000169Y-20124520D01*
X33893949Y-20253949D01*
X33764520Y-20360169D01*
X33616855Y-20439097D01*
X33456630Y-20487701D01*
X33331752Y-20500000D01*
X33248248Y-20500000D01*
X33123370Y-20487701D01*
X32963145Y-20439097D01*
X32815480Y-20360169D01*
X32686051Y-20253949D01*
X32579831Y-20124520D01*
X32500903Y-19976855D01*
X32452299Y-19816630D01*
X32435888Y-19650000D01*
X32452299Y-19483370D01*
X32500903Y-19323145D01*
X32579831Y-19175480D01*
X32686051Y-19046051D01*
X32815480Y-18939831D01*
X32963145Y-18860903D01*
X33123370Y-18812299D01*
X33248248Y-18800000D01*
X33331752Y-18800000D01*
X33456630Y-18812299D01*
X33456630Y-18812299D01*
G37*
G36*
X31600000Y-20500000D02*
X29900000Y-20500000D01*
X29900000Y-18800000D01*
X31600000Y-18800000D01*
X31600000Y-20500000D01*
X31600000Y-20500000D01*
G37*
G36*
X16606703Y-13701486D02*
X16897883Y-13822097D01*
X17159944Y-13997201D01*
X17382799Y-14220056D01*
X17557903Y-14482117D01*
X17678514Y-14773297D01*
X17740000Y-15082412D01*
X17740000Y-15397588D01*
X17678514Y-15706703D01*
X17557903Y-15997883D01*
X17382799Y-16259944D01*
X17159944Y-16482799D01*
X16897883Y-16657903D01*
X16606703Y-16778514D01*
X16297588Y-16840000D01*
X15982412Y-16840000D01*
X15673297Y-16778514D01*
X15382117Y-16657903D01*
X15120056Y-16482799D01*
X14897201Y-16259944D01*
X14722097Y-15997883D01*
X14601486Y-15706703D01*
X14540000Y-15397588D01*
X14540000Y-15082412D01*
X14601486Y-14773297D01*
X14722097Y-14482117D01*
X14897201Y-14220056D01*
X15120056Y-13997201D01*
X15382117Y-13822097D01*
X15673297Y-13701486D01*
X15982412Y-13640000D01*
X16297588Y-13640000D01*
X16606703Y-13701486D01*
X16606703Y-13701486D01*
G37*
G36*
X42006703Y-13701486D02*
X42297883Y-13822097D01*
X42559944Y-13997201D01*
X42782799Y-14220056D01*
X42957903Y-14482117D01*
X43078514Y-14773297D01*
X43140000Y-15082412D01*
X43140000Y-15397588D01*
X43078514Y-15706703D01*
X42957903Y-15997883D01*
X42782799Y-16259944D01*
X42559944Y-16482799D01*
X42297883Y-16657903D01*
X42006703Y-16778514D01*
X41697588Y-16840000D01*
X41382412Y-16840000D01*
X41073297Y-16778514D01*
X40782117Y-16657903D01*
X40520056Y-16482799D01*
X40297201Y-16259944D01*
X40122097Y-15997883D01*
X40001486Y-15706703D01*
X39940000Y-15397588D01*
X39940000Y-15082412D01*
X40001486Y-14773297D01*
X40122097Y-14482117D01*
X40297201Y-14220056D01*
X40520056Y-13997201D01*
X40782117Y-13822097D01*
X41073297Y-13701486D01*
X41382412Y-13640000D01*
X41697588Y-13640000D01*
X42006703Y-13701486D01*
X42006703Y-13701486D01*
G37*
G36*
X25515770Y-13615372D02*
X25631689Y-13638429D01*
X25813678Y-13713811D01*
X25977463Y-13823249D01*
X26116751Y-13962537D01*
X26226189Y-14126322D01*
X26301571Y-14308311D01*
X26340000Y-14501509D01*
X26340000Y-14698491D01*
X26301571Y-14891689D01*
X26226189Y-15073678D01*
X26116751Y-15237463D01*
X25977463Y-15376751D01*
X25813678Y-15486189D01*
X25631689Y-15561571D01*
X25515770Y-15584628D01*
X25438493Y-15600000D01*
X25241507Y-15600000D01*
X25164230Y-15584628D01*
X25048311Y-15561571D01*
X24866322Y-15486189D01*
X24702537Y-15376751D01*
X24563249Y-15237463D01*
X24453811Y-15073678D01*
X24378429Y-14891689D01*
X24340000Y-14698491D01*
X24340000Y-14501509D01*
X24378429Y-14308311D01*
X24453811Y-14126322D01*
X24563249Y-13962537D01*
X24702537Y-13823249D01*
X24866322Y-13713811D01*
X25048311Y-13638429D01*
X25164230Y-13615372D01*
X25241507Y-13600000D01*
X25438493Y-13600000D01*
X25515770Y-13615372D01*
X25515770Y-13615372D01*
G37*
G36*
X21015770Y-13615372D02*
X21131689Y-13638429D01*
X21313678Y-13713811D01*
X21477463Y-13823249D01*
X21616751Y-13962537D01*
X21726189Y-14126322D01*
X21801571Y-14308311D01*
X21840000Y-14501509D01*
X21840000Y-14698491D01*
X21801571Y-14891689D01*
X21726189Y-15073678D01*
X21616751Y-15237463D01*
X21477463Y-15376751D01*
X21313678Y-15486189D01*
X21131689Y-15561571D01*
X21015770Y-15584628D01*
X20938493Y-15600000D01*
X20741507Y-15600000D01*
X20664230Y-15584628D01*
X20548311Y-15561571D01*
X20366322Y-15486189D01*
X20202537Y-15376751D01*
X20063249Y-15237463D01*
X19953811Y-15073678D01*
X19878429Y-14891689D01*
X19840000Y-14698491D01*
X19840000Y-14501509D01*
X19878429Y-14308311D01*
X19953811Y-14126322D01*
X20063249Y-13962537D01*
X20202537Y-13823249D01*
X20366322Y-13713811D01*
X20548311Y-13638429D01*
X20664230Y-13615372D01*
X20741507Y-13600000D01*
X20938493Y-13600000D01*
X21015770Y-13615372D01*
X21015770Y-13615372D01*
G37*
M02*
